<?xml version="1.0" encoding="utf-8"?>
<!-- Generator: Adobe Illustrator 24.1.2, SVG Export Plug-In . SVG Version: 6.00 Build 0)  -->
<svg version="1.1" id="Layer_1" xmlns="http://www.w3.org/2000/svg" xmlns:xlink="http://www.w3.org/1999/xlink" x="0px" y="0px"
	 viewBox="0 0 1017.1 261" style="enable-background:new 0 0 1017.1 261;" xml:space="preserve">
<style type="text/css">
	.st0{fill:none;stroke:#221F1F;stroke-width:16.248;stroke-linecap:round;stroke-linejoin:round;}
	.st1{fill:none;stroke:#E9262A;stroke-width:16.248;stroke-linecap:round;stroke-linejoin:round;}
	.st2{fill:none;stroke:#BABCBE;stroke-width:16.248;stroke-linecap:round;stroke-linejoin:round;}
	.st3{fill:#34232B;}
	.st4{fill:#E0D8E3;}
	.st5{fill:#9A1B1E;}
	.st6{fill:#F8F3F9;}
	.st7{fill:#E0CEA0;}
	.st8{fill:#D0D5D5;}
	.st9{fill:#371D1C;}
	.st10{fill:#805B44;}
	.st11{fill:#E9DBA0;}
	.st12{fill:#D9C5C5;}
	.st13{fill:#251A1E;}
	.st14{fill:#CFCED5;}
	.st15{fill:#28449C;}
	.st16{fill:#8F7B8A;}
	.st17{fill:#31253D;}
	.st18{fill:#2F2431;}
	.st19{fill:#C9C9B5;}
	.st20{fill:#FFFFFF;}
	.st21{font-family:'Verdana';}
	.st22{font-size:24.46px;}
	.st23{fill:none;stroke:#6D6E71;stroke-width:24;stroke-linecap:round;stroke-linejoin:round;}
</style>
<g id="Layer_1_1_">
	<line class="st0" x1="8.1" y1="111.4" x2="140.6" y2="111.4"/>
	<line class="st1" x1="8.1" y1="63.4" x2="140.6" y2="63.4"/>
	<line class="st2" x1="8.1" y1="163.7" x2="140.6" y2="162.5"/>
	<path class="st3" d="M982,248.9c18.9-5.2,32.8-21.4,34.9-41c2.1-20.7-10.1-40.8-29.9-48.8H845.9v91.8L982,248.9z"/>
	<path class="st4" d="M982,126.1c18.9-5.2,32.8-21.4,34.9-41c2.1-20.7-10.1-40.8-29.9-48.8H845.9v91.8L982,126.1z"/>
	<rect x="277.4" class="st5" width="557.3" height="261"/>
	<circle class="st6" cx="805.3" cy="183.4" r="12.5"/>
	<path class="st7" d="M848,186.1h-41c-1.5,0-2.8-1.2-2.8-2.8v0c0-1.5,1.2-2.8,2.8-2.8h41c1.5,0,2.8,1.2,2.8,2.8v0
		C850.7,184.9,849.5,186.1,848,186.1z"/>
	<circle class="st6" cx="805.3" cy="232.1" r="12.5"/>
	<path class="st7" d="M848,234.9h-41c-1.5,0-2.8-1.2-2.8-2.8v0c0-1.5,1.2-2.8,2.8-2.8h41c1.5,0,2.8,1.2,2.8,2.8v0
		C850.7,233.6,849.5,234.9,848,234.9z"/>
	<circle class="st6" cx="807.2" cy="58.2" r="12.5"/>
	<path class="st7" d="M849.9,61h-41c-1.5,0-2.8-1.2-2.8-2.8l0,0c0-1.5,1.2-2.8,2.8-2.8h41c1.5,0,2.8,1.2,2.8,2.8l0,0
		C852.7,59.7,851.4,61,849.9,61z"/>
	<circle class="st6" cx="807.2" cy="106.9" r="12.5"/>
	<path class="st7" d="M849.9,109.7h-41c-1.5,0-2.8-1.2-2.8-2.8l0,0c0-1.5,1.2-2.8,2.8-2.8h41c1.5,0,2.8,1.2,2.8,2.8l0,0
		C852.7,108.5,851.4,109.7,849.9,109.7z"/>
	<rect x="725.2" y="234.9" class="st8" width="24.5" height="16"/>
	<rect x="725.2" y="194.4" class="st8" width="24.5" height="16"/>
	<rect x="725.2" y="210.4" class="st9" width="24.5" height="24.5"/>
	<rect x="725.2" y="63.2" class="st8" width="24.5" height="16"/>
	<rect x="725.2" y="22.7" class="st8" width="24.5" height="16"/>
	<rect x="725.2" y="38.7" class="st9" width="24.5" height="24.5"/>
	<rect x="390" y="182.1" class="st8" width="16" height="24.5"/>
	<rect x="430.5" y="182.1" class="st8" width="16" height="24.5"/>
	<rect x="406" y="182.1" class="st9" width="24.5" height="24.5"/>
	<rect x="390" y="140.3" class="st8" width="16" height="24.5"/>
	<rect x="430.5" y="140.3" class="st8" width="16" height="24.5"/>
	<rect x="406" y="140.3" class="st9" width="24.5" height="24.5"/>
	<rect x="390" y="82.2" class="st8" width="16" height="24.5"/>
	<rect x="430.5" y="82.2" class="st8" width="16" height="24.5"/>
	<rect x="406" y="82.2" class="st9" width="24.5" height="24.5"/>
	<rect x="390" y="48.4" class="st8" width="16" height="24.5"/>
	<rect x="430.5" y="48.4" class="st8" width="16" height="24.5"/>
	<rect x="406" y="48.4" class="st10" width="24.5" height="24.5"/>
	<rect x="390" y="227.7" class="st8" width="16" height="24.5"/>
	<rect x="430.5" y="227.7" class="st8" width="16" height="24.5"/>
	<rect x="406" y="227.7" class="st10" width="24.5" height="24.5"/>
	<rect x="640.8" y="232.3" class="st8" width="16" height="24.5"/>
	<rect x="681.3" y="232.3" class="st8" width="16" height="24.5"/>
	<rect x="656.8" y="232.3" class="st11" width="24.5" height="24.5"/>
	<rect x="646.5" y="18.4" class="st8" width="16" height="24.5"/>
	<rect x="687" y="18.4" class="st8" width="16" height="24.5"/>
	<rect x="662.5" y="18.4" class="st11" width="24.5" height="24.5"/>
	<circle class="st12" cx="674.8" cy="133" r="39.6"/>
	<rect x="501.1" y="158.4" class="st13" width="83.8" height="92.4"/>
	<rect x="579.8" y="239.5" class="st14" width="36.4" height="9"/>
	<rect x="579.8" y="215.1" class="st14" width="36.4" height="9"/>
	<rect x="579.8" y="190.8" class="st14" width="36.4" height="9"/>
	<rect x="579.8" y="166.5" class="st14" width="36.4" height="9"/>
	<rect x="472.9" y="238.7" class="st14" width="36.4" height="9"/>
	<rect x="472.9" y="214.3" class="st14" width="36.4" height="9"/>
	<rect x="472.9" y="190" class="st14" width="36.4" height="9"/>
	<rect x="472.9" y="165.7" class="st14" width="36.4" height="9"/>
	<rect x="468.3" y="13.2" class="st15" width="138" height="138"/>
	<circle class="st16" cx="537.2" cy="82.2" r="27"/>
	<path class="st17" d="M511.2,88.9h17.7v18.8c4.7,1.7,9.8,1.9,14.7,0.6V87.7h20c0.4-1.8,0.6-3.7,0.6-5.5c0-2.3-0.4-4.6-1-6.8h-19.7
		V56.1c-4-1.1-8.2-1.1-12.3-0.1V77h-20.5c-0.3,1.7-0.5,3.4-0.5,5.2C510.3,84.5,510.6,86.7,511.2,88.9z"/>
	<path class="st18" d="M322.5,231.6h-27.6c-5.6,0-10.2-4.6-10.2-10.2v-27.6c0-5.6,4.6-10.2,10.2-10.2h27.6c5.6,0,10.2,4.6,10.2,10.2
		v27.6C332.7,227,328.1,231.6,322.5,231.6z"/>
	<path class="st18" d="M322.5,183.5h-27.6c-5.6,0-10.2-4.6-10.2-10.2v-27.6c0-5.6,4.6-10.2,10.2-10.2h27.6c5.6,0,10.2,4.6,10.2,10.2
		v27.6C332.7,178.9,328.1,183.5,322.5,183.5z"/>
	<path class="st18" d="M322.5,135.4h-27.6c-5.6,0-10.2-4.6-10.2-10.2V97.6c0-5.6,4.6-10.2,10.2-10.2h27.6c5.6,0,10.2,4.6,10.2,10.2
		v27.6C332.7,130.9,328.1,135.4,322.5,135.4z"/>
	<path class="st18" d="M322.5,87.4h-27.6c-5.6,0-10.2-4.6-10.2-10.2V49.5c0-5.6,4.6-10.2,10.2-10.2h27.6c5.6,0,10.2,4.6,10.2,10.2
		v27.6C332.7,82.8,328.1,87.4,322.5,87.4z"/>
	<rect x="162.2" y="204.4" class="st19" width="149.6" height="9.9"/>
	<rect x="160.2" y="157.5" class="st19" width="149.6" height="9.9"/>
	<rect x="160.2" y="106.5" class="st19" width="149.6" height="9.9"/>
	<rect x="162.2" y="58.4" class="st19" width="149.6" height="9.9"/>
	<text transform="matrix(6.123234e-17 -1 1 6.123234e-17 356.5109 223.4771)" class="st20 st21 st22">AO</text>
	<text transform="matrix(6.123234e-17 -1 1 6.123234e-17 356.5109 180.0161)" class="st20 st21 st22">DO</text>
	<text transform="matrix(6.123234e-17 -1 1 6.123234e-17 356.5109 137.9966)" class="st20 st21 st22">GND</text>
	<text transform="matrix(6.123234e-17 -1 1 6.123234e-17 356.5109 85.2778)" class="st20 st21 st22">VCC</text>
	<line class="st23" x1="192.8" y1="162.5" x2="110" y2="162.5"/>
	<line class="st23" x1="192.8" y1="111.4" x2="110" y2="111.4"/>
	<line class="st23" x1="192.8" y1="63.4" x2="110" y2="63.4"/>
</g>
</svg>
