<?xml version="1.0" encoding="utf-8"?>
<!-- Generator: Adobe Illustrator 24.1.2, SVG Export Plug-In . SVG Version: 6.00 Build 0)  -->
<svg version="1.1" id="Layer_1" xmlns="http://www.w3.org/2000/svg" xmlns:xlink="http://www.w3.org/1999/xlink" x="0px" y="0px"
	 viewBox="0 0 499.8 435.3" style="enable-background:new 0 0 499.8 435.3;" xml:space="preserve">
<style type="text/css">
	.st0{fill:#1E4696;}
	.st1{fill:#E3CBA4;}
	.st2{fill:#FFFFFF;}
	.st3{fill:#45444D;}
	.st4{fill:#A88A72;}
	.st5{fill:#BFBEBE;}
	.st6{fill:#31313A;}
	.st7{fill:#BCBAB6;}
	.st8{font-family:'Verdana';}
	.st9{font-size:58.0665px;}
	.st10{font-size:35.4174px;}
	.st11{fill:#231F20;}
</style>
<g id="Layer_1_1_">
	<path class="st0" d="M439.8,435.3H59.9C26.8,435.3,0,408.5,0,375.3c0,0,0,0,0,0V59.9C0,26.8,26.8,0,59.9,0c0,0,0,0,0,0h379.9
		c33.1,0,59.9,26.8,59.9,59.9c0,0,0,0,0,0v315.4C499.8,408.5,473,435.3,439.8,435.3C439.8,435.3,439.8,435.3,439.8,435.3z"/>
	<circle class="st1" cx="63.2" cy="60.5" r="43.3"/>
	<circle class="st2" cx="63.2" cy="60.5" r="31.5"/>
	
		<ellipse transform="matrix(7.088900e-02 -0.9975 0.9975 7.088900e-02 -311.2411 407.5677)" class="st1" cx="63.2" cy="370.9" rx="21.1" ry="21.1"/>
	<circle class="st2" cx="63.2" cy="370.9" r="15.4"/>
	<circle class="st1" cx="124.2" cy="370.9" r="21.1"/>
	<circle class="st2" cx="124.2" cy="370.9" r="15.4"/>
	<circle class="st1" cx="188" cy="370.9" r="21.1"/>
	<circle class="st2" cx="188" cy="370.9" r="15.4"/>
	<circle class="st1" cx="249" cy="370.9" r="21.1"/>
	<circle class="st2" cx="249" cy="370.9" r="15.4"/>
	<circle class="st1" cx="311.1" cy="370.9" r="21.1"/>
	<circle class="st2" cx="311.1" cy="370.9" r="15.4"/>
	<circle class="st1" cx="375" cy="370.9" r="21.1"/>
	<circle class="st2" cx="375" cy="370.9" r="15.4"/>
	
		<ellipse transform="matrix(0.1602 -0.9871 0.9871 0.1602 8.335028e-02 741.811)" class="st1" cx="436" cy="370.9" rx="21.1" ry="21.1"/>
	
		<ellipse transform="matrix(0.1602 -0.9871 0.9871 0.1602 8.328966e-02 741.8109)" class="st2" cx="436" cy="370.9" rx="15.4" ry="15.3"/>
	
		<ellipse transform="matrix(0.1602 -0.9871 0.9871 0.1602 307.2031 482.1395)" class="st1" cx="436.9" cy="60.5" rx="43.3" ry="43.3"/>
	<circle class="st2" cx="436.9" cy="60.5" r="31.5"/>
	<rect x="220.9" y="130" class="st3" width="58" height="108.7"/>
	<rect x="150.5" y="80" class="st4" width="22.2" height="32"/>
	<rect x="172.8" y="80" class="st5" width="22.2" height="32"/>
	<rect x="128.5" y="80" class="st5" width="22.2" height="32"/>
	<rect x="58.7" y="121.2" class="st4" width="22.2" height="32"/>
	<rect x="80.9" y="121.2" class="st5" width="22.2" height="32"/>
	<rect x="36.6" y="121.2" class="st5" width="22.2" height="32"/>
	<rect x="62" y="277.3" class="st4" width="22.2" height="32"/>
	<rect x="84.2" y="277.3" class="st5" width="22.2" height="32"/>
	<rect x="40" y="277.3" class="st5" width="22.2" height="32"/>
	<rect x="139.6" y="249.8" class="st6" width="32" height="26.8"/>
	<rect x="139.6" y="276.7" class="st5" width="32" height="26.8"/>
	<rect x="139.6" y="223.2" class="st5" width="32" height="26.8"/>
	<rect x="143.5" y="149.9" class="st6" width="32" height="26.8"/>
	<rect x="143.5" y="176.7" class="st5" width="32" height="26.8"/>
	<rect x="143.5" y="123.3" class="st5" width="32" height="26.8"/>
	<rect x="342.1" y="141.1" class="st6" width="26.8" height="32"/>
	<rect x="315.3" y="141.1" class="st5" width="26.8" height="32"/>
	<rect x="368.8" y="141.1" class="st5" width="26.8" height="32"/>
	<rect x="342.2" y="141.1" class="st6" width="26.8" height="32"/>
	<rect x="315.4" y="141.1" class="st5" width="26.8" height="32"/>
	<rect x="368.9" y="141.1" class="st5" width="26.8" height="32"/>
	<rect x="432.3" y="141.1" class="st6" width="26.8" height="32"/>
	<rect x="405.4" y="141.1" class="st5" width="26.8" height="32"/>
	<rect x="458.9" y="141.1" class="st5" width="26.8" height="32"/>
	<rect x="436.6" y="276.7" class="st6" width="26.8" height="32"/>
	<rect x="409.8" y="276.7" class="st5" width="26.8" height="32"/>
	<rect x="463.2" y="276.7" class="st5" width="26.8" height="32"/>
	<rect x="342.3" y="276.7" class="st6" width="26.8" height="32"/>
	<rect x="315.5" y="276.7" class="st5" width="26.8" height="32"/>
	<rect x="368.9" y="276.7" class="st5" width="26.8" height="32"/>
	<rect x="236.6" y="273.8" class="st6" width="26.8" height="28.4"/>
	<rect x="209.7" y="273.8" class="st5" width="26.8" height="28.4"/>
	<rect x="263.2" y="273.8" class="st5" width="26.8" height="28.4"/>
	<rect x="319" y="209" class="st6" width="69.6" height="24.9"/>
	<rect x="319" y="184.3" class="st7" width="23.1" height="24.7"/>
	<rect x="340.5" y="233.9" class="st7" width="23.1" height="24.7"/>
	<rect x="364.4" y="184.3" class="st7" width="24.3" height="24.7"/>
	<rect x="38.3" y="197.6" class="st6" width="69.6" height="32.9"/>
	<rect x="42.2" y="164.9" class="st7" width="14.1" height="32.7"/>
	<rect x="89" y="164.9" class="st7" width="14.1" height="32.7"/>
	<rect x="88.3" y="230.5" class="st7" width="14.1" height="32.7"/>
	<rect x="64.5" y="230.5" class="st7" width="14.1" height="32.7"/>
	<rect x="42.2" y="230.5" class="st7" width="14.1" height="32.7"/>
	<rect x="415.2" y="209" class="st6" width="69.6" height="24.9"/>
	<rect x="415.2" y="184.3" class="st7" width="23.1" height="24.7"/>
	<rect x="436.7" y="233.9" class="st7" width="23.1" height="24.7"/>
	<rect x="460.5" y="184.3" class="st7" width="24.3" height="24.7"/>
	<text transform="matrix(1.0844 0 0 1 112.2205 54.9171)" class="st2 st8 st9">VL53L0X</text>
	<text transform="matrix(1.0844 0 0 1 38.2982 424.3121)" class="st2 st8 st10">VIN</text>
	<text transform="matrix(1.0844 0 0 1 95.3377 343.2916)" class="st2 st8 st10">2v8</text>
	<text transform="matrix(1.0844 0 0 1 205.4139 343.2916)" class="st2 st8 st10">GPIO</text>
	<text transform="matrix(1.0844 0 0 1 340.5233 343.2916)" class="st2 st8 st10">SCL</text>
	<text transform="matrix(1.0844 0 0 1 385.3475 424.3121)" class="st2 st8 st10">SDA</text>
	<text transform="matrix(1.0844 0 0 1 258.2186 424.3121)" class="st2 st8 st10">SHDN</text>
	<text transform="matrix(1.0844 0 0 1 150.5526 424.3121)" class="st2 st8 st10">GND</text>
	<circle class="st11" cx="248.3" cy="147.4" r="5.3"/>
</g>
</svg>
