<?xml version="1.0" encoding="utf-8"?>
<!-- Generator: Adobe Illustrator 24.1.2, SVG Export Plug-In . SVG Version: 6.00 Build 0)  -->
<svg version="1.1" id="Layer_1" xmlns="http://www.w3.org/2000/svg" xmlns:xlink="http://www.w3.org/1999/xlink" x="0px" y="0px"
	 viewBox="0 0 997.5 631" style="enable-background:new 0 0 997.5 631;" xml:space="preserve">
<style type="text/css">
	.st0{fill:none;stroke:#221F1F;stroke-width:12.186;stroke-linecap:round;stroke-linejoin:round;}
	.st1{fill:none;stroke:#E9262A;stroke-width:12.186;stroke-linecap:round;stroke-linejoin:round;}
	.st2{fill:none;stroke:#BABCBE;stroke-width:12.186;stroke-linecap:round;stroke-linejoin:round;}
	.st3{fill:#1B1B19;}
	.st4{fill:#1E1F19;}
	.st5{fill:#262626;}
	.st6{fill:#232122;}
	.st7{fill:#624118;}
	.st8{fill:#A6A39B;}
	.st9{fill:#181818;}
	.st10{fill:#0B0C09;}
	.st11{fill:none;stroke:#939598;stroke-width:22.5;stroke-linecap:round;stroke-linejoin:round;}
</style>
<g id="Layer_1_1_">
	<line class="st0" x1="344.9" y1="595.6" x2="343.2" y2="436.6"/>
	<line class="st1" x1="355.6" y1="595.6" x2="354.9" y2="436.6"/>
	<line class="st2" x1="367.3" y1="595.6" x2="366.7" y2="436.6"/>
	<path class="st3" d="M113.2,365.9h29.2c27,0,49-21.9,49-49l0,0c0-27-21.9-49-49-49h-29.2c-27,0-49,21.9-49,49l0,0
		C64.2,344,86.1,365.9,113.2,365.9z M113.5,295.7c11.7,0,21.3,9.5,21.3,21.3c0,11.7-9.5,21.3-21.3,21.3c-11.7,0-21.3-9.5-21.3-21.3
		S101.8,295.7,113.5,295.7L113.5,295.7z"/>
	<path class="st3" d="M538.9,367.5h59.2c27,0,48.9-21.9,48.9-48.9l0,0c0-27-21.9-48.9-48.9-48.9h-59.2c-27,0-48.9,21.9-48.9,48.9
		l0,0l0,0C490,345.5,511.9,367.5,538.9,367.5C538.9,367.5,538.9,367.5,538.9,367.5z M596.7,298c11.6,0,21.1,9.4,21.1,21.1
		c0,11.6-9.4,21.1-21.1,21.1c-11.6,0-21.1-9.4-21.1-21.1S585.1,298,596.7,298z"/>
	<rect x="152.6" y="232.2" class="st4" width="393.8" height="172.3"/>
	<rect x="152.6" y="261.2" class="st5" width="393.8" height="113.5"/>
	<rect x="159.3" y="268" class="st6" width="102.7" height="98"/>
	<rect x="315.4" y="272.2" class="st3" width="216.8" height="93.7"/>
	<rect x="284.2" y="374.7" class="st7" width="139.7" height="108.1"/>
	<polygon class="st8" points="303.7,379.7 303.7,479.3 404.3,479.3 404.3,379.7 391.7,379.7 391.7,404.4 314.8,404.4 314.8,379.7 	
		"/>
	<path class="st6" d="M532.2,367.9H432c-26.2-25.4-26.8-67.3-1.4-93.5c0.5-0.5,0.9-0.9,1.4-1.4h100.2V367.9z"/>
	<circle cx="479.5" cy="319.1" r="33"/>
	<path class="st6" d="M596.7,364.6c25.4,0,46.1-20.6,46.1-46c0-25.4-20.6-46-46-46c-25.4,0-46.1,20.6-46.1,46l0,0
		C550.7,343.9,571.3,364.6,596.7,364.6z M597,297.6c11.6,0,21.1,9.4,21.1,21.1c0,11.6-9.4,21.1-21.1,21.1s-21.1-9.4-21.1-21.1
		c0,0,0,0,0,0C575.9,307.1,585.3,297.6,597,297.6z"/>
	<path class="st6" d="M113.5,362.8c16,0,30.8-8.3,39.1-22v-47.7c-13.2-21.6-41.4-28.4-63-15.2s-28.4,41.4-15.2,63
		C82.7,354.5,97.6,362.8,113.5,362.8L113.5,362.8z M113.5,295.7c11.7,0,21.3,9.5,21.3,21.3c0,11.7-9.5,21.3-21.3,21.3
		c-11.7,0-21.3-9.5-21.3-21.3C92.2,305.2,101.8,295.7,113.5,295.7L113.5,295.7z"/>
	<circle class="st9" cx="210.7" cy="316.9" r="40.7"/>
	<circle class="st10" cx="210.7" cy="316.9" r="24.6"/>
	<line class="st11" x1="341.8" y1="504.2" x2="341.8" y2="460.8"/>
	<line class="st11" x1="355.6" y1="504.5" x2="355.6" y2="461.1"/>
	<line class="st11" x1="369.5" y1="504.2" x2="369.5" y2="460.8"/>
</g>
</svg>
