<?xml version="1.0" encoding="utf-8"?>
<!-- Generator: Adobe Illustrator 24.1.2, SVG Export Plug-In . SVG Version: 6.00 Build 0)  -->
<svg version="1.1" id="Layer_1" xmlns="http://www.w3.org/2000/svg" xmlns:xlink="http://www.w3.org/1999/xlink" x="0px" y="0px"
	 viewBox="0 0 619.6 178.3" style="enable-background:new 0 0 619.6 178.3;" xml:space="preserve">
<style type="text/css">
	.st0{fill:none;stroke:#F7941D;stroke-width:10.832;stroke-linecap:round;stroke-linejoin:round;}
	.st1{fill:none;stroke:#1C75BC;stroke-width:10.832;stroke-linecap:round;stroke-linejoin:round;}
	.st2{fill:none;stroke:#754C29;stroke-width:10.832;stroke-linecap:round;stroke-linejoin:round;}
	.st3{fill:none;stroke:#221F1F;stroke-width:10.832;stroke-linecap:round;stroke-linejoin:round;}
	.st4{fill:none;stroke:#E9262A;stroke-width:10.832;stroke-linecap:round;stroke-linejoin:round;}
	.st5{fill:none;stroke:#BABCBE;stroke-width:10.832;stroke-linecap:round;stroke-linejoin:round;}
	.st6{fill:none;stroke:#939598;stroke-width:20;stroke-linecap:round;stroke-linejoin:round;}
	.st7{fill:#A8AAAA;}
	.st8{fill:#6F7170;}
	.st9{fill:#C7CEC7;}
	.st10{fill:#A89240;}
	.st11{fill:#E2D16D;}
	.st12{fill:#B7A447;}
	.st13{fill:#E1DCC3;}
	.st14{fill:#524B52;}
</style>
<line class="st0" x1="105.8" y1="104.7" x2="170.3" y2="104.7"/>
<line class="st1" x1="103.3" y1="88.1" x2="167.8" y2="88.1"/>
<line class="st2" x1="103.3" y1="71.5" x2="167.8" y2="71.5"/>
<line class="st3" x1="5.4" y1="73.3" x2="91.4" y2="73.6"/>
<line class="st4" x1="5.4" y1="105.9" x2="90.7" y2="106.5"/>
<line class="st5" x1="5.4" y1="88.1" x2="81.2" y2="88.1"/>
<line class="st6" x1="63.1" y1="73.6" x2="101.8" y2="73.6"/>
<line class="st6" x1="63.1" y1="104.7" x2="101.8" y2="104.7"/>
<line class="st6" x1="63.1" y1="88.1" x2="101.8" y2="88.1"/>
<path class="st7" d="M600.6,128.5H494.5c-10.5,0-18.9-8.5-18.9-18.9V68.7c0-10.5,8.5-18.9,18.9-18.9h106.2
	c10.5,0,18.9,8.5,18.9,18.9v40.9C619.6,120,611.1,128.5,600.6,128.5z"/>
<path class="st8" d="M472.5,139H469c-6.3,0-11.5-5.1-11.5-11.5V50.8c0-6.3,5.1-11.5,11.5-11.5h3.6c6.3,0,11.5,5.1,11.5,11.5v76.8
	C484,133.9,478.9,139,472.5,139z"/>
<path class="st9" d="M467.6,149.4L467.6,149.4c-4.4,0-7.9-3.5-7.9-7.9V36.9c0-4.4,3.5-7.9,7.9-7.9h0c4.4,0,7.9,3.5,7.9,7.9v104.6
	C475.5,145.8,472,149.4,467.6,149.4z"/>
<path class="st10" d="M454,158.2H411c-9.2,0-16.7-7.5-16.7-16.7V36.8c0-9.2,7.5-16.7,16.7-16.7H454c9.2,0,16.7,7.5,16.7,16.7v104.7
	C470.7,150.7,463.2,158.2,454,158.2z"/>
<rect x="375.4" y="29" class="st11" width="18.9" height="120.4"/>
<path class="st12" d="M342.4,178.3h-84.9c-18.2,0-32.9-14.8-32.9-32.9V32.9c0-18.2,14.8-32.9,32.9-32.9h84.9
	c18.2,0,32.9,14.8,32.9,32.9v112.4C375.4,163.6,360.6,178.3,342.4,178.3z"/>
<path class="st13" d="M213.9,115.7h-49.3c-3.2,0-5.7-2.6-5.7-5.7V68.4c0-3.2,2.6-5.7,5.7-5.7h49.3c3.2,0,5.7,2.6,5.7,5.7V110
	C219.6,113.1,217,115.7,213.9,115.7z"/>
<path class="st14" d="M224.1,134.2c0.1,0,0.3,0,0.4,0V44.2c-0.1,0-0.3,0-0.4,0c-4.1,0-7.4,3.3-7.4,7.4v75.2
	C216.7,130.9,220.1,134.2,224.1,134.2C224.1,134.2,224.1,134.2,224.1,134.2z"/>
</svg>
