<svg id="Layer_1" data-name="Layer 1" xmlns="http://www.w3.org/2000/svg" viewBox="0 0 112.668 179.4395"><defs><style>.cls-1,.cls-12,.cls-4,.cls-6,.cls-8{fill:none;}.cls-1{stroke:#424242;stroke-linecap:round;stroke-linejoin:round;stroke-width:7.85px;}.cls-2{fill:#2c2929;}.cls-3{fill:#404041;}.cls-12,.cls-4{stroke:#221f1f;}.cls-12,.cls-4,.cls-6,.cls-8{stroke-miterlimit:10;}.cls-4{stroke-width:0.728px;}.cls-15,.cls-5{fill:#221f1f;}.cls-6{stroke:#fff;}.cls-12,.cls-6{stroke-width:1.015px;}.cls-7{fill:#323031;}.cls-8{stroke:#7f7f81;stroke-width:0.187px;}.cls-9{fill:#cfd2d3;}.cls-10,.cls-14{fill:#fff;}.cls-11{fill:#018fb9;}.cls-13{fill:#010101;}.cls-13,.cls-14,.cls-15{fill-rule:evenodd;}.cls-16{fill:#2b2b2b;}</style></defs><line class="cls-1" x1="56.4188" y1="152.3899" x2="56.4188" y2="86.7189"/><path class="cls-2" d="M76.3571,92.3579H36.31A36.31,36.31,0,0,1,0,56.047V36.31A36.3093,36.3093,0,0,1,36.31,0H76.3571A36.31,36.31,0,0,1,112.668,36.31V56.047A36.3109,36.3109,0,0,1,76.3571,92.3579"/><path class="cls-3" d="M86.5709,74.0933H25.6328A18.0959,18.0959,0,0,1,7.5359,55.9963V36.3613a18.0953,18.0953,0,0,1,18.0969-18.097H86.5709a18.0967,18.0967,0,0,1,18.0969,18.097v19.635a18.0972,18.0972,0,0,1-18.0969,18.097"/><path class="cls-4" d="M25.6328,18.2643H86.5709a18.0969,18.0969,0,0,1,18.0969,18.0969v19.635a18.097,18.097,0,0,1-18.097,18.097H25.6328A18.0969,18.0969,0,0,1,7.5359,55.9963V36.3612A18.0969,18.0969,0,0,1,25.6328,18.2643Z"/><path class="cls-5" d="M84.3492,68.6978H28.6842A15.337,15.337,0,0,1,13.3472,53.36V38.9208a15.337,15.337,0,0,1,15.337-15.338h55.665a15.3371,15.3371,0,0,1,15.337,15.338V53.36a15.3371,15.3371,0,0,1-15.337,15.3379"/><path class="cls-6" d="M28.6851,23.5828H84.3491A15.337,15.337,0,0,1,99.6862,38.92V53.36a15.338,15.338,0,0,1-15.338,15.338H28.6841A15.3369,15.3369,0,0,1,13.3472,53.3608v-14.44A15.3379,15.3379,0,0,1,28.6851,23.5828Z"/><path class="cls-7" d="M86.0836,66.103H26.4305A10.5928,10.5928,0,0,1,15.8375,55.51V36.7441a10.5929,10.5929,0,0,1,10.593-10.593H86.0836a10.5921,10.5921,0,0,1,10.5929,10.593V55.51A10.592,10.592,0,0,1,86.0836,66.103"/><path class="cls-8" d="M26.43,26.1511H86.0835a10.593,10.593,0,0,1,10.593,10.593V55.51a10.593,10.593,0,0,1-10.593,10.593H26.43A10.5929,10.5929,0,0,1,15.8375,55.51V36.744A10.5929,10.5929,0,0,1,26.43,26.1511Z"/><path class="cls-7" d="M83.3981,63.59H29.532A8.4023,8.4023,0,0,1,21.129,55.19V37.0654a8.4025,8.4025,0,0,1,8.403-8.4019H83.3981a8.4014,8.4014,0,0,1,8.4009,8.4019V55.19A8.4012,8.4012,0,0,1,83.3981,63.59"/><path class="cls-8" d="M29.53,28.6635H83.396a8.403,8.403,0,0,1,8.403,8.403V55.1884a8.402,8.402,0,0,1-8.402,8.402H29.53a8.4009,8.4009,0,0,1-8.4009-8.4009V37.0643A8.4009,8.4009,0,0,1,29.53,28.6635Z"/><path class="cls-7" d="M79.5563,62.16H32.9573a7.4691,7.4691,0,0,1-7.4691-7.469V37.9268a7.47,7.47,0,0,1,7.4691-7.47h46.599a7.47,7.47,0,0,1,7.47,7.47V54.6907a7.4691,7.4691,0,0,1-7.47,7.469"/><path class="cls-8" d="M32.9572,30.4568h46.6a7.469,7.469,0,0,1,7.469,7.469V54.69a7.47,7.47,0,0,1-7.47,7.47H32.9581a7.47,7.47,0,0,1-7.47-7.47V37.9258A7.469,7.469,0,0,1,32.9572,30.4568Z"/><path class="cls-7" d="M77.9547,59.7729H34.4507a4.1931,4.1931,0,0,1-4.193-4.1929V36.4661a4.194,4.194,0,0,1,4.193-4.1932h43.504a4.1943,4.1943,0,0,1,4.194,4.1932V55.58a4.1935,4.1935,0,0,1-4.194,4.1929"/><path class="cls-8" d="M34.4507,32.2729h43.505a4.193,4.193,0,0,1,4.193,4.193V55.58a4.1931,4.1931,0,0,1-4.1931,4.1931H34.4517a4.194,4.194,0,0,1-4.194-4.194V36.4659A4.193,4.193,0,0,1,34.4507,32.2729Z"/><path class="cls-7" d="M73.0885,58.1108H39.7135A4.2509,4.2509,0,0,1,35.4614,53.86V38.3729a4.2519,4.2519,0,0,1,4.2521-4.2521h33.375a4.2518,4.2518,0,0,1,4.252,4.2521V53.86a4.2508,4.2508,0,0,1-4.252,4.2509"/><path class="cls-8" d="M39.7124,34.1208h33.376A4.2521,4.2521,0,0,1,77.34,38.3729V53.8588a4.2521,4.2521,0,0,1-4.2521,4.2521H39.7134a4.252,4.252,0,0,1-4.252-4.252V38.3718A4.251,4.251,0,0,1,39.7124,34.1208Z"/><path class="cls-7" d="M69.1578,56.2446H43.6788a3.4084,3.4084,0,0,1-3.409-3.4079V39.66a3.4078,3.4078,0,0,1,3.409-3.408h25.479a3.4078,3.4078,0,0,1,3.409,3.408v13.177a3.4084,3.4084,0,0,1-3.409,3.4079"/><path class="cls-8" d="M43.6777,36.2517h25.48a3.4091,3.4091,0,0,1,3.4091,3.4091V52.8367a3.408,3.408,0,0,1-3.408,3.408h-25.48A3.4089,3.4089,0,0,1,40.27,52.8357V39.66A3.408,3.408,0,0,1,43.6777,36.2517Z"/><path class="cls-7" d="M65.2545,54.1694H47.5814a2.5387,2.5387,0,0,1-2.5379-2.5379V40.9685a2.5382,2.5382,0,0,1,2.5379-2.538H65.2545a2.5385,2.5385,0,0,1,2.539,2.538v10.663a2.539,2.539,0,0,1-2.539,2.5379"/><path class="cls-8" d="M47.5824,38.4305H65.2555a2.538,2.538,0,0,1,2.538,2.538v10.663a2.538,2.538,0,0,1-2.538,2.538H47.5824A2.5389,2.5389,0,0,1,45.0435,51.63V40.9695A2.5389,2.5389,0,0,1,47.5824,38.4305Z"/><path class="cls-5" d="M63.5787,46.2476a7.16,7.16,0,1,1-7.16-7.16,7.1607,7.1607,0,0,1,7.16,7.16"/><path class="cls-9" d="M60.277,46.3081a3.9436,3.9436,0,1,1-3.9431-3.943,3.9433,3.9433,0,0,1,3.9431,3.943"/><path class="cls-10" d="M57.3336,46.8013a1.2611,1.2611,0,1,1-1.2611-1.261,1.2619,1.2619,0,0,1,1.2611,1.261"/><path class="cls-11" d="M32.7633,15.3579H24.9692a2.698,2.698,0,0,1,0-5.396h7.7941a2.698,2.698,0,1,1,0,5.396"/><path class="cls-12" d="M32.7633,15.3579H24.9692a2.698,2.698,0,0,1,0-5.396h7.7941a2.698,2.698,0,1,1,0,5.396Z"/><path class="cls-7" d="M87.2506,12.66H80.3325a2.1275,2.1275,0,0,1,0-4.2549h6.9181a2.1275,2.1275,0,0,1,0,4.2549"/><path class="cls-7" d="M87.2506,17.4858H80.3325a2.1274,2.1274,0,0,1,0-4.2548h6.9181a2.1274,2.1274,0,0,1,0,4.2548"/><path class="cls-13" d="M46.6256,85.92H45.73c0-.771-.0349-1.5069-.0339-2.2789-.2011.751-.39,1.5119-.575,2.2789H43.8485c.323-1.418.63-2.8529.952-4.271h1.715c.0291.7791.0541,1.561.088,2.3351q.5672-1.158,1.1181-2.3351h1.703q-.4756,2.1362-.9511,4.271H47.2676c.155-.756.329-1.4919.4869-2.246.0021-.0089.011-.0109.011-.0219-.3889.7469-.7579,1.514-1.14,2.2679"/><path class="cls-13" d="M50.775,81.65c-.04.2191-.09.427-.122.6531h-1.14a5.9883,5.9883,0,0,1,.156-.6531Z"/><path class="cls-13" d="M67.7574,81.7277c-.0319.207-.085.394-.122.597-.317-.032-.376.192-.409.442a3.1649,3.1649,0,0,0,.4311.012c.0659-.244.1219-.497.177-.7529h1.1169c-.057.249-.103.5089-.166.7529h.399c-.0579.244-.116.488-.177.7311h-.388c-.077.2459-.126.5039-.187.7619a3.48,3.48,0,0,0-.1439.786c.0849.106.3029.0721.4549.063-.07.2691-.115.536-.189.8a3.5841,3.5841,0,0,1-1.096-.0331.6153.6153,0,0,1-.343-.5759,2.5035,2.5035,0,0,1,.088-.464c.096-.426.212-.9571.299-1.3611a2.7032,2.7032,0,0,0-.398-.011c-.213.7891-.37,1.636-.564,2.4451h-1.151c.182-.8211.39-1.6151.5751-2.4341a3.1828,3.1828,0,0,0-.4311-.011,1.93,1.93,0,0,1-.3649,1.782,2.0154,2.0154,0,0,1-1.604.729,1.3068,1.3068,0,0,1-1.4721-1.261,2.013,2.013,0,0,1,1.1951-1.936,1.6915,1.6915,0,0,1,2.2009.598c.07-.198.109-.423.166-.631h.455a1.4524,1.4524,0,0,1,.409-.863,2.0645,2.0645,0,0,1,1.239-.166m-4.2929,2.224c-.15.358-.3151,1.223.199,1.25.47.024.7669-.821.7639-1.283-.002-.32-.1449-.583-.4209-.542-.2571.037-.4311.309-.542.575"/><path class="cls-13" d="M58.9387,84.46c-.331.104-.647.2221-.984.32.62.027,1.287.0039,1.926.012a.4162.4162,0,0,0,.044.3759c.202.2321.827.127.83-.166.0021-.3519-.5969-.3619-.8739-.454a.9749.9749,0,0,1-.786-.8409c-.025-.5891.486-.9331,1.117-1.04.8709-.1451,2.03-.0021,1.847,1.0069H60.9528c.1909-.499-.7261-.522-.7411-.177-.0139.3211.662.3261.952.3991.45.1129.8361.3629.808.94a1.3216,1.3216,0,0,1-1.096,1.14,2.4584,2.4584,0,0,1-1.859-.233.8387.8387,0,0,1-.342-.73,1.8206,1.8206,0,0,1-1.671,1.0171,1.3214,1.3214,0,0,1-1.472-1.1941,2.0785,2.0785,0,0,1,.222-1.084c-1.144,0-1.0151,1.2731-1.262,2.168h-1.184c.229-1.0549.493-2.074.719-3.131.37-.017.741-.0339,1.118-.0439-.024.109-.0459.219-.078.3209a1.3916,1.3916,0,0,1,.996-.376c-.061.281-.122.5641-.1879.84a2.0707,2.0707,0,0,1,1.56-.9071,1.3188,1.3188,0,0,1,1.572,1.4491,2.3964,2.3964,0,0,1-.068.3879m-1.7359-.951a1.65,1.65,0,0,0-.4761,1.161.5888.5888,0,0,0,.177.4541c.2161.1659.485.0029.609-.1441a1.7354,1.7354,0,0,0,.365-1.0949c-.009-.297-.1441-.553-.432-.4981a.5419.5419,0,0,0-.2429.122"/><path class="cls-13" d="M53.64,83.94H52.5892c.023-.2369-.04-.4749-.232-.5089a.52.52,0,0,0-.377.133c-.287.242-.662,1.063-.409,1.472.218.3521.748.015.84-.2989h1.03a1.6781,1.6781,0,0,1-1.914,1.2949,1.2448,1.2448,0,0,1-1.1841-1.229,2.0647,2.0647,0,0,1,.4861-1.471,1.9023,1.9023,0,0,1,1.329-.675A1.21,1.21,0,0,1,53.64,83.94"/><path class="cls-13" d="M49.4137,82.7231h1.1289c-.2,1.0511-.455,2.1421-.6749,3.2092H48.6946c.2351-1.0741.467-2.1511.7191-3.2092"/><path class="cls-14" d="M64.0065,83.3765c.2758-.0409.4189.223.4209.5421.003.4619-.293,1.308-.7639,1.2829-.5141-.0269-.349-.891-.1991-1.25.111-.265.285-.5379.5421-.575"/><path class="cls-14" d="M57.4459,83.3872c.288-.0549.423.2011.4319.4981a1.7341,1.7341,0,0,1-.366,1.0949c-.124.1471-.3919.31-.608.1441a.589.589,0,0,1-.177-.454,1.65,1.65,0,0,1,.4761-1.161.543.543,0,0,1,.243-.1221"/><path class="cls-14" d="M47.7649,83.6532c0,.01-.0081.012-.01.021-.1591.754-.332,1.49-.4881,2.246h1.2061q.4785-2.133.9509-4.27h-1.703q-.55,1.1762-1.1179,2.3351c-.033-.775-.058-1.557-.088-2.3351H44.8c-.322,1.4181-.628,2.8521-.952,4.27h1.2729c.1841-.766.3741-1.528.5751-2.279-.001.772.033,1.5089.033,2.279h.897c.382-.7541.7509-1.52,1.139-2.267m1.904-2.0031a5.9478,5.9478,0,0,0-.156.6531h1.14c.0321-.2261.0821-.4341.1221-.6531Zm16.849.2431a1.4628,1.4628,0,0,0-.409.863h-.454c-.058.208-.097.434-.166.631a1.6921,1.6921,0,0,0-2.2011-.598,2.0139,2.0139,0,0,0-1.1959,1.937,1.3072,1.3072,0,0,0,1.4719,1.261,2.013,2.013,0,0,0,1.6051-.731,1.9284,1.9284,0,0,0,.365-1.781,3.1781,3.1781,0,0,1,.4309.012c-.1849.818-.3929,1.613-.5759,2.433h1.152c.193-.808.35-1.6551.563-2.445a2.716,2.716,0,0,1,.399.012c-.087.404-.2041.9339-.299,1.36a2.5006,2.5006,0,0,0-.0881.4649.6126.6126,0,0,0,.3431.5751,5.964,5.964,0,0,0,1.0949.062c.0751-.265.12-.5591.19-.829-.153.009-.37.043-.455-.062a3.5191,3.5191,0,0,1,.143-.786c.062-.259.1109-.517.188-.764h.3869c.0611-.241.12-.485.177-.729h-.3979c.062-.244.108-.5041.166-.753H67.8348c-.0549.255-.1119.509-.177.753a3.362,3.362,0,0,1-.432-.012c.0331-.25.093-.475.4091-.442.038-.204.09-.39.1219-.598a2.0731,2.0731,0,0,0-1.2389.166m-7.512,2.18a1.3183,1.3183,0,0,0-1.571-1.45,2.068,2.068,0,0,0-1.56.908c.066-.277.1269-.559.188-.841a1.3937,1.3937,0,0,0-.996.376c.031-.102.053-.212.078-.321-.377.011-.748.027-1.118.044-.227,1.057-.49,2.077-.719,3.131h1.184c.247-.8951.118-2.168,1.262-2.168a2.0775,2.0775,0,0,0-.222,1.084,1.3222,1.3222,0,0,0,1.472,1.196,1.8219,1.8219,0,0,0,1.67-1.019.8446.8446,0,0,0,.343.7309,2.4593,2.4593,0,0,0,1.8591.2321,1.3194,1.3194,0,0,0,1.0949-1.14c.0291-.577-.3569-.827-.8069-.94-.29-.072-.966-.078-.952-.399.015-.345.932-.3211.741.177h1.1059c.1831-1.009-.9759-1.152-1.8469-1.006-.631.106-1.142.4509-1.118,1.039a.9773.9773,0,0,0,.786.841c.2779.093.8769.1019.874.454-.0021.293-.6271.3979-.83.166a.4164.4164,0,0,1-.0439-.376c-.638-.007-1.3051.0149-1.9251-.011.3371-.098.6531-.217.984-.321a2.3986,2.3986,0,0,0,.0671-.387m-6.8481-1.416a1.9034,1.9034,0,0,0-1.328.674,2.0646,2.0646,0,0,0-.4869,1.472,1.2446,1.2446,0,0,0,1.184,1.229,1.6783,1.6783,0,0,0,1.914-1.295h-1.029c-.0931.3139-.622.651-.841.2989-.253-.41.122-1.23.409-1.4719a.5166.5166,0,0,1,.377-.133c.1919.034.255.272.2329.509h1.05a1.209,1.209,0,0,0-1.4821-1.283m-3.4629,3.2749h1.173c.22-1.0669.474-2.1579.6749-3.209H49.4139c-.252,1.0581-.4851,2.1351-.719,3.209"/><path class="cls-15" d="M63.9508,83.4321c.2759-.04.418.2241.4209.5421.0031.4629-.2939,1.309-.7639,1.284-.515-.027-.349-.891-.1991-1.25.1111-.265.285-.538.5421-.5761"/><path class="cls-15" d="M57.39,83.4438c.2879-.0549.4229.2011.4318.4981a1.74,1.74,0,0,1-.3659,1.095c-.124.146-.392.31-.6081.143a.589.589,0,0,1-.1779-.453,1.66,1.66,0,0,1,.477-1.162.5479.5479,0,0,1,.2431-.1211"/><path class="cls-16" d="M73.2035,151.2255V179.44H39.2385v-28.214a8.3553,8.3553,0,0,1,8.3561-8.3561h17.253a8.3559,8.3559,0,0,1,8.3559,8.3561"/></svg>