<?xml version="1.0" encoding="utf-8"?>
<!-- Generator: Adobe Illustrator 24.1.2, SVG Export Plug-In . SVG Version: 6.00 Build 0)  -->
<svg version="1.1" id="Layer_1" xmlns="http://www.w3.org/2000/svg" xmlns:xlink="http://www.w3.org/1999/xlink" x="0px" y="0px"
	 viewBox="0 0 499.8 221" style="enable-background:new 0 0 499.8 221;" xml:space="preserve">
<style type="text/css">
	.st0{fill:none;stroke:#808083;stroke-width:7.6254;stroke-miterlimit:10;}
	.st1{fill:none;stroke:#221F1F;stroke-width:9.7488;stroke-linecap:round;stroke-linejoin:round;}
	.st2{fill:none;stroke:#BABCBE;stroke-width:9.7488;stroke-linecap:round;stroke-linejoin:round;}
	.st3{fill:#E6E7E8;}
	.st4{fill:none;stroke:#DADBD5;stroke-width:7.2;stroke-linecap:round;stroke-linejoin:round;}
	.st5{fill:#5C6162;}
	.st6{fill:#465154;}
	.st7{fill:#545C5B;}
	.st8{fill:#EDEEC8;}
	.st9{fill:#231F20;}
	.st10{font-family:'Verdana';}
	.st11{font-size:23.5305px;}
	.st12{fill:none;stroke:#6D6E71;stroke-width:14.4;stroke-linecap:round;stroke-linejoin:round;}
	.st13{fill:none;}
</style>
<path class="st0" d="M281.1,66.9v-7.4c-2.4-6.5,0.5-9.7,7.3-10.4l155.9-13.5c8.2-40.1,45.4-43.8,51.8-2.4"/>
<line class="st1" x1="4.9" y1="213.8" x2="201.3" y2="213.8"/>
<polyline class="st2" points="5.6,199.3 30.1,199.2 30.8,123.6 60.4,124.4 "/>
<path class="st3" d="M366,63.2v-9.3c0-0.8-0.2-1.5-0.6-2.2l-2.3-3.4c-0.5-0.9-1.5-1.4-2.5-1.4H342c-0.8,0-1.5,0.3-2.1,0.9l-3.5,3.5
	c-0.7,0.7-1.1,1.7-1.1,2.7v9.3c-0.1,1.9,1.3,3.5,3.2,3.6h24.4C364.7,66.7,366.1,65.1,366,63.2z"/>
<polyline class="st4" points="288.8,192.6 288.8,213.8 214.4,213.8 "/>
<path class="st5" d="M186.1,171.2h-5.5c-0.8,0-1.5-0.7-1.5-1.5v-69c0-0.8,0.7-1.5,1.5-1.5h5.5c0.8,0,1.5,0.7,1.5,1.5v69
	C187.6,170.5,186.9,171.2,186.1,171.2z"/>
<path class="st6" d="M421.2,64.3H200c-7.9,0-14.2,6.4-14.2,14.3v99.7c0,7.8,6.3,14.2,14.2,14.2h221.2c7.8,0,14.2-6.3,14.2-14.2V78.5
	C435.4,70.7,429.1,64.3,421.2,64.3z M209,99.2c-7.5,0-13.5-6-13.5-13.5c0-7.5,6-13.5,13.5-13.5c7.5,0,13.5,6,13.5,13.5
	C222.5,93.2,216.4,99.2,209,99.2z M425.6,173.4c-1.2,7.4-8.1,12.4-15.5,11.2c-7.4-1.2-12.4-8.1-11.2-15.5
	c1.2-7.4,8.1-12.4,15.5-11.2C421.8,159.1,426.8,166.1,425.6,173.4z"/>
<path class="st7" d="M435.1,148.1c0,0-58.6-18.9-47.7,44.5l37-0.2c3.6-1.5,9.6-7.7,11.1-11.3L435.1,148.1z M425.6,173.4
	c-1.2,7.4-8.1,12.4-15.5,11.2c-7.4-1.2-12.4-8.1-11.2-15.5c1.2-7.4,8.1-12.4,15.5-11.2C421.8,159.1,426.8,166.1,425.6,173.4z"/>
<path class="st7" d="M233.8,64.3l-37,0.2c-3.6,1.5-9.6,7.7-11.1,11.3l0.4,33C186.1,108.8,244.7,127.7,233.8,64.3z M209,99.2
	c-7.5,0-13.5-6-13.5-13.5c0-7.5,6-13.5,13.5-13.5c7.5,0,13.5,6,13.5,13.5C222.5,93.2,216.4,99.2,209,99.2z"/>
<rect x="96" y="153.8" class="st8" width="83.1" height="7.7"/>
<rect x="96" y="120.7" class="st8" width="83.1" height="7.7"/>
<text transform="matrix(1.0626 0 0 1 190.8401 133.2744)" class="st9 st10 st11">NO3</text>
<text transform="matrix(1.0626 0 0 1 190.8401 161.5107)" class="st9 st10 st11">NC2</text>
<text transform="matrix(1.0626 0 0 1 247.8714 181.7998)" class="st9 st10 st11">COM1</text>
<line class="st12" x1="99.7" y1="124.4" x2="50" y2="124.4"/>
<line class="st12" x1="228.5" y1="213.8" x2="178.8" y2="213.8"/>
<line class="st13" x1="241.7" y1="320" x2="242.7" y2="320"/>
</svg>
