<svg id="Layer_1" data-name="Layer 1" xmlns="http://www.w3.org/2000/svg" viewBox="0 0 128.624 58.0702"><defs><style>.cls-1{fill:#333;}.cls-2{fill:#221f1f;}.cls-3{fill:#fff;}.cls-4{fill:#808083;}.cls-5{fill:#5a5a5c;}</style></defs><path class="cls-1" d="M74.1678,8.82V49.2511a8.8194,8.8194,0,0,1-8.82,8.8191H11.3588V0h53.989a8.82,8.82,0,0,1,8.82,8.82"/><path class="cls-2" d="M39.6688,47.5458c10.911,0,19.757-8.2871,19.757-18.5111,0-10.222-8.846-18.51-19.757-18.51s-19.758,8.288-19.758,18.51c0,10.224,8.846,18.5111,19.758,18.5111"/><path class="cls-3" d="M56.3309,27.0653v3.2529a11.2771,11.2771,0,0,1-11.2771,11.277H34.2828a11.2771,11.2771,0,0,1-11.2769-11.277V27.0653A11.2774,11.2774,0,0,1,34.2828,15.7872h10.771A11.2775,11.2775,0,0,1,56.3309,27.0653"/><path class="cls-2" d="M54.5164,27.2421V30.14a10.0494,10.0494,0,0,1-10.05,10.05H34.87A10.0494,10.0494,0,0,1,24.82,30.14V27.2421a10.0493,10.0493,0,0,1,10.05-10.05h9.596a10.0493,10.0493,0,0,1,10.05,10.05"/><rect class="cls-3" x="38.295" y="17.192" width="1.942" height="22.998"/><rect class="cls-4" x="9.02" width="2.339" height="58.0699"/><polygon class="cls-5" points="9.02 58.07 1.336 43.265 1.336 13.365 9.02 0.837 9.02 58.07"/><rect class="cls-2" y="24.891" width="1.337" height="8.853"/><rect class="cls-2" x="74.168" y="13.365" width="54.456" height="30.736"/></svg>