<?xml version="1.0" encoding="utf-8"?>
<!-- Generator: Adobe Illustrator 25.4.1, SVG Export Plug-In . SVG Version: 6.00 Build 0)  -->
<svg version="1.1" id="Layer_1" xmlns="http://www.w3.org/2000/svg" xmlns:xlink="http://www.w3.org/1999/xlink" x="0px" y="0px"
	 viewBox="0 0 148.2 306.5" style="enable-background:new 0 0 148.2 306.5;" xml:space="preserve">
<style type="text/css">
	.st0{fill:#414042;}
	.st1{fill:#464547;}
	.st2{fill:#4D4D4F;}
	.st3{fill:#383839;}
	.st4{fill:#282829;}
	.st5{fill:#3D3C3D;}
	.st6{fill:#59575A;}
	.st7{fill:#292728;}
	.st8{fill:#B32228;}
	.st9{fill:#EB3627;}
	.st10{fill:#EF4653;}
	.st11{fill:#710E11;}
	.st12{fill:none;stroke:#000000;stroke-width:0.35;stroke-linecap:round;stroke-linejoin:round;stroke-miterlimit:10;}
	.st13{fill:#FFFFFF;}
	.st14{fill:#0065B1;}
	.st15{fill:#FBEA00;}
</style>
<g>
	<g id="XMLID_00000062884881076421448690000008645229864424522626_">
		<g>
			<path class="st0" d="M122.2,110c0-0.1,0-0.1,0-0.2V57.1c0-0.1,0-0.2,0-0.3c0-0.1-0.1-0.2-0.1-0.3c-0.1-0.2-0.2-0.3-0.3-0.5
				l-1.3-1.3c-0.1-0.2-0.3-0.3-0.5-0.3c-0.1,0-0.2-0.1-0.2-0.1c0.3,0,0.6,0.2,0.8,0.4l1.3,1.3c0.3,0.3,0.4,0.6,0.4,1v192.6
				c0,0.4-0.1,0.7-0.4,1l-1.3,1.3c-0.3,0.3-0.6,0.4-1,0.4h-0.1c0.1,0,0.2,0,0.3,0c0,0,0.1,0,0.2,0v0c0.2-0.1,0.4-0.2,0.6-0.4
				l1.3-1.3c0.2-0.2,0.3-0.4,0.4-0.6c0-0.1,0-0.1,0-0.2v-52.7c0-0.1,0-0.2,0-0.3c0-0.1-0.1-0.2-0.1-0.3c-0.1-0.2-0.2-0.3-0.3-0.5
				l-1.3-1.3c-0.1-0.1-0.3-0.3-0.5-0.3c-0.1,0-0.2-0.1-0.2-0.1c-0.1,0-0.2,0-0.3,0h-0.2v-81.9v-0.1h0.2c0.1,0,0.2,0,0.3,0
				c0,0,0.1,0,0.2,0c0.2-0.1,0.4-0.2,0.6-0.4l1.3-1.3C122,110.4,122.2,110.2,122.2,110z"/>
			<path class="st1" d="M122.3,197.1v52.7c0,0.1,0,0.1,0,0.2l-3-1c0-0.1,0-0.2,0-0.3V198c0-0.1,0-0.2,0-0.3l2.9-1.2l0,0
				c0,0.1,0.1,0.2,0.1,0.3C122.3,196.9,122.3,197,122.3,197.1z"/>
			<path class="st1" d="M122.3,57.1v52.7c0,0.1,0,0.1,0,0.2l-3-1c0-0.1,0-0.2,0-0.3V58c0-0.1,0-0.2,0-0.2l2.9-1.2l0,0
				c0,0.1,0.1,0.2,0.1,0.3C122.3,56.9,122.3,57,122.3,57.1z"/>
			<path class="st1" d="M119.2,249l3,1c-0.1,0.2-0.2,0.4-0.4,0.6l-1.3,1.3c-0.2,0.2-0.4,0.3-0.6,0.4l0,0l-1.1-2.9
				C119,249.2,119.2,249.1,119.2,249z"/>
			<path class="st1" d="M119.2,109l3,1c-0.1,0.2-0.2,0.4-0.4,0.6l-1.3,1.3c-0.2,0.2-0.4,0.3-0.6,0.4l0,0l-1.1-2.9
				C119,109.2,119.2,109.1,119.2,109z"/>
			<path class="st1" d="M122.2,196.5L122.2,196.5l-2.9,1.2c-0.1-0.1-0.2-0.3-0.4-0.4l1.1-3l0,0c0.2,0.1,0.4,0.2,0.5,0.3l1.3,1.3
				C122,196.2,122.1,196.4,122.2,196.5z"/>
			<path class="st0" d="M122.2,56.5L122.2,56.5l-2.9,1.2c-0.1-0.2-0.2-0.3-0.4-0.4l1.1-3l0,0c0.2,0.1,0.4,0.2,0.5,0.3l1.3,1.3
				C122,56.2,122.1,56.4,122.2,56.5z"/>
			<path class="st2" d="M120,54.4L120,54.4l-1.1,3c-0.1,0-0.2,0-0.2,0H67l-1.1-3c0.1,0,0.1,0,0.2-0.1c0.1,0,0.2,0,0.3,0h2.2H69h50.5
				c0.1,0,0.2,0,0.3,0C119.8,54.4,119.9,54.4,120,54.4z"/>
			<path class="st2" d="M120,194.4L120,194.4l-1.1,3c-0.1,0-0.2,0-0.2,0H67l-1.1-3c0.1,0,0.1,0,0.2-0.1c0.1,0,0.2,0,0.3,0h52.9h0.2
				c0.1,0,0.2,0,0.3,0C119.8,194.4,119.9,194.4,120,194.4z"/>
			<path class="st1" d="M119.9,112.2L119.9,112.2c0,0-0.1,0.1-0.2,0.1c-0.1,0-0.2,0-0.3,0h-0.2H66.4c-0.2,0-0.3,0-0.5-0.1l0,0
				l1.1-2.9c0.1,0,0.2,0,0.3,0h51.4c0.1,0,0.2,0,0.2,0L119.9,112.2z"/>
			<path class="st1" d="M119.9,252.2L119.9,252.2c0,0-0.1,0-0.2,0.1c-0.1,0-0.2,0-0.3,0h-6.8h-2.1l-44.2,0c-0.2,0-0.3,0-0.5-0.1v0
				l1.1-2.9c0.1,0,0.2,0,0.3,0h51.4c0.1,0,0.2,0,0.2,0L119.9,252.2L119.9,252.2z"/>
			<path class="st0" d="M119.8,54.3c-0.1,0-0.2,0-0.3,0h0.1C119.7,54.3,119.7,54.3,119.8,54.3z"/>
			<path class="st1" d="M63.6,109.5L63.6,109.5c0,0.1,0,0.2,0.1,0.4c0.1,0.2,0.2,0.5,0.4,0.7l1.3,1.3c0.2,0.2,0.4,0.3,0.6,0.3
				c0.2,0.1,0.3,0.1,0.5,0.1h52.9v0.1v81.9H66.4c-0.1,0-0.2,0-0.3,0c-0.1,0-0.1,0-0.2,0.1c-0.2,0.1-0.4,0.2-0.5,0.3l-1.3,1.3
				c-0.1,0.1-0.2,0.3-0.3,0.4c-0.1,0.1-0.1,0.2-0.1,0.3c0,0.1,0,0.2,0,0.3l0,0v12.6c0-0.8-0.6-1.4-1.4-1.4h-0.1H38
				c-0.8,0-1.4,0.6-1.4,1.4v21.5h0h-1.2c-0.1,0-0.1,0-0.2,0c0,0-0.1,0-0.2,0c0,0,0,0-0.1,0V76.4c0.1,0,0.3,0,0.4,0h27.9h0.2V109.5z
				 M44.8,83.7c0.4-0.6,0.4-1.5,0-2.1c-0.4-0.6-1.1-1.1-1.8-1.1c0,0,0,0,0,0c-0.7,0-1.5,0.4-1.8,1.1c-0.4,0.6-0.4,1.5,0,2.1
				c0.4,0.6,1.1,1.1,1.8,1.1C43.7,84.8,44.4,84.4,44.8,83.7z"/>
			<path class="st2" d="M119.3,198v50.7c0,0.1,0,0.2,0,0.3c-0.1,0.1-0.2,0.3-0.4,0.3c-0.1,0-0.2,0-0.2,0H67.2c-0.1,0-0.2,0-0.3,0
				c-0.1-0.1-0.3-0.2-0.3-0.3c0-0.1,0-0.2,0-0.3v-50.9l0,0c0.1-0.1,0.2-0.3,0.4-0.4h0h51.6c0.1,0,0.2,0,0.2,0
				c0.2,0.1,0.3,0.2,0.4,0.4C119.2,197.9,119.3,197.9,119.3,198z"/>
			<path class="st2" d="M119.3,58v50.7c0,0.1,0,0.2,0,0.3c-0.1,0.1-0.2,0.3-0.4,0.3c-0.1,0-0.2,0-0.2,0H67.2c-0.1,0-0.2,0-0.3,0
				c-0.1-0.1-0.3-0.2-0.3-0.3c0-0.1,0-0.2,0-0.3v-51l0,0c0.1-0.1,0.2-0.3,0.4-0.4h0h51.6c0.1,0,0.2,0,0.2,0c0.2,0.1,0.3,0.2,0.4,0.4
				C119.2,57.8,119.3,57.9,119.3,58z"/>
			<path class="st3" d="M63.6,249.5L63.6,249.5c0,0.1,0,0.2,0.1,0.4c0.1,0.2,0.2,0.5,0.4,0.7l1.3,1.3c0.2,0.2,0.4,0.3,0.6,0.4
				c0.1,0.1,0.3,0.1,0.5,0.1l44.2,0H62c-0.4,0-0.7,0.1-1,0.4l-1.3,1.3c-0.3,0.3-0.4,0.6-0.4,1v10.2c0,0.4-0.2,0.7-0.4,1l-8.2,8.2
				c-0.3,0.3-0.6,0.4-1,0.4h-7.8c-0.4,0-0.7-0.1-1-0.4l-8.2-8.2c-0.3-0.3-0.4-0.6-0.4-1v-21.1h0c0,0.4,0.2,0.7,0.4,1l1.9,1.7
				c0,0,0.1,0.1,0.1,0.1c0,0,0.1,0.1,0.1,0.1c0,0,0,0,0,0c0,0,0.1,0,0.1,0.1c0.1,0,0.2,0.1,0.3,0.1c0.1,0,0.2,0,0.3,0h27.9V249.5z
				 M52.9,261.3c0-3.9-3.2-7.1-7.1-7.1c-3.9,0-7.1,3.2-7.1,7.1c0,3.9,3.2,7.1,7.1,7.1C49.7,268.4,52.9,265.2,52.9,261.3z"/>
			<path class="st2" d="M65.9,54.4l1.1,3h0c-0.2,0.1-0.3,0.2-0.4,0.4l0,0l-2.9-1.2c0.1-0.2,0.2-0.3,0.3-0.4l1.3-1.3
				C65.5,54.6,65.7,54.5,65.9,54.4L65.9,54.4z"/>
			<path class="st2" d="M65.9,194.4l1.1,3h0c-0.2,0.1-0.3,0.2-0.4,0.4l0,0l-2.9-1.3c0.1-0.2,0.2-0.3,0.3-0.4l1.3-1.3
				C65.5,194.6,65.7,194.5,65.9,194.4z"/>
			<path class="st1" d="M67,109.3l-1.1,2.9l0,0c-0.2-0.1-0.4-0.2-0.6-0.3l-1.3-1.3c-0.2-0.2-0.3-0.4-0.4-0.7l0,0l3-0.9
				C66.7,109.1,66.8,109.2,67,109.3z"/>
			<path class="st1" d="M67,249.3l-1.1,2.9v0c-0.2-0.1-0.4-0.2-0.6-0.4l-1.3-1.3c-0.2-0.2-0.3-0.4-0.4-0.7l0,0l3-0.9
				C66.7,249.1,66.8,249.2,67,249.3z"/>
			<path class="st2" d="M66.6,108.7c0,0.1,0,0.2,0,0.3l-3,0.9l0,0c0-0.1,0-0.2,0-0.4h0V76.4V59.1v-2l0,0c0-0.1,0-0.2,0-0.3
				c0-0.1,0.1-0.2,0.1-0.3l2.9,1.2V108.7z"/>
			<path class="st2" d="M66.6,248.7c0,0.1,0,0.2,0,0.3l-3,0.9l0,0c0-0.1,0-0.2,0-0.4h0v-2.2v-3.3v-0.1v-34v-12.6l0,0
				c0-0.1,0-0.2,0-0.3c0-0.1,0.1-0.2,0.1-0.3l2.9,1.3V248.7z"/>
			<path class="st3" d="M65.9,54.4c-0.2,0.1-0.4,0.2-0.5,0.3L64,56.1c-0.1,0.1-0.2,0.3-0.3,0.4c-0.1,0.1-0.1,0.2-0.1,0.3
				c0,0.1,0,0.2,0,0.3l0,0v2h-0.2h-28c-0.2,0-0.3,0-0.4,0.1c-0.2,0.1-0.4,0.2-0.6,0.3l-1.7,1.5c-0.2,0.2-0.3,0.3-0.3,0.5
				c-0.1,0.2-0.1,0.3-0.1,0.5h0V41.4c0-0.4,0.1-0.7,0.4-1l8.2-8.2c0.3-0.3,0.6-0.4,1-0.4h7.8c0.4,0,0.7,0.1,1,0.4l8.2,8.2
				c0.3,0.3,0.4,0.6,0.4,1v10.2c0,0.4,0.1,0.7,0.4,1l1.3,1.3c0.3,0.3,0.6,0.4,1,0.4h4.3c-0.1,0-0.2,0-0.3,0
				C66,54.4,65.9,54.4,65.9,54.4L65.9,54.4z M52.9,45.3c0-3.9-3.2-7.1-7.1-7.1c-3.9,0-7.1,3.2-7.1,7.1c0,3.9,3.2,7.1,7.1,7.1
				C49.7,52.4,52.9,49.2,52.9,45.3z"/>
			<path class="st4" d="M63.6,243.8v0.1c0,0.1,0,0.1,0,0.1c0,0.1,0,0.2-0.1,0.3c-0.1,0.2-0.1,0.4-0.2,0.5c-0.1,0.2-0.3,0.3-0.5,0.4
				c-0.2,0.1-0.5,0.2-0.8,0.2c-0.3,0-0.5,0-0.8,0c-0.3,0-0.7,0-1,0H40.2H40c-0.3,0-0.5,0-0.8,0c-0.3,0-0.7,0-1,0
				c-0.3,0-0.6-0.1-0.8-0.2s-0.4-0.3-0.5-0.4c-0.1-0.2-0.2-0.3-0.3-0.5c0-0.1,0-0.2-0.1-0.3c0,0,0-0.1,0-0.1c0,0,0,0,0-0.1v0v-0.1
				v-12.5v-21.5c0-0.8,0.6-1.4,1.4-1.4h24.1h0.1c0.8,0,1.4,0.6,1.4,1.4V243.8z M62.1,243.7v-9.1v-3.7v-17.8v-1.3v-2h-9.9h-9.9H38v2
				v1.3v17.8v12.8v0h4.2h9.9H62.1z"/>
			<path class="st0" d="M61.9,245.5c0.3,0,0.6-0.1,0.8-0.2c0.2-0.1,0.4-0.3,0.5-0.4c0.1-0.2,0.2-0.3,0.2-0.5c0-0.1,0-0.2,0.1-0.3
				c0,0,0-0.1,0-0.1v3.3H35.6c-0.1,0-0.2,0-0.3,0c-0.1,0-0.2-0.1-0.3-0.1c0,0-0.1,0-0.1-0.1v0v-15.8c0,0,0,0,0.1,0
				c0.1,0,0.1,0,0.2,0c0.1,0,0.1,0,0.2,0h1.2h0v12.5v0.1v0c0,0,0,0,0,0.1c0,0.1,0,0.1,0,0.1c0,0.1,0,0.2,0.1,0.3
				c0,0.2,0.1,0.4,0.3,0.5c0.1,0.2,0.3,0.3,0.5,0.4s0.5,0.2,0.8,0.2c0.3,0,0.6,0,1,0c0.3,0,0.5,0,0.8,0h0.2H60c0.4,0,0.7,0,1,0
				C61.4,245.5,61.7,245.5,61.9,245.5z"/>
			<path class="st0" d="M63.6,59.1v17.3h-0.2H35.4c-0.1,0-0.3,0-0.4,0V59.3l0,0c0.1-0.1,0.3-0.1,0.4-0.1h28H63.6z"/>
			<path class="st5" d="M62.1,234.6v9.1h-9.9v-12.8h2l0.4,0.9v0c-0.7,0.4-1.2,0.8-1.5,1.2c-1.7,2,0.2,4.6,3.3,5
				c2.8,0.4,5.5-1.3,5.5-3.3H62.1z"/>
			<path class="st5" d="M62.1,230.9v3.7h-0.2c0-0.5-0.2-1.1-0.7-1.6c-0.3-0.4-0.8-0.8-1.5-1.2v0l0.4-0.9H62.1z"/>
			<path class="st1" d="M62.1,213.1v17.8h-2c0-0.1,0.1-0.1,0.1-0.2c0-0.1,0-0.2,0.1-0.2c0-0.1,0-0.2,0-0.3c0-0.1,0-0.2,0-0.3v-1
				c0-1.8-1.4-3.2-3.2-3.2c-1.8,0-3.2,1.4-3.2,3.2v1c0,0.1,0,0.2,0,0.3c0,0.1,0,0.2,0,0.3c0,0.1,0,0.2,0.1,0.2
				c0,0.1,0.1,0.1,0.1,0.2h-2v-7.6h0h0.3h7.2v-1.4v-4.4v-1.6v-0.4h-0.4h-7.1v-2.4H62.1z"/>
			<rect x="52.2" y="211.8" class="st6" width="9.9" height="1.3"/>
			<rect x="52.2" y="209.8" class="st5" width="9.9" height="2"/>
			<path class="st1" d="M53.1,233c-1,4.9,9.1,4.9,8.1,0l0,0c0.5,0.5,0.7,1.1,0.7,1.6c0,2-2.8,3.7-5.5,3.3
				C53.2,237.5,51.4,235,53.1,233L53.1,233z"/>
			<path class="st7" d="M61.2,233c1,4.9-9.1,4.9-8.1,0l0,0c0.3-0.4,0.8-0.8,1.5-1.2v0l0.3-0.4v-2.5c0-1.2,1-2.3,2.3-2.3
				c1.3,0,2.3,1,2.3,2.3v2.5l0.3,0.4v0C60.3,232.1,60.8,232.5,61.2,233L61.2,233z"/>
			<path class="st6" d="M60.3,228.9v1c0,0.1,0,0.2,0,0.3c0,0.1,0,0.2,0,0.3c0,0.1,0,0.2-0.1,0.2c0,0.1,0,0.1-0.1,0.2l-0.4,0.9
				l-0.3-0.4v-2.5c0-1.2-1-2.3-2.3-2.3c-1.2,0-2.3,1-2.3,2.3v2.5l-0.3,0.4l-0.4-0.9c0-0.1-0.1-0.1-0.1-0.2c0-0.1,0-0.2-0.1-0.2
				c0-0.1,0-0.2,0-0.3c0-0.1,0-0.2,0-0.3v-1c0-1.8,1.4-3.2,3.2-3.2C58.9,225.7,60.3,227.2,60.3,228.9z"/>
			<path class="st6" d="M59.6,221.9v1.4h-7.2c0.2,0,0.4-0.1,0.6-0.1c0.2-0.1,0.5-0.2,0.8-0.3c0.3-0.1,0.5-0.3,0.8-0.5
				c0.2-0.2,0.4-0.3,0.6-0.5H59.6z"/>
			<polygon class="st6" points="59.6,217.5 59.6,221.9 55.2,221.9 			"/>
			<path class="st5" d="M59.6,215.9v1.6l-4.4,4.4c-0.2,0.2-0.4,0.4-0.6,0.5c-0.2,0.2-0.5,0.4-0.8,0.5c-0.3,0.1-0.5,0.2-0.8,0.3
				c-0.2,0.1-0.4,0.1-0.6,0.1h-0.3L59.6,215.9z"/>
			<polygon class="st6" points="59.6,215.5 59.6,215.9 52.2,223.3 52.2,223.3 52.2,222.5 59.2,215.5 			"/>
			<polygon class="st5" points="59.2,215.5 52.2,222.5 52.2,220.9 55.9,217.2 			"/>
			<polygon class="st6" points="59.2,215.5 55.9,217.2 52.2,217.2 52.2,215.5 			"/>
			<polygon class="st6" points="55.9,217.2 52.2,220.9 52.2,217.2 			"/>
			<path class="st8" d="M52.2,230.9v12.8h-9.9v-12.8h2l0.4,0.8h0c-0.7,0.4-1.2,0.8-1.5,1.2c-1.7,2,0.2,4.6,3.3,5
				c3.5,0.5,7-2.4,4.9-4.9c-0.3-0.4-0.8-0.8-1.5-1.2l0.4-0.9H52.2z"/>
			<path class="st9" d="M52.2,223.3v7.6h-2c0-0.1,0.1-0.1,0.1-0.2c0-0.1,0.1-0.2,0.1-0.2c0-0.1,0-0.2,0-0.3c0-0.1,0-0.2,0-0.3v-1
				c0-1.8-1.4-3.2-3.2-3.2c-1.8,0-3.2,1.4-3.2,3.2v1c0,0.1,0,0.2,0,0.3c0,0.1,0,0.2,0,0.3c0,0.1,0,0.2,0.1,0.2
				c0,0.1,0.1,0.1,0.1,0.2h-2v-7.6h0h0.3h7.2v-1.4v-4.4v-1.6v-0.4h-0.4h-7.1v-2.4h9.9v2.4v1.7v3.8v1.6V223.3z"/>
			<rect x="42.2" y="211.8" class="st10" width="9.9" height="1.3"/>
			<rect x="42.2" y="209.8" class="st8" width="9.9" height="2"/>
			<path class="st9" d="M43.2,232.9c-1,4.9,9.1,4.9,8.1,0l0,0c2.1,2.5-1.3,5.4-4.9,4.9C43.3,237.5,41.5,234.9,43.2,232.9L43.2,232.9
				z"/>
			<path class="st11" d="M49.8,231.8c0.7,0.4,1.2,0.8,1.5,1.2l0,0c1,4.9-9.1,4.9-8.1,0l0,0c0.3-0.4,0.8-0.8,1.5-1.2h0l0,0l0.3-0.4h0
				v-2.5c0-1.2,1-2.3,2.3-2.3s2.3,1,2.3,2.3v2.5L49.8,231.8C49.8,231.7,49.8,231.8,49.8,231.8z"/>
			<path class="st10" d="M50.4,228.9v1c0,0.1,0,0.2,0,0.3c0,0.1,0,0.2,0,0.3c0,0.1,0,0.2-0.1,0.2c0,0.1-0.1,0.1-0.1,0.2l-0.4,0.9
				c0,0,0,0,0,0l-0.3-0.3v-2.5c0-1.2-1-2.3-2.3-2.3s-2.3,1-2.3,2.3v2.5h0l-0.3,0.4l0,0l-0.4-0.8c0-0.1-0.1-0.1-0.1-0.2
				c0-0.1,0-0.2-0.1-0.2c0-0.1,0-0.2,0-0.3c0-0.1,0-0.2,0-0.3v-1c0-1.8,1.4-3.2,3.2-3.2C49,225.7,50.4,227.2,50.4,228.9z"/>
			<path class="st10" d="M49.7,221.9v1.4h-7.2c0.2,0,0.4-0.1,0.6-0.1c0.2-0.1,0.5-0.2,0.8-0.3c0.3-0.1,0.5-0.3,0.8-0.5
				c0.2-0.2,0.4-0.3,0.6-0.5H49.7z"/>
			<polygon class="st10" points="49.7,217.5 49.7,221.9 45.3,221.9 			"/>
			<path class="st8" d="M49.7,215.9v1.6l-4.4,4.4c-0.2,0.2-0.4,0.4-0.6,0.5c-0.2,0.2-0.5,0.4-0.8,0.5c-0.3,0.1-0.5,0.2-0.8,0.3
				c-0.2,0.1-0.4,0.1-0.6,0.1h-0.3L49.7,215.9z"/>
			<polygon class="st10" points="49.7,215.5 49.7,215.9 42.3,223.3 42.2,223.3 42.2,222.5 49.3,215.5 			"/>
			<polygon class="st8" points="49.3,215.5 42.2,222.5 42.2,220.9 46,217.2 			"/>
			<polygon class="st10" points="49.3,215.5 46,217.2 42.2,217.2 42.2,215.5 			"/>
			<polygon class="st10" points="46,217.2 42.2,220.9 42.2,217.2 			"/>
			<path class="st0" d="M44.8,81.6c0.4,0.6,0.4,1.5,0,2.1c-0.4,0.6-1.1,1-1.8,1c-0.7,0-1.5-0.4-1.8-1.1c-0.4-0.6-0.4-1.5,0-2.1
				c0.4-0.6,1.1-1.1,1.8-1.1c0,0,0,0,0,0C43.7,80.5,44.4,81,44.8,81.6z"/>
			<polygon class="st8" points="42.2,230.9 42.2,243.7 38,243.7 38,243.7 38,230.9 			"/>
			<polygon class="st9" points="42.2,223.3 42.2,230.9 38,230.9 38,213.1 42.2,213.1 42.2,215.5 42.2,217.2 42.2,220.9 42.2,222.5 
							"/>
			<rect x="38" y="211.8" class="st10" width="4.2" height="1.3"/>
			<rect x="38" y="209.8" class="st8" width="4.2" height="2"/>
			<path class="st0" d="M35,247.1L35,247.1C35,247.1,35,247.1,35,247.1c-0.1,0-0.1-0.1-0.2-0.1c0,0-0.1-0.1-0.1-0.1l-1.9-1.7
				c-0.3-0.3-0.4-0.6-0.4-1h0v-15c0,0.3,0.2,0.5,0.4,0.7l1.7,1.2c0,0,0.1,0.1,0.1,0.1c0,0,0.1,0,0.2,0.1c0.1,0,0.1,0,0.2,0.1
				c0,0,0.1,0,0.1,0V247.1z"/>
			<path class="st0" d="M35,76.4v154.8c0,0-0.1,0-0.1,0c-0.1,0-0.1,0-0.2-0.1c0,0-0.1,0-0.2-0.1c0,0-0.1-0.1-0.1-0.1l-1.7-1.2
				c-0.3-0.2-0.4-0.4-0.4-0.7V78.5h0c0-0.1,0-0.2,0.1-0.3c0-0.1,0.1-0.2,0.1-0.2c0,0,0.1-0.1,0.1-0.1c0,0,0.1,0,0.1-0.1l1.7-1.1
				C34.6,76.6,34.8,76.5,35,76.4z"/>
			<path class="st0" d="M35,59.3v17.2c-0.2,0.1-0.4,0.1-0.6,0.2l-1.7,1.1c0,0,0,0-0.1,0.1c0,0-0.1,0.1-0.1,0.1
				c-0.1,0.1-0.1,0.1-0.1,0.2c-0.1,0.1-0.1,0.2-0.1,0.3h0V62.1h0c0-0.2,0-0.3,0.1-0.5c0.1-0.2,0.2-0.3,0.3-0.5l1.7-1.5
				C34.6,59.4,34.8,59.3,35,59.3L35,59.3z"/>
		</g>
		<g>
			<path class="st12" d="M60,245.5c0.4,0,0.7,0,1,0c0.3,0,0.6,0,0.8,0c0.1,0,0.1,0,0.2,0"/>
			<path class="st12" d="M61.9,245.5c0.3,0,0.6-0.1,0.8-0.2c0.2-0.1,0.4-0.3,0.5-0.4c0.1-0.2,0.2-0.3,0.2-0.5c0-0.1,0-0.2,0.1-0.3
				c0,0,0-0.1,0-0.1"/>
			<path class="st12" d="M38.2,245.5c0.3,0,0.6,0,1,0c0.3,0,0.5,0,0.8,0"/>
			<path class="st12" d="M36.6,243.9L36.6,243.9C36.6,243.9,36.6,243.9,36.6,243.9c0,0.1,0,0.2,0,0.2c0,0.1,0,0.2,0.1,0.3
				c0,0.2,0.1,0.4,0.3,0.5c0.1,0.2,0.3,0.3,0.5,0.4s0.5,0.2,0.8,0.2"/>
			<path class="st12" d="M34.7,246.9c0,0,0.1,0.1,0.1,0.1c0,0,0.1,0.1,0.1,0.1c0,0,0,0,0,0c0,0,0.1,0,0.1,0.1c0.1,0,0.2,0.1,0.3,0.1
				c0.1,0,0.2,0,0.3,0"/>
			<path class="st12" d="M45.8,52.4c3.9,0,7.1-3.2,7.1-7.1c0-3.9-3.2-7.1-7.1-7.1c-3.9,0-7.1,3.2-7.1,7.1
				C38.7,49.2,41.9,52.4,45.8,52.4z"/>
			<path class="st12" d="M45.8,268.4c3.9,0,7.1-3.2,7.1-7.1c0-3.9-3.2-7.1-7.1-7.1c-3.9,0-7.1,3.2-7.1,7.1
				C38.7,265.2,41.9,268.4,45.8,268.4z"/>
			<path class="st12" d="M45.3,221.9c-0.2,0.2-0.4,0.4-0.6,0.5c-0.2,0.2-0.5,0.4-0.8,0.5c-0.3,0.1-0.5,0.2-0.8,0.3
				c-0.2,0.1-0.4,0.1-0.6,0.1"/>
			<path class="st12" d="M50.4,229.9c0,0.1,0,0.2,0,0.3c0,0.1,0,0.2,0,0.3c0,0.1,0,0.2-0.1,0.2c0,0.1-0.1,0.1-0.1,0.2"/>
			<path class="st12" d="M44.2,230.9c0-0.1-0.1-0.1-0.1-0.2c0-0.1,0-0.2-0.1-0.2c0-0.1,0-0.2,0-0.3c0-0.1,0-0.2,0-0.3"/>
			<path class="st12" d="M55.2,221.9c-0.2,0.2-0.4,0.4-0.6,0.5c-0.2,0.2-0.5,0.4-0.8,0.5c-0.3,0.1-0.5,0.2-0.8,0.3
				c-0.2,0.1-0.4,0.1-0.6,0.1"/>
			<path class="st12" d="M60.3,229.9c0,0.1,0,0.2,0,0.3c0,0.1,0,0.2,0,0.3c0,0.1,0,0.2-0.1,0.2c0,0.1,0,0.1-0.1,0.2"/>
			<path class="st12" d="M54.2,230.9c0-0.1-0.1-0.1-0.1-0.2c0-0.1,0-0.2-0.1-0.2c0-0.1,0-0.2,0-0.3c0-0.1,0-0.2,0-0.3"/>
			<line class="st12" x1="121.9" y1="250.6" x2="120.6" y2="251.9"/>
			<line class="st12" x1="120.6" y1="54.7" x2="121.9" y2="56"/>
			<line class="st12" x1="119.5" y1="252.3" x2="119.6" y2="252.3"/>
			<line class="st12" x1="62" y1="252.3" x2="110.6" y2="252.3"/>
			<line class="st12" x1="66.4" y1="54.3" x2="62" y2="54.3"/>
			<line class="st12" x1="119.6" y1="54.3" x2="119.5" y2="54.3"/>
			<line class="st12" x1="122.3" y1="249.6" x2="122.3" y2="57"/>
			<line class="st12" x1="38" y1="208.4" x2="62.1" y2="208.4"/>
			<polyline class="st12" points="36.6,243.9 36.6,243.8 36.6,231.3 36.6,209.8 			"/>
			<line class="st12" x1="119.3" y1="194.3" x2="119.3" y2="112.4"/>
			<line class="st12" x1="35.4" y1="76.4" x2="63.3" y2="76.4"/>
			<path class="st12" d="M35.4,76.4c-0.1,0-0.3,0-0.4,0c-0.2,0.1-0.4,0.1-0.6,0.2"/>
			<path class="st12" d="M34.4,231c0,0,0.1,0.1,0.1,0.1c0,0,0.1,0,0.2,0.1c0.1,0,0.1,0,0.2,0.1c0,0,0.1,0,0.1,0c0,0,0,0,0.1,0
				c0.1,0,0.1,0,0.2,0c0.1,0,0.1,0,0.2,0"/>
			<polyline class="st12" points="36.5,231.3 35.4,231.3 35.2,231.3 			"/>
			<path class="st12" d="M32.7,229.8c-0.3-0.2-0.4-0.4-0.4-0.7"/>
			<polyline class="st12" points="32.3,41.4 32.3,62.1 32.3,78.5 32.3,229.1 32.3,244.1 32.3,265.2 			"/>
			<line class="st12" x1="35.6" y1="247.3" x2="63.6" y2="247.3"/>
			<path class="st12" d="M32.7,245.1c-0.3-0.3-0.4-0.6-0.4-1"/>
			<polyline class="st12" points="60,245.5 40.2,245.5 40,245.5 			"/>
			<path class="st12" d="M32.8,77.8C32.7,77.8,32.7,77.8,32.8,77.8c-0.1,0.1-0.2,0.1-0.2,0.2c-0.1,0.1-0.1,0.1-0.1,0.2
				c-0.1,0.1-0.1,0.2-0.1,0.3"/>
			<path class="st12" d="M32.8,61.1c-0.2,0.2-0.3,0.3-0.3,0.5c-0.1,0.2-0.1,0.3-0.1,0.5"/>
			<line class="st12" x1="63.4" y1="59.1" x2="35.4" y2="59.1"/>
			<line class="st12" x1="61" y1="252.7" x2="59.7" y2="254"/>
			<line class="st12" x1="59.7" y1="52.6" x2="61" y2="53.9"/>
			<line class="st12" x1="58.9" y1="266.2" x2="50.7" y2="274.4"/>
			<line class="st12" x1="50.7" y1="32.2" x2="58.9" y2="40.4"/>
			<line class="st12" x1="59.3" y1="255" x2="59.3" y2="265.2"/>
			<line class="st12" x1="59.3" y1="41.4" x2="59.3" y2="51.6"/>
			<line class="st12" x1="49.7" y1="274.8" x2="41.9" y2="274.8"/>
			<line class="st12" x1="32.7" y1="40.4" x2="40.9" y2="32.2"/>
			<line class="st12" x1="40.9" y1="274.4" x2="32.7" y2="266.2"/>
			<line class="st12" x1="41.9" y1="31.8" x2="49.7" y2="31.8"/>
			<polyline class="st12" points="44.2,230.9 42.2,230.9 38,230.9 			"/>
			<polyline class="st12" points="62.1,211.8 52.2,211.8 42.2,211.8 38,211.8 			"/>
			<polyline class="st12" points="62.1,213.1 52.2,213.1 42.2,213.1 38,213.1 			"/>
			<polyline class="st12" points="38,209.8 38,211.8 38,213.1 38,230.9 38,243.7 			"/>
			<polyline class="st12" points="62.1,209.8 52.2,209.8 42.2,209.8 38,209.8 			"/>
			<polyline class="st12" points="62.1,243.7 52.2,243.7 42.2,243.7 38,243.7 			"/>
			<line class="st12" x1="49.7" y1="221.9" x2="45.3" y2="221.9"/>
			<line class="st12" x1="45.3" y1="221.9" x2="49.7" y2="217.5"/>
			<polyline class="st12" points="49.7,215.5 49.7,215.9 49.7,217.5 49.7,221.9 49.7,223.3 			"/>
			<polyline class="st12" points="49.7,223.3 42.5,223.3 42.3,223.3 42.2,223.3 			"/>
			<line class="st12" x1="42.3" y1="223.3" x2="49.7" y2="215.9"/>
			<polyline class="st12" points="49.7,215.5 49.3,215.5 42.2,215.5 			"/>
			<line class="st12" x1="46" y1="217.2" x2="49.3" y2="215.5"/>
			<line class="st12" x1="46" y1="217.2" x2="42.2" y2="217.2"/>
			<polyline class="st12" points="42.2,209.8 42.2,211.8 42.2,213.1 42.2,215.5 42.2,217.2 42.2,220.9 42.2,222.5 42.2,223.3 
				42.2,230.9 42.2,243.7 			"/>
			<line class="st12" x1="42.2" y1="220.9" x2="46" y2="217.2"/>
			<line class="st12" x1="42.2" y1="222.5" x2="49.3" y2="215.5"/>
			<line class="st12" x1="50.4" y1="228.9" x2="50.4" y2="229.9"/>
			<line class="st12" x1="50.2" y1="230.9" x2="49.8" y2="231.8"/>
			<line class="st12" x1="49.8" y1="231.8" x2="49.8" y2="231.8"/>
			<line class="st12" x1="49.5" y1="231.4" x2="49.7" y2="231.7"/>
			<line class="st12" x1="49.5" y1="231.4" x2="49.5" y2="228.9"/>
			<polyline class="st12" points="54.2,230.9 52.2,230.9 50.2,230.9 			"/>
			<line class="st12" x1="44" y1="229.9" x2="44" y2="228.9"/>
			<line class="st12" x1="44.9" y1="231.4" x2="44.9" y2="228.9"/>
			<line class="st12" x1="44.7" y1="231.8" x2="45" y2="231.4"/>
			<polyline class="st12" points="44.7,231.8 44.7,231.7 44.2,230.9 			"/>
			<line class="st12" x1="59.6" y1="221.9" x2="55.2" y2="221.9"/>
			<line class="st12" x1="55.2" y1="221.9" x2="59.6" y2="217.5"/>
			<polyline class="st12" points="59.6,215.5 59.6,215.9 59.6,217.5 59.6,221.9 59.6,223.3 			"/>
			<polyline class="st12" points="59.6,223.3 52.4,223.3 52.2,223.3 52.2,223.3 			"/>
			<line class="st12" x1="52.2" y1="223.3" x2="59.6" y2="215.9"/>
			<polyline class="st12" points="59.6,215.5 59.2,215.5 52.2,215.5 			"/>
			<line class="st12" x1="55.9" y1="217.2" x2="59.2" y2="215.5"/>
			<line class="st12" x1="55.9" y1="217.2" x2="52.2" y2="217.2"/>
			<polyline class="st12" points="52.2,209.8 52.2,211.8 52.2,213.1 52.2,215.5 52.2,217.2 52.2,220.9 52.2,222.5 52.2,223.3 
				52.2,230.9 52.2,243.7 			"/>
			<line class="st12" x1="52.2" y1="220.9" x2="55.9" y2="217.2"/>
			<line class="st12" x1="52.2" y1="222.5" x2="59.2" y2="215.5"/>
			<polyline class="st12" points="62.1,209.8 62.1,211.8 62.1,213.1 62.1,230.9 62.1,234.6 62.1,243.7 			"/>
			<line class="st12" x1="62.1" y1="230.9" x2="60.1" y2="230.9"/>
			<line class="st12" x1="60.3" y1="228.9" x2="60.3" y2="229.9"/>
			<line class="st12" x1="60.1" y1="230.9" x2="59.7" y2="231.8"/>
			<line class="st12" x1="59.4" y1="231.4" x2="59.7" y2="231.8"/>
			<line class="st12" x1="59.4" y1="231.4" x2="59.4" y2="228.9"/>
			<line class="st12" x1="53.9" y1="229.9" x2="53.9" y2="228.9"/>
			<line class="st12" x1="54.9" y1="231.4" x2="54.9" y2="228.9"/>
			<line class="st12" x1="54.6" y1="231.8" x2="54.9" y2="231.4"/>
			<line class="st12" x1="54.6" y1="231.8" x2="54.2" y2="230.9"/>
			<path class="st12" d="M122.3,57c0-0.4-0.1-0.7-0.4-1"/>
			<path class="st12" d="M121.9,250.6c0.3-0.3,0.4-0.6,0.4-1"/>
			<path class="st12" d="M119.6,252.3c0.4,0,0.7-0.2,1-0.4"/>
			<path class="st12" d="M120.6,54.7c-0.2-0.2-0.5-0.4-0.8-0.4c-0.1,0-0.1,0-0.2,0"/>
			<path class="st12" d="M63.6,209.8c0-0.8-0.6-1.4-1.4-1.4"/>
			<path class="st12" d="M38,208.4c-0.8,0-1.4,0.6-1.4,1.4"/>
			<path class="st12" d="M35.4,59.1c-0.2,0-0.3,0-0.4,0.1c-0.2,0.1-0.4,0.2-0.6,0.3"/>
			<path class="st12" d="M59.7,254c-0.3,0.3-0.4,0.6-0.4,1"/>
			<path class="st12" d="M61,53.9c0.3,0.3,0.6,0.4,1,0.4"/>
			<path class="st12" d="M62,252.3c-0.4,0-0.7,0.1-1,0.4"/>
			<path class="st12" d="M59.3,51.6c0,0.4,0.1,0.7,0.4,1"/>
			<path class="st12" d="M32.3,265.2c0,0.4,0.1,0.7,0.4,1"/>
			<path class="st12" d="M32.7,40.4c-0.3,0.3-0.4,0.6-0.4,1"/>
			<path class="st12" d="M41.9,31.8c-0.4,0-0.7,0.1-1,0.4"/>
			<path class="st12" d="M49.7,274.8c0.4,0,0.7-0.1,1-0.4"/>
			<path class="st12" d="M40.9,274.4c0.3,0.3,0.6,0.4,1,0.4"/>
			<path class="st12" d="M58.9,266.2c0.3-0.3,0.4-0.6,0.4-1"/>
			<path class="st12" d="M59.3,41.4c0-0.4-0.2-0.7-0.4-1"/>
			<path class="st12" d="M50.7,32.2c-0.3-0.3-0.6-0.4-1-0.4"/>
			<path class="st12" d="M50.4,228.9c0-1.8-1.4-3.2-3.2-3.2c-1.8,0-3.2,1.4-3.2,3.2"/>
			<path class="st12" d="M49.5,228.9c0-1.2-1-2.3-2.3-2.3s-2.3,1-2.3,2.3"/>
			<path class="st12" d="M60.3,228.9c0-1.8-1.4-3.2-3.2-3.2c-1.8,0-3.2,1.4-3.2,3.2"/>
			<path class="st12" d="M59.4,228.9c0-1.2-1-2.3-2.3-2.3c-1.2,0-2.3,1-2.3,2.3"/>
			<line class="st12" x1="63.5" y1="80" x2="63.5" y2="80"/>
			<polyline class="st12" points="35,59.3 35,76.4 35,231.3 35,247.1 			"/>
			<line class="st12" x1="34.4" y1="59.5" x2="32.8" y2="61.1"/>
			<line class="st12" x1="34.4" y1="76.7" x2="32.8" y2="77.8"/>
			<line class="st12" x1="32.7" y1="245.1" x2="34.7" y2="246.9"/>
			<line class="st12" x1="34.4" y1="231" x2="32.7" y2="229.8"/>
			<path class="st12" d="M54.6,231.8c-0.7,0.4-1.2,0.8-1.5,1.2c-1.7,2,0.2,4.6,3.3,5c2.8,0.4,5.5-1.3,5.5-3.3c0-0.5-0.2-1.1-0.7-1.6
				c-0.3-0.4-0.8-0.8-1.5-1.2"/>
			<path class="st12" d="M53.1,233c-1,4.9,9.1,4.9,8.1,0"/>
			<path class="st12" d="M44.6,231.7c-0.7,0.4-1.2,0.8-1.5,1.2c-1.7,2,0.2,4.6,3.3,5c3.5,0.5,7-2.4,4.9-4.9
				c-0.3-0.4-0.8-0.8-1.5-1.2c0,0,0,0,0,0"/>
			<path class="st12" d="M43.2,232.9c-1,4.9,9.1,4.9,8.1,0"/>
			<line class="st12" x1="66.6" y1="248.7" x2="66.6" y2="197.8"/>
			<line class="st12" x1="67" y1="197.4" x2="118.6" y2="197.4"/>
			<line class="st12" x1="118.6" y1="249.4" x2="67.2" y2="249.4"/>
			<line class="st12" x1="119.3" y1="198" x2="119.3" y2="248.7"/>
			<path class="st12" d="M66.6,248.7c0,0.1,0,0.2,0,0.3"/>
			<path class="st12" d="M66.6,249c0.1,0.1,0.2,0.3,0.3,0.3"/>
			<path class="st12" d="M67,249.3c0.1,0,0.2,0,0.3,0"/>
			<path class="st12" d="M118.9,197.4c-0.1,0-0.2,0-0.2,0"/>
			<path class="st12" d="M119.2,249c0-0.1,0-0.2,0-0.3"/>
			<path class="st12" d="M119.2,197.8c-0.1-0.1-0.2-0.3-0.4-0.4"/>
			<path class="st12" d="M118.6,249.4c0.1,0,0.2,0,0.2,0"/>
			<path class="st12" d="M119.3,198c0-0.1,0-0.2,0-0.3"/>
			<path class="st12" d="M118.9,249.3c0.2-0.1,0.3-0.2,0.4-0.3"/>
			<path class="st12" d="M67,197.4c-0.2,0.1-0.3,0.2-0.4,0.4"/>
			<path class="st12" d="M63.6,196.8c0-0.1,0.1-0.2,0.1-0.3c0.1-0.2,0.2-0.3,0.3-0.4"/>
			<path class="st12" d="M63.6,196.8c0,0.1,0,0.2,0,0.3"/>
			<path class="st12" d="M121.8,196.1c0.1,0.1,0.2,0.3,0.3,0.5c0,0.1,0.1,0.2,0.1,0.3"/>
			<path class="st12" d="M122.3,197.1c0-0.1,0-0.2,0-0.3"/>
			<path class="st12" d="M119.8,194.3c0.1,0,0.2,0,0.2,0.1c0.2,0.1,0.4,0.2,0.5,0.3"/>
			<path class="st12" d="M119.8,194.3c-0.1,0-0.2,0-0.3,0"/>
			<line class="st12" x1="120.5" y1="194.7" x2="121.8" y2="196.1"/>
			<line class="st12" x1="122.3" y1="197.1" x2="122.3" y2="249.8"/>
			<path class="st12" d="M122.3,249.8c0,0.1,0,0.1,0,0.2c-0.1,0.2-0.2,0.4-0.4,0.6"/>
			<path class="st12" d="M120.5,251.9c-0.2,0.2-0.4,0.3-0.6,0.4v0c0,0-0.1,0-0.2,0"/>
			<line class="st12" x1="121.9" y1="250.5" x2="120.5" y2="251.9"/>
			<path class="st12" d="M119.5,252.3c0.1,0,0.2,0,0.3,0"/>
			<polyline class="st12" points="119.5,252.3 112.7,252.3 110.6,252.3 66.4,252.3 			"/>
			<line class="st12" x1="65.3" y1="251.9" x2="64" y2="250.5"/>
			<path class="st12" d="M63.6,249.5c0,0.1,0,0.2,0,0.4c0.1,0.2,0.2,0.5,0.4,0.7"/>
			<path class="st12" d="M65.3,251.9c0.2,0.2,0.4,0.3,0.6,0.4c0.1,0.1,0.3,0.1,0.5,0.1"/>
			<path class="st12" d="M65.3,194.7c0.2-0.1,0.3-0.3,0.5-0.3c0.1,0,0.1,0,0.2-0.1"/>
			<polyline class="st12" points="66.4,194.3 119.3,194.3 119.5,194.3 			"/>
			<line class="st12" x1="64" y1="196.1" x2="65.3" y2="194.7"/>
			<path class="st12" d="M66.4,194.3c-0.1,0-0.2,0-0.3,0"/>
			<polyline class="st12" points="63.6,197.2 63.6,209.8 63.6,243.8 63.6,243.9 63.6,247.3 63.6,249.5 63.6,249.6 			"/>
			<line class="st12" x1="66.6" y1="197.8" x2="63.7" y2="196.5"/>
			<line class="st12" x1="67" y1="197.4" x2="65.9" y2="194.4"/>
			<line class="st12" x1="118.9" y1="197.4" x2="120" y2="194.4"/>
			<line class="st12" x1="119.2" y1="197.8" x2="122.2" y2="196.6"/>
			<line class="st12" x1="119.2" y1="249" x2="122.2" y2="250"/>
			<line class="st12" x1="118.9" y1="249.3" x2="119.9" y2="252.2"/>
			<line class="st12" x1="67" y1="249.3" x2="65.9" y2="252.2"/>
			<line class="st12" x1="66.6" y1="249" x2="63.7" y2="249.9"/>
			<line class="st12" x1="66.6" y1="108.7" x2="66.6" y2="57.8"/>
			<line class="st12" x1="67" y1="57.4" x2="118.6" y2="57.4"/>
			<line class="st12" x1="118.6" y1="109.4" x2="67.2" y2="109.4"/>
			<line class="st12" x1="119.3" y1="58" x2="119.3" y2="108.7"/>
			<path class="st12" d="M66.6,108.7c0,0.1,0,0.2,0,0.3"/>
			<path class="st12" d="M66.6,109c0.1,0.1,0.2,0.3,0.3,0.3"/>
			<path class="st12" d="M67,109.3c0.1,0,0.2,0,0.3,0"/>
			<path class="st12" d="M118.9,57.4c-0.1,0-0.2,0-0.2,0"/>
			<path class="st12" d="M119.2,109c0-0.1,0-0.2,0-0.3"/>
			<path class="st12" d="M119.2,57.8c-0.1-0.2-0.2-0.3-0.4-0.4"/>
			<path class="st12" d="M118.6,109.4c0.1,0,0.2,0,0.2,0"/>
			<path class="st12" d="M119.3,58c0-0.1,0-0.2,0-0.2"/>
			<path class="st12" d="M118.9,109.3c0.2-0.1,0.3-0.2,0.4-0.3"/>
			<path class="st12" d="M67,57.4c-0.2,0.1-0.3,0.2-0.4,0.4"/>
			<path class="st12" d="M63.6,56.8c0-0.1,0.1-0.2,0.1-0.3c0.1-0.2,0.2-0.3,0.3-0.4"/>
			<path class="st12" d="M63.6,56.8c0,0.1,0,0.2,0,0.3"/>
			<path class="st12" d="M121.8,56.1c0.1,0.1,0.2,0.3,0.3,0.5c0,0.1,0.1,0.2,0.1,0.3"/>
			<path class="st12" d="M122.3,57.1c0-0.1,0-0.2,0-0.3"/>
			<path class="st12" d="M119.8,54.3c0.1,0,0.2,0,0.2,0.1c0.2,0.1,0.4,0.2,0.5,0.3"/>
			<path class="st12" d="M119.8,54.3c-0.1,0-0.2,0-0.3,0"/>
			<line class="st12" x1="120.5" y1="54.7" x2="121.8" y2="56.1"/>
			<line class="st12" x1="122.3" y1="57.1" x2="122.3" y2="109.8"/>
			<path class="st12" d="M122.3,109.8c0,0.1,0,0.1,0,0.2c-0.1,0.2-0.2,0.4-0.4,0.6"/>
			<path class="st12" d="M120.5,111.9c-0.2,0.2-0.4,0.3-0.6,0.4c0,0-0.1,0-0.2,0"/>
			<line class="st12" x1="121.9" y1="110.5" x2="120.5" y2="111.9"/>
			<path class="st12" d="M119.5,112.3c0.1,0,0.2,0,0.3,0"/>
			<polyline class="st12" points="119.5,112.3 119.3,112.3 66.4,112.3 			"/>
			<line class="st12" x1="65.3" y1="111.9" x2="64" y2="110.5"/>
			<path class="st12" d="M63.6,109.5c0,0.1,0,0.2,0,0.4c0.1,0.2,0.2,0.5,0.4,0.7"/>
			<path class="st12" d="M65.3,111.9c0.2,0.2,0.4,0.3,0.6,0.3c0.2,0.1,0.3,0.1,0.5,0.1"/>
			<path class="st12" d="M65.9,54.4c0.1,0,0.1,0,0.2-0.1"/>
			<path class="st12" d="M65.3,54.7c0.2-0.2,0.3-0.3,0.5-0.3"/>
			<polyline class="st12" points="66.4,54.3 68.6,54.3 69,54.3 119.5,54.3 			"/>
			<line class="st12" x1="64" y1="56.1" x2="65.3" y2="54.7"/>
			<path class="st12" d="M66.4,54.3c-0.1,0-0.2,0-0.3,0"/>
			<polyline class="st12" points="63.6,57.1 63.6,59.1 63.6,76.4 63.6,109.5 63.6,109.6 			"/>
			<line class="st12" x1="66.6" y1="57.8" x2="63.7" y2="56.5"/>
			<polyline class="st12" points="67,57.4 65.9,54.4 65.9,54.4 65.9,54.4 			"/>
			<line class="st12" x1="118.9" y1="57.4" x2="120" y2="54.4"/>
			<line class="st12" x1="119.2" y1="57.8" x2="122.2" y2="56.6"/>
			<polyline class="st12" points="119.2,109 122.2,110 122.2,110 			"/>
			<line class="st12" x1="118.9" y1="109.3" x2="119.9" y2="112.2"/>
			<line class="st12" x1="67" y1="109.3" x2="65.9" y2="112.2"/>
			<line class="st12" x1="66.6" y1="109" x2="63.7" y2="109.9"/>
		</g>
	</g>
	<g>
		<g>
			<g>
				<path class="st13" d="M70.8,143.2c0,0.5-0.4,0.9-0.9,0.9c-0.5,0-0.9-0.4-0.9-0.9c0-0.5,0.4-0.8,0.9-0.8
					C70.4,142.3,70.8,142.7,70.8,143.2"/>
				<path class="st13" d="M73.6,143.1L73.6,143.1c0.1-0.1,0.2-0.2,0.2-0.3c0-0.3-0.2-0.4-0.5-0.4h-0.6v1.6h0.6
					c0.3,0,0.6-0.1,0.6-0.4C73.9,143.3,73.8,143.2,73.6,143.1"/>
				<path class="st13" d="M77.5,143.2c0,0.5-0.4,0.9-0.9,0.9s-0.9-0.4-0.9-0.9c0-0.5,0.4-0.8,0.9-0.8
					C77.1,142.3,77.5,142.7,77.5,143.2"/>
				<path id="path3085-8_00000045581473989919503600000001536620527052176289_" class="st13" d="M80,144h-0.4v-1.2h-0.3v-0.3h1.1
					v0.3H80V144z"/>
				<path id="path3087-8_00000079466108868491983690000008996064119225909894_" class="st13" d="M82.6,144h-0.4v-1.6h0.4V144z"/>
				<path id="path3091-4_00000012455043732302410180000015756200514630671253_" class="st13" d="M85.7,142.9
					c-0.1-0.1-0.2-0.2-0.4-0.2c-0.2,0-0.4,0.2-0.4,0.4c0,0.2,0.2,0.4,0.4,0.4c0.1,0,0.3-0.1,0.4-0.2v0.5c-0.1,0-0.2,0.1-0.4,0.1
					c-0.2,0-0.4-0.1-0.6-0.2c-0.2-0.2-0.3-0.4-0.3-0.6c0-0.2,0.1-0.4,0.2-0.6c0.2-0.2,0.4-0.3,0.6-0.3c0.1,0,0.3,0,0.4,0.1V142.9z"
					/>
				<path id="path3095-5_00000154386680326891842930000002793726341232217734_" class="st13" d="M67.4,144l-0.5-0.6
					c0.2,0,0.3-0.2,0.3-0.4c0-0.3-0.2-0.5-0.5-0.5h-0.6v1.6h0.4v-1.3h0c0.1,0,0.3,0,0.3,0.2c0,0.1-0.1,0.2-0.2,0.2v0.5l0.2,0.4H67.4
					z"/>
				<path id="path3103-1_00000070823090252924696180000004633005433560698023_" class="st13" d="M88.4,143l-0.1,0
					c-0.1,0-0.2-0.1-0.2-0.1c0-0.1,0.1-0.1,0.2-0.1c0.2,0,0.3,0.1,0.4,0.2v-0.4c-0.1-0.1-0.3-0.1-0.5-0.1c-0.3,0-0.5,0.2-0.5,0.5
					c0,0.3,0.2,0.4,0.4,0.4c0.1,0,0.2,0.1,0.2,0.2c0,0.1-0.1,0.2-0.2,0.2c-0.1,0-0.3-0.1-0.4-0.1l-0.1-0.1v0.4
					c0.1,0.1,0.3,0.1,0.5,0.1c0.2,0,0.3,0,0.4-0.1c0.1-0.1,0.2-0.3,0.2-0.4C88.7,143.2,88.6,143.1,88.4,143"/>
			</g>
			<g>
				<polygon class="st13" points="74.7,134 73.9,132.6 66.6,132.6 67.4,134.1 64.9,138.5 64.9,138.5 64.9,138.5 66,140.4 68.5,136 
					71.1,140.4 71.1,140.4 71.1,140.4 72.2,138.5 72.2,138.5 72.2,138.5 71.6,137.4 72.8,137.4 74.7,134 				"/>
				<path id="path3107-2_00000070081342397685188720000009169630542667576739_" class="st13" d="M88,132.6l-2.3,4l-2.3-4h-2.2
					l4.5,7.8l4.5-7.8H88z"/>
				<path id="path3111-6_00000139288149474135655930000007824620327615617155_" class="st13" d="M82.9,138.5h-6.8l0.7-1.3h5.3
					l-0.8-1.4h-3.7l0.7-1.3l0,0h2.2l-1.1-1.9l0,0h0h-3.8l0.8,1.4l-3.7,6.4h11.2L82.9,138.5z"/>
				<path id="path3115-4_00000050644499093625109750000012343543080031373962_" class="st13" d="M66,140.4L66,140.4L66,140.4
					L66,140.4z"/>
			</g>
		</g>
		<g>
			<path class="st13" d="M68.9,149.4c0.2,0.1,0.4,0.2,0.5,0.4c0.1,0.1,0.2,0.3,0.3,0.5c0.1,0.2,0.1,0.4,0.1,0.6
				c0,0.3-0.1,0.5-0.2,0.8c-0.1,0.3-0.4,0.4-0.7,0.5c0.3,0.1,0.4,0.2,0.5,0.4c0.1,0.2,0.2,0.5,0.2,0.9v0.4c0,0.3,0,0.4,0,0.5
				c0,0.1,0.1,0.2,0.2,0.3v0.1h-1.3c0-0.1-0.1-0.2-0.1-0.3c0-0.2,0-0.3,0-0.5l0-0.5c0-0.4-0.1-0.6-0.2-0.7s-0.3-0.2-0.7-0.2h-1.1
				v2.2h-1.1v-5.6H68C68.4,149.2,68.7,149.3,68.9,149.4z"/>
			<polygon class="st13" points="72.5,149.2 73.9,149.2 75.8,154.8 74.6,154.8 74.2,153.7 72.2,153.7 71.8,154.8 70.6,154.8 			"/>
			<path class="st13" d="M79.8,149.4c0.4,0.1,0.7,0.4,1,0.7c0.2,0.3,0.3,0.6,0.4,0.9c0.1,0.3,0.1,0.6,0.1,0.9c0,0.7-0.1,1.4-0.4,1.9
				c-0.4,0.7-1,1-1.9,1h-2.4v-5.6H79C79.3,149.2,79.6,149.3,79.8,149.4z"/>
			<rect x="82" y="149.2" class="st13" width="1.2" height="5.6"/>
			<path class="st13" d="M88.6,154.3c-0.4,0.4-1,0.7-1.8,0.7c-0.8,0-1.4-0.2-1.8-0.7c-0.6-0.5-0.8-1.3-0.8-2.3c0-1,0.3-1.8,0.8-2.3
				c0.4-0.4,1-0.7,1.8-0.7c0.8,0,1.4,0.2,1.8,0.7c0.6,0.5,0.8,1.3,0.8,2.3C89.4,153,89.2,153.8,88.6,154.3z"/>
			<path class="st13" d="M66.9,160.4c-0.3,0.3-0.8,0.4-1.4,0.4h-1.2v2h-1.2v-5.6h2.4c0.6,0,1,0.1,1.3,0.4s0.5,0.7,0.5,1.3
				C67.4,159.7,67.3,160.1,66.9,160.4z"/>
			<path class="st13" d="M72.7,162.3c-0.4,0.4-1,0.7-1.8,0.7c-0.8,0-1.4-0.2-1.8-0.7c-0.6-0.5-0.8-1.3-0.8-2.3c0-1,0.3-1.8,0.8-2.3
				c0.4-0.4,1-0.7,1.8-0.7c0.8,0,1.4,0.2,1.8,0.7c0.6,0.5,0.8,1.3,0.8,2.3C73.5,161,73.2,161.8,72.7,162.3z"/>
			<polygon class="st13" points="75.2,157.2 75.9,160.4 76.1,161.3 76.2,160.4 76.8,157.2 78.1,157.2 78.7,160.4 78.9,161.3 
				79.1,160.5 79.8,157.2 81,157.2 79.4,162.8 78.3,162.8 77.6,159.6 77.5,158.5 77.3,159.6 76.6,162.8 75.5,162.8 73.9,157.2 			
				"/>
			<polygon class="st13" points="85.8,158.2 82.9,158.2 82.9,159.4 85.6,159.4 85.6,160.4 82.9,160.4 82.9,161.8 86,161.8 86,162.8 
				81.7,162.8 81.7,157.2 85.8,157.2 			"/>
			<path class="st13" d="M90.5,157.4c0.2,0.1,0.4,0.2,0.5,0.4c0.1,0.1,0.2,0.3,0.3,0.5c0.1,0.2,0.1,0.4,0.1,0.6
				c0,0.3-0.1,0.5-0.2,0.8c-0.1,0.3-0.4,0.4-0.7,0.5c0.3,0.1,0.4,0.2,0.5,0.4c0.1,0.2,0.2,0.5,0.2,0.9v0.4c0,0.3,0,0.4,0,0.5
				c0,0.1,0.1,0.2,0.2,0.3v0.1h-1.3c0-0.1-0.1-0.2-0.1-0.3c0-0.2,0-0.3,0-0.5l0-0.5c0-0.4-0.1-0.6-0.2-0.7s-0.3-0.2-0.7-0.2H88v2.2
				h-1.1v-5.6h2.7C90,157.2,90.2,157.3,90.5,157.4z"/>
			<path class="st13" d="M64.7,165.2h1.7v5.6h-1.1V167c0-0.1,0-0.3,0-0.5c0-0.2,0-0.3,0-0.5l-1.1,4.7h-1.1l-1-4.7c0,0.1,0,0.3,0,0.5
				c0,0.2,0,0.3,0,0.5v3.8H61v-5.6h1.7l1,4.4L64.7,165.2z"/>
			<path class="st13" d="M71.8,170.3c-0.4,0.4-1,0.7-1.8,0.7c-0.8,0-1.4-0.2-1.8-0.7c-0.6-0.5-0.8-1.3-0.8-2.3c0-1,0.3-1.8,0.8-2.3
				c0.4-0.4,1-0.7,1.8-0.7c0.8,0,1.4,0.2,1.8,0.7c0.6,0.5,0.8,1.3,0.8,2.3C72.6,169,72.4,169.8,71.8,170.3z"/>
			<path class="st13" d="M76.8,165.4c0.4,0.1,0.7,0.4,1,0.7c0.2,0.3,0.3,0.6,0.4,0.9c0.1,0.3,0.1,0.6,0.1,0.9c0,0.7-0.1,1.4-0.4,1.9
				c-0.4,0.7-1,1-1.9,1h-2.4v-5.6h2.4C76.3,165.2,76.6,165.3,76.8,165.4z"/>
			<path class="st13" d="M79.1,165.2h1.2v3.4c0,0.4,0,0.7,0.1,0.8c0.1,0.3,0.4,0.5,0.9,0.5c0.5,0,0.8-0.2,0.9-0.5
				c0.1-0.2,0.1-0.5,0.1-0.8v-3.4h1.2v3.4c0,0.6-0.1,1.1-0.3,1.4c-0.3,0.6-1,0.9-2,0.9c-1,0-1.6-0.3-2-0.9c-0.2-0.3-0.3-0.8-0.3-1.4
				V165.2z"/>
			<polygon class="st13" points="84.7,165.2 85.9,165.2 85.9,169.8 88.7,169.8 88.7,170.8 84.7,170.8 			"/>
			<polygon class="st13" points="93.6,166.2 90.6,166.2 90.6,167.4 93.3,167.4 93.3,168.4 90.6,168.4 90.6,169.8 93.7,169.8 
				93.7,170.8 89.5,170.8 89.5,165.2 93.6,165.2 			"/>
		</g>
	</g>
	<g>
		<g>
			<path class="st1" d="M69.5,143.2c0,0.3,0.2,0.5,0.4,0.5c0.2,0,0.4-0.2,0.4-0.5c0-0.2-0.2-0.4-0.4-0.4
				C69.7,142.7,69.5,142.9,69.5,143.2"/>
			<path class="st1" d="M76.2,143.2c0,0.3,0.2,0.5,0.4,0.5c0.2,0,0.4-0.2,0.4-0.5c0-0.2-0.2-0.4-0.4-0.4
				C76.4,142.7,76.2,142.9,76.2,143.2"/>
			<path class="st1" d="M73.2,143.7L73.2,143.7l-0.1-0.9h0c0.1,0,0.2,0,0.2,0.2c0,0.1,0,0.1-0.1,0.1v0.3c0.1,0,0.2,0,0.2,0.2
				C73.5,143.7,73.3,143.7,73.2,143.7"/>
		</g>
		<polygon class="st1" points="68.5,136 69.4,134.5 72.3,134.5 71.4,136 		"/>
	</g>
	<g>
		<path class="st1" d="M66.5,150.2v1.5h1.3c0.2,0,0.4,0,0.6-0.1c0.2-0.1,0.3-0.3,0.3-0.6c0-0.3-0.1-0.6-0.3-0.7
			c-0.1-0.1-0.3-0.1-0.5-0.1H66.5z"/>
		<polygon class="st1" points="72.5,152.7 73.9,152.7 73.2,150.5 		"/>
		<path class="st1" d="M77.7,150.2v3.6h1.1c0.6,0,0.9-0.3,1.2-0.8c0.1-0.3,0.2-0.7,0.2-1.1c0-0.6-0.1-1-0.3-1.3
			c-0.2-0.3-0.5-0.5-1.1-0.5H77.7z"/>
		<path class="st1" d="M87.9,153.5c0.3-0.3,0.4-0.8,0.4-1.5c0-0.6-0.1-1.1-0.4-1.5c-0.3-0.3-0.6-0.5-1.1-0.5c-0.5,0-0.8,0.2-1.1,0.5
			c-0.3,0.3-0.4,0.8-0.4,1.5c0,0.6,0.1,1.1,0.4,1.5c0.3,0.3,0.6,0.5,1.1,0.5C87.2,154,87.6,153.8,87.9,153.5z"/>
		<path class="st1" d="M66.1,158.4c-0.1-0.1-0.4-0.2-0.6-0.2h-1.1v1.6h1.1c0.3,0,0.5-0.1,0.6-0.2s0.2-0.3,0.2-0.6
			S66.2,158.5,66.1,158.4z"/>
		<path class="st1" d="M71.9,161.5c0.3-0.3,0.4-0.8,0.4-1.5c0-0.6-0.1-1.1-0.4-1.5c-0.3-0.3-0.6-0.5-1.1-0.5c-0.5,0-0.8,0.2-1.1,0.5
			c-0.3,0.3-0.4,0.8-0.4,1.5c0,0.6,0.1,1.1,0.4,1.5c0.3,0.3,0.6,0.5,1.1,0.5C71.3,162,71.7,161.8,71.9,161.5z"/>
		<path class="st1" d="M88,158.2v1.5h1.3c0.2,0,0.4,0,0.6-0.1c0.2-0.1,0.3-0.3,0.3-0.6c0-0.3-0.1-0.6-0.3-0.7
			c-0.1-0.1-0.3-0.1-0.5-0.1H88z"/>
		<path class="st1" d="M71.1,169.5c0.3-0.3,0.4-0.8,0.4-1.5c0-0.6-0.1-1.1-0.4-1.5c-0.3-0.3-0.6-0.5-1.1-0.5c-0.5,0-0.8,0.2-1.1,0.5
			c-0.3,0.3-0.4,0.8-0.4,1.5c0,0.6,0.1,1.1,0.4,1.5c0.3,0.3,0.6,0.5,1.1,0.5C70.4,170,70.8,169.8,71.1,169.5z"/>
		<path class="st1" d="M74.7,166.2v3.6h1.1c0.6,0,0.9-0.3,1.2-0.8c0.1-0.3,0.2-0.7,0.2-1.1c0-0.6-0.1-1-0.3-1.3
			c-0.2-0.3-0.5-0.5-1.1-0.5H74.7z"/>
	</g>
	<rect x="42.9" y="194.5" class="st13" width="0.6" height="3.6"/>
	<polygon class="st13" points="44.2,194.5 44.9,194.5 46.5,197.1 46.5,197.1 46.5,194.5 47.1,194.5 47.1,198 46.5,198 44.8,195.4 
		44.8,195.4 44.8,198 44.2,198 	"/>
	<path class="st13" d="M47.9,194.5h1.6c0.3,0,0.5,0,0.6,0.1c0.2,0.1,0.3,0.2,0.4,0.3c0.1,0.1,0.1,0.2,0.2,0.4s0,0.2,0,0.4
		c0,0.1,0,0.2,0,0.4s-0.1,0.2-0.2,0.4c-0.1,0.1-0.2,0.2-0.4,0.3c-0.2,0.1-0.4,0.1-0.6,0.1h-1v1.4h-0.6V194.5z"/>
	<path class="st13" d="M51.2,194.5h0.6v2.1c0,0.1,0,0.2,0,0.4s0,0.2,0.1,0.3c0.1,0.1,0.1,0.2,0.2,0.2s0.3,0.1,0.5,0.1
		c0.2,0,0.4,0,0.5-0.1c0.1-0.1,0.2-0.1,0.2-0.2c0.1-0.1,0.1-0.2,0.1-0.3s0-0.2,0-0.4v-2.1h0.6v2.3c0,0.2,0,0.4-0.1,0.6
		c-0.1,0.2-0.2,0.3-0.3,0.4c-0.1,0.1-0.3,0.2-0.5,0.3c-0.2,0.1-0.4,0.1-0.6,0.1c-0.2,0-0.4,0-0.6-0.1c-0.2-0.1-0.3-0.1-0.5-0.3
		c-0.1-0.1-0.2-0.3-0.3-0.4c-0.1-0.2-0.1-0.4-0.1-0.6V194.5z"/>
	<polygon class="st13" points="54.5,194.5 57.4,194.5 57.4,195 56.2,195 56.2,198 55.6,198 55.6,195 54.5,195 	"/>
	<path class="st13" d="M45.9,189.9c0.1,0,0.2,0,0.4,0c0.1,0,0.2-0.1,0.3-0.1s0.2-0.1,0.2-0.2c0.1-0.1,0.1-0.2,0.1-0.3h0.5v3.5h-0.6
		v-2.5h-0.9V189.9z"/>
	<path class="st13" d="M51,192.8h-2.4c0-0.3,0.1-0.5,0.2-0.8s0.3-0.4,0.6-0.6c0.1-0.1,0.2-0.2,0.4-0.2c0.1-0.1,0.2-0.2,0.3-0.3
		c0.1-0.1,0.2-0.2,0.3-0.3c0.1-0.1,0.1-0.2,0.1-0.4c0-0.1,0-0.1,0-0.2c0-0.1,0-0.1-0.1-0.2c0-0.1-0.1-0.1-0.2-0.2
		c-0.1,0-0.2-0.1-0.3-0.1c-0.1,0-0.2,0-0.3,0.1s-0.1,0.1-0.2,0.2c0,0.1-0.1,0.2-0.1,0.3c0,0.1,0,0.2,0,0.3h-0.6c0-0.2,0-0.4,0.1-0.5
		s0.1-0.3,0.2-0.4c0.1-0.1,0.2-0.2,0.4-0.3c0.1-0.1,0.3-0.1,0.5-0.1c0.2,0,0.4,0,0.5,0.1c0.1,0.1,0.3,0.2,0.3,0.3
		c0.1,0.1,0.2,0.2,0.2,0.3c0,0.1,0.1,0.2,0.1,0.4c0,0.1,0,0.3-0.1,0.4s-0.1,0.2-0.2,0.3c-0.1,0.1-0.2,0.2-0.2,0.3s-0.2,0.2-0.3,0.2
		c-0.1,0.1-0.2,0.1-0.3,0.2c-0.1,0.1-0.2,0.1-0.3,0.2s-0.2,0.1-0.2,0.2c-0.1,0.1-0.1,0.1-0.1,0.2H51V192.8z"/>
	<path class="st13" d="M51.2,189.3h0.6l0.9,2.8h0l0.9-2.8h0.6l-1.2,3.6h-0.7L51.2,189.3z"/>
	<path class="st1" d="M48.5,196.2h0.9c0.1,0,0.1,0,0.2,0c0.1,0,0.1-0.1,0.2-0.1s0.1-0.1,0.1-0.2c0-0.1,0.1-0.2,0.1-0.3
		c0-0.1,0-0.2,0-0.3c0-0.1-0.1-0.1-0.1-0.2s-0.1-0.1-0.2-0.1s-0.2,0-0.2,0h-0.9V196.2z"/>
	<path class="st13" d="M53.2,201.5h3.4v0.7h-3.4V201.5z"/>
	<path class="st13" d="M44.6,200.1h0.7v1.3h1.3v0.7h-1.3v1.3h-0.7v-1.3h-1.3v-0.7h1.3V200.1z"/>
	<path class="st13" d="M41.7,93c0.3,0,0.5,0,0.7,0.2c0.2,0.1,0.4,0.2,0.5,0.4c0.1,0.2,0.3,0.4,0.3,0.6c0.1,0.2,0.1,0.5,0.1,0.7
		c0,0.3,0,0.5-0.1,0.7c-0.1,0.2-0.2,0.4-0.3,0.6c-0.1,0.2-0.3,0.3-0.5,0.4c-0.2,0.1-0.5,0.1-0.7,0.1s-0.5,0-0.7-0.1
		c-0.2-0.1-0.4-0.2-0.5-0.4c-0.1-0.2-0.3-0.4-0.3-0.6c-0.1-0.2-0.1-0.5-0.1-0.7c0-0.3,0-0.5,0.1-0.7c0.1-0.2,0.2-0.4,0.3-0.6
		c0.1-0.2,0.3-0.3,0.5-0.4C41.2,93.1,41.5,93,41.7,93z"/>
	<path class="st13" d="M44,93.1h0.6v2.1c0,0.1,0,0.2,0,0.4s0,0.2,0.1,0.3c0.1,0.1,0.1,0.2,0.2,0.2s0.3,0.1,0.5,0.1
		c0.2,0,0.4,0,0.5-0.1c0.1-0.1,0.2-0.1,0.2-0.2c0.1-0.1,0.1-0.2,0.1-0.3s0-0.2,0-0.4v-2.1h0.6v2.3c0,0.2,0,0.4-0.1,0.6
		c-0.1,0.2-0.2,0.3-0.3,0.4c-0.1,0.1-0.3,0.2-0.5,0.3c-0.2,0.1-0.4,0.1-0.6,0.1c-0.2,0-0.4,0-0.6-0.1c-0.2-0.1-0.3-0.1-0.5-0.3
		c-0.1-0.1-0.2-0.3-0.3-0.4C44,95.8,44,95.6,44,95.4V93.1z"/>
	<polygon class="st13" points="47.3,93.1 50.2,93.1 50.2,93.7 49,93.7 49,96.7 48.4,96.7 48.4,93.7 47.3,93.7 	"/>
	<path class="st13" d="M50.6,93.1h1.6c0.3,0,0.5,0,0.6,0.1c0.2,0.1,0.3,0.2,0.4,0.3c0.1,0.1,0.1,0.2,0.2,0.4s0,0.2,0,0.4
		c0,0.1,0,0.2,0,0.4s-0.1,0.2-0.2,0.4c-0.1,0.1-0.2,0.2-0.4,0.3c-0.2,0.1-0.4,0.1-0.6,0.1h-1v1.4h-0.6V93.1z"/>
	<path class="st13" d="M53.9,93.1h0.6v2.1c0,0.1,0,0.2,0,0.4s0,0.2,0.1,0.3c0.1,0.1,0.1,0.2,0.2,0.2s0.3,0.1,0.5,0.1
		c0.2,0,0.4,0,0.5-0.1c0.1-0.1,0.2-0.1,0.2-0.2c0.1-0.1,0.1-0.2,0.1-0.3s0-0.2,0-0.4v-2.1h0.6v2.3c0,0.2,0,0.4-0.1,0.6
		c-0.1,0.2-0.2,0.3-0.3,0.4c-0.1,0.1-0.3,0.2-0.5,0.3c-0.2,0.1-0.4,0.1-0.6,0.1c-0.2,0-0.4,0-0.6-0.1c-0.2-0.1-0.3-0.1-0.5-0.3
		C54.1,96.3,54,96.2,54,96c-0.1-0.2-0.1-0.4-0.1-0.6V93.1z"/>
	<polygon class="st13" points="57.2,93.1 60.1,93.1 60.1,93.7 58.9,93.7 58.9,96.7 58.3,96.7 58.3,93.7 57.2,93.7 	"/>
	<path class="st13" d="M45.9,88.6c0.1,0,0.2,0,0.4,0c0.1,0,0.2-0.1,0.3-0.1s0.2-0.1,0.2-0.2c0.1-0.1,0.1-0.2,0.1-0.3h0.5v3.5h-0.6
		V89h-0.9V88.6z"/>
	<path class="st13" d="M49.8,91.5c-0.2,0-0.3,0-0.5-0.1s-0.3-0.1-0.4-0.2c-0.1-0.1-0.2-0.2-0.3-0.3c-0.1-0.1-0.1-0.3-0.1-0.5
		c0-0.2,0.1-0.4,0.2-0.6c0.1-0.2,0.3-0.2,0.5-0.3v0c-0.2-0.1-0.3-0.2-0.4-0.3c-0.1-0.1-0.1-0.3-0.1-0.4c0-0.3,0.1-0.5,0.3-0.7
		s0.5-0.3,0.8-0.3s0.6,0.1,0.8,0.3c0.2,0.2,0.3,0.4,0.3,0.7c0,0.2,0,0.3-0.1,0.4s-0.2,0.2-0.4,0.3v0c0.2,0,0.4,0.1,0.5,0.3
		c0.1,0.2,0.2,0.3,0.2,0.6c0,0.2,0,0.3-0.1,0.5c-0.1,0.1-0.1,0.3-0.3,0.3s-0.2,0.2-0.4,0.2C50.2,91.5,50,91.5,49.8,91.5z"/>
	<polygon class="st13" points="51.2,87.9 51.8,87.9 52.7,90.7 52.7,90.7 53.7,87.9 54.3,87.9 53.1,91.5 52.4,91.5 	"/>
	<g>
		<path class="st1" d="M41.7,93.5c-0.2,0-0.4,0-0.5,0.1c-0.1,0.1-0.3,0.2-0.3,0.3c-0.1,0.1-0.2,0.3-0.2,0.4s-0.1,0.3-0.1,0.5
			s0,0.3,0.1,0.5s0.1,0.3,0.2,0.4c0.1,0.1,0.2,0.2,0.3,0.3c0.1,0.1,0.3,0.1,0.5,0.1s0.4,0,0.5-0.1c0.1-0.1,0.3-0.2,0.3-0.3
			c0.1-0.1,0.2-0.3,0.2-0.4c0-0.2,0.1-0.3,0.1-0.5s0-0.3-0.1-0.5c0-0.2-0.1-0.3-0.2-0.4c-0.1-0.1-0.2-0.2-0.3-0.3
			C42.1,93.6,41.9,93.5,41.7,93.5z"/>
		<path class="st1" d="M51.2,94.8h0.9c0.1,0,0.1,0,0.2,0c0.1,0,0.1-0.1,0.2-0.1s0.1-0.1,0.1-0.2c0-0.1,0.1-0.2,0.1-0.3
			c0-0.1,0-0.2,0-0.3c0-0.1-0.1-0.1-0.1-0.2s-0.1-0.1-0.2-0.1s-0.2,0-0.2,0h-0.9V94.8z"/>
		<path class="st1" d="M49.8,91.1c0.2,0,0.3-0.1,0.5-0.2c0.1-0.1,0.2-0.3,0.2-0.5c0-0.2-0.1-0.3-0.2-0.5c-0.1-0.1-0.3-0.2-0.5-0.2
			s-0.3,0.1-0.5,0.2c-0.1,0.1-0.2,0.3-0.2,0.5c0,0.2,0.1,0.4,0.2,0.5C49.5,91,49.6,91.1,49.8,91.1z"/>
		<path class="st1" d="M49.8,88.4c-0.2,0-0.3,0-0.4,0.1c-0.1,0.1-0.2,0.2-0.2,0.4c0,0.2,0.1,0.3,0.2,0.4c0.1,0.1,0.2,0.1,0.4,0.1
			c0.2,0,0.3,0,0.4-0.1c0.1-0.1,0.2-0.2,0.2-0.4c0-0.2-0.1-0.3-0.2-0.4C50.1,88.4,50,88.4,49.8,88.4z"/>
	</g>
	<path class="st13" d="M43.4,102.1c-0.2,0.1-0.4,0.2-0.8,0.2H42v1.1h-0.6v-3h1.3c0.3,0,0.5,0.1,0.7,0.2c0.2,0.2,0.3,0.4,0.3,0.7
		C43.7,101.7,43.6,102,43.4,102.1z"/>
	<polygon class="st13" points="44.7,100.4 45.4,100.4 46.5,103.4 45.8,103.4 45.6,102.8 44.5,102.8 44.3,103.4 43.7,103.4 	"/>
	<path class="st13" d="M47.3,102.5c0,0.1,0.1,0.2,0.1,0.3c0.1,0.1,0.3,0.2,0.5,0.2c0.2,0,0.3,0,0.4,0c0.2-0.1,0.3-0.2,0.3-0.3
		c0-0.1,0-0.2-0.1-0.2c-0.1-0.1-0.2-0.1-0.4-0.1l-0.3-0.1c-0.3-0.1-0.5-0.1-0.7-0.2c-0.2-0.1-0.3-0.4-0.3-0.7c0-0.3,0.1-0.5,0.3-0.7
		c0.2-0.2,0.5-0.3,0.9-0.3c0.3,0,0.6,0.1,0.8,0.3c0.2,0.2,0.3,0.4,0.4,0.7h-0.6c0-0.2-0.1-0.3-0.2-0.4c-0.1-0.1-0.2-0.1-0.4-0.1
		c-0.2,0-0.3,0-0.4,0.1c-0.1,0.1-0.1,0.2-0.1,0.3c0,0.1,0,0.2,0.1,0.2c0.1,0,0.2,0.1,0.4,0.1l0.5,0.1c0.2,0.1,0.4,0.1,0.5,0.2
		c0.2,0.1,0.3,0.3,0.3,0.6c0,0.3-0.1,0.5-0.3,0.7c-0.2,0.2-0.5,0.3-0.9,0.3c-0.4,0-0.7-0.1-0.9-0.3s-0.3-0.4-0.3-0.7H47.3z"/>
	<path class="st13" d="M50.1,102.5c0,0.1,0.1,0.2,0.1,0.3c0.1,0.1,0.3,0.2,0.5,0.2c0.2,0,0.3,0,0.4,0c0.2-0.1,0.3-0.2,0.3-0.3
		c0-0.1,0-0.2-0.1-0.2c-0.1-0.1-0.2-0.1-0.4-0.1l-0.3-0.1c-0.3-0.1-0.5-0.1-0.7-0.2c-0.2-0.1-0.3-0.4-0.3-0.7c0-0.3,0.1-0.5,0.3-0.7
		c0.2-0.2,0.5-0.3,0.9-0.3c0.3,0,0.6,0.1,0.8,0.3c0.2,0.2,0.3,0.4,0.4,0.7h-0.6c0-0.2-0.1-0.3-0.2-0.4c-0.1-0.1-0.2-0.1-0.4-0.1
		c-0.2,0-0.3,0-0.4,0.1c-0.1,0.1-0.1,0.2-0.1,0.3c0,0.1,0,0.2,0.1,0.2c0.1,0,0.2,0.1,0.4,0.1l0.5,0.1c0.2,0.1,0.4,0.1,0.5,0.2
		c0.2,0.1,0.3,0.3,0.3,0.6c0,0.3-0.1,0.5-0.3,0.7c-0.2,0.2-0.5,0.3-0.9,0.3c-0.4,0-0.7-0.1-0.9-0.3s-0.3-0.4-0.3-0.7H50.1z"/>
	<path class="st13" d="M53,103.4h-0.6v-3H53V103.4z"/>
	<path class="st13" d="M55.4,100.4H56l-1,3h-0.6l-1-3h0.7l0.7,2.3L55.4,100.4z"/>
	<path class="st13" d="M58.6,100.9H57v0.6h1.5v0.5H57v0.8h1.7v0.5h-2.3v-3h2.2V100.9z"/>
	<path class="st13" d="M47.9,106.7c-0.2,0.1-0.4,0.2-0.8,0.2h-0.6v1.1h-0.6v-3h1.3c0.3,0,0.5,0.1,0.7,0.2c0.2,0.2,0.3,0.4,0.3,0.7
		C48.2,106.3,48.1,106.6,47.9,106.7z"/>
	<path class="st13" d="M51,107.7c-0.2,0.2-0.6,0.4-1,0.4c-0.4,0-0.8-0.1-1-0.4c-0.3-0.3-0.5-0.7-0.5-1.2c0-0.6,0.2-1,0.5-1.2
		c0.2-0.2,0.6-0.4,1-0.4c0.4,0,0.8,0.1,1,0.4c0.3,0.3,0.5,0.7,0.5,1.2C51.4,107,51.3,107.4,51,107.7z"/>
	<g>
		<path class="st1" d="M42.9,101c-0.1-0.1-0.2-0.1-0.3-0.1H42v0.9h0.6c0.1,0,0.3,0,0.3-0.1c0.1-0.1,0.1-0.2,0.1-0.3
			S43,101.1,42.9,101z"/>
		<polygon class="st1" points="44.7,102.3 45.5,102.3 45.1,101.1 		"/>
		<path class="st1" d="M47.4,105.6c-0.1-0.1-0.2-0.1-0.3-0.1h-0.6v0.9h0.6c0.1,0,0.3,0,0.3-0.1c0.1-0.1,0.1-0.2,0.1-0.3
			S47.5,105.7,47.4,105.6z"/>
		<path class="st1" d="M50.6,107.3c0.1-0.2,0.2-0.4,0.2-0.8c0-0.3-0.1-0.6-0.2-0.8s-0.3-0.3-0.6-0.3c-0.2,0-0.4,0.1-0.6,0.3
			c-0.1,0.2-0.2,0.4-0.2,0.8s0.1,0.6,0.2,0.8s0.3,0.3,0.6,0.3C50.2,107.5,50.4,107.5,50.6,107.3z"/>
	</g>
	<path class="st13" d="M54.1,105.5h-1.6v0.6H54v0.5h-1.5v0.8h1.7v0.5h-2.3v-3h2.2V105.5z"/>
	<rect x="69.6" y="242.1" class="st14" width="46.9" height="3.1"/>
	<g>
		<polygon class="st13" points="89.6,202.6 90.5,202.6 92.8,206.3 92.8,206.3 92.8,202.6 93.6,202.6 93.6,207.6 92.7,207.6 
			90.4,204 90.4,204 90.4,207.6 89.6,207.6 		"/>
		<rect x="94.7" y="202.6" class="st13" width="0.9" height="5"/>
		<path class="st13" d="M79.5,211h0.7v0.7h0c0-0.1,0.1-0.2,0.1-0.3c0.1-0.1,0.1-0.2,0.2-0.3c0.1-0.1,0.2-0.1,0.3-0.2
			c0.1,0,0.2-0.1,0.4-0.1c0.1,0,0.2,0,0.2,0s0.1,0,0.1,0v0.8c-0.1,0-0.1,0-0.2,0c-0.1,0-0.1,0-0.2,0c-0.1,0-0.3,0-0.4,0.1
			s-0.2,0.1-0.3,0.2c-0.1,0.1-0.2,0.2-0.2,0.4s-0.1,0.3-0.1,0.5v1.7h-0.8V211z"/>
		<path class="st13" d="M83.5,214.7c-0.3,0-0.5,0-0.8-0.1c-0.2-0.1-0.4-0.2-0.6-0.4s-0.3-0.4-0.4-0.6c-0.1-0.2-0.1-0.5-0.1-0.8
			c0-0.3,0-0.5,0.1-0.8c0.1-0.2,0.2-0.4,0.4-0.6s0.3-0.3,0.6-0.4s0.5-0.1,0.8-0.1s0.5,0,0.8,0.1s0.4,0.2,0.6,0.4s0.3,0.4,0.4,0.6
			c0.1,0.2,0.1,0.5,0.1,0.8c0,0.3,0,0.5-0.1,0.8c-0.1,0.2-0.2,0.4-0.4,0.6s-0.3,0.3-0.6,0.4C84,214.7,83.7,214.7,83.5,214.7z"/>
		<path class="st13" d="M86,209.6h0.8v1.8h0c0.1-0.1,0.1-0.2,0.2-0.2c0.1-0.1,0.2-0.1,0.3-0.2s0.2-0.1,0.3-0.1c0.1,0,0.2,0,0.3,0
			c0.3,0,0.5,0,0.7,0.2c0.2,0.1,0.4,0.2,0.5,0.4c0.1,0.2,0.2,0.4,0.3,0.6s0.1,0.5,0.1,0.7c0,0.2,0,0.5-0.1,0.7
			c-0.1,0.2-0.2,0.4-0.3,0.6c-0.1,0.2-0.3,0.3-0.5,0.4c-0.2,0.1-0.4,0.2-0.7,0.2c-0.1,0-0.2,0-0.4,0c-0.1,0-0.2,0-0.4-0.1
			c-0.1,0-0.2-0.1-0.3-0.2c-0.1-0.1-0.2-0.2-0.2-0.3h0v0.5H86V209.6z"/>
		<path class="st13" d="M91.9,214.7c-0.3,0-0.5,0-0.8-0.1c-0.2-0.1-0.4-0.2-0.6-0.4s-0.3-0.4-0.4-0.6c-0.1-0.2-0.1-0.5-0.1-0.8
			c0-0.3,0-0.5,0.1-0.8c0.1-0.2,0.2-0.4,0.4-0.6s0.3-0.3,0.6-0.4s0.5-0.1,0.8-0.1s0.5,0,0.8,0.1s0.4,0.2,0.6,0.4s0.3,0.4,0.4,0.6
			c0.1,0.2,0.1,0.5,0.1,0.8c0,0.3,0,0.5-0.1,0.8c-0.1,0.2-0.2,0.4-0.4,0.6s-0.3,0.3-0.6,0.4C92.4,214.7,92.2,214.7,91.9,214.7z"/>
		<path class="st13" d="M94.5,209.6h2.4c0.6,0,1,0.1,1.2,0.4s0.4,0.6,0.4,1c0,0.2,0,0.4-0.1,0.6c-0.1,0.2-0.2,0.3-0.2,0.4
			c-0.1,0.1-0.2,0.2-0.3,0.2s-0.2,0.1-0.2,0.1v0c0.1,0,0.2,0,0.2,0.1c0.1,0,0.2,0.1,0.2,0.2c0.1,0.1,0.1,0.2,0.2,0.3
			c0,0.1,0.1,0.3,0.1,0.5c0,0.3,0,0.6,0.1,0.8c0,0.2,0.1,0.4,0.2,0.5h-0.9c-0.1-0.1-0.1-0.2-0.1-0.4c0-0.1,0-0.3,0-0.4
			c0-0.2,0-0.4,0-0.6c0-0.2-0.1-0.3-0.2-0.4c-0.1-0.1-0.2-0.2-0.3-0.2c-0.1-0.1-0.3-0.1-0.5-0.1h-1.3v2.1h-0.9V209.6z"/>
		<rect x="99.4" y="209.6" class="st13" width="0.9" height="5"/>
		<path class="st13" d="M103.5,209.5c0.4,0,0.7,0.1,1,0.2c0.3,0.1,0.5,0.3,0.8,0.6s0.4,0.5,0.5,0.8s0.2,0.7,0.2,1
			c0,0.4-0.1,0.7-0.2,1s-0.3,0.6-0.5,0.8c-0.2,0.2-0.5,0.4-0.8,0.6c-0.3,0.1-0.6,0.2-1,0.2c-0.4,0-0.7-0.1-1-0.2
			c-0.3-0.1-0.5-0.3-0.8-0.6c-0.2-0.2-0.4-0.5-0.5-0.8c-0.1-0.3-0.2-0.7-0.2-1c0-0.4,0.1-0.7,0.2-1c0.1-0.3,0.3-0.6,0.5-0.8
			c0.2-0.2,0.5-0.4,0.8-0.6C102.8,209.6,103.1,209.5,103.5,209.5z"/>
	</g>
	<g>
		<path class="st2" d="M83.5,214.1c0.2,0,0.3,0,0.5-0.1c0.1-0.1,0.2-0.2,0.3-0.3c0.1-0.1,0.1-0.3,0.2-0.4c0-0.2,0.1-0.3,0.1-0.5
			c0-0.2,0-0.3-0.1-0.5c0-0.2-0.1-0.3-0.2-0.4s-0.2-0.2-0.3-0.3c-0.1-0.1-0.3-0.1-0.5-0.1c-0.2,0-0.3,0-0.5,0.1
			c-0.1,0.1-0.2,0.2-0.3,0.3s-0.1,0.3-0.2,0.4c0,0.2-0.1,0.3-0.1,0.5c0,0.2,0,0.3,0.1,0.5c0,0.2,0.1,0.3,0.2,0.4
			c0.1,0.1,0.2,0.2,0.3,0.3C83.1,214.1,83.3,214.1,83.5,214.1z"/>
		<path class="st2" d="M88.8,212.8c0-0.2,0-0.3-0.1-0.5c0-0.2-0.1-0.3-0.2-0.4s-0.2-0.2-0.3-0.3s-0.3-0.1-0.4-0.1
			c-0.3,0-0.6,0.1-0.8,0.3c-0.2,0.2-0.3,0.5-0.3,0.9c0,0.2,0,0.4,0.1,0.5c0,0.2,0.1,0.3,0.2,0.4c0.1,0.1,0.2,0.2,0.3,0.3
			c0.1,0.1,0.3,0.1,0.4,0.1c0.2,0,0.3,0,0.5-0.1c0.1-0.1,0.2-0.2,0.3-0.3c0.1-0.1,0.1-0.3,0.2-0.4C88.7,213.1,88.8,213,88.8,212.8z"
			/>
		<path class="st2" d="M91.9,214.1c0.2,0,0.3,0,0.5-0.1c0.1-0.1,0.2-0.2,0.3-0.3c0.1-0.1,0.1-0.3,0.2-0.4c0-0.2,0.1-0.3,0.1-0.5
			c0-0.2,0-0.3-0.1-0.5c0-0.2-0.1-0.3-0.2-0.4s-0.2-0.2-0.3-0.3c-0.1-0.1-0.3-0.1-0.5-0.1c-0.2,0-0.3,0-0.5,0.1
			c-0.1,0.1-0.2,0.2-0.3,0.3s-0.1,0.3-0.2,0.4c0,0.2-0.1,0.3-0.1,0.5c0,0.2,0,0.3,0.1,0.5c0,0.2,0.1,0.3,0.2,0.4
			c0.1,0.1,0.2,0.2,0.3,0.3C91.6,214.1,91.7,214.1,91.9,214.1z"/>
		<path class="st2" d="M95.4,211.9h1.4c0.3,0,0.5-0.1,0.6-0.2c0.1-0.1,0.2-0.3,0.2-0.6c0-0.2,0-0.3-0.1-0.4c0-0.1-0.1-0.2-0.2-0.2
			c-0.1-0.1-0.2-0.1-0.3-0.1c-0.1,0-0.2,0-0.3,0h-1.4V211.9z"/>
		<path class="st2" d="M103.5,210.2c-0.3,0-0.5,0.1-0.7,0.2c-0.2,0.1-0.4,0.3-0.5,0.4s-0.2,0.4-0.3,0.6s-0.1,0.5-0.1,0.7
			s0,0.5,0.1,0.7s0.1,0.4,0.3,0.6s0.3,0.3,0.5,0.4c0.2,0.1,0.4,0.2,0.7,0.2c0.3,0,0.5-0.1,0.7-0.2s0.4-0.3,0.5-0.4
			c0.1-0.2,0.2-0.4,0.3-0.6c0.1-0.2,0.1-0.5,0.1-0.7s0-0.5-0.1-0.7c-0.1-0.2-0.1-0.4-0.3-0.6c-0.1-0.2-0.3-0.3-0.5-0.4
			S103.8,210.2,103.5,210.2z"/>
	</g>
	<path class="st13" d="M99.3,219.2H86c-1.1,0-2.1,0.9-2.1,2.1v13.3c0,1.1,0.9,2.1,2.1,2.1h13.3c1.1,0,2.1-0.9,2.1-2.1v-13.3
		C101.4,220.1,100.5,219.2,99.3,219.2z"/>
	<path class="st2" d="M99.3,219.9H86c-0.7,0-1.4,0.6-1.4,1.4v13.3c0,0.7,0.6,1.4,1.4,1.4h13.3c0.7,0,1.4-0.6,1.4-1.4v-13.3
		C100.7,220.5,100.1,219.9,99.3,219.9z"/>
	<g>
		<path class="st13" d="M96.4,236.7h-7.3c-0.4,0-0.8-0.3-0.8-0.8v-1.3c0-0.4,0.3-0.8,0.8-0.8h7.3c0.4,0,0.8,0.3,0.8,0.8v1.3
			C97.2,236.3,96.9,236.7,96.4,236.7z M89.1,234.6C89.1,234.6,89,234.6,89.1,234.6l-0.1,1.3c0,0,0,0.1,0.1,0.1h7.3
			c0,0,0.1,0,0.1-0.1v-1.3c0,0,0-0.1-0.1-0.1H89.1z"/>
	</g>
	<g>
		<path class="st13" d="M95.5,233.7h-5.4c-0.3,0-0.5-0.2-0.5-0.5v-0.5c0-0.3,0.2-0.5,0.5-0.5h5.4c0.3,0,0.5,0.2,0.5,0.5v0.5
			C96,233.4,95.8,233.7,95.5,233.7z M90.1,233.1L90.1,233.1C90.1,233.1,90.1,233.1,90.1,233.1z"/>
	</g>
	<rect x="90.1" y="232.7" class="st2" width="5.3" height="0.4"/>
	<path class="st13" d="M100.5,223.4h-1.3c-0.5,0-0.8,0.4-0.8,0.8v9.5c0,0.5,0.4,0.8,0.8,0.8h1.3c0.5,0,0.8-0.4,0.8-0.8v-9.5
		C101.3,223.8,101,223.4,100.5,223.4z"/>
	<path class="st2" d="M99.2,233.9h1.3c0.1,0,0.1-0.1,0.1-0.1v-9.5c0-0.1-0.1-0.1-0.1-0.1h-1.3c-0.1,0-0.1,0.1-0.1,0.1v9.5
		C99.1,233.8,99.1,233.9,99.2,233.9z"/>
	<path class="st13" d="M86.1,223.4h-1.3c-0.5,0-0.8,0.4-0.8,0.8v9.5c0,0.5,0.4,0.8,0.8,0.8h1.3c0.5,0,0.8-0.4,0.8-0.8v-9.5
		C87,223.8,86.6,223.4,86.1,223.4z"/>
	<path class="st2" d="M84.8,233.9h1.3c0.1,0,0.1-0.1,0.1-0.1v-9.5c0-0.1-0.1-0.1-0.1-0.1h-1.3c-0.1,0-0.1,0.1-0.1,0.1v9.5
		C84.7,233.8,84.7,233.9,84.8,233.9z"/>
	<path class="st13" d="M96.5,219.2h-7.7c-0.5,0-0.9,0.4-0.9,0.9v2c0,0.5,0.4,0.9,0.9,0.9h7.7c0.5,0,0.9-0.4,0.9-0.9v-2
		C97.4,219.6,97,219.2,96.5,219.2z"/>
	<path class="st2" d="M93.7,220c0,0,0-0.1,0-0.1h-4.9c-0.1,0-0.2,0.1-0.2,0.2v2c0,0.1,0.1,0.2,0.2,0.2h4.9c0,0,0-0.1,0-0.1V220z"/>
	<path class="st14" d="M96.6,219.9h-2.1c-0.1,0-0.1,0.1-0.1,0.1v2c0,0.1,0.1,0.1,0.1,0.1h2.1c0.1,0,0.1-0.1,0.1-0.1v-2
		C96.7,220,96.7,219.9,96.6,219.9z"/>
	<rect x="69.4" y="61.3" class="st15" width="47.2" height="3.1"/>
	<g>
		<polygon class="st13" points="85.3,91.3 86.2,91.3 87.1,95.2 87.1,95.2 88.1,91.3 89,91.3 90,95.2 90,95.2 90.9,91.3 91.8,91.3 
			90.4,96.3 89.5,96.3 88.5,92.5 88.5,92.5 87.5,96.3 86.6,96.3 		"/>
		<rect x="92.3" y="91.3" class="st13" width="0.8" height="0.8"/>
		<rect x="92.3" y="92.7" class="st13" width="0.8" height="3.6"/>
		<polygon class="st13" points="94,91.3 97.5,91.3 97.5,92.1 94.9,92.1 94.9,93.4 97.2,93.4 97.2,94.1 94.9,94.1 94.9,96.3 94,96.3 
					"/>
		<rect x="98.1" y="91.3" class="st13" width="0.8" height="0.8"/>
		<rect x="98.1" y="92.7" class="st13" width="0.8" height="3.6"/>
		<path class="st13" d="M81.9,98.3h2.4c0.6,0,1,0.1,1.2,0.4c0.3,0.2,0.4,0.6,0.4,1c0,0.2,0,0.4-0.1,0.6c-0.1,0.2-0.2,0.3-0.2,0.4
			c-0.1,0.1-0.2,0.2-0.3,0.2s-0.2,0.1-0.2,0.1v0c0.1,0,0.2,0,0.2,0.1c0.1,0,0.2,0.1,0.2,0.2c0.1,0.1,0.1,0.2,0.2,0.3
			c0,0.1,0.1,0.3,0.1,0.5c0,0.3,0,0.6,0.1,0.8c0,0.2,0.1,0.4,0.2,0.5h-0.9c-0.1-0.1-0.1-0.2-0.1-0.4s0-0.3,0-0.4c0-0.2,0-0.4,0-0.6
			c0-0.2-0.1-0.3-0.2-0.4c-0.1-0.1-0.2-0.2-0.3-0.2s-0.3-0.1-0.5-0.1h-1.3v2.1h-0.9V98.3z"/>
		<polygon class="st13" points="89.1,98.3 88.1,98.3 86.2,103.3 87.1,103.3 87.6,102 89.6,102 90,103.3 91,103.3 		"/>
		<path class="st13" d="M91.5,98.3h2.1c0.4,0,0.7,0.1,1,0.2c0.3,0.1,0.5,0.3,0.7,0.5c0.2,0.2,0.3,0.5,0.4,0.8c0.1,0.3,0.1,0.6,0.1,1
			s0,0.7-0.1,1c-0.1,0.3-0.2,0.6-0.4,0.8c-0.2,0.2-0.4,0.4-0.7,0.5c-0.3,0.1-0.6,0.2-1,0.2h-2.1V98.3z"/>
		<rect x="96.5" y="98.3" class="st13" width="0.9" height="5"/>
		<path class="st13" d="M100.6,98.2c0.4,0,0.7,0.1,1,0.2c0.3,0.1,0.5,0.3,0.8,0.6c0.2,0.2,0.4,0.5,0.5,0.8s0.2,0.7,0.2,1
			c0,0.4-0.1,0.7-0.2,1s-0.3,0.6-0.5,0.8c-0.2,0.2-0.5,0.4-0.8,0.6c-0.3,0.1-0.6,0.2-1,0.2c-0.4,0-0.7-0.1-1-0.2
			c-0.3-0.1-0.5-0.3-0.8-0.6c-0.2-0.2-0.4-0.5-0.5-0.8c-0.1-0.3-0.2-0.7-0.2-1c0-0.4,0.1-0.7,0.2-1c0.1-0.3,0.3-0.6,0.5-0.8
			c0.2-0.2,0.5-0.4,0.8-0.6C99.9,98.3,100.2,98.2,100.6,98.2z"/>
	</g>
	<g>
		<path class="st2" d="M82.7,100.6h1.4c0.3,0,0.5-0.1,0.6-0.2c0.1-0.1,0.2-0.3,0.2-0.6c0-0.2,0-0.3-0.1-0.4c0-0.1-0.1-0.2-0.2-0.2
			c-0.1-0.1-0.2-0.1-0.3-0.1c-0.1,0-0.2,0-0.3,0h-1.4V100.6z"/>
		<polygon class="st2" points="87.8,101.3 88.6,99.2 88.6,99.2 89.3,101.3 		"/>
		<path class="st2" d="M92.3,102.6h0.9c0.3,0,0.6,0,0.8-0.1c0.2-0.1,0.4-0.2,0.5-0.4c0.1-0.2,0.2-0.4,0.3-0.6c0-0.2,0.1-0.5,0.1-0.7
			s0-0.5-0.1-0.7c0-0.2-0.1-0.4-0.3-0.6c-0.1-0.2-0.3-0.3-0.5-0.4S93.5,99,93.2,99h-0.9V102.6z"/>
		<path class="st2" d="M100.6,98.9c-0.3,0-0.5,0.1-0.7,0.2c-0.2,0.1-0.4,0.3-0.5,0.4s-0.2,0.4-0.3,0.6c-0.1,0.2-0.1,0.5-0.1,0.7
			s0,0.5,0.1,0.7c0.1,0.2,0.1,0.4,0.3,0.6s0.3,0.3,0.5,0.4c0.2,0.1,0.4,0.2,0.7,0.2c0.3,0,0.5-0.1,0.7-0.2s0.4-0.3,0.5-0.4
			c0.1-0.2,0.2-0.4,0.3-0.6c0.1-0.2,0.1-0.5,0.1-0.7s0-0.5-0.1-0.7c-0.1-0.2-0.1-0.4-0.3-0.6c-0.1-0.2-0.3-0.3-0.5-0.4
			C101.1,99,100.9,98.9,100.6,98.9z"/>
	</g>
	<g>
		<path class="st13" d="M95.4,69.7h-6c-1.8,0-3.3,1.5-3.3,3.3v9.7c0,1.8,1.5,3.3,3.3,3.3h6c1.8,0,3.3-1.5,3.3-3.3V73
			C98.7,71.2,97.3,69.7,95.4,69.7z"/>
		<path class="st2" d="M95.4,70.4h-6c-1.4,0-2.6,1.2-2.6,2.6v9.7c0,1.4,1.2,2.6,2.6,2.6h6c1.4,0,2.6-1.2,2.6-2.6V73
			C98,71.6,96.9,70.4,95.4,70.4z"/>
		<g>
			<path class="st13" d="M93.7,78c-0.4-0.2-0.8-0.3-1.2-0.3c-0.4,0-0.9,0.1-1.3,0.4l-0.1,0l0.2,0.4l0.1,0c0.6-0.4,1.4-0.4,2,0l0.1,0
				L93.7,78L93.7,78z"/>
			<path class="st13" d="M94.3,77.1c-0.6-0.3-1.2-0.5-1.8-0.5c-0.7,0-1.3,0.2-1.9,0.5l-0.1,0l0.2,0.4l0.1,0c0.5-0.3,1.1-0.5,1.7-0.5
				c0.6,0,1.1,0.1,1.6,0.4l0.1,0L94.3,77.1L94.3,77.1z"/>
			<path class="st13" d="M94.9,76.2c-0.7-0.4-1.6-0.7-2.4-0.7c-0.9,0-1.7,0.2-2.5,0.7l-0.1,0l0.2,0.4l0.1,0c0.7-0.4,1.5-0.6,2.2-0.6
				c0.8,0,1.5,0.2,2.2,0.6l0.1,0L94.9,76.2L94.9,76.2z"/>
			<path class="st13" d="M95.5,75.3c-0.9-0.6-2-0.8-3-0.8c-1.1,0-2.2,0.3-3.1,0.9l-0.1,0l0.2,0.4l0.1,0c0.9-0.5,1.9-0.8,2.9-0.8
				c1,0,1.9,0.3,2.8,0.8l0.1,0L95.5,75.3L95.5,75.3z"/>
		</g>
		<path class="st13" d="M95,84.7c-0.3,0-0.6-0.3-0.6-0.6c0-0.3,0.3-0.6,0.6-0.6c0.3,0,0.6,0.3,0.6,0.6C95.6,84.5,95.4,84.7,95,84.7z
			"/>
		<path class="st13" d="M93.3,84.7c-0.3,0-0.6-0.3-0.6-0.6c0-0.3,0.3-0.6,0.6-0.6c0.3,0,0.6,0.3,0.6,0.6
			C93.8,84.5,93.6,84.7,93.3,84.7z"/>
		<circle class="st13" cx="91.6" cy="84.2" r="0.6"/>
		<circle class="st13" cx="89.8" cy="84.2" r="0.6"/>
		<circle class="st13" cx="92.5" cy="79.6" r="0.7"/>
	</g>
	<path class="st3" d="M42.9,80.5c-0.7,0-1.5,0.4-1.8,1.1c-0.4,0.6-0.4,1.5,0,2.1c0.4,0.6,1.1,1.1,1.8,1.1c0,0,0,0,0,0
		c0.7,0,1.5-0.4,1.8-1c0.4-0.6,0.4-1.5,0-2.1C44.4,80.9,43.6,80.5,42.9,80.5L42.9,80.5z"/>
</g>
</svg>
