<svg id="Layer_1" data-name="Layer 1" xmlns="http://www.w3.org/2000/svg" viewBox="0 0 239.4958 93.3503"><defs><style>.cls-1,.cls-2,.cls-3{fill:none;stroke-linecap:round;stroke-linejoin:round;stroke-width:2.708px;}.cls-1{stroke:#e9262a;}.cls-2{stroke:#babcbe;}.cls-3{stroke:#221f1f;}.cls-4{fill:#919495;}.cls-5{fill:#5a5a5c;}.cls-6{fill:#424242;}</style></defs><line class="cls-1" x1="6.0874" y1="35.5876" x2="97.9634" y2="35.5876"/><line class="cls-2" x1="1.354" y1="38.8093" x2="97.9629" y2="38.8093"/><line class="cls-3" x1="13.7915" y1="32.5085" x2="97.9635" y2="32.5085"/><path class="cls-4" d="M170.6479,5.279h66.207a2.64,2.64,0,1,0,0-5.279h-66.207a2.64,2.64,0,1,0,0,5.279"/><rect class="cls-5" x="201.4148" y="5.2782" width="6.837" height="4.56"/><path class="cls-6" d="M122.3354,93.35h92.788a24.3716,24.3716,0,0,0,24.372-24.3719v-53.38H97.9634v53.38A24.371,24.371,0,0,0,122.3354,93.35"/><polyline class="cls-5" points="239.496 15.598 229.859 15.206 97.963 9.839 97.963 15.598"/><polyline class="cls-6" points="231.794 15.285 231.794 7.92 110.436 9.839"/></svg>