<?xml version="1.0" encoding="utf-8"?>
<!-- Generator: Adobe Illustrator 24.1.2, SVG Export Plug-In . SVG Version: 6.00 Build 0)  -->
<svg version="1.1" id="Layer_1" xmlns="http://www.w3.org/2000/svg" xmlns:xlink="http://www.w3.org/1999/xlink" x="0px" y="0px"
	 viewBox="0 0 417.8 269.9" style="enable-background:new 0 0 417.8 269.9;" xml:space="preserve">
<style type="text/css">
	.st0{clip-path:url(#SVGID_2_);}
	.st1{fill:none;stroke:#231F20;stroke-width:1.084;stroke-linecap:round;stroke-linejoin:round;}
	.st2{clip-path:url(#SVGID_4_);}
	.st3{clip-path:url(#SVGID_6_);}
</style>
<g>
	<g>
		<defs>
			<rect id="SVGID_1_" x="11.6" y="0" width="406.2" height="268.9"/>
		</defs>
		<clipPath id="SVGID_2_">
			<use xlink:href="#SVGID_1_"  style="overflow:visible;"/>
		</clipPath>
		<g class="st0">
			<path class="st1" d="M406.2,96.6v-0.4 M18.5,213.6l-0.2-0.3l-0.3-0.4l-0.2-0.3 M17.8,212.6h-3.9V56.3H18 M406.4,172.6H406
				 M406,96.2h0.4 M273.2,63.2l6.3,0.3l6.2,0.8l6.2,1.4c29.3,8,50.3,33.7,52.3,64l0.2,6.3l-0.5,6.2c-3.3,30.2-25.4,55-55.1,61.7
				l-6.2,1.1l-6.3,0.6H270l-6.3-0.6c-30.1-4.1-54.3-26.7-60.4-56.4l-0.9-6.3l-0.5-6.2c-0.7-32.7,20.9-61.7,52.5-70.3l6.2-1.4
				l6.2-0.8L273.2,63.2 M18.5,55.6v158 M18.5,213.6L55.1,262 M55.2,261.9h272.5 M406,172.6V96.3 M160.8,222.8V46h-55.9v176.8H160.8z
				 M18,56.3l0.4-0.4l0.1-0.3 M18.5,55.6L55.3,7 M57.2,4l0.1-0.1 M17.7,56.3l0.2-0.3 M327.6,7H55.4l0.7-1l0.6-0.9l0.7-0.8 M57.3,4.3
				V2.2h271.3 M328.6,2.3l-0.1,0.3l-0.1,0.8l-0.3,1.2L327.9,6l-0.2,1l-0.1,0.1 M411.3,96.2h-4.8l-0.4-1.7
				C394.3,55.3,365.8,23.3,328.3,7l-0.5-0.2 M328.6,2.3l1.7,0.7c39.4,17.1,69,50.9,80.8,92.1l0.3,1.1 M406.4,172.6h4.8 M328.6,266.6
				l-0.1-0.3l-0.1-0.8l-0.3-1.1l-0.2-1.5l-0.2-1h-0.1l1.6-0.7c37.4-16.6,65.6-48.8,77.1-88.1l0.1-0.7 M411.3,172.6l-0.4,1.7
				c-12,41.2-41.7,74.9-81.2,91.8l-1,0.5 M45.3,160.8l-1.4,1.3l-3.4-2.3l-3.2-0.7l-3.2,0.7l-2.8,1.9l-1.4,2.3l-0.5,2.6l0.9,3.3
				l2.4,2.7l2.5,1.2l2.7,0.4l2.7-0.4l2.4-1.4l1.4-1.7l0.7-2h-5.9v-1.9h7.5l-0.7,3.9l-2.3,3.2l-2.8,1.5l-3.1,0.4l-2.5-0.2l-2.3-0.8
				l-3-2.4l-1.8-3.2l-0.4-2.8l0.9-4l2.6-3.3l2.9-1.5l3.3-0.5l2.5,0.2l2.3,0.9L45.3,160.8 M27.5,135.1h1.8 M33.6,141.9l4.4-6.8h1.7
				 M39.7,135.1l-5.2,8.2 M29.3,135.1l4.3,6.8 M34.5,143.2l5.5,8.6h-1.8l-4.6-7.2l-4.6,7.2h-1.7l5.4-8.6l-5.2-8.2 M27.4,128.2
				l8-16.7 M35.4,111.4h0.2 M35.6,111.4l7.7,16.7h-1.6l-2.5-5.4h-7.7l-2.5,5.4h-1.7 M32.4,121.1h6l-3-6.4L32.4,121.1 M47.5,101
				l5.6-13.2h1.6l-7.1,16.7h-0.2l-7.1-16.7h1.6L47.5,101 M29.1,96.1l1.8-8.4h6.9 M37.7,87.8v1.7 M32.5,104.9l-2.1-0.4l-1.8-1.3
				l-0.9-1.4l-0.4-1.7h1.5l0.5,1.4l1.1,1l1,0.5l1.2,0.2l1.8-0.4l1.5-1.2l0.8-1.3l0.2-1.4l-0.4-1.7l-1.1-1.4l-1.2-0.5l-1.4-0.2
				l-2.1,0.3L29,96 M37.7,89.4H32l-0.9,4.4l1.1-0.3h0.9l2.3,0.5l1.9,1.5l0.9,1.6l0.2,1.9l-0.5,2.6l-1.6,2.1l-1.8,1l-2,0.3
				 M28.7,80.9V64.2 M30.2,71.2h1.1l1.5-0.1l1.5-0.4l0.7-0.4l0.5-0.6l0.3-0.7l0.1-0.8L35.6,67l-0.4-0.5l-0.5-0.3l-2.5-0.4h-2V71.2
				 M28.7,64.1h3.2l2.2,0.2l1.9,0.9l1,1.4l0.3,1.7l-0.6,2.3l-1.3,1.3l1.4,0.7l1.2,1.2l0.5,1.2l0.1,1.3l-0.5,2.1l-1.5,1.7L35,80.9
				l-1.8,0.2h-4.5 M30.2,79.1h3.7l1.6-0.5l1.1-1l0.4-0.8l0.1-0.7l-0.3-1.3l-0.7-0.9L34.3,73l-1.8-0.2h-2.3V79.1 M213.7,173.6
				L213.7,173.6l0.2-0.1v-0.1h0.1l0.1-0.1h0.1v-0.1h0.2v-0.1h0.2l0.1-0.1h0.2v-0.1h0.3v-0.1h0.5v-0.1h1.5v0.1h0.4l0.1,0.1h0.2
				l0.1,0.1h0.2l0.1,0.1h0.1l0.1,0.1h0.1l0.1,0.1h0.1l0.1,0.1h0.1v0.1h0.1l0.1,0.1h0.1v0.1h0.1v0.1h0.1c0.2,0.2,0.3,0.3,0.5,0.5v0.1
				h0.1v0.1l0.1,0.1 M220.1,174.6L220.1,174.6l0.2,0.1v0.1l0.1,0.1v0.1h0.1v0.2h0.1v0.2l0.1,0.1v0.1l0.1,0.1v0.2h0.1v0.4h0.1v0.6
				l0.1,0.1v0.8H221v0.6l-0.1,0.1v0.2l-0.1,0.1v0.2l-0.1,0.1v0.2h-0.1v0.2h-0.1v0.1l-0.1,0.1v0.1l-0.1,0.1v0.1h-0.1v0.1l-0.1,0.1
				v0.1H220v0.1h-0.1v0.1h-0.1v0.1l-0.1,0.1h-0.1v0.1l-0.1,0.1h-0.1v0.1h-0.1 M218.7,180.3L218.7,180.3l0.2-0.1v-0.1h0.1V180h0.1
				v-0.1h0.1v-0.1h0.1v-0.1l0.1-0.1v-0.1h0.1v-0.1l0.1-0.1v-0.1h0.1v-0.1l0.1-0.1v-0.1l0.1-0.1v-0.2h0.1v-0.3h0.1v-0.4l0.1-0.1v-1.1
				l-0.1-0.1v-0.4H220v-0.3h-0.1v-0.2h-0.1v-0.2l-0.1-0.1v-0.1h-0.1v-0.1l-0.1-0.1V175h-0.1v-0.1 M219.3,175v-0.2h-0.1l0,0h-0.1
				v-0.1H219v-0.1h-0.1v-0.1h-0.1v-0.1h-0.1l-0.1-0.1h-0.1v-0.1h-0.1v-0.1h-0.2V174H218v-0.1h-0.2l-0.1-0.1h-0.2v-0.1h-0.3l-0.1-0.1
				h-1.5v0.1h-0.4v0.1h-0.3v0.1h-0.2v0.1h-0.2v0.1h-0.1l-0.1,0.1h-0.1v0.1 M344.3,137.7L344.3,137.7l-0.8-0.1l-0.1-0.1h-0.3
				l-0.1-0.1h-0.2v-0.1h-0.2l-0.1-0.1h-0.1l-0.1-0.1h-0.1l-0.1-0.1H342l-0.2-0.2h-0.1v-0.1h-0.1l-0.1-0.1h-0.1v-0.1h-0.1v-0.1h-0.1
				v-0.1h-0.1v-0.1H341v-0.1h-0.1V136l-0.3-0.3v-0.1h-0.1v-0.2h-0.1v-0.1l-0.1-0.1v-0.1l-0.1-0.1v-0.1l-0.1-0.1v0l-0.1-0.1v-0.3
				h-0.1V134h-0.1v-0.8l-0.1-0.1V133h0.1v-0.9l0.1-0.1v-0.3l0.1-0.1v-0.2h0.1v-0.2l0.1-0.1V131l0.1-0.1v-0.1l0.1-0.1v-0.1l0.2-0.2
				v-0.1h0.1v-0.1l0.1-0.1V130h0.1v-0.1h0.1v-0.1h0.1v-0.1h0.1v-0.1h0.1v-0.1h0.1l0.3-0.3h0.1v-0.1h0.2V129h0.1l0.1-0.1h0.1l0.1-0.1
				h0.1l0.1-0.1h0.1l0.1-0.1h0.3v-0.1h0.4v-0.1h0.7 M344.2,129.3h-0.6v0.1h-0.4v0.1H343l-0.1,0.1h-0.1l-0.1,0.1h-0.1l-0.1,0.1h-0.1
				v0.1h-0.2v0.1h-0.1v0.1H342v0.1h-0.1v0.1h-0.1l-0.1,0.1v0.1h-0.1v0.1h-0.1v0.1h-0.1v0.1l-0.1,0.1v0.1h-0.1v0.1l-0.1,0.1v0.1
				l-0.1,0.1v0.1l-0.1,0.1v0.2h-0.1v0.3l-0.1,0.1v0.6l-0.1,0.1v0.3l0.1,0.1v0.6h0.1v0.4h0.1v0.2l0.1,0.1v0.1l0.1,0.1v0.1l0.1,0.1
				v0.1h0.1v0.2h0.1v0.1h0.1v0.1h0.1v0.1h0.1v0.1l0.1,0.1h0.1v0.1h0.1v0.1h0.1v0.1h0.1l0.1,0.1h0.1v0.1h0.1l0.1,0.1h0.1l0.1,0.1h0.1
				l0.1,0.1h0.2v0.1h0.3l0.1,0.1h0.6l0.1,0.1 M298.3,67.8V68h-0.1v0.2l-0.1,0.1v0.1l-0.1,0.1v0.1h-0.1v0.2h-0.1v0.1l-0.1,0.1v0.1
				h-0.1v0.1h-0.1v0.1h-0.1v0.1h-0.1v0.1h-0.1v0.1h-0.1v0.1H297v0.1h-0.1v0.1h-0.1l-0.1,0.1h-0.1v0.1h-0.1c-0.1,0.2-0.3,0.3-0.5,0.3
				h-0.1v0.1h-0.2v0.1h-0.2l-0.1,0.1h-0.3v0.1h-0.5v0.1h-1.3l-0.1-0.1h-0.4v-0.1h-0.3l-0.1-0.1h-0.2v-0.1H292l-0.1-0.1h-0.1
				l-0.1-0.1h-0.1v-0.1h-0.2v-0.1h-0.1l-0.1-0.1h0v-0.2h-0.1v-0.1H291v-0.1h-0.1v-0.1h-0.1v-0.1h-0.1v-0.1h-0.1v-0.1h-0.1v-0.1h-0.1
				V69l-0.1-0.1v-0.1h-0.1v0c-0.2-0.1-0.3-0.3-0.3-0.5v-0.1h-0.1V68h-0.1v-0.2l-0.1-0.1v-0.3h-0.1v-0.5h-0.1v-1.3l0.1-0.1v-0.4h0.1
				 M290.3,65.3v0.4l-0.1,0.1v0.9l0.1,0.1v0.4l0.1,0.1v0.3h0.1v0.2h0.1V68h0.1v0.2h0.1v0.2h0.1v0.1h0.1v0.1l0.7,0.7h0.1v0.1h0.1
				l0.1,0.1h0.1v0.1h0.2v0.1h0.2v0.1h0.2v0.1h0.3l0.1,0.1h0.4l0.1,0.1h0.9l0.1-0.1h0.4l0.1-0.1h0.3v-0.1h0.2v-0.1h0.2v-0.1h0.2v-0.1
				h0.2v-0.1h0.1v-0.1h0.1c0.2-0.2,0.5-0.5,0.7-0.7v-0.1h0.1v-0.1l0.1-0.1v-0.1h0.1V68h0.1v-0.2h0.1v-0.2h0.1v-0.1 M298.6,67.9v0.2
				h-0.1v0.2l-0.1,0.1v0.1l-0.1,0.1v0.1h-0.1v0.2h-0.1V69l-0.2,0.2v0.1h-0.1v0.1l-0.2,0.2v0.1h-0.1l-0.1,0.1l-0.1,0.1V70h-0.1
				l-0.2,0.2h-0.1v0.1h-0.1l-0.1,0.1h-0.1v0.1h-0.1l-0.1,0.1h-0.1l-0.1,0.1h-0.1l-0.1,0.1h-0.1l-0.1,0.1h-0.2l-0.1,0.1h-0.3v0.1
				h-0.4l-0.1,0.1h-1.5l-0.1-0.1h-0.4l-0.1-0.1h-0.2l-0.1-0.1h-0.1v-0.1H292l-0.1-0.1h-0.1l-0.1-0.1h-0.1v-0.1h-0.2v-0.1h-0.1
				l-0.2-0.2H291v-0.1h-0.1l-0.2-0.2h-0.1v-0.1l-0.2-0.2h-0.1v-0.1l-0.2-0.2v-0.1H290v-0.1l-0.1-0.1v-0.1h-0.1v-0.1l-0.1-0.1v-0.1
				l-0.1-0.1v-0.1l-0.1-0.1v-0.1l-0.1-0.1v-0.2l-0.1-0.1v-0.3h-0.1v-0.4l-0.1-0.1v-1.5l0.1-0.1V65h0.1 M344.3,138L344.3,138
				l-0.8-0.1l-0.1-0.1h-0.3l-0.1-0.1h-0.2l-0.1-0.1h-0.2l-0.1-0.1h-0.1l-0.1-0.1h-0.1v-0.1h-0.2l-0.1-0.1h-0.1v-0.1h-0.1l-0.2-0.2
				h-0.1v-0.1h-0.1v-0.1h-0.1v-0.1H341v-0.1h-0.1l-0.1-0.1v-0.1h-0.1v-0.1h-0.1v-0.1l-0.2-0.2v-0.1h-0.1v-0.1l-0.1-0.1v-0.1h-0.1
				v-0.2H340v-0.1l-0.1-0.1v-0.2h-0.1v-0.1h-0.1v-0.3l-0.1-0.1v-0.3l-0.1-0.1v-0.8l-0.1-0.1V133h0.1v-0.9l0.1-0.1v-0.3l0.1-0.1v-0.2
				l0.1-0.1v-0.2l0.1-0.1v-0.1l0.1-0.1v-0.1h0.1v-0.2l0.1-0.1v-0.1h0.1v-0.1l0.2-0.2v-0.1h0.1v-0.1h0.1v-0.1h0.1v-0.1h0.1v-0.1
				l0.1-0.1h0.1v-0.1h0.1v-0.1h0.1l0.1-0.1l0.1-0.1h0.1v-0.1h0.1l0.1-0.1h0.1v0h0.2v-0.1h0.1l0.1-0.1h0.2v-0.1h0.2v-0.1h0.3l0.1-0.1
				h0.3l0.1-0.1h0.6 M217.7,89.7L217.7,89.7l0.2,0.1h0.1v0.1h0.1V90h0.1l0.1,0.1v0.1h0.1v0.1h0.1v0.1h0.1v0.1h0.1v0.1l0.1,0.1
				l0.1,0.1v0.1h0.1V91l0.1,0.1v0.2h0.1v0.1l0.1,0.1v0.1l0.1,0.1v0.2l0.1,0.1v0.2l0.1,0.1v0.3l0.1,0.1v1.9l-0.1,0.1V95l-0.1,0.1v0.2
				l-0.1,0.1v0.2h-0.1v0.2l-0.1,0v0.1h-0.1v0.2H219v0.1l-0.1,0.1v0.1 M218.8,96.4L218.8,96.4l-0.1,0.2h-0.1v0.1l-0.1,0.1l-0.1,0.1
				V97h-0.1v0.1h-0.1l-0.4,0.4h-0.1v0.1h-0.1l-0.1,0.1h-0.1v0.1h-0.1l-0.1,0.1h-0.1L217,98h-0.1l-0.1,0.1h-0.1l-0.1,0.1h-0.2
				l-0.1,0.1H216v0.1h-0.4l-0.1,0.1H214l-0.1-0.1h-0.4l-0.1-0.1h-0.2l-0.1-0.1h-0.2v-0.1h-0.2l-0.1-0.1h-0.1l-0.1-0.1h-0.1v-0.1
				h-0.1v-0.1h-0.1 M291.8,203.1v-0.4l-0.1-0.1v-0.7l-0.1-0.1v-0.3l0.1-0.1v-0.6l0.1-0.1v-0.3l0.1-0.1v-0.2l0.1-0.1v-0.1l0.1-0.1
				v-0.2h0.1v-0.2h0.1v-0.1l0.1-0.1v-0.1h0.1V199l0.1-0.1v-0.1h0.1v-0.1l0.2-0.2v-0.1h0.1l0.1-0.1v-0.1h0.1v-0.1h0.1l0.2-0.2h0.1
				v-0.1h0.1v-0.1h0.1l0.1-0.1h0.1v-0.1h0.2v-0.1h0.2v-0.1h0.2v-0.1h0.2l0.1-0.1h0.3V197h0.3l0.1-0.1h0.7l0.1-0.1h0.3l0.1,0.1h0.7
				l0.1,0.1h0.3l0.1,0.1h0.2l0.1,0.1h0.1l0.1,0.1h0.2v0.1h0.2v0.1h0.1l0.1,0.1h0.1v0.1h0.1l0.1,0.1h0.1v0.1h0.1l0.2,0.2h0.1v0.1
				l0.1,0.1h0.1v0.1h0.1v0.1l0.2,0.2v0.1h0.1v0.1h0.1v0.1l0.1,0.1v0.1h0.1v0.2h0.1v0.2h0.1v0.2h0.1v0.2 M213.6,173.4l0.2-0.2h0.2
				v-0.1h0.1l0.1-0.1h0.1l0.1-0.1h0.1l0.1-0.1h0.2v-0.1h0.3l0.1-0.1h0.3l0.1-0.1h1.7l0.1,0.1h0.4v0.1h0.3v0.1h0.2l0.1,0.1h0.2v0.1
				h0.1l0.1,0.1h0.1l0.1,0.1h0.1v0.1h0.1l0.1,0.1h0.1v0.1h0.1l0.1,0.1v0.1h0.1c0.2,0.2,0.3,0.3,0.5,0.5v0.1h0.1v0.1l0.1,0.1v0.1h0.1
				l0.1,0.1v0.2h0.1v0.1l0.1,0.1v0.1l0.1,0.1v0.1l0.1,0.1v0.2h0.1v0.3l0.1,0.1v0.3l0.1,0.1v1.7l-0.1,0.1v0.4h-0.1v0.3H221v0.2
				l-0.1,0.1v0.2h-0.1v0.1l-0.1,0.1v0.1l-0.1,0.1v0.1h-0.1v0.1l-0.1,0.1 M220.4,180.2l-1,1 M244.5,173.8l0.5,0.3
				c4.9,3.5,10.4,6,16.2,7.5l0.6,0.1v0.1 M261.7,182l-0.3,0.3 M261.7,189.1l0.1-1 M281.2,183l-0.4-0.4 M280.4,188.8l-0.1,1
				 M244.5,174.5v-0.7 M244.5,173.8l-5.4,4.9 M298.8,176.1l-0.1,0.4 M303.8,181.1l-0.7-0.7 M312.5,163.1l0.4-0.5
				c3.6-5,6.2-10.7,7.6-16.7l0.1-0.1 M226.5,165l0.7-0.6 M313.2,163l-0.8,0.1 M312.5,163.1l4.9,5.3 M231.4,160.1L231,160
				 M320.7,145.8l0.3,0.4 M327.8,145.8h-1 M224.5,142.5l0.4-0.5 M218.7,141.6h-0.9 M321.8,126.3l-0.4,0.5 M327.6,127.2h0.9
				 M218.5,123l0.9,0.1 M314.8,108.9h0.5 M319.9,103.8l-0.7,0.6 M225.6,123l-0.3-0.3 M233.1,105.8l0.8-0.1l-0.3,0.4
				c-3.6,5.1-6.2,10.7-7.7,16.7v0.2 M233.9,105.7l-4.9-5.3 M301.8,95.1l-0.4-0.4c-4.9-3.5-10.4-6-16.3-7.5l-0.6-0.1V87 M247.6,92.7
				v-0.4 M242.5,87.7l0.7,0.7 M301.8,94.3v0.8 M301.8,95.1l5.4-4.9 M265.1,85.8l0.4,0.4 M265.9,80l0.1-1 M284.6,86.8l0.3-0.2
				 M284.5,79.8v0.9 M280.9,190.3l0.3-7.3 M261.4,182.3l-0.3,7.3 M282.2,183.9l-0.2,6.3 M298.7,176.5l5,5.4 M302.9,182.5l-4.3-4.7
				 M281.2,183l0.7-0.2c5.7-1,11.2-3,16.3-6l0.6-0.3 M281.2,183l1,0.9 M298.6,177.8l-0.5,0.3c-4.9,2.7-10.1,4.6-15.6,5.7h-0.3
				 M298.6,177.8l0.1-1.3 M260.2,189.4l0.2-6.4 M239.2,179.5l5.3-4.9 M244.6,175.8l-4.6,4.3 M244.5,174.6l0.6,0.3
				c4.9,3.5,10.5,6,16.4,7.4h0.1 M244.5,174.6l0.1,1.3 M260.4,183l-0.6-0.2c-5.3-1.5-10.4-3.9-15-7l-0.1-0.1 M260.4,183l1.1-0.7
				 M318.2,168.4l-4.9-5.4 M231,160l-5.3,4.9 M314.5,163l4.3,4.6 M321,146.2l7.3,0.2 M328.1,147.4l-6.3-0.2 M313.3,163l0.4-0.6
				c3.3-4.8,5.8-10.1,7.3-15.8l0.1-0.6 M313.3,163h1.3 M321.8,147.2l-0.1,0.6c-1.5,5.3-3.8,10.4-7,15l-0.1,0.3 M321.8,147.2l-0.8-1
				 M225.1,164.1l4.6-4.3 M224.5,142.5l0.2,0.6c1,5.8,3,11.3,6,16.4l0.3,0.5 M229.7,159.8l-0.3-0.6c-2.7-4.8-4.6-10.1-5.6-15.6
				l-0.1-0.1 M229.7,159.8l1.3,0.2 M217.2,142.2l7.3,0.3l-0.8,1 M223.7,143.5l-6.4-0.3 M329.1,126.6l-7.3-0.3 M225.3,122.7l-7.3-0.3
				 M321.8,126.3l-0.1-0.7c-1-5.8-3.1-11.3-6-16.4l-0.3-0.5 M321.8,126.3l0.8-0.9 M233.1,105.8l-0.3,0.5c-3.5,4.9-6,10.5-7.4,16.4
				v0.1 M224.5,121.7l0.8,1.1 M316.6,109.1l0.4,0.5c2.7,4.9,4.6,10.1,5.7,15.6v0.2 M322.6,125.4l6.4,0.2 M321.2,104.7l-4.6,4.3
				l-1.3-0.2l5.3-4.9 M218.1,121.5l6.4,0.2l0.2-0.7c1.5-5.3,3.9-10.4,7-15l0.1-0.2 M228,100.4l5,5.4l-1.3,0.1 M231.8,105.9l-4.3-4.7
				 M307.1,89.4l-5.3,4.9 M247.6,92.3l-4.9-5.4 M301.8,94.3l-0.5-0.4c-4.8-3.4-10.2-5.8-15.9-7.3l-0.5-0.1 M301.8,94.3l-0.1-1.3
				 M265.1,85.8l-0.6,0.1c-5.8,1-11.3,3-16.4,6l-0.5,0.3v0.1 M247.7,91l-0.2,1.3 M285.9,85.8l0.7,0.1c5.3,1.5,10.4,3.8,15,7l0.2,0.1
				 M301.7,93l4.6-4.3 M286.2,79.4l-0.3,6.4l-1,0.8l0.3-7.3 M265.4,78.5l-0.3,7.3l-1-0.9 M247.7,91l0.6-0.4
				c4.9-2.7,10.1-4.6,15.6-5.7h0.3 M264.1,84.9l0.2-6.3 M243.4,86.3l4.3,4.7 M329,125.6l-0.1-0.7c-1.2-7.1-3.7-13.9-7.5-20.1
				l-0.1-0.2 M329,125.6l0.1,1 M329.1,126.6l-0.6,0.6 M328.5,127.2l0.1,0.6c0.7,5.9,0.5,11.9-0.7,17.7v0.3 M328.3,146.4l-0.5-0.6
				 M328.3,146.4l-0.2,1 M318.9,167.7l0.5-0.6c4.1-5.9,7.1-12.5,8.8-19.5l0.1-0.2 M318.9,167.7l-0.7,0.8 M318.2,168.4h-0.8
				 M317.4,168.4l-0.4,0.5c-3.7,4.7-8.1,8.7-13,12l-0.2,0.1 M303.7,181.9l0.1-0.8 M303.7,181.9l-0.8,0.6 M282,190.2l0.7-0.2
				c7.1-1.2,13.9-3.7,20-7.5l0.2-0.1 M282,190.2l-1.1,0.1 M280.9,190.3l-0.6-0.5 M280.4,189.8h-0.6c-5.9,0.7-11.9,0.5-17.7-0.7
				l-0.2-0.1 M261.1,189.6l0.6-0.5 M261.1,189.6l-1-0.2 M240,180.2l0.6,0.4c5.9,4.1,12.5,7.1,19.5,8.8l0.1,0.1 M240,180.2l-0.8-0.7
				 M239.2,179.5l-0.1-0.8 M239.1,178.7l-0.5-0.5c-4.7-3.7-8.7-8.1-12-13l-0.1-0.2 M225.7,164.9l0.8,0.1 M225.7,164.9l-0.6-0.8
				 M217.3,143.2l0.2,0.6c1.2,7.1,3.7,13.9,7.5,20.1l0.1,0.2 M217.3,143.2l-0.1-1 M217.2,142.2l0.6-0.6 M217.8,141.7V141
				c-0.7-5.9-0.5-11.9,0.7-17.7l0.1-0.2 M218,122.4l0.5,0.6 M218,122.4l0.1-1 M227.5,101.2l-0.4,0.5c-4.1,5.9-7.1,12.5-8.9,19.5v0.3
				 M227.5,101.2l0.6-0.8 M228,100.4h0.9 M228.9,100.4l0.5-0.6c3.7-4.7,8.1-8.7,13-12l0.2-0.1 M242.6,86.9l-0.1,0.8 M242.6,86.9
				l0.8-0.6 M264.3,78.6l-0.6,0.1c-7.1,1.2-13.9,3.7-20.1,7.5l-0.1,0.1 M264.3,78.6l1.1-0.1 M265.4,78.5L266,79 M266,79l0.7-0.1
				c5.9-0.7,12-0.5,17.8,0.7l0.1,0.1 M285.2,79.3l-0.7,0.5 M285.2,79.3l1,0.1 M306.4,88.7l-0.5-0.5c-5.9-4.1-12.5-7.1-19.5-8.8h-0.2
				 M306.4,88.7l0.8,0.7 M307.1,89.4l0.1,0.8 M307.2,90.1l0.6,0.4c4.7,3.7,8.8,8.1,12,13.1l0.1,0.1 M320.6,103.9l-0.8-0.1
				 M320.6,103.9l0.6,0.8 M270.7,199.6h2.5c34.7,0,63.4-27.2,65.1-61.9v-0.9l0.1-0.8c0.8-35-26.1-64.5-61.1-66.7h-1.7l-0.8-0.1H274
				c-34.7-0.4-63.7,26.4-65.9,61.1v1.7c-1.3,35,25.3,64.8,60.2,67.4l0.8,0.1L270.7,199.6 M271,191.1l-0.7-0.1h-0.7l-0.7-0.1
				c-30.1-2.3-53.1-27.7-52.4-57.9l0.1-0.8v-0.7c1.6-30.4,26.9-54.2,57.3-53.8h0.7l0.8,0.1h1.4c30.1,1.9,53.5,27.1,53.1,57.3v0.7
				l-0.1,0.8c-1.2,30.4-26.2,54.5-56.6,54.5h-1.4H271 M270.7,199.2h2.5c34.5,0,63-27,64.7-61.5v-0.9l0.1-0.8
				c0.8-34.8-25.9-64.1-60.7-66.3h-1.7l-0.8-0.1H274c-34.5-0.4-63.3,26.2-65.5,60.7v1.7c-1.3,34.8,25.1,64.4,59.8,67l0.8,0.1
				L270.7,199.2 M243.6,174.6l-0.5-0.4"/>
			<path class="st1" d="M244.8,170l0.5,0.3c5.3,4.1,11.5,7,18,8.5l0.4,0.1 M263.7,178.9l-0.2,6.8 M263.5,185.7l0.7,0.1
				c4.4,0.7,8.9,0.9,13.4,0.6l0.4-0.1 M278,186.4l0.3-6.7 M278.3,179.7l0.6-0.1c6.7-0.9,13.1-3.2,18.8-6.8l0.4-0.2 M298,172.6
				l4.6,4.9 M302.6,177.5l0.6-0.4c3.6-2.6,7-5.6,9.8-9.1l0.3-0.4 M313.4,167.8l-4.6-4.9 M308.7,162.8l0.4-0.5c4.1-5.3,7-11.5,8.5-18
				l0.1-0.6 M317.7,143.8l6.8,0.3 M324.5,144.1l0.2-0.7c0.7-4.4,0.9-8.9,0.6-13.4l-0.1-0.5 M325.2,129.5l-6.8-0.2 M318.4,129.3v-0.5
				c-0.9-6.7-3.2-13.1-6.8-18.8l-0.2-0.4 M311.3,109.6l5-4.6 M316.3,105l-0.3-0.6c-2.6-3.7-5.6-7-9.1-9.9l-0.4-0.4 M306.5,94.3
				l-4.9,4.5 M301.5,98.8l-0.4-0.4c-5.3-4.1-11.5-7-18-8.5l-0.5-0.1 M282.5,89.9l0.3-6.8 M282.8,83.1l-0.6-0.2
				c-4.4-0.7-8.9-0.9-13.4-0.6l-0.4,0.1 M268.3,82.5l-0.3,6.8 M268,89.2h-0.5c-6.7,0.9-13.1,3.2-18.8,6.8l-0.4,0.2 M248.3,96.3
				l-4.6-5 M243.7,91.3l-0.5,0.3c-3.7,2.6-7,5.6-9.8,9.1l-0.3,0.4 M233,101.1l4.6,5 M237.6,106.1l-0.3,0.4c-4.1,5.3-7,11.5-8.5,18
				l-0.1,0.5 M221.2,139.3l6.8,0.2 M228,139.5l0.1,0.5c0.9,6.8,3.3,13.4,7,19.2v0.1 M235,159.3l-5,4.5 M230,163.8l0.4,0.5
				c2.6,3.7,5.6,7,9.1,9.9l0.4,0.3 M228.6,125l-6.8-0.2 M228.6,125l-1.5-1.9 M220.4,122.8l6.8,0.3 M219.5,141.1L219.5,141.1
				 M219.5,141.1l1.7-1.8 M221.8,124.8l-0.1,0.6c-0.7,4.4-0.9,8.9-0.6,13.4l0.1,0.4 M221.8,124.8l-1.5-2 M219.5,141.1v-0.7
				c-0.7-5.7-0.4-11.5,0.8-17.1l0.1-0.4h-0.1 M13.2,81.7h-0.5 M12.7,92.8h0.5 M13.6,152.4h-0.9 M12.7,163.5h0.5 M37.5,256.8
				l-0.4,0.8 M46.5,267.4l-1.2-1.2c-2.3-2.3-4.9-4.9-7-7.4l-1.2-1.3 M18.8,233.2l0.9-0.2 M18.8,233.2l-0.9-1.4l-4.7-8.3l-0.8-1.4
				 M12.9,206.3L12.9,206.3 M328.8,267.5l1.7-0.8c39.1-16.9,68.7-50.1,80.9-90.9l0.5-1.6 M411.8,94.6l-0.5-1.8
				c-12.3-40.7-41.9-74-81-90.8l-1.5-0.6 M12.9,62.6L12.9,62.6 M19.7,35.9l-0.9-0.1 M12.5,46.5l0.8-1.4c1.3-2.6,3.1-5.6,4.7-8.1
				l0.8-1.3 M37.1,11.2l0.4,0.8 M37.1,11.2l1.6-1.8L41.9,6l1.6-1.6l1.6-1.7l1.4-1.3 M46.7,2.4l-0.1-0.2l-0.3-0.6l1.1-0.7l1.2-0.4H49
				 M12.1,48.3l0.2-1.3l0.2-0.5 M12.5,46.5l0.3,0.1l0.6,0.1 M13.2,182.8h-0.5 M411.8,174.3l0.5-1.8c1.5-5.1,2.6-10.3,3.3-15.6
				l0.3-1.7 M415.9,155.3l-1.6-0.8 M414.3,154.6l0.3-1.8c1.6-12.8,1.6-25.7-0.2-38.4l-0.1-0.1 M414.3,114.3l1.6-0.8 M415.9,113.5
				l-0.2-1.8c-0.9-5.2-2-10.4-3.3-15.6l-0.5-1.7 M326.8,268.3H49 M326.8,268.3l2-0.8 M58.9,267.5h269.9 M37.4,256.9l1.1,1.2
				c2.2,2.4,4.6,5,7,7.2l1.2,1.2 M13.3,222.1l0.8,1.4c1.4,2.8,3.1,5.5,4.6,8.2l0.9,1.4 M19.6,233.1l1.8-0.3 M21.4,232.8l1.2,1.8
				c4.6,7.1,9.7,13.8,15.3,20.2l0.4,0.5 M38.2,255.2l-0.8,1.7 M12.9,48.5l-0.8-0.2 M12.1,220.7V48.3 M13.2,205.8l-0.5,0.5h0.2v5.7
				 M13.2,183.3l-0.5-0.5 M12.7,163.5v19.3 M12.7,163.5h-0.4 M12.3,152.4v11.1 M12.3,152.4h0.4 M12.7,92.8v59.6 M12.7,92.8h-0.4
				 M12.3,81.7v11.1 M12.3,81.7h0.4 M12.9,56.8v5.7h-0.2v19.1 M46.7,2.4l-9.2,9.7 M37.5,12l0.8,1.7 M38.3,13.7l-1.4,1.7
				c-5.4,6.2-10.3,12.8-14.8,19.8l-0.6,1 M21.5,36.2l-1.8-0.3 M19.7,35.9l-6.3,10.8 M49,0.5h277.9 M49,0.5l0.3,0.8 M326.8,0.5l2,0.8
				H58.9 M15.4,221.6l-0.3,0.1l-1.1,0.2l-0.7,0.2 M13.3,222.1l-0.1-0.2L13,222l-0.6,0.1l-0.3-1.2v-0.3l2.8-0.8 M13.4,46.7L13,47.6
				l-0.1,0.9 M14.9,49l-2-0.5 M13.4,46.7l0.2,0.1l1.1,0.2l0.7,0.2 M50.1,265.6l-1.1,2.8l-1.4-0.3l-1.1-0.6l0.2-0.2l0.2-0.6l-0.2-0.2
				l0.1-0.2l0.4-1.1l0.3-0.7 M47.5,4.3l-0.1-0.2L47,3l-0.3-0.7l0.5-0.4l0.7-0.4l0.7-0.2l0.7-0.1l0.8,2.1 M58.4,267l0.5,0.6
				 M56.9,265.6l0.4,0.3 M58.9,267.5v-0.4 M58.4,1.9l0.5-0.6 M56.9,3.4L57.3,3 M58.9,1.8V1.3 M13.6,212.4l-0.7-0.4 M14.9,213
				l-0.8-0.4 M13.3,212h-0.4 M13.6,56.5l-0.7,0.4h0.4 M14.9,55.9l-0.8,0.4 M47.5,264.5l0.3,0.2c0.5,0.5,1.2,0.8,1.9,0.8l0.4,0.1
				 M56.8,264.2v0.6l0.1,0.4v0.4 M50.1,261.8v3.7 M56.9,265.6H50 M44.8,256.5l3.9-3 M50.1,261.8H55 M15.4,221.6l-0.4-0.8v-0.5
				l-0.1-0.2v-0.3 M22.5,226.8l3.8-2.9 M14.9,219.9V213 M14.9,219.9h3.7 M18.6,213.8v6.1 M14.9,213L14.9,213l3.2,0.1 M26.3,223.9
				L26.3,223.9 M55,261.8l-6.2-8.3v0.1 M55,261.8l0.5,0.6l0.5,0.7l0.5,0.6l0.4,0.5 M56.9,264.2L56.9,264.2 M18.1,213.1L18.1,213.1
				 M18.1,213.1l0.2,0.2l0.1,0.3l0.2,0.2 M26.3,223.9l-7.7-10.1 M408.8,157.7H406 M408.8,111.1H406 M18.1,55.8h-3l-0.2,0.1h-0.1V49
				 M15.4,47.2l-0.1,0.2c-0.5,1-0.1,0.7-0.4,1.4V49 M15.4,47.2L15.4,47.2c0.6,0.4,2.1,1,2.7,1.5l0.6,0.3H15 M15.4,47.2l1.1-2
				c8-14.4,18-27.7,29.7-39.4l1.5-1.5 M50.1,7l-1.5,1.5C37.3,20,27.5,33,19.6,47.1l-1,1.8 M18.6,49v6.1 M26,45.3l-2.3-1.8
				 M48.5,15.7l-2.3-1.8L23.7,43.5 M56.9,4.6L56.9,4.6 M48.5,15.7L55,7 M48.5,15.7L48.5,15.7 M18.6,55.1l7.4-9.8l0.1,0.1 M18.6,55.1
				l-0.2,0.3l-0.1,0.2l-0.2,0.2 M18.2,55.9L18.2,55.9 M47.5,4.3L47.5,4.3l0.2,0.3L48,4.8l0.3,0.4L50.1,7 M47.5,4.3l0.3-0.2
				c0.5-0.5,1.2-0.8,2-0.8h0.3 M50.1,3.4H57 M50.1,3.4V7 M56.9,3.4v0.3l-0.1,0.4v0.6l-0.4,0.5l-0.5,0.6l-0.5,0.7l-0.5,0.6H50
				 M406,111.1L406,111.1 M406,157.7L406,157.7 M406,98.7v12.4 M406,157.7v12.5 M25.9,232.4L41,252.3 M47.5,264.5L46,263
				c-11.9-11.9-22.1-25.5-30-40.4l-0.6-1 M47.5,264.5L47.5,264.5l0.2-0.2c0.7-0.7,1.2-1.3,1.9-2l0.5-0.5 M15.4,221.6l0.2-0.1
				c0.9-0.4,1.6-1,2.5-1.3l0.6-0.4l0.5,0.9c0.8,1.8,2,3.5,2.9,5.2l0.5,0.8l-0.5,0.4l3.9,5.2l1.2,1.7c4.2,6.3,8.8,12.3,13.8,18
				l0.1,0.2l3.4,4.5l0.4-0.3l0.7,0.7c1.1,1.3,2.6,2.7,3.8,3.9l0.7,0.7 M410.3,146.5v-24.1 M411.5,173.8l0.3,0.5 M410.5,171.9l0.6,1
				 M406,171.7L406,171.7 M411.6,174.3h0.2 M410.5,171.9l-0.3-0.1l-0.8-0.1h-3.3 M410.5,97l0.5,1.7c6.2,23.8,6.1,48.8-0.3,72.5
				l-0.2,0.6 M408.8,157.7h1.4l0.1-9.4v-1.9l0.2-1.8c0.5-7.3,0.5-14.6-0.1-21.9l-0.1-0.5l-0.1-9.3v-2h-1.4l-0.3-1.6
				c-0.6-3.1-1.2-6.3-2-9.4l-0.5-1.5v-1.5 M406,170.2l0.5-1.7c0.8-3.3,1.6-6.6,2.2-9.9l0.1-1 M406,171.7v-1.5 M406,97.2L406,97.2
				 M406,97.2l1.7-0.1h1.4L410,97h0.5 M411.5,95.1l0.3-0.5 M410.5,97l0.5-1 M411.8,94.6h-0.2 M414.4,114.9h1.2 M415.6,141.8V154
				h-1.2 M415.6,114.9v12.2 M21.6,36L21.6,36 M21.5,36l0.8-1.1 M328.8,267.5H60.6l-3.3-0.9v-0.1 M328.8,267.5l-0.2-1 M411.5,172.6
				l0.1,2.5l-0.5,1.7c-12.5,40.7-42.3,73.8-81.5,90.4l-0.8,0.3 M13.7,56.3h0.2 M13.9,212.6h-0.2 M13.7,212.6l-0.8-1.2v-5.1
				 M12.9,62.6v-5.1l0.8-1.2 M12.9,62.6h0.3 M13.2,97.4V62.5 M13.2,97.4h0.4 M13.6,97.4v62.2 M13.6,159.6h-0.4 M13.2,206.3v-46.7
				 M13.2,206.3h-0.3 M411.6,93.8l-0.1,2.5 M328.8,1.3l1.7,0.7c39.1,16.9,68.8,50.2,81,91l0.2,0.7 M57.3,2.3V2.2 M57.3,2.2l3.3-0.9
				h268.2l-0.2,1 M328.6,266.6H57.3v-1.8 M17.5,212.6l0.2,0.3 M57.2,265.1L57.2,265.1 M57.3,264.8l-0.7-0.9l-0.8-1l-0.7-1
				 M406.2,172.6v-0.4"/>
		</g>
	</g>
</g>
<g>
	<g>
		<defs>
			<polygon id="SVGID_3_" points="0,1 0,269.9 417.8,268.9 417.8,0 			"/>
		</defs>
		<clipPath id="SVGID_4_">
			<use xlink:href="#SVGID_3_"  style="overflow:visible;"/>
		</clipPath>
		<g class="st2">
			<path class="st1" d="M264.5,136.7L240,155.6 M241.7,110l23,20.9 M264.8,130.9v0.2l-0.1,0.1v0.2l-0.1,0.1v0.2l-0.1,0.1v0.4
				l-0.1,0.1v0.1c0,0.5-0.2,0.3-0.1,1.1v2l0.1,0.1v0.5l0.1,0.1v0.2l0.1,0.1v0.2 M270.9,125.2l-19-24.5 M297.6,102.5l-20.9,23
				 M276.7,125.4L276.7,125.4l-0.2-0.1l-0.1-0.1h-0.2l-0.1-0.1h-0.2l-0.2-0.1h-0.3l-0.1-0.1h-0.5l-0.1-0.1h-2.5l-0.2,0.1h-0.4
				l-0.1,0.1h-0.3l-0.1,0.1h-0.2 M295.3,168.1l-0.4,0.2c-14.1,8.9-32.3,8.1-45.6-1.9l-0.2-0.2 M249.4,165.9l0.4,0.2
				c12.9,9.8,31.5,10.5,45,1.6l0.2-0.1 M307.3,112.3l0.3,0.4c8.9,14.1,8.1,32.3-1.9,45.6l-0.1,0.2 M305.2,158.2l0.3-0.4
				c9.8-12.9,10.5-31.5,1.6-45l-0.1-0.2 M239.6,155.9l-0.2-0.5c-8.8-14.1-8.1-32.2,1.9-45.5l0.2-0.3 M241.7,110l-0.2,0.3
				c-9.8,13.2-10.5,31.2-1.7,45.1l0.1,0.2 M251.7,100.3l0.5-0.3c14.1-8.8,32.2-8.1,45.5,1.9l0.2,0.2 M297.6,102.5l-0.3-0.3
				c-13.2-9.8-31.2-10.5-45.1-1.7l-0.3,0.1 M316.8,167.8l-0.4,0.5 M313.1,164.7l0.4-0.5 M306.6,90.8l0.5,0.4 M303.4,94.6l-0.5-0.5
				 M239.8,178l-0.5-0.4 M242.8,174.4l0.6,0.4 M229.5,101.1l0.4-0.5 M233.3,104.1l-0.4,0.5 M327.6,127.8v-0.6 M327.5,127.8l-0.1-0.8
				 M279.8,188.9l0.7-0.1 M279.8,188.8l0.8-0.2 M266.6,79.9l-0.7,0.1 M266.6,80l-0.9,0.2 M218.7,141.1v0.6 M218.8,141.1l0.1,0.8
				 M318.9,117.3L318,117 M290.3,180.2l0.2-0.9 M256,88.7l-0.2,0.9 M227.4,151.5l0.9,0.3 M311.8,163.3l0.4-0.5
				c3.6-5,6.2-10.6,7.8-16.5l0.1-0.6 M302,95.9l-0.4-0.4c-5-3.6-10.6-6.2-16.5-7.8l-0.6-0.1 M244.3,173l0.5,0.3
				c5.1,3.7,10.9,6.4,17,7.9h0.1 M234.5,105.5l-0.3,0.4c-3.6,5-6.3,10.6-7.8,16.5l-0.2,0.5 M326.8,127.8h0.7 M326.7,146h-0.6
				 M326.8,146l0.2-0.7c1.2-5.7,1.4-11.6,0.7-17.4v-0.2 M327.5,127.8L327.5,127.8 M317,116.4L317,116.4 M317.4,117.3l0.3-0.2
				l0.3-0.1 M314.2,109.3l0.4,0.5c1.3,2.2,2.4,4.5,3.3,6.9l0.1,0.2 M302.7,180.5l-0.4-0.5 M315.8,167.7l0.6,0.6 M302.9,180.6
				l0.6-0.4c4.9-3.2,9.2-7.2,12.8-11.8l0.1-0.2 M306.5,91.7l0.6-0.5 M319.2,104.8l-0.4,0.4 M319.4,104.7l-0.3-0.6
				c-3.3-4.9-7.2-9.2-11.8-12.9l-0.1-0.1 M291.1,178.3L291.1,178.3 M290.3,178.6l0.1,0.4l0.1,0.3 M298.2,175.5l-0.9,0.5
				c-1.9,1.1-3.8,2.1-5.8,2.9l-1,0.4 M279.8,188.1v0.7 M261.5,187.9v-0.6 M261.5,188.1l0.7,0.1c5.7,1.2,11.6,1.4,17.4,0.7h0.1
				 M279.8,188.8L279.8,188.8 M266.6,80.7V80 M284.8,81v0.6 M284.8,80.8l-0.6-0.2c-5.7-1.2-11.6-1.4-17.4-0.7h-0.1 M266.6,80
				L266.6,80 M255.1,90.5L255.1,90.5 M256,90.2l-0.1-0.4l-0.1-0.3 M248.1,93.4l0.6-0.4c2.2-1.3,4.5-2.4,6.9-3.3l0.3-0.1
				 M229.2,152.4L229.2,152.4 M228.9,151.5l-0.4,0.2l-0.3,0.1 M232.1,159.5l-0.3-0.6c-1.3-2.2-2.4-4.5-3.3-6.9l-0.1-0.3 M227.2,164
				l0.4-0.4 M239.9,177.1l-0.6,0.5 M227,164.1l0.4,0.5c3.3,4.9,7.2,9.2,11.8,12.9l0.1,0.1 M230.5,101.2l-0.6-0.6 M243.5,88.5
				l0.5,0.4 M243.4,88.3l-0.5,0.3c-4.9,3.3-9.2,7.2-12.9,11.8l-0.1,0.1 M219.5,141.1h-0.7 M219.7,122.8h0.6 M219.5,122.8l-0.1,0.6
				c-1.2,5.7-1.4,11.6-0.7,17.4v0.2 M218.8,141.1L218.8,141.1 M318.2,119.5l0.4-0.1l0.2-0.1l0.2,0.5c0.8,2.4,1.4,4.9,1.8,7.5v0.3
				 M318.8,119.3l0.6-0.8 M319.3,117.8l0.2-0.1 M288.3,180.1l0.8,0.5 M289.7,180.5l0.1,0.3 M288,179.4l0.2,0.4l0.1,0.3 M288.3,180.1
				l-1,0.3c-2.1,0.7-4.2,1.1-6.3,1.5l-1,0.2 M258.2,89.4l-0.1-0.4l-0.1-0.3l1-0.3c2-0.6,4.1-1.1,6.2-1.5l1.1-0.2 M258,88.8l-0.8-0.5
				 M256.6,88.4l-0.1-0.3 M228.1,149.3l-0.4,0.1l-0.3,0.1l-0.3-1c-0.6-2-1.1-4.1-1.5-6.2l-0.1-1.1 M227.5,149.5l-0.5,0.9 M227.1,151
				l-0.2,0.1 M228.1,149.3L228.1,149.3 M228.9,151.5l0.3,0.9 M228.4,150.2L228.4,150.2l-0.1-0.2v-0.2l-0.1-0.1v-0.2l-0.1-0.1v-0.1
				 M228.1,149.3l-0.6,1L227,151 M227.1,151l0.6,0.2l0.5,0.1l0.8,0.2 M318.2,119.5L318.2,119.5 M317.4,117.3l-0.4-0.9 M317.9,118.6
				L317.9,118.6l0.1,0.2v0.2l0.1,0.2v0.1l0.1,0.1v0.1 M318.2,119.5l0.6-1l0.5-0.7 M319.3,117.8l-0.6-0.1l-0.5-0.2l-0.8-0.2
				 M288,179.4L288,179.4 M290.3,178.6l0.8-0.3 M289,179.1L289,179.1l-0.3,0.1l-0.1,0.1h-0.2l-0.1,0.1h-0.1l-0.1,0.1 M288.1,179.5
				l0.5,0.3l0.4,0.3l0.7,0.4 M289.7,180.5l0.2-0.5l0.2-0.6l0.2-0.8 M258.2,89.4L258.2,89.4 M256,90.2l-0.9,0.3 M257.3,89.7
				L257.3,89.7l0.4-0.1l0.1-0.1h0.1l0.1-0.1h0.2 M258.2,89.4l-0.5-0.4l-0.5-0.2l-0.6-0.4 M256.6,88.4l-0.2,0.5l-0.2,0.6l-0.2,0.8
				 M317,116.4l0.1,0.3c0.2,0.5,0.5,0.9,0.7,1.6l0.1,0.3 M291.1,178.3l-0.2,0.1c-0.6,0.2-1.1,0.4-1.7,0.6l-0.2,0.1 M255.2,90.5
				l0.2-0.1c0.5-0.2,1.1-0.4,1.6-0.6l0.3-0.1 M229.3,152.4l-0.1-0.3l-0.2-0.2l-0.1-0.3l-0.2-0.6l-0.1-0.2l-0.2-0.6 M326.8,127.8
				L326.8,127.8 M326,146L326,146 M326.8,127.8l0.1,0.6c0.7,5.7,0.4,11.5-0.8,17.1l-0.1,0.4 M324.5,144.1l1.5,1.9 M326,146l-6.8-0.2
				 M320.1,127.6l6.8,0.2 M326.8,127.8l-1.7,1.8 M311.2,162.6l4.6,5 M317.7,143.8l1.5,2 M319.2,145.8l-0.1,0.5
				c-1.5,5.8-4.1,11.3-7.7,16.2l-0.2,0.2l-2.5,0.2 M317.9,118.6l0.3,0.9 M317.9,118.6l-0.9-2.2 M317,116.4L317,116.4 M313.7,109.8
				l0.4,0.5c1.1,1.8,2,3.8,2.9,5.7l0.1,0.3 M318.2,119.5l0.3,1c0.6,2,1.1,4,1.5,6l0.1,1.1l-1.7,1.8 M311.3,109.6l2.4,0.3
				 M318.7,105.3l-5,4.6 M315.8,167.7L315.8,167.7 M315.8,167.7l-2.5,0.1 M302.3,180L302.3,180 M315.8,167.7l-0.4,0.5
				c-3.6,4.5-7.9,8.4-12.7,11.5l-0.4,0.2 M306.5,91.7L306.5,91.7 M316.3,105l2.4,0.3 M318.7,105.3L318.7,105.3 M306.5,91.7l0.6,0.4
				c4.5,3.6,8.4,7.9,11.5,12.7l0.3,0.3 M302.6,177.5l-0.3,2.5 M302.3,180l-4.6-5 M301.4,96.4l4.9-4.6 M306.4,91.8l0.1,2.5
				 M280.1,181.3l-0.3,6.8 M289,179.1l-1,0.3 M289,179.1l2.1-0.8 M291.1,178.3L291.1,178.3 M298,172.6l-0.3,2.4l-0.5,0.3
				c-2,1.1-3.6,1.9-5.7,2.9l-0.4,0.1 M288,179.4l-0.5,0.1c-2.4,0.8-4.9,1.4-7.4,1.8H280l-1.8-1.6 M301.4,96.4l0.1,2.4 M284.5,88.4
				l0.6,0.1c5.9,1.5,11.4,4.1,16.3,7.7l0.2,0.1 M282.5,89.9l2-1.5 M284.7,81.6l-0.2,6.9 M279.8,188.1h-0.6
				c-5.7,0.7-11.5,0.4-17.1-0.8l-0.5-0.1v0.1 M279.8,188.1L279.8,188.1 M279.8,188.1l-1.8-1.7 M263.5,185.7l-2,1.6 M261.5,187.3
				l0.3-6.9 M266.3,87.6l0.2-6.8 M266.6,80.7L266.6,80.7 M266.5,80.8l1.9,1.7 M282.8,83.1l1.9-1.6 M284.7,81.6L284.7,81.6
				 M266.6,80.7l0.7-0.1c5.8-0.7,11.6-0.4,17.2,0.8l0.4,0.1 M263.7,178.9l-1.9,1.5 M261.8,180.5l-0.5-0.2
				c-5.8-1.5-11.3-4.1-16.2-7.7l-0.2-0.2 M257.3,89.7l0.9-0.3 M257.3,89.7l-2.1,0.8 M248.6,93.9l0.6-0.4c2-1.1,3.6-1.9,5.7-2.9
				l0.3-0.1h-0.1 M266.3,87.6l1.8,1.7 M258.2,89.4l0.6-0.2c2.4-0.8,4.9-1.4,7.4-1.8h0.2 M244.9,172.4l-5,4.6 M244.9,172.4l-0.1-2.4
				 M248.3,96.3l0.3-2.5 M244,88.9l4.6,5 M239.9,177.1L239.9,177.1 M239.9,177v-2.5 M227.7,163.6L227.7,163.6 M239.9,177.1l-0.5-0.5
				c-4.5-3.6-8.4-7.9-11.5-12.7l-0.2-0.4 M230,163.8l-2.4-0.2 M227.7,163.6l5-4.7 M235.1,106.2l-4.6-5 M230.5,101.2L230.5,101.2
				 M230.5,101.2l2.5-0.1 M243.7,91.3l0.3-2.5 M244,88.9L244,88.9 M230.5,101.2l0.5-0.6c3.6-4.5,7.9-8.4,12.7-11.5l0.4-0.2
				 M228.4,150.2l-0.3-0.9 M228.4,150.2l0.9,2.2 M229.3,152.4L229.3,152.4 M232.6,159l-0.3-0.6c-1.1-2-1.9-3.6-2.9-5.7l-0.1-0.4
				 M235,159.3l-2.4-0.4 M228.1,149.3l-0.3-1c-0.6-2-1.1-4-1.5-6l-0.1-1 M235.1,106.2l2.5-0.1 M227.1,123.1l0.2-0.6
				c1.5-5.9,4.1-11.4,7.7-16.3l0.2-0.3 M226.3,141.4l-6.8-0.3 M226.3,141.4l1.7-1.9 M233.9,133v1.4c0,21,16.5,38.3,37.4,39.3h0.5
				l0.4,0.1c21.2,0.5,39-15.8,40.3-36.9v-1l0.1-0.4V135c0.3-21-16-38.5-36.9-39.8h-1l-0.4-0.1c-9.8-0.2-19.3,3.2-26.7,9.6l-0.4,0.3
				l-0.3,0.3c-7.4,6.7-12,15.9-12.8,25.8l-0.1,0.5L233.9,133 M239.9,174.6l4.9-4.5"/>
		</g>
	</g>
</g>
<g>
	<g>
		<defs>
			<polygon id="SVGID_5_" points="11.6,1 11.6,269.9 417.8,268.9 417.8,0 			"/>
		</defs>
		<clipPath id="SVGID_6_">
			<use xlink:href="#SVGID_5_"  style="overflow:visible;"/>
		</clipPath>
		<g class="st3">
			<path class="st1" d="M243.6,174.6l-0.5-0.4 M232.9,104.7l0.4-0.6 M243.7,174.5l-0.6-0.4 M234,104.9l-0.4,0.5 M303.1,94.9
				l-0.6-0.4 M312.5,164.1l0.4-0.6 M243.9,173.4l0.5,0.4 M276,143l19,24.6 M249.4,165.9l20.8-23 M270.2,142.8h0.3l0.1,0.1h0.2
				l0.1,0.1h0.2l0.1,0.1h0.4l0.1,0.1h0.1c0.5,0,0.3,0.2,1.1,0.1h2l0.1-0.1h0.5l0.1-0.1h0.2l0.1-0.1h0.3 M282.4,131.6l24.5-19
				 M305.2,158.2l-23-20.8 M282.2,137.4l0.1-0.2v-0.1l0.1-0.1v-0.2l0.1-0.1v-0.2l0.1-0.2V136l0.1-0.1v-0.5l0.1-0.1v-2.5l-0.1-0.2
				v-0.4l-0.1-0.1v-0.3l-0.1-0.1v-0.2"/>
		</g>
	</g>
</g>
</svg>
