<?xml version="1.0" encoding="utf-8"?>
<!-- Generator: Adobe Illustrator 24.1.2, SVG Export Plug-In . SVG Version: 6.00 Build 0)  -->
<svg version="1.1" id="Layer_1" xmlns="http://www.w3.org/2000/svg" xmlns:xlink="http://www.w3.org/1999/xlink" x="0px" y="0px"
	 viewBox="0 0 339.3 268.9" style="enable-background:new 0 0 339.3 268.9;" xml:space="preserve">
<style type="text/css">
	.st0{clip-path:url(#SVGID_2_);}
	.st1{fill:none;stroke:#231F20;stroke-width:1.089;stroke-linecap:round;stroke-linejoin:round;}
	.st2{clip-path:url(#SVGID_4_);}
	.st3{clip-path:url(#SVGID_6_);}
</style>
<g>
	<g>
		<defs>
			<rect id="SVGID_1_" x="17.9" width="321.4" height="268.9"/>
		</defs>
		<clipPath id="SVGID_2_">
			<use xlink:href="#SVGID_1_"  style="overflow:visible;"/>
		</clipPath>
		<g class="st0">
			<path class="st1" d="M30.9,217.5l-1.7-3.4v-33.5 M29.3,64.6v-9.8 M29.3,54.8l1.7-3.4 M251.1,268.4H76.7l-3.4-0.9 M251.1,268.4
				l-0.2-1 M334.3,172.4l0.2,2.5l-0.5,1.7c-12.4,41-42.3,74.4-81.6,91.3l-1.3,0.5 M251.1,0.6l1.7,0.7c39.3,17,69.1,50.4,81.3,91.5
				l0.4,1.3l-0.2,2.6 M73.3,1.5l3.4-0.9h174.4l-0.2,0.9 M73.3,267.5V263 M73.3,267.5L73.3,267.5 M73.3,5.8V1.4 M73.4,1.5L73.4,1.5
				 M327.8,172.4h6.5 M334.2,172.5l0.1-0.1 M334.3,96.6h-6.5 M334.3,96.6L334.3,96.6 M38.9,217.5H31 M31,217.5L31,217.5 M30.9,51.4
				h8 M30.9,51.4l0.1,0.1 M73.5,262.7v1.2c0,1.2,0,2.3-0.1,3.5v0.1 M250.9,267.4H73.4 M73.3,263.1l-0.9-1.2 M73.3,263.1l0.2-0.4
				 M70.2,258.1l1.2,1.6l1.2,1.5l1,1.5 M39.7,218.5l-0.8-1l0.4-0.2 M71,183.6h-4.3 M88.2,183.6H70.9 M66.7,183.7v-0.1 M36.2,183.5h5
				l0.1,0.1h25.5 M36,183.7h4.3 M31,217.5l-0.1-0.1H31c2.3-0.1,4.4-0.1,6.7-0.1h1.5 M39.3,217.3l0.4,0.4l0.3,0.5l0.3,0.4
				 M88.2,183.6v-11.5 M88.2,183.6l0.2,0.2 M88.2,172.1H70.9 M88.2,172.1l0.2-0.2 M71.1,73.1h-0.2 M88.2,73.1h-0.6 M41.1,61.7
				L41.1,61.7 M41.2,61.6h29.7 M88.2,61.6H70.9 M41.1,61.7h-5 M88.2,73.1V61.6l0.2-0.2 M88.2,73.1l0.2,0.2 M36,82.5v8.8 M36,106.3
				v8.8 M36,130.1v8.8 M36,153.9v8.8 M36,178.5v5.2 M36.2,61.7v121.8l-0.2,0.2 M36.2,61.7L36,61.5 M40.3,61.4h-2.9L36,61.5v5.2
				 M39.4,51.6h-1.5c-2.3,0-4.6,0.1-6.8-0.1l0,0 M195.1,62.9L199,63l3.9,0.3l3.8,0.5c32.9,5.3,57.7,32.7,59.9,65.9l0.2,3.9l-0.1,3.8
				c-1.3,34.7-27.5,63.5-61.9,68.2l-3.9,0.4l-3.9,0.2h-3.8l-3.9-0.2c-34.7-2.8-62.3-30.1-65.6-64.7l-0.2-3.9l-0.1-3.8
				c0.5-34.8,25.8-64.2,60.1-69.8l3.9-0.5l3.8-0.3L195.1,62.9 M66.7,183.8L66.7,183.8 M40.3,183.7h26.5 M40.3,183.7v34.9
				 M40.3,218.6l29.9,39.5 M70.2,258.1H249 M40.3,50.4v11 M88.4,73.3V61.4H40.2 M88.4,73.3L88.4,73.3 M88.4,183.8v-11.9h-3
				 M88.4,183.8H66.7 M39,51.4l0.7-0.9 M39,51.4l0.4,0.2 M70.2,10.9L40.3,50.4l-0.9,1.2 M72.5,7.1l0.9-1.3l0.2,0.5 M73.4,1.5v0.2
				c0.1,1.2,0.1,2.3,0.1,3.5v1.2 M73.5,6.3l-1,1.4l-2.4,3.2 M249,10.9H70.2 M73.4,1.5h177.5 M327.3,107.9l-0.3-1.7
				c-9-42.3-37.8-77.7-77.4-95.1l-0.5-0.3 M327.3,96.3l1.6,0.1c1.4,0.1,3.8-0.1,5.1,0.1h0.3 M249,10.9L249,10.9
				c0.6-3.2,1.3-6.2,1.9-9.2V1.5l1.7,0.7c39.6,17.2,69.4,51.2,81.3,92.6l0.5,1.6 M334.2,172.5H334c-1.4,0.1-2.8,0.1-4.3,0.1h-2.5
				 M249,258.1l1.6-0.7c39.5-17.8,68-53.5,76.7-95.9l0.1-0.4 M249,258.1v0.1c0.6,3.1,1.3,6,1.9,9.1v0.1 M334.2,172.5l-0.4,1.7
				c-11.9,41.5-41.8,75.5-81.4,92.6l-1.4,0.6 M327.8,96.6v0.7 M327.8,96.6l-0.5-0.3 M327.8,171.7v0.7l-0.5,0.2V96.3 M112.8,167.9
				l-1.3,1.2l-1.6-1.2l-1.8-1l-1.5-0.4l-1.5-0.2l-2.1,0.3l-2,0.8l-1.7,1.4l-1,1.4l-0.6,1.5l-0.2,1.7l0.4,2.2l1.1,2l1.6,1.6l1.5,0.8
				l1.7,0.5l1.8,0.2l1.7-0.2l1.7-0.5l1.4-1l0.9-1l0.7-1.2l0.3-1.3h-5.5v-1.8h7.1l-0.2,1.9c-0.7,3.8-2.6,5.6-6.2,6.6l-2,0.1l-2.3-0.2
				l-2.2-0.7l-1.5-1l-1.3-1.3l-1-1.4l-0.7-1.6l-0.3-1.3l-0.1-1.4l0.2-2c0.7-3.4,3.4-6,6.8-6.6l2-0.2l2.4,0.2l2.3,0.8l1.6,1.1
				L112.8,167.9 M96.6,138.9h2l4.9,7.7l5-7.7 M110.3,138.9l-5.8,9.2 M104.5,148.1l6.1,9.5h-2l-5.2-8l-5.2,8h-1.9l6-9.5l-5.8-9.2
				 M108.4,138.9h1.9 M105,115.1l8.7,18.7h-1.9l-2.8-5.9h-8.4l-2.9,5.9h-1.9l8.9-18.7H105 M101.5,125.9h6.6l-3.3-7.1L101.5,125.9
				 M111.4,91.4h1.8 M127.4,91.4l-7.9,18.7 M119.5,110.1h-0.2l-7.9-18.7 M113.2,91.4l6.2,14.8l6.2-14.8h1.8 M98.9,100.8l1.9-9.4
				 M100.8,91.4h7.7 M108.5,91.4v2h-6.3l-1.1,4.9l1.3-0.3h1l1.7,0.2l1.7,0.8l1.3,1.2l0.9,1.9l0.3,2l-0.2,2l-0.8,1.8l-1.3,1.5
				l-1.3,0.8l-1.4,0.5l-1.6,0.1l-1.6-0.2l-1.4-0.6l-1.3-1.1l-1-1.6l-0.4-1.8h1.7l0.3,1l0.6,0.9l0.8,0.8l1.2,0.5l1.2,0.2l1.4-0.2
				l1.3-0.6l1-1l0.9-1.4l0.2-1.6l-0.2-1.3l-0.5-1.2l-0.9-0.9l-1.4-0.6l-1.5-0.2l-2.4,0.4l-1.8,0.6 M100.6,75.5h2.3
				c1.7,0.1,3.2-0.8,3.9-2.4l0.1-0.9l-0.1-0.6l-0.2-0.7l-0.4-0.5l-0.6-0.4l-1.3-0.4l-1.4-0.1h-2.3V75.5 M98.9,67.6h3.7l1.6,0.1
				l1.6,0.4l1.4,0.8l0.8,1l0.4,1.2l0.2,1.2l-0.2,1.3l-0.5,1.3l-0.6,0.8l-0.9,0.6l1.7,0.8l1.2,1.3l0.6,1.3l0.2,1.5l-0.3,1.6l-0.8,1.5
				l-1.2,1.2l-1.8,0.8l-2,0.2h-5.1L98.9,67.6 M100.6,84.4h2.4l1.2-0.1c1.9,0,3.3-0.6,4-2.5l0.2-0.8l-0.3-1.4l-0.9-1.1l-0.9-0.6
				l-1-0.3l-2-0.2h-2.7V84.4 M95.3,77.2v90.3 M86.2,167l0.5,0.1c2.3,0.3,4.7,0.5,7,0.4h1.6l-0.1,0.1l-3.3,2.2l-1.7,0.9l-1.9,0.8
				l-1.5,0.3l-1.5,0.2 M85.4,171.9H85 M85,72.7l1.7,0.1l1.7,0.5 M88.4,73.3l1.8,0.7l1.7,0.9l3.4,2.2l0.1,0.1h-1.6
				c-2.4-0.1-4.7,0.1-7,0.4l-0.5,0.1 M30.9,178.9l-1.7,1.7h-6.1 M30.9,178.8L30.9,178.8L30.9,178.8c1.4-0.2,2.6-0.3,3.9-0.3H36
				 M36,178.4v0.1 M23.1,64.6h6.1 M36,66.8v-0.1 M30.9,66.4L30.9,66.4c1.3,0.2,2.6,0.3,3.9,0.3H36 M30.9,66.3l-1.7-1.7 M71.1,171.9
				h14 M85,171.9h-1.1l-0.9-0.1l-0.8-0.1l-0.5-0.1 M81.8,73l0.5-0.1l0.8-0.1l0.9-0.1h1.1 M71.1,72.7h14 M18.5,69.3v106.6
				 M27.3,177.9l-4.2,2.8l-0.9-0.1c-1.8-0.4-3.3-1.8-3.7-3.7l-0.1-1l4.2-2.8 M22.6,72l-4.2-2.8l0.1-0.9c0.4-1.8,1.8-3.3,3.7-3.7
				l0.9-0.1l4.2,2.8 M86.2,167V77.7 M81.8,171.6l-3.6-0.7 M81.8,171.6l0.8-0.1c1.8-0.4,3.3-1.8,3.6-3.7l0.1-0.9 M82.8,166.3l3.5,0.7
				 M86.2,77.7l-3.5,0.7 M86.2,77.7l-0.1-0.9c-0.3-1.8-1.7-3.3-3.6-3.7L81.7,73 M78.2,73.7l3.6-0.7 M28,153.9v8.8 M28,130.1v8.8
				 M28,106.3v8.8 M28,82.5v8.8 M22.6,173.1l0.1,1c0.4,1.9,1.8,3.3,3.7,3.7l0.9,0.1 M27.3,173.1v4.8 M35.6,177.9h-8.3 M78.2,170.9
				l0.9-0.1c1.9-0.2,3.2-2,3.6-3.7l0.1-0.9 M78.2,170.9h-6.7 M78.2,170.9v-4.7 M27.3,173.1h8.3 M35.6,163.9v9.2 M35.6,173.1v4.8
				 M35.6,163.9l0.4-1.2v15.8l-0.4-0.6 M28,162.7h8 M28,162.7l-1.2,1.2 M27.3,163.9h8.3 M36,153.9h-8l-1.2-1.2 M28,138.9h8
				 M28,138.9l-1.2,1.2 M35.6,152.7h-8.3 M27.3,140.1h8.3 M35.6,140.1l0.4-1.2v15l-0.4-1.2 M35.6,140.1v12.6 M36,130.1h-8l-1.2-1.2
				 M28,115.1h8 M28,115.1l-1.2,1.2 M35.6,116.3l0.4-1.2 M36,115.1v15l-0.4-1.2 M27.3,116.3h8.3v12.6 M35.6,128.9h-8.3 M36,106.3h-8
				l-1.2-1.2 M35.6,105.1h-8.3 M28,91.4h8 M28,91.4l-1.2,1.2 M27.3,92.5h8.3 M35.6,92.5l0.4-1.2 M35.6,92.5v12.6 M36,91.4v15
				l-0.4-1.2 M36,82.5h-8l-1.2-1.2 M78.2,166.3h4.6 M82.8,78.4v87.9 M71.5,166.3h6.7V78.4 M78.2,78.4h-6.7 M71.5,73.7h6.7
				 M82.8,78.4h-4.6v-4.7 M82.8,78.4l-0.1-0.9c-0.6-2.1-1.4-3.1-3.6-3.7l-0.9-0.1 M35.6,81.3h-8.3 M27.3,72v9.3h-0.5 M22.6,173.1V72
				 M22.6,173.1h4.7 M26.8,81.3v11.2h0.5v12.6h-0.5v11.2h0.5v12.6h-0.5v11.2h0.5v12.6h-0.5v11.2h0.5v9.2 M27.3,67.4h8.3 M35.6,72
				h-8.3 M27.3,67.4v4.7h-4.7 M27.3,67.4l-0.9,0.1c-1.8,0.4-3.3,1.8-3.7,3.7l-0.1,0.9 M36,66.8v15.8l-0.4-1.2 M36,66.8l-0.4,0.6
				 M35.6,67.4v4.7 M35.6,72v9.3 M71.5,166.3V78.4 M71.5,78.4v-4.7 M70.9,73.1l0.2,0.2v-0.6l0.4,1 M70.9,73.1V61.6 M71,61.6L71,61.6
				 M70.8,61.6v122 M71,183.6L71,183.6 M70.9,183.6v-11.5 M70.9,172.1l0.2-0.2 M71.1,171.9v0.1 M71.1,171.9l0.4-1 M71.5,170.9v-4.7
				 M30.9,178.8v38.5 M30.9,51.5v14.9"/>
			<path class="st1" d="M247.1,111.5l-0.2-0.7c-3-6.6-7.3-12.5-12.5-17.5l-0.2-0.2 M247.1,111.5l0.3,0.9 M247.4,112.4l-0.4,0.8
				 M247,113.2l0.3,0.6c2.2,5.6,3.5,11.5,3.9,17.4v0.2 M251.9,131.9l-0.7-0.5 M251.9,131.9l0.1,1 M248.1,155l0.3-0.7
				c2.5-6.8,3.7-14,3.6-21.2v-0.2 M248.1,155l-0.4,0.9 M247.7,155.9l-0.8,0.3 M246.9,156.2l-0.2,0.6c-2.4,5.5-5.6,10.6-9.6,15.1H237
				 M237.1,172.8l-0.1-0.9 M237.1,172.8l-0.7,0.7 M218.2,186.5l0.7-0.3c6.6-3.1,12.5-7.3,17.5-12.6l0.1-0.1 M218.2,186.5l-1,0.3
				 M217.2,186.8l-0.7-0.3 M216.5,186.5l-0.6,0.2c-5.6,2.2-11.5,3.5-17.4,3.9h-0.2 M197.8,191.2l0.4-0.7 M197.8,191.2l-1.1,0.1
				 M174.6,187.6l0.7,0.2c6.8,2.5,14,3.7,21.2,3.6h0.3 M174.6,187.6l-0.9-0.5 M173.7,187.1l-0.2-0.7 M173.5,186.4l-0.6-0.3
				c-5.5-2.4-10.6-5.6-15.1-9.6l-0.2-0.1 M156.9,176.5l0.8-0.1 M156.9,176.5l-0.8-0.6 M143.1,157.5l0.3,0.6
				c3.1,6.6,7.3,12.5,12.6,17.5l0.2,0.1 M143.1,157.5l-0.3-1 M142.8,156.5l0.4-0.7 M143.2,155.9l-0.2-0.7
				c-2.2-5.6-3.6-11.5-3.9-17.4v-0.2 M138.4,137.1l0.6,0.5 M138.4,137.1l-0.2-1 M142.1,114l-0.2,0.6c-2.5,6.8-3.7,14-3.6,21.2v0.2
				 M142.1,114l0.4-0.9 M142.5,113.2l0.8-0.3 M143.3,112.9l0.3-0.7c2.4-5.5,5.6-10.6,9.6-15.1l0.1-0.2 M153.2,96.2l0.1,0.8
				 M153.2,96.2l0.6-0.8 M259,120l-0.1-0.8l-0.4-1.6c-9-33.8-42.9-54.6-77.1-47.3l-0.8,0.2l-0.7,0.1c-34.3,8.2-56,42.1-49,76.7
				l0.4,1.6l0.1,0.7l0.2,0.8c8.6,33.9,42.2,55.1,76.5,48.3l1.6-0.4c34.4-7.8,56.4-41.4,49.8-76l-0.1-0.8l-0.4-1.6 M250.8,121.9
				l0.2,0.6l0.1,0.7l0.2,0.7c5.6,29.9-13.3,59-42.9,66.1l-0.7,0.1l-0.6,0.2c-30.1,6.4-59.8-12.1-67.3-41.9l-0.2-0.7l-0.1-0.7
				l-0.2-0.6l-0.1-0.7c-6-29.9,12.5-59.2,42-66.6l0.7-0.2l0.7-0.1c29.6-7,60.1,11.6,67.7,41l0.4,1.4L250.8,121.9 M258.6,120.1
				l-0.1-0.8l-0.2-0.8l-0.2-0.8c-8.9-33.6-42.6-54.2-76.6-47l-0.8,0.2L180,71c-34.1,8.2-55.6,41.8-48.8,76.2l0.2,0.8l0.2,0.8
				l0.1,0.7l0.2,0.8c8.5,33.7,41.9,54.8,76,48l1.6-0.4c34.2-7.7,56.1-41.1,49.5-75.5l-0.1-0.8L258.6,120.1 M55.3,10l0.2,0.1
				 M37.4,34L37.4,34 M37.3,235.1l0.1-0.1 M55.5,258.9l-0.2,0.1 M334.5,94.2l0.1,0.6 M55.3,10l1.1-1.2c2.2-2.5,4.4-4.7,6.6-7
				l1.2-1.1h12.3 M23.4,64.6h5.3v-16l1.1-2.1c2.2-4,4.4-8,6.9-11.9l0.5-0.8 M28.8,220.4v-39.7h-5.3 M37.3,235.1l-1.2-2
				c-2.3-3.9-4.8-8-6.8-12l-0.4-0.9 M76.5,268.3H64.2l-1.6-1.7L61,265l-4.8-5.1l-0.9-1.1 M334.6,174.2l-0.1,0.6 M42.5,73.5l-0.7,1.8
				L41.2,77 M41.2,77v106.6 M31.1,224.4l0.7,1.3c1.6,2.7,3.2,5.4,4.8,8l0.8,1.3 M37.4,235l2.5-0.8 M39.9,234.2l1.3,1.9
				c4.6,6.9,9.7,13.5,15.1,19.8l0.7,0.8 M56.9,256.7l-1.4,2.2 M55.5,258.9l4.8,5.1l1.6,1.6l1.6,1.7l0.9,0.9 M64.3,0.8L63.1,2
				c-2.2,2.3-4.5,4.5-6.6,6.9l-1,1.2 M55.5,10.1l1.4,2.2 M56.9,12.3L55.4,14C50,20.3,45,26.9,40.5,33.9l-0.6,0.9 M39.9,34.8L37.4,34
				 M37.4,34l-0.8,1.3c-1.6,2.6-3.2,5.3-4.8,7.9l-0.7,1.4 M33.8,223.7l-2.7,0.7 M31.1,217.5v6.9 M33.8,45.3l-2.7-0.7 M31.1,44.6v6.8
				 M334.7,174.2l0.5-1.8c1.4-5.2,2.5-10.4,3.4-15.7l0.2-1.2 M338.7,155.6l-2.4-0.9 M336.3,154.7l0.3-1.8
				c1.7-12.7,1.6-25.6-0.2-38.3l-0.1-0.3 M336.3,114.2l2.4-0.8 M338.7,113.4l-0.2-1.8c-0.9-5.3-2-10.5-3.4-15.7l-0.4-1.2
				 M65.4,265.4l-1.1,2.7 M64.3,268.1h10.6 M65.4,3.6l-1.1-2.8 M74.9,0.8H64.3 M47.6,228.6l0.6-0.4 M334.4,173.8l0.3,0.4
				 M332.7,171.4l0.7,1 M334.4,174.2h0.2 M334.6,174.2L334.6,174.2 M334.4,95.1l0.3-0.3 M332.7,97.6l0.7-1 M334.7,94.8L334.7,94.8
				 M334.6,94.8h-0.2 M327.3,98v0.1 M327.3,171L327.3,171 M47.6,40.4l0.6,0.4 M64.9,250.4l-0.5,0.4 M64.9,18.6l-0.5-0.4 M69.2,256
				l-4.3-5.6 M48.2,228.2l-4-5.2 M44.2,46l4-5.2 M64.9,18.6l4.3-5.6 M327.3,98l1.4-0.1h1.3l1-0.1l0.9-0.1h0.5l0.3-0.1l0.8,3.2
				c5.3,21.8,5.4,44.5,0.3,66.3l-1.1,4.4l-0.2-0.1c-1.5-0.2-3-0.3-4.6-0.3h-0.6 M327.3,98v16.5 M327.3,154.5h4.1l0.2-9.3l0.1-9.3
				l-0.1-10.7l-0.2-10.7h-3.1l-1,0.1 M327.3,154.5V171 M34.1,219l-1.5-1.5 M74.6,1.1l0.3-0.3 M71.9,4l1.5-1.6 M71.8,9.6v0.1
				 M74.9,1.1V0.8 M34.1,49.9l-1.4,1.5 M44.3,37.8l1.8,1.4l1.5,1.2 M44.3,37.8l5.2-7.1l5.4-7l6.2-8 M65.4,3.6l0.2,0.1h0.3l2.4,0.2
				h1.4L71.9,4l-0.1,2.2v3.5l-2.6,3.4l-0.6,0.7c-1.2,1.2-2.4,2.6-3.6,3.9l-0.6,0.7l-0.1-0.1l-1.2-0.9l-1.3-1l-0.7-0.6 M47.6,40.4
				l-0.4,0.7c-0.8,1.4-1.7,2.8-2.6,4.2L44.2,46l-2.9,3.9h-4.8L35.2,50H34v-1.5l-0.1-1.3v-1.3l-0.1-0.5l-0.1-0.1l1.2-2
				C43,28.8,53.2,15.5,65,3.9l0.3-0.4 M71.8,259.3v0.1 M74.6,267.8l0.3,0.3 M71.9,265l1.5,1.5 M74.9,268.1v-0.2 M33.8,223.7l0.1-0.1
				L34,223v-1.2l0.1-1.4v-1.5l1.5,0.1h1.7l1.8,0.1h2.3l2.9,3.9l0.4,0.7c0.8,1.4,1.7,2.8,2.6,4.2l0.4,0.7l-0.8,0.7l-1.6,1.2
				l10.8,14.2l6.2,7.8l1.6-1.2l0.6-0.5 M64.4,250.8l0.6,0.7c1.1,1.3,2.4,2.6,3.6,3.9l0.6,0.7l2.6,3.3v2.9l0.1,2.9h-2.2l-1.9,0.1
				l-0.9,0.1h-0.7l-0.5,0.1l-0.3,0.1l-1.6-1.7c-11.6-11.8-21.6-25.2-29.7-39.6l-0.2-0.5 M47.5,63.5l0.9-1.9 M172.5,199.9l-0.8-0.3
				c-3.4-1.3-6.8-2.8-10-4.6l-0.6-0.4 M190.3,203.6l-0.8-0.1l-3.8-0.4l-3.8-0.6l-3.7-0.8l-0.4-0.2 M208.3,202.5l-0.8,0.1
				c-3.6,0.7-7.3,1-11,1.1h-0.7 M43.4,89.2v-4.5 M43.4,113v-4.5 M43.4,136.7v-4.5 M43.4,160.5V156 M43.4,183.6v-3.8 M65.7,161.4
				l-2.8-2.8 M62.9,158.6H45.4l-2.9,2.8 M42.5,161.4v17.5 M42.5,178.9l2.9,2.8 M45.4,181.7h17.5 M62.9,181.7l2.8-2.8 M65.7,178.9
				v-17.5 M57.2,173.2h-6.1 M52.9,171.3h2.4 M51.1,173.2v-6 M51.1,173.2l1.9-1.9 M52.9,169v2.3 M55.3,169h-2.4l-1.9-1.9h6.1
				 M55.3,171.3V169l1.9-1.9v6L55.3,171.3 M57.2,149.4h-6.1 M52.9,147.5h2.4 M51.1,149.4v-6 M51.1,149.4l1.9-1.9 M52.9,145.3v2.3
				 M55.3,145.3h-2.4l-1.9-1.9h6.1 M55.3,147.5v-2.3l1.9-1.9v6L55.3,147.5 M57.2,125.6h-6.1 M51.1,125.6v-6 M51.1,125.6l1.9-1.9
				 M55.3,121.5h-2.4l-1.9-1.9h6.1 M52.9,121.5v2.3 M52.9,123.8h2.4 M55.3,123.8v-2.3l1.9-1.9v6L55.3,123.8 M57.2,101.9h-6.1
				 M52.9,100h2.4 M51.1,101.9v-6 M51.1,101.9L53,100 M52.9,97.7v2.3 M57.2,95.8v6l-1.9-1.9 M55.3,100v-2.3 M55.3,97.7l1.9-1.9
				 M55.3,97.7h-2.4L51,95.8h6.1 M57.2,78.1h-6.1 M52.9,76.2h2.4 M51.1,78.1v-6 M51.1,78.1l1.9-1.9 M52.9,73.9v2.3 M57.2,72v6
				l-1.9-1.9 M55.3,76.2v-2.3 M55.3,73.9l1.9-1.9 M55.3,73.9h-2.4L51,72h6.1 M45.4,134.9l-2.9,2.8 M42.5,137.6v17.5 M42.5,155.2
				l2.9,2.8 M45.4,157.9h17.5 M62.9,157.9l2.8-2.8 M65.7,155.2v-17.5 M65.7,137.6l-2.8-2.8 M62.9,134.9H45.4 M45.4,111.1l-2.9,2.8
				 M42.5,113.8v17.5 M42.5,131.4l2.9,2.8 M45.4,134.2h17.5 M62.9,134.2l2.8-2.8 M65.7,131.4v-17.6 M65.7,113.8l-2.8-2.8
				 M62.9,111.1H45.4 M45.4,87.3l-2.9,2.8 M42.5,90.1v17.5 M42.5,107.6l2.9,2.8 M45.4,110.4h17.5 M62.9,110.4l2.8-2.8 M65.7,107.6
				V90.1 M65.7,90.1l-2.8-2.8 M62.9,87.3H45.4 M62.9,63.5H45.4l-2.9,2.8 M42.5,66.3v17.5 M42.5,83.8l2.9,2.8 M45.4,86.6h17.5
				 M62.9,86.6l2.8-2.8 M65.7,83.8V66.3 M65.7,66.3l-2.8-2.8 M41.1,183.5V61.7"/>
		</g>
	</g>
</g>
<g>
	<g>
		<defs>
			<rect id="SVGID_3_" width="339.3" height="268.9"/>
		</defs>
		<clipPath id="SVGID_4_">
			<use xlink:href="#SVGID_3_"  style="overflow:visible;"/>
		</clipPath>
		<g class="st2">
			<path class="st1" d="M203.8,87.6l-2.3-0.3 M201.6,87.3L201.6,87.3 M194.2,86.8h0.9c1.9,0,3.7,0.1,5.5,0.3l0.9,0.1 M212.8,90.3
				l0.7,2.3 M204.8,87.8l0.6,0.1c2.3,0.5,4.6,1.1,6.7,2l0.6,0.2v0.1 M215.5,185L215.5,185 M215.4,184.9l-2.2-1.1 M197.5,188.9
				L197.5,188.9 M215.5,185l-0.6,0.2c-5.4,2.1-11.1,3.3-16.9,3.7h-0.3 M192.7,88.8l1.5-1.9 M192.7,80.2l1.5,6.7 M199,186.9l-1.5,2
				 M197.5,188.9l-1.5-6.7 M174.8,84v0.1 M191.3,82.1l1.5-2 M192.7,80.2L192.7,80.2 M176.3,90.8l-1.5-6.7l0.7-0.3
				c5.4-2.1,11.1-3.3,16.8-3.7h0.3 M174.8,84l2.2,1.2 M186.4,181.4l-1-0.2 M186.4,181.4l2.3,0.3 M196,182.2h-0.9
				c-1.9,0-3.7-0.2-5.5-0.4l-0.9-0.1v0.1 M197.5,180.2l-1.5,1.9 M185.4,181.2l-1-0.3c-2-0.4-4-1-5.9-1.8l-1-0.3 M177.5,178.7
				l-3.7,5.7 M177.5,178.7l-0.7-2.4 M176.3,90.8l2.2,1.1 M160.7,101.5l0.5-0.5c4.2-4.3,9.2-7.8,14.8-10.2l0.4-0.1 M161.1,103.8
				l-0.3-2.4 M155,97.8l5.8,3.7 M158.5,174.6l3.7-5.7 M173.8,184.6v-0.1 M173.8,184.5l-0.7-2.3 M160.8,174.3l-2.4,0.3 M173.8,184.6
				l-0.6-0.3c-5.3-2.4-10.2-5.5-14.5-9.4l-0.3-0.3l-0.1,0.1 M150.8,116.9l-5.7-3.7 M155.4,100.3l-0.4-2.5 M155,97.8L155,97.8
				 M145,113.2l0.3-0.7c2.4-5.3,5.5-10.2,9.4-14.5l0.3-0.3 M145,113.2L145,113.2 M145.1,113.3l2.4-0.8 M164.5,168.5l-2.4,0.3
				 M162,168.8l-0.4-0.5c-4.3-4.3-7.8-9.3-10.2-14.9l-0.1-0.1 M151.3,153.4l-6.6,1.5 M151.3,153.4l1.2-2.2 M148.3,125.7l0.2-1
				 M148.3,125.7l-0.4,2.3 M147.5,135.4v-1c0-1.9,0.1-3.7,0.3-5.5l0.1-0.9v0.1 M150.8,116.9l2.4-0.8 M148.5,124.7l0.2-0.6
				c0.5-2.3,1.1-4.6,2-6.7l0.2-0.6h0.1 M149.4,136.8l-2-1.4 M140.8,136.9l6.6-1.5 M144.7,154.9v0.1 M144.7,154.9l1.2-2.2
				 M142.8,138.4l-2-1.5 M140.8,136.9L140.8,136.9 M144.7,154.9l-0.2-0.7c-2.1-5.4-3.3-11.1-3.7-16.8v-0.6 M216.2,101l-0.8-0.6
				l-0.4-0.2c-18.3-10.6-41.6-5-53.1,12.7l-0.2,0.5l-0.3,0.4c-11.1,18.1-5.9,41.8,11.8,53.6l0.4,0.3l0.5,0.2l0.8,0.6
				c18.1,10.8,41.5,5.4,53.2-12.1l0.3-0.4l0.2-0.5c11.5-17.5,6.3-42.1-11.1-53.7l-0.8-0.6L216.2,101 M177,85.2l1.5,6.6 M178.5,91.8
				L178,92c-6.3,2.5-11.9,6.4-16.4,11.4l-0.4,0.4 M161.1,103.8l-5.7-3.6 M155.4,100.3l-0.4,0.4c-2.9,3.5-5.3,7.3-7.2,11.4l-0.2,0.4
				 M147.5,112.5l5.7,3.7 M153.2,116.1l-0.2,0.5c-2.6,6.2-3.8,13-3.6,19.7v0.5 M149.4,136.8l-6.6,1.6 M142.8,138.4l0.1,0.6
				c0.4,4.5,1.4,8.9,2.9,13.2l0.2,0.4 M145.9,152.7l6.6-1.5 M152.5,151.2l0.3,0.5c2.5,6.3,6.4,11.9,11.4,16.4l0.4,0.3 M164.5,168.5
				l-3.7,5.7 M160.8,174.3l0.5,0.4c3.5,2.9,7.3,5.3,11.4,7.2l0.5,0.2 M173.1,182.2l3.7-5.8 M176.8,176.4l0.6,0.2
				c6.2,2.6,13,3.8,19.7,3.6h0.4 M197.5,180.2l1.5,6.6 M199,186.9l0.7-0.1c4.5-0.4,8.9-1.4,13.2-2.9l0.4-0.2 M213.3,183.8l-1.5-6.6
				 M211.8,177.2l0.6-0.3c6.3-2.5,11.9-6.4,16.5-11.4l0.3-0.3 M229.1,165.2l5.8,3.6 M235,168.7l0.5-0.5c2.9-3.5,5.3-7.3,7.2-11.4
				l0.2-0.4 M242.8,156.4l-5.7-3.6 M237,152.9l0.3-0.6c2.6-6.2,3.9-13,3.6-19.7V132 M240.8,132.1l6.7-1.5 M247.5,130.6v-0.7
				c-0.4-4.5-1.4-8.9-2.9-13.2l-0.2-0.5 M244.4,116.3l-6.6,1.5 M237.7,117.8l-0.2-0.6c-2.5-6.3-6.4-11.9-11.4-16.4l-0.4-0.3
				 M225.7,100.5l3.7-5.7 M229.4,94.7l-0.4-0.5c-3.5-2.9-7.3-5.3-11.4-7.2l-0.5-0.2 M217.1,86.8l-3.7,5.7 M213.5,92.5l-0.5-0.3
				c-6.2-2.6-13-3.8-19.7-3.6h-0.5 M192.7,88.8l-1.5-6.6 M191.3,82.1h-0.6c-4.5,0.4-8.9,1.4-13.2,2.9l-0.4,0.2 M176.5,203.6
				L176.5,203.6l0.1-0.2l0.1-0.1v-0.2l0.2-0.2v-0.1l0.1-0.1v-0.1h0.1v-0.1l0.1-0.1v-0.1l0.2-0.2V202l0.3-0.3v-0.1h0.1v-0.1l0.1-0.1
				h0.1v-0.1l0.1-0.1h0.1v-0.1l0.1-0.1h0.1v-0.1l0.1-0.1h0.1v-0.1h0.1l0.3-0.3h0.1l0.2-0.2h0.1l0.1-0.1h0.1V200h0.1l0.1-0.1h0.1
				l0.2-0.2h0.2l0.1-0.1h0.1l0.1-0.1h0.1l0.1-0.1h0.2l0.1-0.1h0.2l0.1-0.1h0.3l0.1-0.1h0.4V199h0.2c0.9,0.1,0.4-0.1,1-0.1h0.2
				c0.8,0,0.1,0.1,1.1,0.1h0.2v0.1h0.4l0.1,0.1h0.3l0.1,0.1h0.2l0.1,0.1h0.2l0.1,0.1h0.1v0.1h0.2l0.1,0.1h0.2l0.2,0.2h0.1l0.1,0.1
				h0.1v0.1h0.1l0.1,0.1h0.1l0.2,0.2h0.1l0.3,0.3h0.1v0.1h0.1l0.1,0.1v0.1h0.1l0.1,0.1v0.1h0.1l0.1,0.1v0.1h0.1l0.1,0.1v0.1h0.1v0.1
				l0.3,0.3v0.1l0.2,0.2v0.1l0.1,0.1v0.1h0.1v0.1l0.1,0.1v0.1l0.2,0.2v0.2l0.1,0.1v0.1l0.1,0.1v0.1l0.1,0.1v0.2l0.1,0.1v0.2l0.1,0.1
				v0.3l0.1,0.1v0.4h0.1v0.7 M195,206.1L195,206.1l0.1-0.5l0.1-0.1v-0.4h0.1v-0.3l0.1-0.1v-0.2l0.1-0.1v-0.1l0.1-0.1v-0.1l0.1-0.1
				v-0.2h0.1v-0.1l0.1-0.1v-0.2l0.2-0.2v-0.1l0.1-0.1v-0.1h0.1v-0.1l0.3-0.3v-0.1h0.1v-0.1c0.2-0.2,0.3-0.3,0.5-0.5v-0.1h0.1
				l0.3-0.3h0.1v-0.1l0.1-0.1h0.1l0.2-0.2h0.1l0.2-0.2h0.1l0.2-0.2h0.1l0.1-0.1h0.1v-0.1h0.1l0.1-0.1h0.2l0.1-0.1h0.1l0.1-0.1h0.1
				l0.1-0.1h0.3v-0.1h0.2l0.1-0.1h0.4l0.1-0.1h0.4l0.1-0.1h2.1l0.1,0.1h0.4l0.1,0.1h0.4v0.1h0.3l0.1,0.1h0.2l0.1,0.1h0.1l0.1,0.1
				h0.1l0.1,0.1h0.2v0.1h0.1l0.1,0.1h0.2l0.2,0.2h0.1l0.1,0.1h0.1v0.1h0.1l0.3,0.3h0.1v0.1h0.1c0.2,0.2,0.3,0.3,0.5,0.5h0.1v0.1
				l0.3,0.3v0.1h0.1l0.1,0.1v0.1l0.2,0.2v0.1l0.2,0.2v0.1l0.2,0.2v0.1l0.1,0.1v0.1h0.1v0.1l0.1,0.1v0.2l0.1,0.1v0.1l0.1,0.1v0.1
				l0.1,0.1 M159.2,196.5l0.2-0.2v-0.1h0.1v-0.1l0.1-0.1h0.1v-0.1l0.1-0.1h0.1v-0.1l0.1-0.1h0.1v-0.1l0.1-0.1h0.1v-0.1l0.1-0.1h0.1
				v-0.1h0.1l0.1-0.1h0.1v-0.1h0.1l0.2-0.2h0.1v-0.1h0.2l0.2-0.2h0.1l0.1-0.1h0.1l0.1-0.1h0.1l0.1-0.1h0.2l0.1-0.1h0.1l0.1-0.1h0.2
				l0.1-0.1h0.3v-0.1h0.3l0.1-0.1h0.6l0.1-0.1h1.8l0.1,0.1h0.5v0.1h0.4l0.1,0.1h0.2l0.1,0.1h0.2l0.1,0.1h0.2l0.1,0.1h0.1l0.1,0.1
				h0.1l0.1,0.1h0.1l0.1,0.1h0.1l0.1,0.1h0.1l0.2,0.2h0.1l0.1,0.1h0.1v0.1h0.1l0.1,0.1v0.1h0.1l0.1,0.1h0.1v0.1h0.1l0.1,0.1v0.1h0.1
				l0.1,0.1v0.1h0.1l0.1,0.1v0.1h0.1l0.1,0.1v0.1h0.1l0.1,0.1v0.1h0.1v0.1l0.1,0.1v0.1h0.1v0.1l0.2,0.2v0.1h0.1v0.2l0.2,0.2v0.1
				l0.1,0.1v0.1l0.1,0.1v0.1l0.1,0.1v0.2l0.1,0.1v0.1l0.1,0.1v0.2l0.1,0.1v0.3h0.1v0.3l0.1,0.1v0.6l0.1,0.1v1.8l-0.1,0.1v0.4
				 M223.1,200.4v-0.3H223v-0.2l-0.1-0.1v-0.3h-0.1V199h-0.1v-1.2h0.1v-0.5h0.1V197l0.1-0.1v-0.2h0.1v-0.2l0.1-0.1v-0.1l0.1-0.1
				v-0.1l0.1-0.1v-0.1h0.1v-0.1l0.1-0.1v-0.1h0.1v-0.1h0.1v-0.1l0.6-0.6h0.1v-0.1h0.1v-0.1h0.1l0.1-0.1h0.1v-0.1h0.1l0.1-0.1h0.1
				l0.1-0.1h0.2v-0.1h0.2V194h0.2l0.1-0.1h0.3v-0.1h0.5v-0.1h1.3v0.1h0.5v0.1h0.3l0.1,0.1h0.2v0.1h0.2l0.1,0.1h0.1l0.1,0.1h0.1
				l0.1,0.1h0.1v0.1h0.1l0.1,0.1h0.1v0.1h0.1v0.1h0.1l0.6,0.6v0.1h0.1v0.1h0.1v0.1l0.1,0.1v0.1h0.1v0.1l0.1,0.1 M230.6,196.7v-0.2
				h-0.1v-0.2h-0.1v-0.1l-0.3-0.3v-0.1H230v-0.1h-0.1v-0.1h-0.2v-0.1h-0.1v-0.1h-0.1v-0.1h-0.2v-0.1h-0.1l-0.1-0.1H229l-0.1-0.1
				h-0.1l-0.1-0.1h-0.2l-0.1-0.1h-0.2l-0.1-0.1h-1.3v0.1h-0.4l-0.1,0.1h-0.2v0.1h-0.2l-0.1,0.1h-0.1l-0.1,0.1h-0.1v0.1h-0.2v0.1
				h-0.1l-0.3,0.3h-0.1v0.1h-0.1v0.1h-0.1v0.2h-0.1v0.1h-0.1v0.1h-0.1v0.2h-0.1v0.1l-0.1,0.1v0.1l-0.1,0.1v0.1l-0.1,0.1v0.2
				l-0.1,0.1v0.3l-0.1,0.1v1.3h0.1v0.4l0.1,0.1v0.2h0.1v0.2 M141.1,181.5l0.1-0.1l0.1-0.1h0.1v-0.1h0.1v-0.1h0.1l0.1-0.1h0.1v-0.1
				h0.1l0.1-0.1h0.1v-0.1h0.2v-0.1h0.2v-0.1h0.2l0.1-0.1h0.3v-0.1h0.4l0.1-0.1h1.5l0.1,0.1h0.4v0.1h0.3v0.1h0.3v0.1h0.2v0.1h0.2v0.1
				h0.1l0.1,0.1h0.1v0.1h0.2v0.1h0.1v0.1h0.1v0.1h0.1l0.3,0.3v0.1h0.1l0.1,0.1v0.1h0.1v0.1h0.1v0.1l0.1,0.1v0.1h0.1v0.1l0.1,0.1v0.1
				h0.1v0.2h0.1v0.2h0.1v0.2l0.1,0.1v0.3h0.1v0.4l0.1,0.1v1.5l-0.1,0.1v0.4h-0.1v0.3h-0.1v0.3h-0.1v0.2h-0.1v0.2h-0.1v0.1l-0.1,0.1
				v0.1h-0.1v0.2h-0.1v0.1H148v0.1h-0.1v0.1l-0.2,0.2 M147,187.6L147,187.6l0.1-0.2h0.1v-0.1h0.1v-0.1h0.1v-0.1l0.1-0.1l0.1-0.1
				v-0.1l0.1-0.1v-0.1h0.1v-0.2h0.1v-0.3h0.1v-0.3h0.1v-0.6h0.1v-0.7h-0.1v-0.6H148v-0.3h-0.1v-0.3h-0.1v-0.2h-0.1V183l-0.1-0.1
				v-0.1l-0.1-0.1l-0.1-0.1v-0.1h-0.1v-0.1h-0.1v-0.1h-0.1v-0.1H147v-0.1h-0.1V182h-0.1v-0.1h-0.1v-0.1h-0.1l-0.2-0.2h-0.1l-0.1-0.1
				h-0.1v-0.1h-0.2v-0.1h-0.3v-0.1h-0.3v-0.1h-0.6V181H144v0.1h-0.6v0.1h-0.3v0.1h-0.3v0.1h-0.2v0.1h-0.1l-0.1,0.1h-0.1l-0.2,0.2
				H142v0.1h-0.1v0.1h-0.1v0.1h-0.1 M211.2,64.7V65l-0.1,0.1v0.2l-0.1,0.1v0.2h-0.1v0.2h-0.1V66h-0.1v0.1l-0.1,0.1v0.1l-0.1,0.1v0.1
				h-0.1v0.1l-0.3,0.3V67H210v0.1h-0.1v0.1h-0.1v0.1h-0.1l-0.1,0.1h-0.1v0.1h-0.1v0.1h-0.1l-0.1,0.1h-0.1v0.1h-0.2v0.1h-0.1
				l-0.1,0.1h-0.1l-0.1,0.1h-0.2l-0.1,0.1H208l-0.1,0.1h-0.3l-0.1,0.1h-1.6 M205.8,68.5v-0.1h-0.4v-0.1h-0.3v-0.1h-0.3v-0.1h-0.2V68
				h-0.2v-0.1h-0.1l-0.1-0.1h-0.1l-0.1-0.1h-0.1v-0.1h-0.1l-0.2-0.2h-0.1v-0.1h-0.1v-0.1h-0.1v-0.1h-0.1V67h-0.1v-0.1H203v-0.1
				l-0.1-0.1v-0.1h-0.1v-0.1h-0.1v-0.1l-0.1-0.1v-0.1h-0.1V66h-0.1v-0.1l-0.1-0.1v-0.2l-0.1-0.1v-0.1l-0.1-0.1V65H202v-0.4l-0.1-0.1
				v-1.4 M203,63.3v0.9l0.1,0.1v0.4h0.1V65l0.1,0.1v0.2h0.1v0.2h0.1v0.2h0.1v0.1l0.2,0.2v0.1h0.1v0.1h0.1v0.1l0.1,0.1l0.1,0.1h0.1
				v0.1h0.1v0.1h0.1v0.1h0.1l0.1,0.1h0.1V67h0.2v0.1h0.2v0.1h0.2l0.1,0.1h0.3v0.1h0.4 M206,67.5h1.2l0.1-0.1h0.4v-0.1h0.3v-0.1h0.2
				v-0.1h0.2l0.1-0.1h0.1v-0.1h0.1l0.1-0.1h0.1v-0.1h0.1l0.5-0.5v-0.1h0.1V66h0.1v-0.1l0.1-0.1v-0.1h0.1v-0.1l0.1-0.1v-0.1l0.1-0.1
				v-0.2h0.1v-0.3h0.1v-0.4 M244.4,133.3l0.3,0.2 M251.2,131.4l-0.9,0.2 M241.5,152l-0.5,0.1 M246.1,155.6l0.8,0.6 M240.3,114
				l-0.4,0.7l7.1-1.6 M239.9,114.7l-0.2-0.6c-2.6-5.7-6.2-10.8-10.7-15.1l-0.1-0.1 M237,171.9l-0.9-0.5 M229,98.8l0.5-0.1
				 M232.6,92.6l-0.5,0.8 M230.8,168.4l0.1,0.4 M214.8,179.3l0.6-0.3c5.7-2.6,10.8-6.2,15.2-10.7l0.1-0.1 M216.2,83.4l0.5-0.8
				 M215.6,179.6l-0.8-0.3 M214.8,179.3l1.7,7.1 M212.6,88.1l0.2,0.6 M193.8,85.3l0.3-0.4 M192,78.4l0.2,1 M198.2,190.5l-0.2-0.9
				 M175.4,89.7l-0.5,0.2c-5.7,2.6-10.8,6.2-15.1,10.7l-0.2,0.1 M196.4,183.7l-0.3,0.4 M174.7,89.4l0.7,0.3 M175.4,89.7l-1.7-7.1
				 M177.7,180.9l-0.2-0.6 M174,185.6l-0.5,0.8 M159.5,100.6l-0.1-0.4 M153.3,97l0.8,0.5 M157.7,176.4l0.5-0.8 M161.2,170.2h-0.5
				 M150.3,154.3l0.3,0.5c2.6,5.7,6.2,10.8,10.7,15.1h0.1 M148.7,117l0.5-0.2 M144.1,113.3l-0.8-0.5 M149.9,155l0.4-0.7
				 M150.3,154.3l-7.1,1.6 M145.9,135.7l-0.3-0.3 M139,137.6l0.9-0.2 M244.7,133.5l7.2-1.6 M247.4,112.4l-7.1,1.7 M247.7,155.9
				l-6.2-3.9 M242.8,151.5l5.4,3.5 M252,132.9l-6.2,1.4 M241.5,152l0.3-0.6c2-5.8,3.1-11.8,3-17.9v-0.1 M241.5,152l1.3-0.5
				 M245.8,134.3v0.6c0,5.6-1,11.2-2.9,16.4v0.2 M245.8,134.3l-1.1-0.8 M240.9,112.9l6.2-1.4 M240.3,114l-0.2-0.6
				c-2.5-5.3-5.9-10.2-10.1-14.4l-0.5-0.4 M240.3,114l0.6-1.2 M230.8,98.6l0.5,0.4c3.9,4,7.1,8.6,9.5,13.7l0.1,0.2 M234.2,93.1
				l-3.4,5.4l-1.3,0.1l3.9-6.1 M230.9,168.8l6.2,4 M217.2,186.8l-1.6-7.1 M216.7,180.2l1.5,6.2 M236.4,173.5l-5.5-3.4 M216.5,81.8
				l-4,6.2 M215.6,179.6l0.6-0.3c5.4-2.5,10.2-6,14.4-10.2l0.4-0.3 M215.6,179.6l1.1,0.6 M231,170.1l-0.4,0.4
				c-4,3.9-8.6,7.1-13.7,9.5l-0.2,0.1 M231,170.1l-0.1-1.3 M212.6,88.1l-0.5-0.3c-5.6-2-11.4-3-17.3-2.9h-0.6 M212.6,88.1l-0.4-1.2
				 M194.9,83.9h0.7c5.6,0,11.1,1,16.4,2.9h0.3 M212.2,86.9l3.5-5.4 M193.5,77.7l1.4,6.2l-0.8,1l-1.6-7.1 M196.1,184.1l1.7,7.1
				 M177.7,180.9l0.6,0.2c5.6,2,11.4,3,17.3,2.9h0.5 M195.3,185.1l0.8-1 M173,82.1l1.7,7.2 M196.7,191.3l-1.4-6.2l-0.6-0.1
				c-5.6,0-11.2-1-16.4-2.9h-0.2 M173.7,187.1l4-6.1l0.4,1.2 M178.1,182.1l-3.5,5.5 M174.7,89.4l-0.5,0.2
				c-5.3,2.5-10.2,5.9-14.3,10.1l-0.5,0.5 M174.7,89.4l-1.2-0.6 M159.3,98.9l0.1,1.3l-6.1-4 M159.3,98.9l0.5-0.5
				c4-3.9,8.6-7.2,13.7-9.5l0.2-0.1 M173.5,88.8l-1.4-6.2 M153.8,95.4l5.5,3.5 M149.9,155l0.3,0.5c2.5,5.4,6,10.2,10.2,14.4l0.3,0.4
				l-3.9,6.2 M159.5,170.4l1.2-0.2 M142.5,113.2l6.2,3.9 M148.7,117l-0.2,0.5c-2,5.6-3,11.4-2.9,17.3v0.5 M148.7,117l-1.3,0.4
				 M156.1,175.9l3.5-5.5l-0.4-0.5c-3.9-4-7.2-8.6-9.6-13.7l-0.1-0.1 M142.8,156.5l7.1-1.6l-0.5,1.2 M149.4,156.2l-6.3,1.4
				 M144.6,134.7l1,0.8l-7.1,1.7 M144.6,134.7l0.1-0.7c0-5.6,1-11.1,2.9-16.4v-0.2 M147.5,117.4l-5.4-3.4 M138.2,136.1l6.3-1.5
				 M172.1,82.5l-0.6,0.2c-6.5,3-12.5,7.3-17.4,12.5l-0.2,0.2 M172.1,82.5l0.9-0.4 M173,82.1l0.7,0.4 M173.7,82.5l0.7-0.3
				c5.6-2.2,11.5-3.5,17.4-3.9h0.3 M192.5,77.8l-0.5,0.6 M192.5,77.8l1-0.1 M215.6,81.4l-0.6-0.3c-6.8-2.5-14-3.7-21.2-3.6h-0.3
				 M215.6,81.4l0.9,0.4 M216.5,81.8l0.2,0.8 M216.7,82.6l0.7,0.2c5.5,2.4,10.6,5.6,15.1,9.6l0.2,0.1 M233.4,92.5l-0.8,0.1
				 M233.4,92.5l0.8,0.6"/>
		</g>
	</g>
</g>
<g>
	<g>
		<defs>
			<rect id="SVGID_5_" x="17.9" width="321.4" height="268.9"/>
		</defs>
		<clipPath id="SVGID_6_">
			<use xlink:href="#SVGID_5_"  style="overflow:visible;"/>
		</clipPath>
		<g class="st3">
			<path class="st1" d="M175.9,89l-0.6,0.2 M240.7,115.2l-0.3-0.6 M214.3,180l0.7-0.3 M149.5,153.8l0.3,0.6 M200,142.5l24.8,19
				 M180,171.6l14.2-27.8 M194.2,143.8h1.8l0.1-0.1h0.6l0.1-0.1h0.4l0.2-0.1h0.2l0.1-0.1h0.2l0.1-0.1h0.2l0.2-0.1h0.2l0.1-0.1h0.1
				l0.1-0.1h0.1l0.1-0.1h0.1l0.1-0.1h0.1l0.1-0.1h0.1l0.1-0.1h0.1l0.2-0.2 M187.1,139.3l-18.9,24.8 M158.1,119.3l27.7,14.3
				 M185.8,133.6v1.7l0.1,0.1v0.6l0.1,0.1v0.4l0.1,0.2v0.2l0.1,0.1v0.2l0.1,0.1v0.2l0.1,0.2v0.2l0.1,0.1v0.1l0.1,0.1v0.1l0.1,0.1
				v0.1l0.1,0.1v0.1l0.1,0.1v0.1l0.1,0.1v0.1l0.2,0.2 M203.1,129.7l18.9-24.8 M232.2,149.7l-27.7-14.4 M204.4,135.3l0.1-0.2v-1.6
				l-0.1-0.1v-0.6l-0.1-0.1v-0.4l-0.1-0.2v-0.2l-0.1-0.1v-0.2l-0.1-0.1v-0.2l-0.1-0.2v-0.2l-0.1-0.1v0l-0.1-0.1v-0.1l-0.1-0.1v-0.1
				l-0.1-0.1v-0.1l-0.1-0.1V130l-0.1-0.1v-0.1l-0.1-0.1v-0.1 M190.4,126.4l-24.9-18.9 M210.3,97.4L196,125.1 M196,125.1l-0.1-0.1
				h-1.6l-0.1,0.1h-0.6l-0.1,0.1h-0.4l-0.2,0.1h-0.2l-0.1,0.1h-0.2l-0.1,0.1h-0.2l-0.2,0.1h-0.2l-0.1,0.1h-0.1l-0.1,0.1h-0.1
				l-0.1,0.1h0l-0.1,0.1H191l-0.1,0.1h-0.1l-0.1,0.1h-0.1l-0.1,0.1h-0.1 M180,171.6l0.5,0.1c15.4,6.1,33,2.1,44.3-10.1l0.1-0.1
				 M158.1,119.3l-0.1,0.4c-6.1,15.4-2.1,33,10.1,44.2l0.2,0.1 M232.2,149.7l0.2-0.5c6.2-15.4,2.2-33-10-44.2l-0.2-0.2 M210.3,97.4
				l-0.4-0.2c-15.4-6.1-33-2.1-44.2,10.1l-0.1,0.2 M246.2,113.3l0.3,0.6 M241.6,115l-0.2-0.6 M216.3,185.5l-0.7,0.3 M214.5,181
				l0.7-0.3 M174,83.4l0.6-0.2 M175.7,88l-0.7,0.3 M144.1,155.7l-0.2-0.6 M148.7,154l0.3,0.6 M246,156.3l0.2-0.7 M245.9,156.2
				l0.3-0.8 M216.8,83.7l-0.6-0.3 M216.8,83.8l-0.8-0.3 M173.4,185.3l0.6,0.3 M173.4,185.2l0.8,0.3 M144.4,112.8l-0.3,0.6
				 M144.4,112.9l-0.3,0.8 M243.6,142.7L243,142 M203.3,86l-0.7,0.7 M186.9,182.9l0.7-0.6 M146.7,126.3l0.7,0.7 M239.7,115.4
				l-0.2-0.6c-2.5-5.6-6-10.7-10.4-15.1l-0.4-0.4 M214.1,179.1l0.6-0.3c5.6-2.5,10.8-6,15.1-10.4l0.5-0.4 M176.1,89.9l-0.5,0.2
				c-5.6,2.5-10.7,6-15.1,10.4l-0.4,0.5 M150.5,153.5l0.3,0.5c2.5,5.6,6,10.7,10.4,15.1l0.5,0.4 M245.7,114.1l0.8-0.2 M250.1,131.9
				l-0.6,0.2 M250.3,131.6v-0.7c-0.3-5.7-1.6-11.3-3.7-16.5l-0.2-0.4 M242.4,141v0.1 M242.3,141.9l0.4,0.1h0.3 M243.5,133.5v1
				c0,2.2-0.1,4.3-0.4,6.4L243,142 M245.3,155.8l0.6,0.4 M235.8,171.5l-0.5-0.3 M236.1,171.4l0.5-0.6c3.7-4.2,6.8-9,9.1-14.2
				l0.2-0.5 M245.9,156.2l0.1,0.1 M216.4,84.4l0.4-0.6 M232.2,93.8l-0.3,0.5 M232.1,93.4l-0.5-0.5c-4.2-3.7-9-6.8-14.2-9.1l-0.5-0.2
				 M216.8,83.8L216.8,83.8 M201.6,87.2v0.1 M202.5,87.4V87l0.1-0.3 M194,86.1h1.1c2.2,0,4.3,0.1,6.4,0.4l1.1,0.2 M215.5,185
				l0.1,0.8 M197.7,189.4l-0.1-0.6 M198,189.6l0.7-0.1c5.7-0.3,11.3-1.6,16.5-3.7l0.4-0.2 M188.7,181.7L188.7,181.7 M187.8,181.6
				l-0.1,0.4l-0.1,0.3 M196.2,182.9h-1.1c-2.2,0-4.3-0.2-6.4-0.5l-1.1-0.1 M174.8,84l-0.2-0.8 M192.5,79.6l0.1,0.6 M192.2,79.4h-0.6
				c-5.6,0.3-11.2,1.6-16.4,3.7l-0.5,0.2 M173.8,184.6l-0.4,0.6 M158.1,175.2l0.3-0.5 M158.2,175.6l0.6,0.4
				c4.3,3.8,9.1,6.8,14.3,9.1l0.4,0.2 M173.4,185.2v0.1 M145,113.1l-0.6-0.3 M154.4,97.4l0.6,0.4 M154.1,97.5l-0.4,0.5
				c-3.7,4.2-6.8,9-9.1,14.2l-0.2,0.5 M144.4,112.9L144.4,112.9 M147.9,128v0.1 M148,127.1l-0.3-0.1h-0.3 M146.8,135.5v-1.1
				c0-2.2,0.1-4.3,0.4-6.4l0.2-1 M144.7,154.9l-0.8,0.2 M140.1,137l0.6-0.1 M139.9,137.4l0.1,0.6c0.4,5.7,1.6,11.3,3.7,16.5l0.2,0.5
				 M241.8,144.2l0.4,0.1l0.3,0.1l-0.1,0.5c-0.5,2.5-1.3,5-2.3,7.4v0.2 M242.5,144.4l0.9-0.5 M243.6,143.3l0.3,0.1 M204.8,87.8
				l0.1-0.4v-0.3l0.6,0.1c2.5,0.5,5,1.3,7.4,2.2l0.2,0.2 M204.9,87.1l-0.4-0.8 M203.9,86v-0.2 M185.4,181.2l-0.1,0.4v0.3l-1.1-0.3
				c-2.1-0.5-4.1-1.1-6.1-1.8l-1-0.4 M185.3,181.9l0.4,0.8 M186.3,182.9v0.3 M148.5,124.7h-0.4l-0.3-0.1l0.2-0.6
				c0.5-2.5,1.3-5,2.2-7.4l0.2-0.2 M147.8,124.6l-0.9,0.5 M146.7,125.7l-0.3-0.1 M204.8,87.8L204.8,87.8 M202.6,87.4l-1-0.2
				 M203.8,87.6h0.2l0.1,0.1h0.5l0.1,0.1h0.1 M204.8,87.8l-0.3-0.5l-0.3-0.6l-0.3-0.7 M203.9,86l-0.4,0.4l-0.5,0.4l-0.5,0.6
				 M241.8,144.2v0.1 M242.3,141.9l0.1-0.9 M242,143.3v0.3l-0.1,0.1v0.4l-0.1,0.1 M241.8,144.2l0.6-0.2l0.5-0.3l0.7-0.4
				 M243.6,143.3l-0.8-0.8l-0.5-0.6 M185.4,181.2L185.4,181.2 M187.8,181.6l0.9,0.1 M186.4,181.4l-0.1-0.1h-0.4l-0.1-0.1h-0.4
				 M185.4,181.2l0.6,1l0.3,0.7 M186.3,182.9l0.4-0.4l0.5-0.4l0.6-0.5 M148.5,124.7L148.5,124.7 M148,127.1l-0.1,0.9 M148.3,125.7
				v-0.4l0.1-0.1v-0.3l0.1-0.1 M148.5,124.8l-0.6,0.2l-0.5,0.3l-0.7,0.4 M146.7,125.7l0.8,0.8l0.5,0.6 M242.4,141l-0.1,0.3
				c0.1,0.6-0.2,1.1-0.2,1.7l-0.1,0.3 M201.6,87.3h0.3c0.6,0.1,1.2,0.2,1.8,0.3h0.2 M188.7,181.7h-0.3l-0.3-0.1h-0.3l-0.3-0.1h-0.6
				l-0.2-0.1h-0.3 M147.9,128l0.1-0.3c0-0.6,0.2-1.1,0.2-1.7l0.1-0.3 M249.4,132.1l-6.6,1.5 M245.7,114.1L245.7,114.1 M247.5,130.6
				l1.9,1.5 M249.4,132.1L249.4,132.1 M245.7,114.1l0.3,0.6c2.1,5.4,3.3,11.1,3.6,16.9l0.1,0.3 M238.9,115.6l6.6-1.5 M245.6,114.1
				l-1.2,2.2 M239.4,152.1l5.7,3.7 M245.3,155.8L245.3,155.8 M245.2,155.8l-2.4,0.7 M235.2,171.2L235.2,171.2 M245.3,155.8l-0.2,0.6
				c-2.4,5.3-5.5,10.2-9.4,14.5l-0.3,0.3 M242,143.3l-0.2,0.9 M242,143.3l0.4-2.3 M240.8,132.1l2,1.5v0.9c0.1,1.9,0,3.7-0.3,5.6
				l-0.1,1v0.1 M239.4,152.1l-2.4,0.8 M241.8,144.2l-0.1,0.5c-0.5,2.3-1.1,4.6-2,6.7l-0.2,0.6h-0.1 M231.8,94.3l-3.6,5.8 M235,168.7
				l0.3,2.5 M235.3,171.2l-5.8-3.7 M225.7,100.5l2.5-0.3 M228.2,100.2l0.5,0.4c4.3,4.2,7.8,9.3,10.1,14.9l0.1,0.2l-1.2,2.2
				 M216.4,84.4v0.1 M229.4,94.7l2.4-0.4 M231.8,94.3L231.8,94.3 M212.8,90.3l3.7-5.8l0.7,0.2c5.3,2.4,10.2,5.5,14.5,9.4l0.3,0.3
				 M216.4,84.4l0.7,2.4 M229.1,165.2l0.3,2.4 M229.5,167.5l-0.4,0.4c-4.3,4.3-9.3,7.8-14.9,10.2l-0.3,0.1 M213.9,178.2l1.5,6.6
				 M213.9,178.3l-2.2-1.1 M203.8,87.6l1,0.2"/>
		</g>
	</g>
</g>
</svg>
