<?xml version="1.0" encoding="utf-8"?>
<!-- Generator: Adobe Illustrator 24.1.2, SVG Export Plug-In . SVG Version: 6.00 Build 0)  -->
<svg version="1.1" id="Layer_1" xmlns="http://www.w3.org/2000/svg" xmlns:xlink="http://www.w3.org/1999/xlink" x="0px" y="0px"
	 viewBox="0 0 677.4 366.2" style="enable-background:new 0 0 677.4 366.2;" xml:space="preserve">
<style type="text/css">
	.st0{fill:#232D2F;}
	.st1{fill:none;stroke:#00AEEF;stroke-width:9.478;stroke-linecap:round;stroke-linejoin:round;}
	.st2{fill:none;stroke:#221F1F;stroke-width:9.478;stroke-linecap:round;stroke-linejoin:round;}
	.st3{fill:none;stroke:#E9262A;stroke-width:9.478;stroke-linecap:round;stroke-linejoin:round;}
	.st4{fill:none;stroke:#BABCBE;stroke-width:9.478;stroke-linecap:round;stroke-linejoin:round;}
	.st5{fill:none;stroke:#6D6E71;stroke-width:14;stroke-linecap:round;stroke-linejoin:round;}
	.st6{fill:none;stroke:#FFF200;stroke-width:9.478;stroke-linecap:round;stroke-linejoin:round;}
	.st7{fill:none;stroke:#754C29;stroke-width:9.478;stroke-linecap:round;stroke-linejoin:round;}
	.st8{fill:none;stroke:#F7941D;stroke-width:9.478;stroke-linecap:round;stroke-linejoin:round;}
	.st9{fill:#BAB6AF;}
	.st10{fill:#E5E0D6;}
</style>
<path class="st0" d="M385.9,35.6L385.9,35.6l-118,0v286.3h106.9c76.6,66,192.3,57.4,258.3-19.2c41.6-48.3,55.1-114.9,35.6-175.6
	L565,14.2C505.7-10.6,437.7-2.5,385.9,35.6z M573,183.1c0,46-33,83.4-73.6,83.4s-73.6-37.3-73.6-83.4s33-83.4,73.6-83.4
	S573,137.1,573,183.1z"/>
<polyline class="st1" points="332.5,162.9 146.3,162.9 146.6,162.9 105.8,162.9 "/>
<line class="st2" x1="4.7" y1="144.5" x2="86.5" y2="145.6"/>
<line class="st3" x1="4.7" y1="130.9" x2="86.5" y2="131.9"/>
<line class="st4" x1="4.7" y1="117.2" x2="86.5" y2="118.2"/>
<line class="st4" x1="4.7" y1="162.9" x2="86.5" y2="163.9"/>
<line class="st5" x1="114" y1="162.9" x2="65.7" y2="162.9"/>
<polyline class="st6" points="332.5,210.7 207.6,210.7 207.6,117.2 114,117.2 "/>
<polyline class="st7" points="332.5,183.6 177.2,183.6 177.2,144.5 105.8,144.5 "/>
<polyline class="st8" points="332.5,144.9 190.9,145 190.9,132 105.8,130.8 "/>
<line class="st5" x1="114" y1="144.5" x2="65.7" y2="144.5"/>
<line class="st5" x1="114" y1="130.9" x2="65.7" y2="130.9"/>
<line class="st5" x1="114" y1="117.2" x2="65.7" y2="117.2"/>
<polygon class="st9" points="344.1,125.7 344.1,223.5 287.8,224.6 287.8,245 275.6,245 275.6,107.9 286.5,107.8 286.5,125.7 "/>
<polygon class="st10" points="294.2,77.8 294.2,118.2 317.9,118.2 317.8,132.5 327.6,132.5 327.6,216.7 317.8,216.7 317.9,232.6 
	294.2,232.6 294.2,275 350.4,275 350.4,242.5 374.1,242.5 374.1,232.1 374.1,221.8 374.1,125.1 374.1,118.2 374.1,111.3 
	350.4,111.3 350.4,77.8 "/>
</svg>
