<?xml version="1.0" encoding="utf-8"?>
<!-- Generator: Adobe Illustrator 24.1.2, SVG Export Plug-In . SVG Version: 6.00 Build 0)  -->
<svg version="1.1" id="Layer_1" xmlns="http://www.w3.org/2000/svg" xmlns:xlink="http://www.w3.org/1999/xlink" x="0px" y="0px"
	 viewBox="0 0 300.6 230.6" style="enable-background:new 0 0 300.6 230.6;" xml:space="preserve">
<style type="text/css">
	.st0{fill:none;stroke:#BABCBE;stroke-width:9.478;stroke-linecap:round;stroke-linejoin:round;}
	.st1{fill:none;stroke:#231F20;stroke-width:9.478;stroke-linecap:round;stroke-linejoin:round;}
	.st2{fill:none;stroke:#E9262A;stroke-width:9.478;stroke-linecap:round;stroke-linejoin:round;}
	.st3{fill:none;stroke:#6D6D6D;stroke-width:5;stroke-linecap:round;stroke-miterlimit:10;}
	.st4{fill:#231F20;}
	.st5{font-family:'Helvetica';}
	.st6{font-size:11.1055px;}
	.st7{fill:none;stroke:#231F20;stroke-width:1.1172;stroke-linecap:round;stroke-linejoin:round;}
</style>
<g>
	<g>
		<polyline class="st0" points="75.6,152.4 4.7,152.4 4.7,152.4 		"/>
		<line class="st1" x1="77.6" y1="78.2" x2="4.7" y2="78.2"/>
		<line class="st2" x1="75.6" y1="134" x2="4.7" y2="134"/>
		<line class="st0" x1="77.6" y1="115.4" x2="4.7" y2="115.6"/>
		<line class="st3" x1="73.5" y1="95.7" x2="61.6" y2="95.7"/>
	</g>
</g>
<text transform="matrix(6.123234e-17 1 -1 6.123234e-17 114.9603 46.4674)" class="st4 st5 st6">   63RXXX-XXX</text>
<line class="st7" x1="300" y1="97.9" x2="300" y2="132.6"/>
<line class="st7" x1="294.5" y1="92.4" x2="294.5" y2="132.6"/>
<line class="st7" x1="74.3" y1="230.1" x2="162.2" y2="230.1"/>
<line class="st7" x1="254" y1="132.6" x2="254" y2="138.2"/>
<line class="st7" x1="230" y1="156.6" x2="230.9" y2="154.8"/>
<polyline class="st7" points="226.7,160.8 227.7,159 228.7,157.2 229.5,155.6 "/>
<line class="st7" x1="226.7" y1="160.8" x2="229.5" y2="155.6"/>
<polyline class="st7" points="221,160.8 222,159 222.9,157.2 223.7,155.6 "/>
<line class="st7" x1="221" y1="160.8" x2="223.7" y2="155.6"/>
<polyline class="st7" points="229.3,155.4 228.4,157.2 227.5,159 226.5,160.8 "/>
<line class="st7" x1="229.3" y1="155.4" x2="226.5" y2="160.8"/>
<polyline class="st7" points="223.6,155.4 222.7,157.2 221.7,159 220.8,160.8 "/>
<line class="st7" x1="223.6" y1="155.4" x2="220.8" y2="160.8"/>
<line class="st7" x1="239.8" y1="138.2" x2="239.8" y2="92.4"/>
<polyline class="st7" points="215.3,160.8 216.2,159 217.2,157.2 218,155.6 "/>
<line class="st7" x1="215.3" y1="160.8" x2="218" y2="155.6"/>
<polyline class="st7" points="209.5,160.8 210.5,159 211.4,157.2 212.2,155.6 "/>
<line class="st7" x1="209.5" y1="160.8" x2="212.2" y2="155.6"/>
<polyline class="st7" points="217.9,155.4 216.9,157.2 216,159 215,160.8 "/>
<line class="st7" x1="217.9" y1="155.4" x2="215" y2="160.8"/>
<polyline class="st7" points="212.1,155.4 211.2,157.2 210.2,159 209.3,160.8 "/>
<line class="st7" x1="212.1" y1="155.4" x2="209.3" y2="160.8"/>
<line class="st7" x1="231" y1="75.6" x2="231" y2="154.8"/>
<polyline class="st7" points="229.4,121.2 229.2,107.5 229.1,100.8 229.1,94.5 229,88.6 228.9,83.4 228.8,79 228.8,75.5 228.7,72.9 
	228.6,71.5 228.6,71.1 "/>
<polyline class="st7" points="229.4,121.2 228.8,75.5 228.7,72.9 228.6,71.5 228.6,71.1 "/>
<polyline class="st7" points="230,156.6 229.9,155.2 229.8,152.8 229.7,149.3 229.7,145 229.6,139.9 229.5,134.2 229.4,127.9 
	229.4,121.2 "/>
<polyline class="st7" points="230,156.6 229.9,155.2 229.4,121.2 "/>
<polyline class="st7" points="218,69.4 218.1,70.1 218.3,71.8 218.4,74.7 218.6,78.6 218.7,83.4 218.8,89 219,95.2 219.1,102.1 
	219.3,109.2 "/>
<polyline class="st7" points="218,69.4 218.1,70.1 218.3,71.8 218.4,74.7 219.3,109.2 "/>
<polyline class="st7" points="223.7,69.4 223.9,70 224,71.8 224.2,74.6 224.3,78.4 224.4,83.2 224.6,88.8 224.7,95 224.9,101.7 
	225,108.8 225.2,116 225.3,123.2 225.5,130.3 225.6,136.9 225.7,143 225.9,148.4 226,153 226.2,156.7 226.3,159.3 226.5,160.8 "/>
<polyline class="st7" points="223.7,69.4 223.9,70 224,71.8 224.2,74.6 226,153 226.2,156.7 226.3,159.3 226.5,160.8 "/>
<polyline class="st7" points="215.2,74.9 215.2,75.1 215.4,76.5 215.5,78.9 215.7,82.3 215.8,86.5 216,91.6 216.1,97.3 216.3,103.4 
	216.4,109.9 "/>
<polyline class="st7" points="215.2,74.9 215.2,75.1 215.4,76.5 215.5,78.9 216.4,109.9 "/>
<polyline class="st7" points="203.8,160.8 204.7,159 205.7,157.2 206.5,155.6 "/>
<line class="st7" x1="203.8" y1="160.8" x2="206.5" y2="155.6"/>
<polyline class="st7" points="198,160.8 199,159 200,157.2 200.8,155.6 "/>
<line class="st7" x1="198" y1="160.8" x2="200.8" y2="155.6"/>
<polyline class="st7" points="206.4,155.4 205.4,157.2 204.5,159 203.5,160.8 "/>
<line class="st7" x1="206.4" y1="155.4" x2="203.5" y2="160.8"/>
<polyline class="st7" points="200.6,155.4 199.7,157.2 198.7,159 197.8,160.8 "/>
<line class="st7" x1="200.6" y1="155.4" x2="197.8" y2="160.8"/>
<polyline class="st7" points="219.3,109.2 219.4,116.4 219.6,123.5 219.7,130.5 219.9,137.1 220,143.2 220.1,148.5 220.3,153.1 
	220.4,156.7 220.6,159.3 220.7,160.8 "/>
<polyline class="st7" points="219.3,109.2 220.3,153.1 220.4,156.7 220.6,159.3 220.7,160.8 "/>
<polyline class="st7" points="213.6,109.2 213.4,102.1 213.3,95.2 213.1,89 213,83.4 212.8,78.6 212.7,74.7 212.6,71.8 212.4,70.1 
	212.3,69.4 "/>
<polyline class="st7" points="213.6,109.2 212.8,78.6 212.7,74.7 212.6,71.8 212.4,70.1 212.3,69.4 "/>
<polyline class="st7" points="216.4,109.9 216.6,116.2 216.7,122.4 216.9,128.5 217,134.3 217.1,139.6 217.3,144.3 217.4,148.4 
	217.6,151.6 217.7,154 217.9,155.4 "/>
<polyline class="st7" points="216.4,109.9 217.3,144.3 217.6,151.6 217.7,154 217.9,155.4 "/>
<polyline class="st7" points="226.5,160.8 226.4,159.3 226.2,156.6 226.1,152.9 225.9,148.3 225.8,142.9 225.6,136.8 225.5,130.1 
	225.3,123.1 225.2,115.9 225,108.6 224.9,101.5 224.8,94.8 224.6,88.6 224.5,83 224.3,78.3 224.2,74.5 224,71.7 223.9,70 
	223.8,69.4 "/>
<polyline class="st7" points="226.5,160.8 226.4,159.3 226.2,156.6 224.3,78.3 224.2,74.5 224,71.7 223.9,70 223.8,69.4 "/>
<polyline class="st7" points="220.8,160.8 220.6,159.3 220.5,156.7 220.3,153 220.2,148.4 220,143 219.9,136.9 219.7,130.3 
	219.6,123.2 219.5,116 219.3,108.8 219.2,101.7 219,95 218.9,88.8 218.7,83.2 218.6,78.4 218.4,74.6 218.3,71.8 218.2,70 218,69.4 
	"/>
<polyline class="st7" points="220.8,160.8 220.6,159.3 220.5,156.7 218.6,78.4 218.4,74.6 218.3,71.8 218.2,70 218,69.4 "/>
<polyline class="st7" points="215,160.8 214.9,159.3 214.7,156.7 214.6,153.1 214.4,148.5 214.3,143.2 214.1,137.1 214,130.5 
	213.9,123.5 213.7,116.4 213.6,109.2 "/>
<polyline class="st7" points="215,160.8 214.9,159.3 214.7,156.7 213.6,109.2 "/>
<polyline class="st7" points="212.2,69.4 212.4,70 212.5,71.8 212.7,74.6 212.8,78.4 213,83.2 213.1,88.7 213.2,94.9 213.4,101.7 
	213.5,108.9 213.7,116.1 213.8,123.3 214,130.3 214.1,136.9 214.3,143 214.4,148.4 214.5,153 214.7,156.7 214.8,159.3 215,160.8 "/>
<polyline class="st7" points="212.2,69.4 212.4,70 212.5,71.8 212.7,74.6 214.5,153 214.7,156.7 214.8,159.3 215,160.8 "/>
<line class="st7" x1="206.5" y1="69.4" x2="206.6" y2="69.9"/>
<line class="st7" x1="200.7" y1="69.4" x2="200.9" y2="69.9"/>
<line class="st7" x1="165.8" y1="175" x2="166.6" y2="175"/>
<polyline class="st7" points="170.3,160.8 169.3,161 168.4,161.3 167.7,161.9 167.1,162.7 166.7,163.6 166.6,164.5 "/>
<line class="st7" x1="228.6" y1="71.1" x2="226.6" y2="74.8"/>
<polyline class="st7" points="192.3,160.8 193.3,159 194.2,157.2 195,155.6 "/>
<line class="st7" x1="192.3" y1="160.8" x2="195" y2="155.6"/>
<polyline class="st7" points="186.5,160.8 187.5,159 188.5,157.2 189.3,155.6 "/>
<line class="st7" x1="186.5" y1="160.8" x2="189.3" y2="155.6"/>
<polyline class="st7" points="180.8,160.8 181.8,159 182.7,157.2 183.5,155.6 "/>
<line class="st7" x1="180.8" y1="160.8" x2="183.5" y2="155.6"/>
<polyline class="st7" points="194.9,155.4 193.9,157.2 193,159 192,160.8 "/>
<line class="st7" x1="194.9" y1="155.4" x2="192" y2="160.8"/>
<polyline class="st7" points="189.1,155.4 188.2,157.2 187.3,159 186.3,160.8 "/>
<line class="st7" x1="189.1" y1="155.4" x2="186.3" y2="160.8"/>
<polyline class="st7" points="183.4,155.4 182.5,157.2 181.5,159 180.6,160.8 "/>
<line class="st7" x1="183.4" y1="155.4" x2="180.6" y2="160.8"/>
<polyline class="st7" points="202.3,122.7 202.5,129.8 202.6,136.5 202.8,142.8 202.9,148.2 203,152.9 203.2,156.6 203.3,159.3 
	203.5,160.8 "/>
<polyline class="st7" points="202.3,122.7 203,152.9 203.2,156.6 203.3,159.3 203.5,160.8 "/>
<polyline class="st7" points="195.1,70 195.3,71.7 195.4,74.5 195.6,78.3 195.7,83 195.9,88.6 196,94.8 196.2,101.6 196.3,108.6 
	196.4,115.9 196.6,123.1 196.7,130.1 196.9,136.8 197,143 197.2,148.4 197.3,153 197.5,156.7 197.6,159.3 197.7,160.8 "/>
<polyline class="st7" points="195.1,70 195.3,71.7 195.4,74.5 197.3,153 197.5,156.7 197.6,159.3 197.7,160.8 "/>
<polyline class="st7" points="206.6,69.9 206.8,71.6 206.9,74.3 207.1,78.1 207.2,82.9 207.3,88.5 207.5,94.7 207.6,101.5 
	207.8,108.7 207.9,116 208.1,123.2 208.2,130.2 208.4,136.8 208.5,143 208.7,148.4 208.8,153 208.9,156.7 209.1,159.3 209.2,160.8 
	"/>
<polyline class="st7" points="206.6,69.9 206.8,71.6 206.9,74.3 208.8,153 208.9,156.7 209.1,159.3 209.2,160.8 "/>
<polyline class="st7" points="200.9,69.9 201,71.6 201.2,74.3 201.3,78.1 201.5,82.8 201.6,88.3 201.7,94.5 201.9,101.2 202,108.2 
	202.3,122.7 "/>
<polyline class="st7" points="200.9,69.9 201,71.6 201.2,74.3 202.3,122.7 "/>
<polyline class="st7" points="209.3,160.8 209.1,159.3 209,156.7 208.8,153 208.7,148.4 208.5,143 208.4,136.9 208.3,130.3 
	208.1,123.3 208,116.1 207.8,108.9 207.7,101.7 207.5,94.9 207.4,88.7 207.2,83.2 207.1,78.4 207,74.6 206.8,71.8 206.7,70 
	206.6,69.4 "/>
<polyline class="st7" points="209.3,160.8 209.1,159.3 209,156.7 207.1,78.4 207,74.6 206.8,71.8 206.7,70 206.6,69.4 "/>
<polyline class="st7" points="203.5,160.8 203.4,159.3 203.2,156.7 203.1,153 202.9,148.4 202.8,143 202.7,136.8 202.5,130.2 
	202.4,123.2 202.2,116 202.1,108.7 201.9,101.5 201.8,94.7 201.6,88.5 201.5,82.9 201.3,78.1 201.2,74.3 201.1,71.6 200.9,69.9 
	200.8,69.4 "/>
<polyline class="st7" points="203.5,160.8 203.4,159.3 203.2,156.7 201.3,78.1 201.2,74.3 201.1,71.6 200.9,69.9 200.8,69.4 "/>
<line class="st7" x1="189.2" y1="69.4" x2="189.4" y2="70"/>
<line class="st7" x1="195" y1="69.4" x2="195.1" y2="70"/>
<line class="st7" x1="170.3" y1="160.8" x2="175" y2="160.8"/>
<line class="st7" x1="231" y1="154.8" x2="230.9" y2="154.8"/>
<line class="st7" x1="223.7" y1="69.4" x2="220.9" y2="74.8"/>
<line class="st7" x1="217.9" y1="69.4" x2="215.1" y2="74.8"/>
<polyline class="st7" points="175,160.8 176,159 177,157.2 177.8,155.6 "/>
<line class="st7" x1="175" y1="160.8" x2="177.8" y2="155.6"/>
<polyline class="st7" points="177.6,155.4 176.7,157.2 175.8,159 174.8,160.8 "/>
<line class="st7" x1="177.6" y1="155.4" x2="174.8" y2="160.8"/>
<polyline class="st7" points="196.6,122.7 196.3,108.2 196.2,101.2 196,94.5 195.9,88.3 195.7,82.8 195.6,78.1 195.5,74.3 
	195.3,71.6 195.2,69.9 195.1,69.4 "/>
<polyline class="st7" points="196.6,122.7 195.6,78.1 195.5,74.3 195.3,71.6 195.2,69.9 195.1,69.4 "/>
<polyline class="st7" points="189.4,70 189.5,71.7 189.7,74.6 189.8,78.4 190,83.1 190.1,88.7 190.3,94.9 190.4,101.7 190.6,108.7 
	190.7,116 190.8,123.2 191,130.2 191.1,136.9 191.3,143 191.4,148.4 191.6,153 191.7,156.7 191.9,159.3 192,160.8 "/>
<polyline class="st7" points="189.4,70 189.5,71.7 189.7,74.6 191.6,153 191.7,156.7 191.9,159.3 192,160.8 "/>
<polyline class="st7" points="197.8,160.8 197.6,159.3 197.5,156.6 197.3,152.9 197.2,148.2 197.1,142.8 196.9,136.5 196.8,129.8 
	196.6,122.7 "/>
<polyline class="st7" points="197.8,160.8 197.6,159.3 197.5,156.6 196.6,122.7 "/>
<polyline class="st7" points="192,160.8 191.9,159.3 191.7,156.7 191.6,153 191.5,148.4 191.3,143 191.2,136.8 191,130.1 
	190.9,123.1 190.7,115.9 190.6,108.6 190.4,101.6 190.3,94.8 190.2,88.6 190,83 189.9,78.3 189.7,74.5 189.6,71.7 189.4,70 
	189.3,69.4 "/>
<polyline class="st7" points="192,160.8 191.9,159.3 191.7,156.7 189.9,78.3 189.7,74.5 189.6,71.7 189.4,70 189.3,69.4 "/>
<polyline class="st7" points="177.8,69.4 177.9,70.1 178.1,71.8 178.2,74.7 178.3,78.6 178.5,83.4 178.6,89 178.8,95.2 178.9,101.9 
	179.1,109 179.2,116.2 179.4,123.4 179.5,130.4 179.6,137.1 179.8,143.1 179.9,148.5 180.1,153.1 180.2,156.7 180.4,159.3 
	180.5,160.8 "/>
<polyline class="st7" points="177.8,69.4 177.9,70.1 178.1,71.8 178.2,74.7 180.1,153.1 180.2,156.7 180.4,159.3 180.5,160.8 "/>
<polyline class="st7" points="183.5,69.4 183.7,70 183.8,71.7 183.9,74.6 184.1,78.4 184.2,83.2 184.4,88.8 184.5,95 184.7,101.7 
	184.8,108.8 185,116 185.1,123.2 185.2,130.3 185.4,136.9 185.5,143 185.7,148.4 185.8,153 186,156.7 186.1,159.3 186.3,160.8 "/>
<polyline class="st7" points="183.5,69.4 183.7,70 183.8,71.7 183.9,74.6 185.8,153 186,156.7 186.1,159.3 186.3,160.8 "/>
<line class="st7" x1="212.2" y1="69.4" x2="209.4" y2="74.8"/>
<line class="st7" x1="206.4" y1="69.4" x2="203.6" y2="74.8"/>
<line class="st7" x1="200.7" y1="69.4" x2="197.9" y2="74.8"/>
<polyline class="st7" points="186.3,160.8 186.2,159.3 186,156.7 185.9,153 185.7,148.4 185.6,143 185.4,136.9 185.3,130.2 
	185.1,123.2 185,116 184.8,108.7 184.7,101.7 184.6,94.9 184.4,88.7 184.3,83.1 184.1,78.4 184,74.6 183.8,71.7 183.7,70 
	183.6,69.4 "/>
<polyline class="st7" points="186.3,160.8 186.2,159.3 186,156.7 184.1,78.4 184,74.6 183.8,71.7 183.7,70 183.6,69.4 "/>
<polyline class="st7" points="180.6,160.8 180.4,159.3 180.3,156.7 180.1,153 180,148.4 179.8,143 179.7,136.9 179.5,130.3 
	179.4,123.2 179.3,116 179.1,108.8 179,101.7 178.8,95 178.7,88.8 178.5,83.2 178.4,78.4 178.2,74.6 178.1,71.7 177.9,70 
	177.8,69.4 "/>
<polyline class="st7" points="180.6,160.8 180.4,159.3 180.3,156.7 178.4,78.4 178.2,74.6 178.1,71.7 177.9,70 177.8,69.4 "/>
<polyline class="st7" points="174.9,74.9 175.1,75.8 175.3,77.8 175.4,80.7 175.6,84.6 175.7,89.3 175.9,94.7 176,100.6 
	176.2,106.9 176.3,113.5 176.5,120.1 176.6,126.5 176.7,132.7 176.9,138.4 177,143.5 177.2,147.8 177.3,151.3 177.5,153.9 
	177.6,155.4 "/>
<polyline class="st7" points="174.9,74.9 175.1,75.8 175.3,77.8 175.4,80.7 177.2,147.8 177.3,151.3 177.5,153.9 177.6,155.4 "/>
<line class="st7" x1="239.8" y1="138.2" x2="254" y2="138.2"/>
<line class="st7" x1="239.5" y1="137" x2="239.8" y2="137"/>
<line class="st7" x1="254" y1="132.6" x2="300" y2="132.6"/>
<line class="st7" x1="216.4" y1="109.9" x2="219.3" y2="109.2"/>
<line class="st7" x1="195" y1="69.4" x2="192.1" y2="74.8"/>
<line class="st7" x1="189.2" y1="69.4" x2="186.4" y2="74.8"/>
<line class="st7" x1="170.3" y1="160.8" x2="170.3" y2="69.4"/>
<line class="st7" x1="166.6" y1="55.6" x2="166.6" y2="175"/>
<line class="st7" x1="165.8" y1="4.2" x2="165.8" y2="226.4"/>
<polyline class="st7" points="174.8,160.8 174.7,159.3 174.5,156.7 174.4,153.1 174.2,148.5 174.1,143.1 173.9,137.1 173.8,130.4 
	173.7,123.4 173.5,116.2 173.4,109 173.2,101.9 173.1,95.2 172.9,89 172.8,83.4 172.6,78.6 172.5,74.7 172.4,71.8 172.2,70.1 
	172.1,69.4 "/>
<polyline class="st7" points="174.8,160.8 174.7,159.3 174.5,156.7 172.6,78.6 172.5,74.7 172.4,71.8 172.2,70.1 172.1,69.4 "/>
<line class="st7" x1="180.7" y1="160.6" x2="180.8" y2="160.8"/>
<polyline class="st7" points="180.5,160.8 179.5,159 178.6,157.2 177.6,155.4 "/>
<line class="st7" x1="180.5" y1="160.8" x2="177.6" y2="155.4"/>
<line class="st7" x1="183.5" y1="69.4" x2="180.7" y2="74.8"/>
<line class="st7" x1="177.7" y1="69.4" x2="174.9" y2="74.8"/>
<line class="st7" x1="162.2" y1="0.6" x2="162.2" y2="230.1"/>
<line class="st7" x1="186.4" y1="160.6" x2="186.5" y2="160.8"/>
<line class="st7" x1="192.1" y1="160.6" x2="192.2" y2="160.8"/>
<polyline class="st7" points="186.3,160.8 185.3,159 184.3,157.2 183.4,155.4 "/>
<line class="st7" x1="186.3" y1="160.8" x2="183.4" y2="155.4"/>
<polyline class="st7" points="192,160.8 191,159 190.1,157.2 189.1,155.4 "/>
<line class="st7" x1="192" y1="160.8" x2="189.1" y2="155.4"/>
<line class="st7" x1="197.9" y1="160.6" x2="198" y2="160.8"/>
<line class="st7" x1="203.6" y1="160.6" x2="203.7" y2="160.8"/>
<line class="st7" x1="209.4" y1="160.6" x2="209.5" y2="160.8"/>
<polyline class="st7" points="197.7,160.8 196.8,159 195.8,157.2 194.9,155.4 "/>
<line class="st7" x1="197.7" y1="160.8" x2="194.9" y2="155.4"/>
<polyline class="st7" points="203.5,160.8 202.5,159 201.6,157.2 200.6,155.4 "/>
<line class="st7" x1="203.5" y1="160.8" x2="200.6" y2="155.4"/>
<polyline class="st7" points="209.2,160.8 208.3,159 207.3,157.2 206.4,155.4 "/>
<line class="st7" x1="209.2" y1="160.8" x2="206.4" y2="155.4"/>
<line class="st7" x1="213.6" y1="109.2" x2="216.4" y2="109.9"/>
<line class="st7" x1="239.5" y1="93.7" x2="239.8" y2="93.7"/>
<polyline class="st7" points="180.7,74.9 180.7,74.9 180.9,76 181,78.1 181.2,81.1 181.3,85.1 181.5,89.8 181.6,95.2 181.8,101.1 
	181.9,107.4 182.1,113.9 182.2,120.5 182.4,126.9 182.5,133 182.6,138.6 182.8,143.6 182.9,147.9 183.1,151.4 183.2,153.9 
	183.4,155.4 "/>
<polyline class="st7" points="180.7,74.9 180.7,74.9 180.9,76 181,78.1 181.2,81.1 182.9,147.9 183.1,151.4 183.2,153.9 
	183.4,155.4 "/>
<line class="st7" x1="215.1" y1="160.6" x2="215.2" y2="160.8"/>
<line class="st7" x1="220.9" y1="160.6" x2="221" y2="160.8"/>
<polyline class="st7" points="215,160.8 214,159 213,157.2 212.1,155.4 "/>
<line class="st7" x1="215" y1="160.8" x2="212.1" y2="155.4"/>
<polyline class="st7" points="220.7,160.8 219.7,159 218.8,157.2 217.9,155.4 "/>
<line class="st7" x1="220.7" y1="160.8" x2="217.9" y2="155.4"/>
<line class="st7" x1="174.9" y1="74.9" x2="172.1" y2="69.4"/>
<line class="st7" x1="239.8" y1="92.4" x2="294.5" y2="92.4"/>
<polyline class="st7" points="186.4,74.9 186.5,74.9 186.6,76 186.8,78.1 186.9,81.1 187.1,85.1 187.2,89.8 187.4,95.2 187.5,101.1 
	187.7,107.4 187.8,113.9 187.9,120.5 188.1,126.9 188.2,133 188.4,138.6 188.5,143.6 188.7,147.9 188.8,151.4 189,153.9 
	189.1,155.4 "/>
<polyline class="st7" points="186.4,74.9 186.5,74.9 186.6,76 186.8,78.1 186.9,81.1 188.7,147.9 188.8,151.4 189,153.9 
	189.1,155.4 "/>
<polyline class="st7" points="192.2,74.9 192.2,74.9 192.4,76 192.5,78.1 192.7,81.1 192.8,85.1 193,89.8 193.1,95.2 193.2,101.1 
	193.4,107.4 193.5,113.9 193.7,120.5 193.8,126.9 194,133 194.1,138.6 194.3,143.6 194.4,147.9 194.6,151.4 194.7,153.9 
	194.9,155.4 "/>
<polyline class="st7" points="192.2,74.9 192.2,74.9 192.4,76 192.5,78.1 192.7,81.1 194.4,147.9 194.6,151.4 194.7,153.9 
	194.9,155.4 "/>
<line class="st7" x1="226.6" y1="160.6" x2="226.7" y2="160.8"/>
<line class="st7" x1="230" y1="156.6" x2="229.3" y2="155.4"/>
<polyline class="st7" points="226.5,160.8 225.5,159 224.5,157.2 223.6,155.4 "/>
<line class="st7" x1="226.5" y1="160.8" x2="223.6" y2="155.4"/>
<line class="st7" x1="180.7" y1="74.9" x2="177.8" y2="69.4"/>
<line class="st7" x1="186.4" y1="74.9" x2="183.6" y2="69.4"/>
<line class="st7" x1="170.3" y1="69.4" x2="172.1" y2="69.4"/>
<polyline class="st7" points="197.9,74.9 198,74.9 198.1,76 198.3,78.1 198.4,81.1 198.5,85.1 198.7,89.8 198.8,95.2 199,101.1 
	199.1,107.4 199.3,113.9 199.4,120.5 199.6,126.9 199.7,133 199.9,138.6 200,143.6 200.2,147.9 200.3,151.4 200.5,153.9 
	200.6,155.4 "/>
<polyline class="st7" points="197.9,74.9 198,74.9 198.1,76 198.3,78.1 198.4,81.1 200.2,147.9 200.3,151.4 200.5,153.9 
	200.6,155.4 "/>
<polyline class="st7" points="203.7,74.9 203.7,74.9 203.8,76 204,78.1 204.1,81.1 204.3,85.1 204.4,89.8 204.6,95.2 204.7,101.1 
	204.9,107.4 205,113.9 205.2,120.5 205.3,126.9 205.5,133 205.6,138.6 205.8,143.6 205.9,147.9 206.1,151.4 206.2,153.9 
	206.4,155.4 "/>
<polyline class="st7" points="203.7,74.9 203.7,74.9 203.8,76 204,78.1 204.1,81.1 205.9,147.9 206.1,151.4 206.2,153.9 
	206.4,155.4 "/>
<line class="st7" x1="192.2" y1="74.9" x2="189.3" y2="69.4"/>
<line class="st7" x1="197.9" y1="74.9" x2="195.1" y2="69.4"/>
<line class="st7" x1="203.7" y1="74.9" x2="200.8" y2="69.4"/>
<polyline class="st7" points="209.4,74.9 209.4,74.9 209.6,76 209.7,78.1 209.9,81.1 210,85.1 210.2,89.8 210.3,95.2 210.5,101.1 
	210.6,107.4 210.8,113.9 210.9,120.5 211.1,126.9 211.2,133 211.4,138.6 211.5,143.6 211.7,147.9 211.8,151.4 212,153.9 
	212.1,155.4 "/>
<polyline class="st7" points="209.4,74.9 209.4,74.9 209.6,76 209.7,78.1 209.9,81.1 211.7,147.9 211.8,151.4 212,153.9 
	212.1,155.4 "/>
<polyline class="st7" points="220.9,74.9 220.9,74.9 221.1,76 221.2,78.1 221.4,81.1 221.5,85.1 221.7,89.8 221.8,95.2 222,101.1 
	222.1,107.4 222.3,113.9 222.4,120.5 222.6,126.9 222.7,133 222.9,138.6 223,143.6 223.2,147.9 223.3,151.4 223.4,153.9 
	223.6,155.4 "/>
<polyline class="st7" points="220.9,74.9 220.9,74.9 221.1,76 221.2,78.1 221.4,81.1 223.2,147.9 223.3,151.4 223.4,153.9 
	223.6,155.4 "/>
<line class="st7" x1="209.4" y1="74.9" x2="206.6" y2="69.4"/>
<line class="st7" x1="215.2" y1="74.9" x2="212.3" y2="69.4"/>
<line class="st7" x1="165.8" y1="55.6" x2="166.6" y2="55.6"/>
<line class="st7" x1="90.9" y1="0.6" x2="90.9" y2="230.1"/>
<polyline class="st7" points="226.6,74.9 226.7,74.9 226.8,76 227,78.1 227.1,81.1 227.3,85.1 227.4,89.8 227.6,95.2 227.7,101.1 
	227.9,107.4 228,113.9 228.2,120.5 228.3,126.9 228.5,133 228.6,138.6 228.7,143.6 228.9,147.9 229,151.4 229.2,153.9 229.3,155.4 
	"/>
<polyline class="st7" points="226.6,74.9 226.7,74.9 226.8,76 227,78.1 227.1,81.1 228.9,147.9 229,151.4 229.2,153.9 229.3,155.4 
	"/>
<line class="st7" x1="220.9" y1="74.9" x2="218" y2="69.4"/>
<line class="st7" x1="226.6" y1="74.9" x2="223.8" y2="69.4"/>
<line class="st7" x1="231" y1="75.6" x2="228.6" y2="71.1"/>
<line class="st7" x1="74.3" y1="0.6" x2="74.3" y2="230.1"/>
<line class="st7" x1="294.5" y1="92.4" x2="300" y2="97.9"/>
<line class="st7" x1="74.3" y1="0.6" x2="162.2" y2="0.6"/>
<line class="st7" x1="231" y1="143.8" x2="234.7" y2="143.8"/>
<line class="st7" x1="231" y1="86.9" x2="234.7" y2="86.9"/>
<line class="st7" x1="234.7" y1="141.5" x2="239.5" y2="141.5"/>
<line class="st7" x1="234.7" y1="89.1" x2="239.5" y2="89.1"/>
<line class="st7" x1="234.7" y1="86.9" x2="234.7" y2="143.8"/>
<line class="st7" x1="239.5" y1="141.5" x2="239.5" y2="89.1"/>
<path class="st7" d="M165.8,4.2c0-2-1.7-3.7-3.7-3.7"/>
<path class="st7" d="M162.2,230.1c2,0,3.7-1.6,3.7-3.7"/>
<path class="st7" d="M166.6,65.7c0,2,1.6,3.7,3.7,3.7c0,0,0,0,0,0"/>
<path class="st7" d="M132.9,161.2c5.1,0,9.2-4.1,9.2-9.2"/>
<line class="st7" x1="132.9" y1="161.2" x2="115.8" y2="161.2"/>
<path class="st7" d="M106.6,152c0,5.1,4.1,9.2,9.2,9.2"/>
<line class="st7" x1="106.6" y1="46.8" x2="106.6" y2="152"/>
<line class="st7" x1="142.1" y1="46.8" x2="142.1" y2="152"/>
<path class="st7" d="M142.1,46.8c0-5.1-4.1-9.2-9.2-9.2"/>
<line class="st7" x1="132.9" y1="37.6" x2="115.8" y2="37.6"/>
<path class="st7" d="M115.8,37.6c-5.1,0-9.2,4.1-9.2,9.2c0,0,0,0,0,0"/>
<line class="st7" x1="74.3" y1="67.6" x2="74.3" y2="163.1"/>
<text transform="matrix(6.123234e-17 1 -1 6.123234e-17 127.3861 46.4674)" class="st4 st5 st6">GRAYHILL XXXX X-X</text>
</svg>
