<svg id="Layer_1" data-name="Layer 1" xmlns="http://www.w3.org/2000/svg" viewBox="0 0 183.083 221.072"><defs><style>.cls-1{fill:#323031;}.cls-13,.cls-2{fill:#819356;}.cls-3{fill:#079247;}.cls-4{fill:#f2f2f2;}.cls-5{fill:#6e7071;}.cls-6{fill:#424242;}.cls-7{fill:#5a5a5d;}.cls-20,.cls-8{fill:#221f1f;}.cls-9{fill:#bc2030;}.cls-10{fill:#2f3378;}.cls-11{fill:#d6dd28;}.cls-12{fill:#37b24a;}.cls-13{font-size:8.7057px;}.cls-13,.cls-19,.cls-20{font-family:Verdana;}.cls-14{letter-spacing:0.001em;}.cls-15{letter-spacing:-0.0001em;}.cls-16{letter-spacing:-0.015em;}.cls-17{letter-spacing:0.0001em;}.cls-18,.cls-19{fill:#fff;}.cls-19{font-size:5px;letter-spacing:0.001em;}.cls-20{font-size:5.8038px;}.cls-21{letter-spacing:0.0009em;}.cls-22{letter-spacing:0.001em;}.cls-23{letter-spacing:-0.03em;}.cls-24{letter-spacing:-0.0459em;}.cls-25{letter-spacing:-0.06em;}.cls-26{letter-spacing:0.0001em;}.cls-27{fill:#383d37;}.cls-28{fill:#b0a997;}</style></defs><path class="cls-1" d="M186.8264,103.0691H10.7084a3.4829,3.4829,0,0,1-3.483-3.482V12.3721a3.4838,3.4838,0,0,1,3.483-3.483h176.118a3.4823,3.4823,0,0,1,3.482,3.483v87.215a3.4814,3.4814,0,0,1-3.482,3.482" transform="translate(-7.2254 -8.8891)"/><path class="cls-1" d="M180.38,198.8317H14.2531a3.5974,3.5974,0,0,1-3.598-3.5979v-91.245a3.5974,3.5974,0,0,1,3.598-3.5971H180.38a3.5974,3.5974,0,0,1,3.598,3.5971v91.245a3.5974,3.5974,0,0,1-3.598,3.5979" transform="translate(-7.2254 -8.8891)"/><path class="cls-1" d="M12.8185,195.3211H183.6614a3.4826,3.4826,0,0,1,3.482,3.482v27.675a3.4822,3.4822,0,0,1-3.482,3.483H12.8185a3.4814,3.4814,0,0,1-3.481-3.483v-27.675a3.4819,3.4819,0,0,1,3.481-3.482" transform="translate(-7.2254 -8.8891)"/><path class="cls-2" d="M82.3859,110.7459h36.167V83.6979H82.3859a2.3494,2.3494,0,0,0-2.349,2.349v22.35a2.3494,2.3494,0,0,0,2.349,2.349" transform="translate(-7.2254 -8.8891)"/><path class="cls-2" d="M80.2931,64.2645v36.127h27.972V64.2645a2.39,2.39,0,0,0-2.3891-2.389H82.6821a2.3889,2.3889,0,0,0-2.389,2.389" transform="translate(-7.2254 -8.8891)"/><rect class="cls-3" x="88.5077" y="75.5815" width="9.458" height="16.818"/><rect class="cls-1" x="76.5047" y="83.3215" width="9.629" height="17.368"/><path class="cls-2" d="M92.7961,164.9324h0a4.6511,4.6511,0,0,1-4.651-4.6509V116.4694a.4741.4741,0,0,1,.4729-.474h8.357a.4736.4736,0,0,1,.4731.474V160.28a4.6523,4.6523,0,0,1-4.652,4.652" transform="translate(-7.2254 -8.8891)"/><path class="cls-2" d="M106.47,165.1336h0a4.65,4.65,0,0,1-4.65-4.65v-43.813a.4742.4742,0,0,1,.473-.474h8.356a.4742.4742,0,0,1,.473.474v43.811a4.6523,4.6523,0,0,1-4.652,4.652" transform="translate(-7.2254 -8.8891)"/><path class="cls-2" d="M137.0129,195.8855l.0069-89.565a1.164,1.164,0,0,1,1.164-1.165h9.209l-.0069,92.361h-8.742a1.63,1.63,0,0,1-1.631-1.631" transform="translate(-7.2254 -8.8891)"/><path class="cls-2" d="M62.718,105.7391l-.007,89.566a1.164,1.164,0,0,1-1.165,1.164H52.337l.007-92.361h8.743a1.6314,1.6314,0,0,1,1.631,1.631" transform="translate(-7.2254 -8.8891)"/><path class="cls-4" d="M144.093,92.83V47.5109a.825.825,0,0,1,.824-.825h9.318v47.297h-8.989a1.1534,1.1534,0,0,1-1.153-1.153" transform="translate(-7.2254 -8.8891)"/><rect class="cls-2" x="101.5917" y="36.2825" width="25.346" height="13.512"/><rect class="cls-2" x="105.9327" y="49.7946" width="15.348" height="9.712"/><path class="cls-2" d="M64.6193,95.0232H59.05a1.9636,1.9636,0,0,1-1.964-1.964V24.3082a1.9636,1.9636,0,0,1,1.964-1.964h5.569a1.9642,1.9642,0,0,1,1.964,1.964v68.751a1.9642,1.9642,0,0,1-1.964,1.964" transform="translate(-7.2254 -8.8891)"/><path class="cls-2" d="M60.1242,95.0232H46.1992a1.9077,1.9077,0,0,1-1.908-1.908V72.2432a1.9077,1.9077,0,0,1,1.908-1.908h13.925a1.9077,1.9077,0,0,1,1.908,1.908v20.872a1.9077,1.9077,0,0,1-1.908,1.908" transform="translate(-7.2254 -8.8891)"/><rect class="cls-5" x="101.5927" y="9.2125" width="25.286" height="25.589"/><rect class="cls-6" x="19.5227" y="95.3675" width="25.589" height="92.201"/><rect class="cls-5" x="140.1707" y="96.3515" width="25.589" height="92.201"/><rect class="cls-5" x="148.2787" y="37.6815" width="25.589" height="47.529"/><rect class="cls-6" x="10.1827" y="37.6815" width="25.59" height="47.529"/><rect class="cls-7" x="12.2206" y="39.2285" width="18.767" height="10.703"/><rect class="cls-4" x="16.4377" y="41.2365" width="12.041" height="6.355"/><path class="cls-8" d="M29.2658,53.4694a4.223,4.223,0,1,1-4.223-4.2229,4.2234,4.2234,0,0,1,4.223,4.2229" transform="translate(-7.2254 -8.8891)"/><rect class="cls-7" x="12.2206" y="49.9325" width="18.767" height="10.703"/><rect class="cls-4" x="16.4377" y="51.9395" width="12.041" height="6.355"/><path class="cls-8" d="M29.2658,64.1727a4.223,4.223,0,1,1-4.223-4.223,4.2234,4.2234,0,0,1,4.223,4.223" transform="translate(-7.2254 -8.8891)"/><rect class="cls-7" x="12.2206" y="60.6356" width="18.767" height="10.704"/><rect class="cls-4" x="16.4377" y="62.6425" width="12.041" height="6.355"/><path class="cls-8" d="M29.2658,74.8758a4.223,4.223,0,1,1-4.223-4.223,4.2236,4.2236,0,0,1,4.223,4.223" transform="translate(-7.2254 -8.8891)"/><rect class="cls-7" x="12.2206" y="71.3395" width="18.767" height="10.703"/><rect class="cls-4" x="16.4377" y="73.3465" width="12.041" height="6.354"/><path class="cls-8" d="M29.2658,85.58a4.223,4.223,0,1,1-4.223-4.223,4.2234,4.2234,0,0,1,4.223,4.223" transform="translate(-7.2254 -8.8891)"/><rect class="cls-7" x="154.3697" y="72.4685" width="18.767" height="10.703"/><rect class="cls-4" x="156.8787" y="74.8085" width="12.041" height="6.355"/><path class="cls-8" d="M170.5422,86.7088a4.2225,4.2225,0,1,1,4.2229,4.223,4.2227,4.2227,0,0,1-4.2229-4.223" transform="translate(-7.2254 -8.8891)"/><rect class="cls-7" x="154.3697" y="61.7645" width="18.767" height="10.704"/><rect class="cls-4" x="156.8787" y="64.1055" width="12.041" height="6.355"/><path class="cls-8" d="M170.5422,76.0047a4.2225,4.2225,0,1,1,4.2229,4.224,4.2234,4.2234,0,0,1-4.2229-4.224" transform="translate(-7.2254 -8.8891)"/><rect class="cls-7" x="154.3697" y="51.0605" width="18.767" height="10.703"/><rect class="cls-4" x="156.8787" y="53.4025" width="12.041" height="6.354"/><path class="cls-8" d="M170.5422,65.3016a4.2225,4.2225,0,1,1,4.2229,4.223,4.2234,4.2234,0,0,1-4.2229-4.223" transform="translate(-7.2254 -8.8891)"/><rect class="cls-7" x="154.3697" y="40.3575" width="18.767" height="10.703"/><rect class="cls-4" x="156.8787" y="42.6985" width="12.041" height="6.355"/><path class="cls-8" d="M170.5422,54.5983a4.2225,4.2225,0,1,1,4.2229,4.2231,4.2233,4.2233,0,0,1-4.2229-4.2231" transform="translate(-7.2254 -8.8891)"/><rect class="cls-7" x="114.2347" y="10.3435" width="10.704" height="18.767"/><rect class="cls-4" x="116.5767" y="14.5595" width="6.355" height="12.041"/><path class="cls-8" d="M126.8117,29.0516a4.223,4.223,0,1,1,4.224-4.223,4.2234,4.2234,0,0,1-4.224,4.223" transform="translate(-7.2254 -8.8891)"/><rect class="cls-7" x="103.5317" y="10.3435" width="10.703" height="18.767"/><rect class="cls-4" x="105.8737" y="14.5595" width="6.354" height="12.041"/><path class="cls-8" d="M116.1086,29.0516a4.223,4.223,0,1,1,4.2229-4.223,4.2234,4.2234,0,0,1-4.2229,4.223" transform="translate(-7.2254 -8.8891)"/><rect class="cls-7" x="21.6037" y="99.5615" width="18.767" height="10.703"/><rect class="cls-4" x="25.8207" y="101.5685" width="12.042" height="6.354"/><path class="cls-8" d="M38.6486,113.8016a4.2225,4.2225,0,1,1-4.223-4.223,4.2234,4.2234,0,0,1,4.223,4.223" transform="translate(-7.2254 -8.8891)"/><rect class="cls-7" x="21.6037" y="110.2645" width="18.767" height="10.703"/><rect class="cls-4" x="35.8896" y="118.3171" width="6.355" height="12.042" transform="translate(-93.2905 151.8926) rotate(-88.795)"/><path class="cls-8" d="M38.6486,124.5047a4.2225,4.2225,0,1,1-4.223-4.223,4.2234,4.2234,0,0,1,4.223,4.223" transform="translate(-7.2254 -8.8891)"/><rect class="cls-7" x="21.6037" y="120.9675" width="18.767" height="10.703"/><rect class="cls-4" x="25.8207" y="122.9745" width="12.042" height="6.355"/><path class="cls-8" d="M38.6486,135.2078a4.2225,4.2225,0,1,1-4.223-4.223,4.2234,4.2234,0,0,1,4.223,4.223" transform="translate(-7.2254 -8.8891)"/><rect class="cls-7" x="21.6037" y="131.6705" width="18.767" height="10.704"/><rect class="cls-4" x="25.8207" y="133.6776" width="12.042" height="6.355"/><path class="cls-8" d="M38.6486,145.9119a4.2225,4.2225,0,1,1-4.223-4.224,4.2234,4.2234,0,0,1,4.223,4.224" transform="translate(-7.2254 -8.8891)"/><rect class="cls-7" x="21.6037" y="142.4515" width="18.767" height="10.703"/><rect class="cls-4" x="25.8207" y="144.4586" width="12.042" height="6.355"/><path class="cls-8" d="M38.6486,156.6922a4.2225,4.2225,0,1,1-4.223-4.223,4.2234,4.2234,0,0,1,4.223,4.223" transform="translate(-7.2254 -8.8891)"/><rect class="cls-7" x="21.6037" y="153.1545" width="18.767" height="10.703"/><rect class="cls-4" x="25.8207" y="155.1616" width="12.042" height="6.355"/><path class="cls-8" d="M38.6486,167.3953a4.2225,4.2225,0,1,1-4.223-4.223,4.2234,4.2234,0,0,1,4.223,4.223" transform="translate(-7.2254 -8.8891)"/><rect class="cls-7" x="21.6037" y="163.8575" width="18.767" height="10.704"/><rect class="cls-4" x="25.8207" y="165.8655" width="12.042" height="6.355"/><path class="cls-8" d="M38.6486,178.0983a4.2225,4.2225,0,1,1-4.223-4.2229,4.2236,4.2236,0,0,1,4.223,4.2229" transform="translate(-7.2254 -8.8891)"/><rect class="cls-7" x="21.6037" y="174.5625" width="18.767" height="10.703"/><rect class="cls-4" x="25.8207" y="176.5695" width="12.042" height="6.354"/><path class="cls-8" d="M38.6486,188.8025a4.2225,4.2225,0,1,1-4.223-4.223,4.2234,4.2234,0,0,1,4.223,4.223" transform="translate(-7.2254 -8.8891)"/><rect class="cls-7" x="145.7697" y="175.7285" width="18.767" height="10.703"/><rect class="cls-4" x="148.2787" y="178.0705" width="12.041" height="6.354"/><path class="cls-8" d="M161.9426,189.9694a4.2225,4.2225,0,1,1,4.223,4.2231,4.2234,4.2234,0,0,1-4.223-4.2231" transform="translate(-7.2254 -8.8891)"/><rect class="cls-7" x="145.7697" y="165.0255" width="18.767" height="10.703"/><rect class="cls-4" x="148.2787" y="167.3675" width="12.041" height="6.354"/><path class="cls-8" d="M161.9426,179.2664a4.2225,4.2225,0,1,1,4.223,4.223,4.2234,4.2234,0,0,1-4.223-4.223" transform="translate(-7.2254 -8.8891)"/><rect class="cls-7" x="145.7697" y="154.3225" width="18.767" height="10.703"/><rect class="cls-4" x="148.2787" y="156.6635" width="12.041" height="6.355"/><path class="cls-8" d="M161.9426,168.5633a4.2225,4.2225,0,1,1,4.223,4.223,4.2234,4.2234,0,0,1-4.223-4.223" transform="translate(-7.2254 -8.8891)"/><rect class="cls-7" x="145.7697" y="143.6195" width="18.767" height="10.703"/><rect class="cls-4" x="148.2787" y="145.9605" width="12.041" height="6.355"/><path class="cls-8" d="M161.9426,157.86a4.2225,4.2225,0,1,1,4.223,4.223,4.2236,4.2236,0,0,1-4.223-4.223" transform="translate(-7.2254 -8.8891)"/><rect class="cls-7" x="145.7697" y="132.8385" width="18.767" height="10.703"/><rect class="cls-4" x="148.2787" y="135.1805" width="12.041" height="6.354"/><path class="cls-8" d="M161.9426,147.0789a4.2225,4.2225,0,1,1,4.223,4.223,4.2234,4.2234,0,0,1-4.223-4.223" transform="translate(-7.2254 -8.8891)"/><rect class="cls-7" x="145.7697" y="122.1355" width="18.767" height="10.703"/><rect class="cls-4" x="148.2787" y="124.4755" width="12.041" height="6.355"/><path class="cls-8" d="M161.9426,136.3758a4.2225,4.2225,0,1,1,4.223,4.223,4.2234,4.2234,0,0,1-4.223-4.223" transform="translate(-7.2254 -8.8891)"/><rect class="cls-7" x="145.7697" y="111.4315" width="18.767" height="10.703"/><rect class="cls-4" x="148.2787" y="113.7725" width="12.041" height="6.355"/><path class="cls-8" d="M161.9426,125.6727a4.2225,4.2225,0,1,1,4.223,4.223,4.2234,4.2234,0,0,1-4.223-4.223" transform="translate(-7.2254 -8.8891)"/><rect class="cls-9" x="46.6577" y="99.8755" width="8.149" height="10.389"/><rect class="cls-7" x="145.7697" y="100.7275" width="18.767" height="10.704"/><rect class="cls-4" x="148.2787" y="103.0695" width="12.041" height="6.355"/><path class="cls-8" d="M161.9426,114.9686a4.2225,4.2225,0,1,1,4.223,4.224,4.2234,4.2234,0,0,1-4.223-4.224" transform="translate(-7.2254 -8.8891)"/><rect class="cls-8" x="46.6577" y="110.2535" width="8.149" height="10.389"/><rect class="cls-9" x="46.6577" y="120.6425" width="8.149" height="10.388"/><rect class="cls-8" x="46.6577" y="131.0205" width="8.149" height="10.389"/><rect class="cls-9" x="46.6577" y="141.3995" width="8.149" height="10.389"/><rect class="cls-8" x="46.6577" y="151.7785" width="8.149" height="10.389"/><rect class="cls-9" x="46.6577" y="162.1675" width="8.149" height="10.388"/><rect class="cls-8" x="46.6577" y="172.5446" width="8.149" height="10.389"/><rect class="cls-8" x="38.7417" y="61.8985" width="8.149" height="11.94"/><rect class="cls-9" x="130.3287" y="173.5155" width="8.149" height="10.388"/><rect class="cls-8" x="130.3287" y="163.1365" width="8.149" height="10.389"/><rect class="cls-9" x="130.3287" y="152.7475" width="8.149" height="10.389"/><rect class="cls-8" x="130.3287" y="142.3695" width="8.149" height="10.388"/><rect class="cls-9" x="130.3287" y="131.9905" width="8.149" height="10.389"/><rect class="cls-8" x="130.3287" y="121.6115" width="8.149" height="10.389"/><rect class="cls-9" x="130.3287" y="111.2235" width="8.149" height="10.388"/><rect class="cls-8" x="130.3287" y="100.8455" width="8.149" height="10.389"/><rect class="cls-9" x="38.7417" y="73.7305" width="8.149" height="11.951"/><path class="cls-10" d="M53.9152,68.6463h-6.399a1.5483,1.5483,0,0,1-1.549-1.549V24.9983a1.5483,1.5483,0,0,1,1.549-1.549h6.399a1.549,1.549,0,0,1,1.549,1.549v42.099a1.549,1.549,0,0,1-1.549,1.549" transform="translate(-7.2254 -8.8891)"/><rect class="cls-8" x="114.1867" y="36.2825" width="11.94" height="12.521"/><rect class="cls-9" x="102.3427" y="36.2825" width="11.951" height="12.521"/><line class="cls-8" x1="127.5521" y1="36.2826" x2="127.5521" y2="49.9316"/><rect class="cls-11" x="138.5617" y="39.0345" width="8.149" height="11.077"/><rect class="cls-12" x="138.5617" y="50.1015" width="8.149" height="11.077"/><rect class="cls-11" x="138.5617" y="61.1785" width="8.149" height="11.077"/><rect class="cls-12" x="138.5617" y="72.2445" width="8.149" height="11.077"/><path class="cls-4" d="M136.0471,81.0506V59.7676a.7791.7791,0,0,1,.778-.779h7.268v23.152h-6.956a1.09,1.09,0,0,1-1.09-1.09" transform="translate(-7.2254 -8.8891)"/><path class="cls-2" d="M72.3713,121.16H62.7172v-8.462h9.6541a2.7854,2.7854,0,0,1,2.785,2.786v2.89a2.7854,2.7854,0,0,1-2.785,2.786" transform="translate(-7.2254 -8.8891)"/><path class="cls-2" d="M72.3713,143.6619H62.7172V135.2h9.6541a2.7854,2.7854,0,0,1,2.785,2.786v2.89a2.7854,2.7854,0,0,1-2.785,2.786" transform="translate(-7.2254 -8.8891)"/><path class="cls-2" d="M72.3713,166.8563H62.7172v-8.462h9.6541a2.7854,2.7854,0,0,1,2.785,2.786v2.89a2.7854,2.7854,0,0,1-2.785,2.786" transform="translate(-7.2254 -8.8891)"/><path class="cls-2" d="M72.3713,189.3582H62.7172v-8.462h9.6541a2.7854,2.7854,0,0,1,2.785,2.786v2.89a2.7861,2.7861,0,0,1-2.785,2.786" transform="translate(-7.2254 -8.8891)"/><path class="cls-2" d="M127.9,181.2088h9.654v8.462H127.9a2.786,2.786,0,0,1-2.785-2.786v-2.891a2.7851,2.7851,0,0,1,2.785-2.785" transform="translate(-7.2254 -8.8891)"/><path class="cls-2" d="M127.9,158.7067h9.654v8.4621H127.9a2.7854,2.7854,0,0,1-2.785-2.786v-2.89a2.7854,2.7854,0,0,1,2.785-2.7861" transform="translate(-7.2254 -8.8891)"/><path class="cls-2" d="M127.9,135.5125h9.654v8.462H127.9a2.7854,2.7854,0,0,1-2.785-2.786v-2.89a2.7854,2.7854,0,0,1,2.785-2.786" transform="translate(-7.2254 -8.8891)"/><path class="cls-2" d="M127.9,113.0105h9.654v8.462H127.9a2.7854,2.7854,0,0,1-2.785-2.786v-2.89a2.7854,2.7854,0,0,1,2.785-2.786" transform="translate(-7.2254 -8.8891)"/><path class="cls-3" d="M117.5158,131.93h-6.448a.4346.4346,0,0,1-.435-.435V116.4965a.4342.4342,0,0,1,.435-.433h6.448a.4342.4342,0,0,1,.435.433v14.9989a.4346.4346,0,0,1-.435.435" transform="translate(-7.2254 -8.8891)"/><path class="cls-3" d="M88.1447,131.8631h-6.448a.4345.4345,0,0,1-.435-.434V116.43a.4345.4345,0,0,1,.435-.434h6.448a.4345.4345,0,0,1,.435.434v14.999a.4345.4345,0,0,1-.435.434" transform="translate(-7.2254 -8.8891)"/><rect class="cls-2" x="78.8787" y="85.7405" width="4.881" height="12.53"/><rect class="cls-2" x="91.2587" y="77.9865" width="3.957" height="12.471"/><path class="cls-8" d="M129.6974,110.7459h-11.145V83.6979h11.145a1.3377,1.3377,0,0,1,1.3379,1.337v24.374a1.3377,1.3377,0,0,1-1.3379,1.337" transform="translate(-7.2254 -8.8891)"/><text class="cls-13" transform="translate(32.0903 208.7808)">Pn<tspan class="cls-14" x="10.7588" y="0">e</tspan><tspan class="cls-15" x="15.9536" y="0">umati</tspan><tspan class="cls-14" x="40.978" y="0">c</tspan><tspan x="45.5225" y="0">s </tspan><tspan class="cls-14" x="53.1187" y="0">Co</tspan><tspan x="64.4985" y="0">nt</tspan><tspan class="cls-16" x="73.438" y="0">r</tspan><tspan class="cls-14" x="77.0229" y="0">o</tspan><tspan class="cls-15" x="82.3154" y="0">l M</tspan><tspan class="cls-14" x="95.1016" y="0">o</tspan><tspan class="cls-17" x="100.394" y="0">dule</tspan></text><path class="cls-18" d="M168.3625,24.0886a6.4344,6.4344,0,1,1,7.042,5.763,6.4336,6.4336,0,0,1-7.042-5.763" transform="translate(-7.2254 -8.8891)"/><path class="cls-18" d="M14.4172,22.9832a6.4348,6.4348,0,1,1,7.042,5.764,6.4362,6.4362,0,0,1-7.042-5.764" transform="translate(-7.2254 -8.8891)"/><path class="cls-18" d="M14.4172,216.619a6.4348,6.4348,0,1,1,7.042,5.763,6.4351,6.4351,0,0,1-7.042-5.763" transform="translate(-7.2254 -8.8891)"/><path class="cls-18" d="M170.5744,216.619a6.4344,6.4344,0,1,1,7.042,5.763,6.4337,6.4337,0,0,1-7.042-5.763" transform="translate(-7.2254 -8.8891)"/><text class="cls-19" transform="translate(41.6259 17.9791) rotate(90)">PRESSURE SW</text><text class="cls-20" transform="translate(92.0488 59.0875) rotate(90)"><tspan class="cls-21">12</tspan><tspan x="7.3911" y="0">V</tspan></text><text class="cls-20" transform="translate(52.2812 23.632) rotate(90)">COM<tspan class="cls-21" x="13.5122" y="0">P</tspan><tspan x="17.0176" y="0">R</tspan><tspan class="cls-21" x="21.0532" y="0">ES</tspan><tspan x="28.6963" y="0">SOR</tspan><tspan class="cls-22" x="41.2671" y="0"> </tspan><tspan x="43.3135" y="0">O</tspan><tspan class="cls-21" x="47.8818" y="0">UT</tspan></text><text class="cls-20" transform="translate(79.7382 59.0872) rotate(90)"><tspan class="cls-21">24</tspan><tspan x="7.3911" y="0">V</tspan></text><text class="cls-20" transform="translate(105.8847 79.8768) rotate(90)">VS<tspan class="cls-23" x="7.9351" y="0">L</tspan><tspan x="10.9912" y="0">OL</tspan></text><text class="cls-20" transform="translate(84.3935 122.8712) rotate(90)">COMP</text><text class="cls-20" transform="translate(97.7958 119.9865) rotate(90)">S<tspan class="cls-24" x="3.9673" y="0">T</tspan><tspan class="cls-25" x="7.2769" y="0">A</tspan><tspan x="10.896" y="0">T</tspan><tspan class="cls-22" x="14.4722" y="0">U</tspan><tspan class="cls-26" x="18.7261" y="0">S</tspan></text><text class="cls-20" transform="translate(117.6513 52.2117) rotate(180)">V<tspan class="cls-22" x="3.9673" y="0">i</tspan><tspan x="5.5659" y="0">n</tspan></text><text class="cls-20" transform="translate(135.5903 67.5301) rotate(-90)">CAN</text><text class="cls-20" transform="translate(126.6176 109.9598) rotate(-90)">7</text><text class="cls-20" transform="translate(126.618 132.6414) rotate(-90)">6</text><text class="cls-20" transform="translate(126.7106 155.7811) rotate(-90)">5</text><text class="cls-20" transform="translate(126.71 178.4569) rotate(-90)">4</text><text class="cls-20" transform="translate(59.5614 174.522) rotate(90)">3</text><text class="cls-20" transform="translate(59.5614 151.8465) rotate(90)">2</text><text class="cls-20" transform="translate(59.4687 128.7069) rotate(90)">1</text><text class="cls-20" transform="translate(59.4687 106.0313) rotate(90)">0</text><rect class="cls-27" x="114.515" y="78.2946" width="6.107" height="6.107" rx="0.4552"/><rect class="cls-27" x="114.515" y="84.8268" width="6.107" height="6.107" rx="0.4552"/><rect class="cls-27" x="114.515" y="91.359" width="6.107" height="6.107" rx="0.4552"/><rect class="cls-28" x="116.1527" y="79.9324" width="2.8314" height="2.8314"/><rect class="cls-28" x="116.1527" y="92.9968" width="2.8314" height="2.8314"/><rect class="cls-28" x="116.1527" y="86.4646" width="2.8314" height="2.8314"/><rect class="cls-28" x="114.9634" y="78.668" width="1.2188" height="12.0468"/><rect class="cls-7" x="5.2397" y="101.5685" width="3.7862" height="17.2869"/><rect class="cls-7" x="5.2397" y="122.9745" width="3.7862" height="17.2869"/><rect class="cls-7" x="5.4527" y="144.4586" width="3.7862" height="17.2869"/><rect class="cls-7" x="5.4527" y="165.8655" width="3.7862" height="17.2869"/><rect class="cls-7" x="170.7868" y="103.0695" width="3.7862" height="17.2869"/><rect class="cls-7" x="170.7868" y="124.4756" width="3.7862" height="17.2869"/><rect class="cls-7" x="170.9998" y="145.9596" width="3.7862" height="17.2869"/><rect class="cls-7" x="170.9998" y="167.3666" width="3.7862" height="17.2869"/></svg>