<svg id="Layer_1" data-name="Layer 1" xmlns="http://www.w3.org/2000/svg" viewBox="0 0 202.4591 115.1579"><defs><style>.cls-1{fill:#f2f2f2;}.cls-10,.cls-14,.cls-15,.cls-16,.cls-17,.cls-18,.cls-2,.cls-3,.cls-7,.cls-9{fill:none;}.cls-10,.cls-16,.cls-2,.cls-3,.cls-7,.cls-9{stroke:#221f1f;}.cls-10,.cls-2,.cls-3,.cls-7,.cls-9{stroke-miterlimit:10;}.cls-2{stroke-width:0.479px;}.cls-3{stroke-width:0.598px;}.cls-4{fill:#a6a7aa;}.cls-5{fill:#846c31;}.cls-6{fill:#fff;}.cls-7{stroke-width:0.458px;}.cls-8{font-size:3.5897px;font-family:Verdana;}.cls-13,.cls-8{fill:#221f1f;}.cls-9{stroke-width:0.339px;}.cls-10{stroke-width:0.263px;}.cls-11{letter-spacing:-0.056em;}.cls-12{letter-spacing:-0.059em;}.cls-14{stroke:#babcbe;}.cls-14,.cls-15,.cls-16,.cls-17,.cls-18{stroke-linecap:round;stroke-linejoin:round;}.cls-14,.cls-15,.cls-16{stroke-width:2.708px;}.cls-15,.cls-17{stroke:#e9262a;}.cls-17,.cls-18{stroke-width:8px;}.cls-18{stroke:#231f20;}</style></defs><polygon class="cls-1" points="168.501 19.879 168.501 5.928 162.382 0.299 30.218 0.299 24.344 5.684 24.344 19.879 33.399 33.884 33.154 61.661 24.344 76.905 24.344 90.122 29.728 95.017 163.361 95.017 168.501 90.366 168.501 76.171 159.845 61.661 159.845 33.885 168.501 19.879"/><polygon class="cls-2" points="168.501 19.879 168.501 5.928 162.382 0.299 30.218 0.299 24.344 5.684 24.344 19.879 33.399 33.884 33.154 61.661 24.344 76.905 24.344 90.122 29.728 95.017 163.361 95.017 168.501 90.366 168.501 76.171 159.845 61.661 159.845 33.885 168.501 19.879"/><polyline class="cls-3" points="124.201 46.067 149.166 46.068 149.166 49.494 122.977 49.494"/><polyline class="cls-3" points="67.874 46.02 42.21 46.02 42.21 48.944 69.133 48.944"/><rect class="cls-4" x="129.1037" y="25.7531" width="16.405" height="16.405"/><rect class="cls-4" x="128.8017" y="53.101" width="16.405" height="16.4041"/><rect class="cls-4" x="47.9127" y="25.7811" width="16.405" height="16.405"/><rect class="cls-4" x="47.6107" y="53.1291" width="16.405" height="16.405"/><path class="cls-5" d="M137.0037,40.6292a6.7445,6.7445,0,1,1,6.745-6.7439,6.744,6.744,0,0,1-6.745,6.7439"/><path class="cls-5" d="M137.0037,68.4056a6.7445,6.7445,0,1,1,6.745-6.7439,6.744,6.744,0,0,1-6.745,6.7439"/><path class="cls-5" d="M55.9647,40.6292a6.7445,6.7445,0,1,1,6.745-6.745,6.7443,6.7443,0,0,1-6.745,6.745"/><path class="cls-5" d="M55.9647,68.4056a6.7445,6.7445,0,1,1,6.745-6.7439,6.7449,6.7449,0,0,1-6.745,6.7439"/><polyline class="cls-3" points="151.613 0.299 151.613 5.684 125.425 5.684"/><polyline class="cls-3" points="151.613 95.017 151.613 90.122 125.425 90.122"/><polyline class="cls-3" points="67.909 90.122 42.21 90.122 42.21 95.017"/><polyline class="cls-3" points="67.909 5.684 42.21 5.684 42.21 0.299"/><rect class="cls-1" x="67.9088" y="0.299" width="57.516" height="94.718"/><rect class="cls-3" x="67.9088" y="0.299" width="57.516" height="94.718"/><path class="cls-6" d="M159.2166,15.38a5.169,5.169,0,1,1,5.1549-5.169,5.1621,5.1621,0,0,1-5.1549,5.169"/><path class="cls-7" d="M159.2166,15.38a5.169,5.169,0,1,1,5.1549-5.169A5.1621,5.1621,0,0,1,159.2166,15.38Z"/><path class="cls-6" d="M159.2166,91.13a5.169,5.169,0,1,1,5.1549-5.169,5.1615,5.1615,0,0,1-5.1549,5.169"/><path class="cls-7" d="M159.2166,91.13a5.169,5.169,0,1,1,5.1549-5.169A5.1615,5.1615,0,0,1,159.2166,91.13Z"/><path class="cls-6" d="M33.4149,15.0745A5.169,5.169,0,1,1,38.57,9.9056a5.1612,5.1612,0,0,1-5.155,5.1689"/><ellipse class="cls-7" cx="33.4149" cy="9.9056" rx="5.155" ry="5.1689"/><path class="cls-6" d="M33.4149,90.8245a5.169,5.169,0,1,1,5.155-5.1689,5.1621,5.1621,0,0,1-5.155,5.1689"/><path class="cls-7" d="M33.4149,90.8245a5.169,5.169,0,1,1,5.155-5.1689A5.1621,5.1621,0,0,1,33.4149,90.8245Z"/><path class="cls-6" d="M137.3055,20.4231a5.1689,5.1689,0,1,1,5.1559-5.1689,5.1612,5.1612,0,0,1-5.1559,5.1689"/><path class="cls-7" d="M137.3055,20.4231a5.1689,5.1689,0,1,1,5.1559-5.1689A5.1612,5.1612,0,0,1,137.3055,20.4231Z"/><text class="cls-8" transform="translate(48.063 10.0707) rotate(90)">MODE</text><path class="cls-6" d="M57.7324,18.8978a3.823,3.823,0,1,1,3.813-3.823,3.8183,3.8183,0,0,1-3.813,3.823"/><path class="cls-9" d="M57.7324,18.8978a3.823,3.823,0,1,1,3.813-3.823A3.8183,3.8183,0,0,1,57.7324,18.8978Z"/><text class="cls-8" transform="translate(38.0283 74.0971) rotate(90)">PWM</text><path class="cls-10" d="M37.8843,37.0092V35.8033h2.005v1.2059a1.286,1.286,0,0,1-.138.6261.8724.8724,0,0,1-.369.3679,1.0947,1.0947,0,0,1-.505.1171.9724.9724,0,0,1-.727-.271A1.1633,1.1633,0,0,1,37.8843,37.0092Zm2.556,0v-1.886h-5.104v.68h2.001v1.2059a2.3675,2.3675,0,0,0,.181.9771,1.311,1.311,0,0,0,.527.607,1.6012,1.6012,0,0,0,.838.2069,1.5519,1.5519,0,0,0,.81-.208,1.4255,1.4255,0,0,0,.549-.6139A2.1869,2.1869,0,0,0,40.44,37.0092Z"/><path class="cls-10" d="M38.0565,42.9114h-.333a2.3452,2.3452,0,0,1-1.402-.3569,1.1844,1.1844,0,0,1-.488-1.0171,1.2415,1.2415,0,0,1,.219-.7319,1.4056,1.4056,0,0,1,.644-.4831,2.7662,2.7662,0,0,1,1.027-.17h.333a2.76,2.76,0,0,1,1.021.1691,1.386,1.386,0,0,1,.642.48,1.2369,1.2369,0,0,1,.219.729,1.2642,1.2642,0,0,1-.217.745,1.3454,1.3454,0,0,1-.64.474A2.8722,2.8722,0,0,1,38.0565,42.9114Zm-.333.674h.325a3.1307,3.1307,0,0,0,1.31-.253,1.9253,1.9253,0,0,0,.853-.717,1.9519,1.9519,0,0,0,.298-1.085,1.93,1.93,0,0,0-.298-1.0689,1.9648,1.9648,0,0,0-.855-.7261,3.0866,3.0866,0,0,0-1.308-.2579h-.325a3.0619,3.0619,0,0,0-1.307.26,1.9768,1.9768,0,0,0-.853.73,2.0979,2.0979,0,0,0-.001,2.1539,1.9134,1.9134,0,0,0,.849.713A3.1661,3.1661,0,0,0,37.7235,43.5854Z"/><polygon class="cls-10" points="40.44 49.537 36.945 48.752 36.261 48.643 36.875 48.504 40.44 47.521 40.44 47.448 40.44 46.95 36.875 45.94 36.275 45.801 36.941 45.702 40.44 44.899 40.44 44.22 35.336 45.454 35.336 45.58 35.336 46.074 39.062 47.161 39.444 47.241 39.062 47.318 35.336 48.367 35.336 48.5 35.336 48.987 40.44 50.221 40.44 49.537"/><polygon class="cls-10" points="35.883 51.647 37.698 51.647 37.698 53.852 38.245 53.852 38.245 51.647 39.89 51.647 39.89 54.174 40.441 54.174 40.441 51.647 40.441 50.967 35.336 50.967 35.336 51.514 35.336 54.21 35.883 54.21 35.883 51.647"/><path class="cls-10" d="M37.9508,55.7272H39.89v1.01a1.1722,1.1722,0,0,1-.26.834.9475.9475,0,0,1-.722.273.9624.9624,0,0,1-.487-.1239.8649.8649,0,0,1-.344-.37,1.2907,1.2907,0,0,1-.126-.5961Zm-.407,1.826a1.56,1.56,0,0,0,.535.717,1.3754,1.3754,0,0,0,.829.258,1.4167,1.4167,0,0,0,1.138-.463,1.9915,1.9915,0,0,0,.394-1.328v-1.69h-5.104v.68h2.068v1.188l-2.068,1.108v.729h.042Z"/><polygon class="cls-10" points="152.72 54.045 152.72 54.922 156.892 56.587 152.72 58.252 152.72 58.546 152.72 59.128 157.824 59.128 157.824 58.452 155.829 58.452 153.705 58.515 157.824 56.846 157.824 56.331 153.702 54.659 155.829 54.722 157.824 54.722 157.824 54.045 152.72 54.045"/><path class="cls-10" d="M155.1035,49.6012h.333a2.3454,2.3454,0,0,1,1.402.357,1.1846,1.1846,0,0,1,.4879,1.0171,1.2415,1.2415,0,0,1-.219.7319,1.4056,1.4056,0,0,1-.6439.483,2.764,2.764,0,0,1-1.027.17h-.333a2.7589,2.7589,0,0,1-1.021-.1691,1.386,1.386,0,0,1-.6421-.48,1.2366,1.2366,0,0,1-.219-.729,1.2647,1.2647,0,0,1,.217-.745,1.3469,1.3469,0,0,1,.64-.474A2.874,2.874,0,0,1,155.1035,49.6012Zm.333-.674h-.3251a3.1321,3.1321,0,0,0-1.31.253,1.9264,1.9264,0,0,0-.8531.7171,1.9515,1.9515,0,0,0-.2979,1.0849,1.93,1.93,0,0,0,.2979,1.069,1.966,1.966,0,0,0,.855.7261,3.0866,3.0866,0,0,0,1.308.2579h.3251a3.0614,3.0614,0,0,0,1.3069-.26,1.9775,1.9775,0,0,0,.853-.73,2.0979,2.0979,0,0,0,.001-2.1539,1.9128,1.9128,0,0,0-.849-.713A3.1659,3.1659,0,0,0,155.4365,48.9272Z"/><polygon class="cls-10" points="152.72 44.668 152.72 46.306 152.72 48.612 153.271 48.612 153.271 46.979 157.824 46.979 157.824 46.306 153.271 46.306 153.271 44.668 152.72 44.668"/><path class="cls-10" d="M155.1035,40.7536h.333a2.3454,2.3454,0,0,1,1.402.3569,1.1846,1.1846,0,0,1,.4879,1.0171,1.2415,1.2415,0,0,1-.219.7319,1.4051,1.4051,0,0,1-.6439.4831,2.7662,2.7662,0,0,1-1.027.17h-.333a2.761,2.761,0,0,1-1.021-.169,1.3866,1.3866,0,0,1-.6421-.48,1.2369,1.2369,0,0,1-.219-.729,1.2642,1.2642,0,0,1,.217-.745,1.3462,1.3462,0,0,1,.64-.474A2.8718,2.8718,0,0,1,155.1035,40.7536Zm.333-.6741h-.3251a3.13,3.13,0,0,0-1.31.2531,1.9262,1.9262,0,0,0-.8531.717,1.9518,1.9518,0,0,0-.2979,1.085,1.93,1.93,0,0,0,.2979,1.0689,1.9654,1.9654,0,0,0,.855.7261,3.0866,3.0866,0,0,0,1.308.2579h.3251a3.0614,3.0614,0,0,0,1.3069-.26,1.9773,1.9773,0,0,0,.853-.73,2.0981,2.0981,0,0,0,.001-2.154,1.9128,1.9128,0,0,0-.849-.713A3.1659,3.1659,0,0,0,155.4365,40.08Z"/><path class="cls-10" d="M155.2091,38.387H153.27v-1.01a1.1724,1.1724,0,0,1,.26-.834.9475.9475,0,0,1,.7221-.2729.9613.9613,0,0,1,.4869.1239.8644.8644,0,0,1,.344.37,1.29,1.29,0,0,1,.126.596Zm.4071-1.826a1.5613,1.5613,0,0,0-.5351-.717,1.3753,1.3753,0,0,0-.8289-.258,1.4169,1.4169,0,0,0-1.1381.463,1.9924,1.9924,0,0,0-.394,1.328v1.69h5.104v-.68h-2.068V37.199l2.068-1.108v-.729h-.042Z"/><text class="cls-8" transform="translate(150.4658 21.6547) rotate(-90)">S<tspan class="cls-11" x="2.4541" y="0">T</tspan><tspan class="cls-12" x="4.4648" y="0">A</tspan><tspan x="6.707" y="0">TUS</tspan></text><polyline class="cls-7" points="67.909 72.867 42.21 72.867 42.21 82.78 67.909 82.78"/><rect class="cls-13" x="43.6787" y="76.9061" width="2.447" height="2.447"/><rect class="cls-7" x="43.6787" y="76.9061" width="2.447" height="2.447"/><rect class="cls-13" x="47.6107" y="74.825" width="17.36" height="6.241"/><polygon class="cls-3" points="128.239 85.961 128.239 80.792 128.239 75.069 145.509 75.069 145.509 80.516 145.509 85.961 128.239 85.961"/><line class="cls-6" x1="145.5086" y1="80.5159" x2="128.2386" y2="80.7919"/><line class="cls-7" x1="145.5086" y1="80.5159" x2="128.2386" y2="80.7919"/><line class="cls-7" x1="134.3582" y1="75.0696" x2="134.3582" y2="85.9617"/><line class="cls-7" x1="139.9871" y1="75.0696" x2="139.9871" y2="85.9617"/><text class="cls-8" transform="translate(150.4658 85.5971) rotate(-90)">LIMIT</text><rect class="cls-13" x="72.8037" y="5.684" width="47.481" height="83.337"/><rect class="cls-6" x="82.4668" y="9.707" width="3.176" height="76.6761"/><rect class="cls-6" x="107.8707" y="9.7061" width="3.439" height="76.677"/><path class="cls-6" d="M99.7509,85.932l-.27-4.3047a3.2807,3.2807,0,0,0,1.5977-.5693,2.3913,2.3913,0,0,0,.8891-1.9971,2.2105,2.2105,0,0,0-.4546-1.4931,1.3613,1.3613,0,0,0-1.0537-.5244,1.3426,1.3426,0,0,0-1.0185.499,5.785,5.785,0,0,0-.8491,2.3174,9.8339,9.8339,0,0,1-1.7779,4.2441,3.5735,3.5735,0,0,1-2.8261,1.2783,3.8425,3.8425,0,0,1-2.1324-.6533,4.35,4.35,0,0,1-1.5781-1.9678,9.19,9.19,0,0,1-.5742-3.6006,7.3626,7.3626,0,0,1,1.0439-4.2793,4.5054,4.5054,0,0,1,3.3208-1.7529l.2495,4.2647A1.9924,1.9924,0,0,0,92.43,79.61a1.8142,1.8142,0,0,0,.3344,1.1884,1.0251,1.0251,0,0,0,.814.3994.8144.8144,0,0,0,.6294-.3291,3.7006,3.7006,0,0,0,.539-1.5185A18.9944,18.9944,0,0,1,96.04,75.101a4.4756,4.4756,0,0,1,1.623-1.8682,4.1137,4.1137,0,0,1,2.167-.584,4.6425,4.6425,0,0,1,2.5972.7793,4.8762,4.8762,0,0,1,1.8023,2.1768,8.7965,8.7965,0,0,1,.6142,3.5254q0,3.7353-1.438,5.1738A5.6735,5.6735,0,0,1,99.7509,85.932Z"/><path class="cls-6" d="M89.9535,70.391v-7.52a5.1448,5.1448,0,0,1,1.1684-3.6807,4.382,4.382,0,0,1,3.3257-1.2236A4.5156,4.5156,0,0,1,97.913,59.3a5.7788,5.7788,0,0,1,1.2485,4.07v2.4766h5.4331V70.391Zm6.2417-4.5439V64.7387a2.8561,2.8561,0,0,0-.4541-1.8379,1.4659,1.4659,0,0,0-1.1636-.5293,1.6241,1.6241,0,0,0-1.1684.46,2.3793,2.3793,0,0,0-.48,1.7276v1.2881Z"/><path class="cls-6" d="M102.1776,48.3373V53.473l2.417.7139V58.806L89.9535,53.3031V48.3685l14.6411-5.5019v4.7383Zm-3.166.9385L93.7484,50.891l5.2632,1.6Z"/><path class="cls-6" d="M104.5946,41.37H89.9535v-7.541a10.9518,10.9518,0,0,1,.3594-3.206,3.4154,3.4154,0,0,1,1.3335-1.7872,4.0387,4.0387,0,0,1,2.3715-.68,3.9134,3.9134,0,0,1,3.5357,1.9492,5.4616,5.4616,0,0,1,.5791,1.5888,4.5149,4.5149,0,0,1,.54-1.1777,4.5573,4.5573,0,0,1,.77-.7236,5.7517,5.7517,0,0,1,.91-.6338l4.2427-2.1914V32.08l-4.4741,2.418a3.4205,3.4205,0,0,0-1.1289.8193,1.901,1.901,0,0,0-.3394,1.1084v.3994h5.9424Zm-8.709-4.5449V34.9174a6.8083,6.8083,0,0,0-.2-1.1983,1.1946,1.1946,0,0,0-.46-.7343,1.484,1.484,0,0,0-1.9375.165,2.72,2.72,0,0,0-.3794,1.6875v1.9873Z"/><path class="cls-6" d="M89.9535,25.4994V20.975h5.5327l-5.5327-4.7393V10.2182L95.48,15.5609l9.1147-5.582V15.55l-6.021,3.0869,2.4482,2.3379h3.5728v4.5244Z"/><polyline class="cls-14" points="4 113.804 61.855 113.804 61.855 76.906"/><polyline class="cls-15" points="4 109.404 56.292 109.404 56.292 76.906"/><polyline class="cls-16" points="4 105.47 51.146 105.47 51.146 76.906"/><polyline class="cls-17" points="4.283 28.542 40.774 28.543 55.887 33.582"/><polyline class="cls-17" points="198.459 28.542 151.968 28.543 136.855 33.582"/><polyline class="cls-18" points="4 67.298 40.491 67.297 55.604 62.258"/><polyline class="cls-18" points="198.176 67.298 151.685 67.297 136.572 62.258"/></svg>