<svg id="Layer_1" data-name="Layer 1" xmlns="http://www.w3.org/2000/svg" viewBox="0 0 203.444 104.4805"><defs><style>.cls-1{fill:#e5e6e6;}.cls-12,.cls-2,.cls-4,.cls-5,.cls-6,.cls-8{fill:none;stroke:#221f1f;stroke-miterlimit:10;}.cls-2{stroke-width:0.485px;}.cls-14,.cls-17,.cls-3{fill:#221f1f;}.cls-4{stroke-width:0.44px;}.cls-5{stroke-width:0.257px;}.cls-6{stroke-width:0.769px;}.cls-7{fill:#bc2030;}.cls-8{stroke-width:0.45px;}.cls-9{fill:#2c2929;}.cls-10{fill:#323031;}.cls-11{fill:#6a5f27;}.cls-12{stroke-width:0.559px;}.cls-13{fill:#fff;}.cls-14{font-size:7.762px;}.cls-14,.cls-17{font-family:Verdana;}.cls-15{letter-spacing:-0.056em;}.cls-16{letter-spacing:-0.059em;}.cls-17{font-size:10.3494px;}.cls-18{letter-spacing:-0.071em;}</style></defs><polygon class="cls-1" points="203.201 81.968 192.882 74.601 192.882 28.587 203.201 22.523 203.201 6.447 198.041 0.243 6.593 0.243 0.243 6.447 0.243 22.523 10.562 28.587 10.034 75.758 0.243 81.968 0.243 98.34 6.593 104.237 197.115 103.179 203.201 96.564 203.201 81.968"/><polygon class="cls-2" points="203.201 81.968 192.882 74.601 192.882 28.587 203.201 22.523 203.201 6.447 198.041 0.243 6.593 0.243 0.243 6.447 0.243 22.523 10.562 28.587 10.034 75.758 0.243 81.968 0.243 98.34 6.593 104.237 197.115 103.179 203.201 96.564 203.201 81.968"/><rect class="cls-3" x="71.0267" y="10.9107" width="53.981" height="83.188"/><path class="cls-4" d="M144.9867,79.6774a3.92,3.92,0,1,1,3.92,3.9191A3.92,3.92,0,0,1,144.9867,79.6774Z"/><path class="cls-3" d="M146.6146,79.6774a2.2915,2.2915,0,1,1,2.292,2.2911,2.2918,2.2918,0,0,1-2.292-2.2911"/><path class="cls-5" d="M146.6146,79.6774a2.2915,2.2915,0,1,1,2.292,2.2911A2.2918,2.2918,0,0,1,146.6146,79.6774Z"/><path class="cls-6" d="M142.0892,31.1218a6.853,6.853,0,1,1,6.854,6.853A6.8538,6.8538,0,0,1,142.0892,31.1218Z"/><path class="cls-7" d="M144.9359,31.1218a4.0065,4.0065,0,1,1,4.007,4.0061,4.0071,4.0071,0,0,1-4.007-4.0061"/><path class="cls-8" d="M144.9359,31.1218a4.0065,4.0065,0,1,1,4.007,4.0061A4.0071,4.0071,0,0,1,144.9359,31.1218Z"/><rect class="cls-9" x="48.4027" y="31.1217" width="18.92" height="42.287"/><rect class="cls-10" x="49.9897" y="33.4527" width="15.745" height="38.104"/><rect class="cls-11" x="58.2257" y="59.1527" width="3.274" height="3.274"/><rect class="cls-11" x="53.9037" y="59.1527" width="3.275" height="3.274"/><rect class="cls-11" x="58.2257" y="54.9487" width="3.274" height="3.274"/><rect class="cls-11" x="53.9037" y="54.9487" width="3.275" height="3.274"/><rect class="cls-11" x="58.2257" y="50.7437" width="3.274" height="3.275"/><rect class="cls-11" x="53.9037" y="50.7437" width="3.275" height="3.275"/><rect class="cls-11" x="58.2257" y="46.5396" width="3.274" height="3.274"/><rect class="cls-11" x="53.9037" y="46.5396" width="3.275" height="3.274"/><rect class="cls-11" x="58.3857" y="42.0117" width="3.274" height="3.275"/><rect class="cls-11" x="54.0637" y="42.0117" width="3.274" height="3.275"/><polyline class="cls-2" points="45.293 101.657 45.293 86.508 27.497 86.508 27.497 101.657"/><polyline class="cls-2" points="175.432 100.466 175.432 85.318 157.637 85.318 157.637 100.466"/><polyline class="cls-2" points="45.823 3.941 45.823 19.097 28.027 19.097 28.027 3.941"/><polyline class="cls-2" points="175.432 2.789 175.432 17.945 157.637 17.945 157.637 2.789"/><line class="cls-2" x1="157.6371" y1="96.5632" x2="45.2931" y2="96.5632"/><line class="cls-12" x1="45.8226" y1="7.7106" x2="157.6366" y2="7.7106"/><polyline class="cls-2" points="28.027 7.711 9.328 7.711 6.593 9.946 6.946 19.098 16.914 24.94 17.089 80.157 6.593 86.508 6.593 94.799 8.357 96.564 27.498 96.564"/><polyline class="cls-2" points="175.432 96.034 194.734 96.034 197.116 94.005 197.116 88.977 186.795 88.977 186.884 14.444 197.116 14.444 197.116 9.681 195.087 7.711 175.432 7.711"/><rect class="cls-13" x="109.5287" y="50.7437" width="3.175" height="39.733"/><rect class="cls-13" x="83.8607" y="13.7996" width="3.439" height="76.678"/><polyline class="cls-1" points="175.862 96.034 194.782 96.034 197.116 94.005 197.116 88.977 187.001 88.977 187.087 14.444 197.116 14.444 197.116 9.681 195.128 7.711 175.862 7.711"/><polyline class="cls-2" points="175.862 96.034 194.782 96.034 197.116 94.005 197.116 88.977 187.001 88.977 187.087 14.444 197.116 14.444 197.116 9.681 195.128 7.711 175.862 7.711"/><text class="cls-14" transform="translate(125.8754 91.7855)">S<tspan class="cls-15" x="5.3062" y="0">T</tspan><tspan class="cls-16" x="9.6543" y="0">A</tspan><tspan x="14.5024" y="0">TUS</tspan></text><text class="cls-14" transform="translate(153.3763 14.5531) rotate(180)">MODE</text><text class="cls-14" transform="translate(25.4477 82.3402) rotate(-90)"><tspan xml:space="preserve">A        B        C</tspan></text><text class="cls-17" transform="translate(182.144 72.2367) rotate(-90)">V+</text><text class="cls-17" transform="translate(182.144 42.6586) rotate(-90)"><tspan class="cls-18">V</tspan><tspan x="6.3398" y="0">-</tspan></text><path class="cls-13" d="M102.0135,89.9735l-.2695-4.3046a3.2806,3.2806,0,0,0,1.5976-.5694,2.3911,2.3911,0,0,0,.8892-1.9971,2.2111,2.2111,0,0,0-.4546-1.4931,1.3615,1.3615,0,0,0-1.0537-.5244,1.3427,1.3427,0,0,0-1.0186.499,5.7857,5.7857,0,0,0-.8491,2.3174,9.8347,9.8347,0,0,1-1.7778,4.2441,3.5736,3.5736,0,0,1-2.8262,1.2783,3.8412,3.8412,0,0,1-2.1323-.6533A4.3493,4.3493,0,0,1,92.54,86.8026a9.19,9.19,0,0,1-.5742-3.6,7.3623,7.3623,0,0,1,1.044-4.2793,4.5053,4.5053,0,0,1,3.3208-1.753l.2495,4.2647a1.9924,1.9924,0,0,0-1.8877,2.2168,1.8141,1.8141,0,0,0,.3345,1.1885,1.0248,1.0248,0,0,0,.8139.3994.8147.8147,0,0,0,.6294-.3291,3.7,3.7,0,0,0,.5391-1.5186,18.9918,18.9918,0,0,1,1.2934-4.249,4.4765,4.4765,0,0,1,1.6231-1.8682,4.1134,4.1134,0,0,1,2.167-.584,4.6422,4.6422,0,0,1,2.5971.7793,4.8773,4.8773,0,0,1,1.8023,2.1768,8.7948,8.7948,0,0,1,.6142,3.5254q0,3.7353-1.4379,5.1738A5.6737,5.6737,0,0,1,102.0135,89.9735Z"/><path class="cls-13" d="M92.2161,74.4325v-7.52a5.145,5.145,0,0,1,1.1685-3.6807A4.3817,4.3817,0,0,1,96.71,62.0087a4.5154,4.5154,0,0,1,3.4653,1.333,5.7789,5.7789,0,0,1,1.2485,4.07v2.4766h5.4331v4.5439Zm6.2417-4.5439V68.78a2.8555,2.8555,0,0,0-.4541-1.8379A1.4662,1.4662,0,0,0,96.84,66.413a1.6239,1.6239,0,0,0-1.1684.46,2.3793,2.3793,0,0,0-.48,1.7275v1.2881Z"/><path class="cls-13" d="M104.44,52.3788v5.1358l2.417.7138v4.6192l-14.6411-5.503V52.41l14.6411-5.502v4.7383Zm-3.166.9385L96.011,54.9325l5.2632,1.6Z"/><path class="cls-13" d="M106.8572,45.411H92.2161V37.87a10.9553,10.9553,0,0,1,.3594-3.206,3.4152,3.4152,0,0,1,1.3335-1.7871,4.0381,4.0381,0,0,1,2.3716-.68,3.9134,3.9134,0,0,1,3.5356,1.9492,5.4612,5.4612,0,0,1,.5791,1.5889,4.5138,4.5138,0,0,1,.54-1.1778,4.5556,4.5556,0,0,1,.7695-.7236,5.7514,5.7514,0,0,1,.91-.6338l4.2426-2.1914V36.121l-4.4741,2.418a3.4205,3.4205,0,0,0-1.1289.8193,1.9009,1.9009,0,0,0-.3393,1.1084v.3994h5.9423Zm-8.7089-4.5449V38.9589a6.81,6.81,0,0,0-.2-1.1982,1.1944,1.1944,0,0,0-.4594-.7344,1.484,1.484,0,0,0-1.9375.165,2.7191,2.7191,0,0,0-.3794,1.6875v1.9873Z"/><path class="cls-13" d="M92.2161,29.5409V25.0165h5.5327l-5.5327-4.7392V14.26l5.5264,5.3427,9.1147-5.582v5.5713l-6.021,3.0869,2.4483,2.3379h3.5727v4.5244Z"/><path class="cls-13" d="M109.3416,47.8905V43.8378l6.0684-1.5635-6.0684-1.5517V36.6718h9.9736v2.5244h-7.6059l7.6059,1.9443v2.2852l-7.6059,1.94h7.6059v2.5244Z"/><path class="cls-13" d="M117.6688,28.5741v3.4991l1.6464.4863V35.706l-9.9736-3.7481V28.5956l9.9736-3.748v3.2275Zm-2.1568.64-3.5849,1.1006,3.5849,1.09Z"/><path class="cls-13" d="M109.3416,24.5487V21.1532l3.0684-1.7646L109.3416,17.67V14.31l4.8306,3.1045,5.143-3.3975v3.4629l-3.2041,1.97,3.2041,1.97v3.4423l-5.1977-3.44Z"/></svg>