<svg id="Layer_1" data-name="Layer 1" xmlns="http://www.w3.org/2000/svg" viewBox="0 0 338.8784 104.4805"><defs><style>.cls-1,.cls-10,.cls-11,.cls-12,.cls-14,.cls-18,.cls-2,.cls-3,.cls-4,.cls-5,.cls-6,.cls-8{fill:none;}.cls-1{stroke:#231f20;stroke-width:15.4936px;}.cls-1,.cls-2,.cls-3,.cls-4,.cls-5,.cls-6{stroke-linecap:round;stroke-linejoin:round;}.cls-2{stroke:#fff;stroke-width:13.8627px;}.cls-10,.cls-11,.cls-12,.cls-14,.cls-18,.cls-3,.cls-8{stroke:#221f1f;}.cls-3,.cls-4{stroke-width:16.248px;}.cls-4{stroke:#e9262a;}.cls-5{stroke:#37b24a;}.cls-5,.cls-6{stroke-width:1.5px;}.cls-6{stroke:#d6dd28;}.cls-7{fill:#e5e6e6;}.cls-10,.cls-11,.cls-12,.cls-14,.cls-18,.cls-8{stroke-miterlimit:10;}.cls-8{stroke-width:0.485px;}.cls-20,.cls-23,.cls-9{fill:#221f1f;}.cls-10{stroke-width:0.44px;}.cls-11{stroke-width:0.257px;}.cls-12{stroke-width:0.769px;}.cls-13{fill:#bc2030;}.cls-14{stroke-width:0.45px;}.cls-15{fill:#2c2929;}.cls-16{fill:#323031;}.cls-17{fill:#6a5f27;}.cls-18{stroke-width:0.559px;}.cls-19{fill:#fff;}.cls-20{font-size:7.762px;}.cls-20,.cls-23{font-family:Verdana;}.cls-21{letter-spacing:-0.056em;}.cls-22{letter-spacing:-0.059em;}.cls-23{font-size:10.3494px;}.cls-24{letter-spacing:-0.071em;}</style></defs><line class="cls-1" x1="8.124" y1="34.0671" x2="94.2224" y2="34.0671"/><line class="cls-2" x1="8.124" y1="34.0671" x2="94.2224" y2="34.0671"/><line class="cls-3" x1="330.7544" y1="43.4774" x2="252.3064" y2="43.4774"/><line class="cls-4" x1="330.7544" y1="61.4102" x2="256.2954" y2="61.4102"/><line class="cls-3" x1="8.124" y1="54.2843" x2="83.2466" y2="54.2843"/><line class="cls-4" x1="8.124" y1="74.8315" x2="82.583" y2="74.8315"/><polyline class="cls-5" points="254.951 33 282.435 33 282.435 24.279 315.953 24.279"/><polyline class="cls-6" points="255.542 30.738 279.358 30.738 279.358 21.557 315.953 21.557"/><polyline class="cls-6" points="255.541 35.209 284.955 35.209 284.955 26.68 330.754 26.68"/><polyline class="cls-5" points="255.537 37.454 287.324 37.454 287.324 29.081 330.754 29.081"/><polygon class="cls-7" points="271.878 81.968 261.559 74.601 261.559 28.587 271.878 22.523 271.878 6.447 266.718 0.243 75.27 0.243 68.919 6.447 68.919 22.523 79.238 28.587 78.71 75.758 68.919 81.968 68.919 98.34 75.27 104.237 265.792 103.179 271.878 96.564 271.878 81.968"/><polygon class="cls-8" points="271.878 81.968 261.559 74.601 261.559 28.587 271.878 22.523 271.878 6.447 266.718 0.243 75.27 0.243 68.919 6.447 68.919 22.523 79.238 28.587 78.71 75.758 68.919 81.968 68.919 98.34 75.27 104.237 265.792 103.179 271.878 96.564 271.878 81.968"/><rect class="cls-9" x="139.7033" y="10.9107" width="53.981" height="83.188"/><path class="cls-10" d="M213.6633,79.6774a3.92,3.92,0,1,1,3.92,3.9191A3.92,3.92,0,0,1,213.6633,79.6774Z"/><path class="cls-9" d="M215.2912,79.6774a2.2915,2.2915,0,1,1,2.292,2.2911,2.2918,2.2918,0,0,1-2.292-2.2911"/><path class="cls-11" d="M215.2912,79.6774a2.2915,2.2915,0,1,1,2.292,2.2911A2.2918,2.2918,0,0,1,215.2912,79.6774Z"/><path class="cls-12" d="M210.7658,31.1218a6.853,6.853,0,1,1,6.854,6.853A6.8538,6.8538,0,0,1,210.7658,31.1218Z"/><path class="cls-13" d="M213.6125,31.1218a4.0065,4.0065,0,1,1,4.007,4.0061,4.0071,4.0071,0,0,1-4.007-4.0061"/><path class="cls-14" d="M213.6125,31.1218a4.0065,4.0065,0,1,1,4.007,4.0061A4.0071,4.0071,0,0,1,213.6125,31.1218Z"/><rect class="cls-15" x="117.0793" y="31.1217" width="18.92" height="42.287"/><rect class="cls-16" x="118.6663" y="33.4527" width="15.745" height="38.104"/><rect class="cls-17" x="126.9023" y="59.1527" width="3.274" height="3.274"/><rect class="cls-17" x="122.5803" y="59.1527" width="3.275" height="3.274"/><rect class="cls-17" x="126.9023" y="54.9487" width="3.274" height="3.274"/><rect class="cls-17" x="122.5803" y="54.9487" width="3.275" height="3.274"/><rect class="cls-17" x="126.9023" y="50.7437" width="3.274" height="3.275"/><rect class="cls-17" x="122.5803" y="50.7437" width="3.275" height="3.275"/><rect class="cls-17" x="126.9023" y="46.5396" width="3.274" height="3.274"/><rect class="cls-17" x="122.5803" y="46.5396" width="3.275" height="3.274"/><rect class="cls-17" x="127.0623" y="42.0117" width="3.274" height="3.275"/><rect class="cls-17" x="122.7403" y="42.0117" width="3.274" height="3.275"/><polyline class="cls-8" points="113.97 101.657 113.97 86.508 96.174 86.508 96.174 101.657"/><polyline class="cls-8" points="244.109 100.466 244.109 85.318 226.314 85.318 226.314 100.466"/><polyline class="cls-8" points="114.499 3.941 114.499 19.097 96.703 19.097 96.703 3.941"/><polyline class="cls-8" points="244.109 2.789 244.109 17.945 226.314 17.945 226.314 2.789"/><line class="cls-8" x1="226.3137" y1="96.5632" x2="113.9697" y2="96.5632"/><line class="cls-18" x1="114.4992" y1="7.7106" x2="226.3132" y2="7.7106"/><polyline class="cls-8" points="96.703 7.711 78.004 7.711 75.269 9.946 75.622 19.098 85.59 24.94 85.765 80.157 75.269 86.508 75.269 94.799 77.033 96.564 96.174 96.564"/><polyline class="cls-8" points="244.109 96.034 263.411 96.034 265.793 94.005 265.793 88.977 255.472 88.977 255.561 14.444 265.793 14.444 265.793 9.681 263.764 7.711 244.109 7.711"/><rect class="cls-19" x="178.2053" y="50.7437" width="3.175" height="39.733"/><rect class="cls-19" x="152.5373" y="13.7996" width="3.439" height="76.678"/><polyline class="cls-7" points="244.538 96.034 263.458 96.034 265.792 94.005 265.792 88.977 255.677 88.977 255.763 14.444 265.792 14.444 265.792 9.681 263.804 7.711 244.538 7.711"/><polyline class="cls-8" points="244.538 96.034 263.458 96.034 265.792 94.005 265.792 88.977 255.677 88.977 255.763 14.444 265.792 14.444 265.792 9.681 263.804 7.711 244.538 7.711"/><text class="cls-20" transform="translate(194.5519 91.7855)">S<tspan class="cls-21" x="5.3062" y="0">T</tspan><tspan class="cls-22" x="9.6543" y="0">A</tspan><tspan x="14.5024" y="0">TUS</tspan></text><text class="cls-20" transform="translate(222.0531 14.5536) rotate(180)">MODE</text><text class="cls-20" transform="translate(94.1242 82.3398) rotate(-90)"><tspan xml:space="preserve">A        B        C</tspan></text><text class="cls-23" transform="translate(250.8205 72.2362) rotate(-90)">V+</text><text class="cls-23" transform="translate(250.8205 42.6581) rotate(-90)"><tspan class="cls-24">V</tspan><tspan x="6.3398" y="0">-</tspan></text><path class="cls-19" d="M170.69,89.9735l-.27-4.3046a3.2807,3.2807,0,0,0,1.5977-.5694,2.391,2.391,0,0,0,.8891-1.9971,2.211,2.211,0,0,0-.4545-1.4931,1.3615,1.3615,0,0,0-1.0538-.5244,1.3426,1.3426,0,0,0-1.0185.499,5.7857,5.7857,0,0,0-.8491,2.3174,9.8334,9.8334,0,0,1-1.7779,4.2441,3.5732,3.5732,0,0,1-2.8261,1.2783,3.8417,3.8417,0,0,1-2.1324-.6533,4.35,4.35,0,0,1-1.5781-1.9678,9.19,9.19,0,0,1-.5742-3.6,7.3624,7.3624,0,0,1,1.0439-4.2793,4.5055,4.5055,0,0,1,3.3208-1.753l.25,4.2647a1.9924,1.9924,0,0,0-1.8876,2.2168,1.8146,1.8146,0,0,0,.3344,1.1885,1.0251,1.0251,0,0,0,.814.3994.8147.8147,0,0,0,.6294-.3291,3.7019,3.7019,0,0,0,.539-1.5186,18.9961,18.9961,0,0,1,1.2935-4.249,4.4751,4.4751,0,0,1,1.6231-1.8682,4.1131,4.1131,0,0,1,2.1669-.584,4.6425,4.6425,0,0,1,2.5972.7793,4.8773,4.8773,0,0,1,1.8023,2.1768,8.7965,8.7965,0,0,1,.6142,3.5254q0,3.7353-1.438,5.1738A5.6735,5.6735,0,0,1,170.69,89.9735Z"/><path class="cls-19" d="M160.8927,74.4325v-7.52a5.1454,5.1454,0,0,1,1.1684-3.6807,4.382,4.382,0,0,1,3.3257-1.2236,4.5156,4.5156,0,0,1,3.4654,1.333,5.7789,5.7789,0,0,1,1.2485,4.07v2.4766h5.4331v4.5439Zm6.2417-4.5439V68.78a2.8561,2.8561,0,0,0-.4541-1.8379,1.4662,1.4662,0,0,0-1.1636-.5293,1.6238,1.6238,0,0,0-1.1684.46,2.3788,2.3788,0,0,0-.48,1.7275v1.2881Z"/><path class="cls-19" d="M173.1168,52.3788v5.1358l2.417.7138v4.6192l-14.6411-5.503V52.41l14.6411-5.502v4.7383Zm-3.166.9385-5.2632,1.6152,5.2632,1.6Z"/><path class="cls-19" d="M175.5338,45.411H160.8927V37.87a10.9518,10.9518,0,0,1,.3594-3.206,3.4147,3.4147,0,0,1,1.3335-1.7871,4.038,4.038,0,0,1,2.3715-.68,3.9134,3.9134,0,0,1,3.5357,1.9492,5.4612,5.4612,0,0,1,.5791,1.5889,4.5142,4.5142,0,0,1,.54-1.1778,4.5573,4.5573,0,0,1,.77-.7236,5.7517,5.7517,0,0,1,.91-.6338l4.2427-2.1914V36.121L171.06,38.539a3.4205,3.4205,0,0,0-1.1289.8193,1.901,1.901,0,0,0-.3394,1.1084v.3994h5.9424Zm-8.709-4.5449V38.9589a6.8062,6.8062,0,0,0-.2-1.1982,1.1945,1.1945,0,0,0-.4595-.7344,1.484,1.484,0,0,0-1.9375.165,2.72,2.72,0,0,0-.3794,1.6875v1.9873Z"/><path class="cls-19" d="M160.8927,29.5409V25.0165h5.5327l-5.5327-4.7392V14.26l5.5264,5.3427,9.1147-5.582v5.5713l-6.021,3.0869,2.4483,2.3379h3.5727v4.5244Z"/><path class="cls-19" d="M178.0182,47.8905V43.8378l6.0683-1.5635-6.0683-1.5517V36.6718h9.9736v2.5244h-7.6059l7.6059,1.9443v2.2852l-7.6059,1.94h7.6059v2.5244Z"/><path class="cls-19" d="M186.3453,28.5741v3.4991l1.6465.4863V35.706l-9.9736-3.7481V28.5956l9.9736-3.748v3.2275Zm-2.1567.64-3.585,1.1006,3.585,1.09Z"/><path class="cls-19" d="M178.0182,24.5487V21.1532l3.0683-1.7646L178.0182,17.67V14.31l4.8305,3.1045,5.1431-3.3975v3.4629l-3.2041,1.97,3.2041,1.97v3.4423l-5.1977-3.44Z"/></svg>