<svg id="Layer_1" data-name="Layer 1" xmlns="http://www.w3.org/2000/svg" viewBox="0 0 144.636 95.316"><defs><style>.cls-1{fill:#f2f2f2;}.cls-10,.cls-2,.cls-3,.cls-7,.cls-9{fill:none;stroke:#221f1f;stroke-miterlimit:10;}.cls-2{stroke-width:0.479px;}.cls-3{stroke-width:0.598px;}.cls-4{fill:#a6a7aa;}.cls-5{fill:#846c31;}.cls-6{fill:#fff;}.cls-7{stroke-width:0.458px;}.cls-8{font-size:3.5897px;font-family:Verdana;}.cls-13,.cls-8{fill:#221f1f;}.cls-9{stroke-width:0.339px;}.cls-10{stroke-width:0.263px;}.cls-11{letter-spacing:-0.056em;}.cls-12{letter-spacing:-0.059em;}</style></defs><polygon class="cls-1" points="144.397 19.879 144.397 5.928 138.278 0.299 6.114 0.299 0.24 5.684 0.24 19.879 9.294 33.884 9.049 61.661 0.24 76.905 0.24 90.122 5.624 95.017 139.257 95.017 144.397 90.366 144.397 76.171 135.741 61.661 135.741 33.885 144.397 19.879"/><polygon class="cls-2" points="144.397 19.879 144.397 5.928 138.278 0.299 6.114 0.299 0.24 5.684 0.24 19.879 9.294 33.884 9.049 61.661 0.24 76.905 0.24 90.122 5.624 95.017 139.257 95.017 144.397 90.366 144.397 76.171 135.741 61.661 135.741 33.885 144.397 19.879"/><polyline class="cls-3" points="100.097 46.067 125.062 46.068 125.062 49.494 98.873 49.494"/><polyline class="cls-3" points="43.77 46.02 18.106 46.02 18.106 48.944 45.029 48.944"/><rect class="cls-4" x="104.9994" y="25.7531" width="16.405" height="16.405"/><rect class="cls-4" x="104.6974" y="53.101" width="16.405" height="16.4041"/><rect class="cls-4" x="23.8085" y="25.7811" width="16.405" height="16.405"/><rect class="cls-4" x="23.5065" y="53.1291" width="16.405" height="16.405"/><path class="cls-5" d="M112.9,40.6292a6.7445,6.7445,0,1,1,6.745-6.7439,6.744,6.744,0,0,1-6.745,6.7439"/><path class="cls-5" d="M112.9,68.4056a6.7445,6.7445,0,1,1,6.745-6.7439,6.744,6.744,0,0,1-6.745,6.7439"/><path class="cls-5" d="M31.8605,40.6292a6.7445,6.7445,0,1,1,6.745-6.745,6.7442,6.7442,0,0,1-6.745,6.745"/><path class="cls-5" d="M31.8605,68.4056a6.7445,6.7445,0,1,1,6.745-6.7439,6.7449,6.7449,0,0,1-6.745,6.7439"/><polyline class="cls-3" points="127.509 0.299 127.509 5.684 101.321 5.684"/><polyline class="cls-3" points="127.509 95.017 127.509 90.122 101.321 90.122"/><polyline class="cls-3" points="43.805 90.122 18.106 90.122 18.106 95.017"/><polyline class="cls-3" points="43.805 5.684 18.106 5.684 18.106 0.299"/><rect class="cls-1" x="43.8045" y="0.299" width="57.516" height="94.718"/><rect class="cls-3" x="43.8045" y="0.299" width="57.516" height="94.718"/><path class="cls-6" d="M135.1124,15.38a5.169,5.169,0,1,1,5.1549-5.169,5.162,5.162,0,0,1-5.1549,5.169"/><path class="cls-7" d="M135.1124,15.38a5.169,5.169,0,1,1,5.1549-5.169A5.162,5.162,0,0,1,135.1124,15.38Z"/><path class="cls-6" d="M135.1124,91.13a5.169,5.169,0,1,1,5.1549-5.169,5.1614,5.1614,0,0,1-5.1549,5.169"/><path class="cls-7" d="M135.1124,91.13a5.169,5.169,0,1,1,5.1549-5.169A5.1614,5.1614,0,0,1,135.1124,91.13Z"/><path class="cls-6" d="M9.3107,15.0745a5.169,5.169,0,1,1,5.1549-5.1689,5.1612,5.1612,0,0,1-5.1549,5.1689"/><ellipse class="cls-7" cx="9.3107" cy="9.9056" rx="5.155" ry="5.1689"/><path class="cls-6" d="M9.3107,90.8245a5.169,5.169,0,1,1,5.1549-5.1689,5.162,5.162,0,0,1-5.1549,5.1689"/><path class="cls-7" d="M9.3107,90.8245a5.169,5.169,0,1,1,5.1549-5.1689A5.162,5.162,0,0,1,9.3107,90.8245Z"/><path class="cls-6" d="M113.2012,20.4231a5.1689,5.1689,0,1,1,5.1559-5.1689,5.1612,5.1612,0,0,1-5.1559,5.1689"/><path class="cls-7" d="M113.2012,20.4231a5.1689,5.1689,0,1,1,5.1559-5.1689A5.1612,5.1612,0,0,1,113.2012,20.4231Z"/><text class="cls-8" transform="translate(23.9587 10.0707) rotate(90)">MODE</text><path class="cls-6" d="M33.6281,18.8978a3.823,3.823,0,1,1,3.813-3.823,3.8182,3.8182,0,0,1-3.813,3.823"/><path class="cls-9" d="M33.6281,18.8978a3.823,3.823,0,1,1,3.813-3.823A3.8182,3.8182,0,0,1,33.6281,18.8978Z"/><text class="cls-8" transform="translate(13.924 74.0971) rotate(90)">PWM</text><path class="cls-10" d="M13.78,37.0092V35.8033h2.005v1.2059a1.286,1.286,0,0,1-.138.6261.8718.8718,0,0,1-.369.3679,1.0947,1.0947,0,0,1-.505.1171.9724.9724,0,0,1-.727-.271A1.1633,1.1633,0,0,1,13.78,37.0092Zm2.5561,0v-1.886h-5.104v.68H13.233v1.2059a2.3675,2.3675,0,0,0,.181.9771,1.3116,1.3116,0,0,0,.527.607,1.6013,1.6013,0,0,0,.8381.2069,1.5518,1.5518,0,0,0,.81-.208,1.4255,1.4255,0,0,0,.549-.6139A2.1869,2.1869,0,0,0,16.3361,37.0092Z"/><path class="cls-10" d="M13.9522,42.9114h-.3329a2.3455,2.3455,0,0,1-1.4021-.3569,1.1844,1.1844,0,0,1-.488-1.0171,1.2415,1.2415,0,0,1,.219-.7319,1.4056,1.4056,0,0,1,.644-.4831,2.7664,2.7664,0,0,1,1.0271-.17h.3329a2.7589,2.7589,0,0,1,1.021.1691,1.386,1.386,0,0,1,.642.48,1.2369,1.2369,0,0,1,.219.729,1.2642,1.2642,0,0,1-.217.745,1.3454,1.3454,0,0,1-.64.474A2.8722,2.8722,0,0,1,13.9522,42.9114Zm-.3329.674h.3249a3.1307,3.1307,0,0,0,1.31-.253,1.9253,1.9253,0,0,0,.853-.717,1.9519,1.9519,0,0,0,.298-1.085,1.93,1.93,0,0,0-.298-1.0689,1.9651,1.9651,0,0,0-.8549-.7261,3.0874,3.0874,0,0,0-1.3081-.2579h-.3249a3.0612,3.0612,0,0,0-1.307.26,1.9771,1.9771,0,0,0-.8531.73,2.0982,2.0982,0,0,0-.0009,2.1539,1.9125,1.9125,0,0,0,.8489.713A3.1666,3.1666,0,0,0,13.6193,43.5854Z"/><polygon class="cls-10" points="16.336 49.537 12.841 48.752 12.157 48.643 12.771 48.504 16.336 47.521 16.336 47.448 16.336 46.95 12.771 45.94 12.171 45.801 12.837 45.702 16.336 44.899 16.336 44.22 11.232 45.454 11.232 45.58 11.232 46.074 14.958 47.161 15.34 47.241 14.958 47.318 11.232 48.367 11.232 48.5 11.232 48.987 16.336 50.221 16.336 49.537"/><polygon class="cls-10" points="11.779 51.647 13.593 51.647 13.593 53.852 14.141 53.852 14.141 51.647 15.785 51.647 15.785 54.174 16.336 54.174 16.336 51.647 16.336 50.967 11.231 50.967 11.231 51.514 11.231 54.21 11.779 54.21 11.779 51.647"/><path class="cls-10" d="M13.8466,55.7272h1.9389v1.01a1.1727,1.1727,0,0,1-.26.834.9478.9478,0,0,1-.7221.273.9629.9629,0,0,1-.487-.1239.8649.8649,0,0,1-.344-.37,1.2908,1.2908,0,0,1-.1259-.5961Zm-.407,1.826a1.56,1.56,0,0,0,.5349.717,1.3754,1.3754,0,0,0,.829.258,1.4167,1.4167,0,0,0,1.138-.463,1.9915,1.9915,0,0,0,.3941-1.328v-1.69h-5.104v.68H13.3v1.188l-2.068,1.108v.729h.042Z"/><polygon class="cls-10" points="128.615 54.045 128.615 54.922 132.787 56.587 128.615 58.252 128.615 58.546 128.615 59.128 133.719 59.128 133.719 58.452 131.724 58.452 129.6 58.515 133.719 56.846 133.719 56.331 129.597 54.659 131.724 54.722 133.719 54.722 133.719 54.045 128.615 54.045"/><path class="cls-10" d="M130.9992,49.6012h.333a2.3454,2.3454,0,0,1,1.402.357,1.1846,1.1846,0,0,1,.4879,1.0171,1.2415,1.2415,0,0,1-.219.7319,1.4056,1.4056,0,0,1-.6439.483,2.764,2.764,0,0,1-1.027.17h-.333a2.7592,2.7592,0,0,1-1.021-.1691,1.386,1.386,0,0,1-.6421-.48,1.2366,1.2366,0,0,1-.219-.729,1.264,1.264,0,0,1,.2171-.745,1.3461,1.3461,0,0,1,.64-.474A2.8744,2.8744,0,0,1,130.9992,49.6012Zm.333-.674h-.3251a3.1321,3.1321,0,0,0-1.31.253,1.9261,1.9261,0,0,0-.853.7171,1.9508,1.9508,0,0,0-.298,1.0849,1.93,1.93,0,0,0,.298,1.069,1.9655,1.9655,0,0,0,.855.7261,3.0859,3.0859,0,0,0,1.3079.2579h.3251a3.0614,3.0614,0,0,0,1.3069-.26,1.9775,1.9775,0,0,0,.853-.73,2.0979,2.0979,0,0,0,.001-2.1539,1.9128,1.9128,0,0,0-.849-.713A3.1659,3.1659,0,0,0,131.3322,48.9272Z"/><polygon class="cls-10" points="128.615 44.668 128.615 46.306 128.615 48.612 129.166 48.612 129.166 46.979 133.719 46.979 133.719 46.306 129.166 46.306 129.166 44.668 128.615 44.668"/><path class="cls-10" d="M130.9992,40.7536h.333a2.3454,2.3454,0,0,1,1.402.3569,1.1846,1.1846,0,0,1,.4879,1.0171,1.2415,1.2415,0,0,1-.219.7319,1.4051,1.4051,0,0,1-.6439.4831,2.7662,2.7662,0,0,1-1.027.17h-.333a2.7614,2.7614,0,0,1-1.021-.169,1.3866,1.3866,0,0,1-.6421-.48,1.2369,1.2369,0,0,1-.219-.729,1.2636,1.2636,0,0,1,.2171-.745,1.3454,1.3454,0,0,1,.64-.474A2.8722,2.8722,0,0,1,130.9992,40.7536Zm.333-.6741h-.3251a3.13,3.13,0,0,0-1.31.2531,1.9259,1.9259,0,0,0-.853.717,1.9511,1.9511,0,0,0-.298,1.085,1.93,1.93,0,0,0,.298,1.0689,1.9648,1.9648,0,0,0,.855.7261,3.0859,3.0859,0,0,0,1.3079.2579h.3251a3.0614,3.0614,0,0,0,1.3069-.26,1.9773,1.9773,0,0,0,.853-.73,2.0981,2.0981,0,0,0,.001-2.154,1.9128,1.9128,0,0,0-.849-.713A3.1659,3.1659,0,0,0,131.3322,40.08Z"/><path class="cls-10" d="M131.1048,38.387h-1.939v-1.01a1.1728,1.1728,0,0,1,.26-.834.9475.9475,0,0,1,.7221-.2729.9613.9613,0,0,1,.4869.1239.8644.8644,0,0,1,.344.37,1.29,1.29,0,0,1,.126.596Zm.4071-1.826a1.5618,1.5618,0,0,0-.535-.717,1.3758,1.3758,0,0,0-.829-.258,1.4171,1.4171,0,0,0-1.1381.463,1.9924,1.9924,0,0,0-.394,1.328v1.69h5.104v-.68h-2.068V37.199l2.068-1.108v-.729h-.042Z"/><text class="cls-8" transform="translate(126.3615 21.6547) rotate(-90)">S<tspan class="cls-11" x="2.4541" y="0">T</tspan><tspan class="cls-12" x="4.4648" y="0">A</tspan><tspan x="6.707" y="0">TUS</tspan></text><polyline class="cls-7" points="43.805 72.867 18.106 72.867 18.106 82.78 43.805 82.78"/><rect class="cls-13" x="19.5745" y="76.9061" width="2.447" height="2.447"/><rect class="cls-7" x="19.5745" y="76.9061" width="2.447" height="2.447"/><rect class="cls-13" x="23.5065" y="74.825" width="17.36" height="6.241"/><polygon class="cls-3" points="104.135 85.961 104.135 80.792 104.135 75.069 121.405 75.069 121.405 80.516 121.405 85.961 104.135 85.961"/><line class="cls-6" x1="121.4044" y1="80.5159" x2="104.1343" y2="80.7919"/><line class="cls-7" x1="121.4044" y1="80.5159" x2="104.1343" y2="80.7919"/><line class="cls-7" x1="110.254" y1="75.0696" x2="110.254" y2="85.9617"/><line class="cls-7" x1="115.8829" y1="75.0696" x2="115.8829" y2="85.9617"/><text class="cls-8" transform="translate(126.3615 85.5971) rotate(-90)">LIMIT</text><rect class="cls-13" x="48.6995" y="5.684" width="47.481" height="83.337"/><rect class="cls-6" x="58.3625" y="9.707" width="3.176" height="76.6761"/><rect class="cls-6" x="83.7665" y="9.7061" width="3.439" height="76.677"/><path class="cls-6" d="M75.6466,85.932l-.27-4.3047a3.2807,3.2807,0,0,0,1.5977-.5693,2.3911,2.3911,0,0,0,.8892-1.9971,2.2111,2.2111,0,0,0-.4546-1.4931,1.3615,1.3615,0,0,0-1.0537-.5244,1.3427,1.3427,0,0,0-1.0186.499,5.785,5.785,0,0,0-.8491,2.3174A9.8352,9.8352,0,0,1,72.71,84.1039a3.5739,3.5739,0,0,1-2.8262,1.2783,3.842,3.842,0,0,1-2.1323-.6533,4.3493,4.3493,0,0,1-1.5782-1.9678,9.19,9.19,0,0,1-.5742-3.6006,7.3625,7.3625,0,0,1,1.044-4.2793,4.5052,4.5052,0,0,1,3.3208-1.7529l.2495,4.2647A1.9924,1.9924,0,0,0,68.3258,79.61a1.8136,1.8136,0,0,0,.3345,1.1884,1.0248,1.0248,0,0,0,.8139.3994.8144.8144,0,0,0,.6294-.3291,3.6988,3.6988,0,0,0,.5391-1.5185,18.99,18.99,0,0,1,1.2934-4.249,4.4765,4.4765,0,0,1,1.6231-1.8682,4.1134,4.1134,0,0,1,2.167-.584,4.6422,4.6422,0,0,1,2.5971.7793,4.8762,4.8762,0,0,1,1.8023,2.1768A8.7948,8.7948,0,0,1,80.74,79.13q0,3.7353-1.4379,5.1738A5.6737,5.6737,0,0,1,75.6466,85.932Z"/><path class="cls-6" d="M65.8492,70.391v-7.52a5.1448,5.1448,0,0,1,1.1685-3.6807,4.3817,4.3817,0,0,1,3.3257-1.2236A4.5154,4.5154,0,0,1,73.8087,59.3a5.7788,5.7788,0,0,1,1.2485,4.07v2.4766H80.49V70.391Zm6.2417-4.5439V64.7387a2.8561,2.8561,0,0,0-.4541-1.8379,1.4659,1.4659,0,0,0-1.1636-.5293,1.6243,1.6243,0,0,0-1.1684.46,2.38,2.38,0,0,0-.48,1.7276v1.2881Z"/><path class="cls-6" d="M78.0733,48.3373V53.473l2.417.7139V58.806L65.8492,53.3031V48.3685L80.49,42.8666v4.7383Zm-3.166.9385L69.6441,50.891l5.2632,1.6Z"/><path class="cls-6" d="M80.49,41.37H65.8492v-7.541a10.9518,10.9518,0,0,1,.3594-3.206,3.4159,3.4159,0,0,1,1.3335-1.7872,4.0388,4.0388,0,0,1,2.3716-.68,3.9134,3.9134,0,0,1,3.5356,1.9492,5.4616,5.4616,0,0,1,.5791,1.5888,4.5145,4.5145,0,0,1,.54-1.1777,4.5556,4.5556,0,0,1,.7695-.7236,5.7514,5.7514,0,0,1,.91-.6338L80.49,26.9672V32.08l-4.4741,2.418a3.4205,3.4205,0,0,0-1.1289.8193,1.901,1.901,0,0,0-.3394,1.1084v.3994H80.49Zm-8.709-4.5449V34.9174a6.8083,6.8083,0,0,0-.2-1.1983,1.1949,1.1949,0,0,0-.4594-.7343,1.484,1.484,0,0,0-1.9375.165,2.7191,2.7191,0,0,0-.3794,1.6875v1.9873Z"/><path class="cls-6" d="M65.8492,25.4994V20.975h5.5327l-5.5327-4.7393V10.2182l5.5264,5.3427L80.49,9.9789V15.55l-6.021,3.0869,2.4483,2.3379H80.49v4.5244Z"/></svg>