<svg id="Layer_1" data-name="Layer 1" xmlns="http://www.w3.org/2000/svg" viewBox="0 0 201.573 87.976"><defs><style>.cls-1{fill:#2c2929;}.cls-2,.cls-4,.cls-6{fill:none;stroke-miterlimit:10;}.cls-2,.cls-6{stroke:#221f1f;}.cls-2{stroke-width:1.058px;}.cls-3{fill:#424242;}.cls-4{stroke:#424242;stroke-width:1.513px;}.cls-5{fill:#221f1f;}.cls-6{stroke-width:1.009px;}.cls-7{fill:#079247;}</style></defs><path class="cls-1" d="M198.138.53,3.433.529A2.9049,2.9049,0,0,0,.529,3.435V84.5419A2.9047,2.9047,0,0,0,3.433,87.447H198.138a2.9049,2.9049,0,0,0,2.905-2.9051l.001-81.1069A2.9051,2.9051,0,0,0,198.138.53ZM30.1833,50.3593a6.0515,6.0515,0,1,1,6.052-6.0509A6.0508,6.0508,0,0,1,30.1833,50.3593Zm143.3544,0a6.0515,6.0515,0,1,1,6.051-6.0509A6.0508,6.0508,0,0,1,173.5377,50.3593Z"/><path class="cls-2" d="M3.434.5295H198.1375a2.906,2.906,0,0,1,2.906,2.906V84.542a2.905,2.905,0,0,1-2.905,2.905H3.4341A2.9051,2.9051,0,0,1,.529,84.5419V3.4345A2.905,2.905,0,0,1,3.434.5295Z"/><rect class="cls-3" x="129.6933" y="11.2567" width="17.439" height="12.652"/><rect class="cls-3" x="130.9043" y="64.0667" width="16.229" height="12.103"/><rect class="cls-3" x="108.6243" y="11.2567" width="12.928" height="9.902"/><rect class="cls-4" x="185.6403" y="35.4617" width="13.478" height="17.328"/><path class="cls-1" d="M129.693,65.9931v-46.21q10.095,8.802,20.19,0v46.21a19.8977,19.8977,0,0,0-20.19,0"/><path class="cls-4" d="M129.693,65.9931v-46.21q10.095,8.802,20.19,0v46.21A19.8977,19.8977,0,0,0,129.693,65.9931Z"/><rect class="cls-5" x="135.5793" y="27.4857" width="7.702" height="30.256"/><rect class="cls-6" x="135.5793" y="27.4857" width="7.702" height="30.256"/><polygon class="cls-4" points="185.64 51.444 185.64 37.173 173.281 30.037 160.921 37.173 160.921 51.444 173.281 58.58 185.64 51.444"/><path class="cls-6" d="M173.5377,50.3593a6.0515,6.0515,0,1,1,6.051-6.0509A6.0508,6.0508,0,0,1,173.5377,50.3593Z"/><polygon class="cls-4" points="42.286 51.444 42.286 37.173 29.927 30.037 17.567 37.173 17.567 51.444 29.927 58.58 42.286 51.444"/><polyline class="cls-4" points="185.64 37.173 190.04 37.173 190.04 51.415 185.64 51.444"/><path class="cls-6" d="M30.1833,50.3593a6.0515,6.0515,0,1,1,6.052-6.0509A6.0508,6.0508,0,0,1,30.1833,50.3593Z"/><rect class="cls-4" x="149.8833" y="21.1586" width="17.604" height="8.8781"/><rect class="cls-4" x="149.8833" y="40.1376" width="11.038" height="7.9771"/><polyline class="cls-4" points="149.884 58.58 167.487 58.58 167.487 65.993 149.884 65.993"/><rect class="cls-4" x="36.2353" y="21.1586" width="93.458" height="8.8781"/><rect class="cls-4" x="42.2863" y="40.1376" width="87.407" height="7.9771"/><rect class="cls-4" x="36.2353" y="58.5797" width="93.458" height="7.413"/><rect class="cls-4" x="4.0893" y="35.6447" width="13.478" height="17.328"/><polyline class="cls-4" points="17.567 51.262 13.166 51.262 13.166 37.02 17.567 36.991"/><rect class="cls-7" x="97.8983" y="3.5557" width="7.701" height="7.701"/><rect class="cls-7" x="97.8983" y="76.1697" width="7.701" height="7.701"/><line class="cls-4" x1="181.5143" y1="0.5302" x2="181.5143" y2="34.7913"/><line class="cls-4" x1="181.5143" y1="53.8261" x2="181.5143" y2="87.4472"/><line class="cls-4" x1="21.4323" y1="87.4472" x2="21.4323" y2="53.8262"/><line class="cls-4" x1="181.5143" y1="11.2568" x2="21.5553" y2="11.2568"/><polyline class="cls-4" points="181.514 76.17 36.235 76.17 21.555 76.17"/><line class="cls-4" x1="36.235" y1="87.4472" x2="36.235" y2="76.1702"/><line class="cls-4" x1="36.235" y1="11.2568" x2="36.235" y2="0.5289"/><line class="cls-4" x1="167.487" y1="0.5302" x2="167.487" y2="11.2573"/><line class="cls-4" x1="167.486" y1="76.1699" x2="167.486" y2="87.447"/></svg>