<svg id="Layer_1" data-name="Layer 1" xmlns="http://www.w3.org/2000/svg" viewBox="0 0 341.1401 87.976"><defs><style>.cls-1,.cls-11,.cls-13,.cls-2,.cls-3,.cls-4,.cls-5,.cls-6,.cls-7,.cls-9{fill:none;}.cls-1{stroke:#e9262a;}.cls-1,.cls-2,.cls-3,.cls-4,.cls-5,.cls-6,.cls-7{stroke-linecap:round;stroke-linejoin:round;}.cls-1,.cls-2,.cls-3{stroke-width:16.248px;}.cls-13,.cls-2,.cls-9{stroke:#221f1f;}.cls-3{stroke:#00a651;}.cls-4{stroke:#231f20;stroke-width:19px;}.cls-5{stroke:#fff;stroke-width:17px;}.cls-6{stroke:#37b24a;}.cls-6,.cls-7{stroke-width:1.5px;}.cls-7{stroke:#d6dd28;}.cls-8{fill:#2c2929;}.cls-11,.cls-13,.cls-9{stroke-miterlimit:10;}.cls-9{stroke-width:1.058px;}.cls-10{fill:#424242;}.cls-11{stroke:#424242;stroke-width:1.513px;}.cls-12{fill:#221f1f;}.cls-13{stroke-width:1.009px;}.cls-14{fill:#079247;}</style></defs><line class="cls-1" x1="333.0161" y1="52.9247" x2="276.5251" y2="52.9238"/><line class="cls-2" x1="333.0161" y1="34.4239" x2="274.7211" y2="34.4239"/><line class="cls-3" x1="9.5" y1="34.4234" x2="73.476" y2="34.4244"/><line class="cls-4" x1="9.5" y1="52.9242" x2="75.28" y2="52.9242"/><line class="cls-5" x1="9.5" y1="52.9242" x2="75.28" y2="52.9242"/><line class="cls-6" x1="315.244" y1="11.2573" x2="273.912" y2="11.2573"/><line class="cls-7" x1="315.253" y1="13.5559" x2="273.912" y2="13.5559"/><line class="cls-6" x1="273.9124" y1="16.208" x2="333.0161" y2="16.208"/><line class="cls-7" x1="273.9124" y1="18.4023" x2="333.0161" y2="18.4023"/><path class="cls-8" d="M271.0068.53,76.3018.529a2.9049,2.9049,0,0,0-2.904,2.906V84.5419a2.9047,2.9047,0,0,0,2.904,2.9051h194.705a2.9049,2.9049,0,0,0,2.9049-2.9051l.0011-81.1069A2.9051,2.9051,0,0,0,271.0068.53ZM103.0521,50.3593a6.0515,6.0515,0,1,1,6.052-6.0509A6.0508,6.0508,0,0,1,103.0521,50.3593Zm143.3543,0a6.0515,6.0515,0,1,1,6.0511-6.0509A6.0509,6.0509,0,0,1,246.4064,50.3593Z"/><path class="cls-9" d="M76.3018.5295H271.0083a2.904,2.904,0,0,1,2.904,2.904V84.542a2.905,2.905,0,0,1-2.905,2.905H76.3028a2.9051,2.9051,0,0,1-2.9051-2.9051V3.4335a2.904,2.904,0,0,1,2.904-2.904Z"/><rect class="cls-10" x="202.5621" y="11.2567" width="17.439" height="12.652"/><rect class="cls-10" x="203.7731" y="64.0667" width="16.229" height="12.103"/><rect class="cls-10" x="181.4931" y="11.2567" width="12.928" height="9.902"/><rect class="cls-11" x="258.509" y="35.4617" width="13.478" height="17.328"/><path class="cls-8" d="M202.5617,65.9931v-46.21q10.095,8.802,20.19,0v46.21a19.8977,19.8977,0,0,0-20.19,0"/><path class="cls-11" d="M202.5617,65.9931v-46.21q10.095,8.802,20.19,0v46.21A19.8977,19.8977,0,0,0,202.5617,65.9931Z"/><rect class="cls-12" x="208.4481" y="27.4857" width="7.702" height="30.256"/><rect class="cls-13" x="208.4481" y="27.4857" width="7.702" height="30.256"/><polygon class="cls-11" points="258.509 51.444 258.509 37.173 246.15 30.037 233.79 37.173 233.79 51.444 246.15 58.58 258.509 51.444"/><path class="cls-13" d="M246.4064,50.3593a6.0515,6.0515,0,1,1,6.051-6.0509A6.0508,6.0508,0,0,1,246.4064,50.3593Z"/><polygon class="cls-11" points="115.155 51.444 115.155 37.173 102.796 30.037 90.436 37.173 90.436 51.444 102.796 58.58 115.155 51.444"/><polyline class="cls-11" points="258.509 37.173 262.909 37.173 262.909 51.415 258.509 51.444"/><path class="cls-13" d="M103.0521,50.3593a6.0515,6.0515,0,1,1,6.0519-6.0509A6.0508,6.0508,0,0,1,103.0521,50.3593Z"/><rect class="cls-11" x="222.7521" y="21.1586" width="17.604" height="8.8781"/><rect class="cls-11" x="222.7521" y="40.1376" width="11.038" height="7.9771"/><polyline class="cls-11" points="222.752 58.58 240.356 58.58 240.356 65.993 222.752 65.993"/><rect class="cls-11" x="109.104" y="21.1586" width="93.458" height="8.8781"/><rect class="cls-11" x="115.1551" y="40.1376" width="87.407" height="7.9771"/><rect class="cls-11" x="109.104" y="58.5797" width="93.458" height="7.413"/><rect class="cls-11" x="76.9581" y="35.6447" width="13.478" height="17.328"/><polyline class="cls-11" points="90.436 51.262 86.035 51.262 86.035 37.02 90.436 36.991"/><rect class="cls-14" x="170.7671" y="3.5557" width="7.701" height="7.701"/><rect class="cls-14" x="170.7671" y="76.1697" width="7.701" height="7.701"/><line class="cls-11" x1="254.3831" y1="0.5302" x2="254.3831" y2="34.7913"/><line class="cls-11" x1="254.3831" y1="53.8261" x2="254.3831" y2="87.4472"/><line class="cls-11" x1="94.3011" y1="87.4472" x2="94.3011" y2="53.8262"/><line class="cls-11" x1="254.3831" y1="11.2568" x2="94.4241" y2="11.2568"/><polyline class="cls-11" points="254.383 76.17 109.104 76.17 94.424 76.17"/><line class="cls-11" x1="109.1038" y1="87.4472" x2="109.1038" y2="76.1702"/><line class="cls-11" x1="109.1038" y1="11.2568" x2="109.1038" y2="0.5289"/><line class="cls-11" x1="240.3558" y1="0.5302" x2="240.3558" y2="11.2573"/><line class="cls-11" x1="240.3547" y1="76.1699" x2="240.3547" y2="87.447"/></svg>