<?xml version="1.0" encoding="utf-8"?>
<!-- Generator: Adobe Illustrator 24.1.2, SVG Export Plug-In . SVG Version: 6.00 Build 0)  -->
<svg version="1.1" id="Layer_1" xmlns="http://www.w3.org/2000/svg" xmlns:xlink="http://www.w3.org/1999/xlink" x="0px" y="0px"
	 viewBox="0 0 266.5 157" style="enable-background:new 0 0 266.5 157;" xml:space="preserve">
<style type="text/css">
	.st0{clip-path:url(#SVGID_2_);}
	.st1{fill:none;}
	.st2{fill:none;stroke:#808080;stroke-width:1.2;stroke-linejoin:round;}
	.st3{fill:none;stroke:#000000;stroke-width:1.2;stroke-linejoin:round;}
	.st4{fill:none;stroke:#000000;stroke-width:0.48;stroke-linecap:round;stroke-linejoin:round;}
	.st5{fill:none;stroke:#000000;stroke-width:0.24;stroke-linecap:round;stroke-linejoin:round;}
	.st6{fill:#FFFFFF;}
	.st7{fill:none;stroke:#FFFFFF;stroke-width:0.24;stroke-miterlimit:10;}
	.st8{font-family:'Verdana';}
	.st9{font-size:6px;}
	.st10{fill:none;stroke:#808080;stroke-width:0.48;stroke-linecap:round;stroke-linejoin:round;}
	.st11{fill:none;stroke:#000000;stroke-width:0.24;stroke-miterlimit:10;}
	.st12{font-size:5.2848px;}
	.st13{fill:#FF0000;}
	.st14{fill:none;stroke:#808080;stroke-width:0.24;stroke-miterlimit:10;}
	.st15{fill:#8C9091;}
	.st16{fill:#00953B;}
</style>
<g>
	<defs>
		<rect id="SVGID_1_" width="266.5" height="157"/>
	</defs>
	<clipPath id="SVGID_2_">
		<use xlink:href="#SVGID_1_"  style="overflow:visible;"/>
	</clipPath>
	<g class="st0">
		<rect x="-32963.1" y="-32155.4" class="st1" width="65536" height="65536"/>
		<rect x="-32963.1" y="-32155.4" class="st1" width="65536" height="65536"/>
		<line class="st2" x1="56.1" y1="82.7" x2="56.1" y2="81.3"/>
		<line class="st2" x1="57.8" y1="84.4" x2="70" y2="84.4"/>
		<line class="st3" x1="56.1" y1="14.5" x2="56.1" y2="11.9"/>
		<path class="st3" d="M48.7,32.3c1.7-2.5,4.4-4,7.4-4.1c4.8,0.1,8.5,4.1,8.4,8.9c-0.1,4.6-3.8,8.3-8.4,8.4c-3.1,0-5.9-1.7-7.4-4.3"
			/>
		<rect x="-21.9" y="4.5" class="st1" width="270.3" height="129.7"/>
		<line class="st4" x1="46.6" y1="45.9" x2="46.9" y2="27.6"/>
		<line class="st4" x1="65.1" y1="45.9" x2="65.1" y2="27.6"/>
		<line class="st4" x1="46.6" y1="45.9" x2="65.1" y2="45.9"/>
		<line class="st4" x1="46.6" y1="27.6" x2="65.1" y2="27.6"/>
		<line class="st5" x1="47.5" y1="45.5" x2="47.5" y2="28.2"/>
		<line class="st5" x1="64.5" y1="45.5" x2="64.8" y2="28.2"/>
		<line class="st5" x1="47.5" y1="45.5" x2="64.5" y2="45.5"/>
		<line class="st5" x1="47.5" y1="28.2" x2="64.5" y2="28.2"/>
		<line class="st4" x1="46.6" y1="45.9" x2="46.9" y2="27.6"/>
		<line class="st4" x1="65.1" y1="45.9" x2="65.1" y2="27.6"/>
		<line class="st4" x1="46.6" y1="45.9" x2="65.1" y2="45.9"/>
		<line class="st4" x1="46.6" y1="27.6" x2="65.1" y2="27.6"/>
		<rect x="53.1" y="25.5" class="st6" width="5.5" height="4.8"/>
		<rect x="53.2" y="25.6" class="st7" width="5.5" height="4.8"/>
		<rect x="51.9" y="14.4" class="st6" width="7.9" height="11"/>
		<rect x="52" y="14.5" class="st7" width="7.9" height="11"/>
		<line class="st5" x1="47.5" y1="67.6" x2="47.5" y2="50.5"/>
		<line class="st5" x1="64.5" y1="67.6" x2="64.8" y2="50.5"/>
		<line class="st5" x1="47.5" y1="67.6" x2="64.5" y2="67.8"/>
		<line class="st5" x1="47.5" y1="50.5" x2="64.5" y2="50.5"/>
		<line class="st5" x1="161.7" y1="45.5" x2="162" y2="28.2"/>
		<line class="st5" x1="179" y1="45.5" x2="179.2" y2="28.2"/>
		<line class="st5" x1="161.7" y1="45.5" x2="179" y2="45.5"/>
		<line class="st5" x1="161.7" y1="28.2" x2="179" y2="28.2"/>
		<line class="st5" x1="161.7" y1="67.6" x2="162" y2="50.5"/>
		<line class="st5" x1="179" y1="67.6" x2="179.2" y2="50.5"/>
		<line class="st5" x1="161.7" y1="67.6" x2="179" y2="67.8"/>
		<line class="st5" x1="161.7" y1="50.5" x2="179" y2="50.5"/>
		<line class="st4" x1="161.1" y1="68.2" x2="161.1" y2="49.7"/>
		<line class="st4" x1="179.6" y1="68.2" x2="179.6" y2="49.7"/>
		<line class="st4" x1="161.1" y1="68.2" x2="179.6" y2="68.2"/>
		<line class="st4" x1="161.1" y1="49.7" x2="179.6" y2="49.7"/>
		<line class="st4" x1="161.1" y1="68.2" x2="161.1" y2="49.7"/>
		<line class="st4" x1="179.6" y1="68.2" x2="179.6" y2="49.7"/>
		<line class="st4" x1="161.1" y1="68.2" x2="179.6" y2="68.2"/>
		<line class="st4" x1="161.1" y1="49.7" x2="179.6" y2="49.7"/>
		<rect x="177.7" y="54.5" class="st6" width="7.2" height="8.9"/>
		<rect x="177.8" y="54.6" class="st7" width="7.2" height="8.9"/>
		<line class="st4" x1="161.1" y1="45.9" x2="161.1" y2="27.6"/>
		<line class="st4" x1="179.6" y1="45.9" x2="179.6" y2="27.6"/>
		<line class="st4" x1="161.1" y1="45.9" x2="179.6" y2="45.9"/>
		<line class="st4" x1="161.1" y1="27.6" x2="179.6" y2="27.6"/>
		<line class="st4" x1="161.1" y1="45.9" x2="161.1" y2="27.6"/>
		<line class="st4" x1="179.6" y1="45.9" x2="179.6" y2="27.6"/>
		<line class="st4" x1="161.1" y1="45.9" x2="179.6" y2="45.9"/>
		<line class="st4" x1="161.1" y1="27.6" x2="179.6" y2="27.6"/>
		<rect x="177.7" y="32.2" class="st6" width="7.2" height="8.9"/>
		<rect x="177.8" y="32.3" class="st7" width="7.2" height="8.9"/>
		<line class="st4" x1="46.6" y1="68.2" x2="46.9" y2="49.7"/>
		<line class="st4" x1="65.1" y1="68.2" x2="65.1" y2="49.7"/>
		<line class="st4" x1="46.6" y1="68.2" x2="65.1" y2="68.2"/>
		<line class="st4" x1="46.6" y1="49.7" x2="65.1" y2="49.7"/>
		<line class="st4" x1="46.6" y1="68.2" x2="46.9" y2="49.7"/>
		<line class="st4" x1="65.1" y1="68.2" x2="65.1" y2="49.7"/>
		<line class="st4" x1="46.6" y1="68.2" x2="65.1" y2="68.2"/>
		<line class="st4" x1="46.6" y1="49.7" x2="65.1" y2="49.7"/>
		<rect x="41.4" y="54.5" class="st6" width="7.2" height="8.9"/>
		<rect x="41.5" y="54.6" class="st7" width="7.2" height="8.9"/>
		<rect x="41.4" y="32.2" class="st6" width="7.2" height="8.9"/>
		<rect x="41.5" y="32.3" class="st7" width="7.2" height="8.9"/>
		<polyline class="st4" points="45,10.6 43,10.8 41.4,11.5 39.9,12.5 39,13.9 38.2,15.6 38,17.5 		"/>
		<polyline class="st4" points="188.2,17.5 188,15.6 187.3,13.9 186.3,12.5 184.9,11.5 183.2,10.8 181.3,10.6 		"/>
		<line class="st4" x1="45" y1="10.6" x2="181.3" y2="10.6"/>
		<path class="st4" d="M185.4,17.5c-0.1,2.2-1.9,3.9-4.1,3.8c-2.1,0-3.8-1.6-3.8-3.7c0,0,0-0.1,0-0.1c0-2.2,1.7-4,3.8-4.1
			C183.5,13.5,185.3,15.3,185.4,17.5"/>
		<rect x="-21.9" y="4.5" class="st1" width="270.3" height="129.7"/>
		<polyline class="st4" points="45,10.6 43,10.8 41.4,11.5 39.9,12.5 39,13.9 38.2,15.6 38,17.5 		"/>
		<polyline class="st4" points="188.2,17.5 188,15.6 187.3,13.9 186.3,12.5 184.9,11.5 183.2,10.8 181.3,10.6 		"/>
		<line class="st4" x1="45" y1="10.6" x2="181.3" y2="10.6"/>
		<polyline class="st4" points="38,126 38.2,127.7 39,129.6 39.9,130.8 41.4,132 43,132.7 45,133 		"/>
		<polyline class="st4" points="181.3,133 183.2,132.7 184.9,132 186.3,130.8 187.3,129.6 188,127.7 188.2,126 		"/>
		<path class="st4" d="M48.8,126L48.8,126c0,2.1-1.7,3.8-3.8,3.8c-2.1,0-3.8-1.7-3.8-3.8c0-2.1,1.7-3.8,3.8-3.8
			C47,122.1,48.8,123.8,48.8,126C48.8,125.9,48.8,126,48.8,126"/>
		<rect x="-21.9" y="4.5" class="st1" width="270.3" height="129.7"/>
		<line class="st4" x1="45" y1="133" x2="181.3" y2="133"/>
		<polyline class="st4" points="38,126 38.2,127.7 39,129.6 39.9,130.8 41.4,132 43,132.7 45,133 		"/>
		<polyline class="st4" points="181.3,133 183.2,132.7 184.9,132 186.3,130.8 187.3,129.6 188,127.7 188.2,126 		"/>
		<line class="st4" x1="45" y1="133" x2="181.3" y2="133"/>
		<path class="st4" d="M175,116.9L175,116.9c0,3-2.3,5.5-5.3,5.5c-0.1,0-0.1,0-0.2,0c-3,0.1-5.6-2.2-5.8-5.3s2.2-5.6,5.3-5.8
			c0.2,0,0.3,0,0.5,0c3,0,5.5,2.3,5.5,5.3C175,116.8,175,116.8,175,116.9"/>
		<rect x="-21.9" y="4.5" class="st1" width="270.3" height="129.7"/>
		<line class="st4" x1="52.6" y1="33.1" x2="54.6" y2="32.2"/>
		<line class="st4" x1="59.4" y1="33.4" x2="60.6" y2="35.3"/>
		<line class="st4" x1="57.2" y1="41.3" x2="59.1" y2="40.1"/>
		<line class="st4" x1="51.4" y1="38.2" x2="52.4" y2="39.9"/>
		<line class="st4" x1="52.4" y1="39.9" x2="54.1" y2="38.9"/>
		<line class="st4" x1="56.5" y1="39.6" x2="57.2" y2="41.3"/>
		<path class="st4" d="M54.1,39.1c0.2-0.2,0.5-0.2,1-0.2c0.6,0,1.1,0.3,1.4,0.7"/>
		<rect x="-21.9" y="4.5" class="st1" width="270.3" height="129.7"/>
		<line class="st4" x1="58.2" y1="38.7" x2="59.1" y2="40.1"/>
		<line class="st4" x1="58.9" y1="36.3" x2="60.6" y2="35.3"/>
		<path class="st4" d="M58.2,38.7c0-0.2-0.2-0.7-0.2-1c0.1-0.6,0.4-1.1,1-1.4"/>
		<rect x="-21.9" y="4.5" class="st1" width="270.3" height="129.7"/>
		<line class="st4" x1="57.9" y1="34.3" x2="59.4" y2="33.4"/>
		<line class="st4" x1="54.6" y1="32.2" x2="55.5" y2="33.6"/>
		<path class="st4" d="M57.9,34.3c-0.8,0.5-1.8,0.3-2.4-0.5"/>
		<rect x="-21.9" y="4.5" class="st1" width="270.3" height="129.7"/>
		<line class="st4" x1="52.6" y1="33.1" x2="53.6" y2="34.8"/>
		<line class="st4" x1="51.4" y1="38.2" x2="52.9" y2="37.2"/>
		<path class="st4" d="M53.6,34.8c0.2,0.2,0.2,0.5,0.2,1c0,0.6-0.3,1.1-0.7,1.4"/>
		<rect x="-21.9" y="4.5" class="st1" width="270.3" height="129.7"/>
		<line class="st4" x1="52.6" y1="55.5" x2="54.6" y2="54.5"/>
		<line class="st4" x1="59.4" y1="55.7" x2="60.6" y2="57.6"/>
		<line class="st4" x1="57.2" y1="63.6" x2="59.1" y2="62.4"/>
		<line class="st4" x1="51.4" y1="60.3" x2="52.4" y2="62.2"/>
		<line class="st4" x1="52.4" y1="62.2" x2="54.1" y2="61.2"/>
		<line class="st4" x1="56.5" y1="61.9" x2="57.2" y2="63.6"/>
		<path class="st4" d="M54.1,61.2c0.2,0,0.5-0.2,1-0.2s1,0.5,1.4,1"/>
		<rect x="-21.9" y="4.5" class="st1" width="270.3" height="129.7"/>
		<line class="st4" x1="58.2" y1="61" x2="59.1" y2="62.4"/>
		<line class="st4" x1="58.9" y1="58.6" x2="60.6" y2="57.6"/>
		<path class="st4" d="M58.2,60.7c0-0.2-0.2-0.5-0.2-0.7c0-0.6,0.4-1.2,1-1.4"/>
		<rect x="-21.9" y="4.5" class="st1" width="270.3" height="129.7"/>
		<line class="st4" x1="57.9" y1="56.7" x2="59.4" y2="55.7"/>
		<line class="st4" x1="54.6" y1="54.5" x2="55.5" y2="55.9"/>
		<path class="st4" d="M57.9,56.7c-0.3,0.2-0.6,0.3-1,0.2c-0.7,0.1-1.3-0.3-1.4-1"/>
		<rect x="-21.9" y="4.5" class="st1" width="270.3" height="129.7"/>
		<line class="st4" x1="52.6" y1="55.5" x2="53.6" y2="57.1"/>
		<line class="st4" x1="51.4" y1="60.3" x2="52.9" y2="59.3"/>
		<path class="st4" d="M53.6,57.1c0.2,0.2,0.3,0.5,0.2,0.7c0,0.6-0.2,1.3-0.7,1.7"/>
		<rect x="-21.9" y="4.5" class="st1" width="270.3" height="129.7"/>
		<line class="st4" x1="167.1" y1="55.5" x2="169" y2="54.5"/>
		<line class="st4" x1="173.8" y1="55.7" x2="174.8" y2="57.6"/>
		<line class="st4" x1="171.7" y1="63.6" x2="173.6" y2="62.4"/>
		<line class="st4" x1="165.9" y1="60.3" x2="166.9" y2="62.2"/>
		<line class="st4" x1="166.9" y1="62.2" x2="168.6" y2="61.2"/>
		<line class="st4" x1="170.7" y1="61.9" x2="171.7" y2="63.6"/>
		<path class="st4" d="M168.6,61.2c0.2,0,0.5-0.2,0.7-0.2c0.6,0,1.2,0.4,1.4,1"/>
		<rect x="-21.9" y="4.5" class="st1" width="270.3" height="129.7"/>
		<line class="st4" x1="172.6" y1="61" x2="173.6" y2="62.4"/>
		<line class="st4" x1="173.4" y1="58.6" x2="174.8" y2="57.6"/>
		<path class="st4" d="M172.6,61c-0.2-0.3-0.3-0.6-0.2-1c-0.1-0.7,0.3-1.3,1-1.4"/>
		<rect x="-21.9" y="4.5" class="st1" width="270.3" height="129.7"/>
		<line class="st4" x1="172.2" y1="56.7" x2="173.8" y2="55.7"/>
		<line class="st4" x1="169" y1="54.5" x2="169.8" y2="55.9"/>
		<path class="st4" d="M172.2,56.7c-0.2,0.2-0.5,0.3-0.7,0.2c-0.7,0-1.4-0.3-1.7-1"/>
		<rect x="-21.9" y="4.5" class="st1" width="270.3" height="129.7"/>
		<line class="st4" x1="167.1" y1="55.5" x2="168.1" y2="57.1"/>
		<line class="st4" x1="165.9" y1="60.3" x2="167.4" y2="59.3"/>
		<path class="st4" d="M168.1,57.1c0,0.2,0.2,0.5,0.2,0.7c-0.1,0.7-0.4,1.3-1,1.7"/>
		<path class="st4" d="M177.2,59.1c0,3.8-3.1,7-7,7c-3.8,0-7-3.1-7-7s3.1-7,7-7C174.1,52.1,177.2,55.2,177.2,59.1"/>
		<rect x="-21.9" y="4.5" class="st1" width="270.3" height="129.7"/>
		<line class="st4" x1="167.1" y1="33.1" x2="169" y2="32.2"/>
		<line class="st4" x1="173.8" y1="33.4" x2="174.8" y2="35.3"/>
		<line class="st4" x1="171.7" y1="41.3" x2="173.6" y2="40.1"/>
		<line class="st4" x1="165.9" y1="38.2" x2="166.9" y2="39.9"/>
		<line class="st4" x1="166.9" y1="39.9" x2="168.6" y2="38.9"/>
		<line class="st4" x1="170.7" y1="39.6" x2="171.7" y2="41.3"/>
		<path class="st4" d="M168.6,39.1c0.2-0.2,0.5-0.3,0.7-0.2c0.6-0.1,1.1,0.2,1.4,0.7"/>
		<rect x="-21.9" y="4.5" class="st1" width="270.3" height="129.7"/>
		<line class="st4" x1="172.6" y1="38.7" x2="173.6" y2="40.1"/>
		<line class="st4" x1="173.4" y1="36.3" x2="174.8" y2="35.3"/>
		<path class="st4" d="M172.6,38.7c-0.2-0.2-0.2-0.5-0.2-1c0-0.6,0.4-1.2,1-1.4"/>
		<rect x="-21.9" y="4.5" class="st1" width="270.3" height="129.7"/>
		<line class="st4" x1="172.2" y1="34.3" x2="173.8" y2="33.4"/>
		<line class="st4" x1="169" y1="32.2" x2="169.8" y2="33.6"/>
		<path class="st4" d="M172.2,34.3c-0.2,0.2-0.5,0.3-0.7,0.2c-0.6,0-1.3-0.2-1.7-0.7"/>
		<rect x="-21.9" y="4.5" class="st1" width="270.3" height="129.7"/>
		<line class="st4" x1="167.1" y1="33.1" x2="168.1" y2="34.8"/>
		<line class="st4" x1="165.9" y1="38.2" x2="167.4" y2="37.2"/>
		<path class="st4" d="M168.1,34.8c0,0.2,0.2,0.5,0.2,1c-0.1,0.6-0.4,1.1-1,1.4"/>
		<path class="st4" d="M177.2,36.7c0,3.8-3.1,7-7,7c-3.8,0-7-3.1-7-7s3.1-7,7-7C174.1,29.8,177.2,32.9,177.2,36.7"/>
		<rect x="-21.9" y="4.5" class="st1" width="270.3" height="129.7"/>
		<text transform="matrix(1 0 0 1 57.1928 120.2514)" class="st8 st9">C</text>
		<rect x="57.2" y="114.7" class="st1" width="4.3" height="6.7"/>
		<text transform="matrix(1 0 0 1 51.6733 120.2514)" class="st8 st9">B</text>
		<rect x="51.7" y="114.7" class="st1" width="4.1" height="6.7"/>
		<text transform="matrix(1 0 0 1 165.6743 74.6508)" class="st8 st9">M</text>
		<rect x="165.7" y="69.1" class="st1" width="5" height="7"/>
		<text transform="matrix(1 0 0 1 165.6743 25.6908)" class="st8 st9">M</text>
		<rect x="165.7" y="20.2" class="st1" width="5" height="7"/>
		<line class="st5" x1="170.8" y1="72.4" x2="174.7" y2="72.4"/>
		<line class="st5" x1="172.8" y1="74.3" x2="172.8" y2="70.5"/>
		<line class="st5" x1="172.8" y1="74.3" x2="172.8" y2="70.5"/>
		<line class="st5" x1="172.5" y1="74.3" x2="172.5" y2="70.5"/>
		<line class="st5" x1="170.8" y1="72.4" x2="174.7" y2="72.4"/>
		<line class="st5" x1="170.8" y1="72.6" x2="174.7" y2="72.6"/>
		<line class="st5" x1="170.8" y1="23.4" x2="174.7" y2="23.4"/>
		<line class="st5" x1="170.8" y1="23.4" x2="174.7" y2="23.4"/>
		<line class="st5" x1="170.8" y1="23.7" x2="174.7" y2="23.7"/>
		<path class="st4" d="M155.4,118.6L155.4,118.6c0.1,1.5-1.1,2.8-2.7,2.9c-0.1,0-0.1,0-0.2,0c-1.5,0-2.7-1.3-2.6-2.8
			c0,0,0-0.1,0-0.1c0-1.5,1.2-2.6,2.6-2.6C154,115.9,155.2,117.1,155.4,118.6"/>
		<rect x="-21.9" y="4.5" class="st1" width="270.3" height="129.7"/>
		<line class="st3" x1="41.5" y1="32.3" x2="48.7" y2="32.5"/>
		<line class="st3" x1="41.5" y1="41.2" x2="48.7" y2="41.4"/>
		<line class="st3" x1="19.4" y1="30.6" x2="41.5" y2="30.6"/>
		<line class="st3" x1="19.4" y1="42.9" x2="41.5" y2="43.1"/>
		<line class="st3" x1="19.4" y1="42.9" x2="19.4" y2="30.6"/>
		<path class="st3" d="M48.7,54.6c2.5-4,7.7-5.3,11.7-2.8s5.3,7.7,2.8,11.7c-2.5,4-7.7,5.3-11.7,2.8c-1.2-0.7-2.1-1.7-2.8-2.8"/>
		<rect x="-21.9" y="4.5" class="st1" width="270.3" height="129.7"/>
		<line class="st3" x1="41.5" y1="54.6" x2="48.7" y2="54.6"/>
		<line class="st3" x1="41.5" y1="63.5" x2="48.7" y2="63.5"/>
		<line class="st3" x1="41.5" y1="65.2" x2="41.5" y2="52.9"/>
		<line class="st3" x1="19.4" y1="52.9" x2="41.5" y2="52.9"/>
		<line class="st3" x1="19.4" y1="65.2" x2="41.5" y2="65.2"/>
		<line class="st3" x1="19.4" y1="65.2" x2="19.4" y2="52.9"/>
		<path class="st3" d="M177.8,41.2c-2.4,4.1-7.7,5.5-11.8,3.1c-4.1-2.4-5.5-7.7-3.1-11.8c1.5-2.7,4.4-4.3,7.5-4.3
			c3,0.1,5.8,1.6,7.4,4.1"/>
		<rect x="-21.9" y="4.5" class="st1" width="270.3" height="129.7"/>
		<line class="st3" x1="177.8" y1="32.3" x2="185" y2="32.5"/>
		<line class="st3" x1="177.8" y1="41.2" x2="185" y2="41.4"/>
		<line class="st3" x1="185" y1="42.9" x2="185" y2="30.6"/>
		<line class="st3" x1="185" y1="30.6" x2="207.1" y2="30.6"/>
		<line class="st3" x1="185" y1="42.9" x2="207.1" y2="43.1"/>
		<line class="st3" x1="207.1" y1="42.9" x2="207.3" y2="30.6"/>
		<path class="st3" d="M177.8,63.5c-1.6,2.6-4.4,4.1-7.4,4.1c-4.7,0.1-8.6-3.7-8.6-8.4s3.7-8.6,8.4-8.6c0.1,0,0.2,0,0.2,0
			c3-0.1,5.9,1.5,7.4,4.1"/>
		<rect x="-21.9" y="4.5" class="st1" width="270.3" height="129.7"/>
		<line class="st3" x1="177.8" y1="54.6" x2="185" y2="54.6"/>
		<line class="st3" x1="177.8" y1="63.5" x2="185" y2="63.5"/>
		<line class="st3" x1="185" y1="65.2" x2="185" y2="52.9"/>
		<line class="st3" x1="185" y1="52.9" x2="207.1" y2="52.9"/>
		<line class="st3" x1="185" y1="65.2" x2="207.1" y2="65.2"/>
		<line class="st3" x1="207.1" y1="65.2" x2="207.3" y2="52.9"/>
		<line class="st3" x1="41.5" y1="42.9" x2="41.5" y2="30.6"/>
		<line class="st4" x1="38" y1="52.8" x2="38" y2="42.7"/>
		<line class="st4" x1="38" y1="30.5" x2="38" y2="17.5"/>
		<line class="st4" x1="188.2" y1="126" x2="188.2" y2="65.1"/>
		<line class="st4" x1="188.2" y1="30.5" x2="188.2" y2="17.5"/>
		<line class="st4" x1="188.2" y1="52.8" x2="188.2" y2="42.7"/>
		<line class="st10" x1="42.8" y1="69.9" x2="69" y2="69.9"/>
		<polyline class="st10" points="76.2,14.7 74.5,14.9 72.8,15.4 71.4,16.6 70.2,18 69.4,19.7 69.2,21.6 		"/>
		<line class="st10" x1="76.2" y1="102.3" x2="150.1" y2="102.3"/>
		<polyline class="st10" points="150.1,102.3 151.8,102 153.4,101.3 154.9,100.1 156.1,98.7 156.8,97 157,95.3 		"/>
		<line class="st10" x1="157" y1="95.3" x2="157" y2="21.6"/>
		<line class="st10" x1="76.2" y1="14.7" x2="150.1" y2="14.7"/>
		<polyline class="st10" points="157,21.6 156.8,19.7 156.1,18 154.9,16.6 153.4,15.4 151.8,14.9 150.1,14.7 		"/>
		<line class="st10" x1="75.7" y1="20.9" x2="77.1" y2="19.9"/>
		<line class="st10" x1="81.2" y1="20.9" x2="81.9" y2="22.6"/>
		<line class="st10" x1="79.5" y1="27.4" x2="81" y2="26.4"/>
		<line class="st10" x1="74.7" y1="24.7" x2="75.4" y2="26.2"/>
		<line class="st10" x1="75.4" y1="26.2" x2="76.9" y2="25.5"/>
		<line class="st10" x1="78.8" y1="25.9" x2="79.5" y2="27.4"/>
		<path class="st10" d="M76.9,25.5c0.2,0,0.5-0.2,0.7-0.2c0.5,0.1,0.9,0.3,1.2,0.7"/>
		<rect x="-21.9" y="4.5" class="st1" width="270.3" height="129.7"/>
		<line class="st10" x1="80.2" y1="25.2" x2="81" y2="26.4"/>
		<line class="st10" x1="80.7" y1="23.3" x2="81.9" y2="22.6"/>
		<path class="st10" d="M80.2,25.2C80,25,80,24.8,80,24.5c0-0.5,0.3-1,0.7-1.2"/>
		<rect x="-21.9" y="4.5" class="st1" width="270.3" height="129.7"/>
		<line class="st10" x1="79.8" y1="21.9" x2="81.2" y2="20.9"/>
		<line class="st10" x1="77.1" y1="19.9" x2="78.1" y2="21.1"/>
		<path class="st10" d="M79.8,21.9H79c-0.5,0-1-0.3-1.2-0.7"/>
		<rect x="-21.9" y="4.5" class="st1" width="270.3" height="129.7"/>
		<line class="st10" x1="75.7" y1="20.9" x2="76.4" y2="22.1"/>
		<line class="st10" x1="74.7" y1="24.7" x2="75.9" y2="24"/>
		<path class="st10" d="M76.4,22.1c0.2,0.2,0.3,0.5,0.2,0.7c0,0.5-0.3,1-0.7,1.2"/>
		<path class="st10" d="M83.8,23.5L83.8,23.5c0.1,3-2.2,5.6-5.3,5.8c-3,0.1-5.6-2.2-5.8-5.3c0-0.2,0-0.3,0-0.5c0-3,2.5-5.5,5.5-5.5
			C81.4,18,83.8,20.5,83.8,23.5"/>
		<rect x="-21.9" y="4.5" class="st1" width="270.3" height="129.7"/>
		<line class="st10" x1="145.3" y1="20.9" x2="146.7" y2="19.9"/>
		<line class="st10" x1="150.8" y1="20.9" x2="151.5" y2="22.6"/>
		<line class="st10" x1="149.1" y1="27.4" x2="150.6" y2="26.4"/>
		<line class="st10" x1="144.3" y1="24.7" x2="145" y2="26.2"/>
		<line class="st10" x1="145" y1="26.2" x2="146.5" y2="25.5"/>
		<line class="st10" x1="148.4" y1="25.9" x2="149.1" y2="27.4"/>
		<path class="st10" d="M146.5,25.5c0.2,0,0.5-0.2,0.7-0.2c0.5,0.1,0.9,0.3,1.2,0.7"/>
		<rect x="-21.9" y="4.5" class="st1" width="270.3" height="129.7"/>
		<line class="st10" x1="149.8" y1="25.2" x2="150.6" y2="26.4"/>
		<line class="st10" x1="150.3" y1="23.3" x2="151.5" y2="22.6"/>
		<path class="st10" d="M149.8,25.2c-0.2-0.2-0.3-0.5-0.2-0.7c0-0.5,0.3-1,0.7-1.2"/>
		<rect x="-21.9" y="4.5" class="st1" width="270.3" height="129.7"/>
		<line class="st10" x1="149.4" y1="21.9" x2="150.8" y2="20.9"/>
		<line class="st10" x1="146.7" y1="19.9" x2="147.7" y2="21.1"/>
		<path class="st10" d="M149.4,21.9h-0.7c-0.5,0-1-0.3-1.2-0.7"/>
		<rect x="-21.9" y="4.5" class="st1" width="270.3" height="129.7"/>
		<line class="st10" x1="145.3" y1="20.9" x2="146" y2="22.1"/>
		<line class="st10" x1="144.3" y1="24.7" x2="145.5" y2="24"/>
		<path class="st10" d="M146,22.1c0.2,0.2,0.3,0.5,0.2,0.7c0,0.5-0.3,1-0.7,1.2"/>
		<path class="st10" d="M153.4,23.5L153.4,23.5c0.1,3-2.2,5.6-5.3,5.8c-3,0.1-5.6-2.2-5.8-5.3c0-0.2,0-0.3,0-0.5
			c0-3,2.5-5.5,5.5-5.5C151,18,153.4,20.5,153.4,23.5C153.4,23.5,153.4,23.5,153.4,23.5"/>
		<rect x="-21.9" y="4.5" class="st1" width="270.3" height="129.7"/>
		<line class="st10" x1="145.3" y1="90.5" x2="146.7" y2="89.5"/>
		<line class="st10" x1="150.8" y1="90.5" x2="151.5" y2="92.2"/>
		<line class="st10" x1="149.1" y1="97" x2="150.6" y2="96"/>
		<line class="st10" x1="144.3" y1="94.3" x2="145" y2="95.8"/>
		<line class="st10" x1="145" y1="95.8" x2="146.5" y2="95.1"/>
		<line class="st10" x1="148.4" y1="95.5" x2="149.1" y2="97"/>
		<path class="st10" d="M146.5,95.1c0.2-0.2,0.5-0.3,0.7-0.2c0.5,0,1,0.3,1.2,0.7"/>
		<rect x="-21.9" y="4.5" class="st1" width="270.3" height="129.7"/>
		<line class="st10" x1="149.8" y1="94.8" x2="150.6" y2="96"/>
		<line class="st10" x1="150.3" y1="92.9" x2="151.5" y2="92.2"/>
		<path class="st10" d="M149.8,94.8c-0.2-0.2-0.3-0.5-0.2-0.7c0-0.5,0.3-1,0.7-1.2"/>
		<rect x="-21.9" y="4.5" class="st1" width="270.3" height="129.7"/>
		<line class="st10" x1="149.4" y1="91.2" x2="150.8" y2="90.5"/>
		<line class="st10" x1="146.7" y1="89.5" x2="147.7" y2="90.7"/>
		<path class="st10" d="M149.4,91.5h-0.7c-0.5,0-1-0.3-1.2-0.7"/>
		<rect x="-21.9" y="4.5" class="st1" width="270.3" height="129.7"/>
		<line class="st10" x1="145.3" y1="90.5" x2="146" y2="91.7"/>
		<line class="st10" x1="144.3" y1="94.3" x2="145.5" y2="93.6"/>
		<path class="st10" d="M146,91.7c0.2,0.2,0.3,0.5,0.2,0.7c0,0.5-0.3,1-0.7,1.2"/>
		<path class="st10" d="M153.4,93.1L153.4,93.1c0.1,3-2.2,5.6-5.3,5.8c-3,0.1-5.6-2.2-5.8-5.3c0-0.2,0-0.3,0-0.5
			c0-3,2.5-5.5,5.5-5.5C151,87.6,153.4,90.1,153.4,93.1C153.4,93.1,153.4,93.1,153.4,93.1"/>
		<rect x="-21.9" y="4.5" class="st1" width="270.3" height="129.7"/>
		<line class="st10" x1="75.7" y1="90.5" x2="77.1" y2="89.5"/>
		<line class="st10" x1="81.2" y1="90.5" x2="81.9" y2="92.2"/>
		<line class="st10" x1="79.5" y1="97" x2="81" y2="96"/>
		<line class="st10" x1="74.7" y1="94.3" x2="75.4" y2="95.8"/>
		<line class="st10" x1="75.4" y1="95.8" x2="76.9" y2="95.1"/>
		<line class="st10" x1="78.8" y1="95.5" x2="79.5" y2="97"/>
		<path class="st10" d="M76.9,95.1c0.2-0.2,0.5-0.3,0.7-0.2c0.5,0,1,0.3,1.2,0.7"/>
		<rect x="-21.9" y="4.5" class="st1" width="270.3" height="129.7"/>
		<line class="st10" x1="80.2" y1="94.8" x2="81" y2="96"/>
		<line class="st10" x1="80.7" y1="92.9" x2="81.9" y2="92.2"/>
		<path class="st10" d="M80.2,94.8C80,94.6,80,94.4,80,94.1c0-0.5,0.3-1,0.7-1.2"/>
		<rect x="-21.9" y="4.5" class="st1" width="270.3" height="129.7"/>
		<line class="st10" x1="79.8" y1="91.2" x2="81.2" y2="90.5"/>
		<line class="st10" x1="77.1" y1="89.5" x2="78.1" y2="90.7"/>
		<path class="st10" d="M79.8,91.5h-0.5c-0.6,0.1-1.1-0.2-1.4-0.7"/>
		<rect x="-21.9" y="4.5" class="st1" width="270.3" height="129.7"/>
		<line class="st10" x1="75.7" y1="90.5" x2="76.4" y2="91.7"/>
		<line class="st10" x1="74.7" y1="94.3" x2="75.9" y2="93.6"/>
		<path class="st10" d="M76.4,91.7c0.2,0.2,0.3,0.5,0.2,0.7c0,0.5-0.3,1-0.7,1.2"/>
		<path class="st10" d="M83.8,93.1L83.8,93.1c0.1,3-2.2,5.6-5.3,5.8s-5.6-2.2-5.8-5.3c0-0.2,0-0.3,0-0.5c0-3,2.5-5.5,5.5-5.5
			C81.4,87.6,83.8,90.1,83.8,93.1"/>
		<rect x="-21.9" y="4.5" class="st1" width="270.3" height="129.7"/>
		<polyline class="st10" points="69.2,69.9 69.2,69.9 69,69.9 		"/>
		<line class="st10" x1="70.6" y1="106.1" x2="70.6" y2="99.4"/>
		<line class="st10" x1="69.2" y1="95.3" x2="69.2" y2="21.6"/>
		<polyline class="st10" points="69.2,95.3 69.4,97 70.2,98.7 71.4,100.1 72.8,101.3 74.5,102 76.2,102.3 		"/>
		<path class="st10" d="M154.9,58.3c0,23.1-18.7,41.8-41.8,41.8S71.4,81.4,71.4,58.3s18.7-41.8,41.8-41.8c0,0,0,0,0,0
			C136.2,16.6,154.9,35.3,154.9,58.3"/>
		<path class="st10" d="M138.1,58.3c0,13.8-11.2,25-25,25s-25-11.2-25-25s11.2-25,25-25C126.9,33.4,138.1,44.6,138.1,58.3"/>
		<rect x="-21.9" y="4.5" class="st1" width="270.3" height="129.7"/>
		<line class="st10" x1="100.6" y1="96.7" x2="105.4" y2="82.1"/>
		<line class="st10" x1="120.8" y1="34.6" x2="125.6" y2="20.2"/>
		<line class="st10" x1="100.6" y1="20.2" x2="105.4" y2="34.6"/>
		<line class="st10" x1="120.8" y1="82.1" x2="125.6" y2="96.7"/>
		<line class="st10" x1="80.5" y1="34.8" x2="92.7" y2="43.7"/>
		<line class="st10" x1="133.5" y1="73.2" x2="145.8" y2="82.1"/>
		<line class="st10" x1="72.8" y1="58.3" x2="88.2" y2="58.6"/>
		<line class="st10" x1="138.1" y1="58.3" x2="153.4" y2="58.6"/>
		<line class="st10" x1="80.5" y1="82.1" x2="93" y2="73.2"/>
		<line class="st10" x1="133.5" y1="43.7" x2="145.8" y2="34.8"/>
		<path class="st10" d="M80.5,34.8c5-7,12-12.2,20.2-14.9"/>
		<rect x="-21.9" y="4.5" class="st1" width="270.3" height="129.7"/>
		<polyline class="st10" points="72.8,58.3 72.8,61 73,63.4 73.5,66 74,68.4 74.7,70.8 75.7,73.2 76.6,75.6 77.8,77.8 79,79.9 
			80.5,82.1 		"/>
		<path class="st10" d="M125.6,96.7c-4,1.4-8.2,2-12.5,1.9c-4.2,0.1-8.5-0.6-12.5-1.9"/>
		<rect x="-21.9" y="4.5" class="st1" width="270.3" height="129.7"/>
		<polyline class="st10" points="145.8,82.1 147.2,79.9 148.4,77.8 149.6,75.6 150.6,73.2 151.5,70.8 152.2,68.4 152.7,66 
			153.2,63.4 153.4,61 153.4,58.3 		"/>
		<path class="st10" d="M125.6,19.9c8.1,2.7,15.2,7.9,20.2,14.9"/>
		<rect x="-21.9" y="4.5" class="st1" width="270.3" height="129.7"/>
		<polyline class="st10" points="41.1,106.1 41.1,106.6 41.4,106.8 41.6,107.3 42.1,107.5 42.3,107.8 42.8,107.8 		"/>
		<line class="st10" x1="48.1" y1="114.5" x2="66.1" y2="114.5"/>
		<line class="st10" x1="48.1" y1="114.5" x2="48.1" y2="107.8"/>
		<line class="st10" x1="66.1" y1="114.5" x2="66.1" y2="107.8"/>
		<line class="st10" x1="42.8" y1="107.8" x2="68.7" y2="107.8"/>
		<polyline class="st10" points="69,107.8 69.4,107.8 69.9,107.5 70.2,107.3 70.4,106.8 70.6,106.6 70.6,106.1 		"/>
		<polyline class="st10" points="42.8,69.9 42.3,70.1 42.1,70.1 41.6,70.3 41.4,70.8 41.1,71.3 41.1,71.8 		"/>
		<line class="st10" x1="41.1" y1="106.1" x2="41.1" y2="71.8"/>
		<line class="st10" x1="51" y1="112.1" x2="51" y2="111.1"/>
		<line class="st10" x1="51" y1="111.1" x2="51" y2="109.9"/>
		<line class="st10" x1="51" y1="111.1" x2="51.9" y2="111.1"/>
		<line class="st10" x1="49.8" y1="111.1" x2="51" y2="111.1"/>
		<line class="st10" x1="56.5" y1="112.1" x2="56.5" y2="111.1"/>
		<line class="st10" x1="56.5" y1="111.1" x2="56.5" y2="109.9"/>
		<line class="st10" x1="56.5" y1="111.1" x2="57.7" y2="111.1"/>
		<line class="st10" x1="55.3" y1="111.1" x2="56.5" y2="111.1"/>
		<line class="st10" x1="62" y1="112.1" x2="62" y2="111.1"/>
		<line class="st10" x1="62" y1="111.1" x2="62" y2="109.9"/>
		<line class="st10" x1="62" y1="111.1" x2="63.2" y2="111.1"/>
		<line class="st10" x1="61" y1="111.1" x2="62" y2="111.1"/>
		<line class="st4" x1="44.7" y1="94.6" x2="66.8" y2="94.8"/>
		<line class="st4" x1="67" y1="104.2" x2="67" y2="94.6"/>
		<text transform="matrix(1 0 0 1 48.3134 93.3715)" class="st8 st9">W</text>
		<rect x="48.3" y="87.9" class="st1" width="5.5" height="7"/>
		<text transform="matrix(1 0 0 1 60.0732 93.3715)" class="st8 st9">B</text>
		<rect x="60.1" y="87.9" class="st1" width="4.1" height="7"/>
		<text transform="matrix(1 0 0 1 54.7934 93.3715)" class="st8 st9">R</text>
		<rect x="54.8" y="87.9" class="st1" width="4.3" height="7"/>
		<line class="st4" x1="44.7" y1="104.2" x2="44.7" y2="94.6"/>
		<line class="st4" x1="44.7" y1="104.2" x2="66.8" y2="104.2"/>
		<line class="st5" x1="48.7" y1="102.4" x2="48.9" y2="96.6"/>
		<line class="st5" x1="65.5" y1="102.4" x2="65.5" y2="96.6"/>
		<line class="st5" x1="48.7" y1="102.4" x2="65.5" y2="102.4"/>
		<line class="st5" x1="48.7" y1="96.6" x2="65.5" y2="96.9"/>
		<path class="st4" d="M188.2,17.5c0,3.8-3.1,7-7,7s-7-3.1-7-7s3.1-7,7-7C185.1,10.6,188.2,13.7,188.2,17.5"/>
		<path class="st4" d="M185.4,17.5c-0.1,2.2-1.9,3.9-4.1,3.8c-2.1,0-3.8-1.6-3.8-3.7c0,0,0-0.1,0-0.1c0-2.2,1.7-4,3.8-4.1
			C183.5,13.5,185.3,15.3,185.4,17.5"/>
		<path class="st4" d="M51.9,126c0,3.8-3.1,7-7,7s-7-3.1-7-7c0-3.8,3.1-7,7-7c0,0,0,0,0,0C48.8,119.1,51.9,122.2,51.9,126"/>
		<path class="st4" d="M48.8,126L48.8,126c0,2.1-1.7,3.8-3.8,3.8c-2.1,0-3.8-1.7-3.8-3.8c0-2.1,1.7-3.8,3.8-3.8
			C47,122.1,48.8,123.8,48.8,126C48.8,125.9,48.8,126,48.8,126"/>
		<rect x="-21.9" y="4.5" class="st1" width="270.3" height="129.7"/>
		<line class="st4" x1="38" y1="126" x2="38" y2="65.1"/>
		<line class="st10" x1="161.1" y1="46.1" x2="179.6" y2="46.1"/>
		<line class="st10" x1="161.1" y1="49.5" x2="179.6" y2="49.5"/>
		<polyline class="st10" points="179.6,49.5 179.8,49.5 180.3,49.2 180.8,49 181,48.7 181,48.3 181.3,47.8 181,47.3 181,47.1 
			180.8,46.6 180.3,46.3 179.8,46.3 179.6,46.1 		"/>
		<polyline class="st10" points="161.1,46.1 160.6,46.3 160.4,46.3 159.9,46.6 159.7,47.1 159.4,47.3 159.4,47.8 159.4,48.3 
			159.7,48.7 159.9,49 160.4,49.2 160.6,49.5 161.1,49.5 		"/>
		<line class="st10" x1="46.6" y1="46.1" x2="65.1" y2="46.1"/>
		<line class="st10" x1="46.6" y1="49.5" x2="65.1" y2="49.5"/>
		<polyline class="st10" points="65.1,49.5 65.6,49.5 65.8,49.2 66.3,49 66.6,48.7 66.8,48.3 66.8,47.8 66.8,47.3 66.6,47.1 
			66.3,46.6 65.8,46.3 65.6,46.3 65.1,46.1 		"/>
		<polyline class="st10" points="46.6,46.1 46.4,46.3 45.9,46.3 45.7,46.6 45.2,47.1 45.2,47.3 45,47.8 45.2,48.3 45.2,48.7 
			45.7,49 45.9,49.2 46.4,49.5 46.6,49.5 		"/>
		<rect x="54.3" y="108.3" width="11" height="5.5"/>
		<rect x="54.4" y="108.4" class="st11" width="11" height="5.5"/>
		<line class="st5" x1="53.2" y1="30.4" x2="53.2" y2="25.6"/>
		<line class="st5" x1="58.8" y1="30.4" x2="59" y2="25.6"/>
		<line class="st5" x1="52" y1="25.6" x2="60" y2="25.8"/>
		<line class="st5" x1="52" y1="25.6" x2="52.3" y2="14.5"/>
		<line class="st5" x1="60" y1="25.6" x2="60" y2="14.5"/>
		<line class="st5" x1="52" y1="14.5" x2="60" y2="14.5"/>
		<path class="st4" d="M63,36.7c0,3.8-3.1,7-7,7c-3.8,0-7-3.1-7-7c0-3.8,3.1-7,7-7c0,0,0,0,0,0C59.8,29.8,63,32.9,63,36.7"/>
		<rect x="-21.9" y="4.5" class="st1" width="270.3" height="129.7"/>
		<line class="st5" x1="46.8" y1="47.9" x2="65.2" y2="47.9"/>
		<rect x="53.1" y="65.3" class="st6" width="5.5" height="4.8"/>
		<rect x="53.2" y="65.4" class="st7" width="5.5" height="4.8"/>
		<rect x="51.9" y="70.1" class="st6" width="7.9" height="11"/>
		<rect x="52" y="70.2" class="st7" width="7.9" height="11"/>
		<line class="st5" x1="53.2" y1="70.2" x2="53.2" y2="65.4"/>
		<line class="st5" x1="58.8" y1="70.2" x2="59" y2="65.4"/>
		<line class="st5" x1="52" y1="70.2" x2="60" y2="70.2"/>
		<line class="st5" x1="52" y1="81.3" x2="52.3" y2="70.2"/>
		<line class="st5" x1="60" y1="81.3" x2="60" y2="70.2"/>
		<line class="st5" x1="52" y1="81.3" x2="60" y2="81.5"/>
		<path class="st4" d="M63,59.1c0,3.8-3.1,7-7,7s-7-3.1-7-7c0-3.8,3.1-7,7-7c0,0,0,0,0,0C59.8,52.1,63,55.2,63,59.1"/>
		<rect x="-21.9" y="4.5" class="st1" width="270.3" height="129.7"/>
		<polyline class="st3" points="61.6,6.1 60.2,6.4 58.8,6.9 57.6,7.8 56.8,9 56.1,10.2 56.1,11.9 		"/>
		<polyline class="st3" points="68.4,11.9 68.1,10.2 67.6,9 66.7,7.8 65.5,6.9 64.3,6.4 62.8,6.1 		"/>
		<line class="st3" x1="61.6" y1="6.1" x2="62.8" y2="6.1"/>
		<line class="st3" x1="68.4" y1="82.7" x2="68.4" y2="11.9"/>
		<line class="st3" x1="70" y1="84.4" x2="70.5" y2="84.4"/>
		<polyline class="st3" points="68.4,82.7 68.4,82.9 68.6,83.4 68.8,83.7 69.1,84.1 69.6,84.1 70,84.4 		"/>
		<text transform="matrix(1 0 0 1 41.5932 75.913)" class="st8 st12">12V</text>
		<text transform="matrix(1 0 0 1 38.9531 26.4115)" class="st8 st9">GN</text>
		<rect x="39" y="20.9" class="st1" width="13.2" height="7"/>
		<rect x="-19.8" y="32.2" width="39.1" height="8.9"/>
		<rect x="-19.7" y="32.3" class="st11" width="39.1" height="8.9"/>
		<rect x="-19.8" y="54.5" class="st13" width="39.1" height="8.9"/>
		<rect x="-19.7" y="54.6" class="st14" width="39.1" height="8.9"/>
		<rect x="207.2" y="32.2" width="70" height="8.9"/>
		<rect x="207.1" y="32.3" class="st11" width="39.1" height="8.9"/>
		<rect x="207.2" y="54.5" class="st13" width="72" height="8.9"/>
		<polyline class="st2" points="56.1,82.7 56.1,82.9 56.4,83.4 56.6,83.7 56.8,84.1 57.3,84.1 57.8,84.4 		"/>
		<path d="M135.7,105.9H90.8c-3,0-5.5,2.5-5.5,5.5v10.9c0,3,2.5,5.5,5.5,5.5h44.9c3,0,5.5-2.5,5.5-5.5v-10.9
			C141.2,108.4,138.7,105.9,135.7,105.9C135.7,105.9,135.7,105.9,135.7,105.9"/>
		<polygon class="st15" points="117.2,112.5 117.6,112.5 119.1,115 120.5,112.5 120.9,112.5 119.3,115.4 118.8,115.4 		"/>
		<rect x="121.6" y="112.5" class="st15" width="0.4" height="2.9"/>
		<path class="st15" d="M122.8,113.5c0-0.7,0.2-1.1,1-1.1h1.5c0.7,0,0.9,0.3,0.9,0.7v0.2h-0.3v-0.1c0-0.5-0.3-0.5-0.7-0.5h-1.4
			c-0.4,0-0.7,0.1-0.7,0.6v1.1c0,0.5,0.3,0.6,0.7,0.6h1.4c0.5,0,0.7-0.1,0.7-0.5v-0.2h0.4v0.2c0,0.5-0.2,0.8-1,0.8h-1.5
			c-0.8,0-1-0.4-1-1.1V113.5z"/>
		<polygon class="st15" points="128.3,112.8 126.8,112.8 126.8,112.5 130.2,112.5 130.2,112.8 128.7,112.8 128.7,115.4 128.3,115.4 
					"/>
		<path class="st15" d="M130.7,113.5c0-0.7,0.2-1.1,1-1.1h1.7c0.8,0,1,0.4,1,1.1v0.8c0,0.7-0.2,1.1-1,1.1h-1.7c-0.8,0-1-0.4-1-1.1
			V113.5z M134.1,113.4c0-0.5-0.3-0.6-0.7-0.6h-1.6c-0.4,0-0.7,0.1-0.7,0.6v1.1c0,0.5,0.3,0.6,0.7,0.6h1.6c0.4,0,0.7-0.1,0.7-0.6
			V113.4z"/>
		<path class="st15" d="M135.3,112.5h2.3c0.8,0,1,0.3,1,0.8v0.2c0,0.4-0.2,0.5-0.5,0.6v0c0.4,0.1,0.5,0.3,0.5,0.5v0.7h-0.4v-0.6
			c0-0.5-0.2-0.5-0.6-0.5h-1.9v1.2h-0.4L135.3,112.5z M137.6,113.9c0.4,0,0.6-0.1,0.6-0.4v-0.3c0-0.3-0.1-0.4-0.7-0.4h-1.8v1.1
			H137.6z"/>
		<path class="st15" d="M116.8,119.8c0-0.5,0.2-0.8,0.9-0.9v0c-0.5,0-0.9-0.5-0.9-1c0,0,0,0,0,0v-0.3c0-1.1,0.5-1.2,2.4-1.2h1.5
			c1.3,0,1.9,0.2,1.9,1.2v0.3c0,0.5-0.1,0.9-0.8,1v0c0.5,0.1,0.9,0.5,0.9,1.1v0.4c0,0.8-0.5,1.1-1.5,1.1h-2.9
			c-1.1,0-1.5-0.4-1.5-1.2L116.8,119.8z M120.7,120.3c0.5,0,0.6-0.2,0.6-0.5c0-0.4-0.1-0.5-0.7-0.5H119c-0.6,0-0.7,0.1-0.7,0.5
			c0,0.4,0.1,0.5,0.6,0.5H120.7z M120.7,118.3c0.4,0,0.6-0.2,0.6-0.5c0-0.2-0.1-0.4-0.4-0.5c0,0-0.1,0-0.1,0h-2
			c-0.2,0-0.4,0.1-0.5,0.3c0,0,0,0.1,0,0.1c0,0.3,0.1,0.5,0.6,0.5H120.7z"/>
		<path class="st15" d="M124.9,119.8c0-0.5,0.2-0.8,0.9-0.9v0c-0.5,0-0.9-0.5-0.9-1c0,0,0,0,0,0v-0.3c0-1.1,0.5-1.2,2.4-1.2h1.5
			c1.3,0,1.9,0.2,1.9,1.2v0.3c0,0.5-0.1,0.9-0.8,1v0c0.5,0.1,0.9,0.5,0.9,1.1v0.4c0,0.8-0.5,1.1-1.5,1.1h-2.9
			c-1.1,0-1.5-0.4-1.5-1.2L124.9,119.8z M128.8,120.3c0.5,0,0.6-0.2,0.6-0.5c0-0.4-0.1-0.5-0.7-0.5h-1.6c-0.6,0-0.7,0.1-0.7,0.5
			c0,0.4,0.1,0.5,0.6,0.5H128.8z M128.7,118.3c0.4,0,0.6-0.2,0.6-0.5c0-0.2-0.1-0.4-0.4-0.5c0,0-0.1,0-0.1,0h-2
			c-0.2,0-0.4,0.1-0.5,0.3c0,0,0,0.1,0,0.1c0,0.3,0.1,0.5,0.6,0.5H128.7z"/>
		<path class="st15" d="M133.2,119.7c0-0.5,0.2-0.8,0.9-0.9v0c-0.5,0-0.9-0.5-0.9-1c0,0,0,0,0,0v-0.3c0-1.1,0.5-1.2,2.4-1.2h1.5
			c1.3,0,1.9,0.2,1.9,1.2v0.3c0,0.5-0.1,0.9-0.8,1v0c0.5,0.1,0.9,0.5,0.9,1.1v0.4c0,0.8-0.5,1.1-1.5,1.1h-2.9
			c-1.1,0-1.5-0.4-1.5-1.2V119.7z M137,120.3c0.5,0,0.6-0.2,0.6-0.5c0-0.4-0.1-0.5-0.7-0.5h-1.6c-0.6,0-0.7,0.1-0.7,0.5
			c0,0.4,0.1,0.5,0.6,0.5H137z M137,118.2c0.4,0,0.6-0.2,0.6-0.5c0-0.2-0.1-0.4-0.4-0.5c0,0-0.1,0-0.1,0h-2c-0.2,0-0.4,0.1-0.5,0.3
			c0,0,0,0.1,0,0.1c0,0.3,0.1,0.5,0.6,0.5H137z"/>
		<path class="st15" d="M110.7,112.3C110.7,112.3,110.7,112.3,110.7,112.3c-0.1,0-2.1,1.5-2.2,1.5c-0.1-0.1-2.2-1.5-2.2-1.5
			c0,0,0,0-0.1,0h-1.9c0,0-0.1,0-0.1,0.1c0,0,0,0,0,0c0,0,0,0.1,0,0.1c0,0,2.9,2,3.1,2.1c-0.2,0.1-3.4,2.3-3.4,2.3c0,0,0,0,0,0.1
			c0,0,0,0,0,0c0,0,0,0.1,0.1,0.1h2c0,0,0,0,0.1,0c0,0,2.3-1.6,2.4-1.7c0.1,0.1,2.4,1.7,2.4,1.7c0,0,0,0,0.1,0h1.9
			c0,0,0.1,0,0.1-0.1c0,0,0,0,0,0c0,0,0-0.1,0-0.1c0,0-3.2-2.1-3.4-2.3c0.2-0.1,3.2-2.1,3.2-2.1c0,0,0-0.1,0-0.1c0,0,0-0.1-0.1-0.1
			H110.7z"/>
		<path class="st15" d="M95.5,112.3C95.5,112.3,95.5,112.3,95.5,112.3c-0.1,0-2.8,3.4-3,3.6c-0.1-0.2-2.9-3.6-2.9-3.6c0,0,0,0-0.1,0
			H88c0,0-0.1,0-0.1,0.1c0,0,0,0.1,0,0.1l3.8,4.6c0,0,0,0,0.1,0h1.6c0,0,0.1,0,0.1,0l3.8-4.6c0,0,0-0.1,0-0.1c0,0,0-0.1-0.1-0.1
			H95.5z"/>
		<path class="st16" d="M98.1,112.3c-0.2-0.4-0.3-0.8-0.3-1.3c0-1,0.5-1.9,1.2-1.9h4c0.2,0,0.4,0.3,0.4,0.6c0,0.4-0.2,0.6-0.4,0.6
			h-4c-0.2,0-0.4,0.3-0.4,0.6c0,0.3,0.2,0.7,0.4,0.7h4c0.2,0,0.4,0.3,0.4,0.6s-0.2,0.6-0.4,0.6h-4c-0.2,0-0.4,0.3-0.4,0.7
			s0.2,0.6,0.4,0.6h4c0.2,0,0.4,0.3,0.4,0.6c0,0.4-0.2,0.6-0.4,0.6h-4c-0.6,0-1.2-0.9-1.2-1.9C97.8,113.2,97.9,112.7,98.1,112.3
			L98.1,112.3z"/>
		<path class="st15" d="M113.4,116.5c0.1,0,0.1,0,0.2,0c0,0,0.1,0.1,0.1,0.1c0,0,0,0.1,0,0.2c0,0.1,0,0.1,0,0.2c0,0-0.1,0.1-0.1,0.1
			c-0.1,0.1-0.2,0.1-0.3,0c0,0-0.1-0.1-0.1-0.1c0,0,0-0.1,0-0.2c0-0.1,0-0.1,0-0.2c0,0,0.1-0.1,0.1-0.1
			C113.3,116.5,113.4,116.5,113.4,116.5 M113.4,116.6c0,0-0.1,0-0.1,0c0,0-0.1,0.1-0.1,0.1c0,0,0,0.1,0,0.1c0,0,0,0.1,0,0.1
			c0,0,0.1,0.1,0.1,0.1c0,0,0.1,0,0.1,0c0,0,0.1,0,0.1,0c0,0,0.1-0.1,0.1-0.1c0,0,0-0.1,0-0.1c0,0,0-0.1,0-0.1c0,0-0.1-0.1-0.1-0.1
			C113.5,116.6,113.5,116.6,113.4,116.6 M113.3,117v-0.3h0.1c0,0,0.1,0,0.1,0c0,0,0,0,0,0c0,0,0,0,0,0c0,0,0,0,0,0.1c0,0,0,0-0.1,0
			c0,0,0,0,0,0c0,0,0,0,0,0.1l0,0.1h-0.1l0-0.1c0,0,0-0.1-0.1-0.1c0,0,0,0,0,0h0L113.3,117L113.3,117z M113.4,116.8L113.4,116.8
			c0.1,0,0.1,0,0.1,0c0,0,0,0,0,0c0,0,0,0,0,0c0,0,0,0,0,0c0,0,0,0-0.1,0h-0.1V116.8z"/>
		<path class="st16" d="M87.9,124v-0.1V124v-0.1V124h-0.2l2.1-5.5h4.5c0.4,0,0.8,0.1,1.2,0.3c0.2,0.2,0.4,0.5,0.4,0.8
			c0,0.3-0.1,0.6-0.2,0.9l-0.2,0.5c-0.3,1-1.2,1.7-2.2,1.8h-3.2l-0.5,1.3L87.9,124z M89.5,123.8l0.5-1.3h3.3c1-0.1,1.8-0.7,2-1.6
			l0.2-0.5c0.1-0.3,0.2-0.6,0.2-0.9c0-0.2-0.1-0.5-0.3-0.6c-0.3-0.2-0.7-0.3-1.1-0.2H90l-1.9,5.1H89.5z"/>
		<path class="st16" d="M90.4,121.3c0-0.1,0-0.1,0.1-0.1c0,0,0,0,0,0h2.5c0.3,0,0.6-0.2,0.6-0.5l0.1-0.2c0-0.1,0-0.1,0.1-0.2
			c0-0.1,0-0.1-0.1-0.1c-0.1-0.1-0.2-0.1-0.3-0.1H91c-0.1,0-0.1,0-0.1-0.1s0-0.1,0.1-0.1c0,0,0,0,0,0h2.4c0.2,0,0.3,0,0.4,0.1
			c0.1,0.1,0.2,0.2,0.2,0.3c0,0.1,0,0.2-0.1,0.3l-0.1,0.2c-0.1,0.4-0.5,0.6-0.8,0.6h-2.5C90.5,121.4,90.4,121.3,90.4,121.3
			C90.4,121.3,90.4,121.3,90.4,121.3"/>
		<path class="st16" d="M100.7,124v-0.1V124v-0.1V124h-0.2l0.3-0.8c0.1-0.1,0.1-0.3,0.1-0.4c0-0.1,0-0.1-0.1-0.1
			c-0.1,0-0.2-0.1-0.3-0.1h-2.5l-0.5,1.4h-1.9l2.1-5.5h5c0.3,0,0.7,0.1,1,0.2c0.2,0.2,0.3,0.4,0.3,0.7c0,0.3-0.1,0.6-0.2,0.8
			l-0.1,0.3c-0.2,0.6-0.6,1.1-1.2,1.3c0,0,0.1,0.1,0.1,0.1c0.1,0.1,0.2,0.3,0.2,0.5c0,0.2-0.1,0.4-0.1,0.6l-0.4,1L100.7,124z
			 M96,123.8h1.4l0.5-1.4h2.6c0.1,0,0.3,0,0.4,0.1c0.1,0.1,0.2,0.2,0.2,0.3c0,0.2,0,0.3-0.1,0.5l-0.2,0.5h1.4l0.3-0.8
			c0.1-0.2,0.1-0.4,0.1-0.6c0-0.1,0-0.2-0.1-0.3c-0.1-0.1-0.2-0.1-0.4-0.1l-0.1,0l0.1-0.2l0.1,0c0.7-0.1,1.2-0.6,1.3-1.2l0.1-0.3
			c0.1-0.2,0.2-0.5,0.2-0.8c0-0.2-0.1-0.4-0.2-0.5c-0.3-0.1-0.6-0.2-0.8-0.2H98L96,123.8z"/>
		<path class="st16" d="M98.4,121.2c0-0.1,0-0.1,0.1-0.1h2.7c0.2,0,0.3,0,0.5-0.1c0.1-0.1,0.2-0.2,0.3-0.4l0.1-0.2
			c0-0.1,0.1-0.2,0.1-0.2c0-0.1,0-0.1-0.1-0.1c-0.1,0-0.3-0.1-0.4,0H99c-0.1,0-0.1,0-0.1-0.1s0-0.1,0.1-0.1c0,0,0,0,0,0h2.5
			c0.2,0,0.3,0,0.5,0.1c0.1,0,0.2,0.2,0.2,0.3c0,0.1,0,0.2-0.1,0.3l-0.1,0.2c-0.1,0.2-0.2,0.4-0.3,0.5c-0.2,0.1-0.4,0.2-0.6,0.2
			h-2.7C98.5,121.3,98.4,121.3,98.4,121.2"/>
		<path class="st16" d="M106.4,124.1c-0.5,0-0.9,0-1.4-0.2c-0.4-0.2-0.6-0.5-0.5-0.9c0-0.3,0.1-0.7,0.2-1l0.6-1.6
			c0.2-0.7,0.7-1.2,1.3-1.6c0.6-0.3,1.3-0.4,1.9-0.4h2.6c0.5,0,0.9,0,1.4,0.2c0.4,0.2,0.6,0.5,0.5,0.9c0,0.3-0.1,0.6-0.2,1l-0.6,1.6
			c-0.2,0.7-0.7,1.2-1.3,1.6c-0.6,0.3-1.3,0.4-1.9,0.4H106.4z M104.9,122.1c-0.1,0.3-0.2,0.6-0.2,0.9c0,0.3,0.1,0.6,0.4,0.7
			c0.4,0.2,0.8,0.2,1.3,0.2h2.6c0.6,0,1.3-0.1,1.8-0.4c0.6-0.3,1-0.9,1.2-1.5l0.6-1.6c0.1-0.3,0.2-0.6,0.2-0.9
			c0-0.3-0.1-0.6-0.4-0.7c-0.4-0.2-0.8-0.2-1.3-0.2h-2.6c-0.6,0-1.3,0.1-1.8,0.4c-0.6,0.3-1,0.9-1.2,1.5L104.9,122.1z"/>
		<path class="st16" d="M109.3,122.7h-2.6c-0.1,0-0.1,0-0.1-0.1c0-0.1,0-0.1,0.1-0.1h2.6c0.3,0,0.6-0.1,0.8-0.2
			c0.2-0.2,0.4-0.5,0.5-0.8l0.2-0.6c0.1-0.2,0.1-0.4,0.1-0.6c0-0.1,0-0.2-0.1-0.3c-0.2-0.1-0.3-0.1-0.5-0.1h-2.5
			c-0.1,0-0.1,0-0.1-0.1c0-0.1,0-0.1,0.1-0.1h2.5c0.2,0,0.5,0,0.7,0.1c0.1,0.1,0.2,0.3,0.2,0.4c0,0.2-0.1,0.4-0.2,0.6l-0.2,0.6
			c-0.1,0.3-0.3,0.6-0.5,0.9C110,122.7,109.6,122.8,109.3,122.7L109.3,122.7z"/>
		<rect x="-21.9" y="4.5" class="st1" width="270.3" height="129.7"/>
	</g>
</g>
</svg>
