<svg id="Layer_1" data-name="Layer 1" xmlns="http://www.w3.org/2000/svg" viewBox="0 0 158.726 69.275"><defs><style>.cls-1{fill:#2c2929;}.cls-2,.cls-3,.cls-5,.cls-6,.cls-7{fill:none;stroke-miterlimit:10;}.cls-2,.cls-5{stroke:#221f1f;}.cls-2{stroke-width:0.833px;}.cls-3,.cls-6,.cls-7{stroke:#424242;}.cls-3{stroke-width:1.191px;}.cls-4{fill:#fff;}.cls-5{stroke-width:0.794px;}.cls-6{stroke-width:1.412px;}.cls-7{stroke-width:1.322px;}.cls-8{fill:#079247;}.cls-9{fill:#5a5a5c;}</style></defs><path class="cls-1" d="M.4165,66.5714V2.7035A2.287,2.287,0,0,1,2.7035.4165H156.0224a2.2865,2.2865,0,0,1,2.2871,2.287V66.5714a2.2866,2.2866,0,0,1-2.2871,2.2871H2.7035a2.2871,2.2871,0,0,1-2.287-2.2871"/><path class="cls-2" d="M2.7035.4165h153.319a2.287,2.287,0,0,1,2.287,2.287V66.5714a2.2871,2.2871,0,0,1-2.2871,2.2871H2.7036A2.2871,2.2871,0,0,1,.4165,66.5714V2.7035A2.287,2.287,0,0,1,2.7035.4165Z"/><rect class="cls-3" x="146.1813" y="27.9235" width="10.613" height="13.646"/><polygon class="cls-3" points="146.181 40.509 146.181 29.271 136.449 23.652 126.716 29.271 126.716 40.508 136.449 46.127 146.181 40.509"/><path class="cls-4" d="M136.6508,39.6544a4.765,4.765,0,1,1,4.766-4.7649,4.7657,4.7657,0,0,1-4.766,4.7649"/><path class="cls-5" d="M136.6508,39.6544a4.765,4.765,0,1,1,4.766-4.7649A4.7657,4.7657,0,0,1,136.6508,39.6544Z"/><polygon class="cls-3" points="33.298 40.508 33.298 29.271 23.566 23.652 13.833 29.271 13.833 40.508 23.566 46.127 33.298 40.508"/><polyline class="cls-3" points="146.181 29.271 149.647 29.271 149.647 40.486 146.181 40.509"/><path class="cls-4" d="M23.7681,39.6544a4.765,4.765,0,1,1,4.766-4.7649,4.7651,4.7651,0,0,1-4.766,4.7649"/><path class="cls-5" d="M23.7681,39.6544a4.765,4.765,0,1,1,4.766-4.7649A4.7651,4.7651,0,0,1,23.7681,39.6544Z"/><rect class="cls-3" x="118.0243" y="16.6605" width="13.861" height="6.991"/><rect class="cls-3" x="118.0253" y="31.6055" width="8.691" height="6.28"/><polyline class="cls-3" points="118.025 46.127 131.886 46.127 131.886 51.965 118.025 51.965"/><rect class="cls-6" x="28.5334" y="16.6594" width="103.352" height="6.99"/><rect class="cls-7" x="33.2964" y="31.6045" width="84.727" height="6.28"/><rect class="cls-6" x="28.5324" y="46.1265" width="103.353" height="5.837"/><rect class="cls-3" x="3.2204" y="28.0664" width="10.613" height="13.646"/><polyline class="cls-3" points="13.833 40.364 10.367 40.364 10.367 29.149 13.833 29.127"/><rect class="cls-8" x="77.0894" y="2.7994" width="6.064" height="6.064"/><rect class="cls-8" x="77.0894" y="59.9784" width="6.064" height="6.064"/><line class="cls-3" x1="142.9321" y1="0.4161" x2="142.9321" y2="27.3951"/><line class="cls-3" x1="142.9321" y1="42.3839" x2="142.9321" y2="68.859"/><line class="cls-3" x1="16.8775" y1="68.8585" x2="16.8775" y2="42.3835"/><path class="cls-3" d="M16.8775,27.3946c.217-1.6379,0-26.9788,0-26.9788"/><line class="cls-3" x1="142.9321" y1="8.8634" x2="16.9741" y2="8.8634"/><polyline class="cls-3" points="142.932 59.979 28.534 59.979 16.974 59.979"/><rect class="cls-9" x="69.3984" y="10.0914" width="4.002" height="13.704"/><rect class="cls-9" x="77.9484" y="10.3335" width="4.001" height="13.705"/><rect class="cls-9" x="86.6904" y="10.0745" width="4.001" height="13.705"/><rect class="cls-9" x="69.3264" y="44.8144" width="4.001" height="12.272"/><rect class="cls-9" x="77.8763" y="45.0315" width="4.002" height="12.271"/><rect class="cls-9" x="86.6184" y="44.8004" width="4.001" height="12.271"/><rect class="cls-9" x="90.5843" y="41.1494" width="13.705" height="4.001"/><rect class="cls-9" x="90.8264" y="32.5995" width="13.705" height="4.001"/><rect class="cls-9" x="90.5693" y="23.8574" width="13.705" height="4.001"/><rect class="cls-9" x="55.3904" y="40.8815" width="13.704" height="4.001"/><rect class="cls-9" x="55.6324" y="32.3325" width="13.705" height="4.001"/><rect class="cls-9" x="55.3744" y="23.5895" width="13.704" height="4.002"/></svg>