<svg id="Layer_1" data-name="Layer 1" xmlns="http://www.w3.org/2000/svg" viewBox="0 0 290.4423 69.275"><defs><style>.cls-1,.cls-10,.cls-11,.cls-13,.cls-14,.cls-15,.cls-2,.cls-3,.cls-4,.cls-5,.cls-6,.cls-7,.cls-8{fill:none;}.cls-1,.cls-10,.cls-13,.cls-5{stroke:#221f1f;}.cls-1,.cls-2,.cls-3,.cls-4,.cls-5,.cls-6,.cls-7,.cls-8{stroke-linecap:round;stroke-linejoin:round;}.cls-1,.cls-2,.cls-3{stroke-width:2.708px;}.cls-2,.cls-4{stroke:#e9262a;}.cls-3{stroke:#babcbe;}.cls-4,.cls-5,.cls-6{stroke-width:16.248px;}.cls-6{stroke:#00a651;}.cls-7{stroke:#231f20;stroke-width:19px;}.cls-8{stroke:#fff;stroke-width:17px;}.cls-9{fill:#2c2929;}.cls-10,.cls-11,.cls-13,.cls-14,.cls-15{stroke-miterlimit:10;}.cls-10{stroke-width:0.833px;}.cls-11,.cls-14,.cls-15{stroke:#424242;}.cls-11{stroke-width:1.191px;}.cls-12{fill:#fff;}.cls-13{stroke-width:0.794px;}.cls-14{stroke-width:1.412px;}.cls-15{stroke-width:1.322px;}.cls-16{fill:#079247;}.cls-17{fill:#5a5a5c;}</style></defs><line class="cls-1" x1="8.124" y1="6.8522" x2="66.0229" y2="6.8522"/><line class="cls-2" x1="8.124" y1="10.3334" x2="66.0237" y2="10.3334"/><line class="cls-3" x1="8.124" y1="13.9055" x2="68.8273" y2="13.9055"/><line class="cls-4" x1="8.124" y1="27.6464" x2="64.615" y2="27.6474"/><line class="cls-5" x1="8.124" y1="46.1473" x2="66.419" y2="46.1473"/><line class="cls-6" x1="280.9423" y1="45.1477" x2="216.9663" y2="45.1468"/><line class="cls-7" x1="280.9423" y1="26.6469" x2="215.1623" y2="26.6469"/><line class="cls-8" x1="280.9423" y1="26.6469" x2="215.1623" y2="26.6469"/><path class="cls-9" d="M66.0233,66.5714V2.7035A2.287,2.287,0,0,1,68.31.4165H221.6292a2.2865,2.2865,0,0,1,2.2871,2.287V66.5714a2.2866,2.2866,0,0,1-2.2871,2.2871H68.31a2.2871,2.2871,0,0,1-2.287-2.2871"/><path class="cls-10" d="M68.31.4165h153.319a2.287,2.287,0,0,1,2.287,2.287V66.5714a2.2871,2.2871,0,0,1-2.2871,2.2871H68.31a2.2871,2.2871,0,0,1-2.2871-2.2871V2.7035A2.287,2.287,0,0,1,68.31.4165Z"/><rect class="cls-11" x="211.7881" y="27.9235" width="10.613" height="13.646"/><polygon class="cls-11" points="211.788 40.509 211.788 29.271 202.056 23.652 192.323 29.271 192.323 40.508 202.056 46.127 211.788 40.509"/><path class="cls-12" d="M202.2576,39.6544a4.765,4.765,0,1,1,4.766-4.7649,4.7657,4.7657,0,0,1-4.766,4.7649"/><path class="cls-13" d="M202.2576,39.6544a4.765,4.765,0,1,1,4.766-4.7649A4.7657,4.7657,0,0,1,202.2576,39.6544Z"/><polygon class="cls-11" points="98.905 40.508 98.905 29.271 89.173 23.652 79.44 29.271 79.44 40.508 89.173 46.127 98.905 40.508"/><polyline class="cls-11" points="211.788 29.271 215.254 29.271 215.254 40.486 211.788 40.509"/><path class="cls-12" d="M89.3749,39.6544a4.765,4.765,0,1,1,4.766-4.7649,4.7651,4.7651,0,0,1-4.766,4.7649"/><path class="cls-13" d="M89.3749,39.6544a4.765,4.765,0,1,1,4.766-4.7649A4.7651,4.7651,0,0,1,89.3749,39.6544Z"/><rect class="cls-11" x="183.6312" y="16.6605" width="13.861" height="6.991"/><rect class="cls-11" x="183.6321" y="31.6055" width="8.691" height="6.28"/><polyline class="cls-11" points="183.632 46.127 197.493 46.127 197.493 51.965 183.632 51.965"/><rect class="cls-14" x="94.1402" y="16.6594" width="103.352" height="6.99"/><rect class="cls-15" x="98.9032" y="31.6045" width="84.727" height="6.28"/><rect class="cls-14" x="94.1392" y="46.1265" width="103.353" height="5.837"/><rect class="cls-11" x="68.8272" y="28.0664" width="10.613" height="13.646"/><polyline class="cls-11" points="79.44 40.364 75.974 40.364 75.974 29.149 79.44 29.127"/><rect class="cls-16" x="142.6962" y="2.7994" width="6.064" height="6.064"/><rect class="cls-16" x="142.6962" y="59.9784" width="6.064" height="6.064"/><line class="cls-11" x1="208.5389" y1="0.4161" x2="208.5389" y2="27.3951"/><line class="cls-11" x1="208.5389" y1="42.3839" x2="208.5389" y2="68.859"/><line class="cls-11" x1="82.4843" y1="68.8585" x2="82.4843" y2="42.3835"/><path class="cls-11" d="M82.4843,27.3946c.217-1.6379,0-26.9788,0-26.9788"/><line class="cls-11" x1="208.5389" y1="8.8634" x2="82.5809" y2="8.8634"/><polyline class="cls-11" points="208.539 59.979 94.141 59.979 82.581 59.979"/><rect class="cls-17" x="135.0052" y="10.0914" width="4.002" height="13.704"/><rect class="cls-17" x="143.5552" y="10.3335" width="4.001" height="13.705"/><rect class="cls-17" x="152.2972" y="10.0745" width="4.001" height="13.705"/><rect class="cls-17" x="134.9332" y="44.8144" width="4.001" height="12.272"/><rect class="cls-17" x="143.4831" y="45.0315" width="4.002" height="12.271"/><rect class="cls-17" x="152.2252" y="44.8004" width="4.001" height="12.271"/><rect class="cls-17" x="156.1911" y="41.1494" width="13.705" height="4.001"/><rect class="cls-17" x="156.4332" y="32.5995" width="13.705" height="4.001"/><rect class="cls-17" x="156.1761" y="23.8574" width="13.705" height="4.001"/><rect class="cls-17" x="120.9972" y="40.8815" width="13.704" height="4.001"/><rect class="cls-17" x="121.2392" y="32.3325" width="13.705" height="4.001"/><rect class="cls-17" x="120.9812" y="23.5895" width="13.704" height="4.002"/></svg>