<svg id="Layer_1" data-name="Layer 1" xmlns="http://www.w3.org/2000/svg" viewBox="0 0 183.3612 85.0837"><defs><style>.cls-1{fill:#271e21;}.cls-2{fill:#606161;}.cls-3{fill:none;stroke:#221f1f;stroke-miterlimit:10;stroke-width:0.677px;}.cls-4{fill:#079247;}</style></defs><polyline class="cls-1" points="171.13 79.999 171.13 84.686 183.361 85.084 183.324 53.052 180.915 50.482 180.915 36.96 183.324 33.596 183.361 1.007 171.13 1.007 171.13 6.733"/><polyline class="cls-1" points="11.932 78.994 11.932 83.68 0 84.078 0.036 52.046 2.387 49.476 2.387 35.954 0.036 32.59 0 0.001 11.932 0.001 11.932 5.727"/><path class="cls-2" d="M5.5684,6.523V78.112h171.018V6.523ZM19.88,48.7056a5.5745,5.5745,0,1,1,5.574-5.575A5.575,5.575,0,0,1,19.88,48.7056Zm142.6534-1.212a5.574,5.574,0,1,1,5.574-5.574A5.5739,5.5739,0,0,1,162.5338,47.4936Z"/><path class="cls-3" d="M25.4544,43.1306a5.5745,5.5745,0,1,1-5.574-5.574A5.5747,5.5747,0,0,1,25.4544,43.1306Z"/><circle class="cls-3" cx="162.5338" cy="41.9196" r="5.574" transform="translate(61.606 176.0393) rotate(-67.5)"/><path class="cls-1" d="M120.91,15.2731a3.9805,3.9805,0,1,1-3.98-3.9809,3.98,3.98,0,0,1,3.98,3.9809"/><rect class="cls-1" x="75.4804" y="6.523" width="6.052" height="20.729"/><rect class="cls-1" x="88.4124" y="6.89" width="6.052" height="20.729"/><rect class="cls-1" x="101.6334" y="6.499" width="6.052" height="20.729"/><rect class="cls-1" x="75.3724" y="59.042" width="6.052" height="18.562"/><rect class="cls-1" x="88.3034" y="59.371" width="6.052" height="18.562"/><rect class="cls-1" x="101.5264" y="59.022" width="6.052" height="18.562"/><rect class="cls-1" x="107.5254" y="53.5" width="20.729" height="6.052"/><rect class="cls-1" x="107.8914" y="40.568" width="20.729" height="6.052"/><rect class="cls-1" x="107.5004" y="27.346" width="20.729" height="6.052"/><rect class="cls-1" x="54.2914" y="53.096" width="20.729" height="6.052"/><rect class="cls-1" x="54.6594" y="40.164" width="20.729" height="6.052"/><rect class="cls-1" x="54.2684" y="26.942" width="20.729" height="6.052"/><rect class="cls-1" x="27.0454" width="128.928" height="6.89"/><rect class="cls-4" x="85.9074" y="0.16" width="10.738" height="6.431"/><rect class="cls-1" x="27.0454" y="77.584" width="128.928" height="6.465"/><rect class="cls-4" x="85.9074" y="78.032" width="11.136" height="5.568"/></svg>