<svg id="Layer_1" data-name="Layer 1" xmlns="http://www.w3.org/2000/svg" viewBox="0 0 317.9237 85.0837"><defs><style>.cls-1,.cls-10,.cls-2,.cls-3,.cls-4,.cls-5,.cls-6,.cls-7{fill:none;}.cls-1{stroke:#00a651;}.cls-1,.cls-2,.cls-3,.cls-4,.cls-5,.cls-6,.cls-7{stroke-linecap:round;stroke-linejoin:round;}.cls-1,.cls-4,.cls-5{stroke-width:16.248px;}.cls-2{stroke:#231f20;stroke-width:19px;}.cls-3{stroke:#fff;stroke-width:17px;}.cls-4{stroke:#e9262a;}.cls-10,.cls-5{stroke:#221f1f;}.cls-6{stroke:#37b24a;}.cls-6,.cls-7{stroke-width:1.5px;}.cls-7{stroke:#d6dd28;}.cls-8{fill:#271e21;}.cls-9{fill:#606161;}.cls-10{stroke-miterlimit:10;stroke-width:0.677px;}.cls-11{fill:#079247;}</style></defs><line class="cls-1" x1="9.5" y1="34.251" x2="73.476" y2="34.252"/><line class="cls-2" x1="9.5" y1="52.7519" x2="75.28" y2="52.7519"/><line class="cls-3" x1="9.5" y1="52.7519" x2="75.28" y2="52.7519"/><line class="cls-4" x1="309.7997" y1="50.6348" x2="253.3087" y2="50.6338"/><line class="cls-5" x1="309.7997" y1="32.1339" x2="251.5047" y2="32.1339"/><line class="cls-6" x1="293.5458" y1="66.7797" x2="252.2138" y2="66.7797"/><line class="cls-7" x1="293.5548" y1="69.0783" x2="252.2138" y2="69.0783"/><line class="cls-6" x1="252.2141" y1="71.7304" x2="311.3179" y2="71.7304"/><line class="cls-7" x1="252.2141" y1="73.9247" x2="311.3179" y2="73.9247"/><polyline class="cls-8" points="243.389 79.999 243.389 84.686 255.62 85.084 255.583 53.052 253.174 50.482 253.174 36.96 255.583 33.596 255.62 1.007 243.389 1.007 243.389 6.733"/><polyline class="cls-8" points="84.191 78.994 84.191 83.68 72.259 84.078 72.295 52.046 74.646 49.476 74.646 35.954 72.295 32.59 72.259 0.001 84.191 0.001 84.191 5.727"/><path class="cls-9" d="M77.8277,6.523V78.112h171.018V6.523ZM92.14,48.7056a5.5745,5.5745,0,1,1,5.574-5.575A5.5749,5.5749,0,0,1,92.14,48.7056Zm142.6534-1.212a5.574,5.574,0,1,1,5.5739-5.574A5.574,5.574,0,0,1,234.7931,47.4936Z"/><path class="cls-10" d="M97.7137,43.1306a5.5745,5.5745,0,1,1-5.574-5.574A5.5747,5.5747,0,0,1,97.7137,43.1306Z"/><circle class="cls-10" cx="234.7931" cy="41.9196" r="5.574" transform="translate(106.2128 242.7981) rotate(-67.5)"/><path class="cls-8" d="M193.1688,15.2731a3.9806,3.9806,0,1,1-3.98-3.9809,3.98,3.98,0,0,1,3.98,3.9809"/><rect class="cls-8" x="147.7397" y="6.523" width="6.052" height="20.729"/><rect class="cls-8" x="160.6717" y="6.89" width="6.052" height="20.729"/><rect class="cls-8" x="173.8927" y="6.499" width="6.052" height="20.729"/><rect class="cls-8" x="147.6317" y="59.042" width="6.052" height="18.562"/><rect class="cls-8" x="160.5627" y="59.371" width="6.052" height="18.562"/><rect class="cls-8" x="173.7857" y="59.022" width="6.052" height="18.562"/><rect class="cls-8" x="179.7847" y="53.5" width="20.729" height="6.052"/><rect class="cls-8" x="180.1507" y="40.568" width="20.729" height="6.052"/><rect class="cls-8" x="179.7597" y="27.346" width="20.729" height="6.052"/><rect class="cls-8" x="126.5507" y="53.096" width="20.729" height="6.052"/><rect class="cls-8" x="126.9187" y="40.164" width="20.729" height="6.052"/><rect class="cls-8" x="126.5277" y="26.942" width="20.729" height="6.052"/><rect class="cls-8" x="99.3047" width="128.928" height="6.89"/><rect class="cls-11" x="158.1667" y="0.16" width="10.738" height="6.431"/><rect class="cls-8" x="99.3047" y="77.584" width="128.928" height="6.465"/><rect class="cls-11" x="158.1667" y="78.032" width="11.136" height="5.568"/></svg>