<svg id="Layer_1" data-name="Layer 1" xmlns="http://www.w3.org/2000/svg" viewBox="0 0 235.174 149.5509"><defs><style>.cls-1{fill:#cfd2d3;}.cls-2{fill:#424242;}.cls-3{fill:none;}</style></defs><path class="cls-1" d="M225.4285,149.5509H9.7524a9.7493,9.7493,0,0,1-9.749-9.7489V9.7489A9.7493,9.7493,0,0,1,9.7524,0H225.4285a9.7492,9.7492,0,0,1,9.7489,9.7489V139.802a9.7492,9.7492,0,0,1-9.7489,9.7489"/><path class="cls-2" d="M25.867,53.4933a1.9386,1.9386,0,1,1-1.9382-1.939,1.9379,1.9379,0,0,1,1.9382,1.939"/><path class="cls-2" d="M25.867,97.6212a1.9386,1.9386,0,1,1-1.9382-1.9389,1.9379,1.9379,0,0,1,1.9382,1.9389"/><path class="cls-2" d="M25.867,82.9113a1.9386,1.9386,0,1,1-1.9382-1.938,1.9373,1.9373,0,0,1,1.9382,1.938"/><path class="cls-2" d="M25.867,68.2023a1.9386,1.9386,0,1,1-1.9382-1.938,1.938,1.938,0,0,1,1.9382,1.938"/><rect class="cls-3" x="-1572.1834" y="-449.3569" width="2160" height="1728"/></svg>