<svg id="Layer_1" data-name="Layer 1" xmlns="http://www.w3.org/2000/svg" viewBox="0 0 372.6398 149.5509"><defs><style>.cls-1,.cls-4,.cls-5,.cls-6,.cls-7,.cls-8{fill:none;}.cls-2{fill:#cfd2d3;}.cls-3{fill:#424242;}.cls-4{stroke:#221f1f;}.cls-4,.cls-5,.cls-7,.cls-8{stroke-linecap:round;}.cls-4,.cls-5,.cls-6,.cls-7,.cls-8{stroke-linejoin:round;}.cls-4,.cls-5{stroke-width:2.708px;}.cls-5{stroke:#e9262a;}.cls-6,.cls-8{stroke:#f15b2c;}.cls-6{stroke-width:13.639px;}.cls-7{stroke:#5a5a5c;}.cls-7,.cls-8{stroke-width:8.124px;}.cls-9{fill:#d55128;}.cls-10{fill:#323031;}</style></defs><rect class="cls-1" x="-1572.1834" y="-219.2576" width="2160" height="1728"/><path class="cls-2" d="M225.425,149.5509H9.749A9.7493,9.7493,0,0,1,0,139.802V9.7489A9.7493,9.7493,0,0,1,9.749,0H225.425a9.7493,9.7493,0,0,1,9.749,9.7489V139.802a9.7493,9.7493,0,0,1-9.749,9.7489"/><path class="cls-3" d="M25.8635,53.4933a1.9385,1.9385,0,1,1-1.9381-1.939,1.9378,1.9378,0,0,1,1.9381,1.939"/><path class="cls-3" d="M25.8635,97.6212a1.9385,1.9385,0,1,1-1.9381-1.9389,1.9378,1.9378,0,0,1,1.9381,1.9389"/><path class="cls-3" d="M25.8635,82.9113a1.9385,1.9385,0,1,1-1.9381-1.938,1.9372,1.9372,0,0,1,1.9381,1.938"/><path class="cls-3" d="M25.8635,68.2023a1.9385,1.9385,0,1,1-1.9381-1.938,1.9379,1.9379,0,0,1,1.9381,1.938"/><line class="cls-4" x1="321.3441" y1="92.5531" x2="369.6711" y2="92.5531"/><line class="cls-5" x1="327.606" y1="87.9701" x2="369.6711" y2="87.9701"/><line class="cls-4" x1="321.3441" y1="122.1018" x2="369.6711" y2="122.1018"/><line class="cls-5" x1="327.606" y1="117.5188" x2="369.6711" y2="117.5188"/><polyline class="cls-6" points="270.059 74.776 299.03 74.776 299.03 28.596 325.371 28.596"/><line class="cls-7" x1="282.6194" y1="119.8224" x2="325.3713" y2="119.8224"/><line class="cls-8" x1="261.3098" y1="89.8868" x2="325.3713" y2="89.8868"/><path class="cls-9" d="M335.9808,6.0116H372.64V50.1437h-36.659a10.8571,10.8571,0,0,1-10.857-10.857V16.8687a10.8573,10.8573,0,0,1,10.857-10.8571"/><path class="cls-9" d="M263.55,97.66H235.3359V63.6953H263.551a8.3559,8.3559,0,0,1,8.355,8.3571V89.3053a8.355,8.355,0,0,1-8.356,8.355"/><path class="cls-10" d="M279.4993,129.2365H235.3362V110.4086h44.1631a3.1189,3.1189,0,0,1,3.12,3.12v12.5879a3.12,3.12,0,0,1-3.12,3.12"/></svg>