<?xml version="1.0" encoding="utf-8"?>
<!-- Generator: Adobe Illustrator 24.1.2, SVG Export Plug-In . SVG Version: 6.00 Build 0)  -->
<svg version="1.1" id="Layer_1" xmlns="http://www.w3.org/2000/svg" xmlns:xlink="http://www.w3.org/1999/xlink" x="0px" y="0px"
	 viewBox="0 0 392.3 427.4" style="enable-background:new 0 0 392.3 427.4;" xml:space="preserve">
<style type="text/css">
	.st0{fill-rule:evenodd;clip-rule:evenodd;fill:#1E1E1E;}
	.st1{fill-rule:evenodd;clip-rule:evenodd;fill:#FFFFFF;}
	.st2{fill:none;stroke:#7A52A1;stroke-width:8;stroke-linejoin:round;}
	.st3{fill:none;stroke:#FFDA68;stroke-width:8;stroke-linejoin:round;}
	.st4{fill-rule:evenodd;clip-rule:evenodd;fill:#FFDA68;}
	.st5{fill-rule:evenodd;clip-rule:evenodd;fill:#CCCCCC;}
	.st6{fill:none;stroke:#B7B7B8;stroke-width:8;stroke-linejoin:round;}
	.st7{fill-rule:evenodd;clip-rule:evenodd;fill:#2D2D2C;}
	.st8{fill:none;stroke:#9E9E9E;stroke-width:8;stroke-linejoin:round;}
	.st9{fill:none;stroke:#221F1F;stroke-width:10.832;stroke-linecap:round;stroke-linejoin:round;}
	.st10{fill:none;stroke:#E9262A;stroke-width:10.832;stroke-linecap:round;stroke-linejoin:round;}
	.st11{fill:none;stroke:#BABCBE;stroke-width:10.832;stroke-linecap:round;stroke-linejoin:round;}
</style>
<path class="st0" d="M0,95.7v311.5c0,11.1,9,20.1,20.1,20.1h352.2c11.1,0,20.1-9,20.1-20.1V95.7c0-11.1-9-20.1-20.1-20.1H20.1
	C9,75.7,0,84.6,0,95.7z"/>
<path class="st1" d="M31.5,84.7L31.5,84.7c-6.7,0-12.2,5.5-12.2,12.2c0,0,0,0,0,0l0,0c0,6.7,5.5,12.2,12.2,12.2l0,0
	c6.7,0,12.2-5.5,12.2-12.2l0,0C43.7,90.2,38.3,84.7,31.5,84.7C31.5,84.7,31.5,84.7,31.5,84.7z"/>
<path class="st2" d="M31.5,84.7L31.5,84.7c-6.7,0-12.2,5.5-12.2,12.2c0,0,0,0,0,0l0,0c0,6.7,5.5,12.2,12.2,12.2l0,0
	c6.7,0,12.2-5.5,12.2-12.2l0,0C43.7,90.2,38.3,84.7,31.5,84.7C31.5,84.7,31.5,84.7,31.5,84.7z"/>
<path class="st1" d="M76.9,82.6L76.9,82.6c-7.9,0-14.3,6.4-14.3,14.3l0,0c0,7.9,6.4,14.3,14.3,14.3l0,0l0,0
	c7.9,0,14.3-6.4,14.3-14.3c0,0,0,0,0,0l0,0C91.1,89,84.7,82.6,76.9,82.6z"/>
<path class="st3" d="M76.9,82.6L76.9,82.6c-7.9,0-14.3,6.4-14.3,14.3l0,0c0,7.9,6.4,14.3,14.3,14.3l0,0l0,0
	c7.9,0,14.3-6.4,14.3-14.3c0,0,0,0,0,0l0,0C91.1,89,84.7,82.6,76.9,82.6z"/>
<path class="st3" d="M121.8,82.6L121.8,82.6c-7.9,0-14.3,6.4-14.3,14.3l0,0c0,7.9,6.4,14.3,14.3,14.3l0,0c7.9,0,14.3-6.4,14.3-14.3
	l0,0C136,89,129.7,82.6,121.8,82.6z"/>
<path class="st1" d="M166.7,82.6L166.7,82.6c-7.9,0-14.3,6.4-14.3,14.3l0,0c0,7.9,6.4,14.3,14.3,14.3l0,0c7.9,0,14.3-6.4,14.3-14.3
	c0,0,0,0,0,0l0,0C180.9,89,174.6,82.6,166.7,82.6z"/>
<path class="st3" d="M166.7,82.6L166.7,82.6c-7.9,0-14.3,6.4-14.3,14.3l0,0c0,7.9,6.4,14.3,14.3,14.3l0,0c7.9,0,14.3-6.4,14.3-14.3
	c0,0,0,0,0,0l0,0C180.9,89,174.6,82.6,166.7,82.6z"/>
<path class="st1" d="M211.6,82.6L211.6,82.6c-7.9,0-14.3,6.4-14.3,14.3l0,0c0,7.9,6.4,14.3,14.3,14.3l0,0c7.9,0,14.3-6.4,14.3-14.3
	c0,0,0,0,0,0l0,0C225.9,89,219.5,82.6,211.6,82.6z"/>
<path class="st3" d="M211.6,82.6L211.6,82.6c-7.9,0-14.3,6.4-14.3,14.3l0,0c0,7.9,6.4,14.3,14.3,14.3l0,0c7.9,0,14.3-6.4,14.3-14.3
	c0,0,0,0,0,0l0,0C225.9,89,219.5,82.6,211.6,82.6z"/>
<path class="st3" d="M256.5,82.6L256.5,82.6c-7.9,0-14.3,6.4-14.3,14.3l0,0c0,7.9,6.4,14.3,14.3,14.3c0,0,0,0,0,0l0,0
	c7.9,0,14.3-6.4,14.3-14.3c0,0,0,0,0,0l0,0C270.8,89,264.4,82.6,256.5,82.6C256.5,82.6,256.5,82.6,256.5,82.6z"/>
<path class="st3" d="M301.4,82.6L301.4,82.6c-7.9,0-14.3,6.4-14.3,14.3l0,0l0,0c0,7.9,6.4,14.3,14.3,14.3l0,0
	c7.9,0,14.3-6.4,14.3-14.3c0,0,0,0,0,0l0,0C315.7,89,309.3,82.6,301.4,82.6z"/>
<path class="st4" d="M17.7,82.6v28.5h28.5V82.6H17.7z"/>
<path class="st3" d="M17.7,82.6v28.5h28.5V82.6H17.7z"/>
<path class="st1" d="M44.1,358.2L44.1,358.2c-17.1,0-30.9,13.8-30.9,30.9l0,0c0,17.1,13.8,30.9,30.9,30.9c0,0,0,0,0,0l0,0
	c17.1,0,30.9-13.8,30.9-30.9v0l0,0C75,372,61.1,358.2,44.1,358.2z"/>
<path class="st3" d="M44.1,358.2L44.1,358.2c-17.1,0-30.9,13.8-30.9,30.9l0,0c0,17.1,13.8,30.9,30.9,30.9c0,0,0,0,0,0l0,0
	c17.1,0,30.9-13.8,30.9-30.9v0l0,0C75,372,61.1,358.2,44.1,358.2z"/>
<path class="st1" d="M351.2,119.9L351.2,119.9c-17.1,0-30.9,13.8-30.9,30.9l0,0c0,17.1,13.8,30.9,30.9,30.9l0,0
	c17.1,0,30.9-13.8,30.9-30.9l0,0C382.1,133.7,368.2,119.9,351.2,119.9z"/>
<path class="st3" d="M351.2,119.9L351.2,119.9c-17.1,0-30.9,13.8-30.9,30.9l0,0c0,17.1,13.8,30.9,30.9,30.9l0,0
	c17.1,0,30.9-13.8,30.9-30.9l0,0C382.1,133.7,368.2,119.9,351.2,119.9z"/>
<path class="st1" d="M32,82.6L32,82.6c-7.9,0-14.3,6.4-14.3,14.3c0,0,0,0,0,0l0,0c0,7.9,6.4,14.3,14.3,14.3c0,0,0,0,0,0l0,0
	c7.9,0,14.3-6.4,14.3-14.3c0,0,0,0,0,0l0,0C46.2,89,39.8,82.6,32,82.6z"/>
<path class="st3" d="M32,82.6L32,82.6c-7.9,0-14.3,6.4-14.3,14.3c0,0,0,0,0,0l0,0c0,7.9,6.4,14.3,14.3,14.3c0,0,0,0,0,0l0,0
	c7.9,0,14.3-6.4,14.3-14.3c0,0,0,0,0,0l0,0C46.2,89,39.8,82.6,32,82.6z"/>
<path class="st1" d="M76.9,84.7L76.9,84.7c-6.7,0-12.2,5.5-12.2,12.2c0,0,0,0,0,0l0,0c0,6.7,5.5,12.2,12.2,12.2c0,0,0,0,0,0l0,0
	c6.7,0,12.2-5.5,12.2-12.2c0,0,0,0,0,0l0,0C89.1,90.2,83.6,84.7,76.9,84.7C76.9,84.7,76.9,84.7,76.9,84.7z"/>
<path class="st3" d="M76.9,84.7L76.9,84.7c-6.7,0-12.2,5.5-12.2,12.2c0,0,0,0,0,0l0,0c0,6.7,5.5,12.2,12.2,12.2c0,0,0,0,0,0l0,0
	c6.7,0,12.2-5.5,12.2-12.2c0,0,0,0,0,0l0,0C89.1,90.2,83.6,84.7,76.9,84.7C76.9,84.7,76.9,84.7,76.9,84.7z"/>
<path class="st1" d="M166.7,84.7L166.7,84.7c-6.7,0-12.2,5.5-12.2,12.2l0,0c0,6.7,5.5,12.2,12.2,12.2l0,0c6.7,0,12.2-5.5,12.2-12.2
	c0,0,0,0,0,0l0,0C178.9,90.2,173.4,84.7,166.7,84.7L166.7,84.7z"/>
<path class="st3" d="M166.7,84.7L166.7,84.7c-6.7,0-12.2,5.5-12.2,12.2l0,0c0,6.7,5.5,12.2,12.2,12.2l0,0c6.7,0,12.2-5.5,12.2-12.2
	c0,0,0,0,0,0l0,0C178.9,90.2,173.4,84.7,166.7,84.7L166.7,84.7z"/>
<path class="st1" d="M211.6,84.7L211.6,84.7c-6.7,0-12.2,5.5-12.2,12.2c0,0,0,0,0,0l0,0c0,6.7,5.5,12.2,12.2,12.2l0,0
	c6.7,0,12.2-5.5,12.2-12.2c0,0,0,0,0,0l0,0C223.8,90.2,218.3,84.7,211.6,84.7L211.6,84.7z"/>
<path class="st3" d="M211.6,84.7L211.6,84.7c-6.7,0-12.2,5.5-12.2,12.2c0,0,0,0,0,0l0,0c0,6.7,5.5,12.2,12.2,12.2l0,0
	c6.7,0,12.2-5.5,12.2-12.2c0,0,0,0,0,0l0,0C223.8,90.2,218.3,84.7,211.6,84.7L211.6,84.7z"/>
<path class="st1" d="M31.1,84.7L31.1,84.7c-6.7,0-12.2,5.5-12.2,12.2c0,0,0,0,0,0l0,0c0,6.7,5.5,12.2,12.2,12.2l0,0
	c6.7,0,12.2-5.5,12.2-12.2l0,0C43.3,90.2,37.9,84.7,31.1,84.7C31.1,84.7,31.1,84.7,31.1,84.7z"/>
<path class="st3" d="M31.1,84.7L31.1,84.7c-6.7,0-12.2,5.5-12.2,12.2c0,0,0,0,0,0l0,0c0,6.7,5.5,12.2,12.2,12.2l0,0
	c6.7,0,12.2-5.5,12.2-12.2l0,0C43.3,90.2,37.9,84.7,31.1,84.7C31.1,84.7,31.1,84.7,31.1,84.7z"/>
<path class="st5" d="M221.8,359.3L221.8,359.3c0,13.6-11,24.7-24.7,24.7l0,0c-13.6,0-24.7-11-24.7-24.7v0l0,0
	c0-13.6,11-24.7,24.7-24.7l0,0l0,0C210.7,334.6,221.8,345.6,221.8,359.3L221.8,359.3z"/>
<path class="st6" d="M221.8,359.3L221.8,359.3c0,13.6-11,24.7-24.7,24.7l0,0c-13.6,0-24.7-11-24.7-24.7v0l0,0
	c0-13.6,11-24.7,24.7-24.7l0,0l0,0C210.7,334.6,221.8,345.6,221.8,359.3L221.8,359.3z"/>
<path class="st5" d="M221.8,176.8L221.8,176.8c0,13.6-11,24.7-24.7,24.7l0,0l0,0c-13.6,0-24.7-11-24.7-24.7l0,0l0,0
	c0-13.6,11-24.7,24.7-24.7l0,0l0,0C210.7,152.1,221.8,163.1,221.8,176.8L221.8,176.8z"/>
<path class="st6" d="M221.8,176.8L221.8,176.8c0,13.6-11,24.7-24.7,24.7l0,0l0,0c-13.6,0-24.7-11-24.7-24.7l0,0l0,0
	c0-13.6,11-24.7,24.7-24.7l0,0l0,0C210.7,152.1,221.8,163.1,221.8,176.8L221.8,176.8z"/>
<path class="st7" d="M218.4,267.1L218.4,267.1c0,11.4-9.3,20.7-20.7,20.7l0,0l0,0c-11.4,0-20.7-9.3-20.7-20.7l0,0l0,0
	c0-11.4,9.3-20.7,20.7-20.7l0,0C209.2,246.4,218.4,255.6,218.4,267.1C218.4,267.1,218.4,267.1,218.4,267.1z"/>
<path class="st8" d="M218.4,267.1L218.4,267.1c0,11.4-9.3,20.7-20.7,20.7l0,0l0,0c-11.4,0-20.7-9.3-20.7-20.7l0,0l0,0
	c0-11.4,9.3-20.7,20.7-20.7l0,0C209.2,246.4,218.4,255.6,218.4,267.1C218.4,267.1,218.4,267.1,218.4,267.1z"/>
<path class="st4" d="M143.8,367.3H98.3v-45.5h45.5V367.3z"/>
<path class="st0" d="M135.2,358.7h-28.4v-28.4h28.4L135.2,358.7z"/>
<path class="st0" d="M149.8,350.2H123v-11.4h26.8V350.2z"/>
<path class="st4" d="M131.5,354.9h-20.8v-20.8h20.8V354.9z"/>
<path class="st1" d="M121.8,82.6L121.8,82.6c-7.9,0-14.3,6.4-14.3,14.3l0,0c0,7.9,6.4,14.3,14.3,14.3l0,0c7.9,0,14.3-6.4,14.3-14.3
	l0,0C136,89,129.7,82.6,121.8,82.6z"/>
<path class="st3" d="M121.8,82.6L121.8,82.6c-7.9,0-14.3,6.4-14.3,14.3l0,0c0,7.9,6.4,14.3,14.3,14.3l0,0c7.9,0,14.3-6.4,14.3-14.3
	l0,0C136,89,129.7,82.6,121.8,82.6z"/>
<path class="st1" d="M121.8,84.7L121.8,84.7c-6.7,0-12.2,5.5-12.2,12.2l0,0c0,6.7,5.5,12.2,12.2,12.2c0,0,0,0,0,0l0,0
	c6.7,0,12.2-5.5,12.2-12.2l0,0C134,90.2,128.5,84.7,121.8,84.7C121.8,84.7,121.8,84.7,121.8,84.7z"/>
<path class="st3" d="M121.8,84.7L121.8,84.7c-6.7,0-12.2,5.5-12.2,12.2l0,0c0,6.7,5.5,12.2,12.2,12.2c0,0,0,0,0,0l0,0
	c6.7,0,12.2-5.5,12.2-12.2l0,0C134,90.2,128.5,84.7,121.8,84.7C121.8,84.7,121.8,84.7,121.8,84.7z"/>
<path class="st1" d="M256.5,82.6L256.5,82.6c-7.9,0-14.3,6.4-14.3,14.3l0,0c0,7.9,6.4,14.3,14.3,14.3c0,0,0,0,0,0l0,0
	c7.9,0,14.3-6.4,14.3-14.3l0,0l0,0C270.8,89,264.4,82.6,256.5,82.6z"/>
<path class="st3" d="M256.5,82.6L256.5,82.6c-7.9,0-14.3,6.4-14.3,14.3l0,0c0,7.9,6.4,14.3,14.3,14.3c0,0,0,0,0,0l0,0
	c7.9,0,14.3-6.4,14.3-14.3l0,0l0,0C270.8,89,264.4,82.6,256.5,82.6z"/>
<path class="st1" d="M256.5,84.7L256.5,84.7c-6.7,0-12.2,5.5-12.2,12.2c0,0,0,0,0,0l0,0c0,6.7,5.5,12.2,12.2,12.2c0,0,0,0,0,0l0,0
	c6.7,0,12.2-5.5,12.2-12.2c0,0,0,0,0,0l0,0C268.7,90.2,263.2,84.7,256.5,84.7C256.5,84.7,256.5,84.7,256.5,84.7z"/>
<path class="st3" d="M256.5,84.7L256.5,84.7c-6.7,0-12.2,5.5-12.2,12.2c0,0,0,0,0,0l0,0c0,6.7,5.5,12.2,12.2,12.2c0,0,0,0,0,0l0,0
	c6.7,0,12.2-5.5,12.2-12.2c0,0,0,0,0,0l0,0C268.7,90.2,263.2,84.7,256.5,84.7C256.5,84.7,256.5,84.7,256.5,84.7z"/>
<path class="st1" d="M301.4,82.6L301.4,82.6c-7.9,0-14.3,6.4-14.3,14.3l0,0c0,7.9,6.4,14.3,14.3,14.3c0,0,0,0,0,0l0,0
	c7.9,0,14.3-6.4,14.3-14.3c0,0,0,0,0,0l0,0C315.7,89,309.3,82.6,301.4,82.6z"/>
<path class="st3" d="M301.4,82.6L301.4,82.6c-7.9,0-14.3,6.4-14.3,14.3l0,0c0,7.9,6.4,14.3,14.3,14.3c0,0,0,0,0,0l0,0
	c7.9,0,14.3-6.4,14.3-14.3c0,0,0,0,0,0l0,0C315.7,89,309.3,82.6,301.4,82.6z"/>
<path class="st1" d="M301.4,84.7L301.4,84.7c-6.7,0-12.2,5.5-12.2,12.2c0,0,0,0,0,0l0,0c0,6.7,5.5,12.2,12.2,12.2c0,0,0,0,0,0l0,0
	c6.7,0,12.2-5.5,12.2-12.2c0,0,0,0,0,0l0,0C313.6,90.2,308.1,84.7,301.4,84.7C301.4,84.7,301.4,84.7,301.4,84.7z"/>
<path class="st3" d="M301.4,84.7L301.4,84.7c-6.7,0-12.2,5.5-12.2,12.2c0,0,0,0,0,0l0,0c0,6.7,5.5,12.2,12.2,12.2c0,0,0,0,0,0l0,0
	c6.7,0,12.2-5.5,12.2-12.2c0,0,0,0,0,0l0,0C313.6,90.2,308.1,84.7,301.4,84.7C301.4,84.7,301.4,84.7,301.4,84.7z"/>
<line class="st9" x1="301.4" y1="5.4" x2="301.4" y2="97.4"/>
<line class="st10" x1="256.3" y1="5.4" x2="256.7" y2="97.4"/>
<line class="st11" x1="121.9" y1="5.4" x2="121.6" y2="97.4"/>
</svg>
