<?xml version="1.0" encoding="utf-8"?>
<!-- Generator: Adobe Illustrator 24.1.2, SVG Export Plug-In . SVG Version: 6.00 Build 0)  -->
<svg version="1.1" id="Layer_1" xmlns="http://www.w3.org/2000/svg" xmlns:xlink="http://www.w3.org/1999/xlink" x="0px" y="0px"
	 viewBox="0 0 348.3 270.2" style="enable-background:new 0 0 348.3 270.2;" xml:space="preserve">
<style type="text/css">
	.st0{fill:none;stroke:#221F1F;stroke-width:8;stroke-linecap:round;stroke-linejoin:round;}
	.st1{fill:none;stroke:#E9262A;stroke-width:8;stroke-linecap:round;stroke-linejoin:round;}
	.st2{fill:none;stroke:#FFDE17;stroke-width:8;stroke-linecap:round;stroke-linejoin:round;}
	.st3{fill:none;stroke:#F7941D;stroke-width:8;stroke-linecap:round;stroke-linejoin:round;}
	.st4{fill:#FFFFFF;}
	.st5{font-family:'Verdana';}
	.st6{font-size:16.3067px;}
	.st7{fill:none;stroke:#221F1F;stroke-width:10.832;stroke-linecap:round;stroke-linejoin:round;}
	.st8{fill:none;stroke:#E9262A;stroke-width:10.832;stroke-linecap:round;stroke-linejoin:round;}
	.st9{fill:none;stroke:#BABCBE;stroke-width:10.832;stroke-linecap:round;stroke-linejoin:round;}
	.st10{fill:none;stroke:#6D6E71;stroke-width:16;stroke-linecap:round;stroke-linejoin:round;}
	.st11{fill:#080505;}
	.st12{fill:#CF1F2D;}
	.st13{font-size:13.3094px;}
	.st14{fill:#424143;}
	.st15{fill:#59595C;}
</style>
<g id="Layer_1_1_">
	<line class="st0" x1="186.6" y1="105.1" x2="186.6" y2="219.5"/>
	<line class="st1" x1="196.6" y1="105.1" x2="196.6" y2="219.9"/>
	<line class="st2" x1="206.1" y1="105.1" x2="206.9" y2="219.9"/>
	<line class="st0" x1="143.8" y1="104.9" x2="143.8" y2="219.3"/>
	<line class="st1" x1="153.9" y1="104.9" x2="153.9" y2="219.7"/>
	<line class="st3" x1="163.3" y1="104.9" x2="164.1" y2="219.7"/>
	<text transform="matrix(1 0 0 1 261.2015 175.0414)" class="st4 st5 st6">VCC</text>
	<line class="st7" x1="186.8" y1="5.4" x2="186.8" y2="78.1"/>
	<line class="st8" x1="196.8" y1="5.4" x2="196.8" y2="78.5"/>
	<line class="st9" x1="206.2" y1="5.4" x2="207.1" y2="78.5"/>
	<line class="st10" x1="207.1" y1="111.3" x2="207.1" y2="56.1"/>
	<line class="st10" x1="184.7" y1="111.7" x2="184.7" y2="56.5"/>
	<line class="st10" x1="196.8" y1="111.3" x2="196.8" y2="56.1"/>
	<line class="st7" x1="144" y1="5.4" x2="144.9" y2="77.3"/>
	<line class="st8" x1="154" y1="5.4" x2="154.9" y2="77.8"/>
	<line class="st9" x1="163.4" y1="5.4" x2="165.2" y2="77.8"/>
	<line class="st10" x1="165.2" y1="110.6" x2="165.2" y2="55.4"/>
	<line class="st10" x1="142.8" y1="110.9" x2="142.8" y2="55.7"/>
	<line class="st10" x1="154.9" y1="110.6" x2="154.9" y2="55.4"/>
	<rect x="180.9" y="141.4" class="st11" width="31.5" height="8.6"/>
	<rect x="138.2" y="141.4" class="st11" width="31.5" height="8.6"/>
	<rect x="69" y="147.5" class="st12" width="213.4" height="122.7"/>
	<text transform="matrix(1 0 0 1 180.5687 162.1156)" class="st4 st5 st13">Input</text>
	<text transform="matrix(1 0 0 1 123.1624 162.4203)" class="st4 st5 st13">Output</text>
	<circle class="st14" cx="119.5" cy="209.4" r="27.2"/>
	<circle class="st14" cx="226.8" cy="209.4" r="27.2"/>
	<rect y="147.5" class="st15" width="69" height="122.7"/>
	<rect x="282.5" y="147.5" class="st15" width="65.8" height="122.7"/>
	<path class="st4" d="M11.8,211.8v-4.9c0-3.7,3-6.7,6.7-6.7h32.7c3.7,0,6.7,3,6.7,6.7v4.9c0,3.7-3,6.7-6.7,6.7H18.5
		C14.8,218.5,11.8,215.5,11.8,211.8z"/>
	<path class="st4" d="M289.7,211.3v-4.9c0-3.7,3-6.7,6.7-6.7h32.7c3.7,0,6.7,3,6.7,6.7v4.9c0,3.7-3,6.7-6.7,6.7h-32.7
		C292.7,218,289.7,215,289.7,211.3z"/>
</g>
</svg>
