<svg id="Layer_1" data-name="Layer 1" xmlns="http://www.w3.org/2000/svg" viewBox="0 0 183.8151 170.134"><defs><style>.cls-1{fill:#323031;}.cls-19,.cls-2{fill:#819356;}.cls-20,.cls-22,.cls-3,.cls-9{fill:#fff;}.cls-4{fill:#bc2030;}.cls-10,.cls-14,.cls-18,.cls-5{fill:#221f1f;}.cls-6{fill:#5a5a5c;}.cls-7{fill:#f2f2f2;}.cls-8{fill:#079247;}.cls-9{font-size:17px;}.cls-10,.cls-14,.cls-18,.cls-19,.cls-20,.cls-22,.cls-9{font-family:Verdana;}.cls-10,.cls-19,.cls-20,.cls-22{font-size:8.8489px;}.cls-11,.cls-20{letter-spacing:0.001em;}.cls-12{letter-spacing:0.0001em;}.cls-13{letter-spacing:0.0009em;}.cls-14,.cls-18{font-size:7.8656px;}.cls-15,.cls-18{letter-spacing:0.0011em;}.cls-16{letter-spacing:0.001em;}.cls-17{letter-spacing:-0.0001em;}.cls-21{letter-spacing:-0.0001em;}.cls-23{letter-spacing:-0.013em;}</style></defs><path class="cls-1" d="M183.8151,161.2849V8.849A8.8493,8.8493,0,0,0,174.9661,0H8.849A8.8492,8.8492,0,0,0,0,8.849V161.2849a8.8492,8.8492,0,0,0,8.849,8.8491H174.9661A8.8493,8.8493,0,0,0,183.8151,161.2849ZM167.7021,9.7266a6.258,6.258,0,1,1-6.258,6.258A6.2583,6.2583,0,0,1,167.7021,9.7266ZM9.9558,18.08a6.2581,6.2581,0,1,1,6.2581,6.258A6.2583,6.2583,0,0,1,9.9558,18.08Zm0,135.4209a6.2581,6.2581,0,1,1,6.2581,6.258A6.2583,6.2583,0,0,1,9.9558,153.5012Zm150.08,3.0283a6.2581,6.2581,0,1,1,6.258,6.258A6.2583,6.2583,0,0,1,160.0359,156.53Z"/><path class="cls-2" d="M82.1057,156.5286h-9.915a1.5358,1.5358,0,0,1-1.536-1.536V117.8055a1.5358,1.5358,0,0,1,1.536-1.536h9.915a1.5357,1.5357,0,0,1,1.5359,1.536v37.1871a1.5357,1.5357,0,0,1-1.5359,1.536"/><path class="cls-2" d="M80.553,146.21c0,5.698-5.2311,10.318-11.687,10.318-6.4541,0-11.6861-4.62-11.6861-10.318s5.232-10.317,11.6861-10.317c6.4559,0,11.687,4.6189,11.687,10.317"/><polygon class="cls-3" points="127.504 85.968 127.504 38.751 133.335 35.533 181.189 35.533 181.189 85.968 127.504 85.968"/><polygon class="cls-2" points="127.504 85.968 127.504 133.182 133.335 136.4 181.189 136.4 181.189 85.968 127.504 85.968"/><path class="cls-2" d="M109.9583,69.7864h-35.99a1.77,1.77,0,0,1-1.77-1.77V6.2974a1.7706,1.7706,0,0,1,1.77-1.77h35.99a1.77,1.77,0,0,1,1.77,1.77v61.719a1.77,1.77,0,0,1-1.77,1.77"/><rect class="cls-4" x="72.1983" y="4.0391" width="19.799" height="52.4771"/><rect class="cls-5" x="91.9303" y="4.0391" width="19.798" height="52.4771"/><polygon class="cls-3" points="56.512 85.967 56.512 38.75 50.68 35.532 2.816 35.532 2.816 85.967 56.512 85.967"/><polygon class="cls-2" points="56.512 85.967 56.512 133.181 50.68 136.399 2.816 136.399 2.816 85.967 56.512 85.967"/><rect class="cls-6" x="9.9563" y="38.1021" width="20.433" height="11.653"/><rect class="cls-7" x="14.5473" y="40.2871" width="13.11" height="6.9189"/><path class="cls-5" d="M20.6477,43.929a4.5975,4.5975,0,1,1-4.598-4.5981,4.5986,4.5986,0,0,1,4.598,4.5981"/><rect class="cls-6" x="9.9563" y="49.6561" width="20.433" height="11.653"/><rect class="cls-7" x="14.5473" y="51.8411" width="13.11" height="6.9189"/><path class="cls-5" d="M20.6477,55.4827a4.5975,4.5975,0,1,1-4.598-4.5981,4.5986,4.5986,0,0,1,4.598,4.5981"/><rect class="cls-6" x="9.9563" y="61.309" width="20.433" height="11.6541"/><rect class="cls-7" x="14.5473" y="63.4941" width="13.11" height="6.9189"/><path class="cls-5" d="M20.6477,67.136a4.5975,4.5975,0,1,1-4.598-4.598,4.5986,4.5986,0,0,1,4.598,4.598"/><rect class="cls-6" x="9.9563" y="72.9631" width="20.433" height="11.653"/><rect class="cls-7" x="14.5474" y="75.1476" width="13.1101" height="6.9196"/><path class="cls-5" d="M20.6477,78.7893a4.5975,4.5975,0,1,1-4.598-4.598,4.5985,4.5985,0,0,1,4.598,4.598"/><rect class="cls-6" x="9.9563" y="83.9421" width="20.433" height="11.653"/><rect class="cls-7" x="14.5473" y="86.1261" width="13.11" height="6.9189"/><path class="cls-5" d="M20.6477,89.7678A4.5975,4.5975,0,1,1,16.05,85.17a4.5985,4.5985,0,0,1,4.598,4.598"/><rect class="cls-6" x="9.9563" y="95.4961" width="20.433" height="11.653"/><rect class="cls-7" x="14.5473" y="97.6801" width="13.11" height="6.92"/><path class="cls-5" d="M20.6477,101.3215a4.5975,4.5975,0,1,1-4.598-4.598,4.5979,4.5979,0,0,1,4.598,4.598"/><rect class="cls-6" x="9.9563" y="107.1491" width="20.433" height="11.653"/><rect class="cls-7" x="14.5473" y="109.3341" width="13.11" height="6.9189"/><path class="cls-5" d="M20.6477,112.9758a4.5975,4.5975,0,1,1-4.598-4.598,4.5985,4.5985,0,0,1,4.598,4.598"/><rect class="cls-6" x="9.9563" y="118.8021" width="20.433" height="11.653"/><rect class="cls-7" x="14.5473" y="120.9871" width="13.11" height="6.9189"/><path class="cls-5" d="M20.6477,124.6292a4.5975,4.5975,0,1,1-4.598-4.5981,4.5986,4.5986,0,0,1,4.598,4.5981"/><rect class="cls-6" x="90.9133" y="10.8541" width="11.6541" height="20.433"/><rect class="cls-7" x="93.4633" y="15.446" width="6.9189" height="13.11"/><path class="cls-5" d="M96.7405,21.5452a4.5976,4.5976,0,1,1,4.5979-4.5981,4.5979,4.5979,0,0,1-4.5979,4.5981"/><rect class="cls-6" x="79.3593" y="10.8541" width="11.653" height="20.433"/><rect class="cls-7" x="81.9093" y="15.446" width="6.9189" height="13.11"/><path class="cls-5" d="M85.1868,21.5452a4.5976,4.5976,0,1,1,4.5979-4.5981,4.5979,4.5979,0,0,1-4.5979,4.5981"/><path class="cls-8" d="M76.9768,146.3284a8.5731,8.5731,0,1,1-8.5731-8.5731,8.5741,8.5741,0,0,1,8.5731,8.5731"/><rect class="cls-4" x="30.3893" y="38.2101" width="14.983" height="11.438"/><rect class="cls-5" x="30.3893" y="49.6481" width="14.983" height="11.653"/><rect class="cls-4" x="30.3893" y="61.301" width="14.983" height="11.438"/><rect class="cls-5" x="30.3893" y="72.7401" width="14.983" height="11.653"/><rect class="cls-4" x="30.3893" y="84.3931" width="14.983" height="11.438"/><rect class="cls-5" x="30.3893" y="95.8322" width="14.983" height="11.653"/><rect class="cls-4" x="30.3893" y="107.4851" width="14.983" height="11.438"/><rect class="cls-5" x="30.3893" y="118.923" width="14.983" height="11.6541"/><rect class="cls-4" x="2.8153" y="38.4331" width="7.141" height="11.438"/><rect class="cls-5" x="2.8153" y="49.8721" width="7.141" height="11.653"/><rect class="cls-4" x="2.8153" y="61.525" width="7.141" height="11.438"/><rect class="cls-5" x="2.8153" y="72.9631" width="7.141" height="11.653"/><rect class="cls-4" x="2.8153" y="84.6171" width="7.141" height="11.438"/><rect class="cls-5" x="2.8153" y="96.0551" width="7.141" height="11.653"/><rect class="cls-4" x="2.8153" y="107.7091" width="7.141" height="11.438"/><rect class="cls-5" x="2.8153" y="119.1471" width="7.141" height="11.653"/><rect class="cls-6" x="153.6143" y="120.1881" width="20.434" height="11.653"/><rect class="cls-7" x="156.346" y="122.7366" width="13.11" height="6.9194"/><path class="cls-5" d="M163.3567,126.0139a4.5975,4.5975,0,1,1,4.5979,4.5979,4.5985,4.5985,0,0,1-4.5979-4.5979"/><rect class="cls-6" x="153.6143" y="108.634" width="20.434" height="11.653"/><rect class="cls-7" x="156.3463" y="111.1831" width="13.11" height="6.9189"/><path class="cls-5" d="M163.3567,114.46a4.5975,4.5975,0,1,1,4.5979,4.5979,4.5984,4.5984,0,0,1-4.5979-4.5979"/><rect class="cls-6" x="153.6143" y="96.9801" width="20.434" height="11.6541"/><rect class="cls-7" x="156.3463" y="99.5291" width="13.11" height="6.9189"/><path class="cls-5" d="M163.3567,102.8069a4.5975,4.5975,0,1,1,4.5979,4.5979,4.5984,4.5984,0,0,1-4.5979-4.5979"/><rect class="cls-6" x="153.6143" y="85.3261" width="20.434" height="11.653"/><rect class="cls-7" x="156.3463" y="87.8761" width="13.11" height="6.9189"/><path class="cls-5" d="M163.3567,91.1536a4.5975,4.5975,0,1,1,4.5979,4.5979,4.5985,4.5985,0,0,1-4.5979-4.5979"/><rect class="cls-6" x="153.6143" y="74.348" width="20.434" height="11.653"/><rect class="cls-7" x="156.3463" y="76.8981" width="13.11" height="6.9189"/><path class="cls-5" d="M163.3567,80.1751a4.5975,4.5975,0,1,1,4.5979,4.5979,4.5985,4.5985,0,0,1-4.5979-4.5979"/><rect class="cls-6" x="153.6143" y="62.7941" width="20.434" height="11.653"/><rect class="cls-7" x="156.3463" y="65.343" width="13.11" height="6.92"/><path class="cls-5" d="M163.3567,68.6213a4.5975,4.5975,0,1,1,4.5979,4.5979,4.5979,4.5979,0,0,1-4.5979-4.5979"/><rect class="cls-6" x="153.6143" y="51.1411" width="20.434" height="11.653"/><rect class="cls-7" x="156.3463" y="53.6901" width="13.11" height="6.92"/><path class="cls-5" d="M163.3567,56.967a4.5975,4.5975,0,1,1,4.5979,4.5979,4.5985,4.5985,0,0,1-4.5979-4.5979"/><rect class="cls-6" x="153.6143" y="39.4871" width="20.434" height="11.653"/><rect class="cls-7" x="156.3463" y="42.036" width="13.11" height="6.9189"/><path class="cls-5" d="M163.3567,45.3137a4.5975,4.5975,0,1,1,4.5979,4.5979,4.5985,4.5985,0,0,1-4.5979-4.5979"/><rect class="cls-4" x="138.6322" y="120.295" width="14.9821" height="11.438"/><rect class="cls-5" x="138.6322" y="108.6421" width="14.9821" height="11.653"/><rect class="cls-4" x="138.6322" y="97.203" width="14.9821" height="11.438"/><rect class="cls-5" x="138.6322" y="85.5501" width="14.9821" height="11.653"/><rect class="cls-4" x="138.6322" y="74.1121" width="14.9821" height="11.438"/><rect class="cls-5" x="138.6322" y="62.458" width="14.9821" height="11.653"/><rect class="cls-4" x="138.6322" y="51.02" width="14.9821" height="11.438"/><rect class="cls-5" x="138.6322" y="39.3661" width="14.9821" height="11.653"/><rect class="cls-4" x="174.0473" y="120.071" width="7.141" height="11.438"/><rect class="cls-5" x="174.0473" y="108.4181" width="7.141" height="11.653"/><rect class="cls-4" x="174.0473" y="96.9801" width="7.141" height="11.438"/><rect class="cls-5" x="174.0473" y="85.3261" width="7.141" height="11.653"/><rect class="cls-4" x="174.0473" y="73.8881" width="7.141" height="11.438"/><rect class="cls-5" x="174.0473" y="62.2351" width="7.141" height="11.653"/><rect class="cls-4" x="174.0473" y="50.796" width="7.141" height="11.438"/><rect class="cls-5" x="174.0473" y="39.1431" width="7.141" height="11.653"/><text class="cls-9" transform="translate(76.4102 49.1879)">+</text><text class="cls-9" transform="translate(98.0723 49.1879)">-</text><text class="cls-10" transform="translate(105.9157 59.2402) rotate(180)"><tspan class="cls-11">12</tspan><tspan class="cls-12" x="11.2686" y="0">V</tspan><tspan class="cls-13" x="17.3184" y="0">i</tspan><tspan x="19.7549" y="0">n</tspan></text><text class="cls-14" transform="translate(48.3532 87.0926) rotate(90)"><tspan class="cls-15">12</tspan><tspan x="10.0166" y="0">V </tspan><tspan class="cls-16" x="18.1592" y="0">500m</tspan><tspan x="40.8418" y="0">A</tspan></text><text class="cls-14" transform="translate(48.5798 47.1196) rotate(90)"><tspan class="cls-16">12</tspan><tspan x="10.0166" y="0">V</tspan><tspan class="cls-16" x="15.3936" y="0" xml:space="preserve"> 2</tspan><tspan x="23.1748" y="0">A</tspan></text><text class="cls-14" transform="translate(136.2187 73.8848) rotate(-90)"><tspan class="cls-16">5</tspan><tspan class="cls-17" x="5.0088" y="0">V</tspan><tspan class="cls-16" x="10.3848" y="0" xml:space="preserve"> 2</tspan><tspan x="18.167" y="0">A</tspan></text><text class="cls-14" transform="translate(136.0439 130.3721) rotate(-90)"><tspan class="cls-15">5</tspan><tspan class="cls-17" x="5.0088" y="0">V</tspan><tspan class="cls-16" x="10.3848" y="0" xml:space="preserve"> 500m</tspan><tspan x="35.8418" y="0">A</tspan></text><text class="cls-14" transform="translate(74.4958 119.3988) rotate(90)"><tspan class="cls-15">12</tspan><tspan x="10.0166" y="0">V</tspan></text><path class="cls-2" d="M100.77,156.53h9.9189a1.5358,1.5358,0,0,0,1.536-1.536v-37.187a1.5358,1.5358,0,0,0-1.536-1.536H100.77a1.5364,1.5364,0,0,0-1.536,1.536v37.187a1.5365,1.5365,0,0,0,1.536,1.536"/><path class="cls-2" d="M102.3235,146.2112c0,5.698,5.2329,10.318,11.689,10.318s11.69-4.62,11.69-10.318-5.2329-10.317-11.69-10.317-11.689,4.6189-11.689,10.317"/><path class="cls-8" d="M122.5862,146.21a8.5731,8.5731,0,1,1-8.5731-8.5731,8.5734,8.5734,0,0,1,8.5731,8.5731"/><text class="cls-18" transform="translate(108.4883 130.8096) rotate(-90)">5<tspan class="cls-17" x="5.0088" y="0">V</tspan></text><text class="cls-19" transform="translate(72.1981 83.3012)">V</text><text class="cls-20" transform="translate(78.6141 83.3009)">o<tspan class="cls-21" x="5.3799" y="0">ltage</tspan></text><text class="cls-19" transform="translate(72.1981 93.5128)">R</text><text class="cls-22" transform="translate(78.6141 93.5126)"><tspan class="cls-11">e</tspan><tspan class="cls-21" x="5.2803" y="0">gula</tspan><tspan class="cls-23" x="24.1357" y="0">t</tspan><tspan class="cls-11" x="27.5078" y="0">o</tspan><tspan x="32.8877" y="0">r</tspan></text><text class="cls-19" transform="translate(72.1981 104.0873)">M</text><text class="cls-20" transform="translate(79.6141 104.0873)">o<tspan class="cls-21" x="5.3799" y="0">dule</tspan></text></svg>