<?xml version="1.0" encoding="utf-8"?>
<!-- Generator: Adobe Illustrator 24.1.2, SVG Export Plug-In . SVG Version: 6.00 Build 0)  -->
<svg version="1.1" id="Layer_1" xmlns="http://www.w3.org/2000/svg" xmlns:xlink="http://www.w3.org/1999/xlink" x="0px" y="0px"
	 viewBox="0 0 631.3 522.6" style="enable-background:new 0 0 631.3 522.6;" xml:space="preserve">
<style type="text/css">
	.st0{fill:#006654;}
	.st1{fill:#3C4852;}
	.st2{fill:#788787;}
	.st3{fill:#8C8D87;}
	.st4{fill:#1B1C1C;}
	.st5{fill:#CABCA1;}
	.st6{fill:#8C7A77;}
	.st7{fill:#7D6D65;}
	.st8{fill:#303541;}
	.st9{fill:#3B424F;}
	.st10{fill:#BED1D3;}
	.st11{font-family:'Verdana-Bold';}
	.st12{font-size:53.7502px;}
	.st13{letter-spacing:4.8;}
	.st14{fill:#D2A364;}
</style>
<g>
	<path class="st0" d="M608.6,0h-586C10.1,0,0,10.1,0,22.6V500c0,12.5,10.1,22.6,22.6,22.6h586c12.5,0,22.6-10.1,22.6-22.6V22.6
		C631.3,10.1,621.1,0,608.6,0z M568.7,491.9c-15.4,0-27.8-12.5-27.8-27.8s12.5-27.8,27.8-27.8s27.8,12.5,27.8,27.8
		S584,491.9,568.7,491.9z M568.7,87.9c-15.4,0-27.8-12.5-27.8-27.8c0-15.4,12.5-27.8,27.8-27.8s27.8,12.5,27.8,27.8
		C596.5,75.4,584,87.9,568.7,87.9z"/>
	<path class="st1" d="M260.8,124.1h118.3c15.9,0,28.8,12.9,28.8,28.8v184.1c0,15.9-12.9,28.8-28.8,28.8H260.8
		c-15.9,0-28.8-12.9-28.8-28.8V152.9C232,137,244.9,124.1,260.8,124.1z"/>
	<rect x="196.2" y="137" class="st2" width="33.5" height="13.6"/>
	<rect x="196.2" y="166.1" class="st2" width="33.5" height="13.6"/>
	<rect x="196.2" y="195.2" class="st2" width="33.5" height="13.6"/>
	<rect x="197.3" y="224.3" class="st2" width="33.5" height="13.6"/>
	<rect x="197.3" y="253.4" class="st2" width="33.5" height="13.6"/>
	<rect x="197.3" y="282.5" class="st2" width="33.5" height="13.6"/>
	<rect x="197.3" y="311.5" class="st2" width="33.5" height="13.6"/>
	<rect x="197.3" y="340.6" class="st2" width="33.5" height="13.6"/>
	<rect x="407.9" y="136.2" class="st2" width="33.5" height="13.6"/>
	<rect x="407.9" y="165.3" class="st2" width="33.5" height="13.6"/>
	<rect x="407.9" y="194.4" class="st2" width="33.5" height="13.6"/>
	<rect x="409" y="223.5" class="st2" width="33.5" height="13.6"/>
	<rect x="409" y="252.6" class="st2" width="33.5" height="13.6"/>
	<rect x="409" y="281.7" class="st2" width="33.5" height="13.6"/>
	<rect x="409" y="310.8" class="st2" width="33.5" height="13.6"/>
	<rect x="409" y="339.9" class="st2" width="33.5" height="13.6"/>
	<rect x="195.5" y="380.1" class="st3" width="39.1" height="36.9"/>
	<rect x="234.6" y="380.1" class="st4" width="39.1" height="36.9"/>
	<rect x="273.7" y="380.1" class="st3" width="39.1" height="36.9"/>
	<rect x="118.7" y="85" class="st3" width="18.8" height="24.6"/>
	<rect x="137.5" y="85" class="st5" width="18.8" height="24.6"/>
	<rect x="156.3" y="85" class="st3" width="18.8" height="24.6"/>
	<rect x="40.5" y="85" class="st3" width="18.8" height="24.6"/>
	<rect x="59.3" y="85" class="st4" width="18.8" height="24.6"/>
	<rect x="78.2" y="85" class="st3" width="18.8" height="24.6"/>
	<rect x="379.7" y="392.4" class="st3" width="18.8" height="24.6"/>
	<rect x="398.5" y="392.4" class="st6" width="18.8" height="24.6"/>
	<rect x="417.3" y="392.4" class="st3" width="18.8" height="24.6"/>
	<rect x="217.3" y="85" class="st3" width="18.8" height="24.6"/>
	<rect x="236.1" y="85" class="st7" width="18.8" height="24.6"/>
	<rect x="254.9" y="85" class="st3" width="18.8" height="24.6"/>
	<rect x="320" y="85" class="st3" width="18.8" height="24.6"/>
	<rect x="338.8" y="85" class="st4" width="18.8" height="24.6"/>
	<rect x="357.6" y="85" class="st3" width="18.8" height="24.6"/>
	<rect x="393" y="85" class="st3" width="18.8" height="24.6"/>
	<rect x="411.8" y="85" class="st5" width="18.8" height="24.6"/>
	<rect x="430.6" y="85" class="st3" width="18.8" height="24.6"/>
	<rect x="40.5" y="454.6" class="st3" width="24.6" height="18.8"/>
	<rect x="40.5" y="435.8" class="st6" width="24.6" height="18.8"/>
	<rect x="40.5" y="417" class="st3" width="24.6" height="18.8"/>
	<rect x="476.3" y="143.8" class="st3" width="18.8" height="24.6"/>
	<rect x="495.1" y="143.8" class="st6" width="18.8" height="24.6"/>
	<rect x="513.9" y="143.8" class="st3" width="18.8" height="24.6"/>
	<rect x="87.9" y="426.4" class="st8" width="76.5" height="54.9"/>
	<circle class="st2" cx="78.2" cy="147.5" r="21.6"/>
	<circle class="st2" cx="78.2" cy="207" r="21.6"/>
	<circle class="st2" cx="78.2" cy="263.3" r="21.6"/>
	<circle class="st2" cx="78.2" cy="318.4" r="21.6"/>
	<circle class="st2" cx="78.2" cy="378.5" r="21.6"/>
	<circle class="st2" cx="140.3" cy="147.8" r="21.6"/>
	<circle class="st2" cx="140.3" cy="207.4" r="21.6"/>
	<circle class="st2" cx="140.3" cy="263.6" r="21.6"/>
	<circle class="st2" cx="140.3" cy="318.7" r="21.6"/>
	<circle class="st2" cx="140.3" cy="378.8" r="21.6"/>
	<path class="st9" d="M499.2,192.6h10.5c13.6,0,24.6,11,24.6,24.6v2.7c0,13.6-11,24.6-24.6,24.6h-10.5c-13.6,0-24.6-11-24.6-24.6
		v-2.7C474.6,203.6,485.6,192.6,499.2,192.6z"/>
	<path class="st9" d="M497.3,248.8h10.5c13.6,0,24.6,11,24.6,24.6v2.7c0,13.6-11,24.6-24.6,24.6h-10.5c-13.6,0-24.6-11-24.6-24.6
		v-2.7C472.7,259.8,483.7,248.8,497.3,248.8z"/>
	<path class="st9" d="M497.3,305.3h10.5c13.6,0,24.6,11,24.6,24.6v2.7c0,13.6-11,24.6-24.6,24.6h-10.5c-13.6,0-24.6-11-24.6-24.6
		v-2.7C472.7,316.3,483.7,305.3,497.3,305.3z"/>
	<path class="st9" d="M557.3,248.8h10.5c13.6,0,24.6,11,24.6,24.6v2.7c0,13.6-11,24.6-24.6,24.6h-10.5c-13.6,0-24.6-11-24.6-24.6
		v-2.7C532.7,259.8,543.7,248.8,557.3,248.8z"/>
	<rect x="496.5" y="212.5" class="st4" width="12.1" height="12.1"/>
	<rect x="496.5" y="268.7" class="st4" width="12.1" height="12.1"/>
	<rect x="496.5" y="325.2" class="st4" width="12.1" height="12.1"/>
	<rect x="556.5" y="268.7" class="st4" width="12.1" height="12.1"/>
	<text transform="matrix(1.04 0 0 1 94.327 52.3894)" class="st10 st11 st12 st13">FRC GYRO</text>
	<path class="st14" d="M568.7,19.6c-22.3,0-40.4,18.1-40.4,40.4s18.1,40.4,40.4,40.4s40.4-18.1,40.4-40.4S591,19.6,568.7,19.6z
		 M568.7,87.9c-15.4,0-27.8-12.5-27.8-27.8c0-15.4,12.5-27.8,27.8-27.8s27.8,12.5,27.8,27.8C596.5,75.4,584,87.9,568.7,87.9z"/>
	<path class="st14" d="M568.7,423.6c-22.3,0-40.4,18.1-40.4,40.4s18.1,40.4,40.4,40.4s40.4-18.1,40.4-40.4S591,423.6,568.7,423.6z
		 M568.7,491.9c-15.4,0-27.8-12.5-27.8-27.8s12.5-27.8,27.8-27.8s27.8,12.5,27.8,27.8S584,491.9,568.7,491.9z"/>
</g>
</svg>
