<?xml version="1.0" encoding="utf-8"?>
<!-- Generator: Adobe Illustrator 24.1.2, SVG Export Plug-In . SVG Version: 6.00 Build 0)  -->
<svg version="1.1" id="Layer_1" xmlns="http://www.w3.org/2000/svg" xmlns:xlink="http://www.w3.org/1999/xlink" x="0px" y="0px"
	 viewBox="0 0 1110.9 766" style="enable-background:new 0 0 1110.9 766;" xml:space="preserve">
<style type="text/css">
	.st0{fill:#00609B;}
	.st1{fill:#6C5623;}
	.st2{fill:#FFFFFF;}
	.st3{fill:#5E545E;}
	.st4{fill:none;stroke:#231F20;stroke-width:6;stroke-miterlimit:10;}
	.st5{fill:#383943;}
	.st6{fill:#D1C7BC;}
	.st7{fill:#C09264;}
	.st8{fill:#373836;}
	.st9{font-family:'Verdana';}
	.st10{font-size:66.7069px;}
	.st11{letter-spacing:-1;}
	.st12{font-size:48.4805px;}
	.st13{fill:none;stroke:#FFFFFF;stroke-width:7.5;stroke-linecap:round;stroke-linejoin:round;}
	.st14{fill:none;stroke:#FFFFFF;stroke-width:9;stroke-linecap:round;stroke-miterlimit:10;}
	.st15{font-size:46.6187px;}
	.st16{fill:#725F46;}
	.st17{font-size:43.084px;}
	.st18{font-size:39.0138px;}
	.st19{font-size:43.2865px;}
	.st20{font-size:42.7254px;}
	.st21{font-size:31.5147px;}
	.st22{font-size:41.4455px;}
	.st23{font-size:43.0681px;}
	.st24{font-size:45.2419px;}
	.st25{letter-spacing:-2;}
	.st26{fill:none;stroke:#E9262A;stroke-width:16.248;stroke-linecap:round;stroke-linejoin:round;}
	.st27{fill:none;stroke:#221F1F;stroke-width:16.248;stroke-linecap:round;stroke-linejoin:round;}
	.st28{fill:none;stroke:#BABCBE;stroke-width:16.248;stroke-linecap:round;stroke-linejoin:round;}
	.st29{fill:none;stroke:#1C75BC;stroke-width:16.248;stroke-linecap:round;stroke-linejoin:round;}
</style>
<g id="Layer_1_1_">
	<path class="st0" d="M136.4,0L90.5,4.9C10.8,13.5-16.3,116,48.7,162.9l74.4,53.7v223l-69.6,39.9C-24,523.9-15.6,638.3,67.6,670.9
		l51,20H1049c81.9-49.4,82.6-167.9,1.4-218.4l-55.2-34.3V211.9l66.7-34.1c72.6-37.2,59.7-144.5-19.6-163.5L983,0H136.4z"/>
	<circle class="st1" cx="102.2" cy="92.5" r="56.9"/>
	
		<ellipse transform="matrix(0.1602 -0.9871 0.9871 0.1602 -5.4916 178.5116)" class="st2" cx="102.2" cy="92.5" rx="41.5" ry="41.5"/>
	<circle class="st1" cx="102.2" cy="560.8" r="56.9"/>
	
		<ellipse transform="matrix(0.9951 -9.853764e-02 9.853764e-02 0.9951 -54.7632 12.796)" class="st2" cx="102.2" cy="560.8" rx="41.5" ry="41.5"/>
	<circle class="st1" cx="1022.7" cy="560.8" r="56.9"/>
	<circle class="st2" cx="1022.7" cy="560.8" r="41.5"/>
	<circle class="st1" cx="1022.7" cy="92.5" r="56.9"/>
	<circle class="st2" cx="1022.7" cy="92.5" r="41.5"/>
	<rect x="504" y="279.7" class="st3" width="112.8" height="112.8"/>
	<rect x="599.1" y="435.8" class="st4" width="60.4" height="46.2"/>
	<rect x="292.2" y="113.5" class="st5" width="42.7" height="96"/>
	<rect x="248.4" y="143" class="st6" width="43.8" height="37.5"/>
	<rect x="334.9" y="113.5" class="st6" width="43.8" height="37.5"/>
	<rect x="334.9" y="172" class="st6" width="43.8" height="37.5"/>
	<rect x="170.8" y="327.3" class="st5" width="96" height="42.7"/>
	<rect x="200.3" y="369.9" class="st6" width="37.5" height="43.8"/>
	<rect x="170.8" y="283.5" class="st6" width="37.5" height="43.8"/>
	<rect x="229.3" y="283.5" class="st6" width="37.5" height="43.8"/>
	<rect x="817.1" y="319.2" class="st5" width="96" height="47"/>
	<rect x="817.1" y="273.9" class="st6" width="25.6" height="45.2"/>
	<rect x="887.5" y="273.9" class="st6" width="25.6" height="45.2"/>
	<rect x="852.3" y="366.1" class="st6" width="25.6" height="45.2"/>
	<rect x="817.1" y="366.1" class="st6" width="25.6" height="45.2"/>
	<rect x="887.5" y="366.1" class="st6" width="25.6" height="45.2"/>
	<rect x="753.7" y="307.8" class="st7" width="41.9" height="63.6"/>
	<rect x="753.7" y="280.1" class="st6" width="41.9" height="27.7"/>
	<rect x="753.7" y="371.4" class="st6" width="41.9" height="27.7"/>
	<rect x="432" y="161.7" class="st7" width="41.9" height="63.6"/>
	<rect x="432" y="134" class="st6" width="41.9" height="27.7"/>
	<rect x="432" y="225.3" class="st6" width="41.9" height="27.7"/>
	<rect x="763.9" y="435.8" class="st7" width="63.6" height="41.9"/>
	<rect x="827.5" y="435.8" class="st6" width="27.7" height="41.9"/>
	<rect x="736.1" y="435.8" class="st6" width="27.7" height="41.9"/>
	<rect x="354.2" y="279.7" class="st7" width="63.6" height="41.9"/>
	<rect x="417.8" y="279.7" class="st6" width="27.7" height="41.9"/>
	<rect x="326.5" y="279.7" class="st6" width="27.7" height="41.9"/>
	<rect x="354.2" y="345.2" class="st8" width="63.6" height="41.9"/>
	<rect x="417.8" y="345.2" class="st6" width="27.7" height="41.9"/>
	<rect x="326.5" y="345.2" class="st6" width="27.7" height="41.9"/>
	<rect x="445.5" y="453.1" class="st8" width="63.6" height="41.9"/>
	<rect x="509.1" y="453.1" class="st6" width="27.7" height="41.9"/>
	<rect x="417.8" y="453.1" class="st6" width="27.7" height="41.9"/>
	<rect x="683.7" y="310.9" class="st8" width="41.9" height="63.6"/>
	<rect x="683.7" y="374.4" class="st6" width="41.9" height="27.7"/>
	<rect x="683.7" y="283.1" class="st6" width="41.9" height="27.7"/>
	<rect x="308.5" y="453.1" class="st8" width="63.6" height="41.9"/>
	<rect x="372.1" y="453.1" class="st6" width="27.7" height="41.9"/>
	<rect x="280.8" y="453.1" class="st6" width="27.7" height="41.9"/>
	<rect x="176.4" y="453.1" class="st8" width="63.6" height="41.9"/>
	<rect x="240" y="453.1" class="st6" width="27.7" height="41.9"/>
	<rect x="148.7" y="453.1" class="st6" width="27.7" height="41.9"/>
	<rect x="186.9" y="204.3" class="st8" width="63.6" height="41.9"/>
	<rect x="250.5" y="204.3" class="st6" width="27.7" height="41.9"/>
	<rect x="159.2" y="204.3" class="st6" width="27.7" height="41.9"/>
	<text transform="matrix(1 0 0 1 197.8202 69.8848)" class="st2 st9 st10">L3GD20H 3</text>
	<text transform="matrix(1 0 0 1 581.287 69.8848)" class="st2 st9 st10 st11">-</text>
	<text transform="matrix(1 0 0 1 609.9501 69.8848)" class="st2 st9 st10">Axis Gyro</text>
	<text transform="matrix(1 0 0 1 595.3124 125.2882)" class="st2 st9 st12">X</text>
	<text transform="matrix(1 0 0 1 743.7528 125.2882)" class="st2 st9 st12">Y</text>
	<text transform="matrix(1 0 0 1 877.8387 125.2882)" class="st2 st9 st12">Z</text>
	<path class="st2" d="M611,205h-46.6c-4.1,0-7.4-3.3-7.4-7.4c0-4.1,3.3-7.4,7.4-7.4H611v-6h-46.6c-7.4,0-13.4,6-13.4,13.4
		c0,7.4,6,13.4,13.4,13.4H611V205z"/>
	<path class="st2" d="M653.2,184.1h-6v6h6c4.1,0,7.4,3.3,7.4,7.4c0,4.1-3.3,7.4-7.4,7.4h-6v6h6c7.4,0,13.4-6,13.4-13.4
		C666.6,190.1,660.6,184.1,653.2,184.1L653.2,184.1z"/>
	<path class="st13" d="M609,147.6c30,29,22.3,66.1,6.5,90.2"/>
	<polygon class="st2" points="603.9,219.3 595.3,258.7 633.8,246.5 	"/>
	<path class="st2" d="M763.3,203.1v-46.6c0-4.1-3.3-7.4-7.4-7.4c-4.1,0-7.4,3.3-7.4,7.4v46.6h-6v-46.6c0-7.4,6-13.4,13.4-13.4
		c7.4,0,13.4,6,13.4,13.4v46.6H763.3z"/>
	<path class="st2" d="M742.5,245.3v-6h6v6c0,4.1,3.3,7.4,7.4,7.4c4.1,0,7.4-3.3,7.4-7.4v-6h6v6c0,7.4-6,13.4-13.4,13.4
		C748.5,258.7,742.5,252.7,742.5,245.3z"/>
	<path class="st13" d="M705.9,201c29,30,66.1,22.3,90.2,6.5"/>
	<polygon class="st2" points="804.8,225.9 817.1,187.4 777.6,196 	"/>
	<circle class="st14" cx="891.3" cy="200.6" r="16.9"/>
	<path class="st14" d="M929.8,230.7c-16.6,21.3-47.4,25-68.6,8.4c-21.3-16.6-25-47.4-8.4-68.6c16.6-21.3,47.4-25,68.6-8.4
		c11.8,9.3,18.8,23.5,18.8,38.5c0,1.9-0.1,3.8-0.3,5.6"/>
	<polygon class="st2" points="908.6,230.3 939.9,206.2 945.2,245.3 	"/>
	<text transform="matrix(6.123234e-17 -1 1 6.123234e-17 932.4071 591.296)" class="st2 st9 st15">Vin</text>
	<circle class="st16" cx="189.5" cy="638.1" r="36.6"/>
	<circle class="st2" cx="189.5" cy="638.1" r="26.6"/>
	<text transform="matrix(6.123234e-17 -1 1 6.123234e-17 197.4208 591.296)" class="st2 st9 st17">SCL</text>
	<circle class="st16" cx="281" cy="638.1" r="36.6"/>
	<circle class="st2" cx="281" cy="638.1" r="26.6"/>
	<text transform="matrix(6.123234e-17 -1 1 6.123234e-17 285.3993 591.294)" class="st2 st9 st18">SDA</text>
	
		<ellipse transform="matrix(0.9239 -0.3827 0.3827 0.9239 -215.8229 191.1004)" class="st16" cx="372.5" cy="638.1" rx="36.6" ry="36.6"/>
	<circle class="st2" cx="372.5" cy="638.1" r="26.6"/>
	<text transform="matrix(6.123234e-17 -1 1 6.123234e-17 380.5771 591.296)" class="st2 st9 st19">S</text>
	<text transform="matrix(6.123234e-17 -1 1 6.123234e-17 380.5771 562.128)" class="st2 st9 st19">A0</text>
	<circle class="st16" cx="463.9" cy="638.1" r="36.6"/>
	<circle class="st2" cx="463.9" cy="638.1" r="26.6"/>
	<text transform="matrix(6.123234e-17 -1 1 6.123234e-17 471.5868 591.296)" class="st2 st9 st20">CS</text>
	<circle class="st16" cx="555.4" cy="638.1" r="36.6"/>
	<circle class="st2" cx="555.4" cy="638.1" r="26.6"/>
	<text transform="matrix(6.123234e-17 -1 1 6.123234e-17 560.7186 591.294)" class="st2 st9 st21">DR</text>
	<text transform="matrix(6.123234e-17 -1 1 6.123234e-17 560.7186 545.1006)" class="st2 st9 st21">D</text>
	<text transform="matrix(6.123234e-17 -1 1 6.123234e-17 560.7186 521.126)" class="st2 st9 st21">Y</text>
	<circle class="st16" cx="646.9" cy="638.1" r="36.6"/>
	<circle class="st2" cx="646.9" cy="638.1" r="26.6"/>
	<text transform="matrix(6.123234e-17 -1 1 6.123234e-17 653.4696 591.296)" class="st2 st9 st22">INT1</text>
	<circle class="st16" cx="738.4" cy="638.1" r="36.6"/>
	<circle class="st2" cx="738.4" cy="638.1" r="26.6"/>
	<text transform="matrix(6.123234e-17 -1 1 6.123234e-17 746.3593 591.294)" class="st2 st9 st23">GND</text>
	<circle class="st16" cx="829.9" cy="638.1" r="36.6"/>
	<circle class="st2" cx="829.9" cy="638.1" r="26.6"/>
	<text transform="matrix(6.123234e-17 -1 1 6.123234e-17 839.7303 591.294)" class="st2 st9 st24">3</text>
	<text transform="matrix(6.123234e-17 -1 1 6.123234e-17 839.7303 562.5323)" class="st2 st9 st24 st25">V</text>
	<text transform="matrix(6.123234e-17 -1 1 6.123234e-17 839.7303 533.8155)" class="st2 st9 st24">o</text>
	
		<ellipse transform="matrix(0.1602 -0.9871 0.9871 0.1602 143.9991 1445.3545)" class="st16" cx="921.4" cy="638.1" rx="36.6" ry="36.6"/>
	<circle class="st2" cx="921.4" cy="638.1" r="26.6"/>
	<path class="st26" d="M921.4,638.1"/>
	<line class="st27" x1="738.4" y1="757.9" x2="736.1" y2="638.1"/>
	<line class="st28" x1="189.7" y1="757.9" x2="189.2" y2="638.1"/>
	<line class="st29" x1="281.2" y1="757.9" x2="281" y2="638.1"/>
</g>
</svg>
