<?xml version="1.0" encoding="utf-8"?>
<!-- Generator: Adobe Illustrator 24.1.2, SVG Export Plug-In . SVG Version: 6.00 Build 0)  -->
<svg version="1.1" id="Layer_1" xmlns="http://www.w3.org/2000/svg" xmlns:xlink="http://www.w3.org/1999/xlink" x="0px" y="0px"
	 viewBox="0 0 250.7 181" style="enable-background:new 0 0 250.7 181;" xml:space="preserve">
<style type="text/css">
	.st0{fill:#B0242B;}
	.st1{fill:#D6C5B9;}
	.st2{fill:#FFFFFF;}
	.st3{fill:#967966;}
	.st4{fill:#B59A96;}
	.st5{fill:none;stroke:#F7ECF2;stroke-width:5;stroke-linecap:round;stroke-miterlimit:10;}
	.st6{fill:#F7ECF2;}
	.st7{fill:#D5C1AB;}
	.st8{fill:#A28868;}
	.st9{font-family:'Verdana';}
	.st10{font-size:23.345px;}
</style>
<path class="st0" d="M5.9,0h238.9c3.3,0,5.9,2.7,5.9,6v168.9c0,3.3-2.7,6-5.9,6H5.9c-3.3,0-5.9-2.7-5.9-6V6C0,2.7,2.7,0,5.9,0z"/>
<circle class="st1" cx="23.8" cy="65.8" r="13.8"/>
<circle class="st2" cx="23.8" cy="65.6" r="9.4"/>
<circle class="st1" cx="23.6" cy="110.7" r="13.8"/>
<circle class="st2" cx="23.6" cy="110.5" r="9.4"/>
<circle class="st1" cx="23.8" cy="155.6" r="13.8"/>
<circle class="st2" cx="23.8" cy="155.4" r="9.4"/>
<rect x="9.1" y="7.4" class="st1" width="27.5" height="27.5"/>
<circle class="st2" cx="22.9" cy="21.1" r="9.4"/>
<rect x="114.5" y="42.4" class="st3" width="83.9" height="85.1"/>
<rect x="110.1" y="60.9" class="st4" width="4.7" height="16.1"/>
<rect x="110.1" y="81.3" class="st4" width="4.7" height="16.1"/>
<rect x="110.1" y="101.6" class="st4" width="4.7" height="16.1"/>
<rect x="198.6" y="60.9" class="st4" width="4.7" height="16.1"/>
<rect x="198.6" y="81.3" class="st4" width="4.7" height="16.1"/>
<rect x="198.6" y="101.6" class="st4" width="4.7" height="16.1"/>
<line class="st5" x1="225.3" y1="136.8" x2="225.3" y2="99.3"/>
<polygon class="st6" points="236,111.9 225.3,101.2 214.6,111.9 214.6,102.8 225.3,92.1 236,102.8 "/>
<circle class="st7" cx="224.7" cy="155.1" r="7.2"/>
<circle class="st7" cx="113.6" cy="21.9" r="7.2"/>
<rect x="218.7" y="57.9" class="st7" width="13.5" height="15"/>
<rect x="218.7" y="72.9" class="st8" width="13.5" height="4.8"/>
<rect x="218.7" y="53.2" class="st8" width="13.5" height="4.8"/>
<text transform="matrix(1 0 0 1 47.9775 26.7833)" class="st2 st9 st10">VDD</text>
<text transform="matrix(1 0 0 1 47.9778 72.1193)" class="st2 st9 st10">GND</text>
<text transform="matrix(1 0 0 1 47.9775 116.4904)" class="st2 st9 st10">ST</text>
<text transform="matrix(1 0 0 1 47.9775 161.5041)" class="st2 st9 st10">OUT</text>
</svg>
