<?xml version="1.0" encoding="utf-8"?>
<!-- Generator: Adobe Illustrator 24.1.2, SVG Export Plug-In . SVG Version: 6.00 Build 0)  -->
<svg version="1.1" id="Layer_1" xmlns="http://www.w3.org/2000/svg" xmlns:xlink="http://www.w3.org/1999/xlink" x="0px" y="0px"
	 viewBox="0 0 307.6 410.3" style="enable-background:new 0 0 307.6 410.3;" xml:space="preserve">
<style type="text/css">
	.st0{fill:#803379;}
	.st1{fill:#4A3056;}
	.st2{fill:#59336A;}
	.st3{fill:#706D6F;}
	.st4{fill:#9A9798;}
	.st5{fill:#181818;}
	.st6{fill:#CEC8D4;}
	.st7{fill:#877368;}
	.st8{fill:#999489;}
	.st9{fill:#252024;}
	.st10{fill:#9E8E92;}
	.st11{fill:#FFFFFF;}
</style>
<g id="Layer_1_1_">
	<path class="st0" d="M275,144c-3.3-0.3-5.9-3.1-5.9-6.4c0,3.3-2.6,6.1-5.9,6.4c3.3,0.3,5.9,3.1,5.9,6.4
		C269.1,147.1,271.6,144.3,275,144z"/>
	<path class="st0" d="M277.9,239c3.6,0,6.5,2.9,6.5,6.5c0-3.6,2.9-6.5,6.5-6.5c-3.6,0-6.5-2.9-6.5-6.5
		C284.4,236.1,281.5,239,277.9,239z"/>
	<path class="st0" d="M275.6,211.9c-3.6,0-6.5-2.9-6.5-6.5c0,3.6-2.9,6.5-6.5,6.5c3.6,0,6.5,2.9,6.5,6.5
		C269.1,214.8,272,211.9,275.6,211.9z"/>
	<circle class="st0" cx="37.6" cy="325.7" r="7"/>
	<path class="st0" d="M275.6,225.4c-3.6,0-6.5-2.9-6.5-6.5c0,3.6-2.9,6.5-6.5,6.5c3.6,0,6.5,2.9,6.5,6.5
		C269.1,228.3,272,225.4,275.6,225.4z"/>
	<path class="st0" d="M269.1,232.5c0,3.6-2.9,6.5-6.5,6.5c3.6,0,6.5,2.9,6.5,6.5c0-3.6,2.9-6.5,6.5-6.5
		C272,239,269.1,236.1,269.1,232.5z"/>
	<path class="st0" d="M277.9,211.9c3.6,0,6.5,2.9,6.5,6.5c0-3.6,2.9-6.5,6.5-6.5c-3.6,0-6.5-2.9-6.5-6.5
		C284.4,209,281.5,211.9,277.9,211.9z"/>
	<path class="st0" d="M277.9,171c3.6,0,6.5,2.9,6.5,6.5c0-3.6,2.9-6.5,6.5-6.5c-3.6,0-6.5-2.9-6.5-6.5
		C284.4,168.1,281.5,171,277.9,171z"/>
	<path class="st0" d="M277.9,184.5c3.6,0,6.5,2.9,6.5,6.5c0-3.6,2.9-6.5,6.5-6.5c-3.6,0-6.5-2.9-6.5-6.5
		C284.4,181.6,281.5,184.5,277.9,184.5z"/>
	<path class="st0" d="M277.9,157.4c3.6,0,6.5,2.9,6.5,6.5c0-3.6,2.9-6.5,6.5-6.5c-3.6,0-6.5-2.9-6.5-6.5
		C284.4,154.5,281.5,157.4,277.9,157.4z"/>
	<circle class="st0" cx="37.6" cy="311.1" r="7"/>
	<path class="st0" d="M275.6,157.4c-3.6,0-6.5-2.9-6.5-6.5c0,3.6-2.9,6.5-6.5,6.5c3.6,0,6.5,2.9,6.5,6.5
		C269.1,160.4,272,157.4,275.6,157.4z"/>
	<path class="st0" d="M275.6,171c-3.6,0-6.5-2.9-6.5-6.5c0,3.6-2.9,6.5-6.5,6.5c3.6,0,6.5,2.9,6.5,6.5
		C269.1,173.9,272,171,275.6,171z"/>
	<path class="st0" d="M277.9,225.4c3.6,0,6.5,2.9,6.5,6.5c0,0,0,0,0,0c0-3.6,2.9-6.5,6.5-6.5c-3.6,0-6.5-2.9-6.5-6.5
		C284.4,222.5,281.5,225.4,277.9,225.4z"/>
	<circle class="st0" cx="21.9" cy="296.5" r="7"/>
	<path class="st0" d="M278.5,144c3.3,0.3,5.9,3.1,5.9,6.4c0-3.3,2.6-6.1,5.9-6.4c-3.3-0.3-5.9-3.1-5.9-6.4
		C284.4,140.9,281.9,143.7,278.5,144z"/>
	<circle class="st0" cx="37.6" cy="296.5" r="7"/>
	<circle class="st0" cx="21.9" cy="311.1" r="7"/>
	<circle class="st0" cx="21.9" cy="325.7" r="7"/>
	<path class="st0" d="M277.9,273.7c3.6,0,6.5,2.9,6.5,6.5c0-3.6,2.9-6.5,6.5-6.5c-3.6,0-6.5-2.9-6.5-6.5
		C284.4,270.8,281.5,273.7,277.9,273.7z"/>
	<path class="st0" d="M298.9,393.2C298.9,393.2,298.9,393.2,298.9,393.2c0,5.5,3.9,10,8.7,10V403C302.8,403,298.9,398.6,298.9,393.2
		z"/>
	<path class="st0" d="M277.9,300.8c3.6,0,6.5,2.9,6.5,6.5c0-3.6,2.9-6.5,6.5-6.5c-3.6,0-6.5-2.9-6.5-6.5
		C284.4,297.9,281.5,300.8,277.9,300.8z"/>
	<path class="st0" d="M277.9,287.2c3.6,0,6.5,2.9,6.5,6.5c0-3.6,2.9-6.5,6.5-6.5c-3.6,0-6.5-2.9-6.5-6.5
		C284.4,284.3,281.5,287.2,277.9,287.2z"/>
	<path class="st0" d="M275.6,287.2c-3.6,0-6.5-2.9-6.5-6.5c0,3.6-2.9,6.5-6.5,6.5c3.6,0,6.5,2.9,6.5,6.5
		C269.1,290.2,272,287.2,275.6,287.2z"/>
	<path class="st0" d="M275.6,273.7c-3.6,0-6.5-2.9-6.5-6.5c0,3.6-2.9,6.5-6.5,6.5c3.6,0,6.5,2.9,6.5,6.5
		C269.1,276.6,272,273.7,275.6,273.7z"/>
	<path class="st0" d="M269.1,294.3c0,3.6-2.9,6.5-6.5,6.5c3.6,0,6.5,2.9,6.5,6.5c0-3.6,2.9-6.5,6.5-6.5
		C272,300.8,269.1,297.9,269.1,294.3z"/>
	<path class="st0" d="M269.1,178c0,3.6-2.9,6.5-6.5,6.5c3.6,0,6.5,2.9,6.5,6.5c0-3.6,2.9-6.5,6.5-6.5
		C272,184.5,269.1,181.6,269.1,178z"/>
	<path class="st0" d="M9.3,393.2 M0.6,374.9c0.6-0.1,1.2-0.1,1.8-0.1c8.8,0,15.9,8.1,15.9,18.1c0,8.3-5,15.3-11.7,17.4h295.1
		c-6.7-2.1-11.7-9.1-11.7-17.4c0-10,7.1-18.1,15.9-18.1c0.6,0,1.2,0,1.8,0.1V48H302c-25.1,0-45.4-20.3-45.4-45.4V0H51.9v1.8
		c0,25.1-20.3,45.4-45.4,45.4H0v328.1l0.3-0.2 M286.9,52.2h14.2V61h-14.2V52.2z M257.2,52.2h14.2V61h-14.2V52.2z M224.4,335.7v5.7
		h-6.2v-5.7H224.4z M223,68.1h-18.2v-5.6H223L223,68.1z M221.7,76.7v16.8h-6.1V76.7L221.7,76.7z M212.2,76.7v16.8h-6.1V76.7
		L212.2,76.7z M204.6,46.6h18.2v5.6h-18.2V46.6z M204.6,54.7h18.2v5.6h-18.2V54.7z M180.3,289.1v-24.6h20.4v24.6H180.3z
		 M199.1,335.7v5.7h-15.4v-5.7H199.1z M136.6,118.4h51.6v53.5h-51.6V118.4z M117.7,201v-16.8h6.1V201H117.7z M123.8,202.2V219h-6.1
		v-16.8H123.8z M121.4,135.2v-16.8h6.1v16.8H121.4z M126.4,195.4v-11.2h6.1V201h-6.1V195.4z M122.3,68.7V57.5h6.1v16.8h-6.1V68.7z
		 M114.7,68.7V57.5h6.1v16.8h-6.1V68.7z M84.6,112.8h18.2l-0.2,3.9h-12l-5-0.5L84.6,112.8z M83.3,163.9h13.6v4.6H83.3V163.9z
		 M99.7,182.7v15.9H84v-15.9L99.7,182.7z M81.5,213.4h18.2v5.6H81.5V213.4z M71.2,172.9v-11.2h6.1v16.8h-6.1V172.9z M71.2,195.4
		v-11.2h6.1V201h-6.1V195.4z M45.5,394.4c0,1.6-1.3,2.9-2.9,2.9h-1c-1.6,0-2.9-1.3-2.9-2.9v-0.2c0-1.6,1.3-2.9,2.9-2.9h1
		c1.6,0,2.9,1.3,2.9,2.9V394.4z M45.5,381c0,1.6-1.3,2.9-2.9,2.9h-1c-1.6,0-2.9-1.3-2.9-2.9v-0.2c0-1.6,1.3-2.9,2.9-2.9h1
		c1.6,0,2.9,1.3,2.9,2.9V381z M46.4,340.4h-1.7c-3.9,0-7-3.1-7-7v0c0,3.9-3.1,7-7,7h-1.7c-3.9,0-7-3.1-7-7v0c0,3.9-3.1,7-7,7
		c0,0,0,0,0,0h-1.7c-3.9,0-7-3.1-7-7l0,0v-0.6c0-3.9,3.1-7,7-7c-3.9,0-7-3.1-7-7v-0.6c0-3.9,3.1-7,7-7c0,0,0,0,0,0c-3.9,0-7-3.1-7-7
		v-0.6c0-3.9,3.1-7,7-7c-3.9,0-7-3.1-7-7v-0.6c0-3.9,3.1-7,7-7h1.7c3.9,0,7,3.1,7,7c0-3.9,3.1-7,7-7h0c-3.9,0-7-3.1-7-7v0v-0.6
		c0-3.6,2.7-6.6,6.3-6.9c-3.6-0.4-6.3-3.4-6.3-6.9v-0.6c0-3.9,3.1-7,7-7h1.7c3.9,0,7,3.1,7,7l0,0v0.6c0,3.6-2.7,6.6-6.3,6.9
		c3.6,0.4,6.3,3.4,6.3,6.9v0.6c0,3.9-3.1,7-7,7c3.9,0,7,3.1,7,7c0-3.9,3.1-7,7-7h0h1.7c3.9,0,7,3.1,7,7v0.6c0,3.9-3.1,7-7,7l0,0
		c3.9,0,7,3.1,7,7l0,0v0.6c0,3.9-3.1,7-7,7l0,0c3.9,0,7,3.1,7,7v0.6c0,3.9-3.1,7-7,7c3.9,0,7,3.1,7,7l0,0v0.6
		C53.4,337.2,50.3,340.4,46.4,340.4C46.4,340.4,46.4,340.4,46.4,340.4L46.4,340.4z M59.4,394.4c0,1.6-1.3,2.9-2.9,2.9c0,0,0,0,0,0
		h-1c-1.6,0-2.9-1.3-2.9-2.9v-0.2c0-1.6,1.3-2.9,2.9-2.9h1c1.6,0,2.9,1.3,2.9,2.9V394.4z M59.4,381c0,1.6-1.3,2.9-2.9,2.9
		c0,0,0,0,0,0h-1c-1.6,0-2.9-1.3-2.9-2.9v-0.2c0-1.6,1.3-2.9,2.9-2.9h1c1.6,0,2.9,1.3,2.9,2.9V381z M73.3,394.4
		c0,1.6-1.3,2.9-2.9,2.9c0,0,0,0,0,0h-1c-1.6,0-2.9-1.3-2.9-2.9v-0.2c0-1.6,1.3-2.9,2.9-2.9c0,0,0,0,0,0h1c1.6,0,2.9,1.3,2.9,2.9
		L73.3,394.4z M73.3,381c0,1.6-1.3,2.9-2.9,2.9c0,0,0,0,0,0h-1c-1.6,0-2.9-1.3-2.9-2.9v-0.2c0-1.6,1.3-2.9,2.9-2.9h1
		c1.6,0,2.9,1.3,2.9,2.9V381z M78.5,254.7v11.2h-6.1v-16.8h6.1V254.7z M80.3,280.2V269h6.1v16.8h-6.1V280.2z M87.2,394.4
		c0,1.6-1.3,2.9-2.9,2.9h-1c-1.6,0-2.9-1.3-2.9-2.9v-0.2c0-1.6,1.3-2.9,2.9-2.9h1c1.6,0,2.9,1.3,2.9,2.9V394.4z M87.2,381
		c0,1.6-1.3,2.9-2.9,2.9h-1c-1.6,0-2.9-1.3-2.9-2.9v-0.2c0-1.6,1.3-2.9,2.9-2.9h1c1.6,0,2.9,1.3,2.9,2.9V381z M89.4,227.6v11.2h-6.1
		V222h6.1V227.6z M92.7,233.2V222h6.1v16.8h-6.1L92.7,233.2z M101,394.4c0,1.6-1.3,2.9-2.9,2.9h-1c-1.6,0-2.9-1.3-2.9-2.9
		c0,0,0,0,0,0v-0.2c0-1.6,1.3-2.9,2.9-2.9h1c1.6,0,2.9,1.3,2.9,2.9V394.4z M101,381c0,1.6-1.3,2.9-2.9,2.9h-1
		c-1.6,0-2.9-1.3-2.9-2.9c0,0,0,0,0,0v-0.2c0-1.6,1.3-2.9,2.9-2.9h1c1.6,0,2.9,1.3,2.9,2.9V381z M103.6,273.7v11.2h-6.1v-16.8h6.1
		V273.7z M105.6,111.1h18.2v5.6h-18.2L105.6,111.1z M114.9,394.4c0,1.6-1.3,2.9-2.9,2.9h-1c-1.6,0-2.9-1.3-2.9-2.9c0,0,0,0,0,0v-0.2
		c0-1.6,1.3-2.9,2.9-2.9c0,0,0,0,0,0h1c1.6,0,2.9,1.3,2.9,2.9L114.9,394.4z M114.9,381c0,1.6-1.3,2.9-2.9,2.9h-1
		c-1.6,0-2.9-1.3-2.9-2.9c0,0,0,0,0,0v-0.2c0-1.6,1.3-2.9,2.9-2.9h1c1.6,0,2.9,1.3,2.9,2.9V381z M113,362.4h-6.1v-5.6h18.2v5.6
		L113,362.4L113,362.4z M128.8,394.4c0,1.6-1.3,2.9-2.9,2.9h-1c-1.6,0-2.9-1.3-2.9-2.9v-0.2c0-1.6,1.3-2.9,2.9-2.9h1
		c1.6,0,2.9,1.3,2.9,2.9V394.4z M128.8,381c0,1.6-1.3,2.9-2.9,2.9h-1c-1.6,0-2.9-1.3-2.9-2.9v-0.2c0-1.6,1.3-2.9,2.9-2.9h1
		c1.6,0,2.9,1.3,2.9,2.9V381z M129.8,341.4h-18.2v-5.6h18.2V341.4z M142.7,394.4c0,1.6-1.3,2.9-2.9,2.9h-1c-1.6,0-2.9-1.3-2.9-2.9
		v-0.2c0-1.6,1.3-2.9,2.9-2.9h1c1.6,0,2.9,1.3,2.9,2.9V394.4z M142.7,381c0,1.6-1.3,2.9-2.9,2.9h-1c-1.6,0-2.9-1.3-2.9-2.9v-0.2
		c0-1.6,1.3-2.9,2.9-2.9h1c1.6,0,2.9,1.3,2.9,2.9V381z M149.1,341.3h-18.2v-5.6h18.2V341.3z M156.5,394.4c0,1.6-1.3,2.9-2.9,2.9h-1
		c-1.6,0-2.9-1.3-2.9-2.9v-0.2c0-1.6,1.3-2.9,2.9-2.9h1c1.6,0,2.9,1.3,2.9,2.9V394.4z M156.5,381c0,1.6-1.3,2.9-2.9,2.9h-1
		c-1.6,0-2.9-1.3-2.9-2.9v-0.2c0-1.6,1.3-2.9,2.9-2.9h1c1.6,0,2.9,1.3,2.9,2.9V381z M159.9,207.6h20.4v33.9h-20.4V207.6z
		 M170.4,394.4c0,1.6-1.3,2.9-2.9,2.9c0,0,0,0,0,0h-1c-1.6,0-2.9-1.3-2.9-2.9v-0.2c0-1.6,1.3-2.9,2.9-2.9h1c1.6,0,2.9,1.3,2.9,2.9
		V394.4z M170.4,381c0,1.6-1.3,2.9-2.9,2.9c0,0,0,0,0,0h-1c-1.6,0-2.9-1.3-2.9-2.9v-0.2c0-1.6,1.3-2.9,2.9-2.9h1
		c1.6,0,2.9,1.3,2.9,2.9V381z M184.3,394.4c0,1.6-1.3,2.9-2.9,2.9c0,0,0,0,0,0h-1c-1.6,0-2.9-1.3-2.9-2.9v-0.2
		c0-1.6,1.3-2.9,2.9-2.9h1c1.6,0,2.9,1.3,2.9,2.9V394.4z M184.3,381c0,1.6-1.3,2.9-2.9,2.9c0,0,0,0,0,0h-1c-1.6,0-2.9-1.3-2.9-2.9
		v-0.2c0-1.6,1.3-2.9,2.9-2.9h1c1.6,0,2.9,1.3,2.9,2.9V381z M198.2,394.4c0,1.6-1.3,2.9-2.9,2.9h-1c-1.6,0-2.9-1.3-2.9-2.9
		c0,0,0,0,0,0v-0.2c0-1.6,1.3-2.9,2.9-2.9h1c1.6,0,2.9,1.3,2.9,2.9V394.4z M198.2,381c0,1.6-1.3,2.9-2.9,2.9h-1
		c-1.6,0-2.9-1.3-2.9-2.9c0,0,0,0,0,0v-0.2c0-1.6,1.3-2.9,2.9-2.9h1c1.6,0,2.9,1.3,2.9,2.9V381z M201.8,361.9h-18.2v-5.6h18.2V361.9
		z M204.6,135.4h18.2v5.6h-18.2L204.6,135.4z M212.1,394.4c0,1.6-1.3,2.9-2.9,2.9h-1c-1.6,0-2.9-1.3-2.9-2.9c0,0,0,0,0,0v-0.2
		c0-1.6,1.3-2.9,2.9-2.9h1c1.6,0,2.9,1.3,2.9,2.9V394.4z M212.1,381c0,1.6-1.3,2.9-2.9,2.9h-1c-1.6,0-2.9-1.3-2.9-2.9c0,0,0,0,0,0
		v-0.2c0-1.6,1.3-2.9,2.9-2.9h1c1.6,0,2.9,1.3,2.9,2.9V381z M225.9,394.4c0,1.6-1.3,2.9-2.9,2.9h-1c-1.6,0-2.9-1.3-2.9-2.9v-0.2
		c0-1.6,1.3-2.9,2.9-2.9h1c1.6,0,2.9,1.3,2.9,2.9V394.4z M225.9,381c0,1.6-1.3,2.9-2.9,2.9h-1c-1.6,0-2.9-1.3-2.9-2.9v-0.2
		c0-1.6,1.3-2.9,2.9-2.9h1c1.6,0,2.9,1.3,2.9,2.9V381z M231,359.1h-15.4v-5.7H231V359.1z M231.9,312.6v-11.2h6.1v16.8h-6.1
		L231.9,312.6z M239.8,394.4c0,1.6-1.3,2.9-2.9,2.9h-1c-1.6,0-2.9-1.3-2.9-2.9v-0.2c0-1.6,1.3-2.9,2.9-2.9h1c1.6,0,2.9,1.3,2.9,2.9
		V394.4z M239.8,381c0,1.6-1.3,2.9-2.9,2.9h-1c-1.6,0-2.9-1.3-2.9-2.9v-0.2c0-1.6,1.3-2.9,2.9-2.9h1c1.6,0,2.9,1.3,2.9,2.9V381z
		 M241,79.8h6.1v10.5H241L241,79.8z M253.7,394.4c0,1.6-1.3,2.9-2.9,2.9h-1c-1.6,0-2.9-1.3-2.9-2.9v-0.2c0-1.6,1.3-2.9,2.9-2.9h1
		c1.6,0,2.9,1.3,2.9,2.9V394.4z M253.7,381c0,1.6-1.3,2.9-2.9,2.9h-1c-1.6,0-2.9-1.3-2.9-2.9v-0.2c0-1.6,1.3-2.9,2.9-2.9h1
		c1.6,0,2.9,1.3,2.9,2.9V381z M267.6,394.4c0,1.6-1.3,2.9-2.9,2.9c0,0,0,0,0,0h-1c-1.6,0-2.9-1.3-2.9-2.9v-0.2
		c0-1.6,1.3-2.9,2.9-2.9h1c1.6,0,2.9,1.3,2.9,2.9c0,0,0,0,0,0V394.4z M267.6,381c0,1.6-1.3,2.9-2.9,2.9c0,0,0,0,0,0h-1
		c-1.6,0-2.9-1.3-2.9-2.9v-0.2c0-1.6,1.3-2.9,2.9-2.9h1c1.6,0,2.9,1.3,2.9,2.9c0,0,0,0,0,0V381z M299.7,341.7c0,3.6-2.9,6.5-6.5,6.5
		h-2.3c-3.6,0-6.5-2.9-6.5-6.5c0,3.6-2.9,6.5-6.5,6.5h-2.3c-3.6,0-6.5-2.9-6.5-6.5c0,3.6-2.9,6.5-6.5,6.5h-2.3
		c-3.6,0-6.5-2.9-6.5-6.5v-0.5c0-3.6,2.9-6.5,6.5-6.5h2.3c3.6,0,6.5,2.9,6.5,6.5c0-3.6,2.9-6.5,6.5-6.5h2.3c3.6,0,6.5,2.9,6.5,6.5
		c0-3.6,2.9-6.5,6.5-6.5h2.3c3.6,0,6.5,2.9,6.5,6.5V341.7z M299.7,328c0,3.6-2.9,6.5-6.5,6.5h-2.3c-3.6,0-6.5-2.9-6.5-6.5
		c0,3.6-2.9,6.5-6.5,6.5h-2.3c-3.6,0-6.5-2.9-6.5-6.5c0,3.6-2.9,6.5-6.5,6.5h-2.3c-3.6,0-6.5-2.9-6.5-6.5v-0.5
		c0-3.6,2.9-6.5,6.5-6.5h2.3c3.6,0,6.5,2.9,6.5,6.5c0-3.6,2.9-6.5,6.5-6.5h2.3c3.6,0,6.5,2.9,6.5,6.5c0-3.6,2.9-6.5,6.5-6.5h2.3
		c3.6,0,6.5,2.9,6.5,6.5V328z M299.7,267.2c0,3.6-2.9,6.5-6.5,6.5c3.6,0,6.5,2.9,6.5,6.5v0.5c0,3.6-2.9,6.5-6.5,6.5
		c3.6,0,6.5,2.9,6.5,6.5v0.5c0,3.6-2.9,6.5-6.5,6.5c3.6,0,6.5,2.9,6.5,6.5v0.5c0,3.6-2.9,6.5-6.5,6.5h-2.3c-3.6,0-6.5-2.9-6.5-6.5
		c0,3.6-2.9,6.5-6.5,6.5h-2.3c-3.6,0-6.5-2.9-6.5-6.5c0,3.6-2.9,6.5-6.5,6.5h-2.3c-3.6,0-6.5-2.9-6.5-6.5v-0.5
		c0-3.6,2.9-6.5,6.5-6.5c-3.6,0-6.5-2.9-6.5-6.5v-0.5c0-3.6,2.9-6.5,6.5-6.5c-3.6,0-6.5-2.9-6.5-6.5v-0.5c0-3.6,2.9-6.5,6.5-6.5
		c-3.6,0-6.5-2.9-6.5-6.5v-0.5c0-3.6,2.9-6.5,6.5-6.5h2.3c3.6,0,6.5,2.9,6.5,6.5c0-3.6,2.9-6.5,6.5-6.5h2.3c3.6,0,6.5,2.9,6.5,6.5
		c0-3.6,2.9-6.5,6.5-6.5h2.3c3.6,0,6.5,2.9,6.5,6.5V267.2z M299.7,205.4c0,3.6-2.9,6.5-6.5,6.5c3.6,0,6.5,2.9,6.5,6.5v0.5
		c0,3.6-2.9,6.5-6.5,6.5c3.6,0,6.5,2.9,6.5,6.5v0.5c0,3.6-2.9,6.5-6.5,6.5c3.6,0,6.5,2.9,6.5,6.5v0.5c0,3.6-2.9,6.5-6.5,6.5h-2.3
		c-3.6,0-6.5-2.9-6.5-6.5c0,3.6-2.9,6.5-6.5,6.5h-2.3c-3.6,0-6.5-2.9-6.5-6.5c0,3.6-2.9,6.5-6.5,6.5h-2.3c-3.6,0-6.5-2.9-6.5-6.5
		v-0.5c0-3.6,2.9-6.5,6.5-6.5c-3.6,0-6.5-2.9-6.5-6.5v-0.5c0-3.6,2.9-6.5,6.5-6.5c-3.6,0-6.5-2.9-6.5-6.5v-0.5
		c0-3.6,2.9-6.5,6.5-6.5c-3.6,0-6.5-2.9-6.5-6.5v-0.5c0-3.6,2.9-6.5,6.5-6.5h2.3c3.6,0,6.5,2.9,6.5,6.5c0-3.6,2.9-6.5,6.5-6.5h2.3
		c3.6,0,6.5,2.9,6.5,6.5c0-3.6,2.9-6.5,6.5-6.5h2.3c3.6,0,6.5,2.9,6.5,6.5L299.7,205.4z M299.7,137.5c0,3.3-2.6,6.1-5.9,6.4
		c3.3,0.3,5.9,3.1,5.9,6.4v0.5c0,3.6-2.9,6.5-6.5,6.5c3.6,0,6.5,2.9,6.5,6.5v0.5c0,3.6-2.9,6.5-6.5,6.5c3.6,0,6.5,2.9,6.5,6.5v0.5
		c0,3.6-2.9,6.5-6.5,6.5c3.6,0,6.5,2.9,6.5,6.5v0.5c0,3.6-2.9,6.5-6.5,6.5h-2.3c-3.6,0-6.5-2.9-6.5-6.5c0,3.6-2.9,6.5-6.5,6.5h-2.3
		c-3.6,0-6.5-2.9-6.5-6.5c0,3.6-2.9,6.5-6.5,6.5h-2.3c-3.6,0-6.5-2.9-6.5-6.5V191c0-3.6,2.9-6.5,6.5-6.5c-3.6,0-6.5-2.9-6.5-6.5
		v-0.5c0-3.6,2.9-6.5,6.5-6.5c-3.6,0-6.5-2.9-6.5-6.5v-0.5c0-3.6,2.9-6.5,6.5-6.5c-3.6,0-6.5-2.9-6.5-6.5v-0.5
		c0-3.3,2.6-6.1,5.9-6.4c-3.3-0.3-5.9-3.1-5.9-6.4V137c0-3.6,2.9-6.5,6.5-6.5h2.3c3.6,0,6.5,2.9,6.5,6.5c0-3.6,2.9-6.5,6.5-6.5h2.3
		c3.6,0,6.5,2.9,6.5,6.5c0-3.6,2.9-6.5,6.5-6.5h2.3c3.6,0,6.5,2.9,6.5,6.5V137.5z M299.7,123.8c0,3.6-2.9,6.5-6.5,6.5h-2.3
		c-3.6,0-6.5-2.9-6.5-6.5c0,3.6-2.9,6.5-6.5,6.5h-2.3c-3.6,0-6.5-2.9-6.5-6.5c0,3.6-2.9,6.5-6.5,6.5h-2.3c-3.6,0-6.5-2.9-6.5-6.5
		v-0.5c0-3.6,2.9-6.5,6.5-6.5h2.3c3.6,0,6.5,2.9,6.5,6.5c0-3.6,2.9-6.5,6.5-6.5h2.3c3.6,0,6.5,2.9,6.5,6.5c0-3.6,2.9-6.5,6.5-6.5
		h2.3c3.6,0,6.5,2.9,6.5,6.5V123.8z M304.6,101.9h-3.4v8.9h-14.2v-8.9h-15.6v8.9h-14.2v-8.9h-2.7V61.1h50.1L304.6,101.9z"/>
	<path class="st1" d="M18.2,392.8c0-10-7.3-18.1-16.4-18.1c-0.6,0-1.2,0-1.8,0.1v8.3c5,0,9,4.4,9,9.9c0,0,0,0,0,0s0,0,0,0
		c0,5.5-4,9.9-9,9.9v7.1h6.2C13.1,408.2,18.2,401.2,18.2,392.8z"/>
	<path class="st2" d="M0,0v47.2h6.5c25.1,0,45.4-20.3,45.4-45.4c0,0,0,0,0,0V0L0,0z M18.7,27.6c-5.4,0-9.7-4-9.7-9s4.4-9,9.7-9
		c5.4,0,9.7,4,9.7,9S24.1,27.6,18.7,27.6z"/>
	<polygon class="st3" points="254.5,101.9 257.2,101.9 271.4,101.9 286.9,101.9 301.1,101.9 304.6,101.9 304.6,61.1 254.5,61.1 	"/>
	<rect x="257.2" y="101.9" class="st4" width="14.2" height="8.9"/>
	<rect x="257.2" y="52.2" class="st4" width="14.2" height="8.9"/>
	<rect x="286.9" y="101.9" class="st4" width="14.2" height="8.9"/>
	<rect x="286.9" y="52.2" class="st4" width="14.2" height="8.9"/>
	<rect x="136.6" y="118.4" class="st5" width="51.6" height="53.5"/>
	<rect x="159.9" y="207.6" class="st5" width="20.4" height="33.9"/>
	<rect x="241" y="79.8" class="st5" width="6.1" height="10.5"/>
	<rect x="210.7" y="46.6" class="st5" width="6.1" height="5.6"/>
	<rect x="216.7" y="46.6" class="st6" width="6.1" height="5.6"/>
	<rect x="204.6" y="46.6" class="st6" width="6.1" height="5.6"/>
	<rect x="210.7" y="54.7" class="st5" width="6.1" height="5.6"/>
	<rect x="216.7" y="54.7" class="st6" width="6.1" height="5.6"/>
	<rect x="204.6" y="54.7" class="st6" width="6.1" height="5.6"/>
	<rect x="210.9" y="62.5" class="st7" width="6.1" height="5.6"/>
	<rect x="216.9" y="62.5" class="st6" width="6.1" height="5.6"/>
	<rect x="204.8" y="62.5" class="st6" width="6.1" height="5.6"/>
	<rect x="122.3" y="63.1" class="st8" width="6.1" height="5.6"/>
	<rect x="122.3" y="68.7" class="st6" width="6.1" height="5.6"/>
	<rect x="122.3" y="57.5" class="st6" width="6.1" height="5.6"/>
	<rect x="111.7" y="111.1" class="st8" width="6.1" height="5.6"/>
	<rect x="105.6" y="111.1" class="st6" width="6.1" height="5.6"/>
	<rect x="117.7" y="111.1" class="st6" width="6.1" height="5.6"/>
	<rect x="90.6" y="111.1" class="st8" width="6.1" height="5.6"/>
	<rect x="84.6" y="111.1" class="st6" width="6.1" height="5.6"/>
	<rect x="96.7" y="111.1" class="st6" width="6.1" height="5.6"/>
	<rect x="71.2" y="167.3" class="st8" width="6.1" height="5.6"/>
	<rect x="71.2" y="161.7" class="st6" width="6.1" height="5.6"/>
	<rect x="71.2" y="172.9" class="st6" width="6.1" height="5.6"/>
	<rect x="71.2" y="189.8" class="st8" width="6.1" height="5.6"/>
	<rect x="71.2" y="184.2" class="st6" width="6.1" height="5.6"/>
	<rect x="71.2" y="195.4" class="st6" width="6.1" height="5.6"/>
	<rect x="126.4" y="189.8" class="st8" width="6.1" height="5.6"/>
	<rect x="126.4" y="184.2" class="st6" width="6.1" height="5.6"/>
	<rect x="126.4" y="195.4" class="st6" width="6.1" height="5.6"/>
	<rect x="117.7" y="189.8" class="st8" width="6.1" height="5.6"/>
	<rect x="117.7" y="184.2" class="st6" width="6.1" height="5.6"/>
	<rect x="117.7" y="195.4" class="st6" width="6.1" height="5.6"/>
	<rect x="87.6" y="213.4" class="st8" width="6.1" height="5.6"/>
	<rect x="93.6" y="213.4" class="st6" width="6.1" height="5.6"/>
	<rect x="81.5" y="213.4" class="st6" width="6.1" height="5.6"/>
	<rect x="72.5" y="254.7" class="st8" width="6.1" height="5.6"/>
	<rect x="72.5" y="260.3" class="st6" width="6.1" height="5.6"/>
	<rect x="72.5" y="249.1" class="st6" width="6.1" height="5.6"/>
	<rect x="121.4" y="124" class="st8" width="6.1" height="5.6"/>
	<rect x="121.4" y="129.6" class="st6" width="6.1" height="5.6"/>
	<rect x="121.4" y="118.4" class="st6" width="6.1" height="5.6"/>
	<rect x="210.7" y="135.4" class="st5" width="6.1" height="5.6"/>
	<rect x="216.7" y="135.4" class="st6" width="6.1" height="5.6"/>
	<rect x="204.6" y="135.4" class="st6" width="6.1" height="5.6"/>
	<rect x="215.7" y="82.3" class="st5" width="6.1" height="5.6"/>
	<rect x="215.7" y="87.9" class="st6" width="6.1" height="5.6"/>
	<rect x="215.7" y="76.7" class="st6" width="6.1" height="5.6"/>
	<rect x="117.7" y="207.8" class="st5" width="6.1" height="5.6"/>
	<rect x="117.7" y="213.4" class="st6" width="6.1" height="5.6"/>
	<rect x="117.7" y="202.2" class="st6" width="6.1" height="5.6"/>
	<rect x="92.7" y="227.6" class="st5" width="6.1" height="5.6"/>
	<rect x="92.7" y="233.2" class="st6" width="6.1" height="5.6"/>
	<rect x="92.7" y="222" class="st6" width="6.1" height="5.6"/>
	<rect x="117.7" y="335.8" class="st5" width="6.1" height="5.6"/>
	<rect x="111.7" y="335.8" class="st6" width="6.1" height="5.6"/>
	<rect x="123.8" y="335.8" class="st6" width="6.1" height="5.6"/>
	<rect x="137" y="335.7" class="st5" width="6.1" height="5.6"/>
	<rect x="130.9" y="335.7" class="st6" width="6.1" height="5.6"/>
	<rect x="143" y="335.7" class="st6" width="6.1" height="5.6"/>
	<rect x="231.9" y="307" class="st5" width="6.1" height="5.6"/>
	<rect x="231.9" y="301.4" class="st6" width="6.1" height="5.6"/>
	<rect x="231.9" y="312.6" class="st6" width="6.1" height="5.6"/>
	<rect x="113" y="356.8" class="st5" width="6.1" height="5.6"/>
	<rect x="106.9" y="356.8" class="st6" width="6.1" height="5.6"/>
	<rect x="119" y="356.8" class="st6" width="6.1" height="5.6"/>
	<rect x="189.7" y="356.3" class="st5" width="6.1" height="5.6"/>
	<rect x="183.6" y="356.3" class="st6" width="6.1" height="5.6"/>
	<rect x="195.7" y="356.3" class="st6" width="6.1" height="5.6"/>
	<rect x="97.6" y="273.7" class="st5" width="6.1" height="5.6"/>
	<rect x="97.6" y="279.3" class="st6" width="6.1" height="5.6"/>
	<rect x="97.6" y="268.1" class="st6" width="6.1" height="5.6"/>
	<rect x="80.3" y="274.6" class="st5" width="6.1" height="5.6"/>
	<rect x="80.3" y="280.2" class="st6" width="6.1" height="5.6"/>
	<rect x="80.3" y="269" class="st6" width="6.1" height="5.6"/>
	<rect x="83.3" y="227.6" class="st5" width="6.1" height="5.6"/>
	<rect x="83.3" y="233.2" class="st6" width="6.1" height="5.6"/>
	<rect x="83.3" y="222" class="st6" width="6.1" height="5.6"/>
	<rect x="206.1" y="82.3" class="st5" width="6.1" height="5.6"/>
	<rect x="206.1" y="87.9" class="st6" width="6.1" height="5.6"/>
	<rect x="206.1" y="76.7" class="st6" width="6.1" height="5.6"/>
	<rect x="114.7" y="63.1" class="st5" width="6.1" height="5.6"/>
	<rect x="114.7" y="68.7" class="st6" width="6.1" height="5.6"/>
	<rect x="114.7" y="57.5" class="st6" width="6.1" height="5.6"/>
	<rect x="84" y="182.7" class="st5" width="15.7" height="15.9"/>
	<rect x="83.3" y="163.9" class="st5" width="13.6" height="4.6"/>
	<rect x="180.3" y="264.5" class="st5" width="20.4" height="24.6"/>
	<rect x="218.2" y="335.7" class="st5" width="6.2" height="5.7"/>
	<rect x="183.6" y="335.7" class="st5" width="15.4" height="5.7"/>
	<rect x="215.5" y="353.4" class="st5" width="15.4" height="5.7"/>
	<path class="st9" d="M30.6,267.3c0.2,0,0.5,0,0.7,0.1c3.6-0.4,6.3-3.4,6.3-6.9v-0.6c0-3.9-3.1-7-7-7l0,0h-1.7c-3.9,0-7,3.1-7,7v0.6
		c0,3.6,2.7,6.6,6.3,6.9c0.2,0,0.5-0.1,0.7-0.1L30.6,267.3z M27.8,260.2v-0.1c0-0.9,0.8-1.7,1.7-1.7H30c0.9,0,1.7,0.8,1.7,1.7v0.1
		c0,0.9-0.8,1.7-1.7,1.7c0,0,0,0,0,0h-0.4C28.6,261.9,27.8,261.2,27.8,260.2C27.8,260.2,27.8,260.2,27.8,260.2L27.8,260.2z"/>
	<path class="st10" d="M29.5,258.4H30c0.9,0,1.7,0.8,1.7,1.7v0.1c0,0.9-0.8,1.7-1.7,1.7h-0.4c-0.9,0-1.7-0.8-1.7-1.7v-0.1
		C27.8,259.2,28.6,258.4,29.5,258.4z"/>
	<path class="st9" d="M37.6,274.9v-0.6c0-3.6-2.7-6.6-6.3-6.9c-0.2,0-0.5-0.1-0.7-0.1h-1.7c-0.2,0-0.5,0-0.7,0.1
		c-3.6,0.4-6.3,3.4-6.3,6.9v0.6c0,3.9,3.1,7,7,7h0h1.7C34.5,281.9,37.6,278.8,37.6,274.9z M29.5,276.4c-0.9,0-1.7-0.8-1.7-1.7v-0.1
		c0-0.9,0.8-1.7,1.7-1.7H30c0.9,0,1.7,0.8,1.7,1.7c0,0,0,0,0,0v0.1c0,0.9-0.8,1.7-1.7,1.7H29.5z"/>
	<path class="st10" d="M29.5,272.9H30c0.9,0,1.7,0.8,1.7,1.7v0.1c0,0.9-0.8,1.7-1.7,1.7h-0.4c-0.9,0-1.7-0.8-1.7-1.7v-0.1
		C27.8,273.6,28.6,272.9,29.5,272.9z"/>
	<path class="st9" d="M28.9,296.5h1.7c3.9,0,7-3.1,7-7l0,0v-0.6c0-3.9-3.1-7-7-7h-1.7c-3.9,0-7,3.1-7,7v0v0.6
		C21.9,293.4,25,296.5,28.9,296.5C28.9,296.5,28.9,296.5,28.9,296.5z M27.8,289.2c0-0.9,0.8-1.7,1.7-1.7H30c0.9,0,1.7,0.8,1.7,1.7
		v0.1c0,0.9-0.8,1.7-1.7,1.7c0,0,0,0,0,0h-0.4c-0.9,0-1.7-0.8-1.7-1.7V289.2z"/>
	<path class="st10" d="M29.5,287.5H30c0.9,0,1.7,0.8,1.7,1.7v0.1c0,0.9-0.8,1.7-1.7,1.7h-0.4c-0.9,0-1.7-0.8-1.7-1.7v-0.1
		C27.8,288.2,28.6,287.5,29.5,287.5z"/>
	<path class="st9" d="M28.9,311.1h1.7c3.9,0,7-3.1,7-7l0,0v-0.6c0-3.9-3.1-7-7-7l0,0h-1.7c-3.9,0-7,3.1-7,7c0,0,0,0,0,0v0.6
		C21.9,308,25,311.1,28.9,311.1C28.9,311.1,28.9,311.1,28.9,311.1z M27.8,303.8c0-0.9,0.8-1.7,1.7-1.7H30c0.9,0,1.7,0.8,1.7,1.7v0.1
		c0,0.9-0.8,1.7-1.7,1.7c0,0,0,0,0,0h-0.4c-0.9,0-1.7-0.8-1.7-1.7V303.8z"/>
	<path class="st10" d="M29.5,302.1H30c0.9,0,1.7,0.8,1.7,1.7v0.1c0,0.9-0.8,1.7-1.7,1.7h-0.4c-0.9,0-1.7-0.8-1.7-1.7v-0.1
		C27.8,302.8,28.6,302.1,29.5,302.1z"/>
	<path class="st9" d="M37.6,318.7v-0.6c0-3.9-3.1-7-7-7h-1.7c-3.9,0-7,3.1-7,7v0v0.6c0,3.9,3.1,7,7,7h0h1.7
		C34.5,325.7,37.6,322.6,37.6,318.7z M31.7,318.5c0,0.9-0.8,1.7-1.7,1.7h-0.4c-0.9,0-1.7-0.8-1.7-1.7v-0.1c0-0.9,0.8-1.7,1.7-1.7
		c0,0,0,0,0,0H30c0.9,0,1.7,0.8,1.7,1.7c0,0,0,0,0,0V318.5z"/>
	<path class="st10" d="M29.5,316.7H30c0.9,0,1.7,0.8,1.7,1.7v0.1c0,0.9-0.8,1.7-1.7,1.7h-0.4c-0.9,0-1.7-0.8-1.7-1.7v-0.1
		C27.8,317.4,28.6,316.7,29.5,316.7z"/>
	<path class="st9" d="M30.6,325.7h-1.7c-3.9,0-7,3.1-7,7c0,0,0,0,0,0v0.6c0,3.9,3.1,7,7,7h0h1.7c3.9,0,7-3.1,7-7v-0.6
		C37.6,328.9,34.5,325.7,30.6,325.7L30.6,325.7z M31.7,333.1c0,0.9-0.8,1.7-1.7,1.7h-0.4c-0.9,0-1.7-0.8-1.7-1.7V333
		c0-0.9,0.8-1.7,1.7-1.7H30c0.9,0,1.7,0.8,1.7,1.7c0,0,0,0,0,0V333.1z"/>
	<path class="st10" d="M29.5,331.3H30c0.9,0,1.7,0.8,1.7,1.7v0.1c0,0.9-0.8,1.7-1.7,1.7h-0.4c-0.9,0-1.7-0.8-1.7-1.7V333
		C27.8,332,28.6,331.3,29.5,331.3z"/>
	<path class="st9" d="M44.7,296.5h1.7c3.9,0,7-3.1,7-7l0,0v-0.6c0-3.9-3.1-7-7-7h-1.7c-3.9,0-7,3.1-7,7v0v0.6
		C37.6,293.4,40.8,296.5,44.7,296.5C44.7,296.5,44.7,296.5,44.7,296.5z M43.6,289.2c0-0.9,0.8-1.7,1.7-1.7h0.4
		c0.9,0,1.7,0.8,1.7,1.7v0.1c0,0.9-0.8,1.7-1.7,1.7h-0.4c-0.9,0-1.7-0.8-1.7-1.7c0,0,0,0,0,0V289.2z"/>
	<path class="st10" d="M45.3,287.5h0.4c0.9,0,1.7,0.8,1.7,1.7v0.1c0,0.9-0.8,1.7-1.7,1.7h-0.4c-0.9,0-1.7-0.8-1.7-1.7c0,0,0,0,0,0
		v-0.1C43.6,288.2,44.4,287.5,45.3,287.5z"/>
	<path class="st9" d="M37.6,303.6v0.6c0,3.9,3.1,7,7,7c0,0,0,0,0,0h1.7c3.9,0,7-3.1,7-7l0,0v-0.6c0-3.9-3.1-7-7-7l0,0h-1.7
		C40.8,296.5,37.6,299.7,37.6,303.6C37.6,303.6,37.6,303.6,37.6,303.6z M45.7,302.1c0.9,0,1.7,0.8,1.7,1.7v0.1
		c0,0.9-0.8,1.7-1.7,1.7h-0.4c-0.9,0-1.7-0.8-1.7-1.7c0,0,0,0,0,0v-0.1c0-0.9,0.8-1.7,1.7-1.7H45.7z"/>
	<path class="st10" d="M45.3,302.1h0.4c0.9,0,1.7,0.8,1.7,1.7c0,0,0,0,0,0v0.1c0,0.9-0.8,1.7-1.7,1.7h-0.4c-0.9,0-1.7-0.8-1.7-1.7
		v-0.1C43.6,302.8,44.4,302.1,45.3,302.1C45.3,302.1,45.3,302.1,45.3,302.1z"/>
	<path class="st9" d="M37.6,318.2v0.6c0,3.9,3.1,7,7,7h0h1.7c3.9,0,7-3.1,7-7v-0.6c0-3.9-3.1-7-7-7h-1.7
		C40.8,311.1,37.6,314.3,37.6,318.2L37.6,318.2z M45.7,316.7c0.9,0,1.7,0.8,1.7,1.7v0.1c0,0.9-0.8,1.7-1.7,1.7h-0.4
		c-0.9,0-1.7-0.8-1.7-1.7v-0.1c0-0.9,0.8-1.7,1.7-1.7c0,0,0,0,0,0H45.7z"/>
	<path class="st10" d="M45.3,316.7h0.4c0.9,0,1.7,0.8,1.7,1.7c0,0,0,0,0,0v0.1c0,0.9-0.8,1.7-1.7,1.7h-0.4c-0.9,0-1.7-0.8-1.7-1.7
		v-0.1C43.6,317.4,44.4,316.7,45.3,316.7C45.3,316.7,45.3,316.7,45.3,316.7z"/>
	<path class="st9" d="M53.4,332.8c0-3.9-3.1-7-7-7l0,0h-1.7c-3.9,0-7,3.1-7,7c0,0,0,0,0,0v0.6c0,3.9,3.1,7,7,7h0h1.7
		c3.9,0,7-3.1,7-7V332.8z M47.4,333.1c0,0.9-0.8,1.7-1.7,1.7h-0.4c-0.9,0-1.7-0.8-1.7-1.7V333c0-0.9,0.8-1.7,1.7-1.7c0,0,0,0,0,0
		h0.4c0.9,0,1.7,0.8,1.7,1.7L47.4,333.1z"/>
	<path class="st10" d="M45.3,331.3h0.4c0.9,0,1.7,0.8,1.7,1.7c0,0,0,0,0,0v0.1c0,0.9-0.8,1.7-1.7,1.7c0,0,0,0,0,0h-0.4
		c-0.9,0-1.7-0.8-1.7-1.7V333C43.6,332,44.4,331.3,45.3,331.3C45.3,331.3,45.3,331.3,45.3,331.3z"/>
	<path class="st9" d="M21.9,289.5v-0.6c0-3.9-3.1-7-7-7h-1.7c-3.9,0-7,3.1-7,7v0.6c0,3.9,3.1,7,7,7h1.7
		C18.7,296.5,21.9,293.4,21.9,289.5C21.9,289.5,21.9,289.5,21.9,289.5z M13.8,291c-0.9,0-1.7-0.8-1.7-1.7v-0.1
		c0-0.9,0.8-1.7,1.7-1.7h0.4c0.9,0,1.7,0.8,1.7,1.7v0.1c0,0.9-0.8,1.7-1.7,1.7H13.8z"/>
	<path class="st10" d="M13.8,287.5h0.4c0.9,0,1.7,0.8,1.7,1.7v0.1c0,0.9-0.8,1.7-1.7,1.7h-0.4c-0.9,0-1.7-0.8-1.7-1.7v-0.1
		C12.1,288.2,12.8,287.5,13.8,287.5z"/>
	<path class="st9" d="M21.9,304.1v-0.6c0-3.9-3.1-7-7-7c0,0,0,0,0,0h-1.7c-3.9,0-7,3.1-7,7v0.6c0,3.9,3.1,7,7,7h1.7
		C18.7,311.1,21.9,308,21.9,304.1z M13.8,305.6c-0.9,0-1.7-0.8-1.7-1.7v-0.1c0-0.9,0.8-1.7,1.7-1.7h0.4c0.9,0,1.7,0.8,1.7,1.7v0.1
		c0,0.9-0.8,1.7-1.7,1.7H13.8z"/>
	<path class="st10" d="M13.8,302.1h0.4c0.9,0,1.7,0.8,1.7,1.7v0.1c0,0.9-0.8,1.7-1.7,1.7h-0.4c-0.9,0-1.7-0.8-1.7-1.7v-0.1
		C12.1,302.8,12.8,302.1,13.8,302.1z"/>
	<path class="st9" d="M21.9,318.7v-0.6c0-3.9-3.1-7-7-7c0,0,0,0,0,0h-1.7c-3.9,0-7,3.1-7,7l0,0v0.6c0,3.9,3.1,7,7,7h1.7
		C18.7,325.7,21.9,322.6,21.9,318.7z M13.8,320.2c-0.9,0-1.7-0.8-1.7-1.7v-0.1c0-0.9,0.8-1.7,1.7-1.7h0.4c0.9,0,1.7,0.8,1.7,1.7
		c0,0,0,0,0,0v0.1c0,0.9-0.8,1.7-1.7,1.7H13.8z"/>
	<path class="st10" d="M13.8,316.7h0.4c0.9,0,1.7,0.8,1.7,1.7v0.1c0,0.9-0.8,1.7-1.7,1.7h-0.4c-0.9,0-1.7-0.8-1.7-1.7v-0.1
		C12.1,317.4,12.8,316.7,13.8,316.7z"/>
	<path class="st9" d="M14.8,325.7h-1.7c-3.9,0-7,3.1-7,7v0.6c0,3.9,3.1,7,7,7c0,0,0,0,0,0h1.7c3.9,0,7-3.1,7-7c0,0,0,0,0,0v-0.6
		C21.9,328.9,18.7,325.7,14.8,325.7C14.8,325.7,14.8,325.7,14.8,325.7z M15.9,333.1c0,0.9-0.8,1.7-1.7,1.7h-0.4
		c-0.9,0-1.7-0.8-1.7-1.7V333c0-0.9,0.8-1.7,1.7-1.7h0.4c0.9,0,1.7,0.8,1.7,1.7V333.1z"/>
	<path class="st10" d="M13.8,331.3h0.4c0.9,0,1.7,0.8,1.7,1.7v0.1c0,0.9-0.8,1.7-1.7,1.7h-0.4c-0.9,0-1.7-0.8-1.7-1.7V333
		C12.1,332,12.8,331.3,13.8,331.3L13.8,331.3L13.8,331.3z"/>
	<path class="st9" d="M277.9,116.7h-2.3c-3.6,0-6.5,2.9-6.5,6.5v0.5c0,3.6,2.9,6.5,6.5,6.5h2.3c3.6,0,6.5-2.9,6.5-6.5v-0.5
		C284.4,119.6,281.5,116.7,277.9,116.7z M278.6,123.6c0,0.9-0.7,1.6-1.6,1.6c0,0,0,0,0,0h-0.6c-0.9,0-1.6-0.7-1.6-1.6c0,0,0,0,0,0
		v-0.1c0-0.9,0.7-1.6,1.6-1.6c0,0,0,0,0,0h0.6c0.9,0,1.6,0.7,1.6,1.6c0,0,0,0,0,0V123.6z"/>
	<path class="st10" d="M276.5,121.9h0.6c0.9,0,1.6,0.7,1.6,1.6c0,0,0,0,0,0v0.1c0,0.9-0.7,1.6-1.6,1.6h-0.6c-0.9,0-1.6-0.7-1.6-1.6
		c0,0,0,0,0,0v-0.1C274.9,122.6,275.6,121.9,276.5,121.9z"/>
	<path class="st9" d="M293.2,116.7h-2.3c-3.6,0-6.5,2.9-6.5,6.5v0.5c0,3.6,2.9,6.5,6.5,6.5h2.3c3.6,0,6.5-2.9,6.5-6.5v-0.5
		C299.7,119.6,296.8,116.7,293.2,116.7z M293.9,123.6c0,0.9-0.7,1.6-1.6,1.6c0,0,0,0,0,0h-0.6c-0.9,0-1.6-0.7-1.6-1.6v-0.1
		c0-0.9,0.7-1.6,1.6-1.6h0.6c0.9,0,1.6,0.7,1.6,1.6c0,0,0,0,0,0V123.6z"/>
	<path class="st10" d="M291.8,121.9h0.6c0.9,0,1.6,0.7,1.6,1.6c0,0,0,0,0,0v0.1c0,0.9-0.7,1.6-1.6,1.6l0,0h-0.6
		c-0.9,0-1.6-0.7-1.6-1.6v-0.1C290.2,122.6,290.9,121.9,291.8,121.9L291.8,121.9z"/>
	<path class="st9" d="M262.6,116.7h-2.3c-3.6,0-6.5,2.9-6.5,6.5v0.5c0,3.6,2.9,6.5,6.5,6.5h2.3c3.6,0,6.5-2.9,6.5-6.5v-0.5
		C269.1,119.6,266.2,116.7,262.6,116.7z M263.3,123.6c0,0.9-0.7,1.6-1.6,1.6h-0.6c-0.9,0-1.6-0.7-1.6-1.6v-0.1
		c0-0.9,0.7-1.6,1.6-1.6h0.6c0.9,0,1.6,0.7,1.6,1.6V123.6z"/>
	<path class="st10" d="M261.2,121.9h0.6c0.9,0,1.6,0.7,1.6,1.6v0.1c0,0.9-0.7,1.6-1.6,1.6h-0.6c-0.9,0-1.6-0.7-1.6-1.6v-0.1
		C259.6,122.6,260.3,121.9,261.2,121.9z"/>
	<path class="st9" d="M275,144c0.2,0,0.4-0.1,0.6-0.1h2.3c0.2,0,0.4,0,0.6,0.1c3.3-0.3,5.9-3.1,5.9-6.4V137c0-3.6-2.9-6.5-6.5-6.5
		h-2.3c-3.6,0-6.5,2.9-6.5,6.5v0.5C269.1,140.9,271.6,143.7,275,144z M274.9,137.2c0-0.9,0.7-1.6,1.6-1.6c0,0,0,0,0,0h0.6
		c0.9,0,1.6,0.7,1.6,1.6c0,0,0,0,0,0v0.1c0,0.9-0.7,1.6-1.6,1.6c0,0,0,0,0,0h-0.6c-0.9,0-1.6-0.7-1.6-1.6c0,0,0,0,0,0V137.2z"/>
	<path class="st10" d="M276.5,135.6h0.6c0.9,0,1.6,0.7,1.6,1.6v0.1c0,0.9-0.7,1.6-1.6,1.6h-0.6c-0.9,0-1.6-0.7-1.6-1.6v-0.1
		C274.9,136.3,275.6,135.6,276.5,135.6z"/>
	<path class="st9" d="M293.2,130.5h-2.3c-3.6,0-6.5,2.9-6.5,6.5v0.5c0,3.3,2.6,6.1,5.9,6.4c0.2,0,0.4-0.1,0.6-0.1h2.3
		c0.2,0,0.4,0,0.6,0.1c3.3-0.3,5.9-3.1,5.9-6.4V137C299.7,133.4,296.8,130.5,293.2,130.5z M293.9,137.3c0,0.9-0.7,1.6-1.6,1.6
		c0,0,0,0,0,0h-0.6c-0.9,0-1.6-0.7-1.6-1.6c0,0,0,0,0,0v-0.1c0-0.9,0.7-1.6,1.6-1.6h0.6c0.9,0,1.6,0.7,1.6,1.6c0,0,0,0,0,0V137.3z"
		/>
	<path class="st10" d="M291.8,135.6h0.6c0.9,0,1.6,0.7,1.6,1.6c0,0,0,0,0,0v0.1c0,0.9-0.7,1.6-1.6,1.6l0,0h-0.6
		c-0.9,0-1.6-0.7-1.6-1.6v-0.1C290.2,136.3,290.9,135.6,291.8,135.6L291.8,135.6z"/>
	<path class="st9" d="M262.6,143.9c0.2,0,0.4,0,0.6,0.1c3.3-0.3,5.9-3.1,5.9-6.4V137c0-3.6-2.9-6.5-6.5-6.5h-2.3
		c-3.6,0-6.5,2.9-6.5,6.5v0.5c0,3.3,2.6,6.1,5.9,6.4c0.2,0,0.4-0.1,0.6-0.1H262.6z M259.6,137.3v-0.1c0-0.9,0.7-1.6,1.6-1.6h0.6
		c0.9,0,1.6,0.7,1.6,1.6v0.1c0,0.9-0.7,1.6-1.6,1.6h-0.6C260.3,138.9,259.6,138.2,259.6,137.3C259.6,137.3,259.6,137.3,259.6,137.3
		L259.6,137.3z"/>
	<path class="st10" d="M261.2,135.6h0.6c0.9,0,1.6,0.7,1.6,1.6v0.1c0,0.9-0.7,1.6-1.6,1.6h-0.6c-0.9,0-1.6-0.7-1.6-1.6v-0.1
		C259.6,136.3,260.3,135.6,261.2,135.6L261.2,135.6z"/>
	<path class="st9" d="M278.5,144c-0.2,0-0.4-0.1-0.6-0.1h-2.3c-0.2,0-0.4,0-0.6,0.1c-3.3,0.3-5.9,3.1-5.9,6.4v0.5
		c0,3.6,2.9,6.5,6.5,6.5h2.3c3.6,0,6.5-2.9,6.5-6.5v-0.5C284.4,147.1,281.9,144.3,278.5,144z M278.6,150.7c0,0.9-0.7,1.6-1.6,1.6
		c0,0,0,0,0,0h-0.6c-0.9,0-1.6-0.7-1.6-1.6c0,0,0,0,0,0v-0.1c0-0.9,0.7-1.6,1.6-1.6c0,0,0,0,0,0h0.6c0.9,0,1.6,0.7,1.6,1.6
		c0,0,0,0,0,0V150.7z"/>
	<path class="st10" d="M276.5,149h0.6c0.9,0,1.6,0.7,1.6,1.6c0,0,0,0,0,0v0.1c0,0.9-0.7,1.6-1.6,1.6h-0.6c-0.9,0-1.6-0.7-1.6-1.6
		c0,0,0,0,0,0v-0.1C274.9,149.7,275.6,149,276.5,149z"/>
	<path class="st9" d="M290.9,143.9c-0.2,0-0.4,0-0.6,0.1c-3.3,0.3-5.9,3.1-5.9,6.4v0.5c0,3.6,2.9,6.5,6.5,6.5h2.3
		c3.6,0,6.5-2.9,6.5-6.5v-0.5c0-3.3-2.6-6.1-5.9-6.4c-0.2,0-0.4-0.1-0.6-0.1H290.9z M293.9,150.7c0,0.9-0.7,1.6-1.6,1.6c0,0,0,0,0,0
		h-0.6c-0.9,0-1.6-0.7-1.6-1.6v-0.1c0-0.9,0.7-1.6,1.6-1.6h0.6c0.9,0,1.6,0.7,1.6,1.6c0,0,0,0,0,0V150.7z"/>
	<path class="st10" d="M291.8,149h0.6c0.9,0,1.6,0.7,1.6,1.6c0,0,0,0,0,0v0.1c0,0.9-0.7,1.6-1.6,1.6l0,0h-0.6
		c-0.9,0-1.6-0.7-1.6-1.6v-0.1C290.2,149.7,290.9,149,291.8,149L291.8,149z"/>
	<path class="st9" d="M269.1,150.9v-0.5c0-3.3-2.6-6.1-5.9-6.4c-0.2,0-0.4-0.1-0.6-0.1h-2.3c-0.2,0-0.4,0-0.6,0.1
		c-3.3,0.3-5.9,3.1-5.9,6.4v0.5c0,3.6,2.9,6.5,6.5,6.5h2.3C266.2,157.4,269.1,154.5,269.1,150.9z M261.2,152.3
		c-0.9,0-1.6-0.7-1.6-1.6v-0.1c0-0.9,0.7-1.6,1.6-1.6h0.6c0.9,0,1.6,0.7,1.6,1.6v0.1c0,0.9-0.7,1.6-1.6,1.6H261.2z"/>
	<path class="st10" d="M261.2,149h0.6c0.9,0,1.6,0.7,1.6,1.6v0.1c0,0.9-0.7,1.6-1.6,1.6h-0.6c-0.9,0-1.6-0.7-1.6-1.6v-0.1
		C259.6,149.7,260.3,149,261.2,149L261.2,149z"/>
	<path class="st9" d="M277.9,157.4h-2.3c-3.6,0-6.5,2.9-6.5,6.5v0.5c0,3.6,2.9,6.5,6.5,6.5h2.3c3.6,0,6.5-2.9,6.5-6.5v-0.5
		C284.4,160.4,281.5,157.4,277.9,157.4z M278.6,164.3c0,0.9-0.7,1.6-1.6,1.6c0,0,0,0,0,0h-0.6c-0.9,0-1.6-0.7-1.6-1.6c0,0,0,0,0,0
		v-0.1c0-0.9,0.7-1.6,1.6-1.6c0,0,0,0,0,0h0.6c0.9,0,1.6,0.7,1.6,1.6c0,0,0,0,0,0V164.3z"/>
	<path class="st10" d="M276.5,162.6h0.6c0.9,0,1.6,0.7,1.6,1.6v0.1c0,0.9-0.7,1.6-1.6,1.6h-0.6c-0.9,0-1.6-0.7-1.6-1.6v-0.1
		C274.9,163.3,275.6,162.6,276.5,162.6z"/>
	<path class="st9" d="M284.4,163.9v0.5c0,3.6,2.9,6.5,6.5,6.5h2.3c3.6,0,6.5-2.9,6.5-6.5v-0.5c0-3.6-2.9-6.5-6.5-6.5h-2.3
		C287.3,157.4,284.4,160.4,284.4,163.9z M292.3,162.6c0.9,0,1.6,0.7,1.6,1.6c0,0,0,0,0,0v0.1c0,0.9-0.7,1.6-1.6,1.6l0,0h-0.6
		c-0.9,0-1.6-0.7-1.6-1.6v-0.1c0-0.9,0.7-1.6,1.6-1.6H292.3z"/>
	<path class="st10" d="M291.8,162.6h0.6c0.9,0,1.6,0.7,1.6,1.6c0,0,0,0,0,0v0.1c0,0.9-0.7,1.6-1.6,1.6h-0.6c-0.9,0-1.6-0.7-1.6-1.6
		v-0.1C290.2,163.3,290.9,162.6,291.8,162.6L291.8,162.6L291.8,162.6z"/>
	<path class="st9" d="M269.1,164.5v-0.5c0-3.6-2.9-6.5-6.5-6.5h-2.3c-3.6,0-6.5,2.9-6.5,6.5v0.5c0,3.6,2.9,6.5,6.5,6.5h2.3
		C266.2,171,269.1,168.1,269.1,164.5z M261.2,165.8c-0.9,0-1.6-0.7-1.6-1.6v-0.1c0-0.9,0.7-1.6,1.6-1.6h0.6c0.9,0,1.6,0.7,1.6,1.6
		v0.1c0,0.9-0.7,1.6-1.6,1.6H261.2z"/>
	<path class="st10" d="M261.2,162.6h0.6c0.9,0,1.6,0.7,1.6,1.6v0.1c0,0.9-0.7,1.6-1.6,1.6h-0.6c-0.9,0-1.6-0.7-1.6-1.6v-0.1
		C259.6,163.3,260.3,162.6,261.2,162.6z"/>
	<path class="st9" d="M277.9,171h-2.3c-3.6,0-6.5,2.9-6.5,6.5v0.5c0,3.6,2.9,6.5,6.5,6.5h2.3c3.6,0,6.5-2.9,6.5-6.5v-0.5
		C284.4,173.9,281.5,171,277.9,171z M278.6,177.8c0,0.9-0.7,1.6-1.6,1.6c0,0,0,0,0,0h-0.6c-0.9,0-1.6-0.7-1.6-1.6c0,0,0,0,0,0v-0.1
		c0-0.9,0.7-1.6,1.6-1.6c0,0,0,0,0,0h0.6c0.9,0,1.6,0.7,1.6,1.6c0,0,0,0,0,0V177.8z"/>
	<path class="st10" d="M276.5,176.1h0.6c0.9,0,1.6,0.7,1.6,1.6c0,0,0,0,0,0v0.1c0,0.9-0.7,1.6-1.6,1.6l0,0h-0.6
		c-0.9,0-1.6-0.7-1.6-1.6c0,0,0,0,0,0v-0.1C274.9,176.8,275.6,176.1,276.5,176.1C276.5,176.1,276.5,176.1,276.5,176.1z"/>
	<path class="st9" d="M284.4,177.5v0.5c0,3.6,2.9,6.5,6.5,6.5h2.3c3.6,0,6.5-2.9,6.5-6.5v-0.5c0-3.6-2.9-6.5-6.5-6.5h-2.3
		C287.3,171,284.4,173.9,284.4,177.5z M292.3,176.1c0.9,0,1.6,0.7,1.6,1.6c0,0,0,0,0,0v0.1c0,0.9-0.7,1.6-1.6,1.6c0,0,0,0,0,0h-0.6
		c-0.9,0-1.6-0.7-1.6-1.6v-0.1c0-0.9,0.7-1.6,1.6-1.6H292.3z"/>
	<path class="st10" d="M291.8,176.1h0.6c0.9,0,1.6,0.7,1.6,1.6c0,0,0,0,0,0v0.1c0,0.9-0.7,1.6-1.6,1.6h-0.6c-0.9,0-1.6-0.7-1.6-1.6
		v-0.1C290.2,176.8,290.9,176.1,291.8,176.1z"/>
	<path class="st9" d="M269.1,178v-0.5c0-3.6-2.9-6.5-6.5-6.5h-2.3c-3.6,0-6.5,2.9-6.5,6.5v0.5c0,3.6,2.9,6.5,6.5,6.5h2.3
		C266.2,184.5,269.1,181.6,269.1,178z M261.2,179.4c-0.9,0-1.6-0.7-1.6-1.6v-0.1c0-0.9,0.7-1.6,1.6-1.6h0.6c0.9,0,1.6,0.7,1.6,1.6
		v0.1c0,0.9-0.7,1.6-1.6,1.6H261.2z"/>
	<path class="st10" d="M261.2,176.1h0.6c0.9,0,1.6,0.7,1.6,1.6v0.1c0,0.9-0.7,1.6-1.6,1.6h-0.6c-0.9,0-1.6-0.7-1.6-1.6v-0.1
		C259.6,176.8,260.3,176.1,261.2,176.1z"/>
	<path class="st9" d="M277.9,184.5h-2.3c-3.6,0-6.5,2.9-6.5,6.5v0.5c0,3.6,2.9,6.5,6.5,6.5h2.3c3.6,0,6.5-2.9,6.5-6.5V191
		C284.4,187.4,281.5,184.5,277.9,184.5z M278.6,191.3c0,0.9-0.7,1.6-1.6,1.6c0,0,0,0,0,0h-0.6c-0.9,0-1.6-0.7-1.6-1.6c0,0,0,0,0,0
		v-0.1c0-0.9,0.7-1.6,1.6-1.6c0,0,0,0,0,0h0.6c0.9,0,1.6,0.7,1.6,1.6c0,0,0,0,0,0V191.3z"/>
	<path class="st10" d="M276.5,189.6h0.6c0.9,0,1.6,0.7,1.6,1.6v0.1c0,0.9-0.7,1.6-1.6,1.6h-0.6c-0.9,0-1.6-0.7-1.6-1.6v-0.1
		C274.9,190.3,275.6,189.6,276.5,189.6z"/>
	<path class="st9" d="M284.4,191v0.5c0,3.6,2.9,6.5,6.5,6.5h2.3c3.6,0,6.5-2.9,6.5-6.5V191c0-3.6-2.9-6.5-6.5-6.5h-2.3
		C287.3,184.5,284.4,187.4,284.4,191z M292.3,189.6c0.9,0,1.6,0.7,1.6,1.6c0,0,0,0,0,0v0.1c0,0.9-0.7,1.6-1.6,1.6l0,0h-0.6
		c-0.9,0-1.6-0.7-1.6-1.6v-0.1c0-0.9,0.7-1.6,1.6-1.6H292.3z"/>
	<path class="st10" d="M291.8,189.6h0.6c0.9,0,1.6,0.7,1.6,1.6c0,0,0,0,0,0v0.1c0,0.9-0.7,1.6-1.6,1.6h-0.6c-0.9,0-1.6-0.7-1.6-1.6
		v-0.1C290.2,190.3,290.9,189.6,291.8,189.6z"/>
	<path class="st9" d="M262.6,184.5h-2.3c-3.6,0-6.5,2.9-6.5,6.5v0.5c0,3.6,2.9,6.5,6.5,6.5h2.3c3.6,0,6.5-2.9,6.5-6.5V191
		C269.1,187.4,266.2,184.5,262.6,184.5z M263.3,191.3c0,0.9-0.7,1.6-1.6,1.6h-0.6c-0.9,0-1.6-0.7-1.6-1.6v-0.1
		c0-0.9,0.7-1.6,1.6-1.6h0.6c0.9,0,1.6,0.7,1.6,1.6V191.3z"/>
	<path class="st10" d="M261.2,189.6h0.6c0.9,0,1.6,0.7,1.6,1.6v0.1c0,0.9-0.7,1.6-1.6,1.6h-0.6c-0.9,0-1.6-0.7-1.6-1.6v-0.1
		C259.6,190.3,260.3,189.6,261.2,189.6z"/>
	<path class="st9" d="M275.6,211.9h2.3c3.6,0,6.5-2.9,6.5-6.5v-0.5c0-3.6-2.9-6.5-6.5-6.5h-2.3c-3.6,0-6.5,2.9-6.5,6.5v0.5
		C269.1,209,272,211.9,275.6,211.9z M274.9,205.1c0-0.9,0.7-1.6,1.6-1.6c0,0,0,0,0,0h0.6c0.9,0,1.6,0.7,1.6,1.6c0,0,0,0,0,0v0.1
		c0,0.9-0.7,1.6-1.6,1.6c0,0,0,0,0,0h-0.6c-0.9,0-1.6-0.7-1.6-1.6c0,0,0,0,0,0V205.1z"/>
	<path class="st10" d="M276.5,203.5h0.6c0.9,0,1.6,0.7,1.6,1.6c0,0,0,0,0,0v0.1c0,0.9-0.7,1.6-1.6,1.6h-0.6c-0.9,0-1.6-0.7-1.6-1.6
		c0,0,0,0,0,0v-0.1C274.9,204.2,275.6,203.5,276.5,203.5z"/>
	<path class="st9" d="M293.2,198.4h-2.3c-3.6,0-6.5,2.9-6.5,6.5v0.5c0,3.6,2.9,6.5,6.5,6.5h2.3c3.6,0,6.5-2.9,6.5-6.5v-0.5
		C299.7,201.3,296.8,198.4,293.2,198.4C293.2,198.4,293.2,198.4,293.2,198.4z M293.9,205.2c0,0.9-0.7,1.6-1.6,1.6c0,0,0,0,0,0h-0.6
		c-0.9,0-1.6-0.7-1.6-1.6v-0.1c0-0.9,0.7-1.6,1.6-1.6h0.6c0.9,0,1.6,0.7,1.6,1.6c0,0,0,0,0,0V205.2z"/>
	<path class="st10" d="M291.8,203.5h0.6c0.9,0,1.6,0.7,1.6,1.6c0,0,0,0,0,0v0.1c0,0.9-0.7,1.6-1.6,1.6l0,0h-0.6
		c-0.9,0-1.6-0.7-1.6-1.6v-0.1C290.2,204.2,290.9,203.5,291.8,203.5L291.8,203.5z"/>
	<path class="st9" d="M269.1,205.4v-0.5c0-3.6-2.9-6.5-6.5-6.5h-2.3c-3.6,0-6.5,2.9-6.5,6.5v0.5c0,3.6,2.9,6.5,6.5,6.5h2.3
		C266.2,211.9,269.1,209,269.1,205.4C269.1,205.4,269.1,205.4,269.1,205.4z M261.2,206.8c-0.9,0-1.6-0.7-1.6-1.6v-0.1
		c0-0.9,0.7-1.6,1.6-1.6h0.6c0.9,0,1.6,0.7,1.6,1.6v0.1c0,0.9-0.7,1.6-1.6,1.6H261.2z"/>
	<path class="st10" d="M261.2,203.5h0.6c0.9,0,1.6,0.7,1.6,1.6v0.1c0,0.9-0.7,1.6-1.6,1.6h-0.6c-0.9,0-1.6-0.7-1.6-1.6v-0.1
		C259.6,204.2,260.3,203.5,261.2,203.5z"/>
	<path class="st9" d="M277.9,211.9h-2.3c-3.6,0-6.5,2.9-6.5,6.5v0.5c0,3.6,2.9,6.5,6.5,6.5h2.3c3.6,0,6.5-2.9,6.5-6.5v-0.5
		C284.4,214.8,281.5,211.9,277.9,211.9z M278.6,218.7c0,0.9-0.7,1.6-1.6,1.6c0,0,0,0,0,0h-0.6c-0.9,0-1.6-0.7-1.6-1.6c0,0,0,0,0,0
		v-0.1c0-0.9,0.7-1.6,1.6-1.6c0,0,0,0,0,0h0.6c0.9,0,1.6,0.7,1.6,1.6c0,0,0,0,0,0V218.7z"/>
	<path class="st10" d="M276.5,217h0.6c0.9,0,1.6,0.7,1.6,1.6c0,0,0,0,0,0v0.1c0,0.9-0.7,1.6-1.6,1.6h-0.6c-0.9,0-1.6-0.7-1.6-1.6
		v-0.1C274.9,217.7,275.6,217,276.5,217C276.5,217,276.5,217,276.5,217z"/>
	<path class="st9" d="M284.4,218.4v0.5c0,3.6,2.9,6.5,6.5,6.5h2.3c3.6,0,6.5-2.9,6.5-6.5v-0.5c0-3.6-2.9-6.5-6.5-6.5h-2.3
		C287.3,211.9,284.4,214.8,284.4,218.4z M292.3,217c0.9,0,1.6,0.7,1.6,1.6c0,0,0,0,0,0v0.1c0,0.9-0.7,1.6-1.6,1.6c0,0,0,0,0,0h-0.6
		c-0.9,0-1.6-0.7-1.6-1.6c0,0,0,0,0,0v-0.1c0-0.9,0.7-1.6,1.6-1.6l0,0L292.3,217z"/>
	<path class="st10" d="M291.8,217h0.6c0.9,0,1.6,0.7,1.6,1.6c0,0,0,0,0,0v0.1c0,0.9-0.7,1.6-1.6,1.6h-0.6c-0.9,0-1.6-0.7-1.6-1.6
		c0,0,0,0,0,0v-0.1C290.2,217.7,290.9,217,291.8,217L291.8,217L291.8,217z"/>
	<path class="st9" d="M269.1,218.9v-0.5c0-3.6-2.9-6.5-6.5-6.5h-2.3c-3.6,0-6.5,2.9-6.5,6.5v0.5c0,3.6,2.9,6.5,6.5,6.5h2.3
		C266.2,225.4,269.1,222.5,269.1,218.9z M261.2,220.3c-0.9,0-1.6-0.7-1.6-1.6v-0.1c0-0.9,0.7-1.6,1.6-1.6c0,0,0,0,0,0h0.6
		c0.9,0,1.6,0.7,1.6,1.6v0.1c0,0.9-0.7,1.6-1.6,1.6L261.2,220.3z"/>
	<path class="st10" d="M261.2,217h0.6c0.9,0,1.6,0.7,1.6,1.6v0.1c0,0.9-0.7,1.6-1.6,1.6h-0.6c-0.9,0-1.6-0.7-1.6-1.6v-0.1
		C259.6,217.7,260.3,217,261.2,217C261.2,217,261.2,217,261.2,217z"/>
	<path class="st9" d="M277.9,225.4h-2.3c-3.6,0-6.5,2.9-6.5,6.5v0.5c0,3.6,2.9,6.5,6.5,6.5h2.3c3.6,0,6.5-2.9,6.5-6.5v-0.5
		C284.4,228.3,281.5,225.4,277.9,225.4C277.9,225.4,277.9,225.4,277.9,225.4z M278.6,232.3c0,0.9-0.7,1.6-1.6,1.6c0,0,0,0,0,0h-0.6
		c-0.9,0-1.6-0.7-1.6-1.6c0,0,0,0,0,0v-0.1c0-0.9,0.7-1.6,1.6-1.6c0,0,0,0,0,0h0.6c0.9,0,1.6,0.7,1.6,1.6c0,0,0,0,0,0V232.3z"/>
	<path class="st10" d="M276.5,230.6h0.6c0.9,0,1.6,0.7,1.6,1.6c0,0,0,0,0,0v0.1c0,0.9-0.7,1.6-1.6,1.6l0,0h-0.6
		c-0.9,0-1.6-0.7-1.6-1.6c0,0,0,0,0,0v-0.1C274.9,231.3,275.6,230.6,276.5,230.6L276.5,230.6z"/>
	<path class="st9" d="M284.4,231.9v0.5c0,3.6,2.9,6.5,6.5,6.5h2.3c3.6,0,6.5-2.9,6.5-6.5v-0.5c0-3.6-2.9-6.5-6.5-6.5h-2.3
		C287.3,225.4,284.4,228.3,284.4,231.9z M292.3,230.6c0.9,0,1.6,0.7,1.6,1.6c0,0,0,0,0,0v0.1c0,0.9-0.7,1.6-1.6,1.6c0,0,0,0,0,0
		h-0.6c-0.9,0-1.6-0.7-1.6-1.6v-0.1c0-0.9,0.7-1.6,1.6-1.6H292.3z"/>
	<path class="st10" d="M291.8,230.6h0.6c0.9,0,1.6,0.7,1.6,1.6c0,0,0,0,0,0v0.1c0,0.9-0.7,1.6-1.6,1.6h-0.6c-0.9,0-1.6-0.7-1.6-1.6
		v-0.1C290.2,231.3,290.9,230.6,291.8,230.6L291.8,230.6L291.8,230.6z"/>
	<path class="st9" d="M269.1,232.5v-0.5c0-3.6-2.9-6.5-6.5-6.5h-2.3c-3.6,0-6.5,2.9-6.5,6.5v0.5c0,3.6,2.9,6.5,6.5,6.5h2.3
		C266.2,239,269.1,236.1,269.1,232.5C269.1,232.5,269.1,232.5,269.1,232.5z M261.2,233.8c-0.9,0-1.6-0.7-1.6-1.6v-0.1
		c0-0.9,0.7-1.6,1.6-1.6h0.6c0.9,0,1.6,0.7,1.6,1.6v0.1c0,0.9-0.7,1.6-1.6,1.6H261.2z"/>
	<path class="st10" d="M261.2,230.6h0.6c0.9,0,1.6,0.7,1.6,1.6v0.1c0,0.9-0.7,1.6-1.6,1.6h-0.6c-0.9,0-1.6-0.7-1.6-1.6v-0.1
		C259.6,231.3,260.3,230.6,261.2,230.6z"/>
	<path class="st9" d="M277.9,239h-2.3c-3.6,0-6.5,2.9-6.5,6.5v0.5c0,3.6,2.9,6.5,6.5,6.5h2.3c3.6,0,6.5-2.9,6.5-6.5v-0.5
		C284.4,241.9,281.5,239,277.9,239z M278.6,245.8c0,0.9-0.7,1.6-1.6,1.6c0,0,0,0,0,0h-0.6c-0.9,0-1.6-0.7-1.6-1.6c0,0,0,0,0,0v-0.1
		c0-0.9,0.7-1.6,1.6-1.6c0,0,0,0,0,0h0.6c0.9,0,1.6,0.7,1.6,1.6c0,0,0,0,0,0V245.8z"/>
	<path class="st10" d="M276.5,244.1h0.6c0.9,0,1.6,0.7,1.6,1.6c0,0,0,0,0,0v0.1c0,0.9-0.7,1.6-1.6,1.6h-0.6c-0.9,0-1.6-0.7-1.6-1.6
		v-0.1C274.9,244.8,275.6,244.1,276.5,244.1L276.5,244.1L276.5,244.1z"/>
	<path class="st9" d="M284.4,245.5v0.5c0,3.6,2.9,6.5,6.5,6.5h2.3c3.6,0,6.5-2.9,6.5-6.5v-0.5c0-3.6-2.9-6.5-6.5-6.5h-2.3
		C287.3,239,284.4,241.9,284.4,245.5z M292.3,244.1c0.9,0,1.6,0.7,1.6,1.6c0,0,0,0,0,0v0.1c0,0.9-0.7,1.6-1.6,1.6c0,0,0,0,0,0h-0.6
		c-0.9,0-1.6-0.7-1.6-1.6c0,0,0,0,0,0v-0.1c0-0.9,0.7-1.6,1.6-1.6l0,0H292.3z"/>
	<path class="st10" d="M291.8,244.1h0.6c0.9,0,1.6,0.7,1.6,1.6c0,0,0,0,0,0v0.1c0,0.9-0.7,1.6-1.6,1.6h-0.6c-0.9,0-1.6-0.7-1.6-1.6
		c0,0,0,0,0,0v-0.1C290.2,244.8,290.9,244.1,291.8,244.1z"/>
	<path class="st9" d="M262.6,239h-2.3c-3.6,0-6.5,2.9-6.5,6.5v0.5c0,3.6,2.9,6.5,6.5,6.5h2.3c3.6,0,6.5-2.9,6.5-6.5v-0.5
		C269.1,241.9,266.2,239,262.6,239z M263.3,245.8c0,0.9-0.7,1.6-1.6,1.6h-0.6c-0.9,0-1.6-0.7-1.6-1.6c0,0,0,0,0,0v-0.1
		c0-0.9,0.7-1.6,1.6-1.6c0,0,0,0,0,0h0.6c0.9,0,1.6,0.7,1.6,1.6V245.8z"/>
	<path class="st10" d="M261.2,244.1h0.6c0.9,0,1.6,0.7,1.6,1.6v0.1c0,0.9-0.7,1.6-1.6,1.6h-0.6c-0.9,0-1.6-0.7-1.6-1.6v-0.1
		C259.6,244.8,260.3,244.1,261.2,244.1L261.2,244.1z"/>
	<path class="st9" d="M275.6,273.7h2.3c3.6,0,6.5-2.9,6.5-6.5v-0.5c0-3.6-2.9-6.5-6.5-6.5h-2.3c-3.6,0-6.5,2.9-6.5,6.5v0.5
		C269.1,270.8,272,273.7,275.6,273.7z M274.9,266.9c0-0.9,0.7-1.6,1.6-1.6c0,0,0,0,0,0h0.6c0.9,0,1.6,0.7,1.6,1.6c0,0,0,0,0,0v0.1
		c0,0.9-0.7,1.6-1.6,1.6c0,0,0,0,0,0h-0.6c-0.9,0-1.6-0.7-1.6-1.6c0,0,0,0,0,0V266.9z"/>
	<path class="st10" d="M276.5,265.3h0.6c0.9,0,1.6,0.7,1.6,1.6c0,0,0,0,0,0v0.1c0,0.9-0.7,1.6-1.6,1.6h-0.6c-0.9,0-1.6-0.7-1.6-1.6
		c0,0,0,0,0,0v-0.1C274.9,266,275.6,265.3,276.5,265.3z"/>
	<path class="st9" d="M293.2,260.2h-2.3c-3.6,0-6.5,2.9-6.5,6.5v0.5c0,3.6,2.9,6.5,6.5,6.5h2.3c3.6,0,6.5-2.9,6.5-6.5v-0.5
		C299.7,263.1,296.8,260.2,293.2,260.2z M293.9,267c0,0.9-0.7,1.6-1.6,1.6l0,0h-0.6c-0.9,0-1.6-0.7-1.6-1.6v-0.1
		c0-0.9,0.7-1.6,1.6-1.6h0.6c0.9,0,1.6,0.7,1.6,1.6c0,0,0,0,0,0V267z"/>
	<path class="st10" d="M291.8,265.3h0.6c0.9,0,1.6,0.7,1.6,1.6c0,0,0,0,0,0v0.1c0,0.9-0.7,1.6-1.6,1.6l0,0h-0.6
		c-0.9,0-1.6-0.7-1.6-1.6c0,0,0,0,0,0v-0.1C290.2,266,290.9,265.3,291.8,265.3L291.8,265.3z"/>
	<path class="st9" d="M269.1,267.2v-0.5c0-3.6-2.9-6.5-6.5-6.5h-2.3c-3.6,0-6.5,2.9-6.5,6.5v0.5c0,3.6,2.9,6.5,6.5,6.5h2.3
		C266.2,273.7,269.1,270.8,269.1,267.2C269.1,267.2,269.1,267.2,269.1,267.2z M261.2,268.6c-0.9,0-1.6-0.7-1.6-1.6v-0.1
		c0-0.9,0.7-1.6,1.6-1.6h0.6c0.9,0,1.6,0.7,1.6,1.6v0.1c0,0.9-0.7,1.6-1.6,1.6H261.2z"/>
	<path class="st10" d="M261.2,265.3h0.6c0.9,0,1.6,0.7,1.6,1.6v0.1c0,0.9-0.7,1.6-1.6,1.6h-0.6c-0.9,0-1.6-0.7-1.6-1.6v-0.1
		C259.6,266,260.3,265.3,261.2,265.3z"/>
	<path class="st9" d="M277.9,273.7h-2.3c-3.6,0-6.5,2.9-6.5,6.5v0.5c0,3.6,2.9,6.5,6.5,6.5h2.3c3.6,0,6.5-2.9,6.5-6.5v-0.5
		C284.4,276.6,281.5,273.7,277.9,273.7z M278.6,280.5c0,0.9-0.7,1.6-1.6,1.6c0,0,0,0,0,0h-0.6c-0.9,0-1.6-0.7-1.6-1.6c0,0,0,0,0,0
		v-0.1c0-0.9,0.7-1.6,1.6-1.6c0,0,0,0,0,0h0.6c0.9,0,1.6,0.7,1.6,1.6c0,0,0,0,0,0V280.5z"/>
	<path class="st10" d="M276.5,278.8h0.6c0.9,0,1.6,0.7,1.6,1.6c0,0,0,0,0,0v0.1c0,0.9-0.7,1.6-1.6,1.6h-0.6c-0.9,0-1.6-0.7-1.6-1.6
		c0,0,0,0,0,0v-0.1C274.9,279.6,275.6,278.8,276.5,278.8z"/>
	<path class="st9" d="M284.4,280.2v0.5c0,3.6,2.9,6.5,6.5,6.5h2.3c3.6,0,6.5-2.9,6.5-6.5v-0.5c0-3.6-2.9-6.5-6.5-6.5h-2.3
		C287.3,273.7,284.4,276.6,284.4,280.2z M292.3,278.8c0.9,0,1.6,0.7,1.6,1.6c0,0,0,0,0,0v0.1c0,0.9-0.7,1.6-1.6,1.6c0,0,0,0,0,0
		h-0.6c-0.9,0-1.6-0.7-1.6-1.6v-0.1c0-0.9,0.7-1.6,1.6-1.6l0,0H292.3z"/>
	<path class="st10" d="M291.8,278.8h0.6c0.9,0,1.6,0.7,1.6,1.6c0,0,0,0,0,0v0.1c0,0.9-0.7,1.6-1.6,1.6h-0.6c-0.9,0-1.6-0.7-1.6-1.6
		v-0.1C290.2,279.6,290.9,278.8,291.8,278.8z"/>
	<path class="st9" d="M269.1,280.7v-0.5c0-3.6-2.9-6.5-6.5-6.5h-2.3c-3.6,0-6.5,2.9-6.5,6.5v0.5c0,3.6,2.9,6.5,6.5,6.5h2.3
		C266.2,287.2,269.1,284.3,269.1,280.7z M261.2,282.1c-0.9,0-1.6-0.7-1.6-1.6v-0.1c0-0.9,0.7-1.6,1.6-1.6c0,0,0,0,0,0h0.6
		c0.9,0,1.6,0.7,1.6,1.6v0.1c0,0.9-0.7,1.6-1.6,1.6H261.2z"/>
	<path class="st10" d="M261.2,278.8h0.6c0.9,0,1.6,0.7,1.6,1.6v0.1c0,0.9-0.7,1.6-1.6,1.6h-0.6c-0.9,0-1.6-0.7-1.6-1.6v-0.1
		C259.6,279.6,260.3,278.8,261.2,278.8z"/>
	<path class="st9" d="M277.9,287.2h-2.3c-3.6,0-6.5,2.9-6.5,6.5v0.5c0,3.6,2.9,6.5,6.5,6.5h2.3c3.6,0,6.5-2.9,6.5-6.5v-0.5
		C284.4,290.2,281.5,287.2,277.9,287.2z M278.6,294.1c0,0.9-0.7,1.6-1.6,1.6c0,0,0,0,0,0h-0.6c-0.9,0-1.6-0.7-1.6-1.6c0,0,0,0,0,0
		V294c0-0.9,0.7-1.6,1.6-1.6c0,0,0,0,0,0h0.6c0.9,0,1.6,0.7,1.6,1.6c0,0,0,0,0,0V294.1z"/>
	<path class="st10" d="M276.5,292.4h0.6c0.9,0,1.6,0.7,1.6,1.6v0.1c0,0.9-0.7,1.6-1.6,1.6h-0.6c-0.9,0-1.6-0.7-1.6-1.6V294
		C274.9,293.1,275.6,292.4,276.5,292.4z"/>
	<path class="st9" d="M284.4,293.8v0.5c0,3.6,2.9,6.5,6.5,6.5h2.3c3.6,0,6.5-2.9,6.5-6.5v-0.5c0-3.6-2.9-6.5-6.5-6.5h-2.3
		C287.3,287.2,284.4,290.2,284.4,293.8z M292.3,292.4c0.9,0,1.6,0.7,1.6,1.6c0,0,0,0,0,0v0.1c0,0.9-0.7,1.6-1.6,1.6l0,0h-0.6
		c-0.9,0-1.6-0.7-1.6-1.6V294c0-0.9,0.7-1.6,1.6-1.6H292.3z"/>
	<path class="st10" d="M291.8,292.4h0.6c0.9,0,1.6,0.7,1.6,1.6c0,0,0,0,0,0v0.1c0,0.9-0.7,1.6-1.6,1.6h-0.6c-0.9,0-1.6-0.7-1.6-1.6
		V294C290.2,293.1,290.9,292.4,291.8,292.4z"/>
	<path class="st9" d="M269.1,294.3v-0.5c0-3.6-2.9-6.5-6.5-6.5h-2.3c-3.6,0-6.5,2.9-6.5,6.5v0.5c0,3.6,2.9,6.5,6.5,6.5h2.3
		C266.2,300.8,269.1,297.9,269.1,294.3C269.1,294.3,269.1,294.3,269.1,294.3z M261.2,295.7c-0.9,0-1.6-0.7-1.6-1.6V294
		c0-0.9,0.7-1.6,1.6-1.6h0.6c0.9,0,1.6,0.7,1.6,1.6v0.1c0,0.9-0.7,1.6-1.6,1.6H261.2z"/>
	<path class="st10" d="M261.2,292.4h0.6c0.9,0,1.6,0.7,1.6,1.6v0.1c0,0.9-0.7,1.6-1.6,1.6h-0.6c-0.9,0-1.6-0.7-1.6-1.6V294
		C259.6,293.1,260.3,292.4,261.2,292.4L261.2,292.4z"/>
	<path class="st9" d="M277.9,300.8h-2.3c-3.6,0-6.5,2.9-6.5,6.5v0.5c0,3.6,2.9,6.5,6.5,6.5h2.3c3.6,0,6.5-2.9,6.5-6.5v-0.5
		C284.4,303.7,281.5,300.8,277.9,300.8z M278.6,307.6c0,0.9-0.7,1.6-1.6,1.6c0,0,0,0,0,0h-0.6c-0.9,0-1.6-0.7-1.6-1.6c0,0,0,0,0,0
		v-0.1c0-0.9,0.7-1.6,1.6-1.6c0,0,0,0,0,0h0.6c0.9,0,1.6,0.7,1.6,1.6c0,0,0,0,0,0V307.6z"/>
	<path class="st10" d="M276.5,305.9h0.6c0.9,0,1.6,0.7,1.6,1.6c0,0,0,0,0,0v0.1c0,0.9-0.7,1.6-1.6,1.6l0,0h-0.6
		c-0.9,0-1.6-0.7-1.6-1.6v-0.1C274.9,306.6,275.6,305.9,276.5,305.9L276.5,305.9z"/>
	<path class="st9" d="M284.4,307.3v0.5c0,3.6,2.9,6.5,6.5,6.5h2.3c3.6,0,6.5-2.9,6.5-6.5v-0.5c0-3.6-2.9-6.5-6.5-6.5h-2.3
		C287.3,300.8,284.4,303.7,284.4,307.3z M292.3,305.9c0.9,0,1.6,0.7,1.6,1.6c0,0,0,0,0,0v0.1c0,0.9-0.7,1.6-1.6,1.6c0,0,0,0,0,0
		h-0.6c-0.9,0-1.6-0.7-1.6-1.6v-0.1c0-0.9,0.7-1.6,1.6-1.6H292.3z"/>
	<path class="st10" d="M291.8,305.9h0.6c0.9,0,1.6,0.7,1.6,1.6c0,0,0,0,0,0v0.1c0,0.9-0.7,1.6-1.6,1.6h-0.6c-0.9,0-1.6-0.7-1.6-1.6
		v-0.1C290.2,306.6,290.9,305.9,291.8,305.9z"/>
	<path class="st9" d="M262.6,300.8h-2.3c-3.6,0-6.5,2.9-6.5,6.5v0.5c0,3.6,2.9,6.5,6.5,6.5h2.3c3.6,0,6.5-2.9,6.5-6.5v-0.5
		C269.1,303.7,266.2,300.8,262.6,300.8z M263.3,307.6c0,0.9-0.7,1.6-1.6,1.6h-0.6c-0.9,0-1.6-0.7-1.6-1.6v-0.1
		c0-0.9,0.7-1.6,1.6-1.6h0.6c0.9,0,1.6,0.7,1.6,1.6V307.6z"/>
	<path class="st10" d="M261.2,305.9h0.6c0.9,0,1.6,0.7,1.6,1.6v0.1c0,0.9-0.7,1.6-1.6,1.6h-0.6c-0.9,0-1.6-0.7-1.6-1.6v-0.1
		C259.6,306.6,260.3,305.9,261.2,305.9z"/>
	<path class="st9" d="M277.9,320.9h-2.3c-3.6,0-6.5,2.9-6.5,6.5v0.5c0,3.6,2.9,6.5,6.5,6.5h2.3c3.6,0,6.5-2.9,6.5-6.5v-0.5
		C284.4,323.8,281.5,320.9,277.9,320.9z M278.6,327.8c0,0.9-0.7,1.6-1.6,1.6c0,0,0,0,0,0h-0.6c-0.9,0-1.6-0.7-1.6-1.6c0,0,0,0,0,0
		v-0.1c0-0.9,0.7-1.6,1.6-1.6c0,0,0,0,0,0h0.6c0.9,0,1.6,0.7,1.6,1.6c0,0,0,0,0,0V327.8z"/>
	<path class="st10" d="M276.5,326.1h0.6c0.9,0,1.6,0.7,1.6,1.6c0,0,0,0,0,0v0.1c0,0.9-0.7,1.6-1.6,1.6h-0.6c-0.9,0-1.6-0.7-1.6-1.6
		c0,0,0,0,0,0v-0.1C274.9,326.8,275.6,326.1,276.5,326.1L276.5,326.1L276.5,326.1z"/>
	<path class="st9" d="M293.2,320.9h-2.3c-3.6,0-6.5,2.9-6.5,6.5v0.5c0,3.6,2.9,6.5,6.5,6.5h2.3c3.6,0,6.5-2.9,6.5-6.5v-0.5
		C299.7,323.8,296.8,320.9,293.2,320.9z M293.9,327.8c0,0.9-0.7,1.6-1.6,1.6c0,0,0,0,0,0h-0.6c-0.9,0-1.6-0.7-1.6-1.6v-0.1
		c0-0.9,0.7-1.6,1.6-1.6h0.6c0.9,0,1.6,0.7,1.6,1.6c0,0,0,0,0,0V327.8z"/>
	<path class="st10" d="M291.8,326.1h0.6c0.9,0,1.6,0.7,1.6,1.6c0,0,0,0,0,0v0.1c0,0.9-0.7,1.6-1.6,1.6l0,0h-0.6
		c-0.9,0-1.6-0.7-1.6-1.6v-0.1C290.2,326.8,290.9,326.1,291.8,326.1z"/>
	<path class="st9" d="M262.6,320.9h-2.3c-3.6,0-6.5,2.9-6.5,6.5v0.5c0,3.6,2.9,6.5,6.5,6.5h2.3c3.6,0,6.5-2.9,6.5-6.5v-0.5
		C269.1,323.8,266.2,320.9,262.6,320.9z M263.3,327.8c0,0.9-0.7,1.6-1.6,1.6h-0.6c-0.9,0-1.6-0.7-1.6-1.6v-0.1
		c0-0.9,0.7-1.6,1.6-1.6h0.6c0.9,0,1.6,0.7,1.6,1.6V327.8z"/>
	<path class="st10" d="M261.2,326.1h0.6c0.9,0,1.6,0.7,1.6,1.6v0.1c0,0.9-0.7,1.6-1.6,1.6h-0.6c-0.9,0-1.6-0.7-1.6-1.6v-0.1
		C259.6,326.8,260.3,326.1,261.2,326.1z"/>
	<path class="st9" d="M277.9,334.7h-2.3c-3.6,0-6.5,2.9-6.5,6.5v0.5c0,3.6,2.9,6.5,6.5,6.5h2.3c3.6,0,6.5-2.9,6.5-6.5v-0.5
		C284.4,337.6,281.5,334.7,277.9,334.7z M278.6,341.5c0,0.9-0.7,1.6-1.6,1.6c0,0,0,0,0,0h-0.6c-0.9,0-1.6-0.7-1.6-1.6c0,0,0,0,0,0
		v-0.1c0-0.9,0.7-1.6,1.6-1.6c0,0,0,0,0,0h0.6c0.9,0,1.6,0.7,1.6,1.6c0,0,0,0,0,0L278.6,341.5z"/>
	<path class="st10" d="M276.5,339.8h0.6c0.9,0,1.6,0.7,1.6,1.6c0,0,0,0,0,0v0.1c0,0.9-0.7,1.6-1.6,1.6l0,0h-0.6
		c-0.9,0-1.6-0.7-1.6-1.6c0,0,0,0,0,0v-0.1C274.9,340.5,275.6,339.8,276.5,339.8L276.5,339.8z"/>
	<path class="st9" d="M293.2,334.7h-2.3c-3.6,0-6.5,2.9-6.5,6.5v0.5c0,3.6,2.9,6.5,6.5,6.5h2.3c3.6,0,6.5-2.9,6.5-6.5v-0.5
		C299.7,337.6,296.8,334.7,293.2,334.7z M293.9,341.5c0,0.9-0.7,1.6-1.6,1.6c0,0,0,0,0,0h-0.6c-0.9,0-1.6-0.7-1.6-1.6c0,0,0,0,0,0
		v-0.1c0-0.9,0.7-1.6,1.6-1.6c0,0,0,0,0,0h0.6c0.9,0,1.6,0.7,1.6,1.6c0,0,0,0,0,0L293.9,341.5z"/>
	<path class="st10" d="M291.8,339.8h0.6c0.9,0,1.6,0.7,1.6,1.6c0,0,0,0,0,0v0.1c0,0.9-0.7,1.6-1.6,1.6l0,0h-0.6
		c-0.9,0-1.6-0.7-1.6-1.6v-0.1C290.2,340.5,290.9,339.8,291.8,339.8L291.8,339.8z"/>
	<path class="st9" d="M262.6,334.7h-2.3c-3.6,0-6.5,2.9-6.5,6.5v0.5c0,3.6,2.9,6.5,6.5,6.5h2.3c3.6,0,6.5-2.9,6.5-6.5v-0.5
		C269.1,337.6,266.2,334.7,262.6,334.7z M263.3,341.5c0,0.9-0.7,1.6-1.6,1.6c0,0,0,0,0,0h-0.6c-0.9,0-1.6-0.7-1.6-1.6c0,0,0,0,0,0
		v-0.1c0-0.9,0.7-1.6,1.6-1.6c0,0,0,0,0,0h0.6c0.9,0,1.6,0.7,1.6,1.6L263.3,341.5z"/>
	<path class="st10" d="M261.2,339.8h0.6c0.9,0,1.6,0.7,1.6,1.6v0.1c0,0.9-0.7,1.6-1.6,1.6h-0.6c-0.9,0-1.6-0.7-1.6-1.6v-0.1
		C259.6,340.5,260.3,339.8,261.2,339.8z"/>
	<path class="st10" d="M263.7,377.9h1c1.6,0,2.9,1.3,2.9,2.9v0.2c0,1.6-1.3,2.9-2.9,2.9h-1c-1.6,0-2.9-1.3-2.9-2.9v-0.2
		C260.8,379.2,262.1,377.9,263.7,377.9z"/>
	<path class="st10" d="M263.7,391.3h1c1.6,0,2.9,1.3,2.9,2.9v0.2c0,1.6-1.3,2.9-2.9,2.9h-1c-1.6,0-2.9-1.3-2.9-2.9v-0.2
		C260.8,392.6,262.1,391.3,263.7,391.3z"/>
	<path class="st10" d="M249.8,377.9h1c1.6,0,2.9,1.3,2.9,2.9v0.2c0,1.6-1.3,2.9-2.9,2.9h-1c-1.6,0-2.9-1.3-2.9-2.9v-0.2
		C246.9,379.2,248.2,377.9,249.8,377.9z"/>
	<path class="st10" d="M249.8,391.3h1c1.6,0,2.9,1.3,2.9,2.9v0.2c0,1.6-1.3,2.9-2.9,2.9h-1c-1.6,0-2.9-1.3-2.9-2.9v-0.2
		C246.9,392.6,248.2,391.3,249.8,391.3z"/>
	<path class="st10" d="M235.9,377.9h1c1.6,0,2.9,1.3,2.9,2.9v0.2c0,1.6-1.3,2.9-2.9,2.9h-1c-1.6,0-2.9-1.3-2.9-2.9v-0.2
		C233,379.2,234.3,377.9,235.9,377.9z"/>
	<path class="st10" d="M235.9,391.3h1c1.6,0,2.9,1.3,2.9,2.9v0.2c0,1.6-1.3,2.9-2.9,2.9h-1c-1.6,0-2.9-1.3-2.9-2.9v-0.2
		C233,392.6,234.3,391.3,235.9,391.3z"/>
	<path class="st10" d="M222,377.9h1c1.6,0,2.9,1.3,2.9,2.9v0.2c0,1.6-1.3,2.9-2.9,2.9h-1c-1.6,0-2.9-1.3-2.9-2.9v-0.2
		C219.1,379.2,220.4,377.9,222,377.9z"/>
	<path class="st10" d="M222,391.3h1c1.6,0,2.9,1.3,2.9,2.9v0.2c0,1.6-1.3,2.9-2.9,2.9h-1c-1.6,0-2.9-1.3-2.9-2.9v-0.2
		C219.1,392.6,220.4,391.3,222,391.3z"/>
	<path class="st10" d="M208.2,377.9h1c1.6,0,2.9,1.3,2.9,2.9v0.2c0,1.6-1.3,2.9-2.9,2.9h-1c-1.6,0-2.9-1.3-2.9-2.9v-0.2
		C205.3,379.2,206.6,377.9,208.2,377.9z"/>
	<path class="st10" d="M208.2,391.3h1c1.6,0,2.9,1.3,2.9,2.9v0.2c0,1.6-1.3,2.9-2.9,2.9h-1c-1.6,0-2.9-1.3-2.9-2.9v-0.2
		C205.3,392.6,206.6,391.3,208.2,391.3z"/>
	<path class="st10" d="M194.3,377.9h1c1.6,0,2.9,1.3,2.9,2.9v0.2c0,1.6-1.3,2.9-2.9,2.9h-1c-1.6,0-2.9-1.3-2.9-2.9v-0.2
		C191.4,379.2,192.7,377.9,194.3,377.9z"/>
	<path class="st10" d="M194.3,391.3h1c1.6,0,2.9,1.3,2.9,2.9v0.2c0,1.6-1.3,2.9-2.9,2.9h-1c-1.6,0-2.9-1.3-2.9-2.9v-0.2
		C191.4,392.6,192.7,391.3,194.3,391.3z"/>
	<path class="st10" d="M180.4,377.9h1c1.6,0,2.9,1.3,2.9,2.9v0.2c0,1.6-1.3,2.9-2.9,2.9h-1c-1.6,0-2.9-1.3-2.9-2.9v-0.2
		C177.5,379.2,178.8,377.9,180.4,377.9z"/>
	<path class="st10" d="M180.4,391.3h1c1.6,0,2.9,1.3,2.9,2.9v0.2c0,1.6-1.3,2.9-2.9,2.9h-1c-1.6,0-2.9-1.3-2.9-2.9v-0.2
		C177.5,392.6,178.8,391.3,180.4,391.3z"/>
	<path class="st10" d="M166.5,377.9h1c1.6,0,2.9,1.3,2.9,2.9v0.2c0,1.6-1.3,2.9-2.9,2.9h-1c-1.6,0-2.9-1.3-2.9-2.9v-0.2
		C163.6,379.2,164.9,377.9,166.5,377.9z"/>
	<path class="st10" d="M166.5,391.3h1c1.6,0,2.9,1.3,2.9,2.9v0.2c0,1.6-1.3,2.9-2.9,2.9h-1c-1.6,0-2.9-1.3-2.9-2.9v-0.2
		C163.6,392.6,164.9,391.3,166.5,391.3z"/>
	<path class="st10" d="M152.6,377.9h1c1.6,0,2.9,1.3,2.9,2.9v0.2c0,1.6-1.3,2.9-2.9,2.9h-1c-1.6,0-2.9-1.3-2.9-2.9v-0.2
		C149.8,379.2,151.1,377.9,152.6,377.9z"/>
	<path class="st10" d="M152.6,391.3h1c1.6,0,2.9,1.3,2.9,2.9v0.2c0,1.6-1.3,2.9-2.9,2.9h-1c-1.6,0-2.9-1.3-2.9-2.9v-0.2
		C149.8,392.6,151.1,391.3,152.6,391.3z"/>
	<path class="st10" d="M138.8,377.9h1c1.6,0,2.9,1.3,2.9,2.9v0.2c0,1.6-1.3,2.9-2.9,2.9h-1c-1.6,0-2.9-1.3-2.9-2.9v-0.2
		C135.9,379.2,137.2,377.9,138.8,377.9z"/>
	<path class="st10" d="M138.8,391.3h1c1.6,0,2.9,1.3,2.9,2.9v0.2c0,1.6-1.3,2.9-2.9,2.9h-1c-1.6,0-2.9-1.3-2.9-2.9v-0.2
		C135.9,392.6,137.2,391.3,138.8,391.3z"/>
	<path class="st10" d="M124.9,377.9h1c1.6,0,2.9,1.3,2.9,2.9v0.2c0,1.6-1.3,2.9-2.9,2.9h-1c-1.6,0-2.9-1.3-2.9-2.9v-0.2
		C122,379.2,123.3,377.9,124.9,377.9z"/>
	<path class="st10" d="M124.9,391.3h1c1.6,0,2.9,1.3,2.9,2.9v0.2c0,1.6-1.3,2.9-2.9,2.9h-1c-1.6,0-2.9-1.3-2.9-2.9v-0.2
		C122,392.6,123.3,391.3,124.9,391.3z"/>
	<path class="st10" d="M111,377.9h1c1.6,0,2.9,1.3,2.9,2.9v0.2c0,1.6-1.3,2.9-2.9,2.9h-1c-1.6,0-2.9-1.3-2.9-2.9v-0.2
		C108.1,379.2,109.4,377.9,111,377.9z"/>
	<path class="st10" d="M111,391.3h1c1.6,0,2.9,1.3,2.9,2.9v0.2c0,1.6-1.3,2.9-2.9,2.9h-1c-1.6,0-2.9-1.3-2.9-2.9v-0.2
		C108.1,392.6,109.4,391.3,111,391.3z"/>
	<path class="st10" d="M97.1,377.9h1c1.6,0,2.9,1.3,2.9,2.9v0.2c0,1.6-1.3,2.9-2.9,2.9h-1c-1.6,0-2.9-1.3-2.9-2.9v-0.2
		C94.3,379.2,95.5,377.9,97.1,377.9z"/>
	<path class="st10" d="M97.1,391.3h1c1.6,0,2.9,1.3,2.9,2.9v0.2c0,1.6-1.3,2.9-2.9,2.9h-1c-1.6,0-2.9-1.3-2.9-2.9v-0.2
		C94.3,392.6,95.5,391.3,97.1,391.3z"/>
	<path class="st10" d="M83.3,377.9h1c1.6,0,2.9,1.3,2.9,2.9v0.2c0,1.6-1.3,2.9-2.9,2.9h-1c-1.6,0-2.9-1.3-2.9-2.9v-0.2
		C80.4,379.2,81.7,377.9,83.3,377.9z"/>
	<path class="st10" d="M83.3,391.3h1c1.6,0,2.9,1.3,2.9,2.9v0.2c0,1.6-1.3,2.9-2.9,2.9h-1c-1.6,0-2.9-1.3-2.9-2.9v-0.2
		C80.4,392.6,81.7,391.3,83.3,391.3z"/>
	<path class="st10" d="M69.4,377.9h1c1.6,0,2.9,1.3,2.9,2.9v0.2c0,1.6-1.3,2.9-2.9,2.9h-1c-1.6,0-2.9-1.3-2.9-2.9v-0.2
		C66.5,379.2,67.8,377.9,69.4,377.9z"/>
	<path class="st10" d="M69.4,391.3h1c1.6,0,2.9,1.3,2.9,2.9v0.2c0,1.6-1.3,2.9-2.9,2.9h-1c-1.6,0-2.9-1.3-2.9-2.9v-0.2
		C66.5,392.6,67.8,391.3,69.4,391.3z"/>
	<path class="st10" d="M55.5,377.9h1c1.6,0,2.9,1.3,2.9,2.9v0.2c0,1.6-1.3,2.9-2.9,2.9h-1c-1.6,0-2.9-1.3-2.9-2.9v-0.2
		C52.6,379.2,53.9,377.9,55.5,377.9z"/>
	<path class="st10" d="M55.5,391.3h1c1.6,0,2.9,1.3,2.9,2.9v0.2c0,1.6-1.3,2.9-2.9,2.9h-1c-1.6,0-2.9-1.3-2.9-2.9v-0.2
		C52.6,392.6,53.9,391.3,55.5,391.3z"/>
	<path class="st10" d="M41.6,377.9h1c1.6,0,2.9,1.3,2.9,2.9v0.2c0,1.6-1.3,2.9-2.9,2.9h-1c-1.6,0-2.9-1.3-2.9-2.9v-0.2
		C38.7,379.2,40,377.9,41.6,377.9z"/>
	<path class="st10" d="M41.6,391.3h1c1.6,0,2.9,1.3,2.9,2.9v0.2c0,1.6-1.3,2.9-2.9,2.9h-1c-1.6,0-2.9-1.3-2.9-2.9v-0.2
		C38.7,392.6,40,391.3,41.6,391.3z"/>
	<path class="st1" d="M290,392.8c0,8.3,5,15.3,11.7,17.4h6v-7.1c-4.8,0-8.7-4.4-8.7-9.9c0,0,0,0,0,0s0,0,0,0c0-5.5,3.9-9.9,8.7-9.9
		v-8.3c-0.6-0.1-1.2-0.1-1.8-0.1C297.1,374.8,290,382.9,290,392.8z"/>
	<path class="st2" d="M256.6,0v2.6c0,25.1,20.3,45.4,45.4,45.4l0,0h5.6V0H256.6z M287.6,26.3c-5.4,0-9.7-4-9.7-9s4.4-9,9.7-9
		s9.7,4,9.7,9S292.9,26.3,287.6,26.3L287.6,26.3z"/>
	<path class="st11" d="M35,95.8v1.6l-4,0.2v0.2c2.6,2.4,4.5,4.8,4.5,8c0,4.9-2.7,7.3-8.4,7.3H14.3v-1.9h12.7c4.6,0,6.9-1.7,6.9-5.7
		c0-2.9-1.5-4.9-4.7-7.8H14.3v-1.9L35,95.8z"/>
	<path class="st11" d="M19.4,120.6c4.7,0,6.8,4.6,7.8,15.6c3.4,0,6.6-1.4,6.6-6.1c-0.2-2.8-1.1-5.5-2.8-7.7l1.4-0.9
		c1.9,2.6,2.9,5.6,3.1,8.8c0,5.5-3.6,7.7-8,7.7H14.3v-1.6l3.1-0.2v-0.1c-1.9-2.3-3.6-5.5-3.6-8.5C13.7,124.1,15.5,120.6,19.4,120.6z
		 M19.1,136.3h6.6c-0.9-10.4-2.9-13.7-6.3-13.7c-3,0-4.1,2.7-4.1,5.5C15.4,130.7,16.7,133.4,19.1,136.3z"/>
	<path class="st11" d="M35,144.8v2l-13,5.6c-2.1,0.9-4.1,1.8-6,2.5v0.2c1.9,0.8,3.9,1.6,6,2.5l13,5.6v1.8L14.3,156v-2L35,144.8z"/>
	<path class="st11" d="M29,179.3l13.7-7.9v2.1l-8.4,4.6c-1.3,0.8-2.3,1.4-3.9,2.3v0.2c1.6,0.8,2.6,1.3,3.9,2.1l8.4,4.6v2l-13.9-7.9
		l-14.6,8.4v-2.1l8.7-4.9c1.4-0.8,2.8-1.6,4.5-2.6v-0.2c-1.7-0.9-3.1-1.6-4.5-2.4l-8.7-4.9v-2L29,179.3z"/>
	<path class="st11" d="M50.8,194.1v0.7l-1.3,0.1v0c0.9,0.4,1.5,1.2,1.5,2.2c0,1-0.7,1.8-1.7,1.9c1.1,0.7,1.7,1.3,1.7,2.3
		c0,1.3-0.9,2.1-2.8,2.1h-6.8v-0.9h6.7c1.4,0,2.1-0.4,2.1-1.4c0-0.9-0.6-1.4-1.8-2h-7v-0.8h6.7c1.4,0,2.1-0.4,2.1-1.3
		c0-0.9-0.6-1.4-1.8-2h-7v-0.9H50.8z"/>
	<path class="st11" d="M46.3,211l4.5-3.5v1l-2.4,1.8c-0.5,0.4-1.1,0.8-1.6,1.2v0.1c0.5,0.4,1.1,0.9,1.6,1.2l2.3,1.8v1l-4.5-3.5
		l-4.8,3.8v-1l2.5-2c0.5-0.4,1.2-0.9,1.7-1.4v-0.1c-0.6-0.5-1.1-0.9-1.7-1.3l-2.5-2v-1L46.3,211z"/>
	<path class="st11" d="M50.8,220.6v0.7l-1.3,0.1v0c0.9,1,1.5,2.2,1.6,3.5c0,2.7-1.9,4-4.8,4c-3.2,0-5-2.1-5-4.4
		c0.1-1.2,0.5-2.3,1.3-3.1v0l-1.9,0h-3.4v-0.9H50.8z M46.3,228.1c2.3,0,4-0.9,4-3.2c-0.1-1.3-0.7-2.5-1.7-3.4h-5.2
		c-0.8,0.8-1.3,1.9-1.4,3.1C42,226.6,43.7,228.1,46.3,228.1L46.3,228.1z"/>
</g>
</svg>
