<?xml version="1.0" encoding="utf-8"?>
<!-- Generator: Adobe Illustrator 24.1.2, SVG Export Plug-In . SVG Version: 6.00 Build 0)  -->
<svg version="1.1" id="Layer_1" xmlns="http://www.w3.org/2000/svg" xmlns:xlink="http://www.w3.org/1999/xlink" x="0px" y="0px"
	 viewBox="0 0 418.8 405.6" style="enable-background:new 0 0 418.8 405.6;" xml:space="preserve">
<style type="text/css">
	.st0{fill:#1D57A6;}
	.st1{fill:#F3F3EE;}
	.st2{fill:#9496B4;}
	.st3{fill:#FFFFFF;}
	.st4{fill:#EEF1F2;}
	.st5{font-family:'Verdana';}
	.st6{font-size:28px;}
	.st7{fill:#282630;}
	.st8{fill:#8D725E;}
	.st9{fill:#B5C0DB;}
	.st10{fill:#A0AAC2;}
</style>
<path class="st0" d="M48,405.6h322.8c26.5-0.1,47.9-21.5,48-48V48c0-16-8-31-21.4-39.9l-16.5,16.7c-0.3,0.3-0.7,0.5-1.1,0.5h-8.2
	c-0.4,0-0.9-0.2-1.2-0.5l-17-18.3c-0.5-0.6-0.6-1.5-0.1-2.1l3-3.8c0.3-0.4,0.8-0.6,1.2-0.6H48C21.5,0.1,0.1,21.5,0,48v309.6
	C0.1,384.1,21.5,405.5,48,405.6z"/>
<path class="st1" d="M353.3,4.4c-0.5,0.6-0.5,1.5,0.1,2.1l17,18.3c0.3,0.3,0.7,0.5,1.2,0.5h8.2c0.4,0,0.8-0.2,1.1-0.5l16.5-16.7
	l0.2-0.2c0.2-0.3,0.4-0.6,0.4-1c-4.5-3.2-9.6-5.5-15-6.9h-25.5c-0.5,0-0.9,0.2-1.2,0.6L353.3,4.4z"/>
<circle class="st2" cx="375.5" cy="47.6" r="18.6"/>
<circle class="st3" cx="375.5" cy="47.6" r="11.5"/>
<circle class="st2" cx="320.3" cy="47.6" r="18.6"/>
<circle class="st3" cx="320.3" cy="47.6" r="11.5"/>
<circle class="st2" cx="265.8" cy="47.6" r="18.6"/>
<circle class="st3" cx="265.8" cy="47.6" r="11.5"/>
<circle class="st2" cx="209.4" cy="47.6" r="18.6"/>
<circle class="st3" cx="209.4" cy="47.6" r="11.5"/>
<circle class="st2" cx="153.2" cy="47.6" r="18.6"/>
<circle class="st3" cx="153.2" cy="47.6" r="11.5"/>
<ellipse transform="matrix(0.7071 -0.7071 0.7071 0.7071 -5.5441 81.8565)" class="st2" cx="96" cy="47.6" rx="18.6" ry="18.6"/>
<circle class="st3" cx="96" cy="47.6" r="11.5"/>
<circle class="st2" cx="40.6" cy="47.6" r="18.6"/>
<circle class="st3" cx="40.6" cy="47.6" r="11.5"/>
<text transform="matrix(6.123234e-17 1 -1 6.123234e-17 367.0665 76.6067)" class="st4 st5 st6">VIN</text>
<text transform="matrix(6.123234e-17 1 -1 6.123234e-17 310.5177 75.5989)" class="st4 st5 st6">3vo</text>
<rect x="164.9" y="202.8" class="st7" width="88.9" height="88.9"/>
<rect x="334.8" y="183.9" class="st8" width="21.7" height="27.1"/>
<rect x="314.2" y="183.9" class="st9" width="21.7" height="27.1"/>
<rect x="356.5" y="183.9" class="st9" width="21.7" height="27.1"/>
<rect x="244.1" y="151" class="st8" width="21.7" height="27.1"/>
<rect x="223.5" y="151" class="st9" width="21.7" height="27.1"/>
<rect x="265.8" y="151" class="st9" width="21.7" height="27.1"/>
<rect x="150.2" y="151" class="st8" width="21.7" height="27.1"/>
<rect x="129.6" y="151" class="st9" width="21.7" height="27.1"/>
<rect x="171.9" y="151" class="st9" width="21.7" height="27.1"/>
<rect x="52.1" y="199.9" class="st8" width="21.7" height="27.1"/>
<rect x="31.5" y="199.9" class="st9" width="21.7" height="27.1"/>
<rect x="73.8" y="199.9" class="st9" width="21.7" height="27.1"/>
<rect x="52.6" y="151" class="st8" width="21.7" height="27.1"/>
<rect x="32.1" y="151" class="st9" width="21.7" height="27.1"/>
<rect x="74.3" y="151" class="st9" width="21.7" height="27.1"/>
<path class="st10" d="M253.8,245.5c1,0.5,3.3-1.2,3.3-3.5c0-2.9-2-4-3.3-3.6C253.9,242.7,253.8,237.6,253.8,245.5z"/>
<path class="st10" d="M253.8,231.2c1,0.5,3.3-1.2,3.3-3.5c0-2.9-2-4-3.3-3.6C253.9,228.4,253.8,223.2,253.8,231.2z"/>
<path class="st10" d="M164.9,223.4c-1-0.5-3.3,1.2-3.3,3.5c0,2.9,2,4,3.3,3.6C164.9,226.2,164.9,231.4,164.9,223.4z"/>
<path class="st10" d="M164.9,237c-1-0.5-3.3,1.2-3.3,3.5c0,2.9,2,4,3.3,3.6C164.9,239.7,164.9,244.9,164.9,237z"/>
<path class="st10" d="M232.8,202.8c0.5-1-1.2-3.3-3.5-3.3c-2.9,0-4,2-3.6,3.3C230,202.8,224.8,202.8,232.8,202.8z"/>
<path class="st10" d="M219.2,202.8c0.5-1-1.2-3.3-3.5-3.3c-2.9,0-4,2-3.6,3.3C216.4,202.8,211.2,202.8,219.2,202.8z"/>
<path class="st10" d="M204.1,202.8c0.5-1-1.2-3.3-3.5-3.3c-2.9,0-4,2-3.6,3.3C201.3,202.8,196.1,202.8,204.1,202.8z"/>
<path class="st10" d="M189.8,202.8c0.5-1-1.2-3.3-3.5-3.3c-2.9,0-4,2-3.6,3.3C187,202.8,181.8,202.8,189.8,202.8z"/>
<text transform="matrix(6.123234e-17 1 -1 6.123234e-17 255.6837 75.5989)" class="st4 st5 st6">GND</text>
<text transform="matrix(6.123234e-17 1 -1 6.123234e-17 202.1993 74.5989)" class="st4 st5 st6">Zout</text>
<text transform="matrix(6.123234e-17 1 -1 6.123234e-17 143.0958 75.5989)" class="st4 st5 st6">Yout</text>
<text transform="matrix(6.123234e-17 1 -1 6.123234e-17 87.6544 75.5989)" class="st4 st5 st6">Xout</text>
<text transform="matrix(6.123234e-17 1 -1 6.123234e-17 31.1622 75.5989)" class="st4 st5 st6">test</text>
<path class="st1" d="M339.5,24.7l3-3.8c0.5-0.6,0.5-1.5-0.1-2.1l-17-18.3c-0.3-0.3-0.7-0.5-1.2-0.5h-8.2c-0.4,0-0.8,0.2-1.1,0.5
	l-16.7,16.9c-0.5,0.5-0.6,1.2-0.3,1.8l2.4,5.2c0.3,0.6,0.8,0.9,1.4,0.9h36.5C338.8,25.3,339.2,25,339.5,24.7z"/>
<path class="st1" d="M246.6,0.6l-3,3.8c-0.5,0.6-0.5,1.5,0.1,2.1l17,18.3c0.3,0.3,0.7,0.5,1.2,0.5h8.2c0.4,0,0.8-0.2,1.1-0.5
	l16.7-16.9c0.5-0.5,0.6-1.2,0.3-1.8l-2.4-5.2C285.6,0.4,285,0,284.4,0h-36.5C247.3,0,246.9,0.2,246.6,0.6z"/>
<path class="st1" d="M228.6,24.7l3-3.8c0.5-0.6,0.5-1.5-0.1-2.1l-17-18.3c-0.3-0.3-0.7-0.5-1.2-0.5h-8.2c-0.4,0-0.8,0.2-1.1,0.5
	l-16.7,16.9c-0.5,0.5-0.6,1.2-0.3,1.8l2.4,5.2c0.3,0.6,0.8,0.9,1.4,0.9h36.5C227.8,25.3,228.3,25,228.6,24.7z"/>
<path class="st1" d="M172.4,24.7l3-3.8c0.5-0.6,0.5-1.5-0.1-2.1l-17-18.3c-0.3-0.3-0.7-0.5-1.2-0.5H149c-0.4,0-0.8,0.2-1.1,0.5
	l-16.7,16.9c-0.5,0.5-0.6,1.2-0.3,1.8l2.4,5.2c0.3,0.6,0.8,0.9,1.4,0.9h36.5C171.7,25.3,172.1,25,172.4,24.7z"/>
<path class="st1" d="M115.2,24.7l3-3.8c0.5-0.6,0.5-1.5-0.1-2.1l-17-18.3C100.9,0.2,100.5,0,100,0h-8.2c-0.4,0-0.8,0.2-1.1,0.5
	L73.9,17.4c-0.5,0.5-0.6,1.2-0.3,1.8l2.4,5.2c0.3,0.6,0.8,0.9,1.4,0.9H114C114.5,25.3,114.9,25,115.2,24.7z"/>
</svg>
