<svg id="Layer_1" data-name="Layer 1" xmlns="http://www.w3.org/2000/svg" viewBox="0 0 330.707 579.5479"><defs><style>.cls-1,.cls-2{fill:none;stroke-linecap:round;stroke-linejoin:round;stroke-width:18.956px;}.cls-1{stroke:#e9262a;}.cls-2{stroke:#221f1f;}.cls-3{fill:#424242;}.cls-4{fill:#5a5a5c;}.cls-5{fill:#bfbfbf;}.cls-11,.cls-6{fill:#f2f2f2;}.cls-16,.cls-21,.cls-7{fill:#221f1f;}.cls-8{fill:#37b24a;}.cls-9{fill:#d6dd28;}.cls-10,.cls-11{font-size:40.5208px;}.cls-10,.cls-12{fill:#bc2030;}.cls-10,.cls-11,.cls-16,.cls-21,.cls-23,.cls-24,.cls-25,.cls-28,.cls-29,.cls-31{font-family:Verdana;}.cls-13{fill:#631011;}.cls-14{fill:#a6a7aa;}.cls-15{fill:#4f4e51;}.cls-16,.cls-23{font-size:10.5481px;}.cls-17{fill:#819356;}.cls-18{fill:#2f3378;}.cls-19{fill:#e9262a;}.cls-20{fill:#e3de6f;}.cls-21{font-size:8.4385px;}.cls-22{letter-spacing:-0.059em;}.cls-23,.cls-24,.cls-25,.cls-28,.cls-29,.cls-31{fill:#fff;}.cls-24{font-size:10.832px;}.cls-25{font-size:5.416px;}.cls-26{letter-spacing:-0.014em;}.cls-27{letter-spacing:-0.0001em;}.cls-28{font-size:4.062px;}.cls-29{font-size:5px;}.cls-30{letter-spacing:-0.014em;}.cls-31{font-size:4.5px;}</style></defs><line class="cls-1" x1="199.4254" y1="34.9619" x2="199.4254" y2="9.478"/><line class="cls-2" x1="259.6451" y1="34.9619" x2="259.6451" y2="9.478"/><path class="cls-3" d="M325.6714,54.0859v506.338a19.1237,19.1237,0,0,1-19.1231,19.124H25.3723a19.1245,19.1245,0,0,1-19.1239-19.124V54.0859A19.1238,19.1238,0,0,1,25.3723,34.962h281.176a19.1237,19.1237,0,0,1,19.1231,19.1239"/><rect class="cls-4" x="240.6579" y="34.9619" width="37.973" height="80.418"/><rect class="cls-4" x="180.438" y="34.9619" width="37.974" height="80.418"/><rect class="cls-4" x="294.336" y="83.0908" width="1.079" height="1.079"/><rect class="cls-5" x="32.163" y="49.9708" width="50.274" height="64.225"/><rect class="cls-4" x="32.162" y="49.9719" width="21.756" height="12.408"/><rect class="cls-6" x="37.051" y="52.2979" width="13.959" height="7.3669"/><path class="cls-7" d="M43.5464,56.1758A4.8956,4.8956,0,1,1,38.65,51.28a4.8968,4.8968,0,0,1,4.8961,4.896"/><rect class="cls-4" x="32.162" y="62.2739" width="21.756" height="12.408"/><rect class="cls-6" x="37.051" y="64.5998" width="13.959" height="7.368"/><path class="cls-7" d="M43.5464,68.4775a4.8956,4.8956,0,1,1-4.8961-4.896,4.8961,4.8961,0,0,1,4.8961,4.896"/><rect class="cls-4" x="32.162" y="74.6819" width="21.756" height="12.408"/><rect class="cls-6" x="37.051" y="77.0089" width="13.959" height="7.3669"/><path class="cls-7" d="M43.5464,80.8857A4.8956,4.8956,0,1,1,38.65,75.99a4.8961,4.8961,0,0,1,4.8961,4.896"/><rect class="cls-4" x="32.162" y="87.0898" width="21.756" height="12.408"/><rect class="cls-6" x="37.051" y="89.4168" width="13.959" height="7.3669"/><path class="cls-7" d="M43.5464,93.2939a4.8956,4.8956,0,1,1-4.8961-4.896,4.8961,4.8961,0,0,1,4.8961,4.896"/><rect class="cls-8" x="53.919" y="49.9719" width="5.523" height="12.408"/><rect class="cls-9" x="53.919" y="87.0898" width="5.523" height="12.408"/><rect class="cls-8" x="53.919" y="74.6819" width="5.523" height="12.408"/><rect class="cls-9" x="53.919" y="62.2739" width="5.523" height="12.408"/><text class="cls-10" transform="translate(146.7424 93.0138)">+</text><text class="cls-11" transform="translate(284.4952 93.3785)">-</text><rect class="cls-7" y="124.8017" width="92.444" height="30.0861"/><path class="cls-3" d="M30.5659,139.8447a11.4526,11.4526,0,1,1-11.4521-11.4529,11.4517,11.4517,0,0,1,11.4521,11.4529"/><rect class="cls-12" y="154.8878" width="92.444" height="30.0861"/><path class="cls-13" d="M30.5659,169.9306a11.4526,11.4526,0,1,1-11.4521-11.4519,11.4526,11.4526,0,0,1,11.4521,11.4519"/><rect class="cls-7" y="305.3177" width="92.444" height="30.0861"/><path class="cls-3" d="M30.5659,320.3613a11.4526,11.4526,0,1,1-11.4521-11.4519,11.4526,11.4526,0,0,1,11.4521,11.4519"/><rect class="cls-12" y="335.4038" width="92.444" height="30.087"/><path class="cls-13" d="M30.5659,350.4472a11.4526,11.4526,0,1,1-11.4521-11.4519,11.4526,11.4526,0,0,1,11.4521,11.4519"/><rect class="cls-7" y="245.1468" width="92.444" height="30.0861"/><path class="cls-3" d="M30.5659,260.1894a11.4526,11.4526,0,1,1-11.4521-11.4529,11.4518,11.4518,0,0,1,11.4521,11.4529"/><rect class="cls-12" y="275.2328" width="92.444" height="30.0861"/><path class="cls-13" d="M30.5659,290.2754a11.4526,11.4526,0,1,1-11.4521-11.4529,11.4518,11.4518,0,0,1,11.4521,11.4529"/><rect class="cls-7" y="184.9737" width="92.444" height="30.0861"/><path class="cls-3" d="M30.5659,200.0166a11.4526,11.4526,0,1,1-11.4521-11.4519,11.4526,11.4526,0,0,1,11.4521,11.4519"/><rect class="cls-12" y="215.0598" width="92.444" height="30.087"/><path class="cls-13" d="M30.5659,230.1035a11.4526,11.4526,0,1,1-11.4521-11.4529,11.4524,11.4524,0,0,1,11.4521,11.4529"/><rect class="cls-7" x="238.262" y="335.5368" width="92.444" height="30.0861"/><path class="cls-3" d="M300.2719,350.4472a11.4525,11.4525,0,1,1,11.452,11.453,11.4517,11.4517,0,0,1-11.452-11.453"/><rect class="cls-12" x="238.262" y="305.4498" width="92.444" height="30.087"/><path class="cls-13" d="M300.2719,320.3613a11.4525,11.4525,0,1,1,11.452,11.453,11.4516,11.4516,0,0,1-11.452-11.453"/><rect class="cls-7" x="238.262" y="155.0199" width="92.444" height="30.0861"/><path class="cls-3" d="M300.2719,169.9306a11.4525,11.4525,0,1,1,11.452,11.453,11.4517,11.4517,0,0,1-11.452-11.453"/><rect class="cls-12" x="238.262" y="124.9338" width="92.444" height="30.0861"/><path class="cls-13" d="M300.2719,139.8447a11.4525,11.4525,0,1,1,11.452,11.452,11.4525,11.4525,0,0,1-11.452-11.452"/><rect class="cls-7" x="238.262" y="215.1928" width="92.444" height="30.0861"/><path class="cls-3" d="M300.2719,230.1035a11.4525,11.4525,0,1,1,11.452,11.452,11.4525,11.4525,0,0,1-11.452-11.452"/><rect class="cls-12" x="238.262" y="185.1058" width="92.444" height="30.087"/><path class="cls-13" d="M300.2719,200.0166a11.4525,11.4525,0,1,1,11.452,11.453,11.4516,11.4516,0,0,1-11.452-11.453"/><rect class="cls-7" x="238.262" y="275.3639" width="92.444" height="30.0861"/><path class="cls-3" d="M300.2719,290.2754a11.4525,11.4525,0,1,1,11.452,11.452,11.4525,11.4525,0,0,1-11.452-11.452"/><rect class="cls-12" x="238.262" y="245.2778" width="92.444" height="30.0861"/><path class="cls-13" d="M300.2719,260.1894a11.4525,11.4525,0,1,1,11.452,11.4521,11.4525,11.4525,0,0,1-11.452-11.4521"/><rect class="cls-14" y="119.4848" width="92.444" height="5.368"/><rect class="cls-14" x="0.964" y="365.4918" width="92.444" height="5.368"/><rect class="cls-14" x="257.049" y="548.9759" width="67.805" height="5.173"/><rect class="cls-7" x="257.049" y="526.7499" width="68.291" height="22.226"/><path class="cls-3" d="M302.857,537.7645a8.46,8.46,0,1,1,8.461,8.4611,8.4606,8.4606,0,0,1-8.461-8.4611"/><rect class="cls-12" x="257.049" y="504.5238" width="68.291" height="22.226"/><path class="cls-13" d="M302.857,515.5389A8.46,8.46,0,1,1,311.318,524a8.46,8.46,0,0,1-8.461-8.4611"/><rect class="cls-7" x="257.049" y="393.3978" width="68.291" height="22.226"/><path class="cls-3" d="M302.857,404.4131a8.46,8.46,0,1,1,8.461,8.46,8.4608,8.4608,0,0,1-8.461-8.46"/><rect class="cls-12" x="257.049" y="371.1728" width="68.291" height="22.225"/><path class="cls-13" d="M302.857,382.1875a8.46,8.46,0,1,1,8.461,8.46,8.46,8.46,0,0,1-8.461-8.46"/><rect class="cls-7" x="257.049" y="437.8488" width="68.291" height="22.226"/><path class="cls-3" d="M302.857,448.8633a8.46,8.46,0,1,1,8.461,8.461,8.4606,8.4606,0,0,1-8.461-8.461"/><rect class="cls-12" x="256.806" y="415.5259" width="68.291" height="22.226"/><path class="cls-13" d="M302.857,426.6377a8.46,8.46,0,1,1,8.461,8.461,8.4606,8.4606,0,0,1-8.461-8.461"/><rect class="cls-7" x="257.049" y="482.2988" width="68.291" height="22.226"/><path class="cls-3" d="M302.857,493.3143a8.46,8.46,0,1,1,8.461,8.46,8.4608,8.4608,0,0,1-8.461-8.46"/><rect class="cls-12" x="257.049" y="460.0738" width="68.291" height="22.225"/><path class="cls-13" d="M302.857,471.0887a8.46,8.46,0,1,1,8.461,8.46,8.46,8.46,0,0,1-8.461-8.46"/><rect class="cls-7" x="6.6148" y="371.172" width="68.291" height="22.2255"/><path class="cls-3" d="M29.0982,382.3828a8.4605,8.4605,0,1,1-8.4611-8.461,8.4607,8.4607,0,0,1,8.4611,8.461"/><rect class="cls-12" x="6.615" y="393.3968" width="68.291" height="22.226"/><path class="cls-13" d="M29.0982,404.6084a8.4605,8.4605,0,1,1-8.4611-8.461,8.4607,8.4607,0,0,1,8.4611,8.461"/><rect class="cls-7" x="6.615" y="507.0788" width="68.291" height="22.226"/><path class="cls-3" d="M29.0982,515.7343a8.4605,8.4605,0,1,1-8.4611-8.46,8.4609,8.4609,0,0,1,8.4611,8.46"/><rect class="cls-12" x="6.6148" y="526.7496" width="68.291" height="22.2255"/><path class="cls-13" d="M29.0982,537.96a8.4605,8.4605,0,1,1-8.4611-8.46,8.46,8.46,0,0,1,8.4611,8.46"/><rect class="cls-7" x="6.6148" y="460.0733" width="68.291" height="22.2255"/><path class="cls-3" d="M29.0982,471.2842a8.4605,8.4605,0,1,1-8.4611-8.461,8.4607,8.4607,0,0,1,8.4611,8.461"/><rect class="cls-12" x="6.615" y="482.2978" width="68.291" height="22.226"/><path class="cls-13" d="M29.0982,493.51a8.4605,8.4605,0,1,1-8.4611-8.461,8.4606,8.4606,0,0,1,8.4611,8.461"/><rect class="cls-7" x="6.615" y="415.6229" width="68.291" height="22.226"/><path class="cls-3" d="M29.0982,426.833a8.4605,8.4605,0,1,1-8.4611-8.46,8.4609,8.4609,0,0,1,8.4611,8.46"/><rect class="cls-12" x="6.6148" y="437.8482" width="68.291" height="22.2255"/><path class="cls-13" d="M29.0982,449.0585a8.4605,8.4605,0,1,1-8.4611-8.46,8.46,8.46,0,0,1,8.4611,8.46"/><polygon class="cls-15" points="235.434 375.442 235.434 133.651 96.487 133.651 96.487 375.442 78.795 375.442 78.795 551.562 253.622 551.562 253.622 375.442 235.434 375.442"/><rect class="cls-14" x="238.263" y="365.4918" width="92.444" height="5.368"/><path class="cls-3" d="M116.8228,61.0713a5.726,5.726,0,1,1,5.727,5.726,5.7263,5.7263,0,0,1-5.727-5.726"/><path class="cls-3" d="M116.8228,99.498a5.726,5.726,0,1,1,5.727,5.7271,5.726,5.726,0,0,1-5.727-5.7271"/><text class="cls-16" transform="translate(66.1777 64.38) rotate(90)">CAN</text><rect class="cls-17" x="78.795" y="535.4028" width="98.066" height="16.158"/><rect class="cls-18" x="176.861" y="535.4028" width="76.761" height="16.158"/><rect class="cls-4" x="127.383" y="547.9828" width="12.408" height="21.756"/><rect class="cls-6" x="129.71" y="550.8918" width="7.367" height="13.959"/><path class="cls-7" d="M133.5865,558.3554a4.8956,4.8956,0,1,1-4.8961,4.8961,4.8961,4.8961,0,0,1,4.8961-4.8961"/><rect class="cls-4" x="139.685" y="547.9828" width="12.408" height="21.756"/><rect class="cls-6" x="142.011" y="550.8918" width="7.367" height="13.959"/><path class="cls-7" d="M145.8892,558.3554a4.8956,4.8956,0,1,1-4.8961,4.8961,4.8968,4.8968,0,0,1,4.8961-4.8961"/><rect class="cls-4" x="176.8609" y="547.9828" width="12.408" height="21.756"/><rect class="cls-6" x="179.188" y="550.8918" width="7.367" height="13.959"/><path class="cls-7" d="M183.065,558.3554a4.8956,4.8956,0,1,1-4.8961,4.8961,4.8961,4.8961,0,0,1,4.8961-4.8961"/><rect class="cls-4" x="189.164" y="547.9828" width="12.408" height="21.756"/><rect class="cls-6" x="191.49" y="550.8918" width="7.367" height="13.959"/><path class="cls-7" d="M195.3676,558.3554a4.8956,4.8956,0,1,1-4.896,4.8961,4.8967,4.8967,0,0,1,4.896-4.8961"/><rect class="cls-4" x="152.094" y="547.9828" width="12.408" height="21.756"/><rect class="cls-6" x="154.42" y="550.8918" width="7.367" height="13.959"/><path class="cls-7" d="M158.2974,558.3554a4.8956,4.8956,0,1,1-4.8961,4.8961,4.8968,4.8968,0,0,1,4.8961-4.8961"/><rect class="cls-4" x="164.3949" y="547.9828" width="12.408" height="21.756"/><rect class="cls-6" x="166.722" y="550.8918" width="7.367" height="13.959"/><path class="cls-7" d="M170.5992,558.3554a4.8956,4.8956,0,1,1-4.8961,4.8961,4.896,4.896,0,0,1,4.8961-4.8961"/><rect class="cls-19" x="127.221" y="542.4588" width="12.408" height="5.524"/><rect class="cls-7" x="164.341" y="542.4588" width="12.408" height="5.524"/><rect class="cls-19" x="151.931" y="542.4588" width="12.409" height="5.524"/><rect class="cls-7" x="139.523" y="542.4588" width="12.408" height="5.524"/><rect class="cls-7" x="189.161" y="542.4588" width="12.408" height="5.524"/><rect class="cls-19" x="176.753" y="542.4588" width="12.408" height="5.524"/><rect class="cls-20" x="79.4289" y="545.2218" width="12.408" height="5.523"/><rect class="cls-19" x="127.221" y="542.4588" width="12.408" height="5.524"/><rect class="cls-19" x="239.9749" y="545.2218" width="12.408" height="5.523"/><rect class="cls-20" x="61.631" y="556.9939" width="30.206" height="12.514"/><rect class="cls-19" x="238.518" y="556.9939" width="30.206" height="12.514"/><path class="cls-17" d="M119.3775,139.3174v29.112a1.6323,1.6323,0,0,1-1.6331,1.6331h-12.22a1.6315,1.6315,0,0,1-1.632-1.6331v-29.112a1.6321,1.6321,0,0,1,1.632-1.633h12.22a1.6329,1.6329,0,0,1,1.6331,1.633"/><path class="cls-17" d="M119.3775,200.5039v29.112a1.6323,1.6323,0,0,1-1.6331,1.6331h-12.22a1.6315,1.6315,0,0,1-1.632-1.6331v-29.112a1.6321,1.6321,0,0,1,1.632-1.633h12.22a1.6329,1.6329,0,0,1,1.6331,1.633"/><path class="cls-17" d="M119.3775,259.7978v29.1131a1.6329,1.6329,0,0,1-1.6331,1.633h-12.22a1.6321,1.6321,0,0,1-1.632-1.633V259.7978a1.6327,1.6327,0,0,1,1.632-1.6329h12.22a1.6335,1.6335,0,0,1,1.6331,1.6329"/><path class="cls-17" d="M119.3775,320.9843v29.1131a1.6329,1.6329,0,0,1-1.6331,1.633h-12.22a1.6321,1.6321,0,0,1-1.632-1.633V320.9843a1.6327,1.6327,0,0,1,1.632-1.6329h12.22a1.6336,1.6336,0,0,1,1.6331,1.6329"/><path class="cls-17" d="M228.7437,139.7558v29.1131a1.6329,1.6329,0,0,1-1.6331,1.633h-12.22a1.6321,1.6321,0,0,1-1.6321-1.633V139.7558a1.6328,1.6328,0,0,1,1.6321-1.6329h12.22a1.6336,1.6336,0,0,1,1.6331,1.6329"/><path class="cls-17" d="M228.7437,200.9424v29.113a1.6329,1.6329,0,0,1-1.6331,1.633h-12.22a1.6321,1.6321,0,0,1-1.6321-1.633v-29.113a1.6328,1.6328,0,0,1,1.6321-1.633h12.22a1.6336,1.6336,0,0,1,1.6331,1.633"/><path class="cls-17" d="M228.7437,260.2373v29.112a1.6323,1.6323,0,0,1-1.6331,1.6331h-12.22a1.6315,1.6315,0,0,1-1.6321-1.6331v-29.112a1.6321,1.6321,0,0,1,1.6321-1.633h12.22a1.6329,1.6329,0,0,1,1.6331,1.633"/><path class="cls-17" d="M228.7437,321.4228v29.1131a1.6329,1.6329,0,0,1-1.6331,1.633h-12.22a1.6321,1.6321,0,0,1-1.6321-1.633V321.4228a1.6327,1.6327,0,0,1,1.6321-1.6329h12.22a1.6335,1.6335,0,0,1,1.6331,1.6329"/><rect class="cls-3" x="109.81" y="226.2538" width="25.479" height="5.4351"/><rect class="cls-3" x="158.4309" y="226.2538" width="25.479" height="5.4351"/><rect class="cls-3" x="147.906" y="199.3088" width="25.479" height="5.4351"/><rect class="cls-3" x="198.065" y="199.3088" width="25.479" height="5.4351"/><rect class="cls-3" x="147.906" y="137.2588" width="25.479" height="5.4351"/><rect class="cls-3" x="198.065" y="137.2588" width="25.479" height="5.4351"/><rect class="cls-3" x="147.906" y="258.6037" width="25.479" height="5.4351"/><rect class="cls-3" x="198.065" y="258.6037" width="25.479" height="5.4351"/><rect class="cls-3" x="150.067" y="319.3508" width="25.479" height="5.4351"/><rect class="cls-3" x="198.064" y="319.3508" width="25.48" height="5.4351"/><rect class="cls-3" x="109.81" y="284.8408" width="25.479" height="5.4351"/><rect class="cls-3" x="158.4309" y="284.8408" width="25.479" height="5.4351"/><rect class="cls-3" x="109.81" y="346.2948" width="25.479" height="5.436"/><rect class="cls-3" x="158.4309" y="346.2948" width="25.479" height="5.436"/><rect class="cls-3" x="109.81" y="164.6278" width="25.479" height="5.4351"/><rect class="cls-3" x="158.4309" y="164.6278" width="25.479" height="5.4351"/><rect class="cls-3" x="103.547" y="385.6258" width="14.349" height="5.217"/><path class="cls-17" d="M157.817,395.2441H130.833a3.6307,3.6307,0,0,1-3.6311-3.63v-8.249a3.6315,3.6315,0,0,1,3.6311-3.631h26.984a3.6306,3.6306,0,0,1,3.63,3.631v8.249a3.63,3.63,0,0,1-3.63,3.63"/><path class="cls-17" d="M157.5474,407.0605h-7.341a3.9,3.9,0,0,1-3.8991-3.8989V391.3885a3.9,3.9,0,0,1,3.8991-3.8989h7.341a3.9,3.9,0,0,1,3.899,3.8989v11.7731a3.9,3.9,0,0,1-3.899,3.8989"/><path class="cls-17" d="M157.817,442.4442H130.833a3.6307,3.6307,0,0,1-3.6311-3.63v-8.249a3.6307,3.6307,0,0,1,3.6311-3.63h26.984a3.63,3.63,0,0,1,3.63,3.63v8.249a3.63,3.63,0,0,1-3.63,3.63"/><path class="cls-17" d="M157.5474,454.2616h-7.341a3.9,3.9,0,0,1-3.8991-3.899V438.59a3.9,3.9,0,0,1,3.8991-3.9h7.341a3.9,3.9,0,0,1,3.899,3.9v11.773a3.9,3.9,0,0,1-3.899,3.899"/><path class="cls-17" d="M157.817,485.3251H130.833a3.6307,3.6307,0,0,1-3.6311-3.63v-8.2491a3.6314,3.6314,0,0,1,3.6311-3.6309h26.984a3.63,3.63,0,0,1,3.63,3.6309v8.2491a3.63,3.63,0,0,1-3.63,3.63"/><path class="cls-17" d="M157.5474,497.1415h-7.341a3.8989,3.8989,0,0,1-3.8991-3.899V481.47a3.9,3.9,0,0,1,3.8991-3.899h7.341a3.9,3.9,0,0,1,3.899,3.899v11.773a3.8989,3.8989,0,0,1-3.899,3.899"/><path class="cls-17" d="M157.817,532.5253H130.833a3.6307,3.6307,0,0,1-3.6311-3.63v-8.2491a3.6307,3.6307,0,0,1,3.6311-3.63h26.984a3.63,3.63,0,0,1,3.63,3.63v8.2491a3.63,3.63,0,0,1-3.63,3.63"/><path class="cls-17" d="M170.7681,395.1914h27.537a3.6622,3.6622,0,0,0,3.6629-3.663v-8.1839a3.6629,3.6629,0,0,0-3.6629-3.663h-27.537a3.6643,3.6643,0,0,0-3.663,3.663v8.1839a3.6636,3.6636,0,0,0,3.663,3.663"/><path class="cls-17" d="M171.04,407.0078h7.545a3.9344,3.9344,0,0,0,3.9339-3.935v-11.702a3.9335,3.9335,0,0,0-3.9339-3.9339H171.04a3.9344,3.9344,0,0,0-3.9351,3.9339v11.702a3.9353,3.9353,0,0,0,3.9351,3.935"/><path class="cls-17" d="M170.7681,442.3915h27.537a3.662,3.662,0,0,0,3.6629-3.662v-8.1839a3.6624,3.6624,0,0,0-3.6629-3.6631h-27.537a3.6638,3.6638,0,0,0-3.663,3.6631V438.73a3.6634,3.6634,0,0,0,3.663,3.662"/><path class="cls-17" d="M171.04,454.209h7.545a3.9344,3.9344,0,0,0,3.9339-3.935V438.572a3.9329,3.9329,0,0,0-3.9339-3.934H171.04a3.9338,3.9338,0,0,0-3.9351,3.934v11.702a3.9353,3.9353,0,0,0,3.9351,3.935"/><path class="cls-17" d="M170.7681,485.2723h27.537a3.6622,3.6622,0,0,0,3.6629-3.663v-8.184a3.6629,3.6629,0,0,0-3.6629-3.6629h-27.537a3.6643,3.6643,0,0,0-3.663,3.6629v8.184a3.6636,3.6636,0,0,0,3.663,3.663"/><path class="cls-17" d="M171.04,497.0887h7.545a3.9338,3.9338,0,0,0,3.9339-3.935V481.4518a3.9336,3.9336,0,0,0-3.9339-3.9341H171.04a3.9345,3.9345,0,0,0-3.9351,3.9341v11.7019a3.9347,3.9347,0,0,0,3.9351,3.935"/><path class="cls-17" d="M170.7681,532.4725h27.537a3.662,3.662,0,0,0,3.6629-3.662v-8.1839a3.6623,3.6623,0,0,0-3.6629-3.6631h-27.537a3.6637,3.6637,0,0,0-3.663,3.6631v8.1839a3.6634,3.6634,0,0,0,3.663,3.662"/><rect class="cls-3" x="127.201" y="385.6258" width="14.349" height="5.217"/><rect class="cls-3" x="103.547" y="432.4898" width="14.349" height="5.217"/><rect class="cls-3" x="127.201" y="432.4898" width="14.349" height="5.217"/><rect class="cls-3" x="103.547" y="475.7339" width="14.349" height="5.217"/><rect class="cls-3" x="127.201" y="475.7339" width="14.349" height="5.217"/><rect class="cls-3" x="103.547" y="522.5979" width="14.349" height="5.217"/><rect class="cls-3" x="127.201" y="522.5979" width="14.349" height="5.217"/><rect class="cls-3" x="187.96" y="386.4248" width="14.349" height="5.217"/><rect class="cls-3" x="211.614" y="386.4248" width="14.349" height="5.217"/><rect class="cls-3" x="187.96" y="433.2878" width="14.349" height="5.218"/><rect class="cls-3" x="211.614" y="433.2878" width="14.349" height="5.218"/><rect class="cls-3" x="187.96" y="476.5318" width="14.349" height="5.217"/><rect class="cls-3" x="211.614" y="476.5318" width="14.349" height="5.217"/><rect class="cls-3" x="187.96" y="523.3958" width="14.349" height="5.217"/><rect class="cls-3" x="211.614" y="523.3958" width="14.349" height="5.217"/><text class="cls-11" transform="translate(284.4952 93.3785)">-</text><rect class="cls-14" y="119.4848" width="92.444" height="5.368"/><path class="cls-17" d="M138.5846,68.8134h-30.687a7.7425,7.7425,0,1,1,0-15.4849h30.687a7.7425,7.7425,0,0,1,0,15.4849"/><path class="cls-3" d="M102.6276,61.0713a5.726,5.726,0,1,1,5.727,5.726,5.7263,5.7263,0,0,1-5.727-5.726"/><path class="cls-17" d="M138.5846,107.2412h-30.687a7.7425,7.7425,0,1,1,0-15.485h30.687a7.7425,7.7425,0,0,1,0,15.485"/><path class="cls-3" d="M102.6276,99.498a5.726,5.726,0,1,1,5.727,5.7271,5.726,5.726,0,0,1-5.727-5.7271"/><text class="cls-16" transform="translate(66.1777 64.38) rotate(90)">CAN</text><text class="cls-21" transform="translate(142.7832 58.1467) rotate(180)">COMM</text><text class="cls-21" transform="translate(141.5595 97.2253) rotate(180)">S<tspan class="cls-22" x="5.7686" y="0">TA</tspan><tspan x="15.7412" y="0">T</tspan></text><rect class="cls-4" x="127.383" y="547.9828" width="12.408" height="21.756"/><rect class="cls-6" x="129.71" y="550.8918" width="7.367" height="13.959"/><path class="cls-7" d="M133.5865,558.3554a4.8956,4.8956,0,1,1-4.8961,4.8961,4.8961,4.8961,0,0,1,4.8961-4.8961"/><rect class="cls-4" x="139.685" y="547.9828" width="12.408" height="21.756"/><rect class="cls-6" x="142.011" y="550.8918" width="7.367" height="13.959"/><path class="cls-7" d="M145.8892,558.3554a4.8956,4.8956,0,1,1-4.8961,4.8961,4.8968,4.8968,0,0,1,4.8961-4.8961"/><rect class="cls-4" x="176.8609" y="547.9828" width="12.408" height="21.756"/><rect class="cls-6" x="179.188" y="550.8918" width="7.367" height="13.959"/><path class="cls-7" d="M183.065,558.3554a4.8956,4.8956,0,1,1-4.8961,4.8961,4.8961,4.8961,0,0,1,4.8961-4.8961"/><rect class="cls-4" x="189.164" y="547.9828" width="12.408" height="21.756"/><rect class="cls-6" x="191.49" y="550.8918" width="7.367" height="13.959"/><path class="cls-7" d="M195.3676,558.3554a4.8956,4.8956,0,1,1-4.896,4.8961,4.8967,4.8967,0,0,1,4.896-4.8961"/><rect class="cls-4" x="152.094" y="547.9828" width="12.408" height="21.756"/><rect class="cls-6" x="154.42" y="550.8918" width="7.367" height="13.959"/><path class="cls-7" d="M158.2974,558.3554a4.8956,4.8956,0,1,1-4.8961,4.8961,4.8968,4.8968,0,0,1,4.8961-4.8961"/><rect class="cls-4" x="164.3949" y="547.9828" width="12.408" height="21.756"/><rect class="cls-6" x="166.722" y="550.8918" width="7.367" height="13.959"/><path class="cls-7" d="M170.5992,558.3554a4.8956,4.8956,0,1,1-4.8961,4.8961,4.896,4.896,0,0,1,4.8961-4.8961"/><rect class="cls-19" x="127.221" y="542.4588" width="12.408" height="5.524"/><rect class="cls-7" x="164.341" y="542.4588" width="12.408" height="5.524"/><rect class="cls-19" x="151.931" y="542.4588" width="12.409" height="5.524"/><rect class="cls-7" x="139.523" y="542.4588" width="12.408" height="5.524"/><rect class="cls-7" x="189.161" y="542.4588" width="12.408" height="5.524"/><rect class="cls-19" x="176.753" y="542.4588" width="12.408" height="5.524"/><rect class="cls-19" x="127.221" y="542.4588" width="12.408" height="5.524"/><text class="cls-16" transform="translate(70.0283 566.837)">20</text><text class="cls-23" transform="translate(246.9151 566.837)">10</text><path class="cls-7" d="M223.5059,154.1166h-74.82a.4091.4091,0,0,1-.409-.41V134.2057a.4083.4083,0,0,1,.409-.4091h74.82a.4089.4089,0,0,1,.4089.4091v19.5009a.41.41,0,0,1-.4089.41"/><text class="cls-24" transform="translate(154.3516 144.6577)">40</text><text class="cls-25" transform="translate(154.5186 149.8813)">AMP</text><text class="cls-25" transform="translate(206.1817 144.0537)">AU<tspan class="cls-26" x="7.6665" y="0">T</tspan><tspan class="cls-27" x="10.9282" y="0">O</tspan></text><text class="cls-28" transform="translate(206.7911 148.0884)">RESET</text><path class="cls-7" d="M184.7606,180.27h-74.82a.409.409,0,0,1-.409-.41v-19.501a.4082.4082,0,0,1,.409-.4091h74.82a.4089.4089,0,0,1,.409.4091V179.86a.41.41,0,0,1-.409.41"/><text class="cls-24" transform="translate(115.6064 170.8107)">40</text><text class="cls-25" transform="translate(115.7734 176.0343)">AMP</text><text class="cls-25" transform="translate(167.4365 170.2067)">AU<tspan class="cls-26" x="7.6665" y="0">T</tspan><tspan class="cls-27" x="10.9282" y="0">O</tspan></text><text class="cls-28" transform="translate(168.0459 174.2414)">RESET</text><path class="cls-7" d="M223.5059,216.08h-74.82a.409.409,0,0,1-.409-.41V196.1687a.4083.4083,0,0,1,.409-.4091h74.82a.4089.4089,0,0,1,.4089.4091V215.67a.41.41,0,0,1-.4089.41"/><text class="cls-24" transform="translate(154.3516 206.6207)">40</text><text class="cls-25" transform="translate(154.5186 211.8443)">AMP</text><text class="cls-25" transform="translate(206.1817 206.0167)">AU<tspan class="cls-26" x="7.6665" y="0">T</tspan><tspan class="cls-27" x="10.9282" y="0">O</tspan></text><text class="cls-28" transform="translate(206.7911 210.0513)">RESET</text><path class="cls-7" d="M184.7606,242.2326h-74.82a.409.409,0,0,1-.409-.41v-19.501a.4082.4082,0,0,1,.409-.4091h74.82a.4089.4089,0,0,1,.409.4091v19.501a.41.41,0,0,1-.409.41"/><text class="cls-24" transform="translate(115.6064 232.7737)">40</text><text class="cls-25" transform="translate(115.7734 237.9973)">AMP</text><text class="cls-25" transform="translate(167.4365 232.1697)">AU<tspan class="cls-26" x="7.6665" y="0">T</tspan><tspan class="cls-27" x="10.9282" y="0">O</tspan></text><text class="cls-28" transform="translate(168.0459 236.2044)">RESET</text><path class="cls-7" d="M223.0062,273.0455h-74.82a.409.409,0,0,1-.409-.41v-19.501a.4083.4083,0,0,1,.409-.409h74.82a.4088.4088,0,0,1,.4089.409v19.501a.41.41,0,0,1-.4089.41"/><text class="cls-24" transform="translate(153.8519 263.5867)">40</text><text class="cls-25" transform="translate(154.0189 268.8103)">AMP</text><text class="cls-25" transform="translate(205.682 262.9827)">AU<tspan class="cls-26" x="7.6665" y="0">T</tspan><tspan class="cls-27" x="10.9282" y="0">O</tspan></text><text class="cls-28" transform="translate(206.2914 267.0173)">RESET</text><path class="cls-7" d="M184.2609,299.1985h-74.82a.409.409,0,0,1-.409-.41V279.2877a.4082.4082,0,0,1,.409-.4091h74.82a.4089.4089,0,0,1,.409.4091v19.5009a.41.41,0,0,1-.409.41"/><text class="cls-24" transform="translate(115.1067 289.7397)">40</text><text class="cls-25" transform="translate(115.2737 294.9633)">AMP</text><text class="cls-25" transform="translate(166.9368 289.1357)">AU<tspan class="cls-26" x="7.6665" y="0">T</tspan><tspan class="cls-27" x="10.9282" y="0">O</tspan></text><text class="cls-28" transform="translate(167.5462 293.1704)">RESET</text><path class="cls-7" d="M224.0056,333.5094h-74.82a.409.409,0,0,1-.4089-.41v-19.501a.4081.4081,0,0,1,.4089-.409h74.82a.4089.4089,0,0,1,.409.409V333.1a.41.41,0,0,1-.409.41"/><text class="cls-24" transform="translate(154.8513 324.0505)">40</text><text class="cls-25" transform="translate(155.0183 329.2742)">AMP</text><text class="cls-25" transform="translate(206.6814 323.4465)">AU<tspan class="cls-26" x="7.6665" y="0">T</tspan><tspan class="cls-27" x="10.9282" y="0">O</tspan></text><text class="cls-28" transform="translate(207.2908 327.4812)">RESET</text><path class="cls-7" d="M185.26,359.6624H110.44a.409.409,0,0,1-.409-.41v-19.501a.4082.4082,0,0,1,.409-.409h74.82a.4089.4089,0,0,1,.409.409v19.501a.41.41,0,0,1-.409.41"/><text class="cls-24" transform="translate(116.1061 350.2036)">40</text><text class="cls-25" transform="translate(116.2731 355.4272)">AMP</text><text class="cls-25" transform="translate(167.9362 349.5996)">AU<tspan class="cls-26" x="7.6665" y="0">T</tspan><tspan class="cls-27" x="10.9282" y="0">O</tspan></text><text class="cls-28" transform="translate(168.5456 353.6342)">RESET</text><path class="cls-7" d="M143.2137,398.5858H96.7267a.3238.3238,0,0,1-.3241-.323V378.5889a.3231.3231,0,0,1,.3241-.323h46.487a.3222.3222,0,0,1,.323.323v19.6739a.3229.3229,0,0,1-.323.323"/><text class="cls-24" transform="translate(113.0836 388.7324)">30</text><text class="cls-25" transform="translate(113.9353 395.5159)">AMP</text><text class="cls-29" transform="translate(98.0658 388.0116)">AU<tspan class="cls-30" x="7.0776" y="0">T</tspan><tspan x="10.0889" y="0">O</tspan></text><text class="cls-31" transform="translate(127.201 388.0069)">RESET</text><path class="cls-7" d="M232.3667,398.5858H185.88a.3237.3237,0,0,1-.324-.323V378.5889a.323.323,0,0,1,.324-.323h46.487a.3222.3222,0,0,1,.323.323v19.6739a.3229.3229,0,0,1-.323.323"/><text class="cls-24" transform="translate(202.2366 388.7324)">30</text><text class="cls-25" transform="translate(203.0883 395.5159)">AMP</text><text class="cls-29" transform="translate(187.2188 388.0116)">AU<tspan class="cls-30" x="7.0776" y="0">T</tspan><tspan x="10.0889" y="0">O</tspan></text><text class="cls-31" transform="translate(216.354 388.0069)">RESET</text><path class="cls-7" d="M142.5148,445.7584H96.0278a.3236.3236,0,0,1-.324-.323V425.7615a.3231.3231,0,0,1,.324-.323h46.487a.3222.3222,0,0,1,.323.323v19.6739a.3228.3228,0,0,1-.323.323"/><text class="cls-24" transform="translate(112.3847 435.9051)">30</text><text class="cls-25" transform="translate(113.2364 442.6885)">AMP</text><text class="cls-29" transform="translate(97.3669 435.1842)">AU<tspan class="cls-30" x="7.0776" y="0">T</tspan><tspan x="10.0889" y="0">O</tspan></text><text class="cls-31" transform="translate(126.5021 435.1796)">RESET</text><path class="cls-7" d="M231.6679,445.7584h-46.487a.3237.3237,0,0,1-.3241-.323V425.7615a.3232.3232,0,0,1,.3241-.323h46.487a.3223.3223,0,0,1,.323.323v19.6739a.3229.3229,0,0,1-.323.323"/><text class="cls-24" transform="translate(201.5377 435.9051)">30</text><text class="cls-25" transform="translate(202.3895 442.6885)">AMP</text><text class="cls-29" transform="translate(186.52 435.1842)">AU<tspan class="cls-30" x="7.0776" y="0">T</tspan><tspan x="10.0889" y="0">O</tspan></text><text class="cls-31" transform="translate(215.6552 435.1796)">RESET</text><path class="cls-7" d="M143.5631,488.0391H97.0761a.3236.3236,0,0,1-.324-.323V468.0422a.323.323,0,0,1,.324-.323h46.487a.3222.3222,0,0,1,.323.323v19.6739a.3228.3228,0,0,1-.323.323"/><text class="cls-24" transform="translate(113.433 478.1858)">30</text><text class="cls-25" transform="translate(114.2847 484.9692)">AMP</text><text class="cls-29" transform="translate(98.4152 477.4649)">AU<tspan class="cls-30" x="7.0776" y="0">T</tspan><tspan x="10.0889" y="0">O</tspan></text><text class="cls-31" transform="translate(127.5504 477.4603)">RESET</text><path class="cls-7" d="M232.7162,488.0391h-46.487a.3237.3237,0,0,1-.3241-.323V468.0422a.323.323,0,0,1,.3241-.323h46.487a.3222.3222,0,0,1,.323.323v19.6739a.3229.3229,0,0,1-.323.323"/><text class="cls-24" transform="translate(202.586 478.1858)">30</text><text class="cls-25" transform="translate(203.4377 484.9692)">AMP</text><text class="cls-29" transform="translate(187.5682 477.4649)">AU<tspan class="cls-30" x="7.0776" y="0">T</tspan><tspan x="10.0889" y="0">O</tspan></text><text class="cls-31" transform="translate(216.7034 477.4603)">RESET</text><path class="cls-7" d="M143.2137,533.8141H96.7267a.3238.3238,0,0,1-.3241-.323V513.8172a.3231.3231,0,0,1,.3241-.323h46.487a.3222.3222,0,0,1,.323.323v19.6739a.3229.3229,0,0,1-.323.323"/><text class="cls-24" transform="translate(113.0836 523.9607)">30</text><text class="cls-25" transform="translate(113.9353 530.7441)">AMP</text><text class="cls-29" transform="translate(98.0658 523.2399)">AU<tspan class="cls-30" x="7.0776" y="0">T</tspan><tspan x="10.0889" y="0">O</tspan></text><text class="cls-31" transform="translate(127.201 523.2352)">RESET</text><path class="cls-7" d="M232.3667,533.8141H185.88a.3237.3237,0,0,1-.324-.323V513.8172a.323.323,0,0,1,.324-.323h46.487a.3222.3222,0,0,1,.323.323v19.6739a.3229.3229,0,0,1-.323.323"/><text class="cls-24" transform="translate(202.2366 523.9607)">30</text><text class="cls-25" transform="translate(203.0883 530.7441)">AMP</text><text class="cls-29" transform="translate(187.2188 523.2399)">AU<tspan class="cls-30" x="7.0776" y="0">T</tspan><tspan x="10.0889" y="0">O</tspan></text><text class="cls-31" transform="translate(216.354 523.2352)">RESET</text></svg>