<svg id="Layer_1" data-name="Layer 1" xmlns="http://www.w3.org/2000/svg" xmlns:xlink="http://www.w3.org/1999/xlink" viewBox="0 0 175.6934 81.0913"><defs><style>.cls-1{fill:none;}.cls-2{fill:#e9262a;}.cls-3{fill:#221f1f;}.cls-4{fill:#363435;}.cls-5{fill:#2c2929;}.cls-6{fill:#505052;}.cls-7{fill:#965e25;}.cls-8{clip-path:url(#clip-path);}.cls-9{fill:#f59222;}.cls-10{fill:#ac6b29;}.cls-11{opacity:0.57;}.cls-12{fill:#a6a7aa;}.cls-13{fill:#9c9ea1;}.cls-14{fill:#bd994d;}.cls-15{fill:#857033;}.cls-16{fill:#808083;}.cls-17{fill:#5a5a5c;}.cls-18{fill:#665429;}</style><clipPath id="clip-path"><path class="cls-1" d="M141.0225.015l.1709,80.963,6.2471.015,26.391-14.56a3.4422,3.4422,0,0,0,1.8619-2.229l-.099-47.174a5.0763,5.0763,0,0,0-2.089-2.939L147.5555,0Z"/></clipPath></defs><rect class="cls-2" x="0.0159" y="29.438" width="75.0039" height="2.708"/><rect class="cls-3" x="29.7089" y="9.3997" width="2.7082" height="62.0985" transform="translate(-9.7483 71.0343) rotate(-89.3265)"/><path class="cls-2" d="M40.2732,53.437a1.3461,1.3461,0,0,1-.8442-.2964c-5.22-4.1724-7.8506-8.4521-7.8174-12.7212.0322-4.21,2.6514-8.3608,7.7847-12.3359a1.3539,1.3539,0,0,1,1.6582,2.1406c-4.4434,3.4414-6.7095,6.8784-6.7354,10.2158-.0259,3.3965,2.2622,6.958,6.8,10.5855a1.354,1.354,0,0,1-.8462,2.4116Z"/><rect class="cls-4" x="38.7554" y="26.8505" width="17.34" height="27.6795" transform="translate(-0.0867 0.1013) rotate(-0.1223)"/><polyline class="cls-5" points="141.022 0.014 100.742 0.1 100.913 81.091 141.193 80.978"/><polyline class="cls-6" points="100.757 7.136 97.741 7.142 97.883 74.061 100.899 74.054"/><polygon class="cls-7" points="134.875 81.019 134.703 0.028 141.022 0.014 141.193 80.978 134.875 81.019"/><g class="cls-8"><path class="cls-9" d="M141.0223.0143,147.5552,0l25.95,14.09a5.0757,5.0757,0,0,1,2.089,2.94l.1,47.173a3.445,3.445,0,0,1-1.8621,2.23l-26.392,14.56-6.247-.015Z"/><path class="cls-10" d="M145.79,8.4126l-1.0879-1.8755,1.08-1.88,2.168-.0054,1.0888,1.875-1.08,1.8809Zm-.3066-1.8775.6953,1.2,1.3877-.0029.6914-1.2031L147.5613,5.33l-1.3867.0034Z"/><path class="cls-10" d="M145.8015,13.64l-1.0888-1.8755,1.08-1.88,2.1689-.0054,1.0879,1.8764-1.08,1.8794Zm-.3076-1.8774.6963,1.2,1.3867-.0029.6914-1.2027-.6953-1.2-1.3877.0034Z"/><path class="cls-10" d="M145.8123,18.9126l-1.0879-1.8755,1.0791-1.88,2.1689-.0054,1.0889,1.876-1.08,1.88Zm-.3067-1.8775.6954,1.2,1.3876-.0029L148.28,17.03l-.6963-1.2-1.3877.0034Z"/><path class="cls-10" d="M145.823,24.14l-1.0879-1.8755,1.08-1.88,2.168-.0054,1.0888,1.876-1.08,1.88Zm-.3066-1.8774.6953,1.2,1.3877-.0029.6914-1.2022-.6963-1.2-1.3867.0034Z"/><path class="cls-10" d="M145.79,8.4126l-1.0879-1.8755,1.08-1.88,2.168-.0054,1.0888,1.875-1.08,1.8809Zm-.3066-1.8775.6953,1.2,1.3877-.0029.6914-1.2031L147.5613,5.33l-1.3867.0034Z"/><path class="cls-10" d="M145.8015,13.64l-1.0888-1.8755,1.08-1.88,2.1689-.0054,1.0879,1.8764-1.08,1.8794Zm-.3076-1.8774.6963,1.2,1.3867-.0029.6914-1.2027-.6953-1.2-1.3877.0034Z"/><path class="cls-10" d="M145.8123,18.9126l-1.0879-1.8755,1.0791-1.88,2.1689-.0054,1.0889,1.876-1.08,1.88Zm-.3067-1.8775.6954,1.2,1.3876-.0029L148.28,17.03l-.6963-1.2-1.3877.0034Z"/><path class="cls-10" d="M145.823,24.14l-1.0879-1.8755,1.08-1.88,2.168-.0054,1.0888,1.876-1.08,1.88Zm-.3066-1.8774.6953,1.2,1.3877-.0029.6914-1.2022-.6963-1.2-1.3867.0034Z"/><path class="cls-10" d="M145.8347,29.3091l-1.0888-1.8745,1.08-1.8809,2.1689-.0054,1.0879,1.8765-1.08,1.8794Zm-.3076-1.8765.6963,1.1987,1.3867-.0029.6914-1.2026-.6953-1.2-1.3877.0034Z"/><path class="cls-10" d="M145.8455,34.5381l-1.0889-1.876,1.08-1.8809,2.1689-.0053,1.0889,1.8759-1.08,1.8809Zm-.3076-1.878.6963,1.2,1.3877-.0034.6914-1.2031-.6963-1.2-1.3877.0034Z"/><path class="cls-10" d="M145.8562,39.8105l-1.0879-1.8759,1.08-1.8809,2.168-.0054,1.0889,1.876-1.08,1.8809Zm-.3066-1.8779.6953,1.2,1.3877-.0034.6914-1.2031-.6963-1.2-1.3867.0034Z"/><path class="cls-10" d="M145.8679,45.0376l-1.0888-1.8755,1.08-1.8809,2.1689-.0044,1.0879,1.875-1.08,1.8809ZM145.56,43.16l.6963,1.2,1.3867-.0029.6914-1.2031-.6953-1.1992-1.3877.0024Z"/><path class="cls-10" d="M145.8777,49.9907,144.79,48.1152l1.08-1.8808,2.168-.0044,1.0888,1.875-1.08,1.8808Zm-.3066-1.8774.6953,1.2,1.3877-.003.6914-1.2031-.6963-1.1992-1.3867.0024Z"/><path class="cls-10" d="M145.8894,55.2187l-1.0888-1.8759,1.08-1.88,2.169-.0049,1.0879,1.8755-1.08,1.88Zm-.3076-1.8779.6963,1.2,1.3867-.0034.6914-1.2022-.6953-1.2-1.3877.003Z"/><path class="cls-10" d="M145.9,60.4907l-1.0879-1.876,1.08-1.8794L148.06,56.73l1.0889,1.8759-1.08,1.88Zm-.3067-1.8779.6953,1.2,1.3877-.003.6914-1.2021-.6962-1.2-1.3868.0034Z"/><path class="cls-10" d="M145.9109,65.7182l-1.0879-1.8759,1.08-1.88,2.168-.0049,1.0888,1.876-1.08,1.88Zm-.3066-1.8779.6953,1.2,1.3877-.0029.6914-1.2022-.6963-1.2-1.3867.003Z"/><path class="cls-10" d="M145.9217,70.6069l-1.0879-1.876,1.0791-1.8808,2.1689-.0049,1.0889,1.876-1.08,1.8808Zm-.3067-1.8779.6953,1.2,1.3877-.0029.6914-1.2032-.6963-1.2-1.3877.003Z"/><path class="cls-10" d="M145.9324,75.8345l-1.0879-1.876,1.08-1.8809,2.168-.0039,1.0888,1.875-1.08,1.8809Zm-.3066-1.878.6953,1.2,1.3877-.0029.6914-1.2031-.6963-1.1992-1.3867.0019Z"/><path class="cls-10" d="M145.9441,81.1069l-1.0888-1.876,1.08-1.8808,2.169-.0039,1.0879,1.875-1.08,1.8808Zm-.3076-1.8779.6963,1.2,1.3867-.0029.6914-1.2032-.6953-1.1992-1.3877.002Z"/><path class="cls-10" d="M145.78,3.46,144.6912,1.584l1.08-1.8809L147.94-.3013l1.0879,1.875-1.08,1.8809Zm-.3077-1.8775.6963,1.2,1.3867-.0029.6915-1.2031L147.5515.3765l-1.3877.0024Z"/><path class="cls-10" d="M141.4109,20.1489l-1.0879-1.8755,1.08-1.88,2.168-.0053,1.0888,1.8759-1.08,1.88Zm-.3066-1.8774.6953,1.2,1.3877-.003.6914-1.2021-.6963-1.2-1.3867.0034Z"/><path class="cls-10" d="M141.4226,25.3765l-1.0888-1.8746,1.08-1.8808,2.169-.0054,1.0879,1.8765-1.08,1.8794ZM141.115,23.5l.6963,1.1987,1.3867-.0029.6914-1.2026-.6953-1.2-1.3877.0035Z"/><path class="cls-10" d="M141.4334,30.6489l-1.0889-1.8745,1.08-1.8809,2.1689-.0053,1.0889,1.8759-1.08,1.88Zm-.3076-1.8765.6962,1.1988,1.3877-.003.6914-1.2021-.6962-1.2-1.3877.0034Z"/><path class="cls-10" d="M141.4441,35.8765l-1.0879-1.8746,1.08-1.8808,2.168-.0054,1.0888,1.876-1.08,1.8813ZM141.1375,34l.6953,1.1987,1.3877-.0024.6914-1.2027-.6963-1.2-1.3867.0035Z"/><path class="cls-10" d="M141.4109,20.1489l-1.0879-1.8755,1.08-1.88,2.168-.0053,1.0888,1.8759-1.08,1.88Zm-.3066-1.8774.6953,1.2,1.3877-.003.6914-1.2021-.6963-1.2-1.3867.0034Z"/><path class="cls-10" d="M141.4226,25.3765l-1.0888-1.8746,1.08-1.8808,2.169-.0054,1.0879,1.8765-1.08,1.8794ZM141.115,23.5l.6963,1.1987,1.3867-.0029.6914-1.2026-.6953-1.2-1.3877.0035Z"/><path class="cls-10" d="M141.4334,30.6489l-1.0889-1.8745,1.08-1.8809,2.1689-.0053,1.0889,1.8759-1.08,1.88Zm-.3076-1.8765.6962,1.1988,1.3877-.003.6914-1.2021-.6962-1.2-1.3877.0034Z"/><path class="cls-10" d="M141.4441,35.8765l-1.0879-1.8746,1.08-1.8808,2.168-.0054,1.0888,1.876-1.08,1.8813ZM141.1375,34l.6953,1.1987,1.3877-.0024.6914-1.2027-.6963-1.2-1.3867.0035Z"/><path class="cls-10" d="M141.4549,41.0464l-1.0879-1.8755,1.08-1.8809,2.168-.0044,1.0889,1.875-1.08,1.8809Zm-.3067-1.8775.6953,1.2,1.3877-.0029.6914-1.2031-.6963-1.1992-1.3867.0024Z"/><path class="cls-10" d="M141.4666,46.2739l-1.0889-1.8755,1.08-1.88,2.1689-.0053,1.0879,1.875-1.08,1.8808Zm-.3076-1.8774.6963,1.2,1.3867-.003.6914-1.2031-.6953-1.1992-1.3877.0034Z"/><path class="cls-10" d="M141.4773,51.5464l-1.0879-1.8755,1.08-1.88,2.168-.0054,1.0888,1.875-1.08,1.8809Zm-.3066-1.8775.6953,1.2,1.3877-.0029.6914-1.2031-.6963-1.1992-1.3867.0034Z"/><path class="cls-10" d="M141.489,56.7739,140.4,54.8984l1.08-1.88,2.1689-.0053,1.0879,1.8764-1.08,1.8794Zm-.3076-1.8774.6963,1.2,1.3867-.003.6914-1.2026-.6953-1.2-1.3877.0034Z"/><path class="cls-10" d="M141.4988,61.727l-1.0879-1.8759,1.08-1.88,2.168-.0049,1.0888,1.876-1.08,1.88Zm-.3066-1.8779.6953,1.2,1.3877-.0029.6914-1.2022-.6963-1.2-1.3867.003Z"/><path class="cls-10" d="M141.5105,66.9546l-1.0888-1.875,1.08-1.8809,2.169-.0049,1.0879,1.876-1.08,1.88Zm-.3076-1.877.6963,1.1992,1.3867-.0029.6914-1.2021-.6953-1.2-1.3877.0029Z"/><path class="cls-10" d="M141.5213,72.227l-1.0879-1.875,1.0791-1.8808,2.1689-.0049,1.0889,1.876-1.08,1.88Zm-.3067-1.8769.6953,1.1992,1.3877-.0029.6914-1.2022-.6962-1.2-1.3877.003Z"/><path class="cls-10" d="M141.532,77.4546l-1.0879-1.875,1.08-1.8809,2.168-.0049,1.0888,1.876-1.08,1.8809Zm-.3066-1.877.6953,1.1992,1.3877-.0019L144,75.5718l-.6963-1.2-1.3867.0029Z"/><path class="cls-10" d="M141.5428,82.3432l-1.0889-1.8759,1.08-1.88,2.1689-.0049,1.0889,1.875-1.08,1.8809Zm-.3077-1.8779.6963,1.2,1.3877-.0029.6914-1.2031-.6963-1.1993-1.3877.003Z"/><path class="cls-10" d="M141.3787,4.6958,140.29,2.82,141.37.94,143.5388.935l1.0879,1.875-1.08,1.8809Zm-.3076-1.8775.6963,1.2,1.3867-.003.6914-1.2031L143.15,1.6128l-1.3877.0034Z"/><path class="cls-10" d="M141.3894,9.9687l-1.0879-1.8764,1.08-1.8794,2.168-.0049,1.0889,1.8745-1.08,1.8809Zm-.3066-1.8774.6953,1.2,1.3877-.0034.6914-1.2031-.6963-1.1988-1.3867.003Z"/><path class="cls-10" d="M141.4011,15.1958,140.3123,13.32l1.08-1.88,2.1689-.0054,1.0879,1.8765-1.08,1.8794Zm-.3076-1.8775.6963,1.2,1.3867-.003.6914-1.2026-.6953-1.2-1.3877.0034Z"/><path class="cls-10" d="M154.5984,8.64,153.51,6.7646l1.08-1.88,2.169-.0054,1.0879,1.8764-1.08,1.8794Zm-.3076-1.8774.6963,1.2,1.3867-.0029.6914-1.2027-.6953-1.2-1.3877.0034Z"/><path class="cls-10" d="M154.6092,13.8677l-1.0879-1.8755,1.08-1.88,2.168-.0054,1.0889,1.876-1.08,1.88Zm-.3067-1.8775.6953,1.2,1.3877-.0029.6914-1.2022-.6963-1.2-1.3867.0034Z"/><path class="cls-10" d="M154.6209,19.14l-1.0889-1.8745,1.08-1.8808,2.1689-.0054,1.0879,1.8764-1.08,1.8794Zm-.3076-1.8764.6962,1.1987,1.3868-.0029.6914-1.2027-.6953-1.2-1.3877.0034Z"/><path class="cls-10" d="M154.6316,24.3677l-1.0888-1.8745,1.08-1.8809,2.169-.0054,1.0879,1.876-1.0791,1.8813Zm-.3076-1.8765L155.02,23.69l1.3877-.0024.69-1.2027-.6953-1.2-1.3877.0034Z"/><path class="cls-10" d="M154.5984,8.64,153.51,6.7646l1.08-1.88,2.169-.0054,1.0879,1.8764-1.08,1.8794Zm-.3076-1.8774.6963,1.2,1.3867-.0029.6914-1.2027-.6953-1.2-1.3877.0034Z"/><path class="cls-10" d="M154.6092,13.8677l-1.0879-1.8755,1.08-1.88,2.168-.0054,1.0889,1.876-1.08,1.88Zm-.3067-1.8775.6953,1.2,1.3877-.0029.6914-1.2022-.6963-1.2-1.3867.0034Z"/><path class="cls-10" d="M154.6209,19.14l-1.0889-1.8745,1.08-1.8808,2.1689-.0054,1.0879,1.8764-1.08,1.8794Zm-.3076-1.8764.6962,1.1987,1.3868-.0029.6914-1.2027-.6953-1.2-1.3877.0034Z"/><path class="cls-10" d="M154.6316,24.3677l-1.0888-1.8745,1.08-1.8809,2.169-.0054,1.0879,1.876-1.0791,1.8813Zm-.3076-1.8765L155.02,23.69l1.3877-.0024.69-1.2027-.6953-1.2-1.3877.0034Z"/><path class="cls-10" d="M154.6424,29.5381l-1.0879-1.876,1.08-1.8809,2.168-.0053,1.0889,1.8759-1.08,1.8809Zm-.3067-1.878.6953,1.2,1.3877-.0034.6914-1.2031-.6963-1.2-1.3867.0034Z"/><path class="cls-10" d="M154.6531,34.7651,153.5652,32.89l1.08-1.8808,2.168-.0044,1.0888,1.875-1.08,1.8808Zm-.3066-1.8774.6953,1.2,1.3877-.0029.6914-1.2032-.6963-1.1992-1.3867.0025Z"/><path class="cls-10" d="M154.6648,40.0376l-1.0888-1.8755,1.08-1.8809,2.169-.0044,1.0879,1.875-1.08,1.8809Zm-.3076-1.8775.6963,1.2,1.3867-.0029.6914-1.2031-.6953-1.1992-1.3877.0024Z"/><path class="cls-10" d="M154.6756,45.2651,153.5877,43.39l1.08-1.88,2.1679-.0054,1.0889,1.876-1.08,1.88Zm-.3067-1.8774.6953,1.2,1.3877-.0029.6914-1.2022-.6963-1.2-1.3867.0034Z"/><path class="cls-10" d="M154.6863,50.2187l-1.0889-1.8759,1.08-1.88,2.169-.0049,1.0879,1.8755-1.0791,1.88Zm-.3076-1.8779.6963,1.2,1.3877-.0034.69-1.2022-.6953-1.2-1.3877.003Z"/><path class="cls-10" d="M154.697,55.4458,153.6092,53.57l1.08-1.88,2.168-.0054,1.0889,1.876-1.08,1.88Zm-.3066-1.8775.6953,1.2,1.3877-.003.6914-1.2021-.6963-1.2-1.3867.0034Z"/><path class="cls-10" d="M154.7088,60.7182,153.62,58.8423l1.08-1.8794,2.1689-.0049,1.0879,1.8755-1.08,1.88Zm-.3077-1.8779.6963,1.2,1.3868-.0029.6914-1.2022-.6953-1.2-1.3877.003Z"/><path class="cls-10" d="M154.72,65.9458l-1.0889-1.875,1.08-1.8809,2.169-.0049,1.0888,1.876-1.08,1.8809Zm-.3076-1.877.6963,1.1993,1.3877-.002.6914-1.2031-.6963-1.2-1.3877.0029Z"/><path class="cls-10" d="M154.73,70.8345l-1.0889-1.876,1.08-1.8809,2.1689-.0039,1.0879,1.875-1.08,1.8809Zm-.3077-1.878.6963,1.2,1.3867-.0029.6914-1.2031-.6953-1.1992-1.3877.0019Z"/><path class="cls-10" d="M154.741,76.062l-1.0889-1.876,1.08-1.88,2.1689-.0048,1.0879,1.8759-1.08,1.88Zm-.3076-1.8779.6963,1.2,1.3867-.003.6914-1.2021-.6953-1.2-1.3877.0029Z"/><path class="cls-10" d="M154.7517,81.3345l-1.0879-1.876,1.08-1.88,2.168-.0049,1.0889,1.876-1.08,1.88Zm-.3066-1.878.6953,1.2,1.3877-.0029.6914-1.2022-.6963-1.2-1.3867.0029Z"/><path class="cls-10" d="M154.5877,3.687,153.5,1.8115l1.08-1.88,2.1679-.0053,1.0889,1.8759-1.08,1.88ZM154.281,1.81l.6953,1.2,1.3877-.003.6914-1.2021-.6962-1.2-1.3868.0034Z"/><path class="cls-10" d="M150.22,20.3765l-1.0889-1.8746,1.08-1.8808,2.169-.0054,1.0879,1.8765-1.08,1.8794ZM149.9119,18.5l.6963,1.1987,1.3867-.0029.6914-1.2026-.6953-1.2-1.3877.0035Z"/><path class="cls-10" d="M150.23,25.6055l-1.0879-1.876,1.0791-1.8809,2.1689-.0054,1.0889,1.876-1.08,1.8809Zm-.3067-1.878.6953,1.2,1.3877-.0034.6914-1.2031-.6963-1.2-1.3877.0034Z"/><path class="cls-10" d="M150.241,30.8779l-1.0879-1.876,1.08-1.8808,2.1679-.0054,1.0889,1.876-1.08,1.8808ZM149.9344,29l.6953,1.2,1.3877-.0034.6914-1.2032-.6963-1.2-1.3867.0035Z"/><path class="cls-10" d="M150.2527,36.105,149.1638,34.23l1.08-1.8809,2.169-.0044,1.0879,1.875-1.08,1.8809Zm-.3076-1.8775.6963,1.2,1.3867-.0029.6914-1.2031-.6953-1.1992-1.3877.0024Z"/><path class="cls-10" d="M150.22,20.3765l-1.0889-1.8746,1.08-1.8808,2.169-.0054,1.0879,1.8765-1.08,1.8794ZM149.9119,18.5l.6963,1.1987,1.3867-.0029.6914-1.2026-.6953-1.2-1.3877.0035Z"/><path class="cls-10" d="M150.23,25.6055l-1.0879-1.876,1.0791-1.8809,2.1689-.0054,1.0889,1.876-1.08,1.8809Zm-.3067-1.878.6953,1.2,1.3877-.0034.6914-1.2031-.6963-1.2-1.3877.0034Z"/><path class="cls-10" d="M150.241,30.8779l-1.0879-1.876,1.08-1.8808,2.1679-.0054,1.0889,1.876-1.08,1.8808ZM149.9344,29l.6953,1.2,1.3877-.0034.6914-1.2032-.6963-1.2-1.3867.0035Z"/><path class="cls-10" d="M150.2527,36.105,149.1638,34.23l1.08-1.8809,2.169-.0044,1.0879,1.875-1.08,1.8809Zm-.3076-1.8775.6963,1.2,1.3867-.0029.6914-1.2031-.6953-1.1992-1.3877.0024Z"/><path class="cls-10" d="M150.2635,41.2739l-1.0889-1.8755,1.08-1.88,2.1689-.0053,1.0889,1.875-1.08,1.8808Zm-.3077-1.8774.6963,1.2,1.3877-.003.6914-1.2031-.6963-1.1992-1.3877.0034Z"/><path class="cls-10" d="M150.2742,46.5015l-1.0879-1.8755,1.08-1.88,2.168-.0054,1.0888,1.876-1.08,1.88Zm-.3066-1.8775.6953,1.2,1.3877-.0029.6914-1.2022-.6963-1.2-1.3867.0035Z"/><path class="cls-10" d="M150.2859,51.7739l-1.0889-1.8755,1.08-1.88,2.169-.0053L153.534,49.89l-1.08,1.8794Zm-.3076-1.8774.6963,1.2,1.3867-.003.6914-1.2026-.6953-1.2-1.3877.0034Z"/><path class="cls-10" d="M150.2967,57.0015l-1.0879-1.8746,1.0791-1.8808,2.1689-.0054,1.0889,1.876-1.08,1.88ZM149.99,55.125l.6953,1.1987,1.3877-.0029.6914-1.2022-.6963-1.2-1.3877.0035Z"/><path class="cls-10" d="M150.3074,61.9546l-1.0889-1.875,1.08-1.8809,2.169-.0049,1.0878,1.876-1.08,1.88ZM150,60.0776l.6963,1.1992,1.3867-.0029.6914-1.2021-.6953-1.2-1.3877.0029Z"/><path class="cls-10" d="M150.3181,67.1831l-1.0878-1.876,1.08-1.8808,2.168-.0049,1.0889,1.8759-1.08,1.8809Zm-.3066-1.8779.6953,1.2,1.3877-.003.6914-1.2031-.6963-1.2-1.3867.0029Z"/><path class="cls-10" d="M150.33,72.4556,149.241,70.58l1.08-1.8809,2.1689-.0049,1.0879,1.876-1.08,1.8809Zm-.3077-1.878.6963,1.2,1.3868-.0029.6914-1.2031-.6954-1.2-1.3877.0029Z"/><path class="cls-10" d="M150.3406,77.6831l-1.0889-1.876,1.08-1.8808,2.169-.004,1.0878,1.875-1.08,1.8809Zm-.3076-1.8779.6963,1.2,1.3867-.003.6914-1.2031L152.1121,74.6l-1.3877.0019Z"/><path class="cls-10" d="M150.35,82.5708l-1.0879-1.876,1.08-1.88,2.1679-.0049,1.0889,1.876-1.08,1.88Zm-.3067-1.8779.6953,1.2,1.3877-.003.6914-1.2021-.6962-1.2-1.3868.0029Z"/><path class="cls-10" d="M150.1863,4.9233l-1.0879-1.8755,1.08-1.88,2.168-.0054,1.0888,1.876-1.08,1.88ZM149.88,3.0459l.6953,1.2,1.3877-.0029.6914-1.2022-.6963-1.2-1.3867.0034Z"/><path class="cls-10" d="M150.198,10.1958,149.1092,8.32l1.08-1.88,2.169-.0054,1.0879,1.8765-1.08,1.8794ZM149.89,8.3183l.6963,1.2,1.3867-.003.6914-1.2026-.6953-1.2-1.3877.0034Z"/><path class="cls-10" d="M150.2088,15.4233,149.12,13.5488l1.08-1.8808,2.1689-.0054,1.0889,1.876-1.08,1.88Zm-.3077-1.8764.6963,1.1987,1.3877-.0029.6914-1.2022-.6962-1.2-1.3877.0034Z"/><path class="cls-10" d="M163.406,8.4985,162.3172,6.623l1.08-1.88,2.169-.0054,1.0879,1.875-1.08,1.8808Zm-.3076-1.8774.6963,1.2,1.3867-.0029.6914-1.2032-.6953-1.1992-1.3877.0034Z"/><path class="cls-10" d="M163.4168,13.7261l-1.0889-1.8755,1.08-1.88,2.1689-.0054,1.0879,1.8765-1.08,1.8794Zm-.3076-1.8775.6962,1.2,1.3868-.0029.6914-1.2026-.6953-1.2-1.3877.0034Z"/><path class="cls-10" d="M163.4275,18.9985,162.34,17.123l1.08-1.88,2.168-.0054,1.0888,1.876-1.08,1.88Zm-.3066-1.8774.6953,1.2,1.3877-.0029.6914-1.2022-.6963-1.2-1.3867.0034Z"/><path class="cls-10" d="M163.4392,24.2261,162.35,22.3506l1.08-1.88,2.169-.0054,1.0879,1.8765-1.08,1.8794Zm-.3076-1.8775.6963,1.2,1.3867-.0029.6914-1.2026-.6953-1.2-1.3877.0034Z"/><path class="cls-10" d="M163.406,8.4985,162.3172,6.623l1.08-1.88,2.169-.0054,1.0879,1.875-1.08,1.8808Zm-.3076-1.8774.6963,1.2,1.3867-.0029.6914-1.2032-.6953-1.1992-1.3877.0034Z"/><path class="cls-10" d="M163.4168,13.7261l-1.0889-1.8755,1.08-1.88,2.1689-.0054,1.0879,1.8765-1.08,1.8794Zm-.3076-1.8775.6962,1.2,1.3868-.0029.6914-1.2026-.6953-1.2-1.3877.0034Z"/><path class="cls-10" d="M163.4275,18.9985,162.34,17.123l1.08-1.88,2.168-.0054,1.0888,1.876-1.08,1.88Zm-.3066-1.8774.6953,1.2,1.3877-.0029.6914-1.2022-.6963-1.2-1.3867.0034Z"/><path class="cls-10" d="M163.4392,24.2261,162.35,22.3506l1.08-1.88,2.169-.0054,1.0879,1.8765-1.08,1.8794Zm-.3076-1.8775.6963,1.2,1.3867-.0029.6914-1.2026-.6953-1.2-1.3877.0034Z"/><path class="cls-10" d="M163.45,29.395l-1.0889-1.8745,1.08-1.8809,2.1689-.0053L166.698,27.51l-1.08,1.8814Zm-.3076-1.8765.6962,1.1988,1.3868-.0025.6914-1.2026-.6953-1.2-1.3877.0034Z"/><path class="cls-10" d="M163.4607,34.624l-1.0879-1.876,1.08-1.8808,2.168-.0049,1.0888,1.8755-1.08,1.8808Zm-.3066-1.8779.6953,1.2,1.3877-.0034.6914-1.2032-.6963-1.2-1.3867.003Z"/><path class="cls-10" d="M163.4724,39.8965l-1.0888-1.876,1.08-1.8809,2.169-.0053,1.0879,1.8759-1.08,1.8809Zm-.3076-1.878.6963,1.2,1.3867-.0034.6914-1.2031-.6953-1.2-1.3877.0034Z"/><path class="cls-10" d="M163.4832,45.1235l-1.0889-1.8755,1.08-1.8808,2.1689-.0044,1.0879,1.875-1.08,1.8808Zm-.3076-1.8774.6963,1.2,1.3867-.0029L165.95,43.24l-.6953-1.1992-1.3877.0025Z"/><path class="cls-10" d="M163.4939,50.0771l-1.0888-1.8759,1.08-1.88,2.169-.0049,1.0879,1.8745-1.08,1.8809Zm-.3076-1.8779.6963,1.2,1.3867-.0034.6914-1.2031-.6953-1.1988-1.3877.003Z"/><path class="cls-10" d="M163.5047,55.3042l-1.0889-1.8755,1.08-1.88,2.1689-.0054,1.0879,1.876-1.0791,1.88Zm-.3077-1.8775.6963,1.2,1.3877-.003.69-1.2021-.6954-1.2-1.3876.0034Z"/><path class="cls-10" d="M163.5154,60.5766l-1.0879-1.8759,1.08-1.8794,2.168-.0049,1.0888,1.8755-1.08,1.88Zm-.3066-1.8779.6953,1.2,1.3877-.0029.6914-1.2022-.6963-1.2-1.3867.003Z"/><path class="cls-10" d="M163.5271,65.8042l-1.0888-1.876,1.08-1.88,2.169-.0049,1.0879,1.876-1.08,1.88Zm-.3076-1.8779.6963,1.2,1.3867-.003.6914-1.2021-.6953-1.2-1.3877.0029Z"/><path class="cls-10" d="M163.5369,70.6929l-1.0879-1.876,1.08-1.8809,2.1679-.0049,1.0889,1.876-1.08,1.8809Zm-.3066-1.878.6953,1.2,1.3877-.0029.6914-1.2031-.6963-1.2-1.3867.0029Z"/><path class="cls-10" d="M163.5486,75.92l-1.0889-1.876,1.08-1.8808,2.169-.0039,1.0879,1.875-1.08,1.8808Zm-.3076-1.8779.6963,1.2,1.3867-.003.6914-1.2031-.6953-1.1992-1.3877.0019Z"/><path class="cls-10" d="M163.5594,81.1929l-1.0889-1.876,1.08-1.8809,2.1689-.0039,1.0889,1.875-1.08,1.8809Zm-.3077-1.878.6963,1.2,1.3877-.0029.6914-1.2031-.6963-1.1993-1.3877.002Z"/><path class="cls-10" d="M163.3953,3.5454,162.3064,1.67l1.08-1.8809,2.1689-.0043,1.0879,1.875-1.08,1.8808Zm-.3076-1.8774.6963,1.2,1.3867-.003.6914-1.2031L165.1668.4624l-1.3877.0024Z"/><path class="cls-10" d="M159.0261,20.2353l-1.0878-1.8764,1.08-1.8794,2.168-.0049,1.0889,1.8755-1.08,1.88Zm-.3066-1.8774.6953,1.2,1.3877-.0034.6914-1.2022-.6963-1.2-1.3867.003Z"/><path class="cls-10" d="M159.0379,25.4624l-1.0889-1.8745,1.08-1.8809,2.1689-.0054,1.0879,1.8765-1.08,1.8794Zm-.3076-1.8765.6962,1.1988,1.3868-.003.6914-1.2026-.6953-1.2-1.3877.0034Z"/><path class="cls-10" d="M159.0486,30.7353l-1.0879-1.875,1.08-1.8808,2.168-.0049,1.0888,1.8755-1.08,1.88Zm-.3066-1.8769.6953,1.1992,1.3877-.0034.6914-1.2022-.6963-1.2-1.3867.003Z"/><path class="cls-10" d="M159.0594,35.9624l-1.0879-1.8745,1.08-1.8809,2.168-.0054,1.0889,1.876-1.08,1.8814Zm-.3067-1.8765.6953,1.1988,1.3877-.0025.6914-1.2026-.6963-1.2-1.3867.0034Z"/><path class="cls-10" d="M159.0261,20.2353l-1.0878-1.8764,1.08-1.8794,2.168-.0049,1.0889,1.8755-1.08,1.88Zm-.3066-1.8774.6953,1.2,1.3877-.0034.6914-1.2022-.6963-1.2-1.3867.003Z"/><path class="cls-10" d="M159.0379,25.4624l-1.0889-1.8745,1.08-1.8809,2.1689-.0054,1.0879,1.8765-1.08,1.8794Zm-.3076-1.8765.6962,1.1988,1.3868-.003.6914-1.2026-.6953-1.2-1.3877.0034Z"/><path class="cls-10" d="M159.0486,30.7353l-1.0879-1.875,1.08-1.8808,2.168-.0049,1.0888,1.8755-1.08,1.88Zm-.3066-1.8769.6953,1.1992,1.3877-.0034.6914-1.2022-.6963-1.2-1.3867.003Z"/><path class="cls-10" d="M159.0594,35.9624l-1.0879-1.8745,1.08-1.8809,2.168-.0054,1.0889,1.876-1.08,1.8814Zm-.3067-1.8765.6953,1.1988,1.3877-.0025.6914-1.2026-.6963-1.2-1.3867.0034Z"/><path class="cls-10" d="M159.0711,41.1323l-1.0889-1.8755,1.08-1.8808,2.1689-.0044,1.0879,1.875-1.08,1.8808Zm-.3076-1.8774.6962,1.2,1.3868-.003.6914-1.2031-.6953-1.1992-1.3877.0024Z"/><path class="cls-10" d="M159.0818,46.36l-1.0889-1.8759,1.08-1.88,2.169-.0049,1.0888,1.8745-1.08,1.8809Zm-.3076-1.8779.6963,1.2,1.3877-.0034.6914-1.2031-.6963-1.1988-1.3877.003Z"/><path class="cls-10" d="M159.0926,51.6323l-1.0879-1.8755,1.08-1.88,2.168-.0053,1.0889,1.875-1.08,1.8808Zm-.3067-1.8774.6953,1.2,1.3877-.003.6914-1.2031-.6963-1.1992-1.3867.0034Z"/><path class="cls-10" d="M159.1043,56.86l-1.0889-1.8759,1.08-1.88,2.1689-.0049,1.0879,1.8755-1.08,1.88Zm-.3076-1.8779.6962,1.2,1.3868-.0034.6914-1.2022-.6953-1.2-1.3877.003Z"/><path class="cls-10" d="M159.114,61.813l-1.0879-1.876,1.08-1.88,2.168-.0049,1.0889,1.876-1.08,1.88Zm-.3066-1.878.6953,1.2,1.3877-.0029.6914-1.2021-.6963-1.2-1.3867.0029Z"/><path class="cls-10" d="M159.1258,67.0405l-1.0889-1.875,1.08-1.8808,2.1689-.0049,1.0879,1.8759-1.08,1.88Zm-.3077-1.8769.6963,1.1992,1.3867-.003.6915-1.2021-.6954-1.2L159.51,63.96Z"/><path class="cls-10" d="M159.1365,72.313l-1.0879-1.875,1.08-1.8809,2.168-.0049,1.0888,1.876-1.08,1.88Zm-.3066-1.877.6953,1.1992,1.3877-.0029.6914-1.2021-.6963-1.2-1.3867.0029Z"/><path class="cls-10" d="M159.1482,77.5405l-1.0888-1.875,1.08-1.8808,2.169-.0049,1.0879,1.8759-1.08,1.8809Zm-.3076-1.8769.6963,1.1992,1.3867-.002.6914-1.2031-.6953-1.2-1.3877.0029Z"/><path class="cls-10" d="M159.158,82.4292l-1.0879-1.876,1.08-1.88,2.1679-.0049,1.0889,1.875-1.08,1.8809Zm-.3067-1.8779.6954,1.2,1.3877-.003.6914-1.2031-.6963-1.1992-1.3867.0029Z"/><path class="cls-10" d="M158.9939,4.7817l-1.0888-1.8755,1.08-1.88,2.169-.0054,1.0888,1.875-1.08,1.8808Zm-.3076-1.8774.6963,1.2,1.3877-.0029.6914-1.2032-.6963-1.1992-1.3877.0034Z"/><path class="cls-10" d="M159.0047,10.0542l-1.0879-1.8755,1.08-1.88,2.1679-.0054,1.0889,1.875-1.08,1.8809Zm-.3067-1.8775.6953,1.2,1.3877-.003.6914-1.2031-.6963-1.1992-1.3867.0034Z"/><path class="cls-10" d="M159.0164,15.2817l-1.0889-1.8755,1.08-1.88,2.1689-.0054,1.0879,1.8764-1.08,1.8794Zm-.3076-1.8774.6963,1.2,1.3867-.0029.6914-1.2027-.6953-1.2-1.3877.0034Z"/><path class="cls-10" d="M172.2136,8.7261l-1.0888-1.8755,1.08-1.88,2.1689-.0054,1.0889,1.876-1.08,1.88Zm-.3076-1.8775.6963,1.2,1.3877-.0029.6914-1.2022-.6963-1.2-1.3877.0034Z"/><path class="cls-10" d="M172.2244,13.9536l-1.0879-1.8745,1.08-1.8809,2.1679-.0053,1.0889,1.8759-1.08,1.88Zm-.3066-1.8765.6953,1.1988,1.3877-.003.6914-1.2021-.6963-1.2-1.3867.0034Z"/><path class="cls-10" d="M172.2361,19.2261l-1.0889-1.8746,1.08-1.8808,2.169-.0054,1.0879,1.8765-1.08,1.8794Zm-.3076-1.8765.6963,1.1987,1.3867-.0029.6914-1.2026-.6953-1.2-1.3877.0034Z"/><path class="cls-10" d="M172.2469,24.4536l-1.0879-1.8745,1.08-1.8809,2.168-.0053,1.0889,1.8759-1.08,1.8814Zm-.3067-1.8765.6953,1.1988,1.3877-.0025.6914-1.2026-.6963-1.2-1.3867.0034Z"/><path class="cls-10" d="M172.2136,8.7261l-1.0888-1.8755,1.08-1.88,2.1689-.0054,1.0889,1.876-1.08,1.88Zm-.3076-1.8775.6963,1.2,1.3877-.0029.6914-1.2022-.6963-1.2-1.3877.0034Z"/><path class="cls-10" d="M172.2244,13.9536l-1.0879-1.8745,1.08-1.8809,2.1679-.0053,1.0889,1.8759-1.08,1.88Zm-.3066-1.8765.6953,1.1988,1.3877-.003.6914-1.2021-.6963-1.2-1.3867.0034Z"/><path class="cls-10" d="M172.2361,19.2261l-1.0889-1.8746,1.08-1.8808,2.169-.0054,1.0879,1.8765-1.08,1.8794Zm-.3076-1.8765.6963,1.1987,1.3867-.0029.6914-1.2026-.6953-1.2-1.3877.0034Z"/><path class="cls-10" d="M172.2469,24.4536l-1.0879-1.8745,1.08-1.8809,2.168-.0053,1.0889,1.8759-1.08,1.8814Zm-.3067-1.8765.6953,1.1988,1.3877-.0025.6914-1.2026-.6963-1.2-1.3867.0034Z"/><path class="cls-10" d="M172.2576,29.624,171.17,27.748l1.08-1.8808,2.168-.0049,1.0888,1.8755-1.08,1.8808Zm-.3066-1.8779.6953,1.2,1.3877-.0034.6914-1.2032-.6963-1.2-1.3867.003Z"/><path class="cls-10" d="M172.2693,34.8511,171.18,32.9756l1.08-1.8809,2.169-.0044,1.0879,1.875-1.08,1.8809Zm-.3076-1.8775.6963,1.2,1.3867-.0029.6914-1.2031-.6953-1.1992-1.3877.0024Z"/><path class="cls-10" d="M172.28,40.1235l-1.0889-1.8755,1.08-1.8808,2.1689-.0044,1.0889,1.875-1.08,1.8808Zm-.3077-1.8774.6963,1.2,1.3877-.0029.6914-1.2032-.6963-1.1992-1.3877.0025Z"/><path class="cls-10" d="M172.2908,45.3511l-1.0879-1.8755,1.08-1.88,2.168-.0054,1.0888,1.876-1.08,1.88Zm-.3066-1.8775.6953,1.2,1.3877-.0029.6914-1.2022-.6963-1.2-1.3867.0034Z"/><path class="cls-10" d="M172.3015,50.3042l-1.0879-1.8755,1.0792-1.88,2.1689-.0054,1.0889,1.876-1.08,1.88Zm-.3066-1.8775.6953,1.2,1.3877-.003.6914-1.2021-.6963-1.2-1.3877.0034Z"/><path class="cls-10" d="M172.3123,55.5317l-1.0879-1.8755,1.08-1.88,2.1679-.0054,1.0889,1.876-1.08,1.88Zm-.3067-1.8774.6954,1.2,1.3876-.0029.6915-1.2022-.6963-1.2-1.3868.0034Z"/><path class="cls-10" d="M172.324,60.8042l-1.0889-1.875,1.08-1.88,2.169-.0054,1.0878,1.876-1.08,1.88Zm-.3076-1.877.6963,1.1993,1.3867-.003.6914-1.2021-.6953-1.2-1.3877.0039Z"/><path class="cls-10" d="M172.3347,66.0317l-1.0878-1.875,1.08-1.8808,2.168-.0049,1.0889,1.876-1.08,1.8808Zm-.3066-1.8769.6953,1.1992,1.3877-.002.6914-1.2031-.6963-1.2-1.3867.0029Z"/><path class="cls-10" d="M172.3455,70.92l-1.0889-1.876,1.08-1.8808,2.1689-.0039,1.0879,1.875-1.08,1.8808Zm-.3076-1.8779.6963,1.2,1.3867-.003.6914-1.2031-.6953-1.1992-1.3877.0019Z"/><path class="cls-10" d="M172.3562,76.1479l-1.0879-1.8759,1.0791-1.88,2.169-.0049,1.0889,1.876-1.08,1.88ZM172.05,74.27l.6953,1.2,1.3877-.0029.6914-1.2022-.6963-1.2-1.3877.003Z"/><path class="cls-10" d="M172.367,81.42l-1.0879-1.876,1.08-1.88,2.1679-.0048,1.0889,1.8759-1.08,1.88Zm-.3067-1.8779.6953,1.2,1.3877-.003.6914-1.2021-.6962-1.2-1.3868.0029Z"/><path class="cls-10" d="M172.2029,3.7734,171.115,1.897l1.08-1.8794,2.168-.0049,1.0888,1.8755-1.08,1.88Zm-.3066-1.8774.6953,1.2,1.3877-.0034.6914-1.2022-.6963-1.2-1.3867.0029Z"/><path class="cls-10" d="M167.8347,20.4624l-1.0888-1.8745,1.08-1.8809,2.1689-.0054,1.0889,1.876-1.08,1.8814Zm-.3076-1.8765.6963,1.1988,1.3877-.0025.6914-1.2026-.6963-1.2-1.3877.0034Z"/><path class="cls-10" d="M167.8455,25.6909l-1.0879-1.8755,1.08-1.8808,2.1679-.0054,1.0889,1.876-1.08,1.8808Zm-.3067-1.8774.6954,1.2,1.3877-.003.6914-1.2031-.6963-1.2L168.23,22.61Z"/><path class="cls-10" d="M167.8572,30.9639l-1.0889-1.876,1.08-1.8809,2.169-.0054,1.0879,1.876-1.08,1.8809Zm-.3076-1.878.6963,1.2,1.3867-.0034.6914-1.2031-.6953-1.2-1.3877.0034Z"/><path class="cls-10" d="M167.8679,36.1909l-1.0888-1.8755,1.08-1.8808,2.1689-.0044,1.0889,1.875-1.08,1.8808Zm-.3076-1.8774.6963,1.2,1.3877-.003.6914-1.2031-.6963-1.1992-1.3877.0024Z"/><path class="cls-10" d="M167.8347,20.4624l-1.0888-1.8745,1.08-1.8809,2.1689-.0054,1.0889,1.876-1.08,1.8814Zm-.3076-1.8765.6963,1.1988,1.3877-.0025.6914-1.2026-.6963-1.2-1.3877.0034Z"/><path class="cls-10" d="M167.8455,25.6909l-1.0879-1.8755,1.08-1.8808,2.1679-.0054,1.0889,1.876-1.08,1.8808Zm-.3067-1.8774.6954,1.2,1.3877-.003.6914-1.2031-.6963-1.2L168.23,22.61Z"/><path class="cls-10" d="M167.8572,30.9639l-1.0889-1.876,1.08-1.8809,2.169-.0054,1.0879,1.876-1.08,1.8809Zm-.3076-1.878.6963,1.2,1.3867-.0034.6914-1.2031-.6953-1.2-1.3877.0034Z"/><path class="cls-10" d="M167.8679,36.1909l-1.0888-1.8755,1.08-1.8808,2.1689-.0044,1.0889,1.875-1.08,1.8808Zm-.3076-1.8774.6963,1.2,1.3877-.003.6914-1.2031-.6963-1.1992-1.3877.0024Z"/><path class="cls-10" d="M167.8787,41.36l-1.0879-1.8764,1.08-1.8794,2.1679-.0049,1.0889,1.8745-1.08,1.8809Zm-.3067-1.8774.6954,1.2,1.3877-.0034.6914-1.2031-.6963-1.1988-1.3867.003Z"/><path class="cls-10" d="M167.8894,46.5874l-1.0879-1.8755,1.08-1.88,2.168-.0054,1.0889,1.876-1.08,1.88Zm-.3066-1.8775.6953,1.2,1.3877-.003.6914-1.2021-.6963-1.2-1.3867.0034Z"/><path class="cls-10" d="M167.9011,51.86l-1.0888-1.8759,1.08-1.88,2.1689-.0049,1.0889,1.8755-1.08,1.88Zm-.3076-1.8779.6963,1.2,1.3877-.0034.6914-1.2022-.6963-1.2-1.3877.003Z"/><path class="cls-10" d="M167.9119,57.0874l-1.0879-1.8745,1.08-1.8809,2.1679-.0054,1.0889,1.876-1.08,1.88Zm-.3066-1.8765.6953,1.1988,1.3877-.003.6914-1.2021-.6963-1.2-1.3867.0034Z"/><path class="cls-10" d="M167.9226,62.0405l-1.0888-1.875,1.08-1.8808,2.169-.0049,1.0889,1.8759-1.08,1.88Zm-.3076-1.8769.6963,1.1992,1.3877-.003.6914-1.2021-.6963-1.2-1.3877.0029Z"/><path class="cls-10" d="M167.9334,67.269l-1.0879-1.8759,1.08-1.8809,2.1679-.0049,1.0889,1.876-1.08,1.8808Zm-.3067-1.8779.6953,1.2,1.3877-.0029.6914-1.2032-.6962-1.2-1.3868.003Z"/><path class="cls-10" d="M167.9451,72.5415l-1.0889-1.876,1.08-1.8808,2.169-.0049,1.0878,1.8759-1.08,1.8809Zm-.3076-1.8779.6963,1.2,1.3867-.003.6914-1.2031-.6953-1.2-1.3877.0029Z"/><path class="cls-10" d="M167.9558,77.769l-1.0879-1.8759,1.0791-1.8809,2.169-.0039,1.0889,1.875-1.08,1.8808Zm-.3066-1.8779.6953,1.2,1.3877-.0029.6914-1.2032-.6963-1.1992-1.3877.002Z"/><path class="cls-10" d="M167.9666,82.6567l-1.0889-1.876,1.08-1.88,2.1689-.0049,1.0879,1.876-1.08,1.88Zm-.3076-1.8779.6963,1.2,1.3867-.0029.6914-1.2022-.6953-1.2-1.3877.0029Z"/><path class="cls-10" d="M167.8015,5.0093l-1.0879-1.8755,1.08-1.88,2.168-.0054,1.0889,1.876-1.08,1.88Zm-.3066-1.8775.6953,1.2,1.3877-.0029.6914-1.2021-.6963-1.2-1.3867.0034Z"/><path class="cls-10" d="M167.8133,10.2817l-1.0889-1.8755,1.08-1.88,2.1689-.0054,1.0879,1.876-1.0791,1.88Zm-.3077-1.8774.6963,1.2,1.3877-.0029.6905-1.2022-.6954-1.2-1.3877.0034Z"/><path class="cls-10" d="M167.824,15.5093l-1.0879-1.8745,1.08-1.8809,2.168-.0054,1.0888,1.876-1.08,1.88Zm-.3066-1.8765.6953,1.1987,1.3877-.0029.6914-1.2021-.6963-1.2-1.3867.0034Z"/></g><g class="cls-11"><path class="cls-12" d="M110.3123,68.814l-2.582-1.6124-2.0147.0049-.002-.61,1.95-.0049,2.6407-1.6279.0009.6757-2.0517,1.26,2.0576,1.2637Z"/><path class="cls-12" d="M105.7107,64.7807l-.0068-3.0263,4.5937-.0088.0069,3.0264-.543.0009-.0059-2.416-1.2587.002.0058,2.416-.543.0019-.0058-2.416-1.7061.003.0059,2.416Z"/><path class="cls-12" d="M105.7039,61.0913l-.0059-2.9063,4.5938-.01.001.61-4.0508.0088.0049,2.2959Z"/><path class="cls-12" d="M107.9871,57.1772a2.363,2.363,0,0,1-1.1348-.27,2.0432,2.0432,0,0,1-.792-.7256,2.2471,2.2471,0,0,1-.2822-.7012,4.8338,4.8338,0,0,1-.0889-1.02l-.0019-1.16,4.5937-.01.002,1.1475a4.7415,4.7415,0,0,1-.0938,1.07,2.3517,2.3517,0,0,1-.2666.6709,2.05,2.05,0,0,1-.7783.7334A2.4106,2.4106,0,0,1,107.9871,57.1772Zm.0088-.6386a1.9749,1.9749,0,0,0,.91-.1905,1.383,1.383,0,0,0,.5811-.5625A1.8818,1.8818,0,0,0,109.7,55.21a3.8577,3.8577,0,0,0,.0595-.7315l-.0019-.5742-3.5449.0068.0019.5742a4.03,4.03,0,0,0,.0655.77,1.7538,1.7538,0,0,0,.2421.6025,1.3718,1.3718,0,0,0,.5791.5127A2.052,2.052,0,0,0,107.9959,56.5386Z"/><path class="cls-12" d="M105.6853,52.1963l-.0019-.6514,1.2793-.4531-.0039-1.9873-1.2813-.4473-.001-.62,4.5967,1.6621.002.8145Zm1.8018-1.294,2.2539-.8095-2.2578-.8038Z"/><path class="cls-12" d="M105.6756,48.1807l-.002-.793,1.8233-1.54-.002-.8613-1.8262.0039-.0009-.61,4.5937-.01.0029,1.2861a3.7308,3.7308,0,0,1-.0527.6944,1.4429,1.4429,0,0,1-.1924.5009,1.1455,1.1455,0,0,1-.3955.3907,1.19,1.19,0,0,1-.6055.1416,1.3483,1.3483,0,0,1-.832-.2481,1.5179,1.5179,0,0,1-.5059-.6865Zm3.2978-1.4356a.8288.8288,0,0,0,.3506-.07.6052.6052,0,0,0,.2568-.2295.8677.8677,0,0,0,.125-.3154,2.39,2.39,0,0,0,.0342-.43l-.0019-.7188-1.7334.0039.0019.6172a2.148,2.148,0,0,0,.0518.5059.7928.7928,0,0,0,.1894.3672.8216.8216,0,0,0,.2989.2041A1.16,1.16,0,0,0,108.9734,46.7451Z"/><path class="cls-12" d="M107.0789,43.6011a1.3531,1.3531,0,0,1-.6045-.1289,1.2375,1.2375,0,0,1-.4336-.3477,1.63,1.63,0,0,1-.291-.5684,3.0386,3.0386,0,0,1-.0879-.788l-.0029-1.629,4.5937-.01.0029,1.36a5.52,5.52,0,0,1-.0361.753,1.5205,1.5205,0,0,1-.1533.48.8481.8481,0,0,1-.34.3671,1.0154,1.0154,0,0,1-.497.1143.9225.9225,0,0,1-.5576-.1641,1.2192,1.2192,0,0,1-.37-.4443h-.0244a1.2666,1.2666,0,0,1-.4072.7354A1.1764,1.1764,0,0,1,107.0789,43.6011Zm-.0254-.6358a.9868.9868,0,0,0,.44-.084.6691.6691,0,0,0,.2774-.3037.9939.9939,0,0,0,.0986-.3594,4.5734,4.5734,0,0,0,.0225-.5136l-.002-.96-1.709.0039.002.8086a4.267,4.267,0,0,0,.0429.6572,1.0344,1.0344,0,0,0,.1534.419.7871.7871,0,0,0,.2754.2529A.87.87,0,0,0,107.0535,42.9653Zm2.0937-.3965a.6375.6375,0,0,0,.28-.0556.4319.4319,0,0,0,.1856-.18.8962.8962,0,0,0,.1025-.3526c.0127-.1377.0186-.3086.0186-.5117l-.002-.7285-1.3262.0029.002.79a2.7884,2.7884,0,0,0,.03.457.838.838,0,0,0,.122.3145.513.513,0,0,0,.2393.2041A.8969.8969,0,0,0,109.1472,42.5688Z"/><path class="cls-12" d="M107.3836,37.88l-.0039-1.9258.5586-.002.0039,1.9258Z"/><path class="cls-12" d="M105.6463,34.6919l-.001-.7559,4.1045-2.1875-4.1094.0088-.001-.57,4.5938-.01.0019.9473-3.748,1.9941,3.7519-.0078.001.5713Z"/><path class="cls-12" d="M105.6375,30.3974l-.0059-3.0263,4.5938-.01.0058,3.0264-.5429.001-.0049-2.4161-1.2588.003.0049,2.416-.543.001-.0049-2.4161-1.706.003.0048,2.416Z"/><path class="cls-12" d="M105.6316,26.7065,105.6258,23.8l4.5937-.01.001.61L106.17,24.41l.0049,2.2959Z"/><path class="cls-12" d="M105.6228,23.1362,105.617,20.23l4.5937-.01.001.61-4.0508.0087.0049,2.2959Z"/><path class="cls-12" d="M105.615,19.1265l-.0019-.6514,1.2793-.4531-.0039-1.9873-1.2813-.4473-.001-.62,4.5967,1.6621.002.8144Zm1.8018-1.294,2.2539-.81-2.2578-.8037Z"/></g><rect class="cls-5" x="67.2964" y="20.6742" width="31.4978" height="38.7726" transform="translate(-0.0881 0.1832) rotate(-0.1263)"/><rect class="cls-6" x="81.7279" y="14.2775" width="6.893" height="52.4511" transform="matrix(1, -0.0021, 0.0021, 1, -0.0848, 0.1789)"/><rect class="cls-4" x="73.7583" y="15.6936" width="7.9695" height="49.6501" transform="translate(-0.0847 0.1629) rotate(-0.12)"/><rect class="cls-13" x="56.095" y="21.7586" width="11.2005" height="37.7316" transform="translate(-0.085 0.1294) rotate(-0.1201)"/><path class="cls-14" d="M48.5359,34.4958a3.2845,3.2845,0,1,1,3.277-3.292,3.2855,3.2855,0,0,1-3.277,3.292"/><path class="cls-15" d="M48.5359,34.5309a3.2845,3.2845,0,1,1,3.278-3.292,3.2853,3.2853,0,0,1-3.278,3.292"/><rect class="cls-1" x="44.6813" y="30.4034" width="7.2623" height="1.6158" transform="translate(-9.2034 30.8088) rotate(-32.4627)"/><path class="cls-14" d="M48.5555,43.8483a3.285,3.285,0,1,1,3.2779-3.292,3.2853,3.2853,0,0,1-3.2779,3.292"/><path class="cls-15" d="M48.5555,43.8835a3.285,3.285,0,1,1,3.2779-3.292,3.2854,3.2854,0,0,1-3.2779,3.292"/><rect class="cls-1" x="44.7013" y="39.7557" width="7.2623" height="1.6162" transform="translate(-14.2089 32.1956) rotate(-32.3845)"/><path class="cls-14" d="M48.7918,53.361a3.2845,3.2845,0,1,1,3.277-3.292,3.2851,3.2851,0,0,1-3.277,3.292"/><path class="cls-15" d="M48.7918,53.3962a3.2845,3.2845,0,1,1,3.277-3.292,3.2851,3.2851,0,0,1-3.277,3.292"/><rect class="cls-1" x="44.9377" y="49.2696" width="7.2625" height="1.6149" transform="translate(-19.2799 33.8541) rotate(-32.4287)"/><line class="cls-16" x1="43.4109" y1="26.8591" x2="43.4699" y2="54.5392"/><rect class="cls-17" x="43.1021" y="26.8593" width="0.6768" height="27.6798" transform="translate(-0.0868 0.0928) rotate(-0.1223)"/><line class="cls-16" x1="54.2928" y1="26.8366" x2="54.3517" y2="54.5156"/><rect class="cls-17" x="53.9839" y="26.8364" width="0.6768" height="27.6793" transform="translate(-0.0867 0.116) rotate(-0.1223)"/><path class="cls-13" d="M39.99,33.0576a.7437.7437,0,0,0-.1953.0518h-.0264v-.2637a1.0967,1.0967,0,0,1,.31-.05.9174.9174,0,0,1-.2539-.3135.9385.9385,0,0,1-.0986-.4385.8266.8266,0,0,1,.08-.3769.5956.5956,0,0,1,.5489-.3428.6009.6009,0,0,1,.3769.1221.7584.7584,0,0,1,.2442.3506,1.5092,1.5092,0,0,1,.0869.54l.001.4551.2509-.001a.4849.4849,0,0,0,.377-.1494.6033.6033,0,0,0,.1357-.4258.7371.7371,0,0,0-.0605-.3057.5359.5359,0,0,0-.1641-.2128.3671.3671,0,0,0-.2265-.0772l.0009-.2471a.546.546,0,0,1,.3194.1094.7564.7564,0,0,1,.2431.3037,1.001,1.001,0,0,1,.0938.4395,1.0257,1.0257,0,0,1-.08.4238.6327.6327,0,0,1-.2432.2852.7244.7244,0,0,1-.3984.1025l-1.0762.0029A1.7175,1.7175,0,0,0,39.99,33.0576Zm.0762-.54a.7037.7037,0,0,0,.3164.2754l.4912-.001V32.37a1.39,1.39,0,0,0-.0605-.4307.6245.6245,0,0,0-.1719-.2754.3941.3941,0,0,0-.2647-.0957.4128.4128,0,0,0-.2207.0635A.4267.4267,0,0,0,40,31.8066a.5748.5748,0,0,0-.0567.2627A.8156.8156,0,0,0,40.0662,32.5176Z"/><path class="cls-13" d="M39.9773,31.0093l-.2138.0009-.003-1.5527v-.1787l2.9951-.0068v.2548l-2.7812.0059Z"/><path class="cls-13" d="M39.7859,41.4731l2.5586-1.7256-2.5625.0059v-.2549l2.9951-.0068v.2549l-2.5595,1.7275,2.5634-.0059v.253l-2.9951.0068Z"/><path class="cls-13" d="M41.9363,51.6636a.8711.8711,0,0,1-.3945.2939,1.6449,1.6449,0,0,1-.6006.1016h-.043a1.5988,1.5988,0,0,1-.5888-.1.8846.8846,0,0,1-.3995-.292.7426.7426,0,0,1-.1435-.4561.8782.8782,0,0,1,.09-.4141.7513.7513,0,0,1,.2559-.289l-.3067-.0127v-.2305l3.1592-.0058v.247l-1.2549.002a.7817.7817,0,0,1,.27.2871.8561.8561,0,0,1,.0947.4072A.7733.7733,0,0,1,41.9363,51.6636Zm-.9951.1464a1.2253,1.2253,0,0,0,.667-.163.543.543,0,0,0,.2519-.49.6386.6386,0,0,0-.1279-.4121.798.798,0,0,0-.3291-.2353l-1.0049.0019a.7182.7182,0,0,0-.3037.2481.6733.6733,0,0,0-.1142.4052.5571.5571,0,0,0,.1181.3623.7068.7068,0,0,0,.3262.2149,1.498,1.498,0,0,0,.4736.0683Z"/><path class="cls-13" d="M40.0183,49.8389l-.2138.0009-.003-1.5527v-.1787l2.9952-.0069v.2549l-2.7813.0059Z"/><rect class="cls-18" x="45.2443" y="30.7213" width="6.5691" height="1.0502" transform="translate(-7.8808 43.4669) rotate(-45)"/><rect class="cls-18" x="45.2638" y="40.0734" width="6.5691" height="1.0502" transform="translate(-14.488 46.2199) rotate(-45)"/><rect class="cls-18" x="45.4997" y="49.5866" width="6.5691" height="1.0502" transform="translate(-21.1457 49.173) rotate(-45)"/></svg>