<svg id="Layer_1" data-name="Layer 1" xmlns="http://www.w3.org/2000/svg" xmlns:xlink="http://www.w3.org/1999/xlink" viewBox="0 0 136.9675 81.0913"><defs><style>.cls-1{fill:none;}.cls-2{fill:#363435;}.cls-3{fill:#2c2929;}.cls-4{fill:#505052;}.cls-5{fill:#965e25;}.cls-6{clip-path:url(#clip-path);}.cls-7{fill:#f59222;}.cls-8{fill:#ac6b29;}.cls-9{opacity:0.57;}.cls-10{fill:#a6a7aa;}.cls-11{fill:#9c9ea1;}.cls-12{fill:#bd994d;}.cls-13{fill:#857033;}.cls-14{fill:#808083;}.cls-15{fill:#5a5a5c;}.cls-16{fill:#665429;}</style><clipPath id="clip-path"><path class="cls-1" d="M102.2966.015l.1709,80.963,6.2471.015,26.391-14.56a3.4419,3.4419,0,0,0,1.8619-2.229l-.099-47.174a5.0763,5.0763,0,0,0-2.089-2.939L108.83,0Z"/></clipPath></defs><rect class="cls-2" x="0.0295" y="26.8505" width="17.34" height="27.6795" transform="translate(-0.0868 0.0187) rotate(-0.1223)"/><polyline class="cls-3" points="102.296 0.014 62.016 0.1 62.187 81.091 102.467 80.978"/><polyline class="cls-4" points="62.031 7.136 59.015 7.142 59.157 74.061 62.173 74.054"/><polygon class="cls-5" points="96.149 81.019 95.977 0.028 102.296 0.014 102.467 80.978 96.149 81.019"/><g class="cls-6"><path class="cls-7" d="M102.2964.0143,108.8293,0l25.95,14.09a5.0757,5.0757,0,0,1,2.089,2.94l.1,47.173a3.4447,3.4447,0,0,1-1.8621,2.23l-26.3919,14.56-6.2471-.015Z"/><path class="cls-8" d="M107.0639,8.4126l-1.0878-1.8755,1.08-1.88,2.168-.0054,1.0889,1.875-1.08,1.8809Zm-.3066-1.8775.6953,1.2,1.3877-.0029.6914-1.2031L108.8354,5.33l-1.3867.0034Z"/><path class="cls-8" d="M107.0757,13.64l-1.0889-1.8755,1.08-1.88,2.1689-.0054,1.0879,1.8764-1.08,1.8794Zm-.3077-1.8774.6963,1.2,1.3868-.0029.6914-1.2027-.6954-1.2-1.3876.0034Z"/><path class="cls-8" d="M107.0864,18.9126l-1.0879-1.8755,1.0791-1.88,2.169-.0054,1.0888,1.876-1.08,1.88Zm-.3066-1.8775.6953,1.2,1.3877-.0029.6914-1.2021-.6963-1.2-1.3877.0034Z"/><path class="cls-8" d="M107.0971,24.14l-1.0878-1.8755,1.08-1.88,2.168-.0054,1.0889,1.876-1.08,1.88Zm-.3066-1.8774.6953,1.2,1.3877-.0029.6914-1.2022-.6963-1.2-1.3867.0034Z"/><path class="cls-8" d="M107.0639,8.4126l-1.0878-1.8755,1.08-1.88,2.168-.0054,1.0889,1.875-1.08,1.8809Zm-.3066-1.8775.6953,1.2,1.3877-.0029.6914-1.2031L108.8354,5.33l-1.3867.0034Z"/><path class="cls-8" d="M107.0757,13.64l-1.0889-1.8755,1.08-1.88,2.1689-.0054,1.0879,1.8764-1.08,1.8794Zm-.3077-1.8774.6963,1.2,1.3868-.0029.6914-1.2027-.6954-1.2-1.3876.0034Z"/><path class="cls-8" d="M107.0864,18.9126l-1.0879-1.8755,1.0791-1.88,2.169-.0054,1.0888,1.876-1.08,1.88Zm-.3066-1.8775.6953,1.2,1.3877-.0029.6914-1.2021-.6963-1.2-1.3877.0034Z"/><path class="cls-8" d="M107.0971,24.14l-1.0878-1.8755,1.08-1.88,2.168-.0054,1.0889,1.876-1.08,1.88Zm-.3066-1.8774.6953,1.2,1.3877-.0029.6914-1.2022-.6963-1.2-1.3867.0034Z"/><path class="cls-8" d="M107.1089,29.3091,106.02,27.4346l1.08-1.8809,2.1689-.0054,1.0879,1.8765-1.08,1.8794Zm-.3077-1.8765.6963,1.1987,1.3868-.0029.6914-1.2026-.6954-1.2-1.3876.0034Z"/><path class="cls-8" d="M107.12,34.5381l-1.0889-1.876,1.08-1.8809,2.169-.0053,1.0888,1.8759-1.08,1.8809Zm-.3076-1.878.6963,1.2,1.3877-.0034.6914-1.2031-.6963-1.2-1.3877.0034Z"/><path class="cls-8" d="M107.13,39.8105l-1.0878-1.8759,1.08-1.8809,2.168-.0054,1.0889,1.876-1.08,1.8809Zm-.3066-1.8779.6953,1.2,1.3877-.0034.6914-1.2031-.6963-1.2-1.3867.0034Z"/><path class="cls-8" d="M107.1421,45.0376l-1.0889-1.8755,1.08-1.8809,2.1689-.0044,1.0879,1.875-1.08,1.8809Zm-.3076-1.8775.6962,1.2,1.3868-.0029.6914-1.2031-.6953-1.1992-1.3877.0024Z"/><path class="cls-8" d="M107.1518,49.9907l-1.0879-1.8755,1.08-1.8808,2.168-.0044,1.0889,1.875-1.08,1.8808Zm-.3066-1.8774.6953,1.2,1.3877-.003.6914-1.2031-.6963-1.1992-1.3867.0024Z"/><path class="cls-8" d="M107.1636,55.2187l-1.0889-1.8759,1.08-1.88,2.1689-.0049,1.0879,1.8755-1.08,1.88Zm-.3077-1.8779.6963,1.2,1.3867-.0034.6914-1.2022-.6953-1.2-1.3877.003Z"/><path class="cls-8" d="M107.1743,60.4907l-1.0879-1.876,1.08-1.8794,2.168-.0053,1.0888,1.8759-1.08,1.88Zm-.3066-1.8779.6953,1.2,1.3877-.003.6914-1.2021-.6963-1.2-1.3867.0034Z"/><path class="cls-8" d="M107.185,65.7182l-1.0879-1.8759,1.08-1.88,2.168-.0049,1.0889,1.876-1.08,1.88Zm-.3066-1.8779.6953,1.2,1.3877-.0029.6914-1.2022-.6963-1.2-1.3867.003Z"/><path class="cls-8" d="M107.1958,70.6069l-1.0879-1.876L107.187,66.85l2.1689-.0049,1.0889,1.876-1.08,1.8808Zm-.3067-1.8779.6954,1.2,1.3876-.0029.6915-1.2032-.6963-1.2-1.3877.003Z"/><path class="cls-8" d="M107.2065,75.8345l-1.0879-1.876,1.08-1.8809,2.168-.0039,1.0888,1.875-1.08,1.8809Zm-.3066-1.878.6953,1.2,1.3877-.0029.6914-1.2031-.6963-1.1992-1.3867.0019Z"/><path class="cls-8" d="M107.2182,81.1069l-1.0888-1.876,1.08-1.8808,2.1689-.0039,1.0879,1.875-1.08,1.8808Zm-.3076-1.8779.6963,1.2,1.3867-.0029.6914-1.2032-.6953-1.1992-1.3877.002Z"/><path class="cls-8" d="M107.0542,3.46,105.9653,1.584l1.08-1.8809,2.1689-.0044,1.0879,1.875-1.08,1.8809Zm-.3076-1.8775.6962,1.2,1.3868-.0029.6914-1.2031L108.8257.3765,107.438.3789Z"/><path class="cls-8" d="M102.685,20.1489l-1.0879-1.8755,1.08-1.88,2.168-.0053,1.0889,1.8759-1.08,1.88Zm-.3066-1.8774.6953,1.2,1.3877-.003.6914-1.2021-.6963-1.2-1.3867.0034Z"/><path class="cls-8" d="M102.6968,25.3765l-1.0889-1.8746,1.08-1.8808,2.1689-.0054,1.0879,1.8765-1.08,1.8794ZM102.3891,23.5l.6963,1.1987,1.3867-.0029.6915-1.2026-.6954-1.2-1.3877.0035Z"/><path class="cls-8" d="M102.7075,30.6489l-1.0889-1.8745,1.08-1.8809,2.169-.0053,1.0888,1.8759-1.08,1.88ZM102.4,28.7724l.6963,1.1988,1.3877-.003.6914-1.2021-.6963-1.2-1.3877.0034Z"/><path class="cls-8" d="M102.7182,35.8765,101.63,34.0019l1.08-1.8808,2.168-.0054,1.0889,1.876-1.08,1.8813ZM102.4116,34l.6953,1.1987,1.3877-.0024.6914-1.2027-.6963-1.2-1.3867.0035Z"/><path class="cls-8" d="M102.685,20.1489l-1.0879-1.8755,1.08-1.88,2.168-.0053,1.0889,1.8759-1.08,1.88Zm-.3066-1.8774.6953,1.2,1.3877-.003.6914-1.2021-.6963-1.2-1.3867.0034Z"/><path class="cls-8" d="M102.6968,25.3765l-1.0889-1.8746,1.08-1.8808,2.1689-.0054,1.0879,1.8765-1.08,1.8794ZM102.3891,23.5l.6963,1.1987,1.3867-.0029.6915-1.2026-.6954-1.2-1.3877.0035Z"/><path class="cls-8" d="M102.7075,30.6489l-1.0889-1.8745,1.08-1.8809,2.169-.0053,1.0888,1.8759-1.08,1.88ZM102.4,28.7724l.6963,1.1988,1.3877-.003.6914-1.2021-.6963-1.2-1.3877.0034Z"/><path class="cls-8" d="M102.7182,35.8765,101.63,34.0019l1.08-1.8808,2.168-.0054,1.0889,1.876-1.08,1.8813ZM102.4116,34l.6953,1.1987,1.3877-.0024.6914-1.2027-.6963-1.2-1.3867.0035Z"/><path class="cls-8" d="M102.729,41.0464l-1.0879-1.8755,1.08-1.8809,2.1679-.0044,1.0889,1.875-1.08,1.8809Zm-.3067-1.8775.6954,1.2,1.3876-.0029.6915-1.2031-.6963-1.1992-1.3868.0024Z"/><path class="cls-8" d="M102.7407,46.2739l-1.0889-1.8755,1.08-1.88,2.169-.0053,1.0878,1.875-1.08,1.8808Zm-.3076-1.8774.6963,1.2,1.3867-.003.6914-1.2031-.6953-1.1992-1.3877.0034Z"/><path class="cls-8" d="M102.7514,51.5464l-1.0878-1.8755,1.08-1.88,2.168-.0054,1.0889,1.875-1.08,1.8809Zm-.3066-1.8775.6953,1.2,1.3877-.0029.6914-1.2031-.6963-1.1992-1.3867.0034Z"/><path class="cls-8" d="M102.7632,56.7739l-1.0889-1.8755,1.08-1.88,2.1689-.0053,1.0879,1.8764-1.08,1.8794Zm-.3077-1.8774.6963,1.2,1.3868-.003.6914-1.2026-.6954-1.2-1.3876.0034Z"/><path class="cls-8" d="M102.7729,61.727l-1.0879-1.8759,1.08-1.88,2.168-.0049,1.0889,1.876-1.08,1.88Zm-.3066-1.8779.6953,1.2,1.3877-.0029.6914-1.2022-.6963-1.2-1.3867.003Z"/><path class="cls-8" d="M102.7846,66.9546l-1.0888-1.875,1.08-1.8809,2.1689-.0049,1.0879,1.876-1.08,1.88Zm-.3076-1.877.6963,1.1992,1.3867-.0029.6914-1.2021-.6953-1.2-1.3877.0029Z"/><path class="cls-8" d="M102.7954,72.227l-1.0879-1.875,1.0791-1.8808,2.1689-.0049,1.0889,1.876-1.08,1.88Zm-.3067-1.8769.6954,1.1992,1.3877-.0029.6914-1.2022-.6963-1.2-1.3877.003Z"/><path class="cls-8" d="M102.8061,77.4546l-1.0879-1.875,1.08-1.8809,2.168-.0049,1.0889,1.876-1.08,1.8809Zm-.3066-1.877.6953,1.1992,1.3877-.0019.6914-1.2031-.6963-1.2-1.3867.0029Z"/><path class="cls-8" d="M102.8169,82.3432l-1.0889-1.8759,1.08-1.88,2.1689-.0049,1.0889,1.875-1.08,1.8809Zm-.3076-1.8779.6962,1.2,1.3877-.0029.6914-1.2031-.6962-1.1993-1.3877.003Z"/><path class="cls-8" d="M102.6528,4.6958,101.5639,2.82l1.08-1.88L104.813.935l1.0879,1.875-1.08,1.8809Zm-.3076-1.8775.6963,1.2,1.3867-.003L105.12,2.812l-.6953-1.1992-1.3877.0034Z"/><path class="cls-8" d="M102.6636,9.9687l-1.0879-1.8764,1.08-1.8794,2.168-.0049,1.0889,1.8745-1.08,1.8809Zm-.3067-1.8774.6953,1.2,1.3877-.0034.6914-1.2031-.6963-1.1988-1.3867.003Z"/><path class="cls-8" d="M102.6753,15.1958,101.5864,13.32l1.08-1.88,2.1689-.0054,1.0879,1.8765-1.08,1.8794Zm-.3076-1.8775.6962,1.2,1.3868-.003.6914-1.2026-.6953-1.2-1.3877.0034Z"/><path class="cls-8" d="M115.8725,8.64l-1.0888-1.8755,1.08-1.88,2.169-.0054,1.0879,1.8764-1.08,1.8794Zm-.3076-1.8774.6963,1.2,1.3867-.0029.6914-1.2027-.6953-1.2-1.3877.0034Z"/><path class="cls-8" d="M115.8833,13.8677l-1.0879-1.8755,1.08-1.88,2.1679-.0054,1.0889,1.876-1.08,1.88Zm-.3067-1.8775.6954,1.2,1.3876-.0029.6915-1.2022-.6963-1.2-1.3868.0034Z"/><path class="cls-8" d="M115.895,19.14l-1.0889-1.8745,1.08-1.8808,2.169-.0054,1.0878,1.8764-1.08,1.8794Zm-.3076-1.8764.6963,1.1987L117.67,18.46l.6914-1.2027-.6953-1.2-1.3877.0034Z"/><path class="cls-8" d="M115.9057,24.3677l-1.0888-1.8745,1.08-1.8809,2.1689-.0054,1.0879,1.876-1.0791,1.8813Zm-.3076-1.8765.6963,1.1987,1.3877-.0024.69-1.2027-.6953-1.2-1.3877.0034Z"/><path class="cls-8" d="M115.8725,8.64l-1.0888-1.8755,1.08-1.88,2.169-.0054,1.0879,1.8764-1.08,1.8794Zm-.3076-1.8774.6963,1.2,1.3867-.0029.6914-1.2027-.6953-1.2-1.3877.0034Z"/><path class="cls-8" d="M115.8833,13.8677l-1.0879-1.8755,1.08-1.88,2.1679-.0054,1.0889,1.876-1.08,1.88Zm-.3067-1.8775.6954,1.2,1.3876-.0029.6915-1.2022-.6963-1.2-1.3868.0034Z"/><path class="cls-8" d="M115.895,19.14l-1.0889-1.8745,1.08-1.8808,2.169-.0054,1.0878,1.8764-1.08,1.8794Zm-.3076-1.8764.6963,1.1987L117.67,18.46l.6914-1.2027-.6953-1.2-1.3877.0034Z"/><path class="cls-8" d="M115.9057,24.3677l-1.0888-1.8745,1.08-1.8809,2.1689-.0054,1.0879,1.876-1.0791,1.8813Zm-.3076-1.8765.6963,1.1987,1.3877-.0024.69-1.2027-.6953-1.2-1.3877.0034Z"/><path class="cls-8" d="M115.9165,29.5381l-1.0879-1.876,1.08-1.8809,2.1679-.0053,1.0889,1.8759-1.08,1.8809ZM115.61,27.66l.6954,1.2,1.3876-.0034.6914-1.2031-.6962-1.2-1.3868.0034Z"/><path class="cls-8" d="M115.9272,34.7651,114.8393,32.89l1.08-1.8808,2.168-.0044,1.0888,1.875-1.08,1.8808Zm-.3066-1.8774.6953,1.2,1.3877-.0029.6914-1.2032-.6963-1.1992-1.3867.0025Z"/><path class="cls-8" d="M115.9389,40.0376,114.85,38.1621l1.08-1.8809,2.1689-.0044,1.0879,1.875-1.08,1.8809Zm-.3076-1.8775.6963,1.2,1.3867-.0029.6914-1.2031-.6953-1.1992-1.3877.0024Z"/><path class="cls-8" d="M115.95,45.2651,114.8618,43.39l1.08-1.88,2.1679-.0054,1.0889,1.876-1.08,1.88Zm-.3067-1.8774.6954,1.2,1.3877-.0029.6914-1.2022-.6963-1.2-1.3867.0034Z"/><path class="cls-8" d="M115.96,50.2187l-1.0888-1.8759,1.08-1.88,2.169-.0049,1.0879,1.8755-1.0791,1.88Zm-.3076-1.8779.6963,1.2,1.3877-.0034.69-1.2022-.6953-1.2-1.3877.003Z"/><path class="cls-8" d="M115.9712,55.4458,114.8833,53.57l1.08-1.88,2.1679-.0054,1.0889,1.876-1.08,1.88Zm-.3067-1.8775.6953,1.2,1.3877-.003.6914-1.2021-.6962-1.2-1.3868.0034Z"/><path class="cls-8" d="M115.9829,60.7182l-1.0889-1.8759,1.08-1.8794,2.1689-.0049,1.0879,1.8755-1.08,1.88Zm-.3076-1.8779.6963,1.2,1.3867-.0029.6914-1.2022-.6953-1.2-1.3877.003Z"/><path class="cls-8" d="M115.9936,65.9458l-1.0888-1.875,1.08-1.8809,2.169-.0049,1.0889,1.876-1.08,1.8809Zm-.3076-1.877.6963,1.1993,1.3877-.002.6914-1.2031-.6963-1.2-1.3877.0029Z"/><path class="cls-8" d="M116.0044,70.8345l-1.0889-1.876,1.08-1.8809,2.1689-.0039,1.0879,1.875-1.08,1.8809Zm-.3076-1.878.6962,1.2,1.3868-.0029.6914-1.2031-.6953-1.1992-1.3877.0019Z"/><path class="cls-8" d="M116.0151,76.062l-1.0889-1.876,1.08-1.88,2.169-.0048,1.0879,1.8759-1.08,1.88Zm-.3076-1.8779.6963,1.2,1.3867-.003.6914-1.2021-.6953-1.2-1.3877.0029Z"/><path class="cls-8" d="M116.0259,81.3345l-1.0879-1.876,1.08-1.88,2.168-.0049,1.0889,1.876-1.08,1.88Zm-.3067-1.878.6953,1.2,1.3877-.0029.6914-1.2022-.6963-1.2-1.3867.0029Z"/><path class="cls-8" d="M115.8618,3.687l-1.0879-1.8755,1.08-1.88,2.168-.0053,1.0888,1.8759-1.08,1.88ZM115.5552,1.81l.6953,1.2,1.3877-.003.6914-1.2021-.6963-1.2-1.3867.0034Z"/><path class="cls-8" d="M111.4936,20.3765l-1.0888-1.8746,1.08-1.8808,2.169-.0054,1.0879,1.8765-1.08,1.8794ZM111.186,18.5l.6963,1.1987,1.3867-.0029.6914-1.2026-.6953-1.2-1.3877.0035Z"/><path class="cls-8" d="M111.5044,25.6055l-1.0879-1.876,1.0791-1.8809,2.1689-.0054,1.0889,1.876-1.08,1.8809Zm-.3067-1.878.6953,1.2,1.3877-.0034.6914-1.2031-.6962-1.2-1.3877.0034Z"/><path class="cls-8" d="M111.5151,30.8779l-1.0879-1.876,1.08-1.8808,2.168-.0054,1.0888,1.876-1.08,1.8808ZM111.2085,29l.6953,1.2,1.3877-.0034.6914-1.2032-.6963-1.2-1.3867.0035Z"/><path class="cls-8" d="M111.5268,36.105,110.438,34.23l1.08-1.8809,2.169-.0044,1.0879,1.875-1.08,1.8809Zm-.3076-1.8775.6963,1.2,1.3867-.0029.6914-1.2031-.6953-1.1992-1.3877.0024Z"/><path class="cls-8" d="M111.4936,20.3765l-1.0888-1.8746,1.08-1.8808,2.169-.0054,1.0879,1.8765-1.08,1.8794ZM111.186,18.5l.6963,1.1987,1.3867-.0029.6914-1.2026-.6953-1.2-1.3877.0035Z"/><path class="cls-8" d="M111.5044,25.6055l-1.0879-1.876,1.0791-1.8809,2.1689-.0054,1.0889,1.876-1.08,1.8809Zm-.3067-1.878.6953,1.2,1.3877-.0034.6914-1.2031-.6962-1.2-1.3877.0034Z"/><path class="cls-8" d="M111.5151,30.8779l-1.0879-1.876,1.08-1.8808,2.168-.0054,1.0888,1.876-1.08,1.8808ZM111.2085,29l.6953,1.2,1.3877-.0034.6914-1.2032-.6963-1.2-1.3867.0035Z"/><path class="cls-8" d="M111.5268,36.105,110.438,34.23l1.08-1.8809,2.169-.0044,1.0879,1.875-1.08,1.8809Zm-.3076-1.8775.6963,1.2,1.3867-.0029.6914-1.2031-.6953-1.1992-1.3877.0024Z"/><path class="cls-8" d="M111.5376,41.2739l-1.0889-1.8755,1.08-1.88,2.1689-.0053,1.0889,1.875-1.08,1.8808Zm-.3076-1.8774.6962,1.2,1.3877-.003.6914-1.2031-.6962-1.1992-1.3877.0034Z"/><path class="cls-8" d="M111.5483,46.5015,110.46,44.626l1.08-1.88,2.168-.0054,1.0888,1.876-1.08,1.88Zm-.3066-1.8775.6953,1.2,1.3877-.0029.6914-1.2022-.6963-1.2-1.3867.0035Z"/><path class="cls-8" d="M111.56,51.7739l-1.0888-1.8755,1.08-1.88,2.169-.0053,1.0879,1.8764-1.08,1.8794Zm-.3076-1.8774.6963,1.2,1.3867-.003.6914-1.2026-.6953-1.2-1.3877.0034Z"/><path class="cls-8" d="M111.5708,57.0015l-1.0879-1.8746,1.0791-1.8808,2.1689-.0054,1.0889,1.876-1.08,1.88Zm-.3067-1.8765.6954,1.1987,1.3876-.0029.6915-1.2022-.6963-1.2-1.3877.0035Z"/><path class="cls-8" d="M111.5815,61.9546l-1.0888-1.875,1.08-1.8809,2.169-.0049L114.83,60.07l-1.08,1.88Zm-.3076-1.877.6963,1.1992,1.3867-.0029.6914-1.2021-.6953-1.2-1.3877.0029Z"/><path class="cls-8" d="M111.5923,67.1831l-1.0879-1.876,1.08-1.8808,2.1679-.0049,1.0889,1.8759-1.08,1.8809Zm-.3067-1.8779.6953,1.2,1.3877-.003.6914-1.2031-.6963-1.2-1.3867.0029Z"/><path class="cls-8" d="M111.604,72.4556l-1.0889-1.876,1.08-1.8809,2.1689-.0049,1.0879,1.876-1.08,1.8809Zm-.3076-1.878.6963,1.2,1.3867-.0029.6914-1.2031-.6953-1.2-1.3877.0029Z"/><path class="cls-8" d="M111.6147,77.6831l-1.0888-1.876,1.08-1.8808,2.169-.004,1.0879,1.875-1.08,1.8809Zm-.3076-1.8779.6963,1.2,1.3867-.003.6914-1.2031L113.3862,74.6l-1.3877.0019Z"/><path class="cls-8" d="M111.6245,82.5708l-1.0879-1.876,1.08-1.88,2.1679-.0049,1.0889,1.876-1.08,1.88Zm-.3067-1.8779.6954,1.2,1.3877-.003.6914-1.2021-.6963-1.2-1.3867.0029Z"/><path class="cls-8" d="M111.46,4.9233l-1.0879-1.8755,1.08-1.88,2.168-.0054,1.0889,1.876-1.08,1.88Zm-.3066-1.8774.6953,1.2,1.3877-.0029.6914-1.2022-.6963-1.2-1.3867.0034Z"/><path class="cls-8" d="M111.4721,10.1958,110.3833,8.32l1.08-1.88,2.1689-.0054L114.72,8.3115l-1.08,1.8794Zm-.3076-1.8775.6963,1.2,1.3867-.003.6914-1.2026-.6953-1.2-1.3877.0034Z"/><path class="cls-8" d="M111.4829,15.4233l-1.0889-1.8745,1.08-1.8808,2.1689-.0054,1.0889,1.876-1.08,1.88Zm-.3076-1.8764.6963,1.1987,1.3877-.0029.6914-1.2022-.6963-1.2-1.3877.0034Z"/><path class="cls-8" d="M124.68,8.4985,123.5913,6.623l1.08-1.88,2.1689-.0054,1.0879,1.875-1.08,1.8808Zm-.3077-1.8774.6963,1.2,1.3867-.0029.6915-1.2032-.6954-1.1992-1.3877.0034Z"/><path class="cls-8" d="M124.6909,13.7261l-1.0889-1.8755,1.08-1.88,2.169-.0054,1.0878,1.8765-1.08,1.8794Zm-.3076-1.8775.6963,1.2,1.3867-.0029.6914-1.2026-.6953-1.2-1.3877.0034Z"/><path class="cls-8" d="M124.7016,18.9985l-1.0879-1.8755,1.08-1.88,2.168-.0054,1.0889,1.876-1.08,1.88Zm-.3066-1.8774.6953,1.2,1.3877-.0029.6914-1.2022-.6963-1.2-1.3867.0034Z"/><path class="cls-8" d="M124.7134,24.2261l-1.0889-1.8755,1.08-1.88,2.1689-.0054,1.0879,1.8765-1.08,1.8794Zm-.3077-1.8775.6963,1.2,1.3867-.0029.6915-1.2026-.6954-1.2-1.3877.0034Z"/><path class="cls-8" d="M124.68,8.4985,123.5913,6.623l1.08-1.88,2.1689-.0054,1.0879,1.875-1.08,1.8808Zm-.3077-1.8774.6963,1.2,1.3867-.0029.6915-1.2032-.6954-1.1992-1.3877.0034Z"/><path class="cls-8" d="M124.6909,13.7261l-1.0889-1.8755,1.08-1.88,2.169-.0054,1.0878,1.8765-1.08,1.8794Zm-.3076-1.8775.6963,1.2,1.3867-.0029.6914-1.2026-.6953-1.2-1.3877.0034Z"/><path class="cls-8" d="M124.7016,18.9985l-1.0879-1.8755,1.08-1.88,2.168-.0054,1.0889,1.876-1.08,1.88Zm-.3066-1.8774.6953,1.2,1.3877-.0029.6914-1.2022-.6963-1.2-1.3867.0034Z"/><path class="cls-8" d="M124.7134,24.2261l-1.0889-1.8755,1.08-1.88,2.1689-.0054,1.0879,1.8765-1.08,1.8794Zm-.3077-1.8775.6963,1.2,1.3867-.0029.6915-1.2026-.6954-1.2-1.3877.0034Z"/><path class="cls-8" d="M124.7241,29.395l-1.0889-1.8745,1.08-1.8809,2.1689-.0053,1.0879,1.8759-1.08,1.8814Zm-.3076-1.8765.6963,1.1988,1.3867-.0025.6914-1.2026-.6953-1.2-1.3877.0034Z"/><path class="cls-8" d="M124.7348,34.624l-1.0878-1.876,1.08-1.8808,2.168-.0049,1.0889,1.8755-1.08,1.8808Zm-.3066-1.8779.6953,1.2,1.3877-.0034.6914-1.2032-.6963-1.2-1.3867.003Z"/><path class="cls-8" d="M124.7466,39.8965l-1.0889-1.876,1.08-1.8809,2.1689-.0053,1.0879,1.8759-1.08,1.8809Zm-.3077-1.878.6963,1.2,1.3868-.0034.6914-1.2031-.6954-1.2-1.3877.0034Z"/><path class="cls-8" d="M124.7573,45.1235l-1.0889-1.8755,1.08-1.8808,2.169-.0044,1.0878,1.875-1.08,1.8808Zm-.3076-1.8774.6963,1.2,1.3867-.0029.6914-1.2032-.6953-1.1992-1.3877.0025Z"/><path class="cls-8" d="M124.768,50.0771l-1.0888-1.8759,1.08-1.88,2.169-.0049,1.0879,1.8745-1.08,1.8809Zm-.3076-1.8779.6963,1.2,1.3867-.0034.6914-1.2031-.6953-1.1988-1.3877.003Z"/><path class="cls-8" d="M124.7788,55.3042,123.69,53.4287l1.08-1.88,2.1689-.0054,1.0879,1.876-1.0791,1.88Zm-.3076-1.8775.6963,1.2,1.3877-.003.69-1.2021-.6953-1.2-1.3877.0034Z"/><path class="cls-8" d="M124.79,60.5766l-1.0879-1.8759,1.08-1.8794,2.168-.0049,1.0889,1.8755-1.08,1.88Zm-.3066-1.8779.6953,1.2,1.3877-.0029.6914-1.2022-.6963-1.2-1.3867.003Z"/><path class="cls-8" d="M124.8012,65.8042l-1.0888-1.876,1.08-1.88,2.1689-.0049,1.0879,1.876-1.08,1.88Zm-.3076-1.8779.6963,1.2,1.3867-.003.6914-1.2021-.6953-1.2-1.3877.0029Z"/><path class="cls-8" d="M124.811,70.6929l-1.0879-1.876,1.08-1.8809,2.168-.0049,1.0888,1.876-1.08,1.8809Zm-.3066-1.878.6953,1.2,1.3877-.0029.6914-1.2031-.6963-1.2-1.3867.0029Z"/><path class="cls-8" d="M124.8227,75.92l-1.0888-1.876,1.08-1.8808,2.169-.0039,1.0879,1.875-1.08,1.8808Zm-.3076-1.8779.6963,1.2,1.3867-.003.6914-1.2031-.6953-1.1992-1.3877.0019Z"/><path class="cls-8" d="M124.8335,81.1929l-1.0889-1.876,1.08-1.8809,2.1689-.0039,1.0889,1.875-1.08,1.8809Zm-.3076-1.878.6962,1.2,1.3877-.0029.6914-1.2031L126.605,78.11l-1.3877.002Z"/><path class="cls-8" d="M124.6694,3.5454,123.5805,1.67l1.08-1.8809,2.169-.0043,1.0879,1.875-1.08,1.8808Zm-.3076-1.8774.6963,1.2,1.3867-.003.6914-1.2031L126.4409.4624l-1.3877.0024Z"/><path class="cls-8" d="M120.3,20.2353l-1.0879-1.8764,1.08-1.8794,2.1679-.0049,1.0889,1.8755-1.08,1.88Zm-.3067-1.8774.6953,1.2,1.3877-.0034.6914-1.2022-.6962-1.2-1.3868.003Z"/><path class="cls-8" d="M120.312,25.4624l-1.0889-1.8745,1.08-1.8809,2.1689-.0054,1.0879,1.8765-1.08,1.8794Zm-.3076-1.8765.6963,1.1988,1.3867-.003.6914-1.2026-.6953-1.2-1.3877.0034Z"/><path class="cls-8" d="M120.3227,30.7353l-1.0879-1.875,1.08-1.8808,2.168-.0049,1.0889,1.8755-1.08,1.88Zm-.3066-1.8769.6953,1.1992,1.3877-.0034.6914-1.2022-.6963-1.2-1.3867.003Z"/><path class="cls-8" d="M120.3335,35.9624l-1.0879-1.8745,1.08-1.8809,2.1679-.0054,1.0889,1.876-1.08,1.8814Zm-.3067-1.8765.6953,1.1988,1.3877-.0025.6914-1.2026-.6962-1.2-1.3868.0034Z"/><path class="cls-8" d="M120.3,20.2353l-1.0879-1.8764,1.08-1.8794,2.1679-.0049,1.0889,1.8755-1.08,1.88Zm-.3067-1.8774.6953,1.2,1.3877-.0034.6914-1.2022-.6962-1.2-1.3868.003Z"/><path class="cls-8" d="M120.312,25.4624l-1.0889-1.8745,1.08-1.8809,2.1689-.0054,1.0879,1.8765-1.08,1.8794Zm-.3076-1.8765.6963,1.1988,1.3867-.003.6914-1.2026-.6953-1.2-1.3877.0034Z"/><path class="cls-8" d="M120.3227,30.7353l-1.0879-1.875,1.08-1.8808,2.168-.0049,1.0889,1.8755-1.08,1.88Zm-.3066-1.8769.6953,1.1992,1.3877-.0034.6914-1.2022-.6963-1.2-1.3867.003Z"/><path class="cls-8" d="M120.3335,35.9624l-1.0879-1.8745,1.08-1.8809,2.1679-.0054,1.0889,1.876-1.08,1.8814Zm-.3067-1.8765.6953,1.1988,1.3877-.0025.6914-1.2026-.6962-1.2-1.3868.0034Z"/><path class="cls-8" d="M120.3452,41.1323l-1.0889-1.8755,1.08-1.8808,2.1689-.0044,1.0879,1.875-1.08,1.8808Zm-.3076-1.8774.6963,1.2,1.3867-.003.6914-1.2031-.6953-1.1992-1.3877.0024Z"/><path class="cls-8" d="M120.3559,46.36l-1.0888-1.8759,1.08-1.88,2.169-.0049,1.0889,1.8745-1.08,1.8809Zm-.3076-1.8779.6963,1.2,1.3877-.0034.6914-1.2031-.6963-1.1988-1.3877.003Z"/><path class="cls-8" d="M120.3667,51.6323l-1.0879-1.8755,1.08-1.88,2.1679-.0053,1.0889,1.875-1.08,1.8808Zm-.3067-1.8774.6953,1.2,1.3877-.003.6915-1.2031-.6963-1.1992-1.3868.0034Z"/><path class="cls-8" d="M120.3784,56.86,119.29,54.9844l1.08-1.88,2.169-.0049,1.0878,1.8755-1.08,1.88Zm-.3076-1.8779.6963,1.2,1.3867-.0034.6914-1.2022-.6953-1.2-1.3877.003Z"/><path class="cls-8" d="M120.3882,61.813,119.3,59.937l1.08-1.88,2.168-.0049,1.0889,1.876-1.08,1.88Zm-.3067-1.878.6953,1.2,1.3877-.0029.6914-1.2021-.6963-1.2-1.3867.0029Z"/><path class="cls-8" d="M120.4,67.0405l-1.0889-1.875,1.08-1.8808L122.56,63.28l1.0879,1.8759-1.08,1.88Zm-.3076-1.8769.6963,1.1992,1.3867-.003.6914-1.2021-.6953-1.2-1.3877.0029Z"/><path class="cls-8" d="M120.4106,72.313l-1.0879-1.875,1.08-1.8809,2.168-.0049,1.0888,1.876-1.08,1.88Zm-.3066-1.877.6953,1.1992,1.3877-.0029.6914-1.2021-.6963-1.2-1.3867.0029Z"/><path class="cls-8" d="M120.4223,77.5405l-1.0888-1.875,1.08-1.8808,2.1689-.0049,1.0879,1.8759-1.08,1.8809Zm-.3076-1.8769.6963,1.1992,1.3867-.002.6914-1.2031-.6953-1.2-1.3877.0029Z"/><path class="cls-8" d="M120.4321,82.4292l-1.0879-1.876,1.08-1.88,2.168-.0049,1.0888,1.875-1.08,1.8809Zm-.3066-1.8779.6953,1.2,1.3877-.003.6914-1.2031-.6963-1.1992-1.3867.0029Z"/><path class="cls-8" d="M120.268,4.7817l-1.0888-1.8755,1.08-1.88,2.169-.0054,1.0889,1.875-1.08,1.8808ZM119.96,2.9043l.6963,1.2,1.3877-.0029.6914-1.2032L122.04,1.6987l-1.3877.0034Z"/><path class="cls-8" d="M120.2788,10.0542l-1.0879-1.8755,1.08-1.88,2.1679-.0054,1.0889,1.875-1.08,1.8809Zm-.3067-1.8775.6954,1.2,1.3877-.003.6914-1.2031L122.05,6.9712l-1.3867.0034Z"/><path class="cls-8" d="M120.2905,15.2817l-1.0889-1.8755,1.08-1.88,2.169-.0054,1.0879,1.8764-1.08,1.8794Zm-.3076-1.8774.6963,1.2,1.3867-.0029.6914-1.2027-.6953-1.2-1.3877.0034Z"/><path class="cls-8" d="M133.4878,8.7261l-1.0889-1.8755,1.08-1.88,2.1689-.0054,1.0889,1.876-1.08,1.88ZM133.18,6.8486l.6962,1.2,1.3877-.0029.6914-1.2022-.6963-1.2-1.3876.0034Z"/><path class="cls-8" d="M133.4985,13.9536l-1.0879-1.8745,1.08-1.8809,2.168-.0053,1.0888,1.8759-1.08,1.88Zm-.3066-1.8765.6953,1.1988,1.3877-.003.6914-1.2021-.6963-1.2-1.3867.0034Z"/><path class="cls-8" d="M133.51,19.2261l-1.0888-1.8746,1.08-1.8808,2.169-.0054,1.0879,1.8765-1.08,1.8794Zm-.3076-1.8765.6963,1.1987,1.3867-.0029.6914-1.2026-.6953-1.2-1.3877.0034Z"/><path class="cls-8" d="M133.521,24.4536l-1.0879-1.8745,1.08-1.8809,2.1679-.0053,1.0889,1.8759L135.69,24.45Zm-.3067-1.8765.6953,1.1988,1.3877-.0025.6914-1.2026-.6962-1.2-1.3868.0034Z"/><path class="cls-8" d="M133.4878,8.7261l-1.0889-1.8755,1.08-1.88,2.1689-.0054,1.0889,1.876-1.08,1.88ZM133.18,6.8486l.6962,1.2,1.3877-.0029.6914-1.2022-.6963-1.2-1.3876.0034Z"/><path class="cls-8" d="M133.4985,13.9536l-1.0879-1.8745,1.08-1.8809,2.168-.0053,1.0888,1.8759-1.08,1.88Zm-.3066-1.8765.6953,1.1988,1.3877-.003.6914-1.2021-.6963-1.2-1.3867.0034Z"/><path class="cls-8" d="M133.51,19.2261l-1.0888-1.8746,1.08-1.8808,2.169-.0054,1.0879,1.8765-1.08,1.8794Zm-.3076-1.8765.6963,1.1987,1.3867-.0029.6914-1.2026-.6953-1.2-1.3877.0034Z"/><path class="cls-8" d="M133.521,24.4536l-1.0879-1.8745,1.08-1.8809,2.1679-.0053,1.0889,1.8759L135.69,24.45Zm-.3067-1.8765.6953,1.1988,1.3877-.0025.6914-1.2026-.6962-1.2-1.3868.0034Z"/><path class="cls-8" d="M133.5317,29.624l-1.0879-1.876,1.08-1.8808,2.168-.0049,1.0888,1.8755-1.08,1.8808Zm-.3066-1.8779.6953,1.2,1.3877-.0034L136,27.74l-.6963-1.2-1.3867.003Z"/><path class="cls-8" d="M133.5434,34.8511l-1.0888-1.8755,1.08-1.8809,2.169-.0044,1.0879,1.875-1.08,1.8809Zm-.3076-1.8775.6963,1.2,1.3867-.0029.6914-1.2031-.6953-1.1992-1.3877.0024Z"/><path class="cls-8" d="M133.5542,40.1235l-1.0889-1.8755,1.08-1.8808,2.1689-.0044,1.0889,1.875-1.08,1.8808Zm-.3076-1.8774.6962,1.2,1.3877-.0029.6915-1.2032-.6963-1.1992-1.3877.0025Z"/><path class="cls-8" d="M133.5649,45.3511l-1.0879-1.8755,1.08-1.88,2.168-.0054,1.0888,1.876-1.08,1.88Zm-.3066-1.8775.6953,1.2,1.3877-.0029.6914-1.2022-.6963-1.2-1.3867.0034Z"/><path class="cls-8" d="M133.5757,50.3042l-1.0879-1.8755,1.0791-1.88,2.1689-.0054,1.0889,1.876-1.08,1.88Zm-.3067-1.8775.6953,1.2,1.3877-.003.6914-1.2021-.6963-1.2-1.3876.0034Z"/><path class="cls-8" d="M133.5864,55.5317l-1.0879-1.8755,1.08-1.88,2.168-.0054,1.0888,1.876-1.08,1.88Zm-.3066-1.8774.6953,1.2,1.3877-.0029.6914-1.2022-.6963-1.2-1.3867.0034Z"/><path class="cls-8" d="M133.5981,60.8042l-1.0889-1.875,1.08-1.88,2.169-.0054,1.0879,1.876-1.08,1.88Zm-.3076-1.877.6963,1.1993,1.3867-.003.6914-1.2021-.6953-1.2-1.3877.0039Z"/><path class="cls-8" d="M133.6089,66.0317l-1.0879-1.875,1.08-1.8808,2.1679-.0049,1.0889,1.876-1.08,1.8808Zm-.3067-1.8769.6953,1.1992,1.3877-.002.6914-1.2031-.6963-1.2-1.3867.0029Z"/><path class="cls-8" d="M133.62,70.92l-1.0889-1.876,1.08-1.8808,2.169-.0039,1.0879,1.875-1.08,1.8808Zm-.3076-1.8779.6963,1.2,1.3867-.003.6914-1.2031-.6953-1.1992-1.3877.0019Z"/><path class="cls-8" d="M133.63,76.1479l-1.0878-1.8759,1.0791-1.88,2.1689-.0049,1.0889,1.876-1.08,1.88Zm-.3066-1.8779.6953,1.2,1.3877-.0029.6914-1.2022-.6963-1.2-1.3877.003Z"/><path class="cls-8" d="M133.6411,81.42l-1.0879-1.876,1.08-1.88,2.1679-.0048,1.0889,1.8759-1.08,1.88Zm-.3066-1.8779.6953,1.2,1.3877-.003.6914-1.2021-.6963-1.2-1.3867.0029Z"/><path class="cls-8" d="M133.477,3.7734,132.3891,1.897l1.08-1.8794,2.168-.0049,1.0889,1.8755-1.08,1.88ZM133.17,1.896l.6953,1.2,1.3877-.0034.6914-1.2022-.6963-1.2-1.3867.0029Z"/><path class="cls-8" d="M129.1089,20.4624,128.02,18.5879l1.08-1.8809,2.1689-.0054,1.0889,1.876-1.08,1.8814Zm-.3077-1.8765.6963,1.1988,1.3877-.0025.6914-1.2026-.6963-1.2-1.3876.0034Z"/><path class="cls-8" d="M129.12,25.6909l-1.0879-1.8755,1.08-1.8808,2.168-.0054,1.0888,1.876-1.08,1.8808Zm-.3066-1.8774.6953,1.2,1.3877-.003.6914-1.2031-.6963-1.2-1.3867.0034Z"/><path class="cls-8" d="M129.1313,30.9639l-1.0888-1.876,1.08-1.8809,2.169-.0054,1.0879,1.876-1.08,1.8809Zm-.3076-1.878.6963,1.2,1.3867-.0034.6914-1.2031-.6953-1.2-1.3877.0034Z"/><path class="cls-8" d="M129.1421,36.1909l-1.0889-1.8755,1.08-1.8808,2.1689-.0044,1.0889,1.875-1.08,1.8808Zm-.3076-1.8774.6962,1.2,1.3877-.003.6914-1.2031-.6962-1.1992-1.3877.0024Z"/><path class="cls-8" d="M129.1089,20.4624,128.02,18.5879l1.08-1.8809,2.1689-.0054,1.0889,1.876-1.08,1.8814Zm-.3077-1.8765.6963,1.1988,1.3877-.0025.6914-1.2026-.6963-1.2-1.3876.0034Z"/><path class="cls-8" d="M129.12,25.6909l-1.0879-1.8755,1.08-1.8808,2.168-.0054,1.0888,1.876-1.08,1.8808Zm-.3066-1.8774.6953,1.2,1.3877-.003.6914-1.2031-.6963-1.2-1.3867.0034Z"/><path class="cls-8" d="M129.1313,30.9639l-1.0888-1.876,1.08-1.8809,2.169-.0054,1.0879,1.876-1.08,1.8809Zm-.3076-1.878.6963,1.2,1.3867-.0034.6914-1.2031-.6953-1.2-1.3877.0034Z"/><path class="cls-8" d="M129.1421,36.1909l-1.0889-1.8755,1.08-1.8808,2.1689-.0044,1.0889,1.875-1.08,1.8808Zm-.3076-1.8774.6962,1.2,1.3877-.003.6914-1.2031-.6962-1.1992-1.3877.0024Z"/><path class="cls-8" d="M129.1528,41.36l-1.0879-1.8764,1.08-1.8794,2.168-.0049,1.0888,1.8745-1.08,1.8809Zm-.3066-1.8774.6953,1.2,1.3877-.0034.6914-1.2031-.6963-1.1988-1.3867.003Z"/><path class="cls-8" d="M129.1636,46.5874l-1.0879-1.8755,1.08-1.88,2.168-.0054,1.0889,1.876-1.08,1.88Zm-.3067-1.8775.6953,1.2,1.3877-.003.6914-1.2021-.6963-1.2-1.3867.0034Z"/><path class="cls-8" d="M129.1753,51.86l-1.0889-1.8759,1.08-1.88,2.1689-.0049,1.0889,1.8755-1.08,1.88Zm-.3076-1.8779.6962,1.2,1.3877-.0034.6914-1.2022-.6962-1.2-1.3877.003Z"/><path class="cls-8" d="M129.186,57.0874l-1.0879-1.8745,1.08-1.8809,2.168-.0054,1.0888,1.876-1.08,1.88Zm-.3066-1.8765.6953,1.1988,1.3877-.003.6914-1.2021-.6963-1.2-1.3867.0034Z"/><path class="cls-8" d="M129.1968,62.0405l-1.0889-1.875,1.08-1.8808,2.1689-.0049,1.0889,1.8759-1.08,1.88Zm-.3077-1.8769.6963,1.1992,1.3877-.003.6914-1.2021-.6963-1.2-1.3877.0029Z"/><path class="cls-8" d="M129.2075,67.269,128.12,65.3931l1.08-1.8809,2.168-.0049,1.0888,1.876-1.08,1.8808Zm-.3066-1.8779.6953,1.2,1.3877-.0029.6914-1.2032-.6963-1.2-1.3867.003Z"/><path class="cls-8" d="M129.2192,72.5415l-1.0889-1.876,1.08-1.8808,2.169-.0049,1.0879,1.8759-1.08,1.8809Zm-.3076-1.8779.6963,1.2,1.3867-.003.6914-1.2031-.6953-1.2-1.3877.0029Z"/><path class="cls-8" d="M129.23,77.769l-1.0879-1.8759,1.0791-1.8809,2.1689-.0039,1.0889,1.875-1.08,1.8808Zm-.3067-1.8779.6953,1.2,1.3877-.0029.6914-1.2032-.6963-1.1992-1.3877.002Z"/><path class="cls-8" d="M129.2407,82.6567l-1.0889-1.876,1.08-1.88,2.169-.0049,1.0878,1.876-1.08,1.88Zm-.3076-1.8779.6963,1.2,1.3867-.0029.6914-1.2022-.6953-1.2-1.3877.0029Z"/><path class="cls-8" d="M129.0757,5.0093l-1.0879-1.8755,1.08-1.88,2.168-.0054,1.0889,1.876-1.08,1.88Zm-.3067-1.8775.6953,1.2,1.3877-.0029.6914-1.2021-.6963-1.2L129.46,1.93Z"/><path class="cls-8" d="M129.0874,10.2817l-1.0889-1.8755,1.08-1.88,2.1689-.0054,1.0879,1.876-1.0791,1.88ZM128.78,8.4043l.6963,1.2,1.3876-.0029.6905-1.2022-.6953-1.2-1.3877.0034Z"/><path class="cls-8" d="M129.0981,15.5093,128.01,13.6348l1.08-1.8809,2.168-.0054,1.0888,1.876-1.08,1.88Zm-.3066-1.8765.6953,1.1987,1.3877-.0029.6914-1.2021-.6963-1.2-1.3867.0034Z"/></g><g class="cls-9"><path class="cls-10" d="M71.5864,68.814l-2.582-1.6124-2.0147.0049-.0019-.61,1.95-.0049,2.6406-1.6279.001.6757-2.0518,1.26,2.0576,1.2637Z"/><path class="cls-10" d="M66.9848,64.7807l-.0068-3.0263,4.5938-.0088.0068,3.0264-.543.0009-.0058-2.416-1.2588.002.0058,2.416-.5429.0019-.0059-2.416-1.706.003.0058,2.416Z"/><path class="cls-10" d="M66.978,61.0913l-.0059-2.9063,4.5938-.01.001.61-4.0508.0088L67.521,61.09Z"/><path class="cls-10" d="M69.2612,57.1772a2.363,2.363,0,0,1-1.1348-.27,2.0422,2.0422,0,0,1-.7919-.7256,2.2473,2.2473,0,0,1-.2823-.7012,4.828,4.828,0,0,1-.0888-1.02l-.002-1.16,4.5938-.01.0019,1.1475a4.7482,4.7482,0,0,1-.0937,1.07,2.3575,2.3575,0,0,1-.2666.6709,2.05,2.05,0,0,1-.7784.7334A2.4106,2.4106,0,0,1,69.2612,57.1772Zm.0088-.6386a1.9757,1.9757,0,0,0,.91-.1905,1.3827,1.3827,0,0,0,.581-.5625,1.8818,1.8818,0,0,0,.2129-.5761,3.8569,3.8569,0,0,0,.06-.7315l-.002-.5742-3.5449.0068.0019.5742a4.03,4.03,0,0,0,.0655.77,1.752,1.752,0,0,0,.2422.6025,1.3706,1.3706,0,0,0,.5791.5127A2.0512,2.0512,0,0,0,69.27,56.5386Z"/><path class="cls-10" d="M66.96,52.1963l-.002-.6514,1.2793-.4531-.0039-1.9873-1.2813-.4473-.0009-.62,4.5966,1.6621.002.8145Zm1.8017-1.294,2.2539-.8095-2.2578-.8038Z"/><path class="cls-10" d="M66.95,48.1807l-.002-.793,1.8233-1.54-.002-.8613-1.8262.0039-.0009-.61,4.5937-.01.003,1.2861a3.7212,3.7212,0,0,1-.0528.6944,1.441,1.441,0,0,1-.1924.5009,1.1455,1.1455,0,0,1-.3955.3907,1.19,1.19,0,0,1-.6054.1416,1.3486,1.3486,0,0,1-.8321-.2481,1.5177,1.5177,0,0,1-.5058-.6865Zm3.2978-1.4356a.8285.8285,0,0,0,.3506-.07.606.606,0,0,0,.2569-.2295.8712.8712,0,0,0,.125-.3154,2.4,2.4,0,0,0,.0341-.43l-.0019-.7188-1.7334.0039.0019.6172a2.148,2.148,0,0,0,.0518.5059.792.792,0,0,0,.19.3672.8213.8213,0,0,0,.2988.2041A1.16,1.16,0,0,0,70.2475,46.7451Z"/><path class="cls-10" d="M68.353,43.6011a1.3531,1.3531,0,0,1-.6045-.1289,1.2375,1.2375,0,0,1-.4336-.3477,1.63,1.63,0,0,1-.291-.5684,3.0386,3.0386,0,0,1-.0879-.788l-.0029-1.629,4.5937-.01.003,1.36a5.5329,5.5329,0,0,1-.0362.753,1.5205,1.5205,0,0,1-.1533.48.8485.8485,0,0,1-.34.3671,1.0158,1.0158,0,0,1-.4971.1143.9225.9225,0,0,1-.5576-.1641,1.219,1.219,0,0,1-.37-.4443h-.0245a1.2666,1.2666,0,0,1-.4072.7354A1.1763,1.1763,0,0,1,68.353,43.6011Zm-.0254-.6358a.9868.9868,0,0,0,.44-.084.6691.6691,0,0,0,.2774-.3037.9919.9919,0,0,0,.0986-.3594,4.55,4.55,0,0,0,.0225-.5136l-.002-.96-1.709.0039.002.8086a4.2526,4.2526,0,0,0,.043.6572,1.0344,1.0344,0,0,0,.1533.419.7871.7871,0,0,0,.2754.2529A.87.87,0,0,0,68.3276,42.9653Zm2.0938-.3965a.637.637,0,0,0,.28-.0556.4319.4319,0,0,0,.1856-.18.8945.8945,0,0,0,.1025-.3526c.0127-.1377.0186-.3086.0186-.5117l-.002-.7285-1.3261.0029.0019.79a2.7884,2.7884,0,0,0,.03.457.8382.8382,0,0,0,.1221.3145.5132.5132,0,0,0,.2392.2041A.8974.8974,0,0,0,70.4214,42.5688Z"/><path class="cls-10" d="M68.6577,37.88l-.0039-1.9258.5586-.002.0039,1.9258Z"/><path class="cls-10" d="M66.92,34.6919l-.001-.7559,4.1045-2.1875-4.1094.0088-.0009-.57,4.5937-.01.002.9473-3.7481,1.9941,3.752-.0078.0009.5713Z"/><path class="cls-10" d="M66.9116,30.3974l-.0059-3.0263,4.5938-.01.0058,3.0264-.5429.001-.0049-2.4161-1.2588.003.0049,2.416-.543.001-.0049-2.4161-1.706.003.0049,2.416Z"/><path class="cls-10" d="M66.9057,26.7065,66.9,23.8l4.5937-.01.001.61-4.0508.0088.0049,2.2959Z"/><path class="cls-10" d="M66.897,23.1362,66.8911,20.23l4.5937-.01.001.61-4.0508.0087.0049,2.2959Z"/><path class="cls-10" d="M66.8891,19.1265l-.0019-.6514,1.2793-.4531-.0039-1.9873-1.2813-.4473-.001-.62,4.5967,1.6621.002.8144Zm1.8018-1.294,2.2539-.81-2.2578-.8037Z"/></g><rect class="cls-3" x="28.5705" y="20.6742" width="31.4978" height="38.7726" transform="translate(-0.0882 0.0978) rotate(-0.1263)"/><rect class="cls-4" x="43.0021" y="14.2775" width="6.893" height="52.4511" transform="matrix(1, -0.0021, 0.0021, 1, -0.0849, 0.0976)"/><rect class="cls-2" x="35.0325" y="15.6936" width="7.9695" height="49.6501" transform="translate(-0.0848 0.0818) rotate(-0.12)"/><rect class="cls-11" x="17.3691" y="21.7586" width="11.2005" height="37.7316" transform="translate(-0.0851 0.0482) rotate(-0.1201)"/><path class="cls-12" d="M9.81,34.4958a3.2845,3.2845,0,1,1,3.2769-3.292A3.2855,3.2855,0,0,1,9.81,34.4958"/><path class="cls-13" d="M9.81,34.5309a3.2845,3.2845,0,1,1,3.2779-3.292A3.2853,3.2853,0,0,1,9.81,34.5309"/><rect class="cls-1" x="5.9554" y="30.4034" width="7.2623" height="1.6158" transform="translate(-15.2547 10.0226) rotate(-32.4627)"/><path class="cls-12" d="M9.83,43.8483a3.285,3.285,0,1,1,3.2779-3.292A3.2853,3.2853,0,0,1,9.83,43.8483"/><path class="cls-13" d="M9.83,43.8835a3.285,3.285,0,1,1,3.2779-3.292A3.2854,3.2854,0,0,1,9.83,43.8835"/><rect class="cls-1" x="5.9754" y="39.7557" width="7.2623" height="1.6162" transform="translate(-20.2318 11.454) rotate(-32.3845)"/><path class="cls-12" d="M10.0659,53.361a3.2845,3.2845,0,1,1,3.277-3.292,3.2851,3.2851,0,0,1-3.277,3.292"/><path class="cls-13" d="M10.0659,53.3962a3.2845,3.2845,0,1,1,3.277-3.292,3.2851,3.2851,0,0,1-3.277,3.292"/><rect class="cls-1" x="6.2118" y="49.2696" width="7.2625" height="1.6149" transform="translate(-25.3188 13.0874) rotate(-32.4287)"/><line class="cls-14" x1="4.6851" y1="26.8591" x2="4.744" y2="54.5392"/><rect class="cls-15" x="4.3762" y="26.8593" width="0.6768" height="27.6798" transform="translate(-0.0869 0.0102) rotate(-0.1223)"/><line class="cls-14" x1="15.5669" y1="26.8366" x2="15.6259" y2="54.5156"/><rect class="cls-15" x="15.258" y="26.8364" width="0.6768" height="27.6793" transform="translate(-0.0868 0.0334) rotate(-0.1223)"/><path class="cls-11" d="M1.2641,33.0576a.7448.7448,0,0,0-.1953.0518H1.0425v-.2637a1.0958,1.0958,0,0,1,.31-.05.9185.9185,0,0,1-.2539-.3135A.9385.9385,0,0,1,1,32.0439a.8267.8267,0,0,1,.08-.3769.5953.5953,0,0,1,.5488-.3428.6009.6009,0,0,1,.3769.1221.7584.7584,0,0,1,.2442.3506,1.5092,1.5092,0,0,1,.0869.54l.001.4551.251-.001a.4849.4849,0,0,0,.3769-.1494.6037.6037,0,0,0,.1358-.4258.7371.7371,0,0,0-.0606-.3057.5359.5359,0,0,0-.1641-.2128A.3671.3671,0,0,0,2.65,31.62l.001-.2471a.5458.5458,0,0,1,.3193.1094.7575.7575,0,0,1,.2432.3037,1.0009,1.0009,0,0,1,.0937.4395,1.0257,1.0257,0,0,1-.08.4238.6325.6325,0,0,1-.2431.2852.7245.7245,0,0,1-.3985.1025L1.5093,33.04A1.7178,1.7178,0,0,0,1.2641,33.0576Zm.0762-.54a.7037.7037,0,0,0,.3164.2754l.4912-.001V32.37a1.3866,1.3866,0,0,0-.06-.4307.6236.6236,0,0,0-.1719-.2754.394.394,0,0,0-.2646-.0957.4126.4126,0,0,0-.2207.0635.4262.4262,0,0,0-.1563.1748.5748.5748,0,0,0-.0566.2627A.8164.8164,0,0,0,1.34,32.5176Z"/><path class="cls-11" d="M1.2514,31.0093l-.2138.0009-.003-1.5527v-.1787L4.03,29.272v.2548l-2.7813.0059Z"/><path class="cls-11" d="M1.06,41.4731l2.5586-1.7256-2.5625.0059v-.2549l2.9951-.0068v.2549L1.4917,41.4741l2.5635-.0059v.253L1.06,41.728Z"/><path class="cls-11" d="M3.21,51.6636a.8705.8705,0,0,1-.3945.2939,1.6449,1.6449,0,0,1-.6006.1016h-.043a1.5992,1.5992,0,0,1-.5888-.1.8843.8843,0,0,1-.3994-.292.7427.7427,0,0,1-.1436-.4561.8782.8782,0,0,1,.09-.4141.7513.7513,0,0,1,.2559-.289L1.08,50.4956v-.2305l3.1591-.0058v.247l-1.2548.002a.7815.7815,0,0,1,.2695.2871.8561.8561,0,0,1,.0947.4072A.7733.7733,0,0,1,3.21,51.6636Zm-.9951.1464a1.2251,1.2251,0,0,0,.667-.163.5429.5429,0,0,0,.252-.49.6393.6393,0,0,0-.128-.4121.7973.7973,0,0,0-.3291-.2353l-1.0049.0019a.7182.7182,0,0,0-.3037.2481.6733.6733,0,0,0-.1142.4052.5571.5571,0,0,0,.1181.3623.7068.7068,0,0,0,.3262.2149,1.498,1.498,0,0,0,.4736.0683Z"/><path class="cls-11" d="M1.2925,49.8389l-.2139.0009-.0029-1.5527v-.1787l2.9951-.0069v.2549L1.29,48.3623Z"/><rect class="cls-16" x="6.5184" y="30.7213" width="6.5691" height="1.0502" transform="translate(-19.2233 16.0836) rotate(-45)"/><rect class="cls-16" x="6.538" y="40.0734" width="6.5691" height="1.0502" transform="translate(-25.8305 18.8366) rotate(-45)"/><rect class="cls-16" x="6.7738" y="49.5866" width="6.5691" height="1.0502" transform="translate(-32.4883 21.7897) rotate(-45)"/></svg>