<svg id="Layer_1" data-name="Layer 1" xmlns="http://www.w3.org/2000/svg" viewBox="0 0 333.5548 265.458"><defs><style>.cls-1{fill:#aea3a1;}.cls-2{fill:#b5ada9;}.cls-3{fill:#958c8b;}.cls-4{fill:#7b8288;}.cls-5,.cls-6,.cls-7{fill:none;stroke-linejoin:round;}.cls-5,.cls-6{stroke:#babcbe;}.cls-5{stroke-width:5.744px;}.cls-6{stroke-width:5.683px;}.cls-7{stroke:#221f1f;stroke-linecap:round;stroke-width:4.174px;}.cls-8{fill:#424242;}</style></defs><rect class="cls-1" x="108.4731" y="5.9987" width="15.816" height="14.393"/><path class="cls-1" d="M89.7814,10.574H48.2674a2.2512,2.2512,0,0,1-2.251-2.251V2.251A2.2512,2.2512,0,0,1,48.2674,0h41.514a2.2512,2.2512,0,0,1,2.251,2.251V8.323a2.2512,2.2512,0,0,1-2.251,2.251"/><rect class="cls-2" x="32.8961" y="23.4987" width="72.256" height="80.479"/><path class="cls-3" d="M107.9855,114.5505H30.0635a3.04,3.04,0,0,1-3.041-3.0409v-4.491a3.04,3.04,0,0,1,3.041-3.0411h77.922a3.04,3.04,0,0,1,3.041,3.0411v4.491a3.04,3.04,0,0,1-3.041,3.0409"/><path class="cls-4" d="M299.422,232.6266H118.772a3.6329,3.6329,0,0,1-3.633-3.6329v-110.81a3.6329,3.6329,0,0,1,3.633-3.633h180.65a3.6336,3.6336,0,0,1,3.633,3.633v110.81a3.6335,3.6335,0,0,1-3.633,3.6329"/><path class="cls-1" d="M116.1144,235.5641H33.0954a2.5491,2.5491,0,0,1-2.548-2.5489V114.1631a2.5478,2.5478,0,0,1,2.548-2.5489h83.019a2.548,2.548,0,0,1,2.549,2.5489V233.0152a2.5493,2.5493,0,0,1-2.549,2.5489"/><polyline class="cls-5" points="30.547 111.614 30.547 262.586 0 262.586"/><polyline class="cls-6" points="303.055 114.551 303.055 262.586 333.555 262.586"/><path class="cls-3" d="M108.4728,30.2527H29.5768a2.5534,2.5534,0,0,1-2.554-2.554V7.8407a2.554,2.554,0,0,1,2.554-2.554h78.896a2.5547,2.5547,0,0,1,2.554,2.554v19.858a2.554,2.554,0,0,1-2.554,2.554"/><rect class="cls-4" x="106.3531" y="30.2527" width="2.216" height="73.725"/><rect class="cls-4" x="29.4391" y="30.2527" width="2.216" height="73.725"/><rect class="cls-4" x="69.0241" y="30.2527" width="2.216" height="73.725"/><path class="cls-3" d="M131.7609,23.0349h-6.765a.7078.7078,0,0,1-.707-.708V4.0619a.7076.7076,0,0,1,.707-.707h6.765a.707.707,0,0,1,.707.707v18.265a.7072.7072,0,0,1-.707.708"/><rect class="cls-1" x="132.4671" y="5.9987" width="4.223" height="14.393"/><path class="cls-3" d="M144.1622,23.0349h-6.765a.7078.7078,0,0,1-.707-.708V4.0619a.7076.7076,0,0,1,.707-.707h6.765a.707.707,0,0,1,.707.707v18.265a.7072.7072,0,0,1-.707.708"/><rect class="cls-1" x="144.8691" y="5.9987" width="4.223" height="14.393"/><path class="cls-7" d="M267.7658,134.6238a9.716,9.716,0,1,1-9.716-9.715A9.7166,9.7166,0,0,1,267.7658,134.6238Z"/><path class="cls-8" d="M267.7658,134.6238a9.716,9.716,0,1,1-9.716-9.715,9.7166,9.7166,0,0,1,9.716,9.715"/></svg>