<svg id="Layer_1" data-name="Layer 1" xmlns="http://www.w3.org/2000/svg" viewBox="0 0 390.936 87.8383"><defs><style>.cls-1,.cls-2,.cls-6{fill:none;}.cls-1{stroke:#221f1f;}.cls-1,.cls-2{stroke-linecap:round;stroke-linejoin:round;stroke-width:1.354px;}.cls-2{stroke:#e9262a;}.cls-3{fill:#ded8d4;}.cls-4{fill:#dfd6c7;}.cls-5{fill:#c2bbaf;}.cls-6{stroke:#c2bbaf;stroke-miterlimit:10;stroke-width:1.067px;}.cls-7{fill:#b2a696;}.cls-8{fill:#7b766b;}.cls-9{fill:#cfd2d3;}.cls-10{fill:#808083;}.cls-11{fill:#eae2d1;}</style></defs><line class="cls-1" x1="0.677" y1="30.12" x2="47.2699" y2="30.12"/><line class="cls-2" x1="0.677" y1="41.1791" x2="47.27" y2="41.1791"/><line class="cls-1" x1="390.259" y1="39.9662" x2="342.8351" y2="39.9662"/><line class="cls-2" x1="390.259" y1="30.1193" x2="342.8351" y2="30.1193"/><rect class="cls-3" x="221.265" width="7.8571" height="60.239"/><polygon class="cls-4" points="271.137 81.078 244.461 81.078 239.526 58.959 151.344 58.959 146.408 81.078 119.733 81.078 119.733 1.281 271.137 1.281 271.137 81.078"/><rect class="cls-3" x="163.5709" y="0.17" width="7.8571" height="60.239"/><path class="cls-5" d="M177.3868,13.2661h37.919a1.9216,1.9216,0,0,1,1.921,1.921v30.207a1.9223,1.9223,0,0,1-1.921,1.921h-37.919a1.9207,1.9207,0,0,1-1.92-1.921V15.1871a1.92,1.92,0,0,1,1.92-1.921"/><line class="cls-6" x1="236.2511" y1="58.9585" x2="236.2511" y2="1.2805"/><line class="cls-6" x1="154.1866" y1="58.9585" x2="154.1866" y2="1.2805"/><path class="cls-4" d="M178.7911,14.5268h35.111a1.7788,1.7788,0,0,1,1.7789,1.778v27.971a1.7788,1.7788,0,0,1-1.7789,1.778h-35.111a1.778,1.778,0,0,1-1.778-1.778V16.3048a1.778,1.778,0,0,1,1.778-1.778"/><rect class="cls-7" x="269.1" y="2.572" width="45.397" height="27.719"/><path class="cls-8" d="M310.1661,12.3207h4.331v9.0071h-4.331a3.2209,3.2209,0,0,1-3.221-3.221v-2.566a3.22,3.22,0,0,1,3.221-3.22"/><path class="cls-9" d="M322.2316,21.9233h-7.7351v65.915h7.7351A2.9984,2.9984,0,0,0,325.23,84.84V24.9213a2.9984,2.9984,0,0,0-2.9979-2.998"/><rect class="cls-9" x="325.23" y="24.975" width="17.605" height="20.23"/><path class="cls-10" d="M271.0206,87.8383h41.5559a1.9207,1.9207,0,0,0,1.92-1.921V32.2113a1.9207,1.9207,0,0,0-1.92-1.921H271.0206a1.9209,1.9209,0,0,0-1.921,1.921v53.706a1.9209,1.9209,0,0,0,1.921,1.921"/><path class="cls-11" d="M298.6378,38.4926a1.473,1.473,0,1,1,1.4729,1.474,1.473,1.473,0,0,1-1.4729-1.474"/><path class="cls-11" d="M283.4142,38.4926a1.473,1.473,0,1,1,1.4729,1.474,1.4729,1.4729,0,0,1-1.4729-1.474"/><rect class="cls-7" x="75.7809" y="2.572" width="45.9821" height="27.719"/><path class="cls-8" d="M80.1886,12.3207H75.7805v9.0071h4.4081a3.241,3.241,0,0,0,3.241-3.241v-2.526a3.24,3.24,0,0,0-3.241-3.24"/><path class="cls-9" d="M67.9279,21.9233h7.8538v65.915H67.9279A3.0177,3.0177,0,0,1,64.91,84.82V24.9413a3.0183,3.0183,0,0,1,3.0181-3.018"/><rect class="cls-9" x="47.27" y="24.975" width="17.832" height="20.23"/><path class="cls-10" d="M119.8292,87.8383H77.7152a1.9335,1.9335,0,0,1-1.9341-1.934V32.2233a1.9327,1.9327,0,0,1,1.9341-1.933h42.114a1.9333,1.9333,0,0,1,1.934,1.933v53.681a1.9342,1.9342,0,0,1-1.934,1.934"/><path class="cls-11" d="M92.0353,38.4926a1.4921,1.4921,0,1,0-1.4921,1.474,1.483,1.483,0,0,0,1.4921-1.474"/><path class="cls-11" d="M107.4552,38.4926a1.4921,1.4921,0,1,0-1.4921,1.474,1.483,1.483,0,0,0,1.4921-1.474"/></svg>