<svg id="Layer_1" data-name="Layer 1" xmlns="http://www.w3.org/2000/svg" viewBox="0 0 295.5649 87.8383"><defs><style>.cls-1{fill:#ded8d4;}.cls-2{fill:#dfd6c7;}.cls-3{fill:#c2bbaf;}.cls-4{fill:none;stroke:#c2bbaf;stroke-miterlimit:10;stroke-width:1.067px;}.cls-5{fill:#b2a696;}.cls-6{fill:#7b766b;}.cls-7{fill:#cfd2d3;}.cls-8{fill:#808083;}.cls-9{fill:#eae2d1;}</style></defs><rect class="cls-1" x="173.995" width="7.8571" height="60.239"/><polygon class="cls-2" points="223.867 81.078 197.191 81.078 192.256 58.959 104.074 58.959 99.138 81.078 72.463 81.078 72.463 1.281 223.867 1.281 223.867 81.078"/><rect class="cls-1" x="116.3009" y="0.17" width="7.8571" height="60.239"/><path class="cls-3" d="M130.1168,13.2661h37.919a1.9216,1.9216,0,0,1,1.921,1.921v30.207a1.9223,1.9223,0,0,1-1.921,1.921h-37.919a1.9207,1.9207,0,0,1-1.92-1.921V15.1871a1.92,1.92,0,0,1,1.92-1.921"/><line class="cls-4" x1="188.9811" y1="58.9585" x2="188.9811" y2="1.2805"/><line class="cls-4" x1="106.9166" y1="58.9585" x2="106.9166" y2="1.2805"/><path class="cls-2" d="M131.5211,14.5268h35.111a1.7788,1.7788,0,0,1,1.7789,1.778v27.971a1.7788,1.7788,0,0,1-1.7789,1.778h-35.111a1.778,1.778,0,0,1-1.7781-1.778V16.3048a1.778,1.778,0,0,1,1.7781-1.778"/><rect class="cls-5" x="221.83" y="2.572" width="45.397" height="27.719"/><path class="cls-6" d="M262.8961,12.3207h4.331v9.0071h-4.331a3.221,3.221,0,0,1-3.2211-3.221v-2.566a3.22,3.22,0,0,1,3.2211-3.22"/><path class="cls-7" d="M274.9615,21.9233h-7.7351v65.915h7.7351a2.9984,2.9984,0,0,0,2.998-2.998V24.9213a2.9984,2.9984,0,0,0-2.998-2.998"/><rect class="cls-7" x="277.96" y="24.975" width="17.605" height="20.23"/><path class="cls-8" d="M223.7506,87.8383h41.5559a1.9207,1.9207,0,0,0,1.92-1.921V32.2113a1.9207,1.9207,0,0,0-1.92-1.921H223.7506a1.9209,1.9209,0,0,0-1.921,1.921v53.706a1.9209,1.9209,0,0,0,1.921,1.921"/><path class="cls-9" d="M251.3678,38.4926a1.473,1.473,0,1,1,1.4729,1.474,1.4729,1.4729,0,0,1-1.4729-1.474"/><path class="cls-9" d="M236.1442,38.4926a1.473,1.473,0,1,1,1.4729,1.474,1.4729,1.4729,0,0,1-1.4729-1.474"/><rect class="cls-5" x="28.5109" y="2.572" width="45.9821" height="27.719"/><path class="cls-6" d="M32.9186,12.3207H28.5105v9.0071h4.4081a3.2409,3.2409,0,0,0,3.2409-3.241v-2.526a3.24,3.24,0,0,0-3.2409-3.24"/><path class="cls-7" d="M20.6578,21.9233h7.8539v65.915H20.6578A3.0177,3.0177,0,0,1,17.64,84.82V24.9413a3.0183,3.0183,0,0,1,3.018-3.018"/><rect class="cls-7" y="24.975" width="17.832" height="20.23"/><path class="cls-8" d="M72.5592,87.8383H30.4452a1.9335,1.9335,0,0,1-1.9341-1.934V32.2233a1.9327,1.9327,0,0,1,1.9341-1.933h42.114a1.9333,1.9333,0,0,1,1.934,1.933v53.681a1.9342,1.9342,0,0,1-1.934,1.934"/><path class="cls-9" d="M44.7653,38.4926a1.4922,1.4922,0,1,0-1.4921,1.474,1.483,1.483,0,0,0,1.4921-1.474"/><path class="cls-9" d="M60.1852,38.4926a1.4921,1.4921,0,1,0-1.4921,1.474,1.483,1.483,0,0,0,1.4921-1.474"/></svg>