<svg id="Layer_1" data-name="Layer 1" xmlns="http://www.w3.org/2000/svg" viewBox="0 0 183.083 221.072"><defs><style>.cls-1{fill:#323031;}.cls-13,.cls-2{fill:#819356;}.cls-3{fill:#079247;}.cls-4{fill:#f2f2f2;}.cls-5{fill:#6e7071;}.cls-6{fill:#424242;}.cls-7{fill:#5a5a5d;}.cls-19,.cls-8{fill:#221f1f;}.cls-9{fill:#bc2030;}.cls-10{fill:#2f3378;}.cls-11{fill:#d6dd28;}.cls-12{fill:#37b24a;}.cls-13{font-size:8.7057px;}.cls-13,.cls-18,.cls-19{font-family:Verdana;}.cls-14{letter-spacing:0.001em;}.cls-15{letter-spacing:-0.0001em;}.cls-16{letter-spacing:-0.015em;}.cls-17{letter-spacing:0.0001em;}.cls-18{font-size:5px;fill:#fff;letter-spacing:0.001em;}.cls-19{font-size:5.8038px;}.cls-20{letter-spacing:0.0009em;}.cls-21{letter-spacing:0.001em;}.cls-22{letter-spacing:-0.03em;}.cls-23{letter-spacing:-0.0459em;}.cls-24{letter-spacing:-0.06em;}.cls-25{letter-spacing:0.0001em;}.cls-26{fill:#383d37;}.cls-27{fill:#b0a997;}</style></defs><path class="cls-1" d="M179.601,0H3.483A3.4838,3.4838,0,0,0,0,3.483V90.698A3.4829,3.4829,0,0,0,3.483,94.18h.08a3.5674,3.5674,0,0,0-.1335.92v91.245a3.5918,3.5918,0,0,0,.0918.7855,3.4675,3.4675,0,0,0-1.4094,2.7839V217.589a3.4814,3.4814,0,0,0,3.481,3.483H176.436a3.4822,3.4822,0,0,0,3.482-3.483V189.9141a3.4712,3.4712,0,0,0-3.1772-3.4513c.0013-.04.0119-.0777.0119-.1181V95.1a3.5631,3.5631,0,0,0-.1336-.92h2.9819a3.4814,3.4814,0,0,0,3.482-3.482V3.483A3.4823,3.4823,0,0,0,179.601,0ZM14.2338,213.4929a6.4343,6.4343,0,1,1,5.7639-7.042A6.4356,6.4356,0,0,1,14.2338,213.4929Zm156.1572,0a6.4344,6.4344,0,1,1,5.763-7.042A6.4356,6.4356,0,0,1,170.391,213.4929ZM166.9,8.1576a6.4344,6.4344,0,1,1-5.7629,7.042A6.4344,6.4344,0,0,1,166.9,8.1576ZM12.9557,7.0521a6.4349,6.4349,0,1,1-5.7639,7.042A6.4364,6.4364,0,0,1,12.9557,7.0521Z"/><path class="cls-2" d="M75.1605,101.8568h36.167V74.8088H75.1605a2.3494,2.3494,0,0,0-2.349,2.349v22.35a2.3493,2.3493,0,0,0,2.349,2.349"/><path class="cls-2" d="M73.0677,55.3754v36.127H101.04V55.3754a2.39,2.39,0,0,0-2.3891-2.389H75.4567a2.3889,2.3889,0,0,0-2.389,2.389"/><rect class="cls-3" x="88.5077" y="75.5815" width="9.458" height="16.818"/><rect class="cls-1" x="76.5047" y="83.3215" width="9.629" height="17.368"/><path class="cls-2" d="M85.5707,156.0433h0a4.6511,4.6511,0,0,1-4.651-4.6509V107.58a.4741.4741,0,0,1,.473-.474H89.75a.4736.4736,0,0,1,.4731.474v43.811a4.6522,4.6522,0,0,1-4.652,4.6519"/><path class="cls-2" d="M99.2445,156.2445h0a4.65,4.65,0,0,1-4.65-4.65v-43.813a.4741.4741,0,0,1,.473-.4739h8.356a.4741.4741,0,0,1,.473.4739v43.811a4.6522,4.6522,0,0,1-4.652,4.652"/><path class="cls-2" d="M129.7875,186.9964l.0069-89.565a1.164,1.164,0,0,1,1.164-1.165h9.209l-.0069,92.361h-8.742a1.63,1.63,0,0,1-1.631-1.631"/><path class="cls-2" d="M55.4926,96.85l-.007,89.5661a1.164,1.164,0,0,1-1.165,1.164h-9.209l.007-92.3611h8.743a1.6314,1.6314,0,0,1,1.631,1.631"/><path class="cls-4" d="M136.8676,83.9408V38.6218a.825.825,0,0,1,.824-.825h9.318v47.297h-8.989a1.1534,1.1534,0,0,1-1.153-1.153"/><rect class="cls-2" x="101.5917" y="36.2825" width="25.346" height="13.512"/><rect class="cls-2" x="105.9327" y="49.7946" width="15.348" height="9.712"/><path class="cls-2" d="M57.3939,86.1341h-5.569a1.9636,1.9636,0,0,1-1.964-1.964V15.4191a1.9636,1.9636,0,0,1,1.964-1.964h5.569a1.9642,1.9642,0,0,1,1.964,1.964V84.17a1.9642,1.9642,0,0,1-1.964,1.964"/><path class="cls-2" d="M52.8988,86.1341H38.9738a1.9077,1.9077,0,0,1-1.908-1.908V63.3541a1.9077,1.9077,0,0,1,1.908-1.908h13.925a1.9077,1.9077,0,0,1,1.908,1.908v20.872a1.9077,1.9077,0,0,1-1.908,1.908"/><rect class="cls-5" x="101.5927" y="9.2125" width="25.286" height="25.589"/><rect class="cls-6" x="19.5227" y="95.3675" width="25.589" height="92.201"/><rect class="cls-5" x="140.1707" y="96.3515" width="25.589" height="92.201"/><rect class="cls-5" x="148.2787" y="37.6815" width="25.589" height="47.529"/><rect class="cls-6" x="10.1827" y="37.6815" width="25.59" height="47.529"/><rect class="cls-7" x="12.2207" y="39.2285" width="18.767" height="10.703"/><rect class="cls-4" x="16.4377" y="41.2365" width="12.041" height="6.355"/><path class="cls-8" d="M22.04,44.58a4.223,4.223,0,1,1-4.223-4.223A4.2234,4.2234,0,0,1,22.04,44.58"/><rect class="cls-7" x="12.2207" y="49.9325" width="18.767" height="10.703"/><rect class="cls-4" x="16.4377" y="51.9395" width="12.041" height="6.355"/><path class="cls-8" d="M22.04,55.2836a4.223,4.223,0,1,1-4.223-4.2229,4.2233,4.2233,0,0,1,4.223,4.2229"/><rect class="cls-7" x="12.2207" y="60.6356" width="18.767" height="10.704"/><rect class="cls-4" x="16.4377" y="62.6425" width="12.041" height="6.355"/><path class="cls-8" d="M22.04,65.9867a4.223,4.223,0,1,1-4.223-4.223,4.2236,4.2236,0,0,1,4.223,4.223"/><rect class="cls-7" x="12.2207" y="71.3395" width="18.767" height="10.703"/><rect class="cls-4" x="16.4377" y="73.3465" width="12.041" height="6.354"/><path class="cls-8" d="M22.04,76.6908a4.223,4.223,0,1,1-4.223-4.223,4.2234,4.2234,0,0,1,4.223,4.223"/><rect class="cls-7" x="154.3697" y="72.4685" width="18.767" height="10.703"/><rect class="cls-4" x="156.8787" y="74.8085" width="12.041" height="6.355"/><path class="cls-8" d="M163.3168,77.82a4.2225,4.2225,0,1,1,4.2229,4.223,4.2228,4.2228,0,0,1-4.2229-4.223"/><rect class="cls-7" x="154.3697" y="61.7645" width="18.767" height="10.704"/><rect class="cls-4" x="156.8787" y="64.1055" width="12.041" height="6.355"/><path class="cls-8" d="M163.3168,67.1156A4.2225,4.2225,0,1,1,167.54,71.34a4.2234,4.2234,0,0,1-4.2229-4.2241"/><rect class="cls-7" x="154.3697" y="51.0605" width="18.767" height="10.703"/><rect class="cls-4" x="156.8787" y="53.4025" width="12.041" height="6.354"/><path class="cls-8" d="M163.3168,56.4125a4.2225,4.2225,0,1,1,4.2229,4.2231,4.2233,4.2233,0,0,1-4.2229-4.2231"/><rect class="cls-7" x="154.3697" y="40.3575" width="18.767" height="10.703"/><rect class="cls-4" x="156.8787" y="42.6985" width="12.041" height="6.355"/><path class="cls-8" d="M163.3168,45.7093a4.2225,4.2225,0,1,1,4.2229,4.223,4.2234,4.2234,0,0,1-4.2229-4.223"/><rect class="cls-7" x="114.2347" y="10.3435" width="10.704" height="18.767"/><rect class="cls-4" x="116.5767" y="14.5595" width="6.355" height="12.041"/><path class="cls-8" d="M119.5863,20.1625A4.223,4.223,0,1,1,123.81,15.94a4.2234,4.2234,0,0,1-4.224,4.2229"/><rect class="cls-7" x="103.5317" y="10.3435" width="10.703" height="18.767"/><rect class="cls-4" x="105.8737" y="14.5595" width="6.354" height="12.041"/><path class="cls-8" d="M108.8832,20.1625a4.223,4.223,0,1,1,4.223-4.2229,4.2234,4.2234,0,0,1-4.223,4.2229"/><rect class="cls-7" x="21.6037" y="99.5615" width="18.767" height="10.703"/><rect class="cls-4" x="25.8207" y="101.5685" width="12.042" height="6.354"/><path class="cls-8" d="M31.4232,104.9125A4.2225,4.2225,0,1,1,27.2,100.69a4.2234,4.2234,0,0,1,4.223,4.2229"/><rect class="cls-7" x="21.6037" y="110.2645" width="18.767" height="10.703"/><rect class="cls-4" x="28.6642" y="109.428" width="6.355" height="12.042" transform="translate(-84.2514 144.8558) rotate(-88.795)"/><path class="cls-8" d="M31.4232,115.6156a4.2225,4.2225,0,1,1-4.223-4.223,4.2234,4.2234,0,0,1,4.223,4.223"/><rect class="cls-7" x="21.6037" y="120.9675" width="18.767" height="10.703"/><rect class="cls-4" x="25.8207" y="122.9745" width="12.042" height="6.355"/><path class="cls-8" d="M31.4232,126.3187a4.2225,4.2225,0,1,1-4.223-4.2229,4.2233,4.2233,0,0,1,4.223,4.2229"/><rect class="cls-7" x="21.6037" y="131.6705" width="18.767" height="10.704"/><rect class="cls-4" x="25.8207" y="133.6775" width="12.042" height="6.355"/><path class="cls-8" d="M31.4232,137.0228a4.2225,4.2225,0,1,1-4.223-4.224,4.2233,4.2233,0,0,1,4.223,4.224"/><rect class="cls-7" x="21.6037" y="142.4515" width="18.767" height="10.703"/><rect class="cls-4" x="25.8207" y="144.4586" width="12.042" height="6.355"/><path class="cls-8" d="M31.4232,147.8031A4.2225,4.2225,0,1,1,27.2,143.58a4.2234,4.2234,0,0,1,4.223,4.223"/><rect class="cls-7" x="21.6037" y="153.1545" width="18.767" height="10.703"/><rect class="cls-4" x="25.8207" y="155.1616" width="12.042" height="6.355"/><path class="cls-8" d="M31.4232,158.5062a4.2225,4.2225,0,1,1-4.223-4.2229,4.2233,4.2233,0,0,1,4.223,4.2229"/><rect class="cls-7" x="21.6037" y="163.8575" width="18.767" height="10.704"/><rect class="cls-4" x="25.8207" y="165.8655" width="12.042" height="6.355"/><path class="cls-8" d="M31.4232,169.2093a4.2225,4.2225,0,1,1-4.223-4.223,4.2236,4.2236,0,0,1,4.223,4.223"/><rect class="cls-7" x="21.6037" y="174.5625" width="18.767" height="10.703"/><rect class="cls-4" x="25.8207" y="176.5695" width="12.042" height="6.354"/><path class="cls-8" d="M31.4232,179.9134A4.2225,4.2225,0,1,1,27.2,175.69a4.2234,4.2234,0,0,1,4.223,4.223"/><rect class="cls-7" x="145.7697" y="175.7285" width="18.767" height="10.703"/><rect class="cls-4" x="148.2787" y="178.0705" width="12.041" height="6.354"/><path class="cls-8" d="M154.7172,181.08a4.2225,4.2225,0,1,1,4.223,4.223,4.2234,4.2234,0,0,1-4.223-4.223"/><rect class="cls-7" x="145.7697" y="165.0255" width="18.767" height="10.703"/><rect class="cls-4" x="148.2787" y="167.3675" width="12.041" height="6.354"/><path class="cls-8" d="M154.7172,170.3773a4.2225,4.2225,0,1,1,4.223,4.223,4.2233,4.2233,0,0,1-4.223-4.223"/><rect class="cls-7" x="145.7697" y="154.3225" width="18.767" height="10.703"/><rect class="cls-4" x="148.2787" y="156.6635" width="12.041" height="6.355"/><path class="cls-8" d="M154.7172,159.6742a4.2225,4.2225,0,1,1,4.223,4.223,4.2234,4.2234,0,0,1-4.223-4.223"/><rect class="cls-7" x="145.7697" y="143.6195" width="18.767" height="10.703"/><rect class="cls-4" x="148.2787" y="145.9605" width="12.041" height="6.355"/><path class="cls-8" d="M154.7172,148.9711a4.2225,4.2225,0,1,1,4.223,4.223,4.2237,4.2237,0,0,1-4.223-4.223"/><rect class="cls-7" x="145.7697" y="132.8385" width="18.767" height="10.703"/><rect class="cls-4" x="148.2787" y="135.1805" width="12.041" height="6.354"/><path class="cls-8" d="M154.7172,138.19a4.2225,4.2225,0,1,1,4.223,4.223,4.2233,4.2233,0,0,1-4.223-4.223"/><rect class="cls-7" x="145.7697" y="122.1355" width="18.767" height="10.703"/><rect class="cls-4" x="148.2787" y="124.4755" width="12.041" height="6.355"/><path class="cls-8" d="M154.7172,127.4867a4.2225,4.2225,0,1,1,4.223,4.223,4.2234,4.2234,0,0,1-4.223-4.223"/><rect class="cls-7" x="145.7697" y="111.4315" width="18.767" height="10.703"/><rect class="cls-4" x="148.2787" y="113.7725" width="12.041" height="6.355"/><path class="cls-8" d="M154.7172,116.7836a4.2225,4.2225,0,1,1,4.223,4.223,4.2234,4.2234,0,0,1-4.223-4.223"/><rect class="cls-7" x="145.7697" y="100.7275" width="18.767" height="10.704"/><rect class="cls-4" x="148.2787" y="103.0695" width="12.041" height="6.355"/><path class="cls-8" d="M154.7172,106.08a4.2225,4.2225,0,1,1,4.223,4.2241,4.2234,4.2234,0,0,1-4.223-4.2241"/><rect class="cls-9" x="46.2276" y="120.6375" width="8.149" height="10.388"/><rect class="cls-9" x="46.2276" y="99.8706" width="8.149" height="10.389"/><rect class="cls-8" x="46.2276" y="110.2486" width="8.149" height="10.389"/><rect class="cls-8" x="46.2276" y="131.0155" width="8.149" height="10.389"/><rect class="cls-9" x="46.2276" y="141.3946" width="8.149" height="10.389"/><rect class="cls-8" x="46.2276" y="151.7735" width="8.149" height="10.389"/><rect class="cls-9" x="46.2276" y="162.1625" width="8.149" height="10.388"/><rect class="cls-8" x="46.2276" y="172.5396" width="8.149" height="10.389"/><rect class="cls-8" x="38.7417" y="61.8985" width="8.149" height="11.94"/><rect class="cls-9" x="130.903" y="173.5879" width="8.149" height="10.388"/><rect class="cls-8" x="130.903" y="163.2089" width="8.149" height="10.389"/><rect class="cls-9" x="130.903" y="152.8199" width="8.149" height="10.389"/><rect class="cls-8" x="130.903" y="142.4419" width="8.149" height="10.388"/><rect class="cls-9" x="130.903" y="132.063" width="8.149" height="10.389"/><rect class="cls-8" x="130.903" y="121.6839" width="8.149" height="10.389"/><rect class="cls-9" x="130.903" y="111.2959" width="8.149" height="10.388"/><rect class="cls-8" x="130.903" y="100.9179" width="8.149" height="10.389"/><rect class="cls-9" x="38.7417" y="73.7305" width="8.149" height="11.951"/><path class="cls-10" d="M46.69,59.7572h-6.399a1.5483,1.5483,0,0,1-1.549-1.549V16.1092a1.5483,1.5483,0,0,1,1.549-1.549H46.69a1.549,1.549,0,0,1,1.549,1.549v42.099a1.549,1.549,0,0,1-1.549,1.549"/><rect class="cls-8" x="114.1867" y="36.2825" width="11.94" height="12.521"/><rect class="cls-9" x="102.3427" y="36.2825" width="11.951" height="12.521"/><rect class="cls-11" x="138.5617" y="39.0345" width="8.149" height="11.077"/><rect class="cls-12" x="138.5617" y="50.1015" width="8.149" height="11.077"/><rect class="cls-11" x="138.5617" y="61.1785" width="8.149" height="11.077"/><rect class="cls-12" x="138.5617" y="72.2445" width="8.149" height="11.077"/><path class="cls-4" d="M128.8217,72.1615V50.8785a.7791.7791,0,0,1,.778-.779h7.268v23.152h-6.956a1.09,1.09,0,0,1-1.09-1.09"/><path class="cls-2" d="M65.1459,112.2709H55.4918V103.809h9.6541a2.7854,2.7854,0,0,1,2.785,2.786v2.89a2.7853,2.7853,0,0,1-2.785,2.7859"/><path class="cls-2" d="M65.1459,134.7728H55.4918v-8.462h9.6541a2.7854,2.7854,0,0,1,2.785,2.7861v2.89a2.7853,2.7853,0,0,1-2.785,2.7859"/><path class="cls-2" d="M65.1459,157.9672H55.4918v-8.462h9.6541a2.7854,2.7854,0,0,1,2.785,2.7861v2.89a2.7853,2.7853,0,0,1-2.785,2.7859"/><path class="cls-2" d="M65.1459,180.4691H55.4918v-8.462h9.6541a2.7854,2.7854,0,0,1,2.785,2.786v2.89a2.786,2.786,0,0,1-2.785,2.7859"/><path class="cls-2" d="M120.6742,172.32h9.654v8.462h-9.654a2.786,2.786,0,0,1-2.785-2.786v-2.891a2.7851,2.7851,0,0,1,2.785-2.785"/><path class="cls-2" d="M120.6742,149.8177h9.654v8.462h-9.654a2.7854,2.7854,0,0,1-2.785-2.786v-2.89a2.7854,2.7854,0,0,1,2.785-2.786"/><path class="cls-2" d="M120.6742,126.6234h9.654v8.462h-9.654a2.7854,2.7854,0,0,1-2.785-2.786v-2.89a2.7854,2.7854,0,0,1,2.785-2.786"/><path class="cls-2" d="M120.6742,104.1214h9.654v8.462h-9.654a2.7854,2.7854,0,0,1-2.785-2.786v-2.89a2.7854,2.7854,0,0,1,2.785-2.786"/><path class="cls-3" d="M110.29,123.0414h-6.448a.4347.4347,0,0,1-.435-.435v-14.999a.4342.4342,0,0,1,.435-.433h6.448a.4342.4342,0,0,1,.435.433v14.999a.4347.4347,0,0,1-.435.435"/><path class="cls-3" d="M80.9193,122.974h-6.448a.4345.4345,0,0,1-.435-.434V107.541a.4344.4344,0,0,1,.435-.4339h6.448a.4344.4344,0,0,1,.435.4339V122.54a.4345.4345,0,0,1-.435.434"/><rect class="cls-2" x="78.8787" y="85.7405" width="4.881" height="12.53"/><rect class="cls-2" x="91.2587" y="77.9865" width="3.957" height="12.471"/><path class="cls-8" d="M122.472,101.8568H111.327V74.8088h11.145a1.3376,1.3376,0,0,1,1.3379,1.337V100.52a1.3376,1.3376,0,0,1-1.3379,1.337"/><text class="cls-13" transform="translate(32.0904 208.7808)">Pn<tspan class="cls-14" x="10.7588" y="0">e</tspan><tspan class="cls-15" x="15.9536" y="0">umati</tspan><tspan class="cls-14" x="40.978" y="0">c</tspan><tspan x="45.5225" y="0">s </tspan><tspan class="cls-14" x="53.1187" y="0">Co</tspan><tspan x="64.4985" y="0">nt</tspan><tspan class="cls-16" x="73.438" y="0">r</tspan><tspan class="cls-14" x="77.0229" y="0">o</tspan><tspan class="cls-15" x="82.3154" y="0">l M</tspan><tspan class="cls-14" x="95.1016" y="0">o</tspan><tspan class="cls-17" x="100.394" y="0">dule</tspan></text><text class="cls-18" transform="translate(41.6259 17.9791) rotate(90)">PRESSURE SW</text><text class="cls-19" transform="translate(92.0488 59.0875) rotate(90)"><tspan class="cls-20">12</tspan><tspan x="7.3911" y="0">V</tspan></text><text class="cls-19" transform="translate(52.2812 23.632) rotate(90)">COM<tspan class="cls-20" x="13.5122" y="0">P</tspan><tspan x="17.0176" y="0">R</tspan><tspan class="cls-20" x="21.0532" y="0">ES</tspan><tspan x="28.6963" y="0">SOR</tspan><tspan class="cls-21" x="41.2671" y="0"> </tspan><tspan x="43.3135" y="0">O</tspan><tspan class="cls-20" x="47.8818" y="0">UT</tspan></text><text class="cls-19" transform="translate(79.7382 59.0872) rotate(90)"><tspan class="cls-20">24</tspan><tspan x="7.3911" y="0">V</tspan></text><text class="cls-19" transform="translate(105.8847 78.8768) rotate(90)">VS<tspan class="cls-22" x="7.9351" y="0">L</tspan><tspan x="10.9912" y="0">OL</tspan></text><text class="cls-19" transform="translate(83.9443 123.0692) rotate(90)">COMP</text><text class="cls-19" transform="translate(97.6201 120.4294) rotate(90)">S<tspan class="cls-23" x="3.9673" y="0">T</tspan><tspan class="cls-24" x="7.2769" y="0">A</tspan><tspan x="10.896" y="0">T</tspan><tspan class="cls-21" x="14.4722" y="0">U</tspan><tspan class="cls-25" x="18.7261" y="0">S</tspan></text><text class="cls-19" transform="translate(117.6504 52.2125) rotate(180)">V<tspan class="cls-21" x="3.9673" y="0">i</tspan><tspan x="5.5659" y="0">n</tspan></text><text class="cls-19" transform="translate(135.5903 67.5309) rotate(-90)">CAN</text><text class="cls-19" transform="translate(126.6176 109.9606) rotate(-90)">7</text><text class="cls-19" transform="translate(126.618 132.6422) rotate(-90)">6</text><text class="cls-19" transform="translate(126.7107 155.7818) rotate(-90)">5</text><text class="cls-19" transform="translate(126.71 178.4576) rotate(-90)">4</text><text class="cls-19" transform="translate(59.5615 174.522) rotate(90)">3</text><text class="cls-19" transform="translate(59.5615 151.8465) rotate(90)">2</text><text class="cls-19" transform="translate(59.4687 128.7068) rotate(90)">1</text><text class="cls-19" transform="translate(59.4687 106.0313) rotate(90)">0</text><rect class="cls-26" x="114.515" y="78.2946" width="6.107" height="6.107" rx="0.4552"/><rect class="cls-26" x="114.515" y="84.8268" width="6.107" height="6.107" rx="0.4552"/><rect class="cls-26" x="114.515" y="91.359" width="6.107" height="6.107" rx="0.4552"/><rect class="cls-27" x="116.1528" y="79.9324" width="2.8314" height="2.8314"/><rect class="cls-27" x="116.1528" y="92.9968" width="2.8314" height="2.8314"/><rect class="cls-27" x="116.1528" y="86.4646" width="2.8314" height="2.8314"/><rect class="cls-27" x="114.9634" y="78.668" width="1.2188" height="12.0468"/><rect class="cls-7" x="5.2397" y="101.5685" width="3.7862" height="17.2869"/><rect class="cls-7" x="5.2397" y="122.9745" width="3.7862" height="17.2869"/><rect class="cls-7" x="5.4528" y="144.4586" width="3.7862" height="17.2869"/><rect class="cls-7" x="5.4528" y="165.8655" width="3.7862" height="17.2869"/><rect class="cls-7" x="170.7868" y="103.0695" width="3.7862" height="17.2869"/><rect class="cls-7" x="170.7868" y="124.4756" width="3.7862" height="17.2869"/><rect class="cls-7" x="170.9998" y="145.9596" width="3.7862" height="17.2869"/><rect class="cls-7" x="170.9998" y="167.3666" width="3.7862" height="17.2869"/></svg>