<svg id="Layer_1" data-name="Layer 1" xmlns="http://www.w3.org/2000/svg" viewBox="0 0 73.752 155.0596"><defs><style>.cls-1{fill:#846c31;}.cls-2{fill:#221f1f;}.cls-3{fill:#b59349;}.cls-4{fill:#927738;}.cls-5{fill:#323031;}</style></defs><rect class="cls-1" x="8.5583" y="4.4819" width="5.4842" height="2.6247" transform="translate(-1.3831 6.4268) rotate(-30.0014)"/><path class="cls-2" d="M2.7949,21.5314a242.107,242.107,0,0,1,67.517,0l-28.383,12.042Z"/><rect class="cls-3" x="15.2658" y="85.1785" width="43.434" height="45.155"/><polygon class="cls-1" points="73.752 81.308 58.7 85.178 58.7 130.333 73.752 126.247 73.752 81.308"/><polygon class="cls-1" points="0 81.308 15.267 85.178 15.267 130.333 0 126.247 0 81.308"/><polygon class="cls-4" points="0 81.308 29.242 69.304 73.752 81.308 58.7 85.178 14.692 85.178 0 81.308"/><rect class="cls-4" x="20.8558" y="130.3326" width="31.394" height="24.727"/><path class="cls-5" d="M70.3115,81.3078a222.0859,222.0859,0,0,1-67.517,0V21.5318a379.3854,379.3854,0,0,0,67.517,0Z"/><rect class="cls-3" x="13.3588" y="8.3076" width="2.741" height="12.74"/><rect class="cls-3" x="11.1219" y="0.037" width="2.7415" height="9.679" transform="translate(-0.7643 6.9012) rotate(-30.0071)"/><path class="cls-1" d="M15.1357,6.6954l-2.741-4.749.573-.331a.65.65,0,0,1,.8889.238l2.091,3.622a.65.65,0,0,1-.2389.888Z"/><polygon class="cls-1" points="58.843 5.56 63.904 8.302 65.303 6.029 60.241 3.287 58.843 5.56"/><rect class="cls-3" x="56.9568" y="8.3076" width="2.922" height="12.74"/><polygon class="cls-3" points="56.957 8.382 59.488 9.753 64.645 1.371 62.115 0 56.957 8.382"/><path class="cls-1" d="M57.9844,6.6954l2.922-4.749-.6111-.331a.7184.7184,0,0,0-.947.238l-2.229,3.622a.6277.6277,0,0,0,.2541.888Z"/></svg>