<svg id="Layer_1" data-name="Layer 1" xmlns="http://www.w3.org/2000/svg" viewBox="0 0 73.752 173.3171"><defs><style>.cls-1{fill:#846c31;}.cls-2{fill:#221f1f;}.cls-3{fill:#b59349;}.cls-4{fill:#927738;}.cls-5{fill:#323031;}.cls-6{fill:none;stroke:#e9262a;stroke-linecap:round;stroke-linejoin:round;stroke-width:2.708px;}</style></defs><rect class="cls-1" x="8.5583" y="22.7394" width="5.4842" height="2.6247" transform="translate(-10.5123 8.873) rotate(-30.0014)"/><path class="cls-2" d="M2.7949,39.7889a242.107,242.107,0,0,1,67.517,0l-28.383,12.042Z"/><rect class="cls-3" x="15.2658" y="103.436" width="43.434" height="45.155"/><polygon class="cls-1" points="73.752 99.565 58.7 103.435 58.7 148.59 73.752 144.504 73.752 99.565"/><polygon class="cls-1" points="0 99.565 15.267 103.435 15.267 148.59 0 144.504 0 99.565"/><polygon class="cls-4" points="0 99.565 29.242 87.561 73.752 99.565 58.7 103.435 14.692 103.435 0 99.565"/><rect class="cls-4" x="20.8558" y="148.5901" width="31.394" height="24.727"/><path class="cls-5" d="M70.3115,99.5653a222.0859,222.0859,0,0,1-67.517,0V39.7893a379.3854,379.3854,0,0,0,67.517,0Z"/><rect class="cls-3" x="13.3588" y="26.5651" width="2.741" height="12.74"/><rect class="cls-3" x="11.1219" y="18.2945" width="2.7415" height="9.679" transform="translate(-9.895 9.3484) rotate(-30.0071)"/><path class="cls-1" d="M15.1357,24.9529l-2.741-4.749.573-.331a.65.65,0,0,1,.8889.238l2.091,3.622a.65.65,0,0,1-.2389.888Z"/><polygon class="cls-1" points="58.843 23.817 63.904 26.559 65.303 24.286 60.241 21.544 58.843 23.817"/><rect class="cls-3" x="56.9568" y="26.5651" width="2.922" height="12.74"/><polygon class="cls-3" points="56.957 26.639 59.488 28.01 64.645 19.628 62.115 18.258 56.957 26.639"/><path class="cls-1" d="M57.9844,24.9529l2.922-4.749-.6111-.331a.7184.7184,0,0,0-.947.238l-2.229,3.622a.6277.6277,0,0,0,.2541.888Z"/><line class="cls-6" x1="11.3008" y1="1.354" x2="11.3008" y2="19.786"/><line class="cls-6" x1="60.9058" y1="1.354" x2="60.9058" y2="20.2042"/></svg>