<svg id="Layer_1" data-name="Layer 1" xmlns="http://www.w3.org/2000/svg" viewBox="0 0 223.8676 87.8382"><defs><style>.cls-1{fill:#ded8d4;}.cls-2{fill:#dfd6c7;}.cls-3{fill:#c2bbaf;}.cls-4{fill:none;stroke:#c2bbaf;stroke-miterlimit:10;stroke-width:1.067px;}.cls-5{fill:#b2a696;}.cls-6{fill:#7b766b;}.cls-7{fill:#cfd2d3;}.cls-8{fill:#808083;}.cls-9{fill:#eae2d1;}</style></defs><rect class="cls-1" x="173.996" width="7.8571" height="60.24"/><polygon class="cls-2" points="223.868 81.078 197.192 81.078 192.256 58.959 104.074 58.959 99.139 81.078 72.464 81.078 72.464 1.281 223.868 1.281 223.868 81.078"/><rect class="cls-1" x="116.302" y="0.171" width="7.8571" height="60.239"/><path class="cls-3" d="M130.1185,13.2669h37.918a1.92,1.92,0,0,1,1.921,1.921v30.207a1.92,1.92,0,0,1-1.921,1.92h-37.918a1.9194,1.9194,0,0,1-1.921-1.92V15.1879a1.92,1.92,0,0,1,1.921-1.921"/><line class="cls-4" x1="188.9828" y1="58.9593" x2="188.9828" y2="1.2813"/><line class="cls-4" x1="106.9174" y1="58.9593" x2="106.9174" y2="1.2813"/><path class="cls-2" d="M131.5219,14.5276h35.1109a1.7781,1.7781,0,0,1,1.7789,1.778v27.97a1.7789,1.7789,0,0,1-1.7789,1.779H131.5219a1.7788,1.7788,0,0,1-1.7781-1.779v-27.97a1.778,1.778,0,0,1,1.7781-1.778"/><rect class="cls-5" x="28.5118" y="2.572" width="45.9821" height="27.72"/><path class="cls-6" d="M32.92,12.3206H28.5112v9.008H32.92a3.2408,3.2408,0,0,0,3.24-3.241v-2.526a3.2408,3.2408,0,0,0-3.24-3.241"/><path class="cls-7" d="M20.6586,21.9241h7.8539v65.914H20.6586a3.0174,3.0174,0,0,1-3.0171-3.017v-59.88a3.0174,3.0174,0,0,1,3.0171-3.017"/><rect class="cls-7" y="24.974" width="17.832" height="20.231"/><path class="cls-8" d="M72.5609,87.8382H30.4458a1.9333,1.9333,0,0,1-1.934-1.933V32.2242a1.9333,1.9333,0,0,1,1.934-1.933H72.5609a1.9331,1.9331,0,0,1,1.933,1.933v53.681a1.9331,1.9331,0,0,1-1.933,1.933"/><path class="cls-9" d="M44.767,38.4935a1.4927,1.4927,0,1,0-1.4931,1.474,1.4839,1.4839,0,0,0,1.4931-1.474"/><path class="cls-9" d="M60.1859,38.4935a1.4921,1.4921,0,1,0-1.4921,1.474,1.483,1.483,0,0,0,1.4921-1.474"/></svg>