<svg id="Layer_1" data-name="Layer 1" xmlns="http://www.w3.org/2000/svg" viewBox="0 0 280.1477 87.8382"><defs><style>.cls-1,.cls-2,.cls-6{fill:none;}.cls-1{stroke:#e9262a;}.cls-1,.cls-2{stroke-linecap:round;stroke-linejoin:round;stroke-width:1.354px;}.cls-2{stroke:#221f1f;}.cls-3{fill:#ded8d4;}.cls-4{fill:#dfd6c7;}.cls-5{fill:#c2bbaf;}.cls-6{stroke:#c2bbaf;stroke-miterlimit:10;stroke-width:1.067px;}.cls-7{fill:#b2a696;}.cls-8{fill:#7b766b;}.cls-9{fill:#cfd2d3;}.cls-10{fill:#808083;}.cls-11{fill:#eae2d1;}</style></defs><line class="cls-1" x1="0.677" y1="41.1804" x2="56.281" y2="41.1804"/><line class="cls-2" x1="0.677" y1="30.1202" x2="56.281" y2="30.2912"/><rect class="cls-3" x="230.2761" width="7.8571" height="60.24"/><polygon class="cls-4" points="280.148 81.078 253.472 81.078 248.537 58.959 160.355 58.959 155.419 81.078 128.744 81.078 128.744 1.281 280.148 1.281 280.148 81.078"/><rect class="cls-3" x="172.5822" y="0.171" width="7.8571" height="60.239"/><path class="cls-5" d="M186.3987,13.2669h37.9179a1.92,1.92,0,0,1,1.9211,1.921v30.207a1.92,1.92,0,0,1-1.9211,1.92H186.3987a1.9194,1.9194,0,0,1-1.921-1.92V15.1879a1.92,1.92,0,0,1,1.921-1.921"/><line class="cls-6" x1="245.2629" y1="58.9593" x2="245.2629" y2="1.2813"/><line class="cls-6" x1="163.1975" y1="58.9593" x2="163.1975" y2="1.2813"/><path class="cls-4" d="M187.802,14.5276h35.111a1.7781,1.7781,0,0,1,1.7789,1.778v27.97a1.7789,1.7789,0,0,1-1.7789,1.779H187.802a1.7788,1.7788,0,0,1-1.7781-1.779v-27.97a1.778,1.778,0,0,1,1.7781-1.778"/><rect class="cls-7" x="84.792" y="2.572" width="45.9821" height="27.72"/><path class="cls-8" d="M89.2,12.3206h-4.409v9.008H89.2a3.2407,3.2407,0,0,0,3.24-3.241v-2.526a3.2407,3.2407,0,0,0-3.24-3.241"/><path class="cls-9" d="M76.9387,21.9241h7.8539v65.914H76.9387a3.0174,3.0174,0,0,1-3.0171-3.017v-59.88a3.0174,3.0174,0,0,1,3.0171-3.017"/><rect class="cls-9" x="56.2801" y="24.974" width="17.832" height="20.231"/><path class="cls-10" d="M128.8411,87.8382H86.726a1.9333,1.9333,0,0,1-1.934-1.933V32.2242a1.9333,1.9333,0,0,1,1.934-1.933h42.1151a1.9331,1.9331,0,0,1,1.9329,1.933v53.681a1.9331,1.9331,0,0,1-1.9329,1.933"/><path class="cls-11" d="M101.0471,38.4935a1.4927,1.4927,0,1,0-1.493,1.474,1.4839,1.4839,0,0,0,1.493-1.474"/><path class="cls-11" d="M116.4661,38.4935a1.4921,1.4921,0,1,0-1.4921,1.474,1.483,1.483,0,0,0,1.4921-1.474"/></svg>